%MOIN*%
%OFA0B0*%
%FSLAX46Y46*%
%IPPOS*%
%LPD*%
%ADD10C,0.0039370078740157488*%
%ADD11C,0.072834645669291348*%
%ADD12O,0.0905511811023622X0.062992125984251982*%
%ADD13R,0.082677165354330714X0.082677165354330714*%
%ADD14O,0.082677165354330714X0.082677165354330714*%
%ADD25C,0.0039370078740157488*%
%ADD26C,0.072834645669291348*%
%ADD27O,0.0905511811023622X0.062992125984251982*%
%ADD28R,0.082677165354330714X0.082677165354330714*%
%ADD29O,0.082677165354330714X0.082677165354330714*%
%ADD30C,0.0039370078740157488*%
%ADD31C,0.072834645669291348*%
%ADD32O,0.0905511811023622X0.062992125984251982*%
%ADD33R,0.082677165354330714X0.082677165354330714*%
%ADD34O,0.082677165354330714X0.082677165354330714*%
%ADD35C,0.0039370078740157488*%
%ADD36C,0.072834645669291348*%
%ADD37O,0.0905511811023622X0.062992125984251982*%
%ADD38R,0.082677165354330714X0.082677165354330714*%
%ADD39O,0.082677165354330714X0.082677165354330714*%
%ADD40C,0.0039370078740157488*%
%ADD41C,0.072834645669291348*%
%ADD42O,0.0905511811023622X0.062992125984251982*%
%ADD43R,0.082677165354330714X0.082677165354330714*%
%ADD44O,0.082677165354330714X0.082677165354330714*%
%ADD45C,0.0039370078740157488*%
%ADD46C,0.072834645669291348*%
%ADD47O,0.0905511811023622X0.062992125984251982*%
%ADD48R,0.082677165354330714X0.082677165354330714*%
%ADD49O,0.082677165354330714X0.082677165354330714*%
%ADD50C,0.0039370078740157488*%
%ADD51C,0.072834645669291348*%
%ADD52O,0.0905511811023622X0.062992125984251982*%
%ADD53R,0.082677165354330714X0.082677165354330714*%
%ADD54O,0.082677165354330714X0.082677165354330714*%
%ADD55C,0.0039370078740157488*%
%ADD56C,0.072834645669291348*%
%ADD57O,0.0905511811023622X0.062992125984251982*%
%ADD58R,0.082677165354330714X0.082677165354330714*%
%ADD59O,0.082677165354330714X0.082677165354330714*%
%ADD60C,0.0039370078740157488*%
%ADD61C,0.072834645669291348*%
%ADD62O,0.0905511811023622X0.062992125984251982*%
%ADD63R,0.082677165354330714X0.082677165354330714*%
%ADD64O,0.082677165354330714X0.082677165354330714*%
%ADD65C,0.0039370078740157488*%
%ADD66C,0.072834645669291348*%
%ADD67O,0.0905511811023622X0.062992125984251982*%
%ADD68R,0.082677165354330714X0.082677165354330714*%
%ADD69O,0.082677165354330714X0.082677165354330714*%
%ADD70C,0.0039370078740157488*%
%ADD71C,0.072834645669291348*%
%ADD72O,0.0905511811023622X0.062992125984251982*%
%ADD73R,0.082677165354330714X0.082677165354330714*%
%ADD74O,0.082677165354330714X0.082677165354330714*%
%ADD75C,0.0039370078740157488*%
%ADD76C,0.072834645669291348*%
%ADD77O,0.0905511811023622X0.062992125984251982*%
%ADD78R,0.082677165354330714X0.082677165354330714*%
%ADD79O,0.082677165354330714X0.082677165354330714*%
%ADD80C,0.0039370078740157488*%
%ADD81R,0.055118110236220472X0.14173228346456693*%
%ADD82R,0.055118110236220472X0.066929133858267723*%
%ADD83C,0.15354330708661418*%
%ADD84R,0.07874015748031496X0.07874015748031496*%
%ADD85C,0.07874015748031496*%
%ADD86C,0.066929133858267723*%
%ADD87R,0.082677165354330714X0.082677165354330714*%
%ADD88O,0.082677165354330714X0.082677165354330714*%
%ADD89C,0.0039370078740157488*%
%ADD90C,0.086614173228346469*%
%ADD91R,0.094488188976377951X0.16535433070866143*%
%ADD92R,0.094488188976377951X0.074803149606299218*%
%ADD93R,0.047244094488188976X0.0452755905511811*%
%ADD94R,0.051181102362204731X0.035433070866141732*%
%ADD95R,0.051181102362204731X0.047244094488188976*%
%ADD96R,0.084251968503937014X0.029133858267716535*%
%ADD97O,0.084251968503937014X0.029133858267716535*%
%ADD98R,0.029133858267716535X0.084251968503937014*%
%ADD99O,0.029133858267716535X0.084251968503937014*%
%ADD100R,0.035433070866141732X0.051181102362204731*%
%ADD101C,0.15354330708661418*%
%ADD102R,0.07574803149606299X0.07574803149606299*%
%ADD103C,0.07574803149606299*%
%ADD104R,0.082677165354330714X0.082677165354330714*%
%ADD105O,0.082677165354330714X0.082677165354330714*%
%ADD106C,0.0039370078740157488*%
%ADD107R,0.047244094488188976X0.0452755905511811*%
%ADD108C,0.15354330708661418*%
%ADD109C,0.086614173228346469*%
%ADD110R,0.051181102362204731X0.047244094488188976*%
%ADD111R,0.082677165354330714X0.082677165354330714*%
%ADD112R,0.035433070866141732X0.051181102362204731*%
%ADD113R,0.051181102362204731X0.035433070866141732*%
%ADD114R,0.029133858267716535X0.084251968503937014*%
%ADD115O,0.029133858267716535X0.084251968503937014*%
%ADD116R,0.084251968503937014X0.029133858267716535*%
%ADD117O,0.084251968503937014X0.029133858267716535*%
%ADD118O,0.082677165354330714X0.082677165354330714*%
%ADD119R,0.094488188976377951X0.16535433070866143*%
%ADD120R,0.094488188976377951X0.074803149606299218*%
%ADD121R,0.07574803149606299X0.07574803149606299*%
%ADD122C,0.07574803149606299*%
%ADD123C,0.0039370078740157488*%
%ADD124C,0.086614173228346469*%
%ADD125C,0.055118110236220472*%
%ADD126R,0.066929133858267723X0.066929133858267723*%
%ADD127O,0.066929133858267723X0.066929133858267723*%
%ADD128C,0.0039370078740157488*%
%ADD129C,0.086614173228346469*%
%ADD130C,0.055118110236220472*%
%ADD131R,0.066929133858267723X0.066929133858267723*%
%ADD132O,0.066929133858267723X0.066929133858267723*%
G01G01*
D10*
D11*
X0000196850Y0001181102D02*
X0000382283Y0001547244D03*
X0000382283Y0001350393D03*
D12*
X0000275984Y0001586614D03*
X0000275984Y0001311023D03*
D13*
X0000755905Y0001651574D03*
D14*
X0000755905Y0001551574D03*
X0000755905Y0001451574D03*
X0000755905Y0001351574D03*
X0000755905Y0001251574D03*
G04 next file*
G04 Gerber Fmt 4.6, Leading zero omitted, Abs format (unit mm)*
G04 Created by KiCad (PCBNEW 4.0.7) date 11/16/17 17:14:57*
G01G01*
G04 APERTURE LIST*
G04 APERTURE END LIST*
D25*
D26*
X0000196850Y0000639763D02*
X0000382283Y0001005905D03*
X0000382283Y0000809055D03*
D27*
X0000275984Y0001045275D03*
X0000275984Y0000769685D03*
D28*
X0000755905Y0001110236D03*
D29*
X0000755905Y0001010236D03*
X0000755905Y0000910236D03*
X0000755905Y0000810236D03*
X0000755905Y0000710236D03*
G04 next file*
G04 Gerber Fmt 4.6, Leading zero omitted, Abs format (unit mm)*
G04 Created by KiCad (PCBNEW 4.0.7) date 11/16/17 17:14:57*
G01G01*
G04 APERTURE LIST*
G04 APERTURE END LIST*
D30*
D31*
X0000196850Y0000098425D02*
X0000382283Y0000464566D03*
X0000382283Y0000267716D03*
D32*
X0000275984Y0000503937D03*
X0000275984Y0000228346D03*
D33*
X0000755905Y0000568897D03*
D34*
X0000755905Y0000468897D03*
X0000755905Y0000368897D03*
X0000755905Y0000268897D03*
X0000755905Y0000168897D03*
G04 next file*
G04 Gerber Fmt 4.6, Leading zero omitted, Abs format (unit mm)*
G04 Created by KiCad (PCBNEW 4.0.7) date 11/16/17 17:14:57*
G01G01*
G04 APERTURE LIST*
G04 APERTURE END LIST*
D35*
D36*
X0000826771Y0001181102D02*
X0001012204Y0001547244D03*
X0001012204Y0001350393D03*
D37*
X0000905905Y0001586614D03*
X0000905905Y0001311023D03*
D38*
X0001385826Y0001651574D03*
D39*
X0001385826Y0001551574D03*
X0001385826Y0001451574D03*
X0001385826Y0001351574D03*
X0001385826Y0001251574D03*
G04 next file*
G04 Gerber Fmt 4.6, Leading zero omitted, Abs format (unit mm)*
G04 Created by KiCad (PCBNEW 4.0.7) date 11/16/17 17:14:57*
G01G01*
G04 APERTURE LIST*
G04 APERTURE END LIST*
D40*
D41*
X0000826771Y0000639763D02*
X0001012204Y0001005905D03*
X0001012204Y0000809055D03*
D42*
X0000905905Y0001045275D03*
X0000905905Y0000769685D03*
D43*
X0001385826Y0001110236D03*
D44*
X0001385826Y0001010236D03*
X0001385826Y0000910236D03*
X0001385826Y0000810236D03*
X0001385826Y0000710236D03*
G04 next file*
G04 Gerber Fmt 4.6, Leading zero omitted, Abs format (unit mm)*
G04 Created by KiCad (PCBNEW 4.0.7) date 11/16/17 17:14:57*
G01G01*
G04 APERTURE LIST*
G04 APERTURE END LIST*
D45*
D46*
X0000826771Y0000098425D02*
X0001012204Y0000464566D03*
X0001012204Y0000267716D03*
D47*
X0000905905Y0000503937D03*
X0000905905Y0000228346D03*
D48*
X0001385826Y0000568897D03*
D49*
X0001385826Y0000468897D03*
X0001385826Y0000368897D03*
X0001385826Y0000268897D03*
X0001385826Y0000168897D03*
G04 next file*
G04 Gerber Fmt 4.6, Leading zero omitted, Abs format (unit mm)*
G04 Created by KiCad (PCBNEW 4.0.7) date 11/16/17 17:14:57*
G01G01*
G04 APERTURE LIST*
G04 APERTURE END LIST*
D50*
D51*
X0001456692Y0001181102D02*
X0001642125Y0001547244D03*
X0001642125Y0001350393D03*
D52*
X0001535826Y0001586614D03*
X0001535826Y0001311023D03*
D53*
X0002015748Y0001651574D03*
D54*
X0002015748Y0001551574D03*
X0002015748Y0001451574D03*
X0002015748Y0001351574D03*
X0002015748Y0001251574D03*
G04 next file*
G04 Gerber Fmt 4.6, Leading zero omitted, Abs format (unit mm)*
G04 Created by KiCad (PCBNEW 4.0.7) date 11/16/17 17:14:57*
G01G01*
G04 APERTURE LIST*
G04 APERTURE END LIST*
D55*
D56*
X0001456692Y0000639763D02*
X0001642125Y0001005905D03*
X0001642125Y0000809055D03*
D57*
X0001535826Y0001045275D03*
X0001535826Y0000769685D03*
D58*
X0002015748Y0001110236D03*
D59*
X0002015748Y0001010236D03*
X0002015748Y0000910236D03*
X0002015748Y0000810236D03*
X0002015748Y0000710236D03*
G04 next file*
G04 Gerber Fmt 4.6, Leading zero omitted, Abs format (unit mm)*
G04 Created by KiCad (PCBNEW 4.0.7) date 11/16/17 17:14:57*
G01G01*
G04 APERTURE LIST*
G04 APERTURE END LIST*
D60*
D61*
X0001456692Y0000098425D02*
X0001642125Y0000464566D03*
X0001642125Y0000267716D03*
D62*
X0001535826Y0000503937D03*
X0001535826Y0000228346D03*
D63*
X0002015748Y0000568897D03*
D64*
X0002015748Y0000468897D03*
X0002015748Y0000368897D03*
X0002015748Y0000268897D03*
X0002015748Y0000168897D03*
G04 next file*
G04 Gerber Fmt 4.6, Leading zero omitted, Abs format (unit mm)*
G04 Created by KiCad (PCBNEW 4.0.7) date 11/16/17 17:14:57*
G01G01*
G04 APERTURE LIST*
G04 APERTURE END LIST*
D65*
D66*
X0002086614Y0001181102D02*
X0002272047Y0001547244D03*
X0002272047Y0001350393D03*
D67*
X0002165748Y0001586614D03*
X0002165748Y0001311023D03*
D68*
X0002645669Y0001651574D03*
D69*
X0002645669Y0001551574D03*
X0002645669Y0001451574D03*
X0002645669Y0001351574D03*
X0002645669Y0001251574D03*
G04 next file*
G04 Gerber Fmt 4.6, Leading zero omitted, Abs format (unit mm)*
G04 Created by KiCad (PCBNEW 4.0.7) date 11/16/17 17:14:57*
G01G01*
G04 APERTURE LIST*
G04 APERTURE END LIST*
D70*
D71*
X0002086614Y0000639763D02*
X0002272047Y0001005905D03*
X0002272047Y0000809055D03*
D72*
X0002165748Y0001045275D03*
X0002165748Y0000769685D03*
D73*
X0002645669Y0001110236D03*
D74*
X0002645669Y0001010236D03*
X0002645669Y0000910236D03*
X0002645669Y0000810236D03*
X0002645669Y0000710236D03*
G04 next file*
G04 Gerber Fmt 4.6, Leading zero omitted, Abs format (unit mm)*
G04 Created by KiCad (PCBNEW 4.0.7) date 11/16/17 17:14:57*
G01G01*
G04 APERTURE LIST*
G04 APERTURE END LIST*
D75*
D76*
X0002086614Y0000098425D02*
X0002272047Y0000464566D03*
X0002272047Y0000267716D03*
D77*
X0002165748Y0000503937D03*
X0002165748Y0000228346D03*
D78*
X0002645669Y0000568897D03*
D79*
X0002645669Y0000468897D03*
X0002645669Y0000368897D03*
X0002645669Y0000268897D03*
X0002645669Y0000168897D03*
G04 next file*
G04 Gerber Fmt 4.6, Leading zero omitted, Abs format (unit mm)*
G04 Created by KiCad (PCBNEW 4.0.7) date 11/16/17 22:09:06*
G01G01*
G04 APERTURE LIST*
G04 APERTURE END LIST*
D80*
D81*
X0002913385Y0003937007D02*
X0003000787Y0003452755D03*
X0003244881Y0003452755D03*
D82*
X0003091338Y0003452755D03*
X0003154330Y0003452755D03*
D81*
X0003002755Y0003294488D03*
X0003246850Y0003294488D03*
D82*
X0003093307Y0003294488D03*
X0003156299Y0003294488D03*
D83*
X0003810236Y0001924409D03*
X0003062992Y0001858267D03*
X0003787401Y0003641732D03*
X0003051181Y0003665354D03*
D84*
X0003519685Y0003457677D03*
D85*
X0003519685Y0003359251D03*
D86*
X0003469685Y0001798818D03*
X0003627165Y0001798818D03*
D87*
X0003354330Y0003858267D03*
X0003868110Y0002637795D03*
D88*
X0003868110Y0002537795D03*
X0003868110Y0002437795D03*
X0003868110Y0002337795D03*
X0003868110Y0002237795D03*
X0003868110Y0002137795D03*
D87*
X0003350393Y0002637795D03*
D88*
X0003350393Y0002537795D03*
X0003350393Y0002437795D03*
X0003350393Y0002337795D03*
X0003350393Y0002237795D03*
X0003350393Y0002137795D03*
D87*
X0003868110Y0003858267D03*
G04 next file*
G04 Gerber Fmt 4.6, Leading zero omitted, Abs format (unit mm)*
G04 Created by KiCad (PCBNEW 4.0.7) date 11/16/17 20:56:22*
G01G01*
G04 APERTURE LIST*
G04 APERTURE END LIST*
D89*
D90*
X0001456692Y0003937007D02*
X0002397368Y0003325362D03*
X0002397368Y0003148196D03*
X0002397368Y0002971031D03*
X0001944612Y0003325362D03*
X0001944612Y0003148196D03*
X0001944612Y0002971031D03*
X0002013510Y0003463157D03*
X0002328470Y0003463157D03*
X0002013510Y0002833236D03*
X0002328470Y0002833236D03*
X0002170990Y0003502527D03*
D91*
X0002110236Y0001901574D03*
D92*
X0001862204Y0001901574D03*
X0001862204Y0001992125D03*
X0001862204Y0001811023D03*
D93*
X0002706692Y0002669291D03*
X0002647637Y0002669291D03*
D94*
X0002755905Y0003437007D03*
X0002755905Y0003377952D03*
X0002677165Y0003377952D03*
X0002677165Y0003437007D03*
D95*
X0002757874Y0003309055D03*
X0002757874Y0003234251D03*
X0002679133Y0003271653D03*
D96*
X0001751968Y0003126771D03*
D97*
X0001751968Y0003076771D03*
X0001751968Y0003026771D03*
X0001751968Y0002976771D03*
X0001751968Y0002926771D03*
X0001751968Y0002876771D03*
X0001751968Y0002826771D03*
X0001521653Y0002826771D03*
X0001521653Y0002876771D03*
X0001521653Y0002926771D03*
X0001521653Y0002976771D03*
X0001521653Y0003026771D03*
X0001521653Y0003076771D03*
X0001521653Y0003126771D03*
X0001751968Y0002776771D03*
X0001521653Y0002776771D03*
D98*
X0002224015Y0002024803D03*
D99*
X0002274015Y0002024803D03*
X0002324015Y0002024803D03*
X0002374015Y0002024803D03*
X0002424015Y0002024803D03*
X0002474015Y0002024803D03*
X0002524015Y0002024803D03*
X0002524015Y0001794488D03*
X0002474015Y0001794488D03*
X0002424015Y0001794488D03*
X0002374015Y0001794488D03*
X0002324015Y0001794488D03*
X0002274015Y0001794488D03*
X0002224015Y0001794488D03*
X0002574015Y0002024803D03*
X0002574015Y0001794488D03*
D94*
X0002753937Y0003108267D03*
X0002753937Y0003049212D03*
X0002679133Y0003047244D03*
X0002679133Y0003106299D03*
D100*
X0002397637Y0002495078D03*
X0002456692Y0002495078D03*
X0002669291Y0002495078D03*
X0002728346Y0002495078D03*
X0002399606Y0002272637D03*
X0002458661Y0002272637D03*
X0002124015Y0002716535D03*
X0002183070Y0002716535D03*
X0002677165Y0002278543D03*
X0002736220Y0002278543D03*
X0002116141Y0002495078D03*
X0002175196Y0002495078D03*
X0002124015Y0002273622D03*
X0002183070Y0002273622D03*
X0001527559Y0003419291D03*
X0001586614Y0003419291D03*
X0002405511Y0002716535D03*
X0002464566Y0002716535D03*
X0001758858Y0003418307D03*
X0001699803Y0003418307D03*
X0002287401Y0003326771D03*
X0002228346Y0003326771D03*
X0002287401Y0003190944D03*
X0002228346Y0003190944D03*
X0002287401Y0003031496D03*
X0002228346Y0003031496D03*
D94*
X0002598425Y0002416338D03*
X0002598425Y0002357283D03*
X0002045275Y0002622047D03*
X0002045275Y0002562992D03*
X0002045275Y0002416338D03*
X0002045275Y0002357283D03*
X0002045275Y0002187992D03*
X0002045275Y0002128937D03*
X0002320866Y0002622047D03*
X0002320866Y0002562992D03*
X0002326771Y0002416338D03*
X0002326771Y0002357283D03*
X0002320866Y0002187992D03*
X0002320866Y0002128937D03*
X0002598425Y0002190944D03*
X0002598425Y0002131889D03*
D100*
X0001588582Y0003222440D03*
X0001529527Y0003222440D03*
X0001760826Y0003225393D03*
X0001701771Y0003225393D03*
D95*
X0002761811Y0002984251D03*
X0002761811Y0002909448D03*
X0002683070Y0002946850D03*
X0002151574Y0003336614D03*
X0002151574Y0003261811D03*
X0002072834Y0003299212D03*
X0002151574Y0003187007D03*
X0002151574Y0003112204D03*
X0002072834Y0003149606D03*
X0002155511Y0003029527D03*
X0002155511Y0002954724D03*
X0002076771Y0002992125D03*
X0002470472Y0002424212D03*
X0002470472Y0002349409D03*
X0002391732Y0002386811D03*
X0002748031Y0002424212D03*
X0002748031Y0002349409D03*
X0002669291Y0002386811D03*
X0002470472Y0002204724D03*
X0002470472Y0002129921D03*
X0002391732Y0002167322D03*
X0002194881Y0002635826D03*
X0002194881Y0002561023D03*
X0002116141Y0002598425D03*
X0002748031Y0002207677D03*
X0002748031Y0002132874D03*
X0002669291Y0002170275D03*
X0002194881Y0002424212D03*
X0002194881Y0002349409D03*
X0002116141Y0002386811D03*
X0002194881Y0002204724D03*
X0002194881Y0002129921D03*
X0002116141Y0002167322D03*
X0002470472Y0002635826D03*
X0002470472Y0002561023D03*
X0002391732Y0002598425D03*
X0001766732Y0003357283D03*
X0001766732Y0003282480D03*
X0001687992Y0003319881D03*
D93*
X0002647637Y0002584645D03*
X0002706692Y0002584645D03*
D95*
X0001598425Y0003358267D03*
X0001598425Y0003283464D03*
X0001519685Y0003320866D03*
D101*
X0002757086Y0001893700D03*
X0001641732Y0001893700D03*
X0001594488Y0003633858D03*
X0002767716Y0003633858D03*
D93*
X0002706692Y0002736220D03*
X0002647637Y0002736220D03*
D102*
X0002840551Y0003427165D03*
D103*
X0002840551Y0003230314D03*
D102*
X0002842519Y0003098425D03*
D103*
X0002842519Y0002901574D03*
D104*
X0001893700Y0002637795D03*
D105*
X0001893700Y0002537795D03*
X0001893700Y0002437795D03*
X0001893700Y0002337795D03*
X0001893700Y0002237795D03*
X0001893700Y0002137795D03*
D104*
X0002854330Y0002637795D03*
D105*
X0002854330Y0002537795D03*
X0002854330Y0002437795D03*
X0002854330Y0002337795D03*
X0002854330Y0002237795D03*
X0002854330Y0002137795D03*
D104*
X0002856299Y0003858267D03*
X0001893700Y0003858267D03*
G04 next file*
G04 Gerber Fmt 4.6, Leading zero omitted, Abs format (unit mm)*
G04 Created by KiCad (PCBNEW 4.0.7) date 11/16/17 21:01:15*
G01G01*
G04 APERTURE LIST*
G04 APERTURE END LIST*
D106*
D107*
X0000000000Y0003937007D02*
X0001250000Y0002736220D03*
X0001190944Y0002736220D03*
D108*
X0001311023Y0003633858D03*
X0000137795Y0003633858D03*
X0000185039Y0001893700D03*
X0001300393Y0001893700D03*
D109*
X0000714297Y0003473000D03*
X0000573370Y0003440834D03*
X0000460356Y0003350708D03*
X0000397637Y0003220472D03*
X0000397637Y0003075921D03*
X0000460356Y0002945685D03*
X0000573370Y0002855559D03*
X0000714297Y0002823393D03*
X0000968238Y0002945685D03*
X0001030957Y0003075921D03*
X0001030957Y0003220472D03*
X0000968238Y0003350708D03*
X0000855224Y0003440834D03*
D110*
X0000141732Y0003358267D03*
X0000141732Y0003283464D03*
X0000062992Y0003320866D03*
D107*
X0001190944Y0002584645D03*
X0001250000Y0002584645D03*
D111*
X0000437007Y0003858267D03*
D110*
X0000310039Y0003357283D03*
X0000310039Y0003282480D03*
X0000231299Y0003319881D03*
X0001013779Y0002635826D03*
X0001013779Y0002561023D03*
X0000935039Y0002598425D03*
X0000738188Y0002204724D03*
X0000738188Y0002129921D03*
X0000659448Y0002167322D03*
X0000738188Y0002424212D03*
X0000738188Y0002349409D03*
X0000659448Y0002386811D03*
X0001291338Y0002207677D03*
X0001291338Y0002132874D03*
X0001212598Y0002170275D03*
X0000738188Y0002635826D03*
X0000738188Y0002561023D03*
X0000659448Y0002598425D03*
X0001013779Y0002204724D03*
X0001013779Y0002129921D03*
X0000935039Y0002167322D03*
X0001291338Y0002424212D03*
X0001291338Y0002349409D03*
X0001212598Y0002386811D03*
X0001013779Y0002424212D03*
X0001013779Y0002349409D03*
X0000935039Y0002386811D03*
X0000698818Y0003029527D03*
X0000698818Y0002954724D03*
X0000620078Y0002992125D03*
X0000694881Y0003187007D03*
X0000694881Y0003112204D03*
X0000616141Y0003149606D03*
X0000694881Y0003336614D03*
X0000694881Y0003261811D03*
X0000616141Y0003299212D03*
X0001305118Y0002984251D03*
X0001305118Y0002909448D03*
X0001226377Y0002946850D03*
D112*
X0000304133Y0003225393D03*
X0000245078Y0003225393D03*
X0000131889Y0003222440D03*
X0000072834Y0003222440D03*
D113*
X0001141732Y0002190944D03*
X0001141732Y0002131889D03*
X0000864173Y0002622047D03*
X0000864173Y0002562992D03*
X0000588582Y0002187992D03*
X0000588582Y0002128937D03*
X0000588582Y0002416338D03*
X0000588582Y0002357283D03*
X0000588582Y0002622047D03*
X0000588582Y0002562992D03*
X0001141732Y0002416338D03*
X0001141732Y0002357283D03*
D112*
X0000830708Y0003031496D03*
X0000771653Y0003031496D03*
X0000830708Y0003190944D03*
X0000771653Y0003190944D03*
X0000830708Y0003326771D03*
X0000771653Y0003326771D03*
X0000302165Y0003418307D03*
X0000243110Y0003418307D03*
X0000948818Y0002716535D03*
X0001007874Y0002716535D03*
X0000070866Y0003419291D03*
X0000129921Y0003419291D03*
X0000667322Y0002273622D03*
X0000726377Y0002273622D03*
X0000659448Y0002495078D03*
X0000718503Y0002495078D03*
X0001220472Y0002278543D03*
X0001279527Y0002278543D03*
X0000667322Y0002716535D03*
X0000726377Y0002716535D03*
X0000942913Y0002272637D03*
X0001001968Y0002272637D03*
X0001212598Y0002495078D03*
X0001271653Y0002495078D03*
X0000940944Y0002495078D03*
X0001000000Y0002495078D03*
D113*
X0001222440Y0003047244D03*
X0001222440Y0003106299D03*
X0001297244Y0003108267D03*
X0001297244Y0003049212D03*
D114*
X0000767322Y0002024803D03*
D115*
X0000817322Y0002024803D03*
X0000867322Y0002024803D03*
X0000917322Y0002024803D03*
X0000967322Y0002024803D03*
X0001017322Y0002024803D03*
X0001067322Y0002024803D03*
X0001067322Y0001794488D03*
X0001017322Y0001794488D03*
X0000967322Y0001794488D03*
X0000917322Y0001794488D03*
X0000867322Y0001794488D03*
X0000817322Y0001794488D03*
X0000767322Y0001794488D03*
X0001117322Y0002024803D03*
X0001117322Y0001794488D03*
D116*
X0000295275Y0003126771D03*
D117*
X0000295275Y0003076771D03*
X0000295275Y0003026771D03*
X0000295275Y0002976771D03*
X0000295275Y0002926771D03*
X0000295275Y0002876771D03*
X0000295275Y0002826771D03*
X0000064960Y0002826771D03*
X0000064960Y0002876771D03*
X0000064960Y0002926771D03*
X0000064960Y0002976771D03*
X0000064960Y0003026771D03*
X0000064960Y0003076771D03*
X0000064960Y0003126771D03*
X0000295275Y0002776771D03*
X0000064960Y0002776771D03*
D110*
X0001301181Y0003309055D03*
X0001301181Y0003234251D03*
X0001222440Y0003271653D03*
D113*
X0001220472Y0003377952D03*
X0001220472Y0003437007D03*
X0001299212Y0003437007D03*
X0001299212Y0003377952D03*
D111*
X0000437007Y0002637795D03*
D118*
X0000437007Y0002537795D03*
X0000437007Y0002437795D03*
X0000437007Y0002337795D03*
X0000437007Y0002237795D03*
X0000437007Y0002137795D03*
D107*
X0001250000Y0002669291D03*
X0001190944Y0002669291D03*
D113*
X0000864173Y0002204724D03*
X0000864173Y0002145669D03*
X0000870078Y0002416338D03*
X0000870078Y0002357283D03*
D119*
X0000653543Y0001901574D03*
D120*
X0000405511Y0001901574D03*
X0000405511Y0001992125D03*
X0000405511Y0001811023D03*
D111*
X0001399606Y0003858267D03*
X0001397637Y0002637795D03*
D118*
X0001397637Y0002537795D03*
X0001397637Y0002437795D03*
X0001397637Y0002337795D03*
X0001397637Y0002237795D03*
X0001397637Y0002137795D03*
D121*
X0001385826Y0003098425D03*
D122*
X0001385826Y0002901574D03*
D121*
X0001383858Y0003427165D03*
D122*
X0001383858Y0003230314D03*
G04 next file*
G04 Gerber Fmt 4.6, Leading zero omitted, Abs format (unit mm)*
G04 Created by KiCad (PCBNEW 4.0.7) date 11/16/17 21:03:46*
G01G01*
G04 APERTURE LIST*
G04 APERTURE END LIST*
D123*
D124*
X0002913385Y0001090551D02*
X0003508267Y0001167322D03*
X0003508267Y0001639763D03*
D125*
X0003417716Y0001303543D03*
X0003317716Y0001343503D03*
X0003417716Y0001383464D03*
X0003317716Y0001423425D03*
X0003417716Y0001463385D03*
X0003317716Y0001503346D03*
D126*
X0003031496Y0001655511D03*
D127*
X0003031496Y0001555511D03*
X0003031496Y0001455511D03*
X0003031496Y0001355511D03*
X0003031496Y0001255511D03*
X0003031496Y0001155511D03*
G04 next file*
G04 Gerber Fmt 4.6, Leading zero omitted, Abs format (unit mm)*
G04 Created by KiCad (PCBNEW 4.0.7) date 11/16/17 21:03:46*
G01G01*
G04 APERTURE LIST*
G04 APERTURE END LIST*
D128*
D129*
X0002913385Y0000460629D02*
X0003508267Y0000537401D03*
X0003508267Y0001009842D03*
D130*
X0003417716Y0000673622D03*
X0003317716Y0000713582D03*
X0003417716Y0000753543D03*
X0003317716Y0000793503D03*
X0003417716Y0000833464D03*
X0003317716Y0000873424D03*
D131*
X0003031496Y0001025590D03*
D132*
X0003031496Y0000925590D03*
X0003031496Y0000825590D03*
X0003031496Y0000725590D03*
X0003031496Y0000625590D03*
X0003031496Y0000525590D03*
M02*