%MOIN*%
%OFA0B0*%
%FSLAX46Y46*%
%IPPOS*%
%LPD*%
%ADD10C,0.0039370078740157488*%
%ADD11C,0.0078740157480314977*%
%ADD12C,0.0047244094488188976*%
%ADD23C,0.0039370078740157488*%
%ADD24C,0.0078740157480314977*%
%ADD25C,0.0047244094488188976*%
%ADD26C,0.0039370078740157488*%
%ADD27C,0.0078740157480314977*%
%ADD28C,0.0047244094488188976*%
%ADD29C,0.0039370078740157488*%
%ADD30C,0.0078740157480314977*%
%ADD31C,0.0047244094488188976*%
%ADD32C,0.0039370078740157488*%
%ADD33C,0.0078740157480314977*%
%ADD34C,0.0047244094488188976*%
%ADD35C,0.0039370078740157488*%
%ADD36C,0.0078740157480314977*%
%ADD37C,0.0047244094488188976*%
%ADD38C,0.0039370078740157488*%
%ADD39C,0.0078740157480314977*%
%ADD40C,0.0047244094488188976*%
%ADD41C,0.0039370078740157488*%
%ADD42C,0.0078740157480314977*%
%ADD43C,0.0047244094488188976*%
%ADD44C,0.0039370078740157488*%
%ADD45C,0.0078740157480314977*%
%ADD46C,0.0047244094488188976*%
%ADD47C,0.0039370078740157488*%
%ADD48C,0.0078740157480314977*%
%ADD49C,0.0047244094488188976*%
%ADD50C,0.0039370078740157488*%
%ADD51C,0.0078740157480314977*%
%ADD52C,0.0047244094488188976*%
%ADD53C,0.0039370078740157488*%
%ADD54C,0.0078740157480314977*%
%ADD55C,0.0047244094488188976*%
%ADD56C,0.0039370078740157488*%
%ADD57C,0.0060236220472440951*%
%ADD58C,0.005905511811023622*%
%ADD59C,0.0047244094488188976*%
%ADD60C,0.0039370078740157488*%
%ADD61C,0.011811023622047244*%
%ADD62C,0.0078740157480314977*%
%ADD63C,0.005905511811023622*%
%ADD64C,0.0060236220472440951*%
%ADD65C,0.0039370078740157488*%
%ADD66C,0.011811023622047244*%
%ADD67C,0.0078740157480314977*%
%ADD68C,0.005905511811023622*%
%ADD69C,0.0060236220472440951*%
%ADD70C,0.0039370078740157488*%
%ADD71C,0.0078740157480314977*%
%ADD72C,0.005905511811023622*%
%ADD73C,0.0039370078740157488*%
%ADD74C,0.0078740157480314977*%
%ADD75C,0.005905511811023622*%
G01G01*
D10*
D11*
X0000672834Y0001256280D02*
X0000670959Y0001253280D01*
X0000670959Y0001248781D01*
X0000672834Y0001244281D01*
X0000676584Y0001241282D01*
X0000680333Y0001239782D01*
X0000687832Y0001238282D01*
X0000693457Y0001238282D01*
X0000700956Y0001239782D01*
X0000704705Y0001241282D01*
X0000708455Y0001244281D01*
X0000710329Y0001248781D01*
X0000710329Y0001251780D01*
X0000708455Y0001256280D01*
X0000706580Y0001257780D01*
X0000693457Y0001257780D01*
X0000693457Y0001251780D01*
X0000689707Y0001294225D02*
X0000689707Y0001304724D01*
X0000710329Y0001309223D02*
X0000710329Y0001294225D01*
X0000670959Y0001294225D01*
X0000670959Y0001309223D01*
X0000710329Y0001322722D02*
X0000670959Y0001322722D01*
X0000710329Y0001340719D01*
X0000670959Y0001340719D01*
X0000670959Y0001355718D02*
X0000702830Y0001355718D01*
X0000706580Y0001357217D01*
X0000708455Y0001358717D01*
X0000710329Y0001361717D01*
X0000710329Y0001367716D01*
X0000708455Y0001370716D01*
X0000706580Y0001372215D01*
X0000702830Y0001373715D01*
X0000670959Y0001373715D01*
X0000710329Y0001388713D02*
X0000670959Y0001388713D01*
X0000699081Y0001399212D01*
X0000670959Y0001409711D01*
X0000710329Y0001409711D01*
X0000709542Y0001438001D02*
X0000670172Y0001438001D01*
X0000670172Y0001445500D01*
X0000672047Y0001450000D01*
X0000675796Y0001452999D01*
X0000679546Y0001454499D01*
X0000687045Y0001455999D01*
X0000692669Y0001455999D01*
X0000700168Y0001454499D01*
X0000703918Y0001452999D01*
X0000707667Y0001450000D01*
X0000709542Y0001445500D01*
X0000709542Y0001438001D01*
X0000694544Y0001469497D02*
X0000694544Y0001493494D01*
X0000709542Y0001481496D02*
X0000679546Y0001481496D01*
X0000711117Y0001524615D02*
X0000671747Y0001524615D01*
X0000671747Y0001532114D01*
X0000673622Y0001536614D01*
X0000677371Y0001539613D01*
X0000681121Y0001541113D01*
X0000688620Y0001542613D01*
X0000694244Y0001542613D01*
X0000701743Y0001541113D01*
X0000705493Y0001539613D01*
X0000709242Y0001536614D01*
X0000711117Y0001532114D01*
X0000711117Y0001524615D01*
X0000696119Y0001556111D02*
X0000696119Y0001580108D01*
X0000669385Y0001647150D02*
X0000669385Y0001632152D01*
X0000688132Y0001630652D01*
X0000686257Y0001632152D01*
X0000684383Y0001635151D01*
X0000684383Y0001642650D01*
X0000686257Y0001645650D01*
X0000688132Y0001647150D01*
X0000691882Y0001648650D01*
X0000701256Y0001648650D01*
X0000705005Y0001647150D01*
X0000706880Y0001645650D01*
X0000708755Y0001642650D01*
X0000708755Y0001635151D01*
X0000706880Y0001632152D01*
X0000705005Y0001630652D01*
X0000669385Y0001657649D02*
X0000708755Y0001668147D01*
X0000669385Y0001678646D01*
D12*
X0000394094Y0001602362D02*
X0000394094Y0001584645D01*
X0000321259Y0001602362D02*
X0000394094Y0001602362D01*
X0000220866Y0001295275D02*
X0000230708Y0001295275D01*
X0000220866Y0001602362D02*
X0000230708Y0001602362D01*
X0000321259Y0001295275D02*
X0000394094Y0001295275D01*
X0000394094Y0001295275D02*
X0000394094Y0001312992D01*
X0000415748Y0001515748D02*
X0000415748Y0001498031D01*
X0000415748Y0001515748D02*
X0000398031Y0001515748D01*
X0000566141Y0001524015D02*
X0000566141Y0001487401D01*
X0000566141Y0001399606D02*
X0000566141Y0001436220D01*
X0000566141Y0001399606D02*
X0000651181Y0001399606D01*
X0000566141Y0001524015D02*
X0000623622Y0001524015D01*
X0000561811Y0001563779D02*
X0000632677Y0001563779D01*
X0000632677Y0001690551D02*
X0000536220Y0001690551D01*
X0000454330Y0001617716D02*
X0000454330Y0001657086D01*
X0000507874Y0001657086D02*
X0000507874Y0001617716D01*
X0000507874Y0001531102D02*
X0000507874Y0001491732D01*
X0000454330Y0001491732D02*
X0000454330Y0001531102D01*
X0000363385Y0001683070D02*
X0000402755Y0001683070D01*
X0000402755Y0001629527D02*
X0000363385Y0001629527D01*
X0000507874Y0001409448D02*
X0000507874Y0001370078D01*
X0000454330Y0001370078D02*
X0000454330Y0001409448D01*
X0000454330Y0001243700D02*
X0000454330Y0001283070D01*
X0000507874Y0001283070D02*
X0000507874Y0001243700D01*
X0000591732Y0001281496D02*
X0000631102Y0001281496D01*
X0000631102Y0001227952D02*
X0000591732Y0001227952D01*
X0000591732Y0001367716D02*
X0000631102Y0001367716D01*
X0000631102Y0001314173D02*
X0000591732Y0001314173D01*
D11*
X0000446944Y0001593569D02*
X0000428196Y0001583070D01*
X0000446944Y0001575571D02*
X0000407574Y0001575571D01*
X0000407574Y0001587570D01*
X0000409448Y0001590569D01*
X0000411323Y0001592069D01*
X0000415073Y0001593569D01*
X0000420697Y0001593569D01*
X0000424446Y0001592069D01*
X0000426321Y0001590569D01*
X0000428196Y0001587570D01*
X0000428196Y0001575571D01*
X0000411323Y0001605568D02*
X0000409448Y0001607067D01*
X0000407574Y0001610067D01*
X0000407574Y0001617566D01*
X0000409448Y0001620566D01*
X0000411323Y0001622066D01*
X0000415073Y0001623565D01*
X0000418822Y0001623565D01*
X0000424446Y0001622066D01*
X0000446944Y0001604068D01*
X0000446944Y0001623565D01*
X0000554424Y0001529790D02*
X0000535676Y0001519291D01*
X0000554424Y0001511792D02*
X0000515054Y0001511792D01*
X0000515054Y0001523790D01*
X0000516929Y0001526790D01*
X0000518803Y0001528290D01*
X0000522553Y0001529790D01*
X0000528177Y0001529790D01*
X0000531927Y0001528290D01*
X0000533802Y0001526790D01*
X0000535676Y0001523790D01*
X0000535676Y0001511792D01*
X0000554424Y0001559786D02*
X0000554424Y0001541788D01*
X0000554424Y0001550787D02*
X0000515054Y0001550787D01*
X0000520678Y0001547787D01*
X0000524428Y0001544788D01*
X0000526302Y0001541788D01*
X0000326077Y0001653018D02*
X0000307330Y0001642519D01*
X0000326077Y0001635020D02*
X0000286707Y0001635020D01*
X0000286707Y0001647019D01*
X0000288582Y0001650018D01*
X0000290457Y0001651518D01*
X0000294206Y0001653018D01*
X0000299831Y0001653018D01*
X0000303580Y0001651518D01*
X0000305455Y0001650018D01*
X0000307330Y0001647019D01*
X0000307330Y0001635020D01*
X0000286707Y0001663517D02*
X0000286707Y0001683014D01*
X0000301706Y0001672515D01*
X0000301706Y0001677015D01*
X0000303580Y0001680015D01*
X0000305455Y0001681514D01*
X0000309205Y0001683014D01*
X0000318578Y0001683014D01*
X0000322328Y0001681514D01*
X0000324203Y0001680015D01*
X0000326077Y0001677015D01*
X0000326077Y0001668016D01*
X0000324203Y0001665016D01*
X0000322328Y0001663517D01*
X0000453243Y0001382152D02*
X0000434495Y0001371653D01*
X0000453243Y0001364154D02*
X0000413873Y0001364154D01*
X0000413873Y0001376152D01*
X0000415747Y0001379152D01*
X0000417622Y0001380652D01*
X0000421372Y0001382152D01*
X0000426996Y0001382152D01*
X0000430746Y0001380652D01*
X0000432620Y0001379152D01*
X0000434495Y0001376152D01*
X0000434495Y0001364154D01*
X0000426996Y0001409148D02*
X0000453243Y0001409148D01*
X0000411998Y0001401649D02*
X0000440120Y0001394150D01*
X0000440120Y0001413648D01*
X0000446550Y0001233727D02*
X0000427802Y0001223228D01*
X0000446550Y0001215729D02*
X0000407180Y0001215729D01*
X0000407180Y0001227727D01*
X0000409055Y0001230727D01*
X0000410929Y0001232227D01*
X0000414679Y0001233727D01*
X0000420303Y0001233727D01*
X0000424053Y0001232227D01*
X0000425927Y0001230727D01*
X0000427802Y0001227727D01*
X0000427802Y0001215729D01*
X0000407180Y0001262223D02*
X0000407180Y0001247225D01*
X0000425927Y0001245725D01*
X0000424053Y0001247225D01*
X0000422178Y0001250225D01*
X0000422178Y0001257724D01*
X0000424053Y0001260723D01*
X0000425927Y0001262223D01*
X0000429677Y0001263723D01*
X0000439051Y0001263723D01*
X0000442800Y0001262223D01*
X0000444675Y0001260723D01*
X0000446550Y0001257724D01*
X0000446550Y0001250225D01*
X0000444675Y0001247225D01*
X0000442800Y0001245725D01*
X0000557180Y0001249868D02*
X0000538432Y0001239370D01*
X0000557180Y0001231871D02*
X0000517810Y0001231871D01*
X0000517810Y0001243869D01*
X0000519685Y0001246869D01*
X0000521559Y0001248368D01*
X0000525309Y0001249868D01*
X0000530933Y0001249868D01*
X0000534683Y0001248368D01*
X0000536557Y0001246869D01*
X0000538432Y0001243869D01*
X0000538432Y0001231871D01*
X0000517810Y0001276865D02*
X0000517810Y0001270866D01*
X0000519685Y0001267866D01*
X0000521559Y0001266366D01*
X0000527184Y0001263367D01*
X0000534683Y0001261867D01*
X0000549681Y0001261867D01*
X0000553430Y0001263367D01*
X0000555305Y0001264866D01*
X0000557180Y0001267866D01*
X0000557180Y0001273865D01*
X0000555305Y0001276865D01*
X0000553430Y0001278365D01*
X0000549681Y0001279865D01*
X0000540307Y0001279865D01*
X0000536557Y0001278365D01*
X0000534683Y0001276865D01*
X0000532808Y0001273865D01*
X0000532808Y0001267866D01*
X0000534683Y0001264866D01*
X0000536557Y0001263367D01*
X0000540307Y0001261867D01*
X0000556392Y0001340419D02*
X0000537645Y0001329921D01*
X0000556392Y0001322422D02*
X0000517022Y0001322422D01*
X0000517022Y0001334420D01*
X0000518897Y0001337420D01*
X0000520772Y0001338920D01*
X0000524521Y0001340419D01*
X0000530146Y0001340419D01*
X0000533895Y0001338920D01*
X0000535770Y0001337420D01*
X0000537645Y0001334420D01*
X0000537645Y0001322422D01*
X0000517022Y0001350918D02*
X0000517022Y0001371916D01*
X0000556392Y0001358417D01*
G04 next file*
G04 Gerber Fmt 4.6, Leading zero omitted, Abs format (unit mm)*
G04 Created by KiCad (PCBNEW 4.0.7) date 11/16/17 17:14:57*
G01G01*
G04 APERTURE LIST*
G04 APERTURE END LIST*
D23*
D24*
X0000672834Y0000714941D02*
X0000670959Y0000711942D01*
X0000670959Y0000707442D01*
X0000672834Y0000702943D01*
X0000676584Y0000699943D01*
X0000680333Y0000698443D01*
X0000687832Y0000696944D01*
X0000693457Y0000696944D01*
X0000700956Y0000698443D01*
X0000704705Y0000699943D01*
X0000708455Y0000702943D01*
X0000710329Y0000707442D01*
X0000710329Y0000710442D01*
X0000708455Y0000714941D01*
X0000706580Y0000716441D01*
X0000693457Y0000716441D01*
X0000693457Y0000710442D01*
X0000689707Y0000752887D02*
X0000689707Y0000763385D01*
X0000710329Y0000767885D02*
X0000710329Y0000752887D01*
X0000670959Y0000752887D01*
X0000670959Y0000767885D01*
X0000710329Y0000781383D02*
X0000670959Y0000781383D01*
X0000710329Y0000799381D01*
X0000670959Y0000799381D01*
X0000670959Y0000814379D02*
X0000702830Y0000814379D01*
X0000706580Y0000815879D01*
X0000708455Y0000817379D01*
X0000710329Y0000820378D01*
X0000710329Y0000826377D01*
X0000708455Y0000829377D01*
X0000706580Y0000830877D01*
X0000702830Y0000832377D01*
X0000670959Y0000832377D01*
X0000710329Y0000847375D02*
X0000670959Y0000847375D01*
X0000699081Y0000857874D01*
X0000670959Y0000868372D01*
X0000710329Y0000868372D01*
X0000709542Y0000896662D02*
X0000670172Y0000896662D01*
X0000670172Y0000904161D01*
X0000672047Y0000908661D01*
X0000675796Y0000911661D01*
X0000679546Y0000913160D01*
X0000687045Y0000914660D01*
X0000692669Y0000914660D01*
X0000700168Y0000913160D01*
X0000703918Y0000911661D01*
X0000707667Y0000908661D01*
X0000709542Y0000904161D01*
X0000709542Y0000896662D01*
X0000694544Y0000928158D02*
X0000694544Y0000952155D01*
X0000709542Y0000940157D02*
X0000679546Y0000940157D01*
X0000711117Y0000983277D02*
X0000671747Y0000983277D01*
X0000671747Y0000990776D01*
X0000673622Y0000995275D01*
X0000677371Y0000998275D01*
X0000681121Y0000999775D01*
X0000688620Y0001001274D01*
X0000694244Y0001001274D01*
X0000701743Y0000999775D01*
X0000705493Y0000998275D01*
X0000709242Y0000995275D01*
X0000711117Y0000990776D01*
X0000711117Y0000983277D01*
X0000696119Y0001014773D02*
X0000696119Y0001038770D01*
X0000669385Y0001105811D02*
X0000669385Y0001090813D01*
X0000688132Y0001089313D01*
X0000686257Y0001090813D01*
X0000684383Y0001093813D01*
X0000684383Y0001101312D01*
X0000686257Y0001104311D01*
X0000688132Y0001105811D01*
X0000691882Y0001107311D01*
X0000701256Y0001107311D01*
X0000705005Y0001105811D01*
X0000706880Y0001104311D01*
X0000708755Y0001101312D01*
X0000708755Y0001093813D01*
X0000706880Y0001090813D01*
X0000705005Y0001089313D01*
X0000669385Y0001116310D02*
X0000708755Y0001126809D01*
X0000669385Y0001137307D01*
D25*
X0000394094Y0001061023D02*
X0000394094Y0001043307D01*
X0000321259Y0001061023D02*
X0000394094Y0001061023D01*
X0000220866Y0000753937D02*
X0000230708Y0000753937D01*
X0000220866Y0001061023D02*
X0000230708Y0001061023D01*
X0000321259Y0000753937D02*
X0000394094Y0000753937D01*
X0000394094Y0000753937D02*
X0000394094Y0000771653D01*
X0000415748Y0000974409D02*
X0000415748Y0000956692D01*
X0000415748Y0000974409D02*
X0000398031Y0000974409D01*
X0000566141Y0000982677D02*
X0000566141Y0000946062D01*
X0000566141Y0000858267D02*
X0000566141Y0000894881D01*
X0000566141Y0000858267D02*
X0000651181Y0000858267D01*
X0000566141Y0000982677D02*
X0000623622Y0000982677D01*
X0000561811Y0001022440D02*
X0000632677Y0001022440D01*
X0000632677Y0001149212D02*
X0000536220Y0001149212D01*
X0000454330Y0001076377D02*
X0000454330Y0001115748D01*
X0000507874Y0001115748D02*
X0000507874Y0001076377D01*
X0000507874Y0000989763D02*
X0000507874Y0000950393D01*
X0000454330Y0000950393D02*
X0000454330Y0000989763D01*
X0000363385Y0001141732D02*
X0000402755Y0001141732D01*
X0000402755Y0001088188D02*
X0000363385Y0001088188D01*
X0000507874Y0000868110D02*
X0000507874Y0000828740D01*
X0000454330Y0000828740D02*
X0000454330Y0000868110D01*
X0000454330Y0000702362D02*
X0000454330Y0000741732D01*
X0000507874Y0000741732D02*
X0000507874Y0000702362D01*
X0000591732Y0000740157D02*
X0000631102Y0000740157D01*
X0000631102Y0000686614D02*
X0000591732Y0000686614D01*
X0000591732Y0000826377D02*
X0000631102Y0000826377D01*
X0000631102Y0000772834D02*
X0000591732Y0000772834D01*
D24*
X0000446944Y0001052230D02*
X0000428196Y0001041732D01*
X0000446944Y0001034233D02*
X0000407574Y0001034233D01*
X0000407574Y0001046231D01*
X0000409448Y0001049231D01*
X0000411323Y0001050731D01*
X0000415073Y0001052230D01*
X0000420697Y0001052230D01*
X0000424446Y0001050731D01*
X0000426321Y0001049231D01*
X0000428196Y0001046231D01*
X0000428196Y0001034233D01*
X0000411323Y0001064229D02*
X0000409448Y0001065729D01*
X0000407574Y0001068728D01*
X0000407574Y0001076227D01*
X0000409448Y0001079227D01*
X0000411323Y0001080727D01*
X0000415073Y0001082227D01*
X0000418822Y0001082227D01*
X0000424446Y0001080727D01*
X0000446944Y0001062729D01*
X0000446944Y0001082227D01*
X0000554424Y0000988451D02*
X0000535676Y0000977952D01*
X0000554424Y0000970453D02*
X0000515054Y0000970453D01*
X0000515054Y0000982452D01*
X0000516929Y0000985451D01*
X0000518803Y0000986951D01*
X0000522553Y0000988451D01*
X0000528177Y0000988451D01*
X0000531927Y0000986951D01*
X0000533802Y0000985451D01*
X0000535676Y0000982452D01*
X0000535676Y0000970453D01*
X0000554424Y0001018447D02*
X0000554424Y0001000449D01*
X0000554424Y0001009448D02*
X0000515054Y0001009448D01*
X0000520678Y0001006449D01*
X0000524428Y0001003449D01*
X0000526302Y0001000449D01*
X0000326077Y0001111679D02*
X0000307330Y0001101181D01*
X0000326077Y0001093682D02*
X0000286707Y0001093682D01*
X0000286707Y0001105680D01*
X0000288582Y0001108680D01*
X0000290457Y0001110180D01*
X0000294206Y0001111679D01*
X0000299831Y0001111679D01*
X0000303580Y0001110180D01*
X0000305455Y0001108680D01*
X0000307330Y0001105680D01*
X0000307330Y0001093682D01*
X0000286707Y0001122178D02*
X0000286707Y0001141676D01*
X0000301706Y0001131177D01*
X0000301706Y0001135676D01*
X0000303580Y0001138676D01*
X0000305455Y0001140176D01*
X0000309205Y0001141676D01*
X0000318578Y0001141676D01*
X0000322328Y0001140176D01*
X0000324203Y0001138676D01*
X0000326077Y0001135676D01*
X0000326077Y0001126677D01*
X0000324203Y0001123678D01*
X0000322328Y0001122178D01*
X0000453243Y0000840813D02*
X0000434495Y0000830314D01*
X0000453243Y0000822815D02*
X0000413873Y0000822815D01*
X0000413873Y0000834814D01*
X0000415747Y0000837814D01*
X0000417622Y0000839313D01*
X0000421372Y0000840813D01*
X0000426996Y0000840813D01*
X0000430746Y0000839313D01*
X0000432620Y0000837814D01*
X0000434495Y0000834814D01*
X0000434495Y0000822815D01*
X0000426996Y0000867810D02*
X0000453243Y0000867810D01*
X0000411998Y0000860311D02*
X0000440120Y0000852812D01*
X0000440120Y0000872309D01*
X0000446550Y0000692388D02*
X0000427802Y0000681889D01*
X0000446550Y0000674390D02*
X0000407180Y0000674390D01*
X0000407180Y0000686389D01*
X0000409055Y0000689388D01*
X0000410929Y0000690888D01*
X0000414679Y0000692388D01*
X0000420303Y0000692388D01*
X0000424053Y0000690888D01*
X0000425927Y0000689388D01*
X0000427802Y0000686389D01*
X0000427802Y0000674390D01*
X0000407180Y0000720884D02*
X0000407180Y0000705886D01*
X0000425927Y0000704386D01*
X0000424053Y0000705886D01*
X0000422178Y0000708886D01*
X0000422178Y0000716385D01*
X0000424053Y0000719385D01*
X0000425927Y0000720884D01*
X0000429677Y0000722384D01*
X0000439051Y0000722384D01*
X0000442800Y0000720884D01*
X0000444675Y0000719385D01*
X0000446550Y0000716385D01*
X0000446550Y0000708886D01*
X0000444675Y0000705886D01*
X0000442800Y0000704386D01*
X0000557180Y0000708530D02*
X0000538432Y0000698031D01*
X0000557180Y0000690532D02*
X0000517810Y0000690532D01*
X0000517810Y0000702530D01*
X0000519685Y0000705530D01*
X0000521559Y0000707030D01*
X0000525309Y0000708530D01*
X0000530933Y0000708530D01*
X0000534683Y0000707030D01*
X0000536557Y0000705530D01*
X0000538432Y0000702530D01*
X0000538432Y0000690532D01*
X0000517810Y0000735526D02*
X0000517810Y0000729527D01*
X0000519685Y0000726527D01*
X0000521559Y0000725028D01*
X0000527184Y0000722028D01*
X0000534683Y0000720528D01*
X0000549681Y0000720528D01*
X0000553430Y0000722028D01*
X0000555305Y0000723528D01*
X0000557180Y0000726527D01*
X0000557180Y0000732527D01*
X0000555305Y0000735526D01*
X0000553430Y0000737026D01*
X0000549681Y0000738526D01*
X0000540307Y0000738526D01*
X0000536557Y0000737026D01*
X0000534683Y0000735526D01*
X0000532808Y0000732527D01*
X0000532808Y0000726527D01*
X0000534683Y0000723528D01*
X0000536557Y0000722028D01*
X0000540307Y0000720528D01*
X0000556392Y0000799081D02*
X0000537645Y0000788582D01*
X0000556392Y0000781083D02*
X0000517022Y0000781083D01*
X0000517022Y0000793082D01*
X0000518897Y0000796081D01*
X0000520772Y0000797581D01*
X0000524521Y0000799081D01*
X0000530146Y0000799081D01*
X0000533895Y0000797581D01*
X0000535770Y0000796081D01*
X0000537645Y0000793082D01*
X0000537645Y0000781083D01*
X0000517022Y0000809580D02*
X0000517022Y0000830577D01*
X0000556392Y0000817079D01*
G04 next file*
G04 Gerber Fmt 4.6, Leading zero omitted, Abs format (unit mm)*
G04 Created by KiCad (PCBNEW 4.0.7) date 11/16/17 17:14:57*
G01G01*
G04 APERTURE LIST*
G04 APERTURE END LIST*
D26*
D27*
X0000672834Y0000173603D02*
X0000670959Y0000170603D01*
X0000670959Y0000166104D01*
X0000672834Y0000161604D01*
X0000676584Y0000158605D01*
X0000680333Y0000157105D01*
X0000687832Y0000155605D01*
X0000693457Y0000155605D01*
X0000700956Y0000157105D01*
X0000704705Y0000158605D01*
X0000708455Y0000161604D01*
X0000710329Y0000166104D01*
X0000710329Y0000169103D01*
X0000708455Y0000173603D01*
X0000706580Y0000175103D01*
X0000693457Y0000175103D01*
X0000693457Y0000169103D01*
X0000689707Y0000211548D02*
X0000689707Y0000222047D01*
X0000710329Y0000226546D02*
X0000710329Y0000211548D01*
X0000670959Y0000211548D01*
X0000670959Y0000226546D01*
X0000710329Y0000240044D02*
X0000670959Y0000240044D01*
X0000710329Y0000258042D01*
X0000670959Y0000258042D01*
X0000670959Y0000273040D02*
X0000702830Y0000273040D01*
X0000706580Y0000274540D01*
X0000708455Y0000276040D01*
X0000710329Y0000279040D01*
X0000710329Y0000285039D01*
X0000708455Y0000288038D01*
X0000706580Y0000289538D01*
X0000702830Y0000291038D01*
X0000670959Y0000291038D01*
X0000710329Y0000306036D02*
X0000670959Y0000306036D01*
X0000699081Y0000316535D01*
X0000670959Y0000327034D01*
X0000710329Y0000327034D01*
X0000709542Y0000355324D02*
X0000670172Y0000355324D01*
X0000670172Y0000362823D01*
X0000672047Y0000367322D01*
X0000675796Y0000370322D01*
X0000679546Y0000371822D01*
X0000687045Y0000373322D01*
X0000692669Y0000373322D01*
X0000700168Y0000371822D01*
X0000703918Y0000370322D01*
X0000707667Y0000367322D01*
X0000709542Y0000362823D01*
X0000709542Y0000355324D01*
X0000694544Y0000386820D02*
X0000694544Y0000410817D01*
X0000709542Y0000398818D02*
X0000679546Y0000398818D01*
X0000711117Y0000441938D02*
X0000671747Y0000441938D01*
X0000671747Y0000449437D01*
X0000673622Y0000453937D01*
X0000677371Y0000456936D01*
X0000681121Y0000458436D01*
X0000688620Y0000459936D01*
X0000694244Y0000459936D01*
X0000701743Y0000458436D01*
X0000705493Y0000456936D01*
X0000709242Y0000453937D01*
X0000711117Y0000449437D01*
X0000711117Y0000441938D01*
X0000696119Y0000473434D02*
X0000696119Y0000497431D01*
X0000669385Y0000564473D02*
X0000669385Y0000549475D01*
X0000688132Y0000547975D01*
X0000686257Y0000549475D01*
X0000684383Y0000552474D01*
X0000684383Y0000559973D01*
X0000686257Y0000562973D01*
X0000688132Y0000564473D01*
X0000691882Y0000565973D01*
X0000701256Y0000565973D01*
X0000705005Y0000564473D01*
X0000706880Y0000562973D01*
X0000708755Y0000559973D01*
X0000708755Y0000552474D01*
X0000706880Y0000549475D01*
X0000705005Y0000547975D01*
X0000669385Y0000574971D02*
X0000708755Y0000585470D01*
X0000669385Y0000595969D01*
D28*
X0000394094Y0000519685D02*
X0000394094Y0000501968D01*
X0000321259Y0000519685D02*
X0000394094Y0000519685D01*
X0000220866Y0000212598D02*
X0000230708Y0000212598D01*
X0000220866Y0000519685D02*
X0000230708Y0000519685D01*
X0000321259Y0000212598D02*
X0000394094Y0000212598D01*
X0000394094Y0000212598D02*
X0000394094Y0000230314D01*
X0000415748Y0000433070D02*
X0000415748Y0000415354D01*
X0000415748Y0000433070D02*
X0000398031Y0000433070D01*
X0000566141Y0000441338D02*
X0000566141Y0000404724D01*
X0000566141Y0000316929D02*
X0000566141Y0000353543D01*
X0000566141Y0000316929D02*
X0000651181Y0000316929D01*
X0000566141Y0000441338D02*
X0000623622Y0000441338D01*
X0000561811Y0000481102D02*
X0000632677Y0000481102D01*
X0000632677Y0000607874D02*
X0000536220Y0000607874D01*
X0000454330Y0000535039D02*
X0000454330Y0000574409D01*
X0000507874Y0000574409D02*
X0000507874Y0000535039D01*
X0000507874Y0000448425D02*
X0000507874Y0000409055D01*
X0000454330Y0000409055D02*
X0000454330Y0000448425D01*
X0000363385Y0000600393D02*
X0000402755Y0000600393D01*
X0000402755Y0000546850D02*
X0000363385Y0000546850D01*
X0000507874Y0000326771D02*
X0000507874Y0000287401D01*
X0000454330Y0000287401D02*
X0000454330Y0000326771D01*
X0000454330Y0000161023D02*
X0000454330Y0000200393D01*
X0000507874Y0000200393D02*
X0000507874Y0000161023D01*
X0000591732Y0000198818D02*
X0000631102Y0000198818D01*
X0000631102Y0000145275D02*
X0000591732Y0000145275D01*
X0000591732Y0000285039D02*
X0000631102Y0000285039D01*
X0000631102Y0000231496D02*
X0000591732Y0000231496D01*
D27*
X0000446944Y0000510892D02*
X0000428196Y0000500393D01*
X0000446944Y0000492894D02*
X0000407574Y0000492894D01*
X0000407574Y0000504893D01*
X0000409448Y0000507892D01*
X0000411323Y0000509392D01*
X0000415073Y0000510892D01*
X0000420697Y0000510892D01*
X0000424446Y0000509392D01*
X0000426321Y0000507892D01*
X0000428196Y0000504893D01*
X0000428196Y0000492894D01*
X0000411323Y0000522890D02*
X0000409448Y0000524390D01*
X0000407574Y0000527390D01*
X0000407574Y0000534889D01*
X0000409448Y0000537889D01*
X0000411323Y0000539388D01*
X0000415073Y0000540888D01*
X0000418822Y0000540888D01*
X0000424446Y0000539388D01*
X0000446944Y0000521391D01*
X0000446944Y0000540888D01*
X0000554424Y0000447112D02*
X0000535676Y0000436614D01*
X0000554424Y0000429115D02*
X0000515054Y0000429115D01*
X0000515054Y0000441113D01*
X0000516929Y0000444113D01*
X0000518803Y0000445613D01*
X0000522553Y0000447112D01*
X0000528177Y0000447112D01*
X0000531927Y0000445613D01*
X0000533802Y0000444113D01*
X0000535676Y0000441113D01*
X0000535676Y0000429115D01*
X0000554424Y0000477109D02*
X0000554424Y0000459111D01*
X0000554424Y0000468110D02*
X0000515054Y0000468110D01*
X0000520678Y0000465110D01*
X0000524428Y0000462110D01*
X0000526302Y0000459111D01*
X0000326077Y0000570341D02*
X0000307330Y0000559842D01*
X0000326077Y0000552343D02*
X0000286707Y0000552343D01*
X0000286707Y0000564341D01*
X0000288582Y0000567341D01*
X0000290457Y0000568841D01*
X0000294206Y0000570341D01*
X0000299831Y0000570341D01*
X0000303580Y0000568841D01*
X0000305455Y0000567341D01*
X0000307330Y0000564341D01*
X0000307330Y0000552343D01*
X0000286707Y0000580839D02*
X0000286707Y0000600337D01*
X0000301706Y0000589838D01*
X0000301706Y0000594338D01*
X0000303580Y0000597337D01*
X0000305455Y0000598837D01*
X0000309205Y0000600337D01*
X0000318578Y0000600337D01*
X0000322328Y0000598837D01*
X0000324203Y0000597337D01*
X0000326077Y0000594338D01*
X0000326077Y0000585339D01*
X0000324203Y0000582339D01*
X0000322328Y0000580839D01*
X0000453243Y0000299475D02*
X0000434495Y0000288976D01*
X0000453243Y0000281477D02*
X0000413873Y0000281477D01*
X0000413873Y0000293475D01*
X0000415747Y0000296475D01*
X0000417622Y0000297975D01*
X0000421372Y0000299475D01*
X0000426996Y0000299475D01*
X0000430746Y0000297975D01*
X0000432620Y0000296475D01*
X0000434495Y0000293475D01*
X0000434495Y0000281477D01*
X0000426996Y0000326471D02*
X0000453243Y0000326471D01*
X0000411998Y0000318972D02*
X0000440120Y0000311473D01*
X0000440120Y0000330971D01*
X0000446550Y0000151049D02*
X0000427802Y0000140551D01*
X0000446550Y0000133052D02*
X0000407180Y0000133052D01*
X0000407180Y0000145050D01*
X0000409055Y0000148050D01*
X0000410929Y0000149550D01*
X0000414679Y0000151049D01*
X0000420303Y0000151049D01*
X0000424053Y0000149550D01*
X0000425927Y0000148050D01*
X0000427802Y0000145050D01*
X0000427802Y0000133052D01*
X0000407180Y0000179546D02*
X0000407180Y0000164548D01*
X0000425927Y0000163048D01*
X0000424053Y0000164548D01*
X0000422178Y0000167547D01*
X0000422178Y0000175046D01*
X0000424053Y0000178046D01*
X0000425927Y0000179546D01*
X0000429677Y0000181046D01*
X0000439051Y0000181046D01*
X0000442800Y0000179546D01*
X0000444675Y0000178046D01*
X0000446550Y0000175046D01*
X0000446550Y0000167547D01*
X0000444675Y0000164548D01*
X0000442800Y0000163048D01*
X0000557180Y0000167191D02*
X0000538432Y0000156692D01*
X0000557180Y0000149193D02*
X0000517810Y0000149193D01*
X0000517810Y0000161192D01*
X0000519685Y0000164192D01*
X0000521559Y0000165691D01*
X0000525309Y0000167191D01*
X0000530933Y0000167191D01*
X0000534683Y0000165691D01*
X0000536557Y0000164192D01*
X0000538432Y0000161192D01*
X0000538432Y0000149193D01*
X0000517810Y0000194188D02*
X0000517810Y0000188188D01*
X0000519685Y0000185189D01*
X0000521559Y0000183689D01*
X0000527184Y0000180689D01*
X0000534683Y0000179190D01*
X0000549681Y0000179190D01*
X0000553430Y0000180689D01*
X0000555305Y0000182189D01*
X0000557180Y0000185189D01*
X0000557180Y0000191188D01*
X0000555305Y0000194188D01*
X0000553430Y0000195688D01*
X0000549681Y0000197187D01*
X0000540307Y0000197187D01*
X0000536557Y0000195688D01*
X0000534683Y0000194188D01*
X0000532808Y0000191188D01*
X0000532808Y0000185189D01*
X0000534683Y0000182189D01*
X0000536557Y0000180689D01*
X0000540307Y0000179190D01*
X0000556392Y0000257742D02*
X0000537645Y0000247244D01*
X0000556392Y0000239745D02*
X0000517022Y0000239745D01*
X0000517022Y0000251743D01*
X0000518897Y0000254743D01*
X0000520772Y0000256242D01*
X0000524521Y0000257742D01*
X0000530146Y0000257742D01*
X0000533895Y0000256242D01*
X0000535770Y0000254743D01*
X0000537645Y0000251743D01*
X0000537645Y0000239745D01*
X0000517022Y0000268241D02*
X0000517022Y0000289238D01*
X0000556392Y0000275740D01*
G04 next file*
G04 Gerber Fmt 4.6, Leading zero omitted, Abs format (unit mm)*
G04 Created by KiCad (PCBNEW 4.0.7) date 11/16/17 17:14:57*
G01G01*
G04 APERTURE LIST*
G04 APERTURE END LIST*
D29*
D30*
X0001302755Y0001256280D02*
X0001300881Y0001253280D01*
X0001300881Y0001248781D01*
X0001302755Y0001244281D01*
X0001306505Y0001241282D01*
X0001310254Y0001239782D01*
X0001317753Y0001238282D01*
X0001323378Y0001238282D01*
X0001330877Y0001239782D01*
X0001334626Y0001241282D01*
X0001338376Y0001244281D01*
X0001340251Y0001248781D01*
X0001340251Y0001251780D01*
X0001338376Y0001256280D01*
X0001336501Y0001257780D01*
X0001323378Y0001257780D01*
X0001323378Y0001251780D01*
X0001319628Y0001294225D02*
X0001319628Y0001304724D01*
X0001340251Y0001309223D02*
X0001340251Y0001294225D01*
X0001300881Y0001294225D01*
X0001300881Y0001309223D01*
X0001340251Y0001322722D02*
X0001300881Y0001322722D01*
X0001340251Y0001340719D01*
X0001300881Y0001340719D01*
X0001300881Y0001355718D02*
X0001332752Y0001355718D01*
X0001336501Y0001357217D01*
X0001338376Y0001358717D01*
X0001340251Y0001361717D01*
X0001340251Y0001367716D01*
X0001338376Y0001370716D01*
X0001336501Y0001372215D01*
X0001332752Y0001373715D01*
X0001300881Y0001373715D01*
X0001340251Y0001388713D02*
X0001300881Y0001388713D01*
X0001329002Y0001399212D01*
X0001300881Y0001409711D01*
X0001340251Y0001409711D01*
X0001339463Y0001438001D02*
X0001300093Y0001438001D01*
X0001300093Y0001445500D01*
X0001301968Y0001450000D01*
X0001305718Y0001452999D01*
X0001309467Y0001454499D01*
X0001316966Y0001455999D01*
X0001322590Y0001455999D01*
X0001330090Y0001454499D01*
X0001333839Y0001452999D01*
X0001337589Y0001450000D01*
X0001339463Y0001445500D01*
X0001339463Y0001438001D01*
X0001324465Y0001469497D02*
X0001324465Y0001493494D01*
X0001339463Y0001481496D02*
X0001309467Y0001481496D01*
X0001341038Y0001524615D02*
X0001301668Y0001524615D01*
X0001301668Y0001532114D01*
X0001303543Y0001536614D01*
X0001307292Y0001539613D01*
X0001311042Y0001541113D01*
X0001318541Y0001542613D01*
X0001324165Y0001542613D01*
X0001331664Y0001541113D01*
X0001335414Y0001539613D01*
X0001339163Y0001536614D01*
X0001341038Y0001532114D01*
X0001341038Y0001524615D01*
X0001326040Y0001556111D02*
X0001326040Y0001580108D01*
X0001299306Y0001647150D02*
X0001299306Y0001632152D01*
X0001318053Y0001630652D01*
X0001316179Y0001632152D01*
X0001314304Y0001635151D01*
X0001314304Y0001642650D01*
X0001316179Y0001645650D01*
X0001318053Y0001647150D01*
X0001321803Y0001648650D01*
X0001331177Y0001648650D01*
X0001334926Y0001647150D01*
X0001336801Y0001645650D01*
X0001338676Y0001642650D01*
X0001338676Y0001635151D01*
X0001336801Y0001632152D01*
X0001334926Y0001630652D01*
X0001299306Y0001657649D02*
X0001338676Y0001668147D01*
X0001299306Y0001678646D01*
D31*
X0001024015Y0001602362D02*
X0001024015Y0001584645D01*
X0000951181Y0001602362D02*
X0001024015Y0001602362D01*
X0000850787Y0001295275D02*
X0000860629Y0001295275D01*
X0000850787Y0001602362D02*
X0000860629Y0001602362D01*
X0000951181Y0001295275D02*
X0001024015Y0001295275D01*
X0001024015Y0001295275D02*
X0001024015Y0001312992D01*
X0001045669Y0001515748D02*
X0001045669Y0001498031D01*
X0001045669Y0001515748D02*
X0001027952Y0001515748D01*
X0001196062Y0001524015D02*
X0001196062Y0001487401D01*
X0001196062Y0001399606D02*
X0001196062Y0001436220D01*
X0001196062Y0001399606D02*
X0001281102Y0001399606D01*
X0001196062Y0001524015D02*
X0001253543Y0001524015D01*
X0001191732Y0001563779D02*
X0001262598Y0001563779D01*
X0001262598Y0001690551D02*
X0001166141Y0001690551D01*
X0001084251Y0001617716D02*
X0001084251Y0001657086D01*
X0001137795Y0001657086D02*
X0001137795Y0001617716D01*
X0001137795Y0001531102D02*
X0001137795Y0001491732D01*
X0001084251Y0001491732D02*
X0001084251Y0001531102D01*
X0000993307Y0001683070D02*
X0001032677Y0001683070D01*
X0001032677Y0001629527D02*
X0000993307Y0001629527D01*
X0001137795Y0001409448D02*
X0001137795Y0001370078D01*
X0001084251Y0001370078D02*
X0001084251Y0001409448D01*
X0001084251Y0001243700D02*
X0001084251Y0001283070D01*
X0001137795Y0001283070D02*
X0001137795Y0001243700D01*
X0001221653Y0001281496D02*
X0001261023Y0001281496D01*
X0001261023Y0001227952D02*
X0001221653Y0001227952D01*
X0001221653Y0001367716D02*
X0001261023Y0001367716D01*
X0001261023Y0001314173D02*
X0001221653Y0001314173D01*
D30*
X0001076865Y0001593569D02*
X0001058117Y0001583070D01*
X0001076865Y0001575571D02*
X0001037495Y0001575571D01*
X0001037495Y0001587570D01*
X0001039370Y0001590569D01*
X0001041244Y0001592069D01*
X0001044994Y0001593569D01*
X0001050618Y0001593569D01*
X0001054368Y0001592069D01*
X0001056242Y0001590569D01*
X0001058117Y0001587570D01*
X0001058117Y0001575571D01*
X0001041244Y0001605568D02*
X0001039370Y0001607067D01*
X0001037495Y0001610067D01*
X0001037495Y0001617566D01*
X0001039370Y0001620566D01*
X0001041244Y0001622066D01*
X0001044994Y0001623565D01*
X0001048743Y0001623565D01*
X0001054368Y0001622066D01*
X0001076865Y0001604068D01*
X0001076865Y0001623565D01*
X0001184345Y0001529790D02*
X0001165597Y0001519291D01*
X0001184345Y0001511792D02*
X0001144975Y0001511792D01*
X0001144975Y0001523790D01*
X0001146850Y0001526790D01*
X0001148725Y0001528290D01*
X0001152474Y0001529790D01*
X0001158098Y0001529790D01*
X0001161848Y0001528290D01*
X0001163723Y0001526790D01*
X0001165597Y0001523790D01*
X0001165597Y0001511792D01*
X0001184345Y0001559786D02*
X0001184345Y0001541788D01*
X0001184345Y0001550787D02*
X0001144975Y0001550787D01*
X0001150599Y0001547787D01*
X0001154349Y0001544788D01*
X0001156224Y0001541788D01*
X0000955999Y0001653018D02*
X0000937251Y0001642519D01*
X0000955999Y0001635020D02*
X0000916629Y0001635020D01*
X0000916629Y0001647019D01*
X0000918503Y0001650018D01*
X0000920378Y0001651518D01*
X0000924128Y0001653018D01*
X0000929752Y0001653018D01*
X0000933502Y0001651518D01*
X0000935376Y0001650018D01*
X0000937251Y0001647019D01*
X0000937251Y0001635020D01*
X0000916629Y0001663517D02*
X0000916629Y0001683014D01*
X0000931627Y0001672515D01*
X0000931627Y0001677015D01*
X0000933502Y0001680015D01*
X0000935376Y0001681514D01*
X0000939126Y0001683014D01*
X0000948500Y0001683014D01*
X0000952249Y0001681514D01*
X0000954124Y0001680015D01*
X0000955999Y0001677015D01*
X0000955999Y0001668016D01*
X0000954124Y0001665016D01*
X0000952249Y0001663517D01*
X0001083164Y0001382152D02*
X0001064416Y0001371653D01*
X0001083164Y0001364154D02*
X0001043794Y0001364154D01*
X0001043794Y0001376152D01*
X0001045669Y0001379152D01*
X0001047544Y0001380652D01*
X0001051293Y0001382152D01*
X0001056917Y0001382152D01*
X0001060667Y0001380652D01*
X0001062542Y0001379152D01*
X0001064416Y0001376152D01*
X0001064416Y0001364154D01*
X0001056917Y0001409148D02*
X0001083164Y0001409148D01*
X0001041919Y0001401649D02*
X0001070041Y0001394150D01*
X0001070041Y0001413648D01*
X0001076471Y0001233727D02*
X0001057724Y0001223228D01*
X0001076471Y0001215729D02*
X0001037101Y0001215729D01*
X0001037101Y0001227727D01*
X0001038976Y0001230727D01*
X0001040851Y0001232227D01*
X0001044600Y0001233727D01*
X0001050224Y0001233727D01*
X0001053974Y0001232227D01*
X0001055849Y0001230727D01*
X0001057724Y0001227727D01*
X0001057724Y0001215729D01*
X0001037101Y0001262223D02*
X0001037101Y0001247225D01*
X0001055849Y0001245725D01*
X0001053974Y0001247225D01*
X0001052099Y0001250225D01*
X0001052099Y0001257724D01*
X0001053974Y0001260723D01*
X0001055849Y0001262223D01*
X0001059598Y0001263723D01*
X0001068972Y0001263723D01*
X0001072722Y0001262223D01*
X0001074596Y0001260723D01*
X0001076471Y0001257724D01*
X0001076471Y0001250225D01*
X0001074596Y0001247225D01*
X0001072722Y0001245725D01*
X0001187101Y0001249868D02*
X0001168353Y0001239370D01*
X0001187101Y0001231871D02*
X0001147731Y0001231871D01*
X0001147731Y0001243869D01*
X0001149606Y0001246869D01*
X0001151481Y0001248368D01*
X0001155230Y0001249868D01*
X0001160854Y0001249868D01*
X0001164604Y0001248368D01*
X0001166479Y0001246869D01*
X0001168353Y0001243869D01*
X0001168353Y0001231871D01*
X0001147731Y0001276865D02*
X0001147731Y0001270866D01*
X0001149606Y0001267866D01*
X0001151481Y0001266366D01*
X0001157105Y0001263367D01*
X0001164604Y0001261867D01*
X0001179602Y0001261867D01*
X0001183352Y0001263367D01*
X0001185226Y0001264866D01*
X0001187101Y0001267866D01*
X0001187101Y0001273865D01*
X0001185226Y0001276865D01*
X0001183352Y0001278365D01*
X0001179602Y0001279865D01*
X0001170228Y0001279865D01*
X0001166479Y0001278365D01*
X0001164604Y0001276865D01*
X0001162729Y0001273865D01*
X0001162729Y0001267866D01*
X0001164604Y0001264866D01*
X0001166479Y0001263367D01*
X0001170228Y0001261867D01*
X0001186314Y0001340419D02*
X0001167566Y0001329921D01*
X0001186314Y0001322422D02*
X0001146944Y0001322422D01*
X0001146944Y0001334420D01*
X0001148818Y0001337420D01*
X0001150693Y0001338920D01*
X0001154443Y0001340419D01*
X0001160067Y0001340419D01*
X0001163817Y0001338920D01*
X0001165691Y0001337420D01*
X0001167566Y0001334420D01*
X0001167566Y0001322422D01*
X0001146944Y0001350918D02*
X0001146944Y0001371916D01*
X0001186314Y0001358417D01*
G04 next file*
G04 Gerber Fmt 4.6, Leading zero omitted, Abs format (unit mm)*
G04 Created by KiCad (PCBNEW 4.0.7) date 11/16/17 17:14:57*
G01G01*
G04 APERTURE LIST*
G04 APERTURE END LIST*
D32*
D33*
X0001302755Y0000714941D02*
X0001300881Y0000711942D01*
X0001300881Y0000707442D01*
X0001302755Y0000702943D01*
X0001306505Y0000699943D01*
X0001310254Y0000698443D01*
X0001317753Y0000696944D01*
X0001323378Y0000696944D01*
X0001330877Y0000698443D01*
X0001334626Y0000699943D01*
X0001338376Y0000702943D01*
X0001340251Y0000707442D01*
X0001340251Y0000710442D01*
X0001338376Y0000714941D01*
X0001336501Y0000716441D01*
X0001323378Y0000716441D01*
X0001323378Y0000710442D01*
X0001319628Y0000752887D02*
X0001319628Y0000763385D01*
X0001340251Y0000767885D02*
X0001340251Y0000752887D01*
X0001300881Y0000752887D01*
X0001300881Y0000767885D01*
X0001340251Y0000781383D02*
X0001300881Y0000781383D01*
X0001340251Y0000799381D01*
X0001300881Y0000799381D01*
X0001300881Y0000814379D02*
X0001332752Y0000814379D01*
X0001336501Y0000815879D01*
X0001338376Y0000817379D01*
X0001340251Y0000820378D01*
X0001340251Y0000826377D01*
X0001338376Y0000829377D01*
X0001336501Y0000830877D01*
X0001332752Y0000832377D01*
X0001300881Y0000832377D01*
X0001340251Y0000847375D02*
X0001300881Y0000847375D01*
X0001329002Y0000857874D01*
X0001300881Y0000868372D01*
X0001340251Y0000868372D01*
X0001339463Y0000896662D02*
X0001300093Y0000896662D01*
X0001300093Y0000904161D01*
X0001301968Y0000908661D01*
X0001305718Y0000911661D01*
X0001309467Y0000913160D01*
X0001316966Y0000914660D01*
X0001322590Y0000914660D01*
X0001330090Y0000913160D01*
X0001333839Y0000911661D01*
X0001337589Y0000908661D01*
X0001339463Y0000904161D01*
X0001339463Y0000896662D01*
X0001324465Y0000928158D02*
X0001324465Y0000952155D01*
X0001339463Y0000940157D02*
X0001309467Y0000940157D01*
X0001341038Y0000983277D02*
X0001301668Y0000983277D01*
X0001301668Y0000990776D01*
X0001303543Y0000995275D01*
X0001307292Y0000998275D01*
X0001311042Y0000999775D01*
X0001318541Y0001001274D01*
X0001324165Y0001001274D01*
X0001331664Y0000999775D01*
X0001335414Y0000998275D01*
X0001339163Y0000995275D01*
X0001341038Y0000990776D01*
X0001341038Y0000983277D01*
X0001326040Y0001014773D02*
X0001326040Y0001038770D01*
X0001299306Y0001105811D02*
X0001299306Y0001090813D01*
X0001318053Y0001089313D01*
X0001316179Y0001090813D01*
X0001314304Y0001093813D01*
X0001314304Y0001101312D01*
X0001316179Y0001104311D01*
X0001318053Y0001105811D01*
X0001321803Y0001107311D01*
X0001331177Y0001107311D01*
X0001334926Y0001105811D01*
X0001336801Y0001104311D01*
X0001338676Y0001101312D01*
X0001338676Y0001093813D01*
X0001336801Y0001090813D01*
X0001334926Y0001089313D01*
X0001299306Y0001116310D02*
X0001338676Y0001126809D01*
X0001299306Y0001137307D01*
D34*
X0001024015Y0001061023D02*
X0001024015Y0001043307D01*
X0000951181Y0001061023D02*
X0001024015Y0001061023D01*
X0000850787Y0000753937D02*
X0000860629Y0000753937D01*
X0000850787Y0001061023D02*
X0000860629Y0001061023D01*
X0000951181Y0000753937D02*
X0001024015Y0000753937D01*
X0001024015Y0000753937D02*
X0001024015Y0000771653D01*
X0001045669Y0000974409D02*
X0001045669Y0000956692D01*
X0001045669Y0000974409D02*
X0001027952Y0000974409D01*
X0001196062Y0000982677D02*
X0001196062Y0000946062D01*
X0001196062Y0000858267D02*
X0001196062Y0000894881D01*
X0001196062Y0000858267D02*
X0001281102Y0000858267D01*
X0001196062Y0000982677D02*
X0001253543Y0000982677D01*
X0001191732Y0001022440D02*
X0001262598Y0001022440D01*
X0001262598Y0001149212D02*
X0001166141Y0001149212D01*
X0001084251Y0001076377D02*
X0001084251Y0001115748D01*
X0001137795Y0001115748D02*
X0001137795Y0001076377D01*
X0001137795Y0000989763D02*
X0001137795Y0000950393D01*
X0001084251Y0000950393D02*
X0001084251Y0000989763D01*
X0000993307Y0001141732D02*
X0001032677Y0001141732D01*
X0001032677Y0001088188D02*
X0000993307Y0001088188D01*
X0001137795Y0000868110D02*
X0001137795Y0000828740D01*
X0001084251Y0000828740D02*
X0001084251Y0000868110D01*
X0001084251Y0000702362D02*
X0001084251Y0000741732D01*
X0001137795Y0000741732D02*
X0001137795Y0000702362D01*
X0001221653Y0000740157D02*
X0001261023Y0000740157D01*
X0001261023Y0000686614D02*
X0001221653Y0000686614D01*
X0001221653Y0000826377D02*
X0001261023Y0000826377D01*
X0001261023Y0000772834D02*
X0001221653Y0000772834D01*
D33*
X0001076865Y0001052230D02*
X0001058117Y0001041732D01*
X0001076865Y0001034233D02*
X0001037495Y0001034233D01*
X0001037495Y0001046231D01*
X0001039370Y0001049231D01*
X0001041244Y0001050731D01*
X0001044994Y0001052230D01*
X0001050618Y0001052230D01*
X0001054368Y0001050731D01*
X0001056242Y0001049231D01*
X0001058117Y0001046231D01*
X0001058117Y0001034233D01*
X0001041244Y0001064229D02*
X0001039370Y0001065729D01*
X0001037495Y0001068728D01*
X0001037495Y0001076227D01*
X0001039370Y0001079227D01*
X0001041244Y0001080727D01*
X0001044994Y0001082227D01*
X0001048743Y0001082227D01*
X0001054368Y0001080727D01*
X0001076865Y0001062729D01*
X0001076865Y0001082227D01*
X0001184345Y0000988451D02*
X0001165597Y0000977952D01*
X0001184345Y0000970453D02*
X0001144975Y0000970453D01*
X0001144975Y0000982452D01*
X0001146850Y0000985451D01*
X0001148725Y0000986951D01*
X0001152474Y0000988451D01*
X0001158098Y0000988451D01*
X0001161848Y0000986951D01*
X0001163723Y0000985451D01*
X0001165597Y0000982452D01*
X0001165597Y0000970453D01*
X0001184345Y0001018447D02*
X0001184345Y0001000449D01*
X0001184345Y0001009448D02*
X0001144975Y0001009448D01*
X0001150599Y0001006449D01*
X0001154349Y0001003449D01*
X0001156224Y0001000449D01*
X0000955999Y0001111679D02*
X0000937251Y0001101181D01*
X0000955999Y0001093682D02*
X0000916629Y0001093682D01*
X0000916629Y0001105680D01*
X0000918503Y0001108680D01*
X0000920378Y0001110180D01*
X0000924128Y0001111679D01*
X0000929752Y0001111679D01*
X0000933502Y0001110180D01*
X0000935376Y0001108680D01*
X0000937251Y0001105680D01*
X0000937251Y0001093682D01*
X0000916629Y0001122178D02*
X0000916629Y0001141676D01*
X0000931627Y0001131177D01*
X0000931627Y0001135676D01*
X0000933502Y0001138676D01*
X0000935376Y0001140176D01*
X0000939126Y0001141676D01*
X0000948500Y0001141676D01*
X0000952249Y0001140176D01*
X0000954124Y0001138676D01*
X0000955999Y0001135676D01*
X0000955999Y0001126677D01*
X0000954124Y0001123678D01*
X0000952249Y0001122178D01*
X0001083164Y0000840813D02*
X0001064416Y0000830314D01*
X0001083164Y0000822815D02*
X0001043794Y0000822815D01*
X0001043794Y0000834814D01*
X0001045669Y0000837814D01*
X0001047544Y0000839313D01*
X0001051293Y0000840813D01*
X0001056917Y0000840813D01*
X0001060667Y0000839313D01*
X0001062542Y0000837814D01*
X0001064416Y0000834814D01*
X0001064416Y0000822815D01*
X0001056917Y0000867810D02*
X0001083164Y0000867810D01*
X0001041919Y0000860311D02*
X0001070041Y0000852812D01*
X0001070041Y0000872309D01*
X0001076471Y0000692388D02*
X0001057724Y0000681889D01*
X0001076471Y0000674390D02*
X0001037101Y0000674390D01*
X0001037101Y0000686389D01*
X0001038976Y0000689388D01*
X0001040851Y0000690888D01*
X0001044600Y0000692388D01*
X0001050224Y0000692388D01*
X0001053974Y0000690888D01*
X0001055849Y0000689388D01*
X0001057724Y0000686389D01*
X0001057724Y0000674390D01*
X0001037101Y0000720884D02*
X0001037101Y0000705886D01*
X0001055849Y0000704386D01*
X0001053974Y0000705886D01*
X0001052099Y0000708886D01*
X0001052099Y0000716385D01*
X0001053974Y0000719385D01*
X0001055849Y0000720884D01*
X0001059598Y0000722384D01*
X0001068972Y0000722384D01*
X0001072722Y0000720884D01*
X0001074596Y0000719385D01*
X0001076471Y0000716385D01*
X0001076471Y0000708886D01*
X0001074596Y0000705886D01*
X0001072722Y0000704386D01*
X0001187101Y0000708530D02*
X0001168353Y0000698031D01*
X0001187101Y0000690532D02*
X0001147731Y0000690532D01*
X0001147731Y0000702530D01*
X0001149606Y0000705530D01*
X0001151481Y0000707030D01*
X0001155230Y0000708530D01*
X0001160854Y0000708530D01*
X0001164604Y0000707030D01*
X0001166479Y0000705530D01*
X0001168353Y0000702530D01*
X0001168353Y0000690532D01*
X0001147731Y0000735526D02*
X0001147731Y0000729527D01*
X0001149606Y0000726527D01*
X0001151481Y0000725028D01*
X0001157105Y0000722028D01*
X0001164604Y0000720528D01*
X0001179602Y0000720528D01*
X0001183352Y0000722028D01*
X0001185226Y0000723528D01*
X0001187101Y0000726527D01*
X0001187101Y0000732527D01*
X0001185226Y0000735526D01*
X0001183352Y0000737026D01*
X0001179602Y0000738526D01*
X0001170228Y0000738526D01*
X0001166479Y0000737026D01*
X0001164604Y0000735526D01*
X0001162729Y0000732527D01*
X0001162729Y0000726527D01*
X0001164604Y0000723528D01*
X0001166479Y0000722028D01*
X0001170228Y0000720528D01*
X0001186314Y0000799081D02*
X0001167566Y0000788582D01*
X0001186314Y0000781083D02*
X0001146944Y0000781083D01*
X0001146944Y0000793082D01*
X0001148818Y0000796081D01*
X0001150693Y0000797581D01*
X0001154443Y0000799081D01*
X0001160067Y0000799081D01*
X0001163817Y0000797581D01*
X0001165691Y0000796081D01*
X0001167566Y0000793082D01*
X0001167566Y0000781083D01*
X0001146944Y0000809580D02*
X0001146944Y0000830577D01*
X0001186314Y0000817079D01*
G04 next file*
G04 Gerber Fmt 4.6, Leading zero omitted, Abs format (unit mm)*
G04 Created by KiCad (PCBNEW 4.0.7) date 11/16/17 17:14:57*
G01G01*
G04 APERTURE LIST*
G04 APERTURE END LIST*
D35*
D36*
X0001302755Y0000173603D02*
X0001300881Y0000170603D01*
X0001300881Y0000166104D01*
X0001302755Y0000161604D01*
X0001306505Y0000158605D01*
X0001310254Y0000157105D01*
X0001317753Y0000155605D01*
X0001323378Y0000155605D01*
X0001330877Y0000157105D01*
X0001334626Y0000158605D01*
X0001338376Y0000161604D01*
X0001340251Y0000166104D01*
X0001340251Y0000169103D01*
X0001338376Y0000173603D01*
X0001336501Y0000175103D01*
X0001323378Y0000175103D01*
X0001323378Y0000169103D01*
X0001319628Y0000211548D02*
X0001319628Y0000222047D01*
X0001340251Y0000226546D02*
X0001340251Y0000211548D01*
X0001300881Y0000211548D01*
X0001300881Y0000226546D01*
X0001340251Y0000240044D02*
X0001300881Y0000240044D01*
X0001340251Y0000258042D01*
X0001300881Y0000258042D01*
X0001300881Y0000273040D02*
X0001332752Y0000273040D01*
X0001336501Y0000274540D01*
X0001338376Y0000276040D01*
X0001340251Y0000279040D01*
X0001340251Y0000285039D01*
X0001338376Y0000288038D01*
X0001336501Y0000289538D01*
X0001332752Y0000291038D01*
X0001300881Y0000291038D01*
X0001340251Y0000306036D02*
X0001300881Y0000306036D01*
X0001329002Y0000316535D01*
X0001300881Y0000327034D01*
X0001340251Y0000327034D01*
X0001339463Y0000355324D02*
X0001300093Y0000355324D01*
X0001300093Y0000362823D01*
X0001301968Y0000367322D01*
X0001305718Y0000370322D01*
X0001309467Y0000371822D01*
X0001316966Y0000373322D01*
X0001322590Y0000373322D01*
X0001330090Y0000371822D01*
X0001333839Y0000370322D01*
X0001337589Y0000367322D01*
X0001339463Y0000362823D01*
X0001339463Y0000355324D01*
X0001324465Y0000386820D02*
X0001324465Y0000410817D01*
X0001339463Y0000398818D02*
X0001309467Y0000398818D01*
X0001341038Y0000441938D02*
X0001301668Y0000441938D01*
X0001301668Y0000449437D01*
X0001303543Y0000453937D01*
X0001307292Y0000456936D01*
X0001311042Y0000458436D01*
X0001318541Y0000459936D01*
X0001324165Y0000459936D01*
X0001331664Y0000458436D01*
X0001335414Y0000456936D01*
X0001339163Y0000453937D01*
X0001341038Y0000449437D01*
X0001341038Y0000441938D01*
X0001326040Y0000473434D02*
X0001326040Y0000497431D01*
X0001299306Y0000564473D02*
X0001299306Y0000549475D01*
X0001318053Y0000547975D01*
X0001316179Y0000549475D01*
X0001314304Y0000552474D01*
X0001314304Y0000559973D01*
X0001316179Y0000562973D01*
X0001318053Y0000564473D01*
X0001321803Y0000565973D01*
X0001331177Y0000565973D01*
X0001334926Y0000564473D01*
X0001336801Y0000562973D01*
X0001338676Y0000559973D01*
X0001338676Y0000552474D01*
X0001336801Y0000549475D01*
X0001334926Y0000547975D01*
X0001299306Y0000574971D02*
X0001338676Y0000585470D01*
X0001299306Y0000595969D01*
D37*
X0001024015Y0000519685D02*
X0001024015Y0000501968D01*
X0000951181Y0000519685D02*
X0001024015Y0000519685D01*
X0000850787Y0000212598D02*
X0000860629Y0000212598D01*
X0000850787Y0000519685D02*
X0000860629Y0000519685D01*
X0000951181Y0000212598D02*
X0001024015Y0000212598D01*
X0001024015Y0000212598D02*
X0001024015Y0000230314D01*
X0001045669Y0000433070D02*
X0001045669Y0000415354D01*
X0001045669Y0000433070D02*
X0001027952Y0000433070D01*
X0001196062Y0000441338D02*
X0001196062Y0000404724D01*
X0001196062Y0000316929D02*
X0001196062Y0000353543D01*
X0001196062Y0000316929D02*
X0001281102Y0000316929D01*
X0001196062Y0000441338D02*
X0001253543Y0000441338D01*
X0001191732Y0000481102D02*
X0001262598Y0000481102D01*
X0001262598Y0000607874D02*
X0001166141Y0000607874D01*
X0001084251Y0000535039D02*
X0001084251Y0000574409D01*
X0001137795Y0000574409D02*
X0001137795Y0000535039D01*
X0001137795Y0000448425D02*
X0001137795Y0000409055D01*
X0001084251Y0000409055D02*
X0001084251Y0000448425D01*
X0000993307Y0000600393D02*
X0001032677Y0000600393D01*
X0001032677Y0000546850D02*
X0000993307Y0000546850D01*
X0001137795Y0000326771D02*
X0001137795Y0000287401D01*
X0001084251Y0000287401D02*
X0001084251Y0000326771D01*
X0001084251Y0000161023D02*
X0001084251Y0000200393D01*
X0001137795Y0000200393D02*
X0001137795Y0000161023D01*
X0001221653Y0000198818D02*
X0001261023Y0000198818D01*
X0001261023Y0000145275D02*
X0001221653Y0000145275D01*
X0001221653Y0000285039D02*
X0001261023Y0000285039D01*
X0001261023Y0000231496D02*
X0001221653Y0000231496D01*
D36*
X0001076865Y0000510892D02*
X0001058117Y0000500393D01*
X0001076865Y0000492894D02*
X0001037495Y0000492894D01*
X0001037495Y0000504893D01*
X0001039370Y0000507892D01*
X0001041244Y0000509392D01*
X0001044994Y0000510892D01*
X0001050618Y0000510892D01*
X0001054368Y0000509392D01*
X0001056242Y0000507892D01*
X0001058117Y0000504893D01*
X0001058117Y0000492894D01*
X0001041244Y0000522890D02*
X0001039370Y0000524390D01*
X0001037495Y0000527390D01*
X0001037495Y0000534889D01*
X0001039370Y0000537889D01*
X0001041244Y0000539388D01*
X0001044994Y0000540888D01*
X0001048743Y0000540888D01*
X0001054368Y0000539388D01*
X0001076865Y0000521391D01*
X0001076865Y0000540888D01*
X0001184345Y0000447112D02*
X0001165597Y0000436614D01*
X0001184345Y0000429115D02*
X0001144975Y0000429115D01*
X0001144975Y0000441113D01*
X0001146850Y0000444113D01*
X0001148725Y0000445613D01*
X0001152474Y0000447112D01*
X0001158098Y0000447112D01*
X0001161848Y0000445613D01*
X0001163723Y0000444113D01*
X0001165597Y0000441113D01*
X0001165597Y0000429115D01*
X0001184345Y0000477109D02*
X0001184345Y0000459111D01*
X0001184345Y0000468110D02*
X0001144975Y0000468110D01*
X0001150599Y0000465110D01*
X0001154349Y0000462110D01*
X0001156224Y0000459111D01*
X0000955999Y0000570341D02*
X0000937251Y0000559842D01*
X0000955999Y0000552343D02*
X0000916629Y0000552343D01*
X0000916629Y0000564341D01*
X0000918503Y0000567341D01*
X0000920378Y0000568841D01*
X0000924128Y0000570341D01*
X0000929752Y0000570341D01*
X0000933502Y0000568841D01*
X0000935376Y0000567341D01*
X0000937251Y0000564341D01*
X0000937251Y0000552343D01*
X0000916629Y0000580839D02*
X0000916629Y0000600337D01*
X0000931627Y0000589838D01*
X0000931627Y0000594338D01*
X0000933502Y0000597337D01*
X0000935376Y0000598837D01*
X0000939126Y0000600337D01*
X0000948500Y0000600337D01*
X0000952249Y0000598837D01*
X0000954124Y0000597337D01*
X0000955999Y0000594338D01*
X0000955999Y0000585339D01*
X0000954124Y0000582339D01*
X0000952249Y0000580839D01*
X0001083164Y0000299475D02*
X0001064416Y0000288976D01*
X0001083164Y0000281477D02*
X0001043794Y0000281477D01*
X0001043794Y0000293475D01*
X0001045669Y0000296475D01*
X0001047544Y0000297975D01*
X0001051293Y0000299475D01*
X0001056917Y0000299475D01*
X0001060667Y0000297975D01*
X0001062542Y0000296475D01*
X0001064416Y0000293475D01*
X0001064416Y0000281477D01*
X0001056917Y0000326471D02*
X0001083164Y0000326471D01*
X0001041919Y0000318972D02*
X0001070041Y0000311473D01*
X0001070041Y0000330971D01*
X0001076471Y0000151049D02*
X0001057724Y0000140551D01*
X0001076471Y0000133052D02*
X0001037101Y0000133052D01*
X0001037101Y0000145050D01*
X0001038976Y0000148050D01*
X0001040851Y0000149550D01*
X0001044600Y0000151049D01*
X0001050224Y0000151049D01*
X0001053974Y0000149550D01*
X0001055849Y0000148050D01*
X0001057724Y0000145050D01*
X0001057724Y0000133052D01*
X0001037101Y0000179546D02*
X0001037101Y0000164548D01*
X0001055849Y0000163048D01*
X0001053974Y0000164548D01*
X0001052099Y0000167547D01*
X0001052099Y0000175046D01*
X0001053974Y0000178046D01*
X0001055849Y0000179546D01*
X0001059598Y0000181046D01*
X0001068972Y0000181046D01*
X0001072722Y0000179546D01*
X0001074596Y0000178046D01*
X0001076471Y0000175046D01*
X0001076471Y0000167547D01*
X0001074596Y0000164548D01*
X0001072722Y0000163048D01*
X0001187101Y0000167191D02*
X0001168353Y0000156692D01*
X0001187101Y0000149193D02*
X0001147731Y0000149193D01*
X0001147731Y0000161192D01*
X0001149606Y0000164192D01*
X0001151481Y0000165691D01*
X0001155230Y0000167191D01*
X0001160854Y0000167191D01*
X0001164604Y0000165691D01*
X0001166479Y0000164192D01*
X0001168353Y0000161192D01*
X0001168353Y0000149193D01*
X0001147731Y0000194188D02*
X0001147731Y0000188188D01*
X0001149606Y0000185189D01*
X0001151481Y0000183689D01*
X0001157105Y0000180689D01*
X0001164604Y0000179190D01*
X0001179602Y0000179190D01*
X0001183352Y0000180689D01*
X0001185226Y0000182189D01*
X0001187101Y0000185189D01*
X0001187101Y0000191188D01*
X0001185226Y0000194188D01*
X0001183352Y0000195688D01*
X0001179602Y0000197187D01*
X0001170228Y0000197187D01*
X0001166479Y0000195688D01*
X0001164604Y0000194188D01*
X0001162729Y0000191188D01*
X0001162729Y0000185189D01*
X0001164604Y0000182189D01*
X0001166479Y0000180689D01*
X0001170228Y0000179190D01*
X0001186314Y0000257742D02*
X0001167566Y0000247244D01*
X0001186314Y0000239745D02*
X0001146944Y0000239745D01*
X0001146944Y0000251743D01*
X0001148818Y0000254743D01*
X0001150693Y0000256242D01*
X0001154443Y0000257742D01*
X0001160067Y0000257742D01*
X0001163817Y0000256242D01*
X0001165691Y0000254743D01*
X0001167566Y0000251743D01*
X0001167566Y0000239745D01*
X0001146944Y0000268241D02*
X0001146944Y0000289238D01*
X0001186314Y0000275740D01*
G04 next file*
G04 Gerber Fmt 4.6, Leading zero omitted, Abs format (unit mm)*
G04 Created by KiCad (PCBNEW 4.0.7) date 11/16/17 17:14:57*
G01G01*
G04 APERTURE LIST*
G04 APERTURE END LIST*
D38*
D39*
X0001932677Y0001256280D02*
X0001930802Y0001253280D01*
X0001930802Y0001248781D01*
X0001932677Y0001244281D01*
X0001936426Y0001241282D01*
X0001940176Y0001239782D01*
X0001947675Y0001238282D01*
X0001953299Y0001238282D01*
X0001960798Y0001239782D01*
X0001964548Y0001241282D01*
X0001968297Y0001244281D01*
X0001970172Y0001248781D01*
X0001970172Y0001251780D01*
X0001968297Y0001256280D01*
X0001966422Y0001257780D01*
X0001953299Y0001257780D01*
X0001953299Y0001251780D01*
X0001949550Y0001294225D02*
X0001949550Y0001304724D01*
X0001970172Y0001309223D02*
X0001970172Y0001294225D01*
X0001930802Y0001294225D01*
X0001930802Y0001309223D01*
X0001970172Y0001322722D02*
X0001930802Y0001322722D01*
X0001970172Y0001340719D01*
X0001930802Y0001340719D01*
X0001930802Y0001355718D02*
X0001962673Y0001355718D01*
X0001966422Y0001357217D01*
X0001968297Y0001358717D01*
X0001970172Y0001361717D01*
X0001970172Y0001367716D01*
X0001968297Y0001370716D01*
X0001966422Y0001372215D01*
X0001962673Y0001373715D01*
X0001930802Y0001373715D01*
X0001970172Y0001388713D02*
X0001930802Y0001388713D01*
X0001958923Y0001399212D01*
X0001930802Y0001409711D01*
X0001970172Y0001409711D01*
X0001969385Y0001438001D02*
X0001930014Y0001438001D01*
X0001930014Y0001445500D01*
X0001931889Y0001450000D01*
X0001935639Y0001452999D01*
X0001939388Y0001454499D01*
X0001946887Y0001455999D01*
X0001952512Y0001455999D01*
X0001960011Y0001454499D01*
X0001963760Y0001452999D01*
X0001967510Y0001450000D01*
X0001969385Y0001445500D01*
X0001969385Y0001438001D01*
X0001954386Y0001469497D02*
X0001954386Y0001493494D01*
X0001969385Y0001481496D02*
X0001939388Y0001481496D01*
X0001970959Y0001524615D02*
X0001931589Y0001524615D01*
X0001931589Y0001532114D01*
X0001933464Y0001536614D01*
X0001937214Y0001539613D01*
X0001940963Y0001541113D01*
X0001948462Y0001542613D01*
X0001954087Y0001542613D01*
X0001961586Y0001541113D01*
X0001965335Y0001539613D01*
X0001969085Y0001536614D01*
X0001970959Y0001532114D01*
X0001970959Y0001524615D01*
X0001955961Y0001556111D02*
X0001955961Y0001580108D01*
X0001929227Y0001647150D02*
X0001929227Y0001632152D01*
X0001947975Y0001630652D01*
X0001946100Y0001632152D01*
X0001944225Y0001635151D01*
X0001944225Y0001642650D01*
X0001946100Y0001645650D01*
X0001947975Y0001647150D01*
X0001951724Y0001648650D01*
X0001961098Y0001648650D01*
X0001964848Y0001647150D01*
X0001966722Y0001645650D01*
X0001968597Y0001642650D01*
X0001968597Y0001635151D01*
X0001966722Y0001632152D01*
X0001964848Y0001630652D01*
X0001929227Y0001657649D02*
X0001968597Y0001668147D01*
X0001929227Y0001678646D01*
D40*
X0001653937Y0001602362D02*
X0001653937Y0001584645D01*
X0001581102Y0001602362D02*
X0001653937Y0001602362D01*
X0001480708Y0001295275D02*
X0001490551Y0001295275D01*
X0001480708Y0001602362D02*
X0001490551Y0001602362D01*
X0001581102Y0001295275D02*
X0001653937Y0001295275D01*
X0001653937Y0001295275D02*
X0001653937Y0001312992D01*
X0001675590Y0001515748D02*
X0001675590Y0001498031D01*
X0001675590Y0001515748D02*
X0001657874Y0001515748D01*
X0001825984Y0001524015D02*
X0001825984Y0001487401D01*
X0001825984Y0001399606D02*
X0001825984Y0001436220D01*
X0001825984Y0001399606D02*
X0001911023Y0001399606D01*
X0001825984Y0001524015D02*
X0001883464Y0001524015D01*
X0001821653Y0001563779D02*
X0001892519Y0001563779D01*
X0001892519Y0001690551D02*
X0001796062Y0001690551D01*
X0001714173Y0001617716D02*
X0001714173Y0001657086D01*
X0001767716Y0001657086D02*
X0001767716Y0001617716D01*
X0001767716Y0001531102D02*
X0001767716Y0001491732D01*
X0001714173Y0001491732D02*
X0001714173Y0001531102D01*
X0001623228Y0001683070D02*
X0001662598Y0001683070D01*
X0001662598Y0001629527D02*
X0001623228Y0001629527D01*
X0001767716Y0001409448D02*
X0001767716Y0001370078D01*
X0001714173Y0001370078D02*
X0001714173Y0001409448D01*
X0001714173Y0001243700D02*
X0001714173Y0001283070D01*
X0001767716Y0001283070D02*
X0001767716Y0001243700D01*
X0001851574Y0001281496D02*
X0001890944Y0001281496D01*
X0001890944Y0001227952D02*
X0001851574Y0001227952D01*
X0001851574Y0001367716D02*
X0001890944Y0001367716D01*
X0001890944Y0001314173D02*
X0001851574Y0001314173D01*
D39*
X0001706786Y0001593569D02*
X0001688038Y0001583070D01*
X0001706786Y0001575571D02*
X0001667416Y0001575571D01*
X0001667416Y0001587570D01*
X0001669291Y0001590569D01*
X0001671166Y0001592069D01*
X0001674915Y0001593569D01*
X0001680539Y0001593569D01*
X0001684289Y0001592069D01*
X0001686164Y0001590569D01*
X0001688038Y0001587570D01*
X0001688038Y0001575571D01*
X0001671166Y0001605568D02*
X0001669291Y0001607067D01*
X0001667416Y0001610067D01*
X0001667416Y0001617566D01*
X0001669291Y0001620566D01*
X0001671166Y0001622066D01*
X0001674915Y0001623565D01*
X0001678665Y0001623565D01*
X0001684289Y0001622066D01*
X0001706786Y0001604068D01*
X0001706786Y0001623565D01*
X0001814266Y0001529790D02*
X0001795519Y0001519291D01*
X0001814266Y0001511792D02*
X0001774896Y0001511792D01*
X0001774896Y0001523790D01*
X0001776771Y0001526790D01*
X0001778646Y0001528290D01*
X0001782395Y0001529790D01*
X0001788020Y0001529790D01*
X0001791769Y0001528290D01*
X0001793644Y0001526790D01*
X0001795519Y0001523790D01*
X0001795519Y0001511792D01*
X0001814266Y0001559786D02*
X0001814266Y0001541788D01*
X0001814266Y0001550787D02*
X0001774896Y0001550787D01*
X0001780521Y0001547787D01*
X0001784270Y0001544788D01*
X0001786145Y0001541788D01*
X0001585920Y0001653018D02*
X0001567172Y0001642519D01*
X0001585920Y0001635020D02*
X0001546550Y0001635020D01*
X0001546550Y0001647019D01*
X0001548425Y0001650018D01*
X0001550299Y0001651518D01*
X0001554049Y0001653018D01*
X0001559673Y0001653018D01*
X0001563423Y0001651518D01*
X0001565298Y0001650018D01*
X0001567172Y0001647019D01*
X0001567172Y0001635020D01*
X0001546550Y0001663517D02*
X0001546550Y0001683014D01*
X0001561548Y0001672515D01*
X0001561548Y0001677015D01*
X0001563423Y0001680015D01*
X0001565298Y0001681514D01*
X0001569047Y0001683014D01*
X0001578421Y0001683014D01*
X0001582170Y0001681514D01*
X0001584045Y0001680015D01*
X0001585920Y0001677015D01*
X0001585920Y0001668016D01*
X0001584045Y0001665016D01*
X0001582170Y0001663517D01*
X0001713085Y0001382152D02*
X0001694338Y0001371653D01*
X0001713085Y0001364154D02*
X0001673715Y0001364154D01*
X0001673715Y0001376152D01*
X0001675590Y0001379152D01*
X0001677465Y0001380652D01*
X0001681214Y0001382152D01*
X0001686839Y0001382152D01*
X0001690588Y0001380652D01*
X0001692463Y0001379152D01*
X0001694338Y0001376152D01*
X0001694338Y0001364154D01*
X0001686839Y0001409148D02*
X0001713085Y0001409148D01*
X0001671841Y0001401649D02*
X0001699962Y0001394150D01*
X0001699962Y0001413648D01*
X0001706392Y0001233727D02*
X0001687645Y0001223228D01*
X0001706392Y0001215729D02*
X0001667022Y0001215729D01*
X0001667022Y0001227727D01*
X0001668897Y0001230727D01*
X0001670772Y0001232227D01*
X0001674521Y0001233727D01*
X0001680146Y0001233727D01*
X0001683895Y0001232227D01*
X0001685770Y0001230727D01*
X0001687645Y0001227727D01*
X0001687645Y0001215729D01*
X0001667022Y0001262223D02*
X0001667022Y0001247225D01*
X0001685770Y0001245725D01*
X0001683895Y0001247225D01*
X0001682020Y0001250225D01*
X0001682020Y0001257724D01*
X0001683895Y0001260723D01*
X0001685770Y0001262223D01*
X0001689520Y0001263723D01*
X0001698893Y0001263723D01*
X0001702643Y0001262223D01*
X0001704518Y0001260723D01*
X0001706392Y0001257724D01*
X0001706392Y0001250225D01*
X0001704518Y0001247225D01*
X0001702643Y0001245725D01*
X0001817022Y0001249868D02*
X0001798275Y0001239370D01*
X0001817022Y0001231871D02*
X0001777652Y0001231871D01*
X0001777652Y0001243869D01*
X0001779527Y0001246869D01*
X0001781402Y0001248368D01*
X0001785151Y0001249868D01*
X0001790776Y0001249868D01*
X0001794525Y0001248368D01*
X0001796400Y0001246869D01*
X0001798275Y0001243869D01*
X0001798275Y0001231871D01*
X0001777652Y0001276865D02*
X0001777652Y0001270866D01*
X0001779527Y0001267866D01*
X0001781402Y0001266366D01*
X0001787026Y0001263367D01*
X0001794525Y0001261867D01*
X0001809523Y0001261867D01*
X0001813273Y0001263367D01*
X0001815148Y0001264866D01*
X0001817022Y0001267866D01*
X0001817022Y0001273865D01*
X0001815148Y0001276865D01*
X0001813273Y0001278365D01*
X0001809523Y0001279865D01*
X0001800150Y0001279865D01*
X0001796400Y0001278365D01*
X0001794525Y0001276865D01*
X0001792650Y0001273865D01*
X0001792650Y0001267866D01*
X0001794525Y0001264866D01*
X0001796400Y0001263367D01*
X0001800150Y0001261867D01*
X0001816235Y0001340419D02*
X0001797487Y0001329921D01*
X0001816235Y0001322422D02*
X0001776865Y0001322422D01*
X0001776865Y0001334420D01*
X0001778740Y0001337420D01*
X0001780614Y0001338920D01*
X0001784364Y0001340419D01*
X0001789988Y0001340419D01*
X0001793738Y0001338920D01*
X0001795613Y0001337420D01*
X0001797487Y0001334420D01*
X0001797487Y0001322422D01*
X0001776865Y0001350918D02*
X0001776865Y0001371916D01*
X0001816235Y0001358417D01*
G04 next file*
G04 Gerber Fmt 4.6, Leading zero omitted, Abs format (unit mm)*
G04 Created by KiCad (PCBNEW 4.0.7) date 11/16/17 17:14:57*
G01G01*
G04 APERTURE LIST*
G04 APERTURE END LIST*
D41*
D42*
X0001932677Y0000714941D02*
X0001930802Y0000711942D01*
X0001930802Y0000707442D01*
X0001932677Y0000702943D01*
X0001936426Y0000699943D01*
X0001940176Y0000698443D01*
X0001947675Y0000696944D01*
X0001953299Y0000696944D01*
X0001960798Y0000698443D01*
X0001964548Y0000699943D01*
X0001968297Y0000702943D01*
X0001970172Y0000707442D01*
X0001970172Y0000710442D01*
X0001968297Y0000714941D01*
X0001966422Y0000716441D01*
X0001953299Y0000716441D01*
X0001953299Y0000710442D01*
X0001949550Y0000752887D02*
X0001949550Y0000763385D01*
X0001970172Y0000767885D02*
X0001970172Y0000752887D01*
X0001930802Y0000752887D01*
X0001930802Y0000767885D01*
X0001970172Y0000781383D02*
X0001930802Y0000781383D01*
X0001970172Y0000799381D01*
X0001930802Y0000799381D01*
X0001930802Y0000814379D02*
X0001962673Y0000814379D01*
X0001966422Y0000815879D01*
X0001968297Y0000817379D01*
X0001970172Y0000820378D01*
X0001970172Y0000826377D01*
X0001968297Y0000829377D01*
X0001966422Y0000830877D01*
X0001962673Y0000832377D01*
X0001930802Y0000832377D01*
X0001970172Y0000847375D02*
X0001930802Y0000847375D01*
X0001958923Y0000857874D01*
X0001930802Y0000868372D01*
X0001970172Y0000868372D01*
X0001969385Y0000896662D02*
X0001930014Y0000896662D01*
X0001930014Y0000904161D01*
X0001931889Y0000908661D01*
X0001935639Y0000911661D01*
X0001939388Y0000913160D01*
X0001946887Y0000914660D01*
X0001952512Y0000914660D01*
X0001960011Y0000913160D01*
X0001963760Y0000911661D01*
X0001967510Y0000908661D01*
X0001969385Y0000904161D01*
X0001969385Y0000896662D01*
X0001954386Y0000928158D02*
X0001954386Y0000952155D01*
X0001969385Y0000940157D02*
X0001939388Y0000940157D01*
X0001970959Y0000983277D02*
X0001931589Y0000983277D01*
X0001931589Y0000990776D01*
X0001933464Y0000995275D01*
X0001937214Y0000998275D01*
X0001940963Y0000999775D01*
X0001948462Y0001001274D01*
X0001954087Y0001001274D01*
X0001961586Y0000999775D01*
X0001965335Y0000998275D01*
X0001969085Y0000995275D01*
X0001970959Y0000990776D01*
X0001970959Y0000983277D01*
X0001955961Y0001014773D02*
X0001955961Y0001038770D01*
X0001929227Y0001105811D02*
X0001929227Y0001090813D01*
X0001947975Y0001089313D01*
X0001946100Y0001090813D01*
X0001944225Y0001093813D01*
X0001944225Y0001101312D01*
X0001946100Y0001104311D01*
X0001947975Y0001105811D01*
X0001951724Y0001107311D01*
X0001961098Y0001107311D01*
X0001964848Y0001105811D01*
X0001966722Y0001104311D01*
X0001968597Y0001101312D01*
X0001968597Y0001093813D01*
X0001966722Y0001090813D01*
X0001964848Y0001089313D01*
X0001929227Y0001116310D02*
X0001968597Y0001126809D01*
X0001929227Y0001137307D01*
D43*
X0001653937Y0001061023D02*
X0001653937Y0001043307D01*
X0001581102Y0001061023D02*
X0001653937Y0001061023D01*
X0001480708Y0000753937D02*
X0001490551Y0000753937D01*
X0001480708Y0001061023D02*
X0001490551Y0001061023D01*
X0001581102Y0000753937D02*
X0001653937Y0000753937D01*
X0001653937Y0000753937D02*
X0001653937Y0000771653D01*
X0001675590Y0000974409D02*
X0001675590Y0000956692D01*
X0001675590Y0000974409D02*
X0001657874Y0000974409D01*
X0001825984Y0000982677D02*
X0001825984Y0000946062D01*
X0001825984Y0000858267D02*
X0001825984Y0000894881D01*
X0001825984Y0000858267D02*
X0001911023Y0000858267D01*
X0001825984Y0000982677D02*
X0001883464Y0000982677D01*
X0001821653Y0001022440D02*
X0001892519Y0001022440D01*
X0001892519Y0001149212D02*
X0001796062Y0001149212D01*
X0001714173Y0001076377D02*
X0001714173Y0001115748D01*
X0001767716Y0001115748D02*
X0001767716Y0001076377D01*
X0001767716Y0000989763D02*
X0001767716Y0000950393D01*
X0001714173Y0000950393D02*
X0001714173Y0000989763D01*
X0001623228Y0001141732D02*
X0001662598Y0001141732D01*
X0001662598Y0001088188D02*
X0001623228Y0001088188D01*
X0001767716Y0000868110D02*
X0001767716Y0000828740D01*
X0001714173Y0000828740D02*
X0001714173Y0000868110D01*
X0001714173Y0000702362D02*
X0001714173Y0000741732D01*
X0001767716Y0000741732D02*
X0001767716Y0000702362D01*
X0001851574Y0000740157D02*
X0001890944Y0000740157D01*
X0001890944Y0000686614D02*
X0001851574Y0000686614D01*
X0001851574Y0000826377D02*
X0001890944Y0000826377D01*
X0001890944Y0000772834D02*
X0001851574Y0000772834D01*
D42*
X0001706786Y0001052230D02*
X0001688038Y0001041732D01*
X0001706786Y0001034233D02*
X0001667416Y0001034233D01*
X0001667416Y0001046231D01*
X0001669291Y0001049231D01*
X0001671166Y0001050731D01*
X0001674915Y0001052230D01*
X0001680539Y0001052230D01*
X0001684289Y0001050731D01*
X0001686164Y0001049231D01*
X0001688038Y0001046231D01*
X0001688038Y0001034233D01*
X0001671166Y0001064229D02*
X0001669291Y0001065729D01*
X0001667416Y0001068728D01*
X0001667416Y0001076227D01*
X0001669291Y0001079227D01*
X0001671166Y0001080727D01*
X0001674915Y0001082227D01*
X0001678665Y0001082227D01*
X0001684289Y0001080727D01*
X0001706786Y0001062729D01*
X0001706786Y0001082227D01*
X0001814266Y0000988451D02*
X0001795519Y0000977952D01*
X0001814266Y0000970453D02*
X0001774896Y0000970453D01*
X0001774896Y0000982452D01*
X0001776771Y0000985451D01*
X0001778646Y0000986951D01*
X0001782395Y0000988451D01*
X0001788020Y0000988451D01*
X0001791769Y0000986951D01*
X0001793644Y0000985451D01*
X0001795519Y0000982452D01*
X0001795519Y0000970453D01*
X0001814266Y0001018447D02*
X0001814266Y0001000449D01*
X0001814266Y0001009448D02*
X0001774896Y0001009448D01*
X0001780521Y0001006449D01*
X0001784270Y0001003449D01*
X0001786145Y0001000449D01*
X0001585920Y0001111679D02*
X0001567172Y0001101181D01*
X0001585920Y0001093682D02*
X0001546550Y0001093682D01*
X0001546550Y0001105680D01*
X0001548425Y0001108680D01*
X0001550299Y0001110180D01*
X0001554049Y0001111679D01*
X0001559673Y0001111679D01*
X0001563423Y0001110180D01*
X0001565298Y0001108680D01*
X0001567172Y0001105680D01*
X0001567172Y0001093682D01*
X0001546550Y0001122178D02*
X0001546550Y0001141676D01*
X0001561548Y0001131177D01*
X0001561548Y0001135676D01*
X0001563423Y0001138676D01*
X0001565298Y0001140176D01*
X0001569047Y0001141676D01*
X0001578421Y0001141676D01*
X0001582170Y0001140176D01*
X0001584045Y0001138676D01*
X0001585920Y0001135676D01*
X0001585920Y0001126677D01*
X0001584045Y0001123678D01*
X0001582170Y0001122178D01*
X0001713085Y0000840813D02*
X0001694338Y0000830314D01*
X0001713085Y0000822815D02*
X0001673715Y0000822815D01*
X0001673715Y0000834814D01*
X0001675590Y0000837814D01*
X0001677465Y0000839313D01*
X0001681214Y0000840813D01*
X0001686839Y0000840813D01*
X0001690588Y0000839313D01*
X0001692463Y0000837814D01*
X0001694338Y0000834814D01*
X0001694338Y0000822815D01*
X0001686839Y0000867810D02*
X0001713085Y0000867810D01*
X0001671841Y0000860311D02*
X0001699962Y0000852812D01*
X0001699962Y0000872309D01*
X0001706392Y0000692388D02*
X0001687645Y0000681889D01*
X0001706392Y0000674390D02*
X0001667022Y0000674390D01*
X0001667022Y0000686389D01*
X0001668897Y0000689388D01*
X0001670772Y0000690888D01*
X0001674521Y0000692388D01*
X0001680146Y0000692388D01*
X0001683895Y0000690888D01*
X0001685770Y0000689388D01*
X0001687645Y0000686389D01*
X0001687645Y0000674390D01*
X0001667022Y0000720884D02*
X0001667022Y0000705886D01*
X0001685770Y0000704386D01*
X0001683895Y0000705886D01*
X0001682020Y0000708886D01*
X0001682020Y0000716385D01*
X0001683895Y0000719385D01*
X0001685770Y0000720884D01*
X0001689520Y0000722384D01*
X0001698893Y0000722384D01*
X0001702643Y0000720884D01*
X0001704518Y0000719385D01*
X0001706392Y0000716385D01*
X0001706392Y0000708886D01*
X0001704518Y0000705886D01*
X0001702643Y0000704386D01*
X0001817022Y0000708530D02*
X0001798275Y0000698031D01*
X0001817022Y0000690532D02*
X0001777652Y0000690532D01*
X0001777652Y0000702530D01*
X0001779527Y0000705530D01*
X0001781402Y0000707030D01*
X0001785151Y0000708530D01*
X0001790776Y0000708530D01*
X0001794525Y0000707030D01*
X0001796400Y0000705530D01*
X0001798275Y0000702530D01*
X0001798275Y0000690532D01*
X0001777652Y0000735526D02*
X0001777652Y0000729527D01*
X0001779527Y0000726527D01*
X0001781402Y0000725028D01*
X0001787026Y0000722028D01*
X0001794525Y0000720528D01*
X0001809523Y0000720528D01*
X0001813273Y0000722028D01*
X0001815148Y0000723528D01*
X0001817022Y0000726527D01*
X0001817022Y0000732527D01*
X0001815148Y0000735526D01*
X0001813273Y0000737026D01*
X0001809523Y0000738526D01*
X0001800150Y0000738526D01*
X0001796400Y0000737026D01*
X0001794525Y0000735526D01*
X0001792650Y0000732527D01*
X0001792650Y0000726527D01*
X0001794525Y0000723528D01*
X0001796400Y0000722028D01*
X0001800150Y0000720528D01*
X0001816235Y0000799081D02*
X0001797487Y0000788582D01*
X0001816235Y0000781083D02*
X0001776865Y0000781083D01*
X0001776865Y0000793082D01*
X0001778740Y0000796081D01*
X0001780614Y0000797581D01*
X0001784364Y0000799081D01*
X0001789988Y0000799081D01*
X0001793738Y0000797581D01*
X0001795613Y0000796081D01*
X0001797487Y0000793082D01*
X0001797487Y0000781083D01*
X0001776865Y0000809580D02*
X0001776865Y0000830577D01*
X0001816235Y0000817079D01*
G04 next file*
G04 Gerber Fmt 4.6, Leading zero omitted, Abs format (unit mm)*
G04 Created by KiCad (PCBNEW 4.0.7) date 11/16/17 17:14:57*
G01G01*
G04 APERTURE LIST*
G04 APERTURE END LIST*
D44*
D45*
X0001932677Y0000173603D02*
X0001930802Y0000170603D01*
X0001930802Y0000166104D01*
X0001932677Y0000161604D01*
X0001936426Y0000158605D01*
X0001940176Y0000157105D01*
X0001947675Y0000155605D01*
X0001953299Y0000155605D01*
X0001960798Y0000157105D01*
X0001964548Y0000158605D01*
X0001968297Y0000161604D01*
X0001970172Y0000166104D01*
X0001970172Y0000169103D01*
X0001968297Y0000173603D01*
X0001966422Y0000175103D01*
X0001953299Y0000175103D01*
X0001953299Y0000169103D01*
X0001949550Y0000211548D02*
X0001949550Y0000222047D01*
X0001970172Y0000226546D02*
X0001970172Y0000211548D01*
X0001930802Y0000211548D01*
X0001930802Y0000226546D01*
X0001970172Y0000240044D02*
X0001930802Y0000240044D01*
X0001970172Y0000258042D01*
X0001930802Y0000258042D01*
X0001930802Y0000273040D02*
X0001962673Y0000273040D01*
X0001966422Y0000274540D01*
X0001968297Y0000276040D01*
X0001970172Y0000279040D01*
X0001970172Y0000285039D01*
X0001968297Y0000288038D01*
X0001966422Y0000289538D01*
X0001962673Y0000291038D01*
X0001930802Y0000291038D01*
X0001970172Y0000306036D02*
X0001930802Y0000306036D01*
X0001958923Y0000316535D01*
X0001930802Y0000327034D01*
X0001970172Y0000327034D01*
X0001969385Y0000355324D02*
X0001930014Y0000355324D01*
X0001930014Y0000362823D01*
X0001931889Y0000367322D01*
X0001935639Y0000370322D01*
X0001939388Y0000371822D01*
X0001946887Y0000373322D01*
X0001952512Y0000373322D01*
X0001960011Y0000371822D01*
X0001963760Y0000370322D01*
X0001967510Y0000367322D01*
X0001969385Y0000362823D01*
X0001969385Y0000355324D01*
X0001954386Y0000386820D02*
X0001954386Y0000410817D01*
X0001969385Y0000398818D02*
X0001939388Y0000398818D01*
X0001970959Y0000441938D02*
X0001931589Y0000441938D01*
X0001931589Y0000449437D01*
X0001933464Y0000453937D01*
X0001937214Y0000456936D01*
X0001940963Y0000458436D01*
X0001948462Y0000459936D01*
X0001954087Y0000459936D01*
X0001961586Y0000458436D01*
X0001965335Y0000456936D01*
X0001969085Y0000453937D01*
X0001970959Y0000449437D01*
X0001970959Y0000441938D01*
X0001955961Y0000473434D02*
X0001955961Y0000497431D01*
X0001929227Y0000564473D02*
X0001929227Y0000549475D01*
X0001947975Y0000547975D01*
X0001946100Y0000549475D01*
X0001944225Y0000552474D01*
X0001944225Y0000559973D01*
X0001946100Y0000562973D01*
X0001947975Y0000564473D01*
X0001951724Y0000565973D01*
X0001961098Y0000565973D01*
X0001964848Y0000564473D01*
X0001966722Y0000562973D01*
X0001968597Y0000559973D01*
X0001968597Y0000552474D01*
X0001966722Y0000549475D01*
X0001964848Y0000547975D01*
X0001929227Y0000574971D02*
X0001968597Y0000585470D01*
X0001929227Y0000595969D01*
D46*
X0001653937Y0000519685D02*
X0001653937Y0000501968D01*
X0001581102Y0000519685D02*
X0001653937Y0000519685D01*
X0001480708Y0000212598D02*
X0001490551Y0000212598D01*
X0001480708Y0000519685D02*
X0001490551Y0000519685D01*
X0001581102Y0000212598D02*
X0001653937Y0000212598D01*
X0001653937Y0000212598D02*
X0001653937Y0000230314D01*
X0001675590Y0000433070D02*
X0001675590Y0000415354D01*
X0001675590Y0000433070D02*
X0001657874Y0000433070D01*
X0001825984Y0000441338D02*
X0001825984Y0000404724D01*
X0001825984Y0000316929D02*
X0001825984Y0000353543D01*
X0001825984Y0000316929D02*
X0001911023Y0000316929D01*
X0001825984Y0000441338D02*
X0001883464Y0000441338D01*
X0001821653Y0000481102D02*
X0001892519Y0000481102D01*
X0001892519Y0000607874D02*
X0001796062Y0000607874D01*
X0001714173Y0000535039D02*
X0001714173Y0000574409D01*
X0001767716Y0000574409D02*
X0001767716Y0000535039D01*
X0001767716Y0000448425D02*
X0001767716Y0000409055D01*
X0001714173Y0000409055D02*
X0001714173Y0000448425D01*
X0001623228Y0000600393D02*
X0001662598Y0000600393D01*
X0001662598Y0000546850D02*
X0001623228Y0000546850D01*
X0001767716Y0000326771D02*
X0001767716Y0000287401D01*
X0001714173Y0000287401D02*
X0001714173Y0000326771D01*
X0001714173Y0000161023D02*
X0001714173Y0000200393D01*
X0001767716Y0000200393D02*
X0001767716Y0000161023D01*
X0001851574Y0000198818D02*
X0001890944Y0000198818D01*
X0001890944Y0000145275D02*
X0001851574Y0000145275D01*
X0001851574Y0000285039D02*
X0001890944Y0000285039D01*
X0001890944Y0000231496D02*
X0001851574Y0000231496D01*
D45*
X0001706786Y0000510892D02*
X0001688038Y0000500393D01*
X0001706786Y0000492894D02*
X0001667416Y0000492894D01*
X0001667416Y0000504893D01*
X0001669291Y0000507892D01*
X0001671166Y0000509392D01*
X0001674915Y0000510892D01*
X0001680539Y0000510892D01*
X0001684289Y0000509392D01*
X0001686164Y0000507892D01*
X0001688038Y0000504893D01*
X0001688038Y0000492894D01*
X0001671166Y0000522890D02*
X0001669291Y0000524390D01*
X0001667416Y0000527390D01*
X0001667416Y0000534889D01*
X0001669291Y0000537889D01*
X0001671166Y0000539388D01*
X0001674915Y0000540888D01*
X0001678665Y0000540888D01*
X0001684289Y0000539388D01*
X0001706786Y0000521391D01*
X0001706786Y0000540888D01*
X0001814266Y0000447112D02*
X0001795519Y0000436614D01*
X0001814266Y0000429115D02*
X0001774896Y0000429115D01*
X0001774896Y0000441113D01*
X0001776771Y0000444113D01*
X0001778646Y0000445613D01*
X0001782395Y0000447112D01*
X0001788020Y0000447112D01*
X0001791769Y0000445613D01*
X0001793644Y0000444113D01*
X0001795519Y0000441113D01*
X0001795519Y0000429115D01*
X0001814266Y0000477109D02*
X0001814266Y0000459111D01*
X0001814266Y0000468110D02*
X0001774896Y0000468110D01*
X0001780521Y0000465110D01*
X0001784270Y0000462110D01*
X0001786145Y0000459111D01*
X0001585920Y0000570341D02*
X0001567172Y0000559842D01*
X0001585920Y0000552343D02*
X0001546550Y0000552343D01*
X0001546550Y0000564341D01*
X0001548425Y0000567341D01*
X0001550299Y0000568841D01*
X0001554049Y0000570341D01*
X0001559673Y0000570341D01*
X0001563423Y0000568841D01*
X0001565298Y0000567341D01*
X0001567172Y0000564341D01*
X0001567172Y0000552343D01*
X0001546550Y0000580839D02*
X0001546550Y0000600337D01*
X0001561548Y0000589838D01*
X0001561548Y0000594338D01*
X0001563423Y0000597337D01*
X0001565298Y0000598837D01*
X0001569047Y0000600337D01*
X0001578421Y0000600337D01*
X0001582170Y0000598837D01*
X0001584045Y0000597337D01*
X0001585920Y0000594338D01*
X0001585920Y0000585339D01*
X0001584045Y0000582339D01*
X0001582170Y0000580839D01*
X0001713085Y0000299475D02*
X0001694338Y0000288976D01*
X0001713085Y0000281477D02*
X0001673715Y0000281477D01*
X0001673715Y0000293475D01*
X0001675590Y0000296475D01*
X0001677465Y0000297975D01*
X0001681214Y0000299475D01*
X0001686839Y0000299475D01*
X0001690588Y0000297975D01*
X0001692463Y0000296475D01*
X0001694338Y0000293475D01*
X0001694338Y0000281477D01*
X0001686839Y0000326471D02*
X0001713085Y0000326471D01*
X0001671841Y0000318972D02*
X0001699962Y0000311473D01*
X0001699962Y0000330971D01*
X0001706392Y0000151049D02*
X0001687645Y0000140551D01*
X0001706392Y0000133052D02*
X0001667022Y0000133052D01*
X0001667022Y0000145050D01*
X0001668897Y0000148050D01*
X0001670772Y0000149550D01*
X0001674521Y0000151049D01*
X0001680146Y0000151049D01*
X0001683895Y0000149550D01*
X0001685770Y0000148050D01*
X0001687645Y0000145050D01*
X0001687645Y0000133052D01*
X0001667022Y0000179546D02*
X0001667022Y0000164548D01*
X0001685770Y0000163048D01*
X0001683895Y0000164548D01*
X0001682020Y0000167547D01*
X0001682020Y0000175046D01*
X0001683895Y0000178046D01*
X0001685770Y0000179546D01*
X0001689520Y0000181046D01*
X0001698893Y0000181046D01*
X0001702643Y0000179546D01*
X0001704518Y0000178046D01*
X0001706392Y0000175046D01*
X0001706392Y0000167547D01*
X0001704518Y0000164548D01*
X0001702643Y0000163048D01*
X0001817022Y0000167191D02*
X0001798275Y0000156692D01*
X0001817022Y0000149193D02*
X0001777652Y0000149193D01*
X0001777652Y0000161192D01*
X0001779527Y0000164192D01*
X0001781402Y0000165691D01*
X0001785151Y0000167191D01*
X0001790776Y0000167191D01*
X0001794525Y0000165691D01*
X0001796400Y0000164192D01*
X0001798275Y0000161192D01*
X0001798275Y0000149193D01*
X0001777652Y0000194188D02*
X0001777652Y0000188188D01*
X0001779527Y0000185189D01*
X0001781402Y0000183689D01*
X0001787026Y0000180689D01*
X0001794525Y0000179190D01*
X0001809523Y0000179190D01*
X0001813273Y0000180689D01*
X0001815148Y0000182189D01*
X0001817022Y0000185189D01*
X0001817022Y0000191188D01*
X0001815148Y0000194188D01*
X0001813273Y0000195688D01*
X0001809523Y0000197187D01*
X0001800150Y0000197187D01*
X0001796400Y0000195688D01*
X0001794525Y0000194188D01*
X0001792650Y0000191188D01*
X0001792650Y0000185189D01*
X0001794525Y0000182189D01*
X0001796400Y0000180689D01*
X0001800150Y0000179190D01*
X0001816235Y0000257742D02*
X0001797487Y0000247244D01*
X0001816235Y0000239745D02*
X0001776865Y0000239745D01*
X0001776865Y0000251743D01*
X0001778740Y0000254743D01*
X0001780614Y0000256242D01*
X0001784364Y0000257742D01*
X0001789988Y0000257742D01*
X0001793738Y0000256242D01*
X0001795613Y0000254743D01*
X0001797487Y0000251743D01*
X0001797487Y0000239745D01*
X0001776865Y0000268241D02*
X0001776865Y0000289238D01*
X0001816235Y0000275740D01*
G04 next file*
G04 Gerber Fmt 4.6, Leading zero omitted, Abs format (unit mm)*
G04 Created by KiCad (PCBNEW 4.0.7) date 11/16/17 17:14:57*
G01G01*
G04 APERTURE LIST*
G04 APERTURE END LIST*
D47*
D48*
X0002562598Y0001256280D02*
X0002560723Y0001253280D01*
X0002560723Y0001248781D01*
X0002562598Y0001244281D01*
X0002566347Y0001241282D01*
X0002570097Y0001239782D01*
X0002577596Y0001238282D01*
X0002583220Y0001238282D01*
X0002590719Y0001239782D01*
X0002594469Y0001241282D01*
X0002598218Y0001244281D01*
X0002600093Y0001248781D01*
X0002600093Y0001251780D01*
X0002598218Y0001256280D01*
X0002596344Y0001257780D01*
X0002583220Y0001257780D01*
X0002583220Y0001251780D01*
X0002579471Y0001294225D02*
X0002579471Y0001304724D01*
X0002600093Y0001309223D02*
X0002600093Y0001294225D01*
X0002560723Y0001294225D01*
X0002560723Y0001309223D01*
X0002600093Y0001322722D02*
X0002560723Y0001322722D01*
X0002600093Y0001340719D01*
X0002560723Y0001340719D01*
X0002560723Y0001355718D02*
X0002592594Y0001355718D01*
X0002596344Y0001357217D01*
X0002598218Y0001358717D01*
X0002600093Y0001361717D01*
X0002600093Y0001367716D01*
X0002598218Y0001370716D01*
X0002596344Y0001372215D01*
X0002592594Y0001373715D01*
X0002560723Y0001373715D01*
X0002600093Y0001388713D02*
X0002560723Y0001388713D01*
X0002588845Y0001399212D01*
X0002560723Y0001409711D01*
X0002600093Y0001409711D01*
X0002599306Y0001438001D02*
X0002559936Y0001438001D01*
X0002559936Y0001445500D01*
X0002561810Y0001450000D01*
X0002565560Y0001452999D01*
X0002569310Y0001454499D01*
X0002576809Y0001455999D01*
X0002582433Y0001455999D01*
X0002589932Y0001454499D01*
X0002593682Y0001452999D01*
X0002597431Y0001450000D01*
X0002599306Y0001445500D01*
X0002599306Y0001438001D01*
X0002584308Y0001469497D02*
X0002584308Y0001493494D01*
X0002599306Y0001481496D02*
X0002569310Y0001481496D01*
X0002600881Y0001524615D02*
X0002561511Y0001524615D01*
X0002561511Y0001532114D01*
X0002563385Y0001536614D01*
X0002567135Y0001539613D01*
X0002570884Y0001541113D01*
X0002578383Y0001542613D01*
X0002584008Y0001542613D01*
X0002591507Y0001541113D01*
X0002595256Y0001539613D01*
X0002599006Y0001536614D01*
X0002600881Y0001532114D01*
X0002600881Y0001524615D01*
X0002585882Y0001556111D02*
X0002585882Y0001580108D01*
X0002559148Y0001647150D02*
X0002559148Y0001632152D01*
X0002577896Y0001630652D01*
X0002576021Y0001632152D01*
X0002574146Y0001635151D01*
X0002574146Y0001642650D01*
X0002576021Y0001645650D01*
X0002577896Y0001647150D01*
X0002581646Y0001648650D01*
X0002591019Y0001648650D01*
X0002594769Y0001647150D01*
X0002596644Y0001645650D01*
X0002598518Y0001642650D01*
X0002598518Y0001635151D01*
X0002596644Y0001632152D01*
X0002594769Y0001630652D01*
X0002559148Y0001657649D02*
X0002598518Y0001668147D01*
X0002559148Y0001678646D01*
D49*
X0002283858Y0001602362D02*
X0002283858Y0001584645D01*
X0002211023Y0001602362D02*
X0002283858Y0001602362D01*
X0002110629Y0001295275D02*
X0002120472Y0001295275D01*
X0002110629Y0001602362D02*
X0002120472Y0001602362D01*
X0002211023Y0001295275D02*
X0002283858Y0001295275D01*
X0002283858Y0001295275D02*
X0002283858Y0001312992D01*
X0002305511Y0001515748D02*
X0002305511Y0001498031D01*
X0002305511Y0001515748D02*
X0002287795Y0001515748D01*
X0002455905Y0001524015D02*
X0002455905Y0001487401D01*
X0002455905Y0001399606D02*
X0002455905Y0001436220D01*
X0002455905Y0001399606D02*
X0002540944Y0001399606D01*
X0002455905Y0001524015D02*
X0002513385Y0001524015D01*
X0002451574Y0001563779D02*
X0002522440Y0001563779D01*
X0002522440Y0001690551D02*
X0002425984Y0001690551D01*
X0002344094Y0001617716D02*
X0002344094Y0001657086D01*
X0002397637Y0001657086D02*
X0002397637Y0001617716D01*
X0002397637Y0001531102D02*
X0002397637Y0001491732D01*
X0002344094Y0001491732D02*
X0002344094Y0001531102D01*
X0002253149Y0001683070D02*
X0002292519Y0001683070D01*
X0002292519Y0001629527D02*
X0002253149Y0001629527D01*
X0002397637Y0001409448D02*
X0002397637Y0001370078D01*
X0002344094Y0001370078D02*
X0002344094Y0001409448D01*
X0002344094Y0001243700D02*
X0002344094Y0001283070D01*
X0002397637Y0001283070D02*
X0002397637Y0001243700D01*
X0002481496Y0001281496D02*
X0002520866Y0001281496D01*
X0002520866Y0001227952D02*
X0002481496Y0001227952D01*
X0002481496Y0001367716D02*
X0002520866Y0001367716D01*
X0002520866Y0001314173D02*
X0002481496Y0001314173D01*
D48*
X0002336707Y0001593569D02*
X0002317960Y0001583070D01*
X0002336707Y0001575571D02*
X0002297337Y0001575571D01*
X0002297337Y0001587570D01*
X0002299212Y0001590569D01*
X0002301087Y0001592069D01*
X0002304836Y0001593569D01*
X0002310461Y0001593569D01*
X0002314210Y0001592069D01*
X0002316085Y0001590569D01*
X0002317960Y0001587570D01*
X0002317960Y0001575571D01*
X0002301087Y0001605568D02*
X0002299212Y0001607067D01*
X0002297337Y0001610067D01*
X0002297337Y0001617566D01*
X0002299212Y0001620566D01*
X0002301087Y0001622066D01*
X0002304836Y0001623565D01*
X0002308586Y0001623565D01*
X0002314210Y0001622066D01*
X0002336707Y0001604068D01*
X0002336707Y0001623565D01*
X0002444188Y0001529790D02*
X0002425440Y0001519291D01*
X0002444188Y0001511792D02*
X0002404818Y0001511792D01*
X0002404818Y0001523790D01*
X0002406692Y0001526790D01*
X0002408567Y0001528290D01*
X0002412317Y0001529790D01*
X0002417941Y0001529790D01*
X0002421691Y0001528290D01*
X0002423565Y0001526790D01*
X0002425440Y0001523790D01*
X0002425440Y0001511792D01*
X0002444188Y0001559786D02*
X0002444188Y0001541788D01*
X0002444188Y0001550787D02*
X0002404818Y0001550787D01*
X0002410442Y0001547787D01*
X0002414191Y0001544788D01*
X0002416066Y0001541788D01*
X0002215841Y0001653018D02*
X0002197094Y0001642519D01*
X0002215841Y0001635020D02*
X0002176471Y0001635020D01*
X0002176471Y0001647019D01*
X0002178346Y0001650018D01*
X0002180221Y0001651518D01*
X0002183970Y0001653018D01*
X0002189595Y0001653018D01*
X0002193344Y0001651518D01*
X0002195219Y0001650018D01*
X0002197094Y0001647019D01*
X0002197094Y0001635020D01*
X0002176471Y0001663517D02*
X0002176471Y0001683014D01*
X0002191469Y0001672515D01*
X0002191469Y0001677015D01*
X0002193344Y0001680015D01*
X0002195219Y0001681514D01*
X0002198968Y0001683014D01*
X0002208342Y0001683014D01*
X0002212092Y0001681514D01*
X0002213967Y0001680015D01*
X0002215841Y0001677015D01*
X0002215841Y0001668016D01*
X0002213967Y0001665016D01*
X0002212092Y0001663517D01*
X0002343007Y0001382152D02*
X0002324259Y0001371653D01*
X0002343007Y0001364154D02*
X0002303637Y0001364154D01*
X0002303637Y0001376152D01*
X0002305511Y0001379152D01*
X0002307386Y0001380652D01*
X0002311136Y0001382152D01*
X0002316760Y0001382152D01*
X0002320509Y0001380652D01*
X0002322384Y0001379152D01*
X0002324259Y0001376152D01*
X0002324259Y0001364154D01*
X0002316760Y0001409148D02*
X0002343007Y0001409148D01*
X0002301762Y0001401649D02*
X0002329883Y0001394150D01*
X0002329883Y0001413648D01*
X0002336314Y0001233727D02*
X0002317566Y0001223228D01*
X0002336314Y0001215729D02*
X0002296944Y0001215729D01*
X0002296944Y0001227727D01*
X0002298818Y0001230727D01*
X0002300693Y0001232227D01*
X0002304443Y0001233727D01*
X0002310067Y0001233727D01*
X0002313817Y0001232227D01*
X0002315691Y0001230727D01*
X0002317566Y0001227727D01*
X0002317566Y0001215729D01*
X0002296944Y0001262223D02*
X0002296944Y0001247225D01*
X0002315691Y0001245725D01*
X0002313817Y0001247225D01*
X0002311942Y0001250225D01*
X0002311942Y0001257724D01*
X0002313817Y0001260723D01*
X0002315691Y0001262223D01*
X0002319441Y0001263723D01*
X0002328815Y0001263723D01*
X0002332564Y0001262223D01*
X0002334439Y0001260723D01*
X0002336314Y0001257724D01*
X0002336314Y0001250225D01*
X0002334439Y0001247225D01*
X0002332564Y0001245725D01*
X0002446944Y0001249868D02*
X0002428196Y0001239370D01*
X0002446944Y0001231871D02*
X0002407574Y0001231871D01*
X0002407574Y0001243869D01*
X0002409448Y0001246869D01*
X0002411323Y0001248368D01*
X0002415073Y0001249868D01*
X0002420697Y0001249868D01*
X0002424446Y0001248368D01*
X0002426321Y0001246869D01*
X0002428196Y0001243869D01*
X0002428196Y0001231871D01*
X0002407574Y0001276865D02*
X0002407574Y0001270866D01*
X0002409448Y0001267866D01*
X0002411323Y0001266366D01*
X0002416947Y0001263367D01*
X0002424446Y0001261867D01*
X0002439445Y0001261867D01*
X0002443194Y0001263367D01*
X0002445069Y0001264866D01*
X0002446944Y0001267866D01*
X0002446944Y0001273865D01*
X0002445069Y0001276865D01*
X0002443194Y0001278365D01*
X0002439445Y0001279865D01*
X0002430071Y0001279865D01*
X0002426321Y0001278365D01*
X0002424446Y0001276865D01*
X0002422572Y0001273865D01*
X0002422572Y0001267866D01*
X0002424446Y0001264866D01*
X0002426321Y0001263367D01*
X0002430071Y0001261867D01*
X0002446156Y0001340419D02*
X0002427409Y0001329921D01*
X0002446156Y0001322422D02*
X0002406786Y0001322422D01*
X0002406786Y0001334420D01*
X0002408661Y0001337420D01*
X0002410536Y0001338920D01*
X0002414285Y0001340419D01*
X0002419910Y0001340419D01*
X0002423659Y0001338920D01*
X0002425534Y0001337420D01*
X0002427409Y0001334420D01*
X0002427409Y0001322422D01*
X0002406786Y0001350918D02*
X0002406786Y0001371916D01*
X0002446156Y0001358417D01*
G04 next file*
G04 Gerber Fmt 4.6, Leading zero omitted, Abs format (unit mm)*
G04 Created by KiCad (PCBNEW 4.0.7) date 11/16/17 17:14:57*
G01G01*
G04 APERTURE LIST*
G04 APERTURE END LIST*
D50*
D51*
X0002562598Y0000714941D02*
X0002560723Y0000711942D01*
X0002560723Y0000707442D01*
X0002562598Y0000702943D01*
X0002566347Y0000699943D01*
X0002570097Y0000698443D01*
X0002577596Y0000696944D01*
X0002583220Y0000696944D01*
X0002590719Y0000698443D01*
X0002594469Y0000699943D01*
X0002598218Y0000702943D01*
X0002600093Y0000707442D01*
X0002600093Y0000710442D01*
X0002598218Y0000714941D01*
X0002596344Y0000716441D01*
X0002583220Y0000716441D01*
X0002583220Y0000710442D01*
X0002579471Y0000752887D02*
X0002579471Y0000763385D01*
X0002600093Y0000767885D02*
X0002600093Y0000752887D01*
X0002560723Y0000752887D01*
X0002560723Y0000767885D01*
X0002600093Y0000781383D02*
X0002560723Y0000781383D01*
X0002600093Y0000799381D01*
X0002560723Y0000799381D01*
X0002560723Y0000814379D02*
X0002592594Y0000814379D01*
X0002596344Y0000815879D01*
X0002598218Y0000817379D01*
X0002600093Y0000820378D01*
X0002600093Y0000826377D01*
X0002598218Y0000829377D01*
X0002596344Y0000830877D01*
X0002592594Y0000832377D01*
X0002560723Y0000832377D01*
X0002600093Y0000847375D02*
X0002560723Y0000847375D01*
X0002588845Y0000857874D01*
X0002560723Y0000868372D01*
X0002600093Y0000868372D01*
X0002599306Y0000896662D02*
X0002559936Y0000896662D01*
X0002559936Y0000904161D01*
X0002561810Y0000908661D01*
X0002565560Y0000911661D01*
X0002569310Y0000913160D01*
X0002576809Y0000914660D01*
X0002582433Y0000914660D01*
X0002589932Y0000913160D01*
X0002593682Y0000911661D01*
X0002597431Y0000908661D01*
X0002599306Y0000904161D01*
X0002599306Y0000896662D01*
X0002584308Y0000928158D02*
X0002584308Y0000952155D01*
X0002599306Y0000940157D02*
X0002569310Y0000940157D01*
X0002600881Y0000983277D02*
X0002561511Y0000983277D01*
X0002561511Y0000990776D01*
X0002563385Y0000995275D01*
X0002567135Y0000998275D01*
X0002570884Y0000999775D01*
X0002578383Y0001001274D01*
X0002584008Y0001001274D01*
X0002591507Y0000999775D01*
X0002595256Y0000998275D01*
X0002599006Y0000995275D01*
X0002600881Y0000990776D01*
X0002600881Y0000983277D01*
X0002585882Y0001014773D02*
X0002585882Y0001038770D01*
X0002559148Y0001105811D02*
X0002559148Y0001090813D01*
X0002577896Y0001089313D01*
X0002576021Y0001090813D01*
X0002574146Y0001093813D01*
X0002574146Y0001101312D01*
X0002576021Y0001104311D01*
X0002577896Y0001105811D01*
X0002581646Y0001107311D01*
X0002591019Y0001107311D01*
X0002594769Y0001105811D01*
X0002596644Y0001104311D01*
X0002598518Y0001101312D01*
X0002598518Y0001093813D01*
X0002596644Y0001090813D01*
X0002594769Y0001089313D01*
X0002559148Y0001116310D02*
X0002598518Y0001126809D01*
X0002559148Y0001137307D01*
D52*
X0002283858Y0001061023D02*
X0002283858Y0001043307D01*
X0002211023Y0001061023D02*
X0002283858Y0001061023D01*
X0002110629Y0000753937D02*
X0002120472Y0000753937D01*
X0002110629Y0001061023D02*
X0002120472Y0001061023D01*
X0002211023Y0000753937D02*
X0002283858Y0000753937D01*
X0002283858Y0000753937D02*
X0002283858Y0000771653D01*
X0002305511Y0000974409D02*
X0002305511Y0000956692D01*
X0002305511Y0000974409D02*
X0002287795Y0000974409D01*
X0002455905Y0000982677D02*
X0002455905Y0000946062D01*
X0002455905Y0000858267D02*
X0002455905Y0000894881D01*
X0002455905Y0000858267D02*
X0002540944Y0000858267D01*
X0002455905Y0000982677D02*
X0002513385Y0000982677D01*
X0002451574Y0001022440D02*
X0002522440Y0001022440D01*
X0002522440Y0001149212D02*
X0002425984Y0001149212D01*
X0002344094Y0001076377D02*
X0002344094Y0001115748D01*
X0002397637Y0001115748D02*
X0002397637Y0001076377D01*
X0002397637Y0000989763D02*
X0002397637Y0000950393D01*
X0002344094Y0000950393D02*
X0002344094Y0000989763D01*
X0002253149Y0001141732D02*
X0002292519Y0001141732D01*
X0002292519Y0001088188D02*
X0002253149Y0001088188D01*
X0002397637Y0000868110D02*
X0002397637Y0000828740D01*
X0002344094Y0000828740D02*
X0002344094Y0000868110D01*
X0002344094Y0000702362D02*
X0002344094Y0000741732D01*
X0002397637Y0000741732D02*
X0002397637Y0000702362D01*
X0002481496Y0000740157D02*
X0002520866Y0000740157D01*
X0002520866Y0000686614D02*
X0002481496Y0000686614D01*
X0002481496Y0000826377D02*
X0002520866Y0000826377D01*
X0002520866Y0000772834D02*
X0002481496Y0000772834D01*
D51*
X0002336707Y0001052230D02*
X0002317960Y0001041732D01*
X0002336707Y0001034233D02*
X0002297337Y0001034233D01*
X0002297337Y0001046231D01*
X0002299212Y0001049231D01*
X0002301087Y0001050731D01*
X0002304836Y0001052230D01*
X0002310461Y0001052230D01*
X0002314210Y0001050731D01*
X0002316085Y0001049231D01*
X0002317960Y0001046231D01*
X0002317960Y0001034233D01*
X0002301087Y0001064229D02*
X0002299212Y0001065729D01*
X0002297337Y0001068728D01*
X0002297337Y0001076227D01*
X0002299212Y0001079227D01*
X0002301087Y0001080727D01*
X0002304836Y0001082227D01*
X0002308586Y0001082227D01*
X0002314210Y0001080727D01*
X0002336707Y0001062729D01*
X0002336707Y0001082227D01*
X0002444188Y0000988451D02*
X0002425440Y0000977952D01*
X0002444188Y0000970453D02*
X0002404818Y0000970453D01*
X0002404818Y0000982452D01*
X0002406692Y0000985451D01*
X0002408567Y0000986951D01*
X0002412317Y0000988451D01*
X0002417941Y0000988451D01*
X0002421691Y0000986951D01*
X0002423565Y0000985451D01*
X0002425440Y0000982452D01*
X0002425440Y0000970453D01*
X0002444188Y0001018447D02*
X0002444188Y0001000449D01*
X0002444188Y0001009448D02*
X0002404818Y0001009448D01*
X0002410442Y0001006449D01*
X0002414191Y0001003449D01*
X0002416066Y0001000449D01*
X0002215841Y0001111679D02*
X0002197094Y0001101181D01*
X0002215841Y0001093682D02*
X0002176471Y0001093682D01*
X0002176471Y0001105680D01*
X0002178346Y0001108680D01*
X0002180221Y0001110180D01*
X0002183970Y0001111679D01*
X0002189595Y0001111679D01*
X0002193344Y0001110180D01*
X0002195219Y0001108680D01*
X0002197094Y0001105680D01*
X0002197094Y0001093682D01*
X0002176471Y0001122178D02*
X0002176471Y0001141676D01*
X0002191469Y0001131177D01*
X0002191469Y0001135676D01*
X0002193344Y0001138676D01*
X0002195219Y0001140176D01*
X0002198968Y0001141676D01*
X0002208342Y0001141676D01*
X0002212092Y0001140176D01*
X0002213967Y0001138676D01*
X0002215841Y0001135676D01*
X0002215841Y0001126677D01*
X0002213967Y0001123678D01*
X0002212092Y0001122178D01*
X0002343007Y0000840813D02*
X0002324259Y0000830314D01*
X0002343007Y0000822815D02*
X0002303637Y0000822815D01*
X0002303637Y0000834814D01*
X0002305511Y0000837814D01*
X0002307386Y0000839313D01*
X0002311136Y0000840813D01*
X0002316760Y0000840813D01*
X0002320509Y0000839313D01*
X0002322384Y0000837814D01*
X0002324259Y0000834814D01*
X0002324259Y0000822815D01*
X0002316760Y0000867810D02*
X0002343007Y0000867810D01*
X0002301762Y0000860311D02*
X0002329883Y0000852812D01*
X0002329883Y0000872309D01*
X0002336314Y0000692388D02*
X0002317566Y0000681889D01*
X0002336314Y0000674390D02*
X0002296944Y0000674390D01*
X0002296944Y0000686389D01*
X0002298818Y0000689388D01*
X0002300693Y0000690888D01*
X0002304443Y0000692388D01*
X0002310067Y0000692388D01*
X0002313817Y0000690888D01*
X0002315691Y0000689388D01*
X0002317566Y0000686389D01*
X0002317566Y0000674390D01*
X0002296944Y0000720884D02*
X0002296944Y0000705886D01*
X0002315691Y0000704386D01*
X0002313817Y0000705886D01*
X0002311942Y0000708886D01*
X0002311942Y0000716385D01*
X0002313817Y0000719385D01*
X0002315691Y0000720884D01*
X0002319441Y0000722384D01*
X0002328815Y0000722384D01*
X0002332564Y0000720884D01*
X0002334439Y0000719385D01*
X0002336314Y0000716385D01*
X0002336314Y0000708886D01*
X0002334439Y0000705886D01*
X0002332564Y0000704386D01*
X0002446944Y0000708530D02*
X0002428196Y0000698031D01*
X0002446944Y0000690532D02*
X0002407574Y0000690532D01*
X0002407574Y0000702530D01*
X0002409448Y0000705530D01*
X0002411323Y0000707030D01*
X0002415073Y0000708530D01*
X0002420697Y0000708530D01*
X0002424446Y0000707030D01*
X0002426321Y0000705530D01*
X0002428196Y0000702530D01*
X0002428196Y0000690532D01*
X0002407574Y0000735526D02*
X0002407574Y0000729527D01*
X0002409448Y0000726527D01*
X0002411323Y0000725028D01*
X0002416947Y0000722028D01*
X0002424446Y0000720528D01*
X0002439445Y0000720528D01*
X0002443194Y0000722028D01*
X0002445069Y0000723528D01*
X0002446944Y0000726527D01*
X0002446944Y0000732527D01*
X0002445069Y0000735526D01*
X0002443194Y0000737026D01*
X0002439445Y0000738526D01*
X0002430071Y0000738526D01*
X0002426321Y0000737026D01*
X0002424446Y0000735526D01*
X0002422572Y0000732527D01*
X0002422572Y0000726527D01*
X0002424446Y0000723528D01*
X0002426321Y0000722028D01*
X0002430071Y0000720528D01*
X0002446156Y0000799081D02*
X0002427409Y0000788582D01*
X0002446156Y0000781083D02*
X0002406786Y0000781083D01*
X0002406786Y0000793082D01*
X0002408661Y0000796081D01*
X0002410536Y0000797581D01*
X0002414285Y0000799081D01*
X0002419910Y0000799081D01*
X0002423659Y0000797581D01*
X0002425534Y0000796081D01*
X0002427409Y0000793082D01*
X0002427409Y0000781083D01*
X0002406786Y0000809580D02*
X0002406786Y0000830577D01*
X0002446156Y0000817079D01*
G04 next file*
G04 Gerber Fmt 4.6, Leading zero omitted, Abs format (unit mm)*
G04 Created by KiCad (PCBNEW 4.0.7) date 11/16/17 17:14:57*
G01G01*
G04 APERTURE LIST*
G04 APERTURE END LIST*
D53*
D54*
X0002562598Y0000173603D02*
X0002560723Y0000170603D01*
X0002560723Y0000166104D01*
X0002562598Y0000161604D01*
X0002566347Y0000158605D01*
X0002570097Y0000157105D01*
X0002577596Y0000155605D01*
X0002583220Y0000155605D01*
X0002590719Y0000157105D01*
X0002594469Y0000158605D01*
X0002598218Y0000161604D01*
X0002600093Y0000166104D01*
X0002600093Y0000169103D01*
X0002598218Y0000173603D01*
X0002596344Y0000175103D01*
X0002583220Y0000175103D01*
X0002583220Y0000169103D01*
X0002579471Y0000211548D02*
X0002579471Y0000222047D01*
X0002600093Y0000226546D02*
X0002600093Y0000211548D01*
X0002560723Y0000211548D01*
X0002560723Y0000226546D01*
X0002600093Y0000240044D02*
X0002560723Y0000240044D01*
X0002600093Y0000258042D01*
X0002560723Y0000258042D01*
X0002560723Y0000273040D02*
X0002592594Y0000273040D01*
X0002596344Y0000274540D01*
X0002598218Y0000276040D01*
X0002600093Y0000279040D01*
X0002600093Y0000285039D01*
X0002598218Y0000288038D01*
X0002596344Y0000289538D01*
X0002592594Y0000291038D01*
X0002560723Y0000291038D01*
X0002600093Y0000306036D02*
X0002560723Y0000306036D01*
X0002588845Y0000316535D01*
X0002560723Y0000327034D01*
X0002600093Y0000327034D01*
X0002599306Y0000355324D02*
X0002559936Y0000355324D01*
X0002559936Y0000362823D01*
X0002561810Y0000367322D01*
X0002565560Y0000370322D01*
X0002569310Y0000371822D01*
X0002576809Y0000373322D01*
X0002582433Y0000373322D01*
X0002589932Y0000371822D01*
X0002593682Y0000370322D01*
X0002597431Y0000367322D01*
X0002599306Y0000362823D01*
X0002599306Y0000355324D01*
X0002584308Y0000386820D02*
X0002584308Y0000410817D01*
X0002599306Y0000398818D02*
X0002569310Y0000398818D01*
X0002600881Y0000441938D02*
X0002561511Y0000441938D01*
X0002561511Y0000449437D01*
X0002563385Y0000453937D01*
X0002567135Y0000456936D01*
X0002570884Y0000458436D01*
X0002578383Y0000459936D01*
X0002584008Y0000459936D01*
X0002591507Y0000458436D01*
X0002595256Y0000456936D01*
X0002599006Y0000453937D01*
X0002600881Y0000449437D01*
X0002600881Y0000441938D01*
X0002585882Y0000473434D02*
X0002585882Y0000497431D01*
X0002559148Y0000564473D02*
X0002559148Y0000549475D01*
X0002577896Y0000547975D01*
X0002576021Y0000549475D01*
X0002574146Y0000552474D01*
X0002574146Y0000559973D01*
X0002576021Y0000562973D01*
X0002577896Y0000564473D01*
X0002581646Y0000565973D01*
X0002591019Y0000565973D01*
X0002594769Y0000564473D01*
X0002596644Y0000562973D01*
X0002598518Y0000559973D01*
X0002598518Y0000552474D01*
X0002596644Y0000549475D01*
X0002594769Y0000547975D01*
X0002559148Y0000574971D02*
X0002598518Y0000585470D01*
X0002559148Y0000595969D01*
D55*
X0002283858Y0000519685D02*
X0002283858Y0000501968D01*
X0002211023Y0000519685D02*
X0002283858Y0000519685D01*
X0002110629Y0000212598D02*
X0002120472Y0000212598D01*
X0002110629Y0000519685D02*
X0002120472Y0000519685D01*
X0002211023Y0000212598D02*
X0002283858Y0000212598D01*
X0002283858Y0000212598D02*
X0002283858Y0000230314D01*
X0002305511Y0000433070D02*
X0002305511Y0000415354D01*
X0002305511Y0000433070D02*
X0002287795Y0000433070D01*
X0002455905Y0000441338D02*
X0002455905Y0000404724D01*
X0002455905Y0000316929D02*
X0002455905Y0000353543D01*
X0002455905Y0000316929D02*
X0002540944Y0000316929D01*
X0002455905Y0000441338D02*
X0002513385Y0000441338D01*
X0002451574Y0000481102D02*
X0002522440Y0000481102D01*
X0002522440Y0000607874D02*
X0002425984Y0000607874D01*
X0002344094Y0000535039D02*
X0002344094Y0000574409D01*
X0002397637Y0000574409D02*
X0002397637Y0000535039D01*
X0002397637Y0000448425D02*
X0002397637Y0000409055D01*
X0002344094Y0000409055D02*
X0002344094Y0000448425D01*
X0002253149Y0000600393D02*
X0002292519Y0000600393D01*
X0002292519Y0000546850D02*
X0002253149Y0000546850D01*
X0002397637Y0000326771D02*
X0002397637Y0000287401D01*
X0002344094Y0000287401D02*
X0002344094Y0000326771D01*
X0002344094Y0000161023D02*
X0002344094Y0000200393D01*
X0002397637Y0000200393D02*
X0002397637Y0000161023D01*
X0002481496Y0000198818D02*
X0002520866Y0000198818D01*
X0002520866Y0000145275D02*
X0002481496Y0000145275D01*
X0002481496Y0000285039D02*
X0002520866Y0000285039D01*
X0002520866Y0000231496D02*
X0002481496Y0000231496D01*
D54*
X0002336707Y0000510892D02*
X0002317960Y0000500393D01*
X0002336707Y0000492894D02*
X0002297337Y0000492894D01*
X0002297337Y0000504893D01*
X0002299212Y0000507892D01*
X0002301087Y0000509392D01*
X0002304836Y0000510892D01*
X0002310461Y0000510892D01*
X0002314210Y0000509392D01*
X0002316085Y0000507892D01*
X0002317960Y0000504893D01*
X0002317960Y0000492894D01*
X0002301087Y0000522890D02*
X0002299212Y0000524390D01*
X0002297337Y0000527390D01*
X0002297337Y0000534889D01*
X0002299212Y0000537889D01*
X0002301087Y0000539388D01*
X0002304836Y0000540888D01*
X0002308586Y0000540888D01*
X0002314210Y0000539388D01*
X0002336707Y0000521391D01*
X0002336707Y0000540888D01*
X0002444188Y0000447112D02*
X0002425440Y0000436614D01*
X0002444188Y0000429115D02*
X0002404818Y0000429115D01*
X0002404818Y0000441113D01*
X0002406692Y0000444113D01*
X0002408567Y0000445613D01*
X0002412317Y0000447112D01*
X0002417941Y0000447112D01*
X0002421691Y0000445613D01*
X0002423565Y0000444113D01*
X0002425440Y0000441113D01*
X0002425440Y0000429115D01*
X0002444188Y0000477109D02*
X0002444188Y0000459111D01*
X0002444188Y0000468110D02*
X0002404818Y0000468110D01*
X0002410442Y0000465110D01*
X0002414191Y0000462110D01*
X0002416066Y0000459111D01*
X0002215841Y0000570341D02*
X0002197094Y0000559842D01*
X0002215841Y0000552343D02*
X0002176471Y0000552343D01*
X0002176471Y0000564341D01*
X0002178346Y0000567341D01*
X0002180221Y0000568841D01*
X0002183970Y0000570341D01*
X0002189595Y0000570341D01*
X0002193344Y0000568841D01*
X0002195219Y0000567341D01*
X0002197094Y0000564341D01*
X0002197094Y0000552343D01*
X0002176471Y0000580839D02*
X0002176471Y0000600337D01*
X0002191469Y0000589838D01*
X0002191469Y0000594338D01*
X0002193344Y0000597337D01*
X0002195219Y0000598837D01*
X0002198968Y0000600337D01*
X0002208342Y0000600337D01*
X0002212092Y0000598837D01*
X0002213967Y0000597337D01*
X0002215841Y0000594338D01*
X0002215841Y0000585339D01*
X0002213967Y0000582339D01*
X0002212092Y0000580839D01*
X0002343007Y0000299475D02*
X0002324259Y0000288976D01*
X0002343007Y0000281477D02*
X0002303637Y0000281477D01*
X0002303637Y0000293475D01*
X0002305511Y0000296475D01*
X0002307386Y0000297975D01*
X0002311136Y0000299475D01*
X0002316760Y0000299475D01*
X0002320509Y0000297975D01*
X0002322384Y0000296475D01*
X0002324259Y0000293475D01*
X0002324259Y0000281477D01*
X0002316760Y0000326471D02*
X0002343007Y0000326471D01*
X0002301762Y0000318972D02*
X0002329883Y0000311473D01*
X0002329883Y0000330971D01*
X0002336314Y0000151049D02*
X0002317566Y0000140551D01*
X0002336314Y0000133052D02*
X0002296944Y0000133052D01*
X0002296944Y0000145050D01*
X0002298818Y0000148050D01*
X0002300693Y0000149550D01*
X0002304443Y0000151049D01*
X0002310067Y0000151049D01*
X0002313817Y0000149550D01*
X0002315691Y0000148050D01*
X0002317566Y0000145050D01*
X0002317566Y0000133052D01*
X0002296944Y0000179546D02*
X0002296944Y0000164548D01*
X0002315691Y0000163048D01*
X0002313817Y0000164548D01*
X0002311942Y0000167547D01*
X0002311942Y0000175046D01*
X0002313817Y0000178046D01*
X0002315691Y0000179546D01*
X0002319441Y0000181046D01*
X0002328815Y0000181046D01*
X0002332564Y0000179546D01*
X0002334439Y0000178046D01*
X0002336314Y0000175046D01*
X0002336314Y0000167547D01*
X0002334439Y0000164548D01*
X0002332564Y0000163048D01*
X0002446944Y0000167191D02*
X0002428196Y0000156692D01*
X0002446944Y0000149193D02*
X0002407574Y0000149193D01*
X0002407574Y0000161192D01*
X0002409448Y0000164192D01*
X0002411323Y0000165691D01*
X0002415073Y0000167191D01*
X0002420697Y0000167191D01*
X0002424446Y0000165691D01*
X0002426321Y0000164192D01*
X0002428196Y0000161192D01*
X0002428196Y0000149193D01*
X0002407574Y0000194188D02*
X0002407574Y0000188188D01*
X0002409448Y0000185189D01*
X0002411323Y0000183689D01*
X0002416947Y0000180689D01*
X0002424446Y0000179190D01*
X0002439445Y0000179190D01*
X0002443194Y0000180689D01*
X0002445069Y0000182189D01*
X0002446944Y0000185189D01*
X0002446944Y0000191188D01*
X0002445069Y0000194188D01*
X0002443194Y0000195688D01*
X0002439445Y0000197187D01*
X0002430071Y0000197187D01*
X0002426321Y0000195688D01*
X0002424446Y0000194188D01*
X0002422572Y0000191188D01*
X0002422572Y0000185189D01*
X0002424446Y0000182189D01*
X0002426321Y0000180689D01*
X0002430071Y0000179190D01*
X0002446156Y0000257742D02*
X0002427409Y0000247244D01*
X0002446156Y0000239745D02*
X0002406786Y0000239745D01*
X0002406786Y0000251743D01*
X0002408661Y0000254743D01*
X0002410536Y0000256242D01*
X0002414285Y0000257742D01*
X0002419910Y0000257742D01*
X0002423659Y0000256242D01*
X0002425534Y0000254743D01*
X0002427409Y0000251743D01*
X0002427409Y0000239745D01*
X0002406786Y0000268241D02*
X0002406786Y0000289238D01*
X0002446156Y0000275740D01*
G04 next file*
G04 Gerber Fmt 4.6, Leading zero omitted, Abs format (unit mm)*
G04 Created by KiCad (PCBNEW 4.0.7) date 11/16/17 22:09:06*
G01G01*
G04 APERTURE LIST*
G04 APERTURE END LIST*
D56*
D57*
X0003074803Y0002163385D02*
X0003068897Y0002163385D01*
X0003074803Y0002145669D02*
X0003074803Y0002163385D01*
X0003074803Y0002145669D02*
X0003086614Y0002135826D01*
D58*
X0003181535Y0002532440D02*
X0003181535Y0002407440D01*
X0003181535Y0002407440D02*
X0003251535Y0002407440D01*
X0003251535Y0002407440D02*
X0003251535Y0002532440D01*
X0003001535Y0002532440D02*
X0003001535Y0002407440D01*
X0003001535Y0002407440D02*
X0003071535Y0002407440D01*
X0003071535Y0002407440D02*
X0003071535Y0002532440D01*
X0003261535Y0002772440D02*
X0003261535Y0002532440D01*
X0003261535Y0002532440D02*
X0002991535Y0002532440D01*
X0002991535Y0002532440D02*
X0002991535Y0002842440D01*
X0002991535Y0002847440D02*
X0003261535Y0002847440D01*
X0003261535Y0002842440D02*
X0003261535Y0002772440D01*
X0003661417Y0003334645D02*
X0003608267Y0003334645D01*
X0003377952Y0003334645D02*
X0003433070Y0003334645D01*
X0003480314Y0003340551D02*
X0003480314Y0003328740D01*
X0003559055Y0003340157D02*
X0003559055Y0003324803D01*
X0003480314Y0003492125D02*
X0003433070Y0003492125D01*
X0003606299Y0003492125D02*
X0003559055Y0003492125D01*
D59*
X0003680708Y0003408464D02*
G75*
G03G03X0003680708Y0003408464I-0000161023D01X0003680708Y0003408464I-0000161023D01*
G01G01*
X0003679133Y0003408464D02*
X0003360236Y0003408464D01*
X0003679133Y0003406889D02*
X0003360236Y0003406889D01*
X0003679133Y0003405314D02*
X0003360236Y0003405314D01*
X0003679094Y0003403740D02*
X0003360275Y0003403740D01*
X0003679015Y0003402165D02*
X0003360354Y0003402165D01*
X0003678976Y0003400590D02*
X0003360393Y0003400590D01*
X0003678858Y0003399015D02*
X0003360511Y0003399015D01*
X0003678779Y0003397440D02*
X0003558267Y0003397440D01*
X0003481102Y0003397440D02*
X0003360590Y0003397440D01*
X0003678661Y0003395866D02*
X0003558267Y0003395866D01*
X0003481102Y0003395866D02*
X0003360708Y0003395866D01*
X0003678543Y0003394291D02*
X0003558267Y0003394291D01*
X0003481102Y0003394291D02*
X0003360826Y0003394291D01*
X0003678385Y0003392716D02*
X0003558267Y0003392716D01*
X0003481102Y0003392716D02*
X0003360984Y0003392716D01*
X0003678228Y0003391141D02*
X0003558267Y0003391141D01*
X0003481102Y0003391141D02*
X0003361141Y0003391141D01*
X0003678031Y0003389566D02*
X0003558267Y0003389566D01*
X0003481102Y0003389566D02*
X0003361338Y0003389566D01*
X0003677834Y0003387992D02*
X0003558267Y0003387992D01*
X0003481102Y0003387992D02*
X0003361535Y0003387992D01*
X0003677637Y0003386417D02*
X0003558267Y0003386417D01*
X0003481102Y0003386417D02*
X0003361732Y0003386417D01*
X0003677401Y0003384842D02*
X0003558267Y0003384842D01*
X0003481102Y0003384842D02*
X0003361968Y0003384842D01*
X0003677165Y0003383267D02*
X0003558267Y0003383267D01*
X0003481102Y0003383267D02*
X0003362204Y0003383267D01*
X0003676929Y0003381692D02*
X0003558267Y0003381692D01*
X0003481102Y0003381692D02*
X0003362440Y0003381692D01*
X0003676653Y0003380078D02*
X0003558267Y0003380078D01*
X0003481102Y0003380078D02*
X0003362716Y0003380078D01*
X0003676338Y0003378503D02*
X0003558267Y0003378503D01*
X0003481102Y0003378503D02*
X0003363031Y0003378503D01*
X0003676023Y0003376929D02*
X0003558267Y0003376929D01*
X0003481102Y0003376929D02*
X0003363346Y0003376929D01*
X0003675708Y0003375354D02*
X0003558267Y0003375354D01*
X0003481102Y0003375354D02*
X0003363661Y0003375354D01*
X0003675393Y0003373779D02*
X0003558267Y0003373779D01*
X0003481102Y0003373779D02*
X0003363976Y0003373779D01*
X0003675039Y0003372204D02*
X0003558267Y0003372204D01*
X0003481102Y0003372204D02*
X0003364330Y0003372204D01*
X0003674645Y0003370629D02*
X0003558267Y0003370629D01*
X0003481102Y0003370629D02*
X0003364724Y0003370629D01*
X0003674251Y0003369055D02*
X0003558267Y0003369055D01*
X0003481102Y0003369055D02*
X0003365118Y0003369055D01*
X0003673858Y0003367480D02*
X0003558267Y0003367480D01*
X0003481102Y0003367480D02*
X0003365511Y0003367480D01*
X0003673425Y0003365905D02*
X0003558267Y0003365905D01*
X0003481102Y0003365905D02*
X0003365944Y0003365905D01*
X0003672992Y0003364330D02*
X0003558267Y0003364330D01*
X0003481102Y0003364330D02*
X0003366377Y0003364330D01*
X0003672559Y0003362755D02*
X0003558267Y0003362755D01*
X0003481102Y0003362755D02*
X0003366811Y0003362755D01*
X0003672047Y0003361181D02*
X0003558267Y0003361181D01*
X0003481102Y0003361181D02*
X0003367322Y0003361181D01*
X0003671574Y0003359606D02*
X0003558267Y0003359606D01*
X0003481102Y0003359606D02*
X0003367795Y0003359606D01*
X0003671062Y0003358031D02*
X0003558267Y0003358031D01*
X0003481102Y0003358031D02*
X0003368307Y0003358031D01*
X0003670551Y0003356456D02*
X0003558267Y0003356456D01*
X0003481102Y0003356456D02*
X0003368818Y0003356456D01*
X0003670000Y0003354881D02*
X0003558267Y0003354881D01*
X0003481102Y0003354881D02*
X0003369370Y0003354881D01*
X0003669409Y0003353307D02*
X0003558267Y0003353307D01*
X0003481102Y0003353307D02*
X0003369960Y0003353307D01*
X0003668858Y0003351732D02*
X0003558267Y0003351732D01*
X0003481102Y0003351732D02*
X0003370511Y0003351732D01*
X0003668228Y0003350157D02*
X0003558267Y0003350157D01*
X0003481102Y0003350157D02*
X0003371141Y0003350157D01*
X0003667637Y0003348582D02*
X0003558267Y0003348582D01*
X0003481102Y0003348582D02*
X0003371732Y0003348582D01*
X0003666968Y0003347007D02*
X0003558267Y0003347007D01*
X0003481102Y0003347007D02*
X0003372401Y0003347007D01*
X0003666338Y0003345433D02*
X0003558267Y0003345433D01*
X0003481102Y0003345433D02*
X0003373031Y0003345433D01*
X0003665629Y0003343858D02*
X0003558267Y0003343858D01*
X0003481102Y0003343858D02*
X0003373740Y0003343858D01*
X0003664960Y0003342283D02*
X0003558267Y0003342283D01*
X0003481102Y0003342283D02*
X0003374409Y0003342283D01*
X0003664212Y0003340708D02*
X0003558267Y0003340708D01*
X0003481102Y0003340708D02*
X0003375157Y0003340708D01*
X0003663464Y0003339133D02*
X0003558267Y0003339133D01*
X0003481102Y0003339133D02*
X0003375905Y0003339133D01*
X0003658582Y0003329685D02*
X0003558267Y0003329685D01*
X0003481102Y0003329685D02*
X0003380787Y0003329685D01*
X0003657677Y0003328110D02*
X0003558267Y0003328110D01*
X0003481102Y0003328110D02*
X0003381692Y0003328110D01*
X0003656771Y0003326535D02*
X0003558267Y0003326535D01*
X0003481102Y0003326535D02*
X0003382598Y0003326535D01*
X0003655826Y0003324960D02*
X0003558267Y0003324960D01*
X0003481102Y0003324960D02*
X0003383543Y0003324960D01*
X0003654881Y0003323385D02*
X0003558267Y0003323385D01*
X0003481102Y0003323385D02*
X0003384488Y0003323385D01*
X0003653858Y0003321811D02*
X0003558267Y0003321811D01*
X0003481102Y0003321811D02*
X0003385511Y0003321811D01*
X0003652874Y0003320236D02*
X0003386496Y0003320236D01*
X0003651811Y0003318661D02*
X0003387559Y0003318661D01*
X0003650748Y0003317086D02*
X0003388622Y0003317086D01*
X0003649645Y0003315511D02*
X0003389724Y0003315511D01*
X0003648503Y0003313937D02*
X0003390866Y0003313937D01*
X0003647362Y0003312362D02*
X0003392007Y0003312362D01*
X0003646181Y0003310787D02*
X0003393188Y0003310787D01*
X0003644960Y0003309212D02*
X0003394409Y0003309212D01*
X0003643700Y0003307637D02*
X0003395669Y0003307637D01*
X0003642440Y0003306062D02*
X0003396929Y0003306062D01*
X0003641102Y0003304488D02*
X0003398267Y0003304488D01*
X0003639763Y0003302913D02*
X0003399606Y0003302913D01*
X0003638385Y0003301338D02*
X0003400984Y0003301338D01*
X0003636968Y0003299763D02*
X0003402401Y0003299763D01*
X0003635511Y0003298188D02*
X0003403858Y0003298188D01*
X0003634015Y0003296614D02*
X0003405354Y0003296614D01*
X0003632480Y0003295039D02*
X0003406889Y0003295039D01*
X0003630866Y0003293464D02*
X0003408503Y0003293464D01*
X0003629251Y0003291889D02*
X0003410118Y0003291889D01*
X0003627559Y0003290314D02*
X0003411811Y0003290314D01*
X0003625866Y0003288740D02*
X0003413503Y0003288740D01*
X0003624094Y0003287165D02*
X0003415275Y0003287165D01*
X0003622244Y0003285590D02*
X0003417125Y0003285590D01*
X0003620354Y0003284015D02*
X0003419015Y0003284015D01*
X0003618425Y0003282440D02*
X0003420944Y0003282440D01*
X0003616417Y0003280866D02*
X0003422952Y0003280866D01*
X0003614330Y0003279291D02*
X0003425039Y0003279291D01*
X0003612165Y0003277716D02*
X0003427204Y0003277716D01*
X0003609960Y0003276141D02*
X0003429409Y0003276141D01*
X0003607637Y0003274566D02*
X0003431732Y0003274566D01*
X0003605236Y0003272992D02*
X0003434133Y0003272992D01*
X0003602716Y0003271417D02*
X0003436653Y0003271417D01*
X0003600118Y0003269842D02*
X0003439251Y0003269842D01*
X0003597401Y0003268267D02*
X0003441968Y0003268267D01*
X0003594566Y0003266692D02*
X0003444803Y0003266692D01*
X0003591574Y0003265118D02*
X0003447795Y0003265118D01*
X0003588385Y0003263543D02*
X0003450984Y0003263543D01*
X0003585039Y0003261968D02*
X0003454330Y0003261968D01*
X0003581496Y0003260393D02*
X0003457874Y0003260393D01*
X0003577677Y0003258818D02*
X0003461692Y0003258818D01*
X0003573582Y0003257244D02*
X0003465787Y0003257244D01*
X0003569055Y0003255669D02*
X0003470314Y0003255669D01*
X0003564055Y0003254094D02*
X0003475314Y0003254094D01*
X0003558385Y0003252519D02*
X0003480984Y0003252519D01*
X0003551732Y0003250944D02*
X0003487637Y0003250944D01*
X0003543228Y0003249370D02*
X0003496141Y0003249370D01*
X0003529370Y0003247795D02*
X0003510000Y0003247795D01*
X0003577952Y0003545472D02*
X0003577952Y0003498228D01*
X0003603543Y0003521850D02*
X0003552362Y0003521850D01*
D58*
X0003301968Y0003525590D02*
X0003282283Y0003525590D01*
X0003301968Y0003505905D02*
X0003301968Y0003525590D01*
X0003301968Y0003190944D02*
X0003301968Y0003210629D01*
X0003282283Y0003190944D02*
X0003301968Y0003190944D01*
X0002987007Y0003190944D02*
X0003282283Y0003190944D01*
X0002967322Y0003505905D02*
X0002967322Y0003210629D01*
X0003282283Y0003525590D02*
X0002987007Y0003525590D01*
X0003301968Y0003210629D02*
X0003301968Y0003505905D01*
X0002967322Y0003505905D02*
X0002987007Y0003525590D01*
X0002967322Y0003210629D02*
X0002967322Y0003210629D01*
X0003229133Y0003295275D02*
X0003229133Y0003318897D01*
X0003000787Y0003295275D02*
X0003032283Y0003295275D01*
X0003016535Y0003279527D02*
X0003016535Y0003311023D01*
X0002967322Y0003210629D02*
X0002987007Y0003190944D01*
X0003672440Y0002074409D02*
X0003424409Y0002074409D01*
X0003424409Y0001720078D02*
X0003672440Y0001720078D01*
X0003672440Y0001720078D02*
X0003672440Y0002074409D01*
X0003424409Y0001720078D02*
X0003424409Y0002074409D01*
X0003004921Y0002939960D02*
X0003006889Y0002939960D01*
X0003004921Y0003103346D02*
X0003010629Y0003103346D01*
X0003207677Y0003103346D02*
X0003201968Y0003103346D01*
X0003207677Y0002939960D02*
X0003201968Y0002939960D01*
X0003004921Y0002939960D02*
X0003004921Y0003103346D01*
X0003207677Y0002939960D02*
X0003207677Y0003103346D01*
X0003006889Y0002939960D02*
X0003006889Y0002884842D01*
X0003300393Y0002728346D02*
X0003784645Y0002728346D01*
X0003300393Y0003212598D02*
X0003300393Y0002728346D01*
X0003784645Y0003212598D02*
X0003300393Y0003212598D01*
X0003784645Y0002728346D02*
X0003784645Y0003212598D01*
D59*
X0003288582Y0002352755D02*
X0003251968Y0002352755D01*
X0003164173Y0002352755D02*
X0003200787Y0002352755D01*
X0003164173Y0002352755D02*
X0003164173Y0002267716D01*
X0003288582Y0002352755D02*
X0003288582Y0002295275D01*
X0003521653Y0002641732D02*
X0003521653Y0002562992D01*
X0003521653Y0002562992D02*
X0003675196Y0002562992D01*
X0003521653Y0002641732D02*
X0003675196Y0002641732D01*
X0003490157Y0002478346D02*
X0003490157Y0002348425D01*
X0003490157Y0002348425D02*
X0003702755Y0002348425D01*
X0003490157Y0002478346D02*
X0003702755Y0002478346D01*
X0003013779Y0002192913D02*
X0003013779Y0002220472D01*
X0003061023Y0002220472D02*
X0003061023Y0002192913D01*
X0002933070Y0002194881D02*
X0002933070Y0002222440D01*
X0002980314Y0002222440D02*
X0002980314Y0002194881D01*
X0002933858Y0002315944D02*
X0002933858Y0002355314D01*
X0002987401Y0002355314D02*
X0002987401Y0002315944D01*
X0003144881Y0002355314D02*
X0003144881Y0002315944D01*
X0003091338Y0002315944D02*
X0003091338Y0002355314D01*
X0003012598Y0002315944D02*
X0003012598Y0002355314D01*
X0003066141Y0002355314D02*
X0003066141Y0002315944D01*
X0002983858Y0002127165D02*
X0002983858Y0002090551D01*
X0002983858Y0002002755D02*
X0002983858Y0002039370D01*
X0002983858Y0002002755D02*
X0003068897Y0002002755D01*
X0002983858Y0002127165D02*
X0003041338Y0002127165D01*
X0003144881Y0002216535D02*
X0003144881Y0002177165D01*
X0003091338Y0002177165D02*
X0003091338Y0002216535D01*
X0003233070Y0002177165D02*
X0003233070Y0002216535D01*
X0003286614Y0002216535D02*
X0003286614Y0002177165D01*
X0003255118Y0002094881D02*
X0003218503Y0002094881D01*
X0003130708Y0002094881D02*
X0003167322Y0002094881D01*
X0003130708Y0002094881D02*
X0003130708Y0002009842D01*
X0003255118Y0002094881D02*
X0003255118Y0002037401D01*
D57*
X0002984861Y0002815710D02*
X0002983267Y0002812523D01*
X0002980080Y0002809336D01*
X0002975299Y0002804555D01*
X0002973706Y0002801368D01*
X0002973706Y0002798181D01*
X0002981674Y0002799775D02*
X0002980080Y0002796587D01*
X0002976893Y0002793400D01*
X0002970519Y0002791807D01*
X0002959364Y0002791807D01*
X0002952990Y0002793400D01*
X0002949803Y0002796587D01*
X0002948209Y0002799775D01*
X0002948209Y0002806149D01*
X0002949803Y0002809336D01*
X0002952990Y0002812523D01*
X0002959364Y0002814116D01*
X0002970519Y0002814116D01*
X0002976893Y0002812523D01*
X0002980080Y0002809336D01*
X0002981674Y0002806149D01*
X0002981674Y0002799775D01*
X0002951396Y0002826865D02*
X0002949803Y0002828458D01*
X0002948209Y0002831646D01*
X0002948209Y0002839613D01*
X0002949803Y0002842800D01*
X0002951396Y0002844394D01*
X0002954583Y0002845987D01*
X0002957770Y0002845987D01*
X0002962551Y0002844394D01*
X0002981674Y0002825271D01*
X0002981674Y0002845987D01*
X0003730249Y0003392379D02*
X0003728655Y0003390785D01*
X0003723875Y0003389191D01*
X0003720688Y0003389191D01*
X0003715907Y0003390785D01*
X0003712720Y0003393972D01*
X0003711126Y0003397159D01*
X0003709533Y0003403533D01*
X0003709533Y0003408314D01*
X0003711126Y0003414688D01*
X0003712720Y0003417875D01*
X0003715907Y0003421062D01*
X0003720688Y0003422656D01*
X0003723875Y0003422656D01*
X0003728655Y0003421062D01*
X0003730249Y0003419469D01*
X0003758933Y0003411501D02*
X0003758933Y0003389191D01*
X0003750965Y0003424250D02*
X0003742997Y0003400346D01*
X0003763713Y0003400346D01*
X0003270013Y0003547103D02*
X0003268419Y0003545509D01*
X0003263638Y0003543916D01*
X0003260451Y0003543916D01*
X0003255671Y0003545509D01*
X0003252484Y0003548697D01*
X0003250890Y0003551884D01*
X0003249296Y0003558258D01*
X0003249296Y0003563038D01*
X0003250890Y0003569413D01*
X0003252484Y0003572600D01*
X0003255671Y0003575787D01*
X0003260451Y0003577380D01*
X0003263638Y0003577380D01*
X0003268419Y0003575787D01*
X0003270013Y0003574193D01*
X0003282761Y0003574193D02*
X0003284355Y0003575787D01*
X0003287542Y0003577380D01*
X0003295509Y0003577380D01*
X0003298697Y0003575787D01*
X0003300290Y0003574193D01*
X0003301884Y0003571006D01*
X0003301884Y0003567819D01*
X0003300290Y0003563038D01*
X0003281167Y0003543916D01*
X0003301884Y0003543916D01*
X0003695350Y0002061632D02*
X0003695350Y0002037729D01*
X0003693757Y0002032949D01*
X0003690569Y0002029761D01*
X0003685789Y0002028168D01*
X0003682602Y0002028168D01*
X0003728815Y0002028168D02*
X0003709692Y0002028168D01*
X0003719253Y0002028168D02*
X0003719253Y0002061632D01*
X0003716066Y0002056852D01*
X0003712879Y0002053665D01*
X0003709692Y0002052071D01*
X0003760686Y0002028168D02*
X0003741563Y0002028168D01*
X0003751124Y0002028168D02*
X0003751124Y0002061632D01*
X0003747937Y0002056852D01*
X0003744750Y0002053665D01*
X0003741563Y0002052071D01*
X0002950178Y0002996156D02*
X0002977268Y0002996156D01*
X0002980455Y0002997750D01*
X0002982049Y0002999343D01*
X0002983642Y0003002530D01*
X0002983642Y0003008905D01*
X0002982049Y0003012092D01*
X0002980455Y0003013685D01*
X0002977268Y0003015279D01*
X0002950178Y0003015279D01*
X0002983642Y0003048743D02*
X0002983642Y0003029621D01*
X0002983642Y0003039182D02*
X0002950178Y0003039182D01*
X0002954958Y0003035995D01*
X0002958145Y0003032808D01*
X0002959739Y0003029621D01*
X0003488517Y0002681711D02*
X0003472581Y0002681711D01*
X0003472581Y0002715176D01*
X0003517200Y0002681711D02*
X0003498078Y0002681711D01*
X0003507639Y0002681711D02*
X0003507639Y0002715176D01*
X0003504452Y0002710395D01*
X0003501265Y0002707208D01*
X0003498078Y0002705614D01*
X0003299821Y0002420041D02*
X0003298228Y0002416854D01*
X0003295041Y0002413667D01*
X0003290260Y0002408886D01*
X0003288667Y0002405699D01*
X0003288667Y0002402512D01*
X0003296634Y0002404105D02*
X0003295041Y0002400918D01*
X0003291854Y0002397731D01*
X0003285479Y0002396137D01*
X0003274325Y0002396137D01*
X0003267950Y0002397731D01*
X0003264763Y0002400918D01*
X0003263170Y0002404105D01*
X0003263170Y0002410479D01*
X0003264763Y0002413667D01*
X0003267950Y0002416854D01*
X0003274325Y0002418447D01*
X0003285479Y0002418447D01*
X0003291854Y0002416854D01*
X0003295041Y0002413667D01*
X0003296634Y0002410479D01*
X0003296634Y0002404105D01*
X0003296634Y0002450318D02*
X0003296634Y0002431196D01*
X0003296634Y0002440757D02*
X0003263170Y0002440757D01*
X0003267950Y0002437570D01*
X0003271137Y0002434383D01*
X0003272731Y0002431196D01*
X0003648528Y0002658089D02*
X0003648528Y0002691554D01*
X0003656496Y0002691554D01*
X0003661276Y0002689960D01*
X0003664463Y0002686773D01*
X0003666057Y0002683586D01*
X0003667650Y0002677212D01*
X0003667650Y0002672431D01*
X0003666057Y0002666057D01*
X0003664463Y0002662870D01*
X0003661276Y0002659683D01*
X0003656496Y0002658089D01*
X0003648528Y0002658089D01*
X0003699521Y0002658089D02*
X0003680399Y0002658089D01*
X0003689960Y0002658089D02*
X0003689960Y0002691554D01*
X0003686773Y0002686773D01*
X0003683586Y0002683586D01*
X0003680399Y0002681992D01*
X0003599315Y0002496672D02*
X0003599315Y0002530136D01*
X0003607283Y0002530136D01*
X0003612064Y0002528543D01*
X0003615251Y0002525356D01*
X0003616844Y0002522169D01*
X0003618438Y0002515794D01*
X0003618438Y0002511014D01*
X0003616844Y0002504640D01*
X0003615251Y0002501452D01*
X0003612064Y0002498265D01*
X0003607283Y0002496672D01*
X0003599315Y0002496672D01*
X0003631186Y0002526949D02*
X0003632780Y0002528543D01*
X0003635967Y0002530136D01*
X0003643935Y0002530136D01*
X0003647122Y0002528543D01*
X0003648715Y0002526949D01*
X0003650309Y0002523762D01*
X0003650309Y0002520575D01*
X0003648715Y0002515794D01*
X0003629593Y0002496672D01*
X0003650309Y0002496672D01*
X0003112532Y0002110095D02*
X0003110939Y0002108502D01*
X0003106158Y0002106908D01*
X0003102971Y0002106908D01*
X0003098190Y0002108502D01*
X0003095003Y0002111689D01*
X0003093410Y0002114876D01*
X0003091816Y0002121250D01*
X0003091816Y0002126031D01*
X0003093410Y0002132405D01*
X0003095003Y0002135592D01*
X0003098190Y0002138779D01*
X0003102971Y0002140373D01*
X0003106158Y0002140373D01*
X0003110939Y0002138779D01*
X0003112532Y0002137185D01*
X0003144403Y0002106908D02*
X0003125281Y0002106908D01*
X0003134842Y0002106908D02*
X0003134842Y0002140373D01*
X0003131655Y0002135592D01*
X0003128468Y0002132405D01*
X0003125281Y0002130811D01*
X0002970613Y0002116469D02*
X0002972206Y0002114876D01*
X0002973800Y0002110095D01*
X0002973800Y0002106908D01*
X0002972206Y0002102127D01*
X0002969019Y0002098940D01*
X0002965832Y0002097347D01*
X0002959458Y0002095753D01*
X0002954677Y0002095753D01*
X0002948303Y0002097347D01*
X0002945116Y0002098940D01*
X0002941929Y0002102127D01*
X0002940335Y0002106908D01*
X0002940335Y0002110095D01*
X0002941929Y0002114876D01*
X0002943522Y0002116469D01*
X0002940335Y0002127624D02*
X0002940335Y0002148340D01*
X0002953083Y0002137185D01*
X0002953083Y0002141966D01*
X0002954677Y0002145153D01*
X0002956271Y0002146747D01*
X0002959458Y0002148340D01*
X0002967425Y0002148340D01*
X0002970613Y0002146747D01*
X0002972206Y0002145153D01*
X0002973800Y0002141966D01*
X0002973800Y0002132405D01*
X0002972206Y0002129218D01*
X0002970613Y0002127624D01*
X0002958989Y0002392341D02*
X0002947834Y0002408277D01*
X0002939866Y0002392341D02*
X0002939866Y0002425806D01*
X0002952615Y0002425806D01*
X0002955802Y0002424212D01*
X0002957395Y0002422619D01*
X0002958989Y0002419431D01*
X0002958989Y0002414651D01*
X0002957395Y0002411464D01*
X0002955802Y0002409870D01*
X0002952615Y0002408277D01*
X0002939866Y0002408277D01*
X0002990860Y0002392341D02*
X0002971737Y0002392341D01*
X0002981299Y0002392341D02*
X0002981299Y0002425806D01*
X0002978112Y0002421025D01*
X0002974925Y0002417838D01*
X0002971737Y0002416244D01*
X0003166713Y0002419619D02*
X0003150778Y0002408464D01*
X0003166713Y0002400496D02*
X0003133248Y0002400496D01*
X0003133248Y0002413245D01*
X0003134842Y0002416432D01*
X0003136436Y0002418025D01*
X0003139623Y0002419619D01*
X0003144403Y0002419619D01*
X0003147590Y0002418025D01*
X0003149184Y0002416432D01*
X0003150778Y0002413245D01*
X0003150778Y0002400496D01*
X0003136436Y0002432367D02*
X0003134842Y0002433961D01*
X0003133248Y0002437148D01*
X0003133248Y0002445116D01*
X0003134842Y0002448303D01*
X0003136436Y0002449896D01*
X0003139623Y0002451490D01*
X0003142810Y0002451490D01*
X0003147590Y0002449896D01*
X0003166713Y0002430774D01*
X0003166713Y0002451490D01*
X0003121437Y0002417650D02*
X0003105502Y0002406496D01*
X0003121437Y0002398528D02*
X0003087973Y0002398528D01*
X0003087973Y0002411276D01*
X0003089566Y0002414463D01*
X0003091160Y0002416057D01*
X0003094347Y0002417650D01*
X0003099128Y0002417650D01*
X0003102315Y0002416057D01*
X0003103908Y0002414463D01*
X0003105502Y0002411276D01*
X0003105502Y0002398528D01*
X0003087973Y0002428805D02*
X0003087973Y0002449521D01*
X0003100721Y0002438367D01*
X0003100721Y0002443147D01*
X0003102315Y0002446334D01*
X0003103908Y0002447928D01*
X0003107095Y0002449521D01*
X0003115063Y0002449521D01*
X0003118250Y0002447928D01*
X0003119844Y0002446334D01*
X0003121437Y0002443147D01*
X0003121437Y0002433586D01*
X0003119844Y0002430399D01*
X0003118250Y0002428805D01*
X0002971222Y0001952146D02*
X0002968035Y0001953740D01*
X0002964848Y0001956927D01*
X0002960067Y0001961707D01*
X0002956880Y0001963301D01*
X0002953693Y0001963301D01*
X0002955286Y0001955333D02*
X0002952099Y0001956927D01*
X0002948912Y0001960114D01*
X0002947319Y0001966488D01*
X0002947319Y0001977643D01*
X0002948912Y0001984017D01*
X0002952099Y0001987204D01*
X0002955286Y0001988798D01*
X0002961661Y0001988798D01*
X0002964848Y0001987204D01*
X0002968035Y0001984017D01*
X0002969628Y0001977643D01*
X0002969628Y0001966488D01*
X0002968035Y0001960114D01*
X0002964848Y0001956927D01*
X0002961661Y0001955333D01*
X0002955286Y0001955333D01*
X0002980783Y0001988798D02*
X0003001499Y0001988798D01*
X0002990344Y0001976049D01*
X0002995125Y0001976049D01*
X0002998312Y0001974456D01*
X0002999906Y0001972862D01*
X0003001499Y0001969675D01*
X0003001499Y0001961707D01*
X0002999906Y0001958520D01*
X0002998312Y0001956927D01*
X0002995125Y0001955333D01*
X0002985564Y0001955333D01*
X0002982377Y0001956927D01*
X0002980783Y0001958520D01*
X0003175524Y0002209270D02*
X0003164370Y0002225206D01*
X0003156402Y0002209270D02*
X0003156402Y0002242735D01*
X0003169150Y0002242735D01*
X0003172337Y0002241141D01*
X0003173931Y0002239548D01*
X0003175524Y0002236361D01*
X0003175524Y0002231580D01*
X0003173931Y0002228393D01*
X0003172337Y0002226799D01*
X0003169150Y0002225206D01*
X0003156402Y0002225206D01*
X0003204208Y0002231580D02*
X0003204208Y0002209270D01*
X0003196241Y0002244328D02*
X0003188273Y0002220425D01*
X0003208989Y0002220425D01*
X0003252296Y0002106908D02*
X0003241141Y0002122844D01*
X0003233173Y0002106908D02*
X0003233173Y0002140373D01*
X0003245922Y0002140373D01*
X0003249109Y0002138779D01*
X0003250703Y0002137185D01*
X0003252296Y0002133998D01*
X0003252296Y0002129218D01*
X0003250703Y0002126031D01*
X0003249109Y0002124437D01*
X0003245922Y0002122844D01*
X0003233173Y0002122844D01*
X0003282574Y0002140373D02*
X0003266638Y0002140373D01*
X0003265045Y0002124437D01*
X0003266638Y0002126031D01*
X0003269825Y0002127624D01*
X0003277793Y0002127624D01*
X0003280980Y0002126031D01*
X0003282574Y0002124437D01*
X0003284167Y0002121250D01*
X0003284167Y0002113282D01*
X0003282574Y0002110095D01*
X0003280980Y0002108502D01*
X0003277793Y0002106908D01*
X0003269825Y0002106908D01*
X0003266638Y0002108502D01*
X0003265045Y0002110095D01*
X0003297994Y0001997422D02*
X0003294806Y0001999015D01*
X0003291619Y0002002202D01*
X0003286839Y0002006983D01*
X0003283652Y0002008577D01*
X0003280464Y0002008577D01*
X0003282058Y0002000609D02*
X0003278871Y0002002202D01*
X0003275684Y0002005389D01*
X0003274090Y0002011764D01*
X0003274090Y0002022919D01*
X0003275684Y0002029293D01*
X0003278871Y0002032480D01*
X0003282058Y0002034073D01*
X0003288432Y0002034073D01*
X0003291619Y0002032480D01*
X0003294806Y0002029293D01*
X0003296400Y0002022919D01*
X0003296400Y0002011764D01*
X0003294806Y0002005389D01*
X0003291619Y0002002202D01*
X0003288432Y0002000609D01*
X0003282058Y0002000609D01*
X0003325084Y0002022919D02*
X0003325084Y0002000609D01*
X0003317116Y0002035667D02*
X0003309148Y0002011764D01*
X0003329865Y0002011764D01*
G04 next file*
G04 Gerber Fmt 4.6, Leading zero omitted, Abs format (unit mm)*
G04 Created by KiCad (PCBNEW 4.0.7) date 11/16/17 20:56:22*
G01G01*
G04 APERTURE LIST*
G04 APERTURE END LIST*
D60*
D61*
X0001965860Y0002106355D02*
X0001965860Y0002165410D01*
X0001985545Y0002123228D01*
X0002005230Y0002165410D01*
X0002005230Y0002106355D01*
X0002033352Y0002106355D02*
X0002033352Y0002165410D01*
X0002058661Y0002109167D02*
X0002067097Y0002106355D01*
X0002081158Y0002106355D01*
X0002086782Y0002109167D01*
X0002089595Y0002111979D01*
X0002092407Y0002117604D01*
X0002092407Y0002123228D01*
X0002089595Y0002128852D01*
X0002086782Y0002131664D01*
X0002081158Y0002134476D01*
X0002069910Y0002137289D01*
X0002064285Y0002140101D01*
X0002061473Y0002142913D01*
X0002058661Y0002148537D01*
X0002058661Y0002154161D01*
X0002061473Y0002159786D01*
X0002064285Y0002162598D01*
X0002069910Y0002165410D01*
X0002083970Y0002165410D01*
X0002092407Y0002162598D01*
X0002128965Y0002165410D02*
X0002140213Y0002165410D01*
X0002145838Y0002162598D01*
X0002151462Y0002156974D01*
X0002154274Y0002145725D01*
X0002154274Y0002126040D01*
X0002151462Y0002114791D01*
X0002145838Y0002109167D01*
X0002140213Y0002106355D01*
X0002128965Y0002106355D01*
X0002123340Y0002109167D01*
X0002117716Y0002114791D01*
X0002114904Y0002126040D01*
X0002114904Y0002145725D01*
X0002117716Y0002156974D01*
X0002123340Y0002162598D01*
X0002128965Y0002165410D01*
X0002593025Y0002092969D02*
X0002593025Y0002152024D01*
X0002612710Y0002109842D01*
X0002632395Y0002152024D01*
X0002632395Y0002092969D01*
X0002671766Y0002152024D02*
X0002683014Y0002152024D01*
X0002688638Y0002149212D01*
X0002694263Y0002143588D01*
X0002697075Y0002132339D01*
X0002697075Y0002112654D01*
X0002694263Y0002101406D01*
X0002688638Y0002095781D01*
X0002683014Y0002092969D01*
X0002671766Y0002092969D01*
X0002666141Y0002095781D01*
X0002660517Y0002101406D01*
X0002657705Y0002112654D01*
X0002657705Y0002132339D01*
X0002660517Y0002143588D01*
X0002666141Y0002149212D01*
X0002671766Y0002152024D01*
X0002719572Y0002095781D02*
X0002728009Y0002092969D01*
X0002742069Y0002092969D01*
X0002747694Y0002095781D01*
X0002750506Y0002098593D01*
X0002753318Y0002104218D01*
X0002753318Y0002109842D01*
X0002750506Y0002115466D01*
X0002747694Y0002118278D01*
X0002742069Y0002121091D01*
X0002730821Y0002123903D01*
X0002725196Y0002126715D01*
X0002722384Y0002129527D01*
X0002719572Y0002135151D01*
X0002719572Y0002140776D01*
X0002722384Y0002146400D01*
X0002725196Y0002149212D01*
X0002730821Y0002152024D01*
X0002744881Y0002152024D01*
X0002753318Y0002149212D01*
X0002778627Y0002092969D02*
X0002778627Y0002152024D01*
X0002300449Y0002202474D02*
X0002308886Y0002199662D01*
X0002322947Y0002199662D01*
X0002328571Y0002202474D01*
X0002331383Y0002205286D01*
X0002334195Y0002210911D01*
X0002334195Y0002216535D01*
X0002331383Y0002222159D01*
X0002328571Y0002224971D01*
X0002322947Y0002227784D01*
X0002311698Y0002230596D01*
X0002306074Y0002233408D01*
X0002303262Y0002236220D01*
X0002300449Y0002241844D01*
X0002300449Y0002247469D01*
X0002303262Y0002253093D01*
X0002306074Y0002255905D01*
X0002311698Y0002258717D01*
X0002325759Y0002258717D01*
X0002334195Y0002255905D01*
X0002393250Y0002205286D02*
X0002390438Y0002202474D01*
X0002382002Y0002199662D01*
X0002376377Y0002199662D01*
X0002367941Y0002202474D01*
X0002362317Y0002208098D01*
X0002359505Y0002213723D01*
X0002356692Y0002224971D01*
X0002356692Y0002233408D01*
X0002359505Y0002244656D01*
X0002362317Y0002250281D01*
X0002367941Y0002255905D01*
X0002376377Y0002258717D01*
X0002382002Y0002258717D01*
X0002390438Y0002255905D01*
X0002393250Y0002253093D01*
X0002418560Y0002199662D02*
X0002418560Y0002258717D01*
X0002452305Y0002199662D02*
X0002426996Y0002233408D01*
X0002452305Y0002258717D02*
X0002418560Y0002224971D01*
X0002323903Y0002357480D02*
X0002318278Y0002360292D01*
X0002309842Y0002360292D01*
X0002301406Y0002357480D01*
X0002295781Y0002351856D01*
X0002292969Y0002346231D01*
X0002290157Y0002334983D01*
X0002290157Y0002326546D01*
X0002292969Y0002315298D01*
X0002295781Y0002309673D01*
X0002301406Y0002304049D01*
X0002309842Y0002301237D01*
X0002315466Y0002301237D01*
X0002323903Y0002304049D01*
X0002326715Y0002306861D01*
X0002326715Y0002326546D01*
X0002315466Y0002326546D01*
X0002352024Y0002301237D02*
X0002352024Y0002360292D01*
X0002385770Y0002301237D01*
X0002385770Y0002360292D01*
X0002413892Y0002301237D02*
X0002413892Y0002360292D01*
X0002427952Y0002360292D01*
X0002436389Y0002357480D01*
X0002442013Y0002351856D01*
X0002444825Y0002346231D01*
X0002447637Y0002334983D01*
X0002447637Y0002326546D01*
X0002444825Y0002315298D01*
X0002442013Y0002309673D01*
X0002436389Y0002304049D01*
X0002427952Y0002301237D01*
X0002413892Y0002301237D01*
X0002247469Y0002400449D02*
X0002247469Y0002459505D01*
X0002269966Y0002459505D01*
X0002275590Y0002456692D01*
X0002278402Y0002453880D01*
X0002281214Y0002448256D01*
X0002281214Y0002439820D01*
X0002278402Y0002434195D01*
X0002275590Y0002431383D01*
X0002269966Y0002428571D01*
X0002247469Y0002428571D01*
X0002300899Y0002459505D02*
X0002314960Y0002400449D01*
X0002326209Y0002442632D01*
X0002337457Y0002400449D01*
X0002351518Y0002459505D01*
X0002407761Y0002400449D02*
X0002388076Y0002428571D01*
X0002374015Y0002400449D02*
X0002374015Y0002459505D01*
X0002396512Y0002459505D01*
X0002402137Y0002456692D01*
X0002404949Y0002453880D01*
X0002407761Y0002448256D01*
X0002407761Y0002439820D01*
X0002404949Y0002434195D01*
X0002402137Y0002431383D01*
X0002396512Y0002428571D01*
X0002374015Y0002428571D01*
X0002433070Y0002431383D02*
X0002452755Y0002431383D01*
X0002461192Y0002400449D02*
X0002433070Y0002400449D01*
X0002433070Y0002459505D01*
X0002461192Y0002459505D01*
X0002486501Y0002400449D02*
X0002486501Y0002459505D01*
X0002520247Y0002400449D01*
X0002520247Y0002459505D01*
X0002264173Y0002562654D02*
X0002283858Y0002503599D01*
X0002303543Y0002562654D01*
X0002323228Y0002503599D02*
X0002323228Y0002562654D01*
X0002337289Y0002562654D01*
X0002345725Y0002559842D01*
X0002351349Y0002554218D01*
X0002354161Y0002548593D01*
X0002356974Y0002537345D01*
X0002356974Y0002528908D01*
X0002354161Y0002517660D01*
X0002351349Y0002512035D01*
X0002345725Y0002506411D01*
X0002337289Y0002503599D01*
X0002323228Y0002503599D01*
X0002416029Y0002509223D02*
X0002413217Y0002506411D01*
X0002404780Y0002503599D01*
X0002399156Y0002503599D01*
X0002390719Y0002506411D01*
X0002385095Y0002512035D01*
X0002382283Y0002517660D01*
X0002379471Y0002528908D01*
X0002379471Y0002537345D01*
X0002382283Y0002548593D01*
X0002385095Y0002554218D01*
X0002390719Y0002559842D01*
X0002399156Y0002562654D01*
X0002404780Y0002562654D01*
X0002413217Y0002559842D01*
X0002416029Y0002557030D01*
X0002229752Y0002615073D02*
X0002238188Y0002612260D01*
X0002252249Y0002612260D01*
X0002257874Y0002615073D01*
X0002260686Y0002617885D01*
X0002263498Y0002623509D01*
X0002263498Y0002629133D01*
X0002260686Y0002634758D01*
X0002257874Y0002637570D01*
X0002252249Y0002640382D01*
X0002241001Y0002643194D01*
X0002235376Y0002646006D01*
X0002232564Y0002648818D01*
X0002229752Y0002654443D01*
X0002229752Y0002660067D01*
X0002232564Y0002665691D01*
X0002235376Y0002668503D01*
X0002241001Y0002671316D01*
X0002255061Y0002671316D01*
X0002263498Y0002668503D01*
X0002280371Y0002671316D02*
X0002314116Y0002671316D01*
X0002297244Y0002612260D02*
X0002297244Y0002671316D01*
X0002345050Y0002671316D02*
X0002356299Y0002671316D01*
X0002361923Y0002668503D01*
X0002367547Y0002662879D01*
X0002370359Y0002651631D01*
X0002370359Y0002631945D01*
X0002367547Y0002620697D01*
X0002361923Y0002615073D01*
X0002356299Y0002612260D01*
X0002345050Y0002612260D01*
X0002339426Y0002615073D01*
X0002333802Y0002620697D01*
X0002330989Y0002631945D01*
X0002330989Y0002651631D01*
X0002333802Y0002662879D01*
X0002339426Y0002668503D01*
X0002345050Y0002671316D01*
X0002429415Y0002612260D02*
X0002409730Y0002640382D01*
X0002395669Y0002612260D02*
X0002395669Y0002671316D01*
X0002418166Y0002671316D01*
X0002423790Y0002668503D01*
X0002426602Y0002665691D01*
X0002429415Y0002660067D01*
X0002429415Y0002651631D01*
X0002426602Y0002646006D01*
X0002423790Y0002643194D01*
X0002418166Y0002640382D01*
X0002395669Y0002640382D01*
X0002454724Y0002643194D02*
X0002474409Y0002643194D01*
X0002482845Y0002612260D02*
X0002454724Y0002612260D01*
X0002454724Y0002671316D01*
X0002482845Y0002671316D01*
D62*
X0002829921Y0003478740D02*
X0002829921Y0003467716D01*
X0002612598Y0003478740D02*
X0002829921Y0003478740D01*
D63*
X0002604061Y0003699378D02*
X0001737919Y0003699378D01*
X0002604061Y0002597015D02*
X0002604061Y0003699378D01*
X0001737919Y0002597015D02*
X0002604061Y0002597015D01*
X0001737919Y0003699378D02*
X0001737919Y0003613104D01*
X0001737919Y0003613104D02*
X0001737919Y0002597015D01*
X0002279527Y0003017716D02*
X0002275590Y0003017716D01*
X0002057086Y0003208661D02*
X0002057086Y0003204724D01*
X0002279527Y0003208661D02*
X0002057086Y0003208661D01*
X0002279527Y0003017716D02*
X0002279527Y0003017716D01*
X0002057086Y0003017716D02*
X0002275846Y0003017716D01*
X0002057086Y0003204724D02*
X0002057086Y0003017716D01*
X0002279527Y0003017716D02*
X0002279527Y0003208661D01*
X0002879921Y0003200787D02*
X0002879921Y0003456692D01*
X0002801181Y0003200787D02*
X0002879921Y0003200787D01*
X0002801181Y0003456692D02*
X0002801181Y0003200787D01*
X0002879921Y0003456692D02*
X0002801181Y0003456692D01*
X0002881889Y0002872047D02*
X0002881889Y0003127952D01*
X0002803149Y0002872047D02*
X0002881889Y0002872047D01*
X0002803149Y0003127952D02*
X0002803149Y0002872047D01*
X0002881889Y0003127952D02*
X0002803149Y0003127952D01*
D64*
X0002619385Y0002843916D02*
X0002619385Y0002816826D01*
X0002620978Y0002813638D01*
X0002622572Y0002812045D01*
X0002625759Y0002810451D01*
X0002632133Y0002810451D01*
X0002635320Y0002812045D01*
X0002636914Y0002813638D01*
X0002638507Y0002816826D01*
X0002638507Y0002843916D01*
X0002652849Y0002840729D02*
X0002654443Y0002842322D01*
X0002657630Y0002843916D01*
X0002665597Y0002843916D01*
X0002668785Y0002842322D01*
X0002670378Y0002840729D01*
X0002671972Y0002837542D01*
X0002671972Y0002834355D01*
X0002670378Y0002829574D01*
X0002651256Y0002810451D01*
X0002671972Y0002810451D01*
X0002200496Y0002953365D02*
X0002200496Y0002986829D01*
X0002208464Y0002986829D01*
X0002213245Y0002985236D01*
X0002216432Y0002982049D01*
X0002218025Y0002978862D01*
X0002219619Y0002972487D01*
X0002219619Y0002967707D01*
X0002218025Y0002961332D01*
X0002216432Y0002958145D01*
X0002213245Y0002954958D01*
X0002208464Y0002953365D01*
X0002200496Y0002953365D01*
X0002251490Y0002953365D02*
X0002232367Y0002953365D01*
X0002241929Y0002953365D02*
X0002241929Y0002986829D01*
X0002238742Y0002982049D01*
X0002235554Y0002978862D01*
X0002232367Y0002977268D01*
X0002806608Y0003487617D02*
X0002806608Y0003521081D01*
X0002825731Y0003487617D01*
X0002825731Y0003521081D01*
X0002841666Y0003505146D02*
X0002852821Y0003505146D01*
X0002857602Y0003487617D02*
X0002841666Y0003487617D01*
X0002841666Y0003521081D01*
X0002857602Y0003521081D01*
X0002870350Y0003517894D02*
X0002871944Y0003519488D01*
X0002875131Y0003521081D01*
X0002883098Y0003521081D01*
X0002886286Y0003519488D01*
X0002887879Y0003517894D01*
X0002889473Y0003514707D01*
X0002889473Y0003511520D01*
X0002887879Y0003506739D01*
X0002868757Y0003487617D01*
X0002889473Y0003487617D01*
X0002809364Y0003147065D02*
X0002809364Y0003180530D01*
X0002828487Y0003147065D01*
X0002828487Y0003180530D01*
X0002844422Y0003164595D02*
X0002855577Y0003164595D01*
X0002860358Y0003147065D02*
X0002844422Y0003147065D01*
X0002844422Y0003180530D01*
X0002860358Y0003180530D01*
X0002892229Y0003147065D02*
X0002873106Y0003147065D01*
X0002882667Y0003147065D02*
X0002882667Y0003180530D01*
X0002879480Y0003175749D01*
X0002876293Y0003172562D01*
X0002873106Y0003170969D01*
G04 next file*
G04 Gerber Fmt 4.6, Leading zero omitted, Abs format (unit mm)*
G04 Created by KiCad (PCBNEW 4.0.7) date 11/16/17 21:01:15*
G01G01*
G04 APERTURE LIST*
G04 APERTURE END LIST*
D65*
D66*
X0000556805Y0002101237D02*
X0000556805Y0002160292D01*
X0000576490Y0002118110D01*
X0000596175Y0002160292D01*
X0000596175Y0002101237D01*
X0000624296Y0002101237D02*
X0000624296Y0002160292D01*
X0000649606Y0002104049D02*
X0000658042Y0002101237D01*
X0000672103Y0002101237D01*
X0000677727Y0002104049D01*
X0000680539Y0002106861D01*
X0000683352Y0002112485D01*
X0000683352Y0002118110D01*
X0000680539Y0002123734D01*
X0000677727Y0002126546D01*
X0000672103Y0002129358D01*
X0000660854Y0002132170D01*
X0000655230Y0002134983D01*
X0000652418Y0002137795D01*
X0000649606Y0002143419D01*
X0000649606Y0002149043D01*
X0000652418Y0002154668D01*
X0000655230Y0002157480D01*
X0000660854Y0002160292D01*
X0000674915Y0002160292D01*
X0000683352Y0002157480D01*
X0000719909Y0002160292D02*
X0000731158Y0002160292D01*
X0000736782Y0002157480D01*
X0000742407Y0002151856D01*
X0000745219Y0002140607D01*
X0000745219Y0002120922D01*
X0000742407Y0002109673D01*
X0000736782Y0002104049D01*
X0000731158Y0002101237D01*
X0000719909Y0002101237D01*
X0000714285Y0002104049D01*
X0000708661Y0002109673D01*
X0000705849Y0002120922D01*
X0000705849Y0002140607D01*
X0000708661Y0002151856D01*
X0000714285Y0002157480D01*
X0000719909Y0002160292D01*
X0001097356Y0002091788D02*
X0001097356Y0002150843D01*
X0001117041Y0002108661D01*
X0001136726Y0002150843D01*
X0001136726Y0002091788D01*
X0001176096Y0002150843D02*
X0001187345Y0002150843D01*
X0001192969Y0002148031D01*
X0001198593Y0002142407D01*
X0001201406Y0002131158D01*
X0001201406Y0002111473D01*
X0001198593Y0002100224D01*
X0001192969Y0002094600D01*
X0001187345Y0002091788D01*
X0001176096Y0002091788D01*
X0001170472Y0002094600D01*
X0001164848Y0002100224D01*
X0001162035Y0002111473D01*
X0001162035Y0002131158D01*
X0001164848Y0002142407D01*
X0001170472Y0002148031D01*
X0001176096Y0002150843D01*
X0001223903Y0002094600D02*
X0001232339Y0002091788D01*
X0001246400Y0002091788D01*
X0001252024Y0002094600D01*
X0001254836Y0002097412D01*
X0001257649Y0002103037D01*
X0001257649Y0002108661D01*
X0001254836Y0002114285D01*
X0001252024Y0002117097D01*
X0001246400Y0002119910D01*
X0001235151Y0002122722D01*
X0001229527Y0002125534D01*
X0001226715Y0002128346D01*
X0001223903Y0002133970D01*
X0001223903Y0002139595D01*
X0001226715Y0002145219D01*
X0001229527Y0002148031D01*
X0001235151Y0002150843D01*
X0001249212Y0002150843D01*
X0001257649Y0002148031D01*
X0001282958Y0002091788D02*
X0001282958Y0002150843D01*
X0000816197Y0002212317D02*
X0000824634Y0002209505D01*
X0000838695Y0002209505D01*
X0000844319Y0002212317D01*
X0000847131Y0002215129D01*
X0000849943Y0002220753D01*
X0000849943Y0002226377D01*
X0000847131Y0002232002D01*
X0000844319Y0002234814D01*
X0000838695Y0002237626D01*
X0000827446Y0002240438D01*
X0000821822Y0002243250D01*
X0000819010Y0002246062D01*
X0000816197Y0002251687D01*
X0000816197Y0002257311D01*
X0000819010Y0002262935D01*
X0000821822Y0002265748D01*
X0000827446Y0002268560D01*
X0000841507Y0002268560D01*
X0000849943Y0002265748D01*
X0000908998Y0002215129D02*
X0000906186Y0002212317D01*
X0000897750Y0002209505D01*
X0000892125Y0002209505D01*
X0000883689Y0002212317D01*
X0000878065Y0002217941D01*
X0000875253Y0002223565D01*
X0000872440Y0002234814D01*
X0000872440Y0002243250D01*
X0000875253Y0002254499D01*
X0000878065Y0002260123D01*
X0000883689Y0002265748D01*
X0000892125Y0002268560D01*
X0000897750Y0002268560D01*
X0000906186Y0002265748D01*
X0000908998Y0002262935D01*
X0000934308Y0002209505D02*
X0000934308Y0002268560D01*
X0000968054Y0002209505D02*
X0000942744Y0002243250D01*
X0000968054Y0002268560D02*
X0000934308Y0002234814D01*
X0000847131Y0002360629D02*
X0000841507Y0002363442D01*
X0000833070Y0002363442D01*
X0000824634Y0002360629D01*
X0000819010Y0002355005D01*
X0000816197Y0002349381D01*
X0000813385Y0002338132D01*
X0000813385Y0002329696D01*
X0000816197Y0002318447D01*
X0000819010Y0002312823D01*
X0000824634Y0002307199D01*
X0000833070Y0002304386D01*
X0000838695Y0002304386D01*
X0000847131Y0002307199D01*
X0000849943Y0002310011D01*
X0000849943Y0002329696D01*
X0000838695Y0002329696D01*
X0000875253Y0002304386D02*
X0000875253Y0002363442D01*
X0000908998Y0002304386D01*
X0000908998Y0002363442D01*
X0000937120Y0002304386D02*
X0000937120Y0002363442D01*
X0000951181Y0002363442D01*
X0000959617Y0002360629D01*
X0000965241Y0002355005D01*
X0000968054Y0002349381D01*
X0000970866Y0002338132D01*
X0000970866Y0002329696D01*
X0000968054Y0002318447D01*
X0000965241Y0002312823D01*
X0000959617Y0002307199D01*
X0000951181Y0002304386D01*
X0000937120Y0002304386D01*
X0000755736Y0002406749D02*
X0000755736Y0002465804D01*
X0000778233Y0002465804D01*
X0000783858Y0002462992D01*
X0000786670Y0002460179D01*
X0000789482Y0002454555D01*
X0000789482Y0002446119D01*
X0000786670Y0002440494D01*
X0000783858Y0002437682D01*
X0000778233Y0002434870D01*
X0000755736Y0002434870D01*
X0000809167Y0002465804D02*
X0000823228Y0002406749D01*
X0000834476Y0002448931D01*
X0000845725Y0002406749D01*
X0000859786Y0002465804D01*
X0000916029Y0002406749D02*
X0000896344Y0002434870D01*
X0000882283Y0002406749D02*
X0000882283Y0002465804D01*
X0000904780Y0002465804D01*
X0000910404Y0002462992D01*
X0000913217Y0002460179D01*
X0000916029Y0002454555D01*
X0000916029Y0002446119D01*
X0000913217Y0002440494D01*
X0000910404Y0002437682D01*
X0000904780Y0002434870D01*
X0000882283Y0002434870D01*
X0000941338Y0002437682D02*
X0000961023Y0002437682D01*
X0000969460Y0002406749D02*
X0000941338Y0002406749D01*
X0000941338Y0002465804D01*
X0000969460Y0002465804D01*
X0000994769Y0002406749D02*
X0000994769Y0002465804D01*
X0001028515Y0002406749D01*
X0001028515Y0002465804D01*
X0000815354Y0002570135D02*
X0000835039Y0002511079D01*
X0000854724Y0002570135D01*
X0000874409Y0002511079D02*
X0000874409Y0002570135D01*
X0000888470Y0002570135D01*
X0000896906Y0002567322D01*
X0000902530Y0002561698D01*
X0000905343Y0002556074D01*
X0000908155Y0002544825D01*
X0000908155Y0002536389D01*
X0000905343Y0002525140D01*
X0000902530Y0002519516D01*
X0000896906Y0002513892D01*
X0000888470Y0002511079D01*
X0000874409Y0002511079D01*
X0000967210Y0002516704D02*
X0000964398Y0002513892D01*
X0000955961Y0002511079D01*
X0000950337Y0002511079D01*
X0000941901Y0002513892D01*
X0000936276Y0002519516D01*
X0000933464Y0002525140D01*
X0000930652Y0002536389D01*
X0000930652Y0002544825D01*
X0000933464Y0002556074D01*
X0000936276Y0002561698D01*
X0000941901Y0002567322D01*
X0000950337Y0002570135D01*
X0000955961Y0002570135D01*
X0000964398Y0002567322D01*
X0000967210Y0002564510D01*
X0000750618Y0002614285D02*
X0000759055Y0002611473D01*
X0000773115Y0002611473D01*
X0000778740Y0002614285D01*
X0000781552Y0002617097D01*
X0000784364Y0002622722D01*
X0000784364Y0002628346D01*
X0000781552Y0002633970D01*
X0000778740Y0002636782D01*
X0000773115Y0002639595D01*
X0000761867Y0002642407D01*
X0000756242Y0002645219D01*
X0000753430Y0002648031D01*
X0000750618Y0002653655D01*
X0000750618Y0002659280D01*
X0000753430Y0002664904D01*
X0000756242Y0002667716D01*
X0000761867Y0002670528D01*
X0000775927Y0002670528D01*
X0000784364Y0002667716D01*
X0000801237Y0002670528D02*
X0000834983Y0002670528D01*
X0000818110Y0002611473D02*
X0000818110Y0002670528D01*
X0000865916Y0002670528D02*
X0000877165Y0002670528D01*
X0000882789Y0002667716D01*
X0000888413Y0002662092D01*
X0000891226Y0002650843D01*
X0000891226Y0002631158D01*
X0000888413Y0002619910D01*
X0000882789Y0002614285D01*
X0000877165Y0002611473D01*
X0000865916Y0002611473D01*
X0000860292Y0002614285D01*
X0000854668Y0002619910D01*
X0000851855Y0002631158D01*
X0000851855Y0002650843D01*
X0000854668Y0002662092D01*
X0000860292Y0002667716D01*
X0000865916Y0002670528D01*
X0000950281Y0002611473D02*
X0000930596Y0002639595D01*
X0000916535Y0002611473D02*
X0000916535Y0002670528D01*
X0000939032Y0002670528D01*
X0000944656Y0002667716D01*
X0000947469Y0002664904D01*
X0000950281Y0002659280D01*
X0000950281Y0002650843D01*
X0000947469Y0002645219D01*
X0000944656Y0002642407D01*
X0000939032Y0002639595D01*
X0000916535Y0002639595D01*
X0000975590Y0002642407D02*
X0000995275Y0002642407D01*
X0001003712Y0002611473D02*
X0000975590Y0002611473D01*
X0000975590Y0002670528D01*
X0001003712Y0002670528D01*
D67*
X0001375196Y0003480314D02*
X0001378346Y0003470866D01*
X0001176377Y0003480314D02*
X0001375196Y0003480314D01*
D68*
X0000822834Y0003017716D02*
X0000818897Y0003017716D01*
X0000600393Y0003208661D02*
X0000600393Y0003204724D01*
X0000822834Y0003208661D02*
X0000600393Y0003208661D01*
X0000822834Y0003017716D02*
X0000822834Y0003017716D01*
X0000600393Y0003017716D02*
X0000819153Y0003017716D01*
X0000600393Y0003204724D02*
X0000600393Y0003017716D01*
X0000822834Y0003017716D02*
X0000822834Y0003208661D01*
X0001425196Y0002872047D02*
X0001425196Y0003127952D01*
X0001346456Y0002872047D02*
X0001425196Y0002872047D01*
X0001346456Y0003127952D02*
X0001346456Y0002872047D01*
X0001425196Y0003127952D02*
X0001346456Y0003127952D01*
X0001423228Y0003200787D02*
X0001423228Y0003456692D01*
X0001344488Y0003200787D02*
X0001423228Y0003200787D01*
X0001344488Y0003456692D02*
X0001344488Y0003200787D01*
X0001423228Y0003456692D02*
X0001344488Y0003456692D01*
D69*
X0000142388Y0001689585D02*
X0000131233Y0001705521D01*
X0000123265Y0001689585D02*
X0000123265Y0001723050D01*
X0000136014Y0001723050D01*
X0000139201Y0001721456D01*
X0000140794Y0001719863D01*
X0000142388Y0001716676D01*
X0000142388Y0001711895D01*
X0000140794Y0001708708D01*
X0000139201Y0001707114D01*
X0000136014Y0001705521D01*
X0000123265Y0001705521D01*
X0000156730Y0001707114D02*
X0000167885Y0001707114D01*
X0000172665Y0001689585D02*
X0000156730Y0001689585D01*
X0000156730Y0001723050D01*
X0000172665Y0001723050D01*
X0000198162Y0001707114D02*
X0000187007Y0001707114D01*
X0000187007Y0001689585D02*
X0000187007Y0001723050D01*
X0000202943Y0001723050D01*
X0000220472Y0001723050D02*
X0000220472Y0001715082D01*
X0000212504Y0001718269D02*
X0000220472Y0001715082D01*
X0000228440Y0001718269D01*
X0000215691Y0001708708D02*
X0000220472Y0001715082D01*
X0000225253Y0001708708D01*
X0000245969Y0001723050D02*
X0000245969Y0001715082D01*
X0000238001Y0001718269D02*
X0000245969Y0001715082D01*
X0000253937Y0001718269D01*
X0000241188Y0001708708D02*
X0000245969Y0001715082D01*
X0000250749Y0001708708D01*
X0001257742Y0001689585D02*
X0001246587Y0001705521D01*
X0001238620Y0001689585D02*
X0001238620Y0001723050D01*
X0001251368Y0001723050D01*
X0001254555Y0001721456D01*
X0001256149Y0001719863D01*
X0001257742Y0001716676D01*
X0001257742Y0001711895D01*
X0001256149Y0001708708D01*
X0001254555Y0001707114D01*
X0001251368Y0001705521D01*
X0001238620Y0001705521D01*
X0001272084Y0001707114D02*
X0001283239Y0001707114D01*
X0001288020Y0001689585D02*
X0001272084Y0001689585D01*
X0001272084Y0001723050D01*
X0001288020Y0001723050D01*
X0001313517Y0001707114D02*
X0001302362Y0001707114D01*
X0001302362Y0001689585D02*
X0001302362Y0001723050D01*
X0001318297Y0001723050D01*
X0001335826Y0001723050D02*
X0001335826Y0001715082D01*
X0001327859Y0001718269D02*
X0001335826Y0001715082D01*
X0001343794Y0001718269D01*
X0001331046Y0001708708D02*
X0001335826Y0001715082D01*
X0001340607Y0001708708D01*
X0001361323Y0001723050D02*
X0001361323Y0001715082D01*
X0001353355Y0001718269D02*
X0001361323Y0001715082D01*
X0001369291Y0001718269D01*
X0001356542Y0001708708D02*
X0001361323Y0001715082D01*
X0001366104Y0001708708D01*
X0001033558Y0002695491D02*
X0001033558Y0002668400D01*
X0001035151Y0002665213D01*
X0001036745Y0002663620D01*
X0001039932Y0002662026D01*
X0001046306Y0002662026D01*
X0001049493Y0002663620D01*
X0001051087Y0002665213D01*
X0001052680Y0002668400D01*
X0001052680Y0002695491D01*
X0001067022Y0002692304D02*
X0001068616Y0002693897D01*
X0001071803Y0002695491D01*
X0001079771Y0002695491D01*
X0001082958Y0002693897D01*
X0001084551Y0002692304D01*
X0001086145Y0002689116D01*
X0001086145Y0002685929D01*
X0001084551Y0002681149D01*
X0001065429Y0002662026D01*
X0001086145Y0002662026D01*
X0000745772Y0002949034D02*
X0000745772Y0002982499D01*
X0000753740Y0002982499D01*
X0000758520Y0002980905D01*
X0000761707Y0002977718D01*
X0000763301Y0002974531D01*
X0000764895Y0002968157D01*
X0000764895Y0002963376D01*
X0000763301Y0002957002D01*
X0000761707Y0002953815D01*
X0000758520Y0002950628D01*
X0000753740Y0002949034D01*
X0000745772Y0002949034D01*
X0000796766Y0002949034D02*
X0000777643Y0002949034D01*
X0000787204Y0002949034D02*
X0000787204Y0002982499D01*
X0000784017Y0002977718D01*
X0000780830Y0002974531D01*
X0000777643Y0002972937D01*
X0001087710Y0003139191D02*
X0001087710Y0003172656D01*
X0001106833Y0003139191D01*
X0001106833Y0003172656D01*
X0001122769Y0003156721D02*
X0001133923Y0003156721D01*
X0001138704Y0003139191D02*
X0001122769Y0003139191D01*
X0001122769Y0003172656D01*
X0001138704Y0003172656D01*
X0001170575Y0003139191D02*
X0001151452Y0003139191D01*
X0001161014Y0003139191D02*
X0001161014Y0003172656D01*
X0001157827Y0003167875D01*
X0001154640Y0003164688D01*
X0001151452Y0003163095D01*
X0001085742Y0003467932D02*
X0001085742Y0003501396D01*
X0001104865Y0003467932D01*
X0001104865Y0003501396D01*
X0001120800Y0003485461D02*
X0001131955Y0003485461D01*
X0001136736Y0003467932D02*
X0001120800Y0003467932D01*
X0001120800Y0003501396D01*
X0001136736Y0003501396D01*
X0001149484Y0003498209D02*
X0001151077Y0003499803D01*
X0001154265Y0003501396D01*
X0001162232Y0003501396D01*
X0001165419Y0003499803D01*
X0001167013Y0003498209D01*
X0001168607Y0003495022D01*
X0001168607Y0003491835D01*
X0001167013Y0003487054D01*
X0001147890Y0003467932D01*
X0001168607Y0003467932D01*
G04 next file*
G04 Gerber Fmt 4.6, Leading zero omitted, Abs format (unit mm)*
G04 Created by KiCad (PCBNEW 4.0.7) date 11/16/17 21:03:46*
G01G01*
G04 APERTURE LIST*
G04 APERTURE END LIST*
D70*
D71*
X0002953149Y0001665354D02*
X0002975196Y0001655905D01*
X0002953149Y0001644488D02*
X0002953149Y0001665354D01*
X0002959448Y0001657874D02*
X0002962992Y0001655905D01*
X0002953149Y0001644488D02*
X0002959448Y0001657874D01*
X0002975196Y0001655905D02*
X0002953149Y0001644488D01*
X0002975684Y0001108398D02*
X0002936314Y0001108398D01*
X0002936314Y0001120397D01*
X0002938188Y0001123397D01*
X0002940063Y0001124896D01*
X0002943813Y0001126396D01*
X0002949437Y0001126396D01*
X0002953187Y0001124896D01*
X0002955061Y0001123397D01*
X0002956936Y0001120397D01*
X0002956936Y0001108398D01*
X0002938188Y0001156392D02*
X0002936314Y0001153393D01*
X0002936314Y0001148893D01*
X0002938188Y0001144394D01*
X0002941938Y0001141394D01*
X0002945688Y0001139895D01*
X0002953187Y0001138395D01*
X0002958811Y0001138395D01*
X0002966310Y0001139895D01*
X0002970060Y0001141394D01*
X0002973809Y0001144394D01*
X0002975684Y0001148893D01*
X0002975684Y0001151893D01*
X0002973809Y0001156392D01*
X0002971934Y0001157892D01*
X0002958811Y0001157892D01*
X0002958811Y0001151893D01*
X0002975684Y0001171391D02*
X0002936314Y0001171391D01*
X0002964435Y0001181889D01*
X0002936314Y0001192388D01*
X0002975684Y0001192388D01*
X0003125290Y0001213404D02*
X0003085920Y0001213404D01*
X0003085920Y0001225403D01*
X0003087795Y0001228402D01*
X0003089670Y0001229902D01*
X0003093419Y0001231402D01*
X0003099043Y0001231402D01*
X0003102793Y0001229902D01*
X0003104668Y0001228402D01*
X0003106542Y0001225403D01*
X0003106542Y0001213404D01*
X0003087795Y0001261398D02*
X0003085920Y0001258398D01*
X0003085920Y0001253899D01*
X0003087795Y0001249400D01*
X0003091544Y0001246400D01*
X0003095294Y0001244900D01*
X0003102793Y0001243400D01*
X0003108417Y0001243400D01*
X0003115916Y0001244900D01*
X0003119666Y0001246400D01*
X0003123415Y0001249400D01*
X0003125290Y0001253899D01*
X0003125290Y0001256899D01*
X0003123415Y0001261398D01*
X0003121541Y0001262898D01*
X0003108417Y0001262898D01*
X0003108417Y0001256899D01*
X0003121541Y0001294394D02*
X0003123415Y0001292894D01*
X0003125290Y0001288395D01*
X0003125290Y0001285395D01*
X0003123415Y0001280896D01*
X0003119666Y0001277896D01*
X0003115916Y0001276396D01*
X0003108417Y0001274896D01*
X0003102793Y0001274896D01*
X0003095294Y0001276396D01*
X0003091544Y0001277896D01*
X0003087795Y0001280896D01*
X0003085920Y0001285395D01*
X0003085920Y0001288395D01*
X0003087795Y0001292894D01*
X0003089670Y0001294394D01*
X0002976077Y0001319310D02*
X0002936707Y0001319310D01*
X0002936707Y0001331308D01*
X0002938582Y0001334308D01*
X0002940457Y0001335808D01*
X0002944206Y0001337307D01*
X0002949831Y0001337307D01*
X0002953580Y0001335808D01*
X0002955455Y0001334308D01*
X0002957330Y0001331308D01*
X0002957330Y0001319310D01*
X0002938582Y0001367304D02*
X0002936707Y0001364304D01*
X0002936707Y0001359805D01*
X0002938582Y0001355305D01*
X0002942332Y0001352305D01*
X0002946081Y0001350806D01*
X0002953580Y0001349306D01*
X0002959205Y0001349306D01*
X0002966704Y0001350806D01*
X0002970453Y0001352305D01*
X0002974203Y0001355305D01*
X0002976077Y0001359805D01*
X0002976077Y0001362804D01*
X0002974203Y0001367304D01*
X0002972328Y0001368803D01*
X0002959205Y0001368803D01*
X0002959205Y0001362804D01*
X0002976077Y0001382302D02*
X0002936707Y0001382302D01*
X0002936707Y0001389801D01*
X0002938582Y0001394300D01*
X0002942332Y0001397300D01*
X0002946081Y0001398800D01*
X0002953580Y0001400299D01*
X0002959205Y0001400299D01*
X0002966704Y0001398800D01*
X0002970453Y0001397300D01*
X0002974203Y0001394300D01*
X0002976077Y0001389801D01*
X0002976077Y0001382302D01*
X0003087401Y0001427577D02*
X0003085526Y0001424578D01*
X0003085526Y0001420078D01*
X0003087401Y0001415579D01*
X0003091151Y0001412579D01*
X0003094900Y0001411079D01*
X0003102399Y0001409580D01*
X0003108024Y0001409580D01*
X0003115523Y0001411079D01*
X0003119272Y0001412579D01*
X0003123022Y0001415579D01*
X0003124896Y0001420078D01*
X0003124896Y0001423078D01*
X0003123022Y0001427577D01*
X0003121147Y0001429077D01*
X0003108024Y0001429077D01*
X0003108024Y0001423078D01*
X0003124896Y0001442575D02*
X0003085526Y0001442575D01*
X0003124896Y0001460573D01*
X0003085526Y0001460573D01*
X0003124896Y0001475571D02*
X0003085526Y0001475571D01*
X0003085526Y0001483070D01*
X0003087401Y0001487570D01*
X0003091151Y0001490569D01*
X0003094900Y0001492069D01*
X0003102399Y0001493569D01*
X0003108024Y0001493569D01*
X0003115523Y0001492069D01*
X0003119272Y0001490569D01*
X0003123022Y0001487570D01*
X0003124896Y0001483070D01*
X0003124896Y0001475571D01*
X0002935920Y0001512729D02*
X0002975290Y0001523228D01*
X0002935920Y0001533727D01*
X0002975290Y0001544225D02*
X0002935920Y0001544225D01*
X0002935920Y0001551724D01*
X0002937795Y0001556224D01*
X0002941544Y0001559223D01*
X0002945294Y0001560723D01*
X0002952793Y0001562223D01*
X0002958417Y0001562223D01*
X0002965916Y0001560723D01*
X0002969666Y0001559223D01*
X0002973415Y0001556224D01*
X0002975290Y0001551724D01*
X0002975290Y0001544225D01*
X0002975290Y0001575721D02*
X0002935920Y0001575721D01*
X0002935920Y0001583220D01*
X0002937795Y0001587720D01*
X0002941544Y0001590719D01*
X0002945294Y0001592219D01*
X0002952793Y0001593719D01*
X0002958417Y0001593719D01*
X0002965916Y0001592219D01*
X0002969666Y0001590719D01*
X0002973415Y0001587720D01*
X0002975290Y0001583220D01*
X0002975290Y0001575721D01*
X0003124109Y0001594469D02*
X0003084739Y0001594469D01*
X0003112860Y0001604968D01*
X0003084739Y0001615466D01*
X0003124109Y0001615466D01*
X0003120359Y0001648462D02*
X0003122234Y0001646962D01*
X0003124109Y0001642463D01*
X0003124109Y0001639463D01*
X0003122234Y0001634964D01*
X0003118485Y0001631964D01*
X0003114735Y0001630464D01*
X0003107236Y0001628965D01*
X0003101612Y0001628965D01*
X0003094113Y0001630464D01*
X0003090363Y0001631964D01*
X0003086614Y0001634964D01*
X0003084739Y0001639463D01*
X0003084739Y0001642463D01*
X0003086614Y0001646962D01*
X0003088488Y0001648462D01*
X0003124109Y0001676959D02*
X0003124109Y0001661961D01*
X0003084739Y0001661961D01*
X0003124109Y0001705455D02*
X0003105361Y0001694956D01*
X0003124109Y0001687457D02*
X0003084739Y0001687457D01*
X0003084739Y0001699456D01*
X0003086614Y0001702455D01*
X0003088488Y0001703955D01*
X0003092238Y0001705455D01*
X0003097862Y0001705455D01*
X0003101612Y0001703955D01*
X0003103487Y0001702455D01*
X0003105361Y0001699456D01*
X0003105361Y0001687457D01*
D72*
X0003744488Y0001679133D02*
X0003744488Y0001127952D01*
X0003508267Y0001679133D02*
X0003744488Y0001679133D01*
X0003153937Y0001679133D02*
X0003508267Y0001679133D01*
X0003153937Y0001127952D02*
X0003153937Y0001679133D01*
X0003153937Y0001127952D02*
X0003508267Y0001127952D01*
X0003508267Y0001127952D02*
X0003744488Y0001127952D01*
G04 next file*
G04 Gerber Fmt 4.6, Leading zero omitted, Abs format (unit mm)*
G04 Created by KiCad (PCBNEW 4.0.7) date 11/16/17 21:03:46*
G01G01*
G04 APERTURE LIST*
G04 APERTURE END LIST*
D73*
D74*
X0002953149Y0001035433D02*
X0002975196Y0001025984D01*
X0002953149Y0001014566D02*
X0002953149Y0001035433D01*
X0002959448Y0001027952D02*
X0002962992Y0001025984D01*
X0002953149Y0001014566D02*
X0002959448Y0001027952D01*
X0002975196Y0001025984D02*
X0002953149Y0001014566D01*
X0002975684Y0000478477D02*
X0002936314Y0000478477D01*
X0002936314Y0000490476D01*
X0002938188Y0000493475D01*
X0002940063Y0000494975D01*
X0002943813Y0000496475D01*
X0002949437Y0000496475D01*
X0002953187Y0000494975D01*
X0002955061Y0000493475D01*
X0002956936Y0000490476D01*
X0002956936Y0000478477D01*
X0002938188Y0000526471D02*
X0002936314Y0000523472D01*
X0002936314Y0000518972D01*
X0002938188Y0000514473D01*
X0002941938Y0000511473D01*
X0002945688Y0000509973D01*
X0002953187Y0000508473D01*
X0002958811Y0000508473D01*
X0002966310Y0000509973D01*
X0002970060Y0000511473D01*
X0002973809Y0000514473D01*
X0002975684Y0000518972D01*
X0002975684Y0000521972D01*
X0002973809Y0000526471D01*
X0002971934Y0000527971D01*
X0002958811Y0000527971D01*
X0002958811Y0000521972D01*
X0002975684Y0000541469D02*
X0002936314Y0000541469D01*
X0002964435Y0000551968D01*
X0002936314Y0000562467D01*
X0002975684Y0000562467D01*
X0003125290Y0000583483D02*
X0003085920Y0000583483D01*
X0003085920Y0000595481D01*
X0003087795Y0000598481D01*
X0003089670Y0000599981D01*
X0003093419Y0000601481D01*
X0003099043Y0000601481D01*
X0003102793Y0000599981D01*
X0003104668Y0000598481D01*
X0003106542Y0000595481D01*
X0003106542Y0000583483D01*
X0003087795Y0000631477D02*
X0003085920Y0000628477D01*
X0003085920Y0000623978D01*
X0003087795Y0000619478D01*
X0003091544Y0000616479D01*
X0003095294Y0000614979D01*
X0003102793Y0000613479D01*
X0003108417Y0000613479D01*
X0003115916Y0000614979D01*
X0003119666Y0000616479D01*
X0003123415Y0000619478D01*
X0003125290Y0000623978D01*
X0003125290Y0000626977D01*
X0003123415Y0000631477D01*
X0003121541Y0000632977D01*
X0003108417Y0000632977D01*
X0003108417Y0000626977D01*
X0003121541Y0000664473D02*
X0003123415Y0000662973D01*
X0003125290Y0000658473D01*
X0003125290Y0000655474D01*
X0003123415Y0000650974D01*
X0003119666Y0000647975D01*
X0003115916Y0000646475D01*
X0003108417Y0000644975D01*
X0003102793Y0000644975D01*
X0003095294Y0000646475D01*
X0003091544Y0000647975D01*
X0003087795Y0000650974D01*
X0003085920Y0000655474D01*
X0003085920Y0000658473D01*
X0003087795Y0000662973D01*
X0003089670Y0000664473D01*
X0002976077Y0000689388D02*
X0002936707Y0000689388D01*
X0002936707Y0000701387D01*
X0002938582Y0000704386D01*
X0002940457Y0000705886D01*
X0002944206Y0000707386D01*
X0002949831Y0000707386D01*
X0002953580Y0000705886D01*
X0002955455Y0000704386D01*
X0002957330Y0000701387D01*
X0002957330Y0000689388D01*
X0002938582Y0000737382D02*
X0002936707Y0000734383D01*
X0002936707Y0000729883D01*
X0002938582Y0000725384D01*
X0002942332Y0000722384D01*
X0002946081Y0000720884D01*
X0002953580Y0000719385D01*
X0002959205Y0000719385D01*
X0002966704Y0000720884D01*
X0002970453Y0000722384D01*
X0002974203Y0000725384D01*
X0002976077Y0000729883D01*
X0002976077Y0000732883D01*
X0002974203Y0000737382D01*
X0002972328Y0000738882D01*
X0002959205Y0000738882D01*
X0002959205Y0000732883D01*
X0002976077Y0000752380D02*
X0002936707Y0000752380D01*
X0002936707Y0000759879D01*
X0002938582Y0000764379D01*
X0002942332Y0000767379D01*
X0002946081Y0000768878D01*
X0002953580Y0000770378D01*
X0002959205Y0000770378D01*
X0002966704Y0000768878D01*
X0002970453Y0000767379D01*
X0002974203Y0000764379D01*
X0002976077Y0000759879D01*
X0002976077Y0000752380D01*
X0003087401Y0000797656D02*
X0003085526Y0000794656D01*
X0003085526Y0000790157D01*
X0003087401Y0000785658D01*
X0003091151Y0000782658D01*
X0003094900Y0000781158D01*
X0003102399Y0000779658D01*
X0003108024Y0000779658D01*
X0003115523Y0000781158D01*
X0003119272Y0000782658D01*
X0003123022Y0000785658D01*
X0003124896Y0000790157D01*
X0003124896Y0000793157D01*
X0003123022Y0000797656D01*
X0003121147Y0000799156D01*
X0003108024Y0000799156D01*
X0003108024Y0000793157D01*
X0003124896Y0000812654D02*
X0003085526Y0000812654D01*
X0003124896Y0000830652D01*
X0003085526Y0000830652D01*
X0003124896Y0000845650D02*
X0003085526Y0000845650D01*
X0003085526Y0000853149D01*
X0003087401Y0000857649D01*
X0003091151Y0000860648D01*
X0003094900Y0000862148D01*
X0003102399Y0000863648D01*
X0003108024Y0000863648D01*
X0003115523Y0000862148D01*
X0003119272Y0000860648D01*
X0003123022Y0000857649D01*
X0003124896Y0000853149D01*
X0003124896Y0000845650D01*
X0002935920Y0000882808D02*
X0002975290Y0000893307D01*
X0002935920Y0000903805D01*
X0002975290Y0000914304D02*
X0002935920Y0000914304D01*
X0002935920Y0000921803D01*
X0002937795Y0000926302D01*
X0002941544Y0000929302D01*
X0002945294Y0000930802D01*
X0002952793Y0000932302D01*
X0002958417Y0000932302D01*
X0002965916Y0000930802D01*
X0002969666Y0000929302D01*
X0002973415Y0000926302D01*
X0002975290Y0000921803D01*
X0002975290Y0000914304D01*
X0002975290Y0000945800D02*
X0002935920Y0000945800D01*
X0002935920Y0000953299D01*
X0002937795Y0000957798D01*
X0002941544Y0000960798D01*
X0002945294Y0000962298D01*
X0002952793Y0000963798D01*
X0002958417Y0000963798D01*
X0002965916Y0000962298D01*
X0002969666Y0000960798D01*
X0002973415Y0000957798D01*
X0002975290Y0000953299D01*
X0002975290Y0000945800D01*
X0003124109Y0000964548D02*
X0003084739Y0000964548D01*
X0003112860Y0000975046D01*
X0003084739Y0000985545D01*
X0003124109Y0000985545D01*
X0003120359Y0001018541D02*
X0003122234Y0001017041D01*
X0003124109Y0001012542D01*
X0003124109Y0001009542D01*
X0003122234Y0001005043D01*
X0003118485Y0001002043D01*
X0003114735Y0001000543D01*
X0003107236Y0000999043D01*
X0003101612Y0000999043D01*
X0003094113Y0001000543D01*
X0003090363Y0001002043D01*
X0003086614Y0001005043D01*
X0003084739Y0001009542D01*
X0003084739Y0001012542D01*
X0003086614Y0001017041D01*
X0003088488Y0001018541D01*
X0003124109Y0001047037D02*
X0003124109Y0001032039D01*
X0003084739Y0001032039D01*
X0003124109Y0001075534D02*
X0003105361Y0001065035D01*
X0003124109Y0001057536D02*
X0003084739Y0001057536D01*
X0003084739Y0001069535D01*
X0003086614Y0001072534D01*
X0003088488Y0001074034D01*
X0003092238Y0001075534D01*
X0003097862Y0001075534D01*
X0003101612Y0001074034D01*
X0003103487Y0001072534D01*
X0003105361Y0001069535D01*
X0003105361Y0001057536D01*
D75*
X0003744488Y0001049212D02*
X0003744488Y0000498031D01*
X0003508267Y0001049212D02*
X0003744488Y0001049212D01*
X0003153937Y0001049212D02*
X0003508267Y0001049212D01*
X0003153937Y0000498031D02*
X0003153937Y0001049212D01*
X0003153937Y0000498031D02*
X0003508267Y0000498031D01*
X0003508267Y0000498031D02*
X0003744488Y0000498031D01*
M02*