%
M48
METRIC,000.000
T01C0.30
T02C0.60
T03C0.85
T04C1.00
T10C0.40
T11C0.80
T12C3.15
T13C0.50
T14C0.76
%
T01
X013420Y035720
X011120Y038980
X015270Y039200
X015150Y042380
X013420Y021970
X011120Y025230
X015270Y025450
X015150Y028630
X013420Y008219
X011120Y011480
X015270Y011700
X015150Y014880
X029420Y035720
X027120Y038980
X031270Y039200
X031150Y042380
X029420Y021970
X027120Y025230
X031270Y025450
X031150Y028630
X029420Y008219
X027120Y011480
X031270Y011700
X031150Y014880
X045420Y035720
X043120Y038980
X047269Y039200
X047150Y042380
X045420Y021970
X043120Y025230
X047269Y025450
X047150Y028630
X045420Y008219
X043120Y011480
X047269Y011700
X047150Y014880
X061420Y035720
X059120Y038980
X063269Y039200
X063150Y042380
X061420Y021970
X059120Y025230
X063269Y025450
X063150Y028630
X061420Y008219
X059120Y011480
X063269Y011700
X063150Y014880
X075125Y083950
X075620Y057540
X076250Y059500
X077891Y072870
X078150Y057450
X078161Y064697
X078200Y058900
X078220Y062584
X078496Y072625
X078750Y077800
X078766Y063581
X079048Y061430
X079296Y064682
X079395Y065535
X079450Y057750
X080206Y058656
X080250Y060800
X080780Y078050
X080800Y082289
X081092Y054135
X081575Y056153
X087050Y056175
X087720Y096830
X088100Y064750
X088225Y097335
X088890Y098000
X089925Y098000
X090030Y055250
X092100Y064750
X094625Y098000
X095350Y098000
X095760Y056210
X095875Y097200
X096200Y098000
X096925Y064750
X038590Y078877
X038600Y072344
X038600Y069260
X039361Y073770
X039425Y080229
X040050Y078850
X040090Y075620
X040570Y073640
X040785Y080185
X040950Y080850
X041625Y083400
X043073Y079606
X043160Y070700
X043925Y083300
X044850Y080920
X045850Y080320
X046947Y076776
X047498Y077639
X047600Y075600
X048150Y073365
X049050Y070700
X049125Y078200
X049280Y047110
X049729Y076770
X050000Y077500
X050300Y081350
X050600Y098000
X051045Y062705
X051550Y081850
X051550Y080525
X051775Y078425
X051850Y067450
X051870Y098000
X053083Y063467
X053083Y074725
X053200Y098000
X053200Y062080
X053223Y082940
X053850Y080825
X053950Y056800
X054000Y068020
X054600Y056300
X055140Y052770
X055610Y047070
X055680Y098025
X056037Y052800
X057425Y082011
X058254Y082840
X058455Y073175
X058610Y052530
X058800Y067400
X058911Y047741
X059050Y062150
X059780Y046132
X059843Y068310
X060101Y052530
X060283Y057750
X060500Y076900
X061025Y044900
X061075Y062350
X061100Y047950
X061140Y052584
X061568Y056783
X061726Y047766
X062129Y052970
X062450Y047400
X062500Y075050
X062916Y047022
X063400Y070760
X064135Y049865
X064180Y052720
X064349Y070787
X064849Y055700
X064971Y069871
X065800Y062400
X065840Y098025
X066500Y083750
X066500Y078350
X066525Y075025
X066920Y055950
X067110Y098025
X067910Y062410
X068380Y098025
X069350Y066600
X069650Y098025
X070800Y053570
X070970Y063880
X071039Y058140
X071240Y052950
X001590Y078877
X001600Y069260
X001650Y071280
X002361Y073770
X002425Y080229
X003050Y078850
X003090Y075620
X003570Y073640
X003850Y080250
X004475Y081050
X004625Y083400
X005790Y079280
X006160Y070700
X006925Y083300
X007850Y080920
X008830Y076720
X008850Y080320
X009850Y076700
X010620Y075601
X012280Y047110
X012556Y064973
X013054Y065331
X013274Y080976
X013330Y080150
X013550Y061300
X013560Y071320
X013570Y077490
X013600Y098000
X013600Y056300
X013730Y065640
X013850Y084250
X014025Y067701
X014025Y066908
X014070Y076280
X014240Y062340
X014800Y078175
X014870Y098000
X015298Y082655
X016200Y098000
X016650Y083550
X016775Y084975
X016990Y056770
X017000Y068020
X017375Y080300
X017490Y063310
X018140Y052770
X018610Y047070
X018680Y098025
X018800Y084475
X019140Y052880
X019540Y072930
X020425Y082011
X021110Y073539
X021125Y069938
X021254Y082840
X021481Y052280
X021520Y070860
X021668Y072270
X021911Y047741
X022000Y057050
X022780Y046132
X022850Y069960
X022998Y052280
X023170Y068310
X023230Y071130
X023700Y062350
X023845Y072902
X023845Y072301
X024026Y044900
X024100Y047950
X024225Y056730
X024242Y052427
X024726Y047766
X024850Y061550
X025130Y052970
X025450Y047400
X025916Y047022
X027135Y049865
X027140Y067945
X027180Y052720
X027200Y062950
X027200Y056800
X027208Y060575
X027636Y068299
X027850Y064700
X027850Y060550
X027900Y069925
X028840Y098025
X029000Y060650
X029011Y068484
X029044Y057470
X029300Y064099
X029500Y078350
X029525Y075025
X029920Y055950
X030110Y098025
X030910Y062410
X031380Y098025
X032350Y066600
X032650Y098025
X033800Y053570
X033970Y063880
X034040Y058140
X034240Y052950
T02
X057230Y053593
X057950Y063990
X057950Y058050
X067700Y079960
X016450Y073950
X020095Y059280
X020170Y073950
X020200Y054100
X021890Y063990
X031910Y080350
X005002Y030003G85X005001Y030003
X005001Y030010G85X005002Y030010
X005002Y016253G85X005001Y016253
X005001Y016260G85X005002Y016260
X005002Y002503G85X005001Y002503
X005001Y002510G85X005002Y002510
X021002Y030003G85X021001Y030003
X021001Y030010G85X021002Y030010
X021002Y016253G85X021001Y016253
X021001Y016260G85X021002Y016260
X021002Y002503G85X021001Y002503
X021001Y002510G85X021002Y002510
X037002Y030003G85X037001Y030003
X037001Y030010G85X037002Y030010
X037002Y016253G85X037001Y016253
X037001Y016260G85X037002Y016260
X037002Y002503G85X037001Y002503
X037001Y002510G85X037002Y002510
X053002Y030003G85X053001Y030003
X053001Y030010G85X053002Y030010
X053002Y016253G85X053001Y016253
X053001Y016260G85X053002Y016260
X053002Y002503G85X053001Y002503
X053001Y002510G85X053002Y002510
T03
X009710Y034300
X009710Y039300
X009710Y020550
X009710Y025550
X009710Y006800
X009710Y011800
X025710Y034300
X025710Y039300
X025710Y020550
X025710Y025550
X025710Y006800
X025710Y011800
X041710Y034300
X041710Y039300
X041710Y020550
X041710Y025550
X041710Y006800
X041710Y011800
X057710Y034300
X057710Y039300
X057710Y020550
X057710Y025550
X057710Y006800
X057710Y011800
T04
X019200Y031790
X019200Y034330
X019200Y036870
X019200Y039410
X019200Y041950
X019200Y018040
X019200Y020580
X019200Y023119
X019200Y025660
X019200Y028200
X019200Y004289
X019200Y006829
X019200Y009370
X019200Y011910
X019200Y014450
X035200Y031790
X035200Y034330
X035200Y036870
X035200Y039410
X035200Y041950
X035200Y018040
X035200Y020580
X035200Y023119
X035200Y025660
X035200Y028200
X035200Y004289
X035200Y006829
X035200Y009370
X035200Y011910
X035200Y014450
X051200Y031790
X051200Y034330
X051200Y036870
X051200Y039410
X051200Y041950
X051200Y018040
X051200Y020580
X051200Y023119
X051200Y025660
X051200Y028200
X051200Y004289
X051200Y006829
X051200Y009370
X051200Y011910
X051200Y014450
X067200Y031790
X067200Y034330
X067200Y036870
X067200Y039410
X067200Y041950
X067200Y018040
X067200Y020580
X067200Y023119
X067200Y025660
X067200Y028200
X067200Y004289
X067200Y006829
X067200Y009370
X067200Y011910
X067200Y014450
X085100Y067000
X085100Y064459
X085100Y061920
X085100Y059380
X085100Y056840
X085100Y054300
X085200Y098000
X098250Y098000
X098250Y067000
X098250Y064459
X098250Y061920
X098250Y059380
X098250Y056840
X098250Y054300
X048100Y098000
X048100Y067000
X048100Y064459
X048100Y061920
X048100Y059380
X048100Y056840
X048100Y054300
X072500Y067000
X072500Y064459
X072500Y061920
X072500Y059380
X072500Y056840
X072500Y054300
X072550Y098000
X011100Y098000
X011100Y067000
X011100Y064459
X011100Y061920
X011100Y059380
X011100Y056840
X011100Y054300
X035500Y067000
X035500Y064459
X035500Y061920
X035500Y059380
X035500Y056840
X035500Y054300
X035550Y098000
X077000Y029350
X077000Y031890
X077000Y034430
X077000Y036970
X077000Y039510
X077000Y042050
X077000Y013349
X077000Y015889
X077000Y018429
X077000Y020969
X077000Y023509
X077000Y026049
T10
X076730Y081289
X082798Y060089
X086580Y081150
X087410Y060910
X090030Y053400
X091341Y069351
X091350Y067550
X091700Y079050
T11
X089400Y087825
X089400Y085325
X049393Y084464
X049393Y079964
X049393Y075464
X051143Y087964
X051143Y071964
X055143Y088964
X059143Y087964
X059143Y071964
X060893Y084464
X060893Y079964
X060893Y075464
X010100Y081800
X010100Y078128
X011693Y085108
X011693Y074820
X014564Y087397
X014564Y072531
X018143Y088214
X018143Y071714
X021723Y087397
X024593Y085108
X024593Y074820
X026186Y081800
X026186Y078128
T12
X077500Y093100
X077800Y047200
X096200Y092500
X096780Y048880
X040500Y092300
X041700Y048100
X070030Y048100
X070300Y092300
X003500Y092300
X004700Y048100
X033030Y048100
X033300Y092300
T13
X088130Y045690
X092130Y045690
X086810Y033110
X084270Y034125
X086810Y035140
X084270Y036155
X086810Y037170
X084270Y038185
X089110Y029650
X089110Y041650
X086810Y017109
X084270Y018124
X086810Y019139
X084270Y020154
X086810Y021169
X084270Y022184
X089110Y013649
X089110Y025649
T14
X072150Y087050
X072150Y082050
X072200Y078700
X072200Y073700
X035150Y087050
X035150Y082050
X035200Y078700
X035200Y073700
M30