G04 Layer_Color=8388736*
%FSLAX44Y44*%
%MOMM*%
G71*
G01*
G75*
%ADD34R,1.0032X1.1032*%
%ADD35R,1.6532X0.8032*%
%ADD36R,1.1032X1.0032*%
%ADD37R,3.3032X1.3032*%
%ADD38R,1.1032X0.9032*%
%ADD39R,3.1032X5.6032*%
%ADD40O,2.7032X0.9032*%
%ADD41R,2.7032X1.9032*%
%ADD42R,3.2032X1.8032*%
%ADD43R,6.4032X6.0032*%
%ADD44R,1.2032X1.3032*%
%ADD45R,0.8032X1.6532*%
%ADD46R,0.7032X1.4032*%
%ADD47C,1.7032*%
%ADD48C,1.7532*%
%ADD49R,1.7532X1.7532*%
%ADD50R,1.7032X1.7032*%
%ADD51C,1.6032*%
%ADD52R,1.6032X1.6032*%
%ADD53C,1.5032*%
D34*
X-254460Y-222820D02*
D03*
X-240460D02*
D03*
D35*
X-193130Y-181740D02*
D03*
Y-200740D02*
D03*
X-169630Y-191240D02*
D03*
X-247210Y-181740D02*
D03*
Y-200740D02*
D03*
X-223710Y-191240D02*
D03*
D36*
X-122900Y-345240D02*
D03*
Y-331240D02*
D03*
D37*
X93500Y-235000D02*
D03*
X31500D02*
D03*
D38*
X-208300Y-345740D02*
D03*
Y-330740D02*
D03*
X-157060Y-345740D02*
D03*
Y-330740D02*
D03*
X-139980Y-345740D02*
D03*
Y-330740D02*
D03*
X-174140Y-345740D02*
D03*
Y-330740D02*
D03*
X-191220Y-345740D02*
D03*
Y-330740D02*
D03*
D39*
X145500Y-220000D02*
D03*
X244500D02*
D03*
D40*
X72000Y-331550D02*
D03*
Y-318850D02*
D03*
Y-306150D02*
D03*
Y-293450D02*
D03*
X23000Y-331550D02*
D03*
Y-318850D02*
D03*
Y-306150D02*
D03*
Y-293450D02*
D03*
D41*
X160000Y-302500D02*
D03*
X200000D02*
D03*
D42*
X152500Y-96780D02*
D03*
Y-142500D02*
D03*
D43*
X224300Y-119640D02*
D03*
D44*
X250930Y-446990D02*
D03*
X219930D02*
D03*
D45*
X-41500Y-252500D02*
D03*
X-22500D02*
D03*
X-32000Y-229000D02*
D03*
D46*
X197500Y-355000D02*
D03*
X177500D02*
D03*
X157500D02*
D03*
D47*
X60000Y-160000D02*
D03*
Y-110000D02*
D03*
X115000Y-392900D02*
D03*
Y-367500D02*
D03*
Y-342100D02*
D03*
Y-316700D02*
D03*
Y-291300D02*
D03*
X20000Y-47500D02*
D03*
D48*
X247500Y-293400D02*
D03*
Y-318800D02*
D03*
Y-344200D02*
D03*
Y-369600D02*
D03*
Y-395000D02*
D03*
D49*
Y-420400D02*
D03*
D50*
X115000Y-418300D02*
D03*
X20000Y-22100D02*
D03*
D51*
X245000Y-22100D02*
D03*
D52*
Y-47500D02*
D03*
D53*
X197500Y-415000D02*
D03*
X157500D02*
D03*
M02*
