G04 Layer_Color=32768*
%FSLAX44Y44*%
%MOMM*%
G71*
G01*
G75*
%ADD32C,0.1000*%
%ADD55C,0.0500*%
D32*
X-259460Y-228320D02*
Y-217320D01*
X-235460Y-228320D02*
Y-217320D01*
X-259460D02*
X-235460D01*
X-259460Y-228320D02*
X-235460D01*
X-252210Y-222820D02*
X-242710D01*
X-247460Y-227570D02*
Y-218070D01*
X-205380Y-211240D02*
Y-171240D01*
X-157380Y-211240D02*
Y-171240D01*
X-205380D02*
X-157380D01*
X-205380Y-211240D02*
X-157380D01*
X-186380Y-191240D02*
X-176380D01*
X-181380Y-196240D02*
Y-186240D01*
X-259460Y-211240D02*
Y-171240D01*
X-211460Y-211240D02*
Y-171240D01*
X-259460D02*
X-211460D01*
X-259460Y-211240D02*
X-211460D01*
X-240460Y-191240D02*
X-230460D01*
X-235460Y-196240D02*
Y-186240D01*
X-128400Y-350240D02*
X-117400D01*
X-128400Y-326240D02*
X-117400D01*
X-128400Y-350240D02*
Y-326240D01*
X-117400Y-350240D02*
Y-326240D01*
X-122900Y-342990D02*
Y-333490D01*
X-127650Y-338240D02*
X-118150D01*
X-213800Y-350240D02*
X-202800D01*
X-213800Y-326240D02*
X-202800D01*
X-213800Y-350240D02*
Y-326240D01*
X-202800Y-350240D02*
Y-326240D01*
X-208300Y-342990D02*
Y-333490D01*
X-213050Y-338240D02*
X-203550D01*
X-162560Y-350240D02*
X-151560D01*
X-162560Y-326240D02*
X-151560D01*
X-162560Y-350240D02*
Y-326240D01*
X-151560Y-350240D02*
Y-326240D01*
X-157060Y-342990D02*
Y-333490D01*
X-161810Y-338240D02*
X-152310D01*
X-145480Y-350240D02*
X-134480D01*
X-145480Y-326240D02*
X-134480D01*
X-145480Y-350240D02*
Y-326240D01*
X-134480Y-350240D02*
Y-326240D01*
X-139980Y-342990D02*
Y-333490D01*
X-144730Y-338240D02*
X-135230D01*
X-179640Y-350240D02*
X-168640D01*
X-179640Y-326240D02*
X-168640D01*
X-179640Y-350240D02*
Y-326240D01*
X-168640Y-350240D02*
Y-326240D01*
X-174140Y-342990D02*
Y-333490D01*
X-178890Y-338240D02*
X-169390D01*
X-196720Y-350240D02*
X-185720D01*
X-196720Y-326240D02*
X-185720D01*
X-196720Y-350240D02*
Y-326240D01*
X-185720Y-350240D02*
Y-326240D01*
X-191220Y-342990D02*
Y-333490D01*
X-195970Y-338240D02*
X-186470D01*
X47500Y-317500D02*
Y-307500D01*
X42500Y-312500D02*
X52500D01*
X175000Y-302500D02*
X185000D01*
X180000Y-307500D02*
Y-297500D01*
X235430Y-451990D02*
Y-441990D01*
X230430Y-446990D02*
X240430D01*
X-52000Y-264750D02*
X-12000D01*
X-52000Y-216750D02*
X-12000D01*
X-52000Y-264750D02*
Y-216750D01*
X-12000Y-264750D02*
Y-216750D01*
X-32000Y-245750D02*
Y-235750D01*
X-37000Y-240750D02*
X-27000D01*
D55*
X233200Y-437900D02*
X261800D01*
Y-275900D01*
X233200D02*
X261800D01*
X233200Y-437900D02*
Y-275900D01*
X230050Y-63700D02*
X259950D01*
Y-5900D01*
X230050D02*
X259950D01*
X230050Y-63700D02*
Y-5900D01*
X5500Y-342500D02*
X89500D01*
X5500Y-282500D02*
X89500D01*
Y-342500D02*
Y-282500D01*
X5500Y-342500D02*
Y-282500D01*
X146500Y-286900D02*
X213500D01*
Y-318100D02*
Y-286900D01*
X146500Y-318100D02*
Y-286900D01*
Y-318100D02*
X213500D01*
X213430Y-457990D02*
X257430D01*
X213430Y-435990D02*
X257430D01*
Y-457990D02*
Y-435990D01*
X213430Y-457990D02*
Y-435990D01*
M02*
