G04 Layer_Color=8421504*
%FSLAX44Y44*%
%MOMM*%
G71*
G01*
G75*
%ADD10R,0.8000X0.9000*%
%ADD11R,1.4500X0.6000*%
%ADD12R,0.9000X0.8000*%
%ADD13R,3.1000X1.1000*%
%ADD14R,0.9000X0.7000*%
%ADD15R,2.9000X5.4000*%
%ADD16O,2.5000X0.7000*%
%ADD17R,2.5000X1.7000*%
%ADD18R,3.0000X1.6000*%
%ADD19R,6.2000X5.8000*%
%ADD20R,1.0000X1.1000*%
%ADD21R,0.6000X1.4500*%
%ADD22R,0.5000X1.2000*%
D10*
X-254460Y-222820D02*
D03*
X-240460D02*
D03*
D11*
X-193130Y-181740D02*
D03*
Y-200740D02*
D03*
X-169630Y-191240D02*
D03*
X-247210Y-181740D02*
D03*
Y-200740D02*
D03*
X-223710Y-191240D02*
D03*
D12*
X-122900Y-345240D02*
D03*
Y-331240D02*
D03*
D13*
X93500Y-235000D02*
D03*
X31500D02*
D03*
D14*
X-208300Y-345740D02*
D03*
Y-330740D02*
D03*
X-157060Y-345740D02*
D03*
Y-330740D02*
D03*
X-139980Y-345740D02*
D03*
Y-330740D02*
D03*
X-174140Y-345740D02*
D03*
Y-330740D02*
D03*
X-191220Y-345740D02*
D03*
Y-330740D02*
D03*
D15*
X145500Y-220000D02*
D03*
X244500D02*
D03*
D16*
X72000Y-331550D02*
D03*
Y-318850D02*
D03*
Y-306150D02*
D03*
Y-293450D02*
D03*
X23000Y-331550D02*
D03*
Y-318850D02*
D03*
Y-306150D02*
D03*
Y-293450D02*
D03*
D17*
X160000Y-302500D02*
D03*
X200000D02*
D03*
D18*
X152500Y-96780D02*
D03*
Y-142500D02*
D03*
D19*
X224300Y-119640D02*
D03*
D20*
X250930Y-446990D02*
D03*
X219930D02*
D03*
D21*
X-41500Y-252500D02*
D03*
X-22500D02*
D03*
X-32000Y-229000D02*
D03*
D22*
X197500Y-355000D02*
D03*
X177500D02*
D03*
X157500D02*
D03*
M02*
