G04 Layer_Color=16711935*
%FSLAX44Y44*%
%MOMM*%
G71*
G01*
G75*
%ADD32C,0.1000*%
D32*
X41500Y-296500D02*
G03*
X41500Y-296500I-5000J0D01*
G01*
X-256210Y-227570D02*
Y-218070D01*
X-238710Y-227570D02*
Y-218070D01*
X-256210D02*
X-238710D01*
X-256210Y-227570D02*
X-238710D01*
X-188380Y-206240D02*
Y-176240D01*
X-174380Y-206240D02*
Y-176240D01*
X-188380D02*
X-174380D01*
X-188380Y-206240D02*
X-174380D01*
X-242460Y-206240D02*
Y-176240D01*
X-228460Y-206240D02*
Y-176240D01*
X-242460D02*
X-228460D01*
X-242460Y-206240D02*
X-228460D01*
X-127650Y-346990D02*
X-118150D01*
X-127650Y-329490D02*
X-118150D01*
X-127650Y-346990D02*
Y-329490D01*
X-118150Y-346990D02*
Y-329490D01*
X-213050Y-346740D02*
X-203550D01*
X-213050Y-329740D02*
X-203550D01*
X-213050Y-346740D02*
Y-329740D01*
X-203550Y-346740D02*
Y-329740D01*
X-161810Y-346740D02*
X-152310D01*
X-161810Y-329740D02*
X-152310D01*
X-161810Y-346740D02*
Y-329740D01*
X-152310Y-346740D02*
Y-329740D01*
X-144730Y-346740D02*
X-135230D01*
X-144730Y-329740D02*
X-135230D01*
X-144730Y-346740D02*
Y-329740D01*
X-135230Y-346740D02*
Y-329740D01*
X-178890Y-346740D02*
X-169390D01*
X-178890Y-329740D02*
X-169390D01*
X-178890Y-346740D02*
Y-329740D01*
X-169390Y-346740D02*
Y-329740D01*
X-195970Y-346740D02*
X-186470D01*
X-195970Y-329740D02*
X-186470D01*
X-195970Y-346740D02*
Y-329740D01*
X-186470Y-346740D02*
Y-329740D01*
X235450Y-435650D02*
X259550D01*
Y-278150D01*
X235450D02*
X259550D01*
X235450Y-435650D02*
Y-278150D01*
X232299Y-61450D02*
X257698D01*
Y-8150D01*
X232299D02*
X257698D01*
X232299Y-61450D02*
Y-8150D01*
X27500Y-337500D02*
X67500D01*
X27500Y-287500D02*
X67500D01*
Y-337500D02*
Y-287500D01*
X27500Y-337500D02*
Y-287500D01*
X158500Y-289475D02*
X201500D01*
X158500Y-315525D02*
Y-289475D01*
X201500Y-315525D02*
Y-289475D01*
X158500Y-315525D02*
X201500D01*
X221430Y-456490D02*
X249430D01*
X221430Y-437490D02*
X249430D01*
Y-456490D02*
Y-437490D01*
X221430Y-456490D02*
Y-437490D01*
X-47000Y-247750D02*
X-17000D01*
X-47000Y-233750D02*
X-17000D01*
X-47000Y-247750D02*
Y-233750D01*
X-17000Y-247750D02*
Y-233750D01*
M02*
