G04 Layer_Color=65535*
%FSLAX44Y44*%
%MOMM*%
G71*
G01*
G75*
%ADD23C,0.2540*%
%ADD31C,0.2500*%
%ADD32C,0.1000*%
%ADD33C,0.2000*%
D23*
X27500Y-261000D02*
X36500D01*
X32500Y-265000D02*
Y-257000D01*
X20000Y-277500D02*
Y-192500D01*
X105000D01*
Y-277500D02*
Y-192500D01*
X20000Y-277500D02*
X105000D01*
X135000Y-280000D02*
Y-160000D01*
Y-280000D02*
X255000D01*
Y-160000D01*
X135000D02*
X255000D01*
X147000Y-435000D02*
Y-345000D01*
X208500D01*
Y-435000D02*
Y-345000D01*
X147000Y-435000D02*
X208500D01*
X-252303Y-195124D02*
X-254842Y-192585D01*
X-259921D01*
X-262460Y-195124D01*
Y-205281D01*
X-259921Y-207820D01*
X-254842D01*
X-252303Y-205281D01*
X-239607Y-207820D02*
Y-192585D01*
X-247225Y-200202D01*
X-237068D01*
X-214269Y-284519D02*
Y-269284D01*
X-206651D01*
X-204112Y-271823D01*
Y-276901D01*
X-206651Y-279441D01*
X-214269D01*
X-209191D02*
X-204112Y-284519D01*
X-188877Y-269284D02*
X-199034D01*
Y-276901D01*
X-193956Y-274362D01*
X-191416D01*
X-188877Y-276901D01*
Y-281980D01*
X-191416Y-284519D01*
X-196495D01*
X-199034Y-281980D01*
X-163029Y-284519D02*
Y-269284D01*
X-155412D01*
X-152872Y-271823D01*
Y-276901D01*
X-155412Y-279441D01*
X-163029D01*
X-157951D02*
X-152872Y-284519D01*
X-140176D02*
Y-269284D01*
X-147794Y-276901D01*
X-137637D01*
X-145949Y-284519D02*
Y-269284D01*
X-138331D01*
X-135792Y-271823D01*
Y-276901D01*
X-138331Y-279441D01*
X-145949D01*
X-140871D02*
X-135792Y-284519D01*
X-130714Y-271823D02*
X-128175Y-269284D01*
X-123096D01*
X-120557Y-271823D01*
Y-274362D01*
X-123096Y-276901D01*
X-125636D01*
X-123096D01*
X-120557Y-279441D01*
Y-281980D01*
X-123096Y-284519D01*
X-128175D01*
X-130714Y-281980D01*
X-180109Y-284519D02*
Y-269284D01*
X-172491D01*
X-169952Y-271823D01*
Y-276901D01*
X-172491Y-279441D01*
X-180109D01*
X-175031D02*
X-169952Y-284519D01*
X-154717D02*
X-164874D01*
X-154717Y-274362D01*
Y-271823D01*
X-157256Y-269284D01*
X-162335D01*
X-164874Y-271823D01*
X-197189Y-284519D02*
Y-269284D01*
X-189571D01*
X-187032Y-271823D01*
Y-276901D01*
X-189571Y-279441D01*
X-197189D01*
X-192111D02*
X-187032Y-284519D01*
X-181954D02*
X-176876D01*
X-179415D01*
Y-269284D01*
X-181954Y-271823D01*
X-194464Y-155300D02*
Y-145143D01*
X-197003Y-142604D01*
X-202082D01*
X-204621Y-145143D01*
Y-155300D01*
X-202082Y-157839D01*
X-197003D01*
X-199543Y-152761D02*
X-194464Y-157839D01*
X-197003D02*
X-194464Y-155300D01*
X-181768Y-157839D02*
Y-142604D01*
X-189386Y-150221D01*
X-179229D01*
X147715Y-74719D02*
Y-64562D01*
X145176Y-62023D01*
X140097D01*
X137558Y-64562D01*
Y-74719D01*
X140097Y-77258D01*
X145176D01*
X142636Y-72180D02*
X147715Y-77258D01*
X145176D02*
X147715Y-74719D01*
X152793Y-64562D02*
X155332Y-62023D01*
X160411D01*
X162950Y-64562D01*
Y-67101D01*
X160411Y-69640D01*
X157871D01*
X160411D01*
X162950Y-72180D01*
Y-74719D01*
X160411Y-77258D01*
X155332D01*
X152793Y-74719D01*
X-248544Y-155300D02*
Y-145143D01*
X-251084Y-142604D01*
X-256162D01*
X-258701Y-145143D01*
Y-155300D01*
X-256162Y-157839D01*
X-251084D01*
X-253623Y-152761D02*
X-248544Y-157839D01*
X-251084D02*
X-248544Y-155300D01*
X-233309Y-157839D02*
X-243466D01*
X-233309Y-147682D01*
Y-145143D01*
X-235848Y-142604D01*
X-240927D01*
X-243466Y-145143D01*
X-48894Y-176108D02*
Y-165951D01*
X-51434Y-163412D01*
X-56512D01*
X-59051Y-165951D01*
Y-176108D01*
X-56512Y-178647D01*
X-51434D01*
X-53973Y-173569D02*
X-48894Y-178647D01*
X-51434D02*
X-48894Y-176108D01*
X-43816Y-178647D02*
X-38738D01*
X-41277D01*
Y-163412D01*
X-43816Y-165951D01*
X103951Y-270091D02*
Y-254856D01*
X111568D01*
X114108Y-257395D01*
Y-262474D01*
X111568Y-265013D01*
X103951D01*
X129343Y-270091D02*
X119186D01*
X129343Y-259934D01*
Y-257395D01*
X126804Y-254856D01*
X121725D01*
X119186Y-257395D01*
X245592Y-252892D02*
X240513D01*
X243053D01*
Y-265588D01*
X240513Y-268127D01*
X237974D01*
X235435Y-265588D01*
X250670Y-255431D02*
X253209Y-252892D01*
X258288D01*
X260827Y-255431D01*
Y-257970D01*
X258288Y-260509D01*
X255748D01*
X258288D01*
X260827Y-263049D01*
Y-265588D01*
X258288Y-268127D01*
X253209D01*
X250670Y-265588D01*
X114444Y-283814D02*
X109365D01*
X111904D01*
Y-296510D01*
X109365Y-299049D01*
X106826D01*
X104287Y-296510D01*
X129679Y-299049D02*
X119522D01*
X129679Y-288892D01*
Y-286353D01*
X127140Y-283814D01*
X122061D01*
X119522Y-286353D01*
X216507Y-414864D02*
Y-430099D01*
X224125D01*
X226664Y-427560D01*
Y-417403D01*
X224125Y-414864D01*
X216507D01*
X241899Y-430099D02*
X231742D01*
X241899Y-419942D01*
Y-417403D01*
X239360Y-414864D01*
X234281D01*
X231742Y-417403D01*
X-130142Y-259885D02*
X-132682Y-257346D01*
X-137760D01*
X-140299Y-259885D01*
Y-270042D01*
X-137760Y-272581D01*
X-132682D01*
X-130142Y-270042D01*
X-125064Y-259885D02*
X-122525Y-257346D01*
X-117446D01*
X-114907Y-259885D01*
Y-262424D01*
X-117446Y-264963D01*
X-119986D01*
X-117446D01*
X-114907Y-267502D01*
Y-270042D01*
X-117446Y-272581D01*
X-122525D01*
X-125064Y-270042D01*
X52758Y-56645D02*
X50219Y-54106D01*
X45140D01*
X42601Y-56645D01*
Y-66802D01*
X45140Y-69341D01*
X50219D01*
X52758Y-66802D01*
X67993Y-69341D02*
X57836D01*
X67993Y-59184D01*
Y-56645D01*
X65454Y-54106D01*
X60375D01*
X57836Y-56645D01*
X55258Y-156645D02*
X52719Y-154106D01*
X47640D01*
X45101Y-156645D01*
Y-166802D01*
X47640Y-169341D01*
X52719D01*
X55258Y-166802D01*
X60336Y-169341D02*
X65414D01*
X62875D01*
Y-154106D01*
X60336Y-156645D01*
X127344Y-258183D02*
Y-273418D01*
X134962D01*
X137501Y-270879D01*
Y-260722D01*
X134962Y-258183D01*
X127344D01*
X142579Y-273418D02*
X147657D01*
X145118D01*
Y-258183D01*
X142579Y-260722D01*
X242584Y17138D02*
X237505D01*
X240044D01*
Y4442D01*
X237505Y1903D01*
X234966D01*
X232427Y4442D01*
X247662Y1903D02*
X252740D01*
X250201D01*
Y17138D01*
X247662Y14599D01*
X185475Y-193208D02*
Y-208443D01*
X195632D01*
X200710D02*
X205788D01*
X203249D01*
Y-193208D01*
X200710Y-195747D01*
X-42058Y-678D02*
Y14557D01*
X-34440D01*
X-31901Y12018D01*
Y6939D01*
X-34440Y4400D01*
X-42058D01*
X-26823Y-678D02*
X-21744D01*
X-24284D01*
Y14557D01*
X-26823Y12018D01*
X7749Y-259038D02*
Y-271734D01*
X10288Y-274273D01*
X15366D01*
X17906Y-271734D01*
Y-259038D01*
X22984Y-274273D02*
X28062D01*
X25523D01*
Y-259038D01*
X22984Y-261577D01*
D31*
X-191880Y-173240D02*
G03*
X-191880Y-173240I-1250J0D01*
G01*
X-245960Y-173240D02*
G03*
X-245960Y-173240I-1250J0D01*
G01*
X112500Y-135000D02*
G03*
X112500Y-135000I-52500J0D01*
G01*
X24250Y-284450D02*
G03*
X24250Y-284450I-1250J0D01*
G01*
X-39250Y-227250D02*
G03*
X-39250Y-227250I-1250J0D01*
G01*
D32*
X216430Y-438490D02*
G03*
X216430Y-438490I-500J0D01*
G01*
D33*
X-182380Y-176240D02*
X-174380D01*
Y-184240D02*
Y-176240D01*
X-182380Y-206240D02*
X-174380D01*
Y-198240D01*
X-236460Y-176240D02*
X-228460D01*
Y-184240D02*
Y-176240D01*
X-236460Y-206240D02*
X-228460D01*
Y-198240D01*
X-211800Y-340240D02*
Y-336240D01*
X-204800Y-340240D02*
Y-336240D01*
X-160560Y-340240D02*
Y-336240D01*
X-153560Y-340240D02*
Y-336240D01*
X-143480Y-340240D02*
Y-336240D01*
X-136480Y-340240D02*
Y-336240D01*
X-177640Y-340240D02*
Y-336240D01*
X-170640Y-340240D02*
Y-336240D01*
X-194720Y-340240D02*
Y-336240D01*
X-187720Y-340240D02*
Y-336240D01*
X235450Y-435650D02*
X259550D01*
Y-278150D01*
X235450D02*
X259550D01*
X235450Y-435650D02*
Y-278150D01*
X102300Y-278600D02*
X127700D01*
X102300Y-431000D02*
X127700D01*
X102300D02*
Y-278600D01*
X127700Y-431000D02*
Y-278600D01*
X-5400Y-60200D02*
Y-9400D01*
Y-60200D02*
X7300D01*
X-5400Y-9400D02*
X7300D01*
Y-60200D02*
Y-9400D01*
X-39266Y-17867D02*
X-5400D01*
X-43500Y-22100D02*
X-39266Y-17867D01*
X-43500Y-22100D02*
X-39266Y-26334D01*
X-5400D01*
X-39266Y-43267D02*
X-5400D01*
X-43500Y-47500D02*
X-39266Y-43267D01*
X-43500Y-47500D02*
X-39266Y-51733D01*
X-5400D01*
X232300Y-61450D02*
X257700D01*
Y-8150D01*
X232300D02*
X257700D01*
X232300Y-61450D02*
Y-8150D01*
X39500Y-337500D02*
X55500D01*
X39500Y-287500D02*
X55500D01*
Y-337500D02*
Y-287500D01*
X39500Y-337500D02*
Y-287500D01*
X201500Y-290000D02*
Y-289480D01*
Y-315520D02*
Y-315000D01*
X158500Y-289475D02*
X201500D01*
X158500Y-315525D02*
X201500D01*
X158500Y-290000D02*
Y-289480D01*
Y-315520D02*
Y-315000D01*
X177731Y-333890D02*
Y-321190D01*
Y-327540D02*
X184081Y-333890D01*
X177731Y-327540D02*
X184081Y-321190D01*
Y-333890D02*
Y-321190D01*
X135908Y-153422D02*
X152926D01*
X135908D02*
Y-85858D01*
X257320D01*
Y-153422D02*
Y-85858D01*
X152672Y-153422D02*
X257320D01*
X-47000Y-241750D02*
Y-233750D01*
X-39000D01*
X-17000Y-241750D02*
Y-233750D01*
X-25000D02*
X-17000D01*
M02*
