M48
;DRILL file {KiCad 4.0.7} date 11/16/17 22:38:28
;FORMAT={-:-/ absolute / metric / decimal}
FMAT,2
METRIC,TZ
T1C0.400
%
G90
G05
M71
T1
X1.59Y78.876
X1.6Y84.35
X1.6Y69.26
X1.65Y79.42
X1.65Y78.15
X1.65Y76.88
X1.65Y75.61
X1.65Y74.34
X1.65Y73.07
X1.65Y71.8
X1.65Y71.28
X1.65Y70.53
X1.8Y86.85
X1.85Y81.85
X2.361Y73.77
X2.425Y80.229
X3.05Y78.85
X3.09Y75.62
X3.3Y86.85
X3.35Y81.85
X3.5Y92.3
X3.57Y73.64
X3.6Y85.3
X3.6Y83.4
X3.85Y80.25
X4.475Y81.05
X4.625Y83.4
X4.7Y48.1
X5.79Y79.28
X5.875Y84.325
X6.16Y70.7
X6.175Y86.825
X6.225Y81.925
X6.925Y83.3
X7.01Y40.3
X7.01Y39.7
X7.01Y37.8
X7.01Y35.8
X7.01Y33.9
X7.01Y33.3
X7.01Y26.55
X7.01Y25.95
X7.01Y24.05
X7.01Y22.05
X7.01Y20.15
X7.01Y19.55
X7.01Y12.8
X7.01Y12.2
X7.01Y10.3
X7.01Y8.3
X7.01Y6.4
X7.01Y5.8
X7.5Y79.42
X7.5Y78.15
X7.5Y76.88
X7.5Y75.61
X7.5Y74.34
X7.5Y73.07
X7.5Y71.8
X7.5Y70.53
X7.675Y86.825
X7.725Y81.925
X7.85Y80.92
X7.875Y85.275
X7.875Y83.375
X8.83Y76.72
X8.85Y80.32
X8.98Y42.07
X8.98Y28.32
X8.98Y14.57
X9.71Y39.3
X9.71Y38.1
X9.71Y37.45
X9.71Y36.8
X9.71Y36.15
X9.71Y35.5
X9.71Y34.3
X9.71Y25.55
X9.71Y24.35
X9.71Y23.7
X9.71Y23.05
X9.71Y22.4
X9.71Y21.75
X9.71Y20.55
X9.71Y11.8
X9.71Y10.6
X9.71Y9.95
X9.71Y9.3
X9.71Y8.65
X9.71Y8.
X9.71Y6.8
X9.85Y76.7
X10.1Y81.8
X10.1Y78.128
X10.3Y50.6
X10.3Y48.3
X10.3Y46.
X10.48Y42.07
X10.48Y28.32
X10.48Y14.57
X10.62Y75.6
X11.1Y98.
X11.1Y67.
X11.1Y64.46
X11.1Y61.92
X11.1Y59.38
X11.1Y56.84
X11.1Y54.3
X11.12Y38.98
X11.12Y25.23
X11.12Y11.48
X11.693Y85.108
X11.693Y74.82
X12.22Y42.34
X12.22Y40.84
X12.22Y39.14
X12.22Y37.64
X12.22Y36.05
X12.22Y34.55
X12.22Y32.84
X12.22Y31.34
X12.22Y28.59
X12.22Y27.09
X12.22Y25.39
X12.22Y23.89
X12.22Y22.3
X12.22Y20.8
X12.22Y19.09
X12.22Y17.59
X12.22Y14.84
X12.22Y13.34
X12.22Y11.64
X12.22Y10.14
X12.22Y8.55
X12.22Y7.05
X12.22Y5.34
X12.22Y3.84
X12.28Y47.11
X12.555Y64.973
X13.054Y65.331
X13.274Y80.976
X13.33Y80.15
X13.42Y35.72
X13.42Y21.97
X13.42Y8.22
X13.55Y61.3
X13.56Y71.32
X13.57Y77.49
X13.6Y98.
X13.6Y56.3
X13.73Y65.64
X13.85Y84.25
X14.025Y67.701
X14.025Y66.909
X14.07Y76.28
X14.07Y42.28
X14.07Y41.33
X14.07Y40.38
X14.07Y28.53
X14.07Y27.58
X14.07Y26.63
X14.07Y14.78
X14.07Y13.83
X14.07Y12.88
X14.14Y37.13
X14.14Y23.38
X14.14Y9.63
X14.24Y62.34
X14.564Y87.397
X14.564Y72.531
X14.78Y34.06
X14.78Y31.87
X14.78Y20.31
X14.78Y18.12
X14.78Y6.56
X14.78Y4.37
X14.8Y78.175
X14.87Y98.
X14.95Y66.6
X14.95Y65.1
X14.95Y61.375
X14.95Y59.875
X14.95Y55.575
X14.95Y54.075
X15.15Y42.38
X15.15Y28.63
X15.15Y14.88
X15.27Y39.2
X15.27Y25.45
X15.27Y11.7
X15.298Y82.655
X15.65Y83.8
X15.65Y80.
X15.75Y76.
X15.85Y80.65
X15.85Y79.05
X15.85Y77.45
X16.14Y38.08
X16.14Y36.18
X16.14Y24.33
X16.14Y22.43
X16.14Y10.58
X16.14Y8.68
X16.2Y98.
X16.27Y42.28
X16.27Y41.33
X16.27Y40.38
X16.27Y28.53
X16.27Y27.58
X16.27Y26.63
X16.27Y14.78
X16.27Y13.83
X16.27Y12.88
X16.28Y34.06
X16.28Y31.87
X16.28Y20.31
X16.28Y18.12
X16.28Y6.56
X16.28Y4.37
X16.45Y73.95
X16.6Y48.3
X16.65Y83.55
X16.75Y66.
X16.75Y63.375
X16.75Y60.625
X16.75Y55.05
X16.775Y84.975
X16.95Y69.
X16.95Y57.75
X16.99Y56.77
X17.Y68.02
X17.375Y80.3
X17.49Y63.31
X17.65Y84.75
X17.65Y82.85
X17.65Y80.95
X17.65Y79.05
X17.75Y76.95
X17.75Y75.05
X18.14Y52.77
X18.143Y88.214
X18.143Y71.714
X18.25Y63.375
X18.45Y69.
X18.45Y57.75
X18.61Y47.07
X18.68Y98.025
X18.75Y66.95
X18.75Y65.05
X18.75Y61.575
X18.75Y59.675
X18.75Y56.
X18.75Y54.1
X18.8Y84.475
X19.14Y52.88
X19.2Y41.95
X19.2Y39.41
X19.2Y36.87
X19.2Y34.33
X19.2Y31.79
X19.2Y28.2
X19.2Y25.66
X19.2Y23.12
X19.2Y20.58
X19.2Y18.04
X19.2Y14.45
X19.2Y11.91
X19.2Y9.37
X19.2Y6.83
X19.2Y4.29
X19.49Y51.43
X19.49Y45.58
X19.54Y72.93
X19.6Y84.5
X19.6Y81.05
X19.6Y77.
X20.095Y59.28
X20.17Y73.95
X20.2Y54.1
X20.25Y80.65
X20.25Y79.05
X20.25Y77.45
X20.425Y82.011
X20.76Y51.43
X20.76Y45.58
X21.1Y84.5
X21.1Y81.05
X21.1Y77.
X21.11Y73.54
X21.125Y69.938
X21.254Y82.84
X21.481Y52.28
X21.52Y70.86
X21.668Y72.27
X21.723Y87.397
X21.89Y63.99
X21.911Y47.741
X21.95Y66.6
X21.95Y65.1
X21.95Y56.
X21.95Y54.5
X22.Y57.05
X22.03Y51.43
X22.03Y45.58
X22.1Y61.375
X22.1Y59.875
X22.78Y46.132
X22.85Y69.96
X22.998Y52.28
X23.01Y40.3
X23.01Y39.7
X23.01Y37.8
X23.01Y35.8
X23.01Y33.9
X23.01Y33.3
X23.01Y26.55
X23.01Y25.95
X23.01Y24.05
X23.01Y22.05
X23.01Y20.15
X23.01Y19.55
X23.01Y12.8
X23.01Y12.2
X23.01Y10.3
X23.01Y8.3
X23.01Y6.4
X23.01Y5.8
X23.17Y68.31
X23.23Y71.13
X23.3Y51.43
X23.3Y45.58
X23.7Y62.35
X23.75Y66.
X23.75Y60.625
X23.75Y55.05
X23.845Y72.902
X23.845Y72.302
X23.9Y63.375
X23.95Y57.725
X24.026Y44.9
X24.1Y69.
X24.1Y47.95
X24.225Y56.73
X24.242Y52.427
X24.57Y51.43
X24.57Y45.58
X24.593Y85.108
X24.593Y74.82
X24.726Y47.766
X24.85Y61.55
X24.98Y42.07
X24.98Y28.32
X24.98Y14.57
X25.13Y52.97
X25.4Y63.375
X25.45Y57.725
X25.45Y47.4
X25.6Y69.
X25.71Y39.3
X25.71Y38.1
X25.71Y37.45
X25.71Y36.8
X25.71Y36.15
X25.71Y35.5
X25.71Y34.3
X25.71Y25.55
X25.71Y24.35
X25.71Y23.7
X25.71Y23.05
X25.71Y22.4
X25.71Y21.75
X25.71Y20.55
X25.71Y11.8
X25.71Y10.6
X25.71Y9.95
X25.71Y9.3
X25.71Y8.65
X25.71Y8.
X25.71Y6.8
X25.75Y66.95
X25.75Y65.05
X25.75Y61.575
X25.75Y59.675
X25.75Y56.
X25.75Y54.1
X25.84Y51.43
X25.84Y45.58
X25.916Y47.022
X26.186Y81.8
X26.186Y78.128
X26.48Y42.07
X26.48Y28.32
X26.48Y14.57
X27.11Y51.43
X27.11Y45.58
X27.12Y38.98
X27.12Y25.23
X27.12Y11.48
X27.135Y49.865
X27.14Y67.945
X27.18Y52.72
X27.2Y62.95
X27.2Y56.8
X27.208Y60.575
X27.636Y68.299
X27.85Y64.7
X27.85Y60.55
X27.9Y69.925
X28.22Y42.34
X28.22Y40.84
X28.22Y39.14
X28.22Y37.64
X28.22Y36.05
X28.22Y34.55
X28.22Y32.84
X28.22Y31.34
X28.22Y28.59
X28.22Y27.09
X28.22Y25.39
X28.22Y23.89
X28.22Y22.3
X28.22Y20.8
X28.22Y19.09
X28.22Y17.59
X28.22Y14.84
X28.22Y13.34
X28.22Y11.64
X28.22Y10.14
X28.22Y8.55
X28.22Y7.05
X28.22Y5.34
X28.22Y3.84
X28.38Y51.43
X28.38Y45.58
X28.84Y98.025
X29.Y61.375
X29.Y60.65
X29.Y59.875
X29.Y55.65
X29.Y54.15
X29.011Y68.484
X29.044Y57.47
X29.3Y64.1
X29.42Y35.72
X29.42Y21.97
X29.42Y8.22
X29.5Y78.35
X29.525Y75.025
X29.92Y55.95
X30.07Y42.28
X30.07Y41.33
X30.07Y40.38
X30.07Y28.53
X30.07Y27.58
X30.07Y26.63
X30.07Y14.78
X30.07Y13.83
X30.07Y12.88
X30.11Y98.025
X30.14Y37.13
X30.14Y23.38
X30.14Y9.63
X30.25Y69.5
X30.25Y67.8
X30.25Y65.65
X30.78Y34.06
X30.78Y31.87
X30.78Y20.31
X30.78Y18.12
X30.78Y6.56
X30.78Y4.37
X30.8Y63.375
X30.8Y60.625
X30.8Y55.125
X30.91Y62.41
X31.Y87.3
X31.Y85.8
X31.Y57.875
X31.05Y83.1
X31.05Y78.9
X31.05Y77.4
X31.15Y74.85
X31.15Y42.38
X31.15Y28.63
X31.15Y14.88
X31.27Y39.2
X31.27Y25.45
X31.27Y11.7
X31.38Y98.025
X31.75Y69.5
X31.75Y67.8
X31.75Y65.65
X31.91Y80.35
X32.14Y38.08
X32.14Y36.18
X32.14Y24.33
X32.14Y22.43
X32.14Y10.58
X32.14Y8.68
X32.27Y42.28
X32.27Y41.33
X32.27Y40.38
X32.27Y28.53
X32.27Y27.58
X32.27Y26.63
X32.27Y14.78
X32.27Y13.83
X32.27Y12.88
X32.28Y34.06
X32.28Y31.87
X32.28Y20.31
X32.28Y18.12
X32.28Y6.56
X32.28Y4.37
X32.3Y63.375
X32.35Y66.6
X32.5Y57.875
X32.65Y98.025
X32.8Y61.575
X32.8Y59.675
X32.8Y56.075
X32.8Y54.175
X32.95Y78.95
X32.95Y77.45
X33.Y87.3
X33.Y85.8
X33.03Y48.1
X33.05Y84.05
X33.05Y82.15
X33.15Y75.8
X33.15Y73.9
X33.3Y92.3
X33.8Y53.57
X33.97Y63.88
X34.04Y58.14
X34.24Y52.95
X35.15Y87.05
X35.15Y82.05
X35.2Y78.7
X35.2Y73.7
X35.2Y41.95
X35.2Y39.41
X35.2Y36.87
X35.2Y34.33
X35.2Y31.79
X35.2Y28.2
X35.2Y25.66
X35.2Y23.12
X35.2Y20.58
X35.2Y18.04
X35.2Y14.45
X35.2Y11.91
X35.2Y9.37
X35.2Y6.83
X35.2Y4.29
X35.5Y67.
X35.5Y64.46
X35.5Y61.92
X35.5Y59.38
X35.5Y56.84
X35.5Y54.3
X35.55Y98.
X38.59Y78.876
X38.6Y84.35
X38.6Y72.343
X38.6Y69.26
X38.65Y79.42
X38.65Y78.15
X38.65Y76.88
X38.65Y75.61
X38.65Y74.34
X38.65Y73.07
X38.65Y71.8
X38.65Y70.53
X38.8Y86.85
X38.85Y81.85
X39.01Y40.3
X39.01Y39.7
X39.01Y37.8
X39.01Y35.8
X39.01Y33.9
X39.01Y33.3
X39.01Y26.55
X39.01Y25.95
X39.01Y24.05
X39.01Y22.05
X39.01Y20.15
X39.01Y19.55
X39.01Y12.8
X39.01Y12.2
X39.01Y10.3
X39.01Y8.3
X39.01Y6.4
X39.01Y5.8
X39.361Y73.77
X39.425Y80.229
X40.05Y78.85
X40.09Y75.62
X40.3Y86.85
X40.35Y81.85
X40.5Y92.3
X40.57Y73.64
X40.6Y85.3
X40.6Y83.4
X40.785Y80.185
X40.95Y80.85
X40.98Y42.07
X40.98Y28.32
X40.98Y14.57
X41.625Y83.4
X41.7Y48.1
X41.71Y39.3
X41.71Y38.1
X41.71Y37.45
X41.71Y36.8
X41.71Y36.15
X41.71Y35.5
X41.71Y34.3
X41.71Y25.55
X41.71Y24.35
X41.71Y23.7
X41.71Y23.05
X41.71Y22.4
X41.71Y21.75
X41.71Y20.55
X41.71Y11.8
X41.71Y10.6
X41.71Y9.95
X41.71Y9.3
X41.71Y8.65
X41.71Y8.
X41.71Y6.8
X42.48Y42.07
X42.48Y28.32
X42.48Y14.57
X42.875Y84.325
X43.073Y79.606
X43.12Y38.98
X43.12Y25.23
X43.12Y11.48
X43.16Y70.7
X43.175Y86.825
X43.225Y81.925
X43.925Y83.3
X44.22Y42.34
X44.22Y40.84
X44.22Y39.14
X44.22Y37.64
X44.22Y36.05
X44.22Y34.55
X44.22Y32.84
X44.22Y31.34
X44.22Y28.59
X44.22Y27.09
X44.22Y25.39
X44.22Y23.89
X44.22Y22.3
X44.22Y20.8
X44.22Y19.09
X44.22Y17.59
X44.22Y14.84
X44.22Y13.34
X44.22Y11.64
X44.22Y10.14
X44.22Y8.55
X44.22Y7.05
X44.22Y5.34
X44.22Y3.84
X44.5Y79.42
X44.5Y78.15
X44.5Y76.88
X44.5Y75.61
X44.5Y74.34
X44.5Y73.07
X44.5Y71.8
X44.5Y70.53
X44.675Y86.825
X44.725Y81.925
X44.85Y80.92
X44.875Y85.275
X44.875Y83.375
X45.42Y35.72
X45.42Y21.97
X45.42Y8.22
X45.85Y80.32
X46.07Y42.28
X46.07Y41.33
X46.07Y40.38
X46.07Y28.53
X46.07Y27.58
X46.07Y26.63
X46.07Y14.78
X46.07Y13.83
X46.07Y12.88
X46.14Y37.13
X46.14Y23.38
X46.14Y9.63
X46.78Y34.06
X46.78Y31.87
X46.78Y20.31
X46.78Y18.12
X46.78Y6.56
X46.78Y4.37
X46.947Y76.776
X47.15Y42.38
X47.15Y28.63
X47.15Y14.88
X47.27Y39.2
X47.27Y25.45
X47.27Y11.7
X47.3Y50.6
X47.3Y48.3
X47.3Y46.
X47.498Y77.639
X47.6Y75.6
X48.1Y98.
X48.1Y67.
X48.1Y64.46
X48.1Y61.92
X48.1Y59.38
X48.1Y56.84
X48.1Y54.3
X48.14Y38.08
X48.14Y36.18
X48.14Y24.33
X48.14Y22.43
X48.14Y10.58
X48.14Y8.68
X48.15Y73.365
X48.27Y42.28
X48.27Y41.33
X48.27Y40.38
X48.27Y28.53
X48.27Y27.58
X48.27Y26.63
X48.27Y14.78
X48.27Y13.83
X48.27Y12.88
X48.28Y34.06
X48.28Y31.87
X48.28Y20.31
X48.28Y18.12
X48.28Y6.56
X48.28Y4.37
X49.05Y70.7
X49.125Y78.2
X49.28Y47.11
X49.393Y84.464
X49.393Y79.964
X49.393Y75.464
X49.729Y76.77
X50.Y77.5
X50.3Y81.35
X50.6Y98.
X51.045Y62.705
X51.143Y87.964
X51.143Y71.964
X51.2Y41.95
X51.2Y39.41
X51.2Y36.87
X51.2Y34.33
X51.2Y31.79
X51.2Y28.2
X51.2Y25.66
X51.2Y23.12
X51.2Y20.58
X51.2Y18.04
X51.2Y14.45
X51.2Y11.91
X51.2Y9.37
X51.2Y6.83
X51.2Y4.29
X51.55Y81.85
X51.55Y80.525
X51.775Y78.425
X51.85Y67.45
X51.87Y98.
X51.95Y66.6
X51.95Y65.1
X51.95Y61.375
X51.95Y59.875
X51.95Y55.575
X51.95Y54.075
X52.65Y83.8
X52.65Y80.
X52.75Y76.
X52.85Y80.65
X52.85Y79.05
X52.85Y77.45
X53.083Y63.467
X53.083Y74.725
X53.2Y98.
X53.2Y62.08
X53.223Y82.94
X53.6Y48.3
X53.75Y66.
X53.75Y63.375
X53.75Y60.625
X53.75Y55.05
X53.85Y80.825
X53.95Y69.
X53.95Y57.75
X53.95Y56.8
X54.Y68.02
X54.6Y56.3
X54.65Y84.75
X54.65Y82.85
X54.65Y80.95
X54.65Y79.05
X54.75Y76.95
X54.75Y75.05
X55.01Y40.3
X55.01Y39.7
X55.01Y37.8
X55.01Y35.8
X55.01Y33.9
X55.01Y33.3
X55.01Y26.55
X55.01Y25.95
X55.01Y24.05
X55.01Y22.05
X55.01Y20.15
X55.01Y19.55
X55.01Y12.8
X55.01Y12.2
X55.01Y10.3
X55.01Y8.3
X55.01Y6.4
X55.01Y5.8
X55.14Y52.77
X55.143Y88.964
X55.25Y63.375
X55.45Y69.
X55.45Y57.75
X55.61Y47.07
X55.68Y98.025
X55.75Y66.95
X55.75Y65.05
X55.75Y61.575
X55.75Y59.675
X55.75Y56.
X55.75Y54.1
X56.037Y52.8
X56.49Y51.43
X56.49Y45.58
X56.6Y84.5
X56.6Y81.05
X56.6Y77.
X56.98Y42.07
X56.98Y28.32
X56.98Y14.57
X57.23Y53.593
X57.25Y80.65
X57.25Y79.05
X57.25Y77.45
X57.425Y82.011
X57.71Y39.3
X57.71Y38.1
X57.71Y37.45
X57.71Y36.8
X57.71Y36.15
X57.71Y35.5
X57.71Y34.3
X57.71Y25.55
X57.71Y24.35
X57.71Y23.7
X57.71Y23.05
X57.71Y22.4
X57.71Y21.75
X57.71Y20.55
X57.71Y11.8
X57.71Y10.6
X57.71Y9.95
X57.71Y9.3
X57.71Y8.65
X57.71Y8.
X57.71Y6.8
X57.76Y51.43
X57.76Y45.58
X57.95Y63.99
X57.95Y58.05
X58.1Y84.5
X58.1Y81.05
X58.1Y77.
X58.254Y82.84
X58.455Y73.175
X58.48Y42.07
X58.48Y28.32
X58.48Y14.57
X58.61Y52.53
X58.8Y67.4
X58.911Y47.741
X58.95Y66.6
X58.95Y65.1
X58.95Y55.575
X58.95Y54.075
X59.03Y51.43
X59.03Y45.58
X59.05Y62.15
X59.1Y61.375
X59.1Y59.875
X59.12Y38.98
X59.12Y25.23
X59.12Y11.48
X59.143Y87.964
X59.143Y71.964
X59.78Y46.132
X59.843Y68.31
X60.101Y52.53
X60.22Y42.34
X60.22Y40.84
X60.22Y39.14
X60.22Y37.64
X60.22Y36.05
X60.22Y34.55
X60.22Y32.84
X60.22Y31.34
X60.22Y28.59
X60.22Y27.09
X60.22Y25.39
X60.22Y23.89
X60.22Y22.3
X60.22Y20.8
X60.22Y19.09
X60.22Y17.59
X60.22Y14.84
X60.22Y13.34
X60.22Y11.64
X60.22Y10.14
X60.22Y8.55
X60.22Y7.05
X60.22Y5.34
X60.22Y3.84
X60.283Y57.75
X60.3Y51.43
X60.3Y45.58
X60.5Y76.9
X60.75Y66.
X60.75Y60.625
X60.75Y55.05
X60.893Y84.464
X60.893Y79.964
X60.893Y75.464
X60.9Y63.375
X60.95Y57.725
X61.026Y44.9
X61.075Y62.35
X61.1Y69.
X61.1Y47.95
X61.14Y52.584
X61.42Y35.72
X61.42Y21.97
X61.42Y8.22
X61.568Y56.783
X61.57Y51.43
X61.57Y45.58
X61.726Y47.766
X62.07Y42.28
X62.07Y41.33
X62.07Y40.38
X62.07Y28.53
X62.07Y27.58
X62.07Y26.63
X62.07Y14.78
X62.07Y13.83
X62.07Y12.88
X62.13Y52.97
X62.14Y37.13
X62.14Y23.38
X62.14Y9.63
X62.4Y63.375
X62.45Y57.725
X62.45Y47.4
X62.5Y75.05
X62.6Y69.
X62.75Y66.95
X62.75Y65.05
X62.75Y61.575
X62.75Y59.675
X62.75Y56.
X62.75Y54.1
X62.78Y34.06
X62.78Y31.87
X62.78Y20.31
X62.78Y18.12
X62.78Y6.56
X62.78Y4.37
X62.84Y51.43
X62.84Y45.58
X62.916Y47.022
X63.15Y42.38
X63.15Y28.63
X63.15Y14.88
X63.27Y39.2
X63.27Y25.45
X63.27Y11.7
X63.4Y70.76
X64.11Y51.43
X64.11Y45.58
X64.135Y49.865
X64.14Y38.08
X64.14Y36.18
X64.14Y24.33
X64.14Y22.43
X64.14Y10.58
X64.14Y8.68
X64.18Y52.72
X64.27Y42.28
X64.27Y41.33
X64.27Y40.38
X64.27Y28.53
X64.27Y27.58
X64.27Y26.63
X64.27Y14.78
X64.27Y13.83
X64.27Y12.88
X64.28Y34.06
X64.28Y31.87
X64.28Y20.31
X64.28Y18.12
X64.28Y6.56
X64.28Y4.37
X64.35Y70.787
X64.85Y55.7
X64.971Y69.871
X65.38Y51.43
X65.38Y45.58
X65.8Y62.4
X65.84Y98.025
X66.Y61.375
X66.Y59.875
X66.Y55.65
X66.Y54.15
X66.5Y83.75
X66.5Y78.35
X66.525Y75.025
X66.92Y55.95
X67.11Y98.025
X67.2Y41.95
X67.2Y39.41
X67.2Y36.87
X67.2Y34.33
X67.2Y31.79
X67.2Y28.2
X67.2Y25.66
X67.2Y23.12
X67.2Y20.58
X67.2Y18.04
X67.2Y14.45
X67.2Y11.91
X67.2Y9.37
X67.2Y6.83
X67.2Y4.29
X67.25Y69.5
X67.25Y67.8
X67.25Y65.65
X67.7Y79.96
X67.8Y63.375
X67.8Y60.625
X67.8Y55.125
X67.91Y62.41
X68.Y87.3
X68.Y85.8
X68.Y57.875
X68.05Y83.1
X68.05Y78.9
X68.05Y77.4
X68.15Y74.85
X68.38Y98.025
X68.75Y69.5
X68.75Y67.8
X68.75Y65.65
X69.3Y63.375
X69.35Y66.6
X69.5Y57.875
X69.65Y98.025
X69.8Y61.575
X69.8Y59.675
X69.8Y56.075
X69.8Y54.175
X69.95Y78.95
X69.95Y77.45
X70.Y87.3
X70.Y85.8
X70.03Y48.1
X70.05Y84.05
X70.05Y82.15
X70.15Y75.8
X70.15Y73.9
X70.3Y92.3
X70.8Y53.57
X70.97Y63.88
X71.04Y58.14
X71.24Y52.95
X72.15Y87.05
X72.15Y82.05
X72.2Y78.7
X72.2Y73.7
X72.5Y67.
X72.5Y64.46
X72.5Y61.92
X72.5Y59.38
X72.5Y56.84
X72.5Y54.3
X72.55Y98.
X75.1Y56.85
X75.1Y55.35
X75.125Y83.95
X75.2Y60.075
X75.2Y58.575
X75.55Y52.45
X75.62Y57.54
X76.22Y87.7
X76.25Y59.5
X76.27Y83.68
X76.52Y85.3
X76.73Y81.29
X76.995Y79.45
X76.995Y74.05
X77.Y42.05
X77.Y39.51
X77.Y36.97
X77.Y34.43
X77.Y31.89
X77.Y29.35
X77.Y26.05
X77.Y23.51
X77.Y20.97
X77.Y18.43
X77.Y15.89
X77.Y13.35
X77.128Y62.8
X77.15Y56.8
X77.15Y55.3
X77.2Y60.075
X77.2Y58.575
X77.5Y93.1
X77.55Y53.4
X77.55Y51.5
X77.8Y47.2
X77.891Y72.87
X78.15Y57.45
X78.161Y64.697
X78.2Y58.9
X78.22Y62.584
X78.265Y79.45
X78.265Y74.05
X78.496Y72.624
X78.52Y87.7
X78.57Y83.68
X78.75Y77.8
X78.766Y63.581
X79.048Y61.43
X79.2Y60.075
X79.2Y58.575
X79.2Y56.55
X79.2Y55.05
X79.296Y64.682
X79.395Y65.535
X79.414Y69.15
X79.45Y57.75
X79.535Y79.45
X79.535Y74.05
X80.12Y87.7
X80.15Y51.45
X80.17Y83.68
X80.206Y58.656
X80.25Y60.8
X80.78Y78.05
X80.8Y82.29
X80.805Y79.45
X80.805Y74.05
X81.Y58.
X81.092Y54.135
X81.1Y53.45
X81.575Y56.153
X81.7Y62.8
X81.95Y60.
X82.05Y52.
X82.05Y51.45
X82.42Y87.7
X82.47Y83.68
X82.72Y85.3
X82.798Y60.089
X82.8Y56.55
X82.8Y55.05
X82.9Y58.
X84.27Y38.185
X84.27Y36.155
X84.27Y34.125
X84.27Y22.185
X84.27Y20.155
X84.27Y18.125
X85.Y75.45
X85.1Y67.
X85.1Y64.46
X85.1Y61.92
X85.1Y59.38
X85.1Y56.84
X85.1Y54.3
X85.2Y98.
X86.58Y81.15
X86.81Y37.17
X86.81Y35.14
X86.81Y33.11
X86.81Y21.17
X86.81Y19.14
X86.81Y17.11
X87.05Y56.175
X87.15Y86.7
X87.41Y60.91
X87.72Y96.83
X88.1Y64.75
X88.13Y51.69
X88.13Y45.69
X88.225Y97.335
X88.89Y98.
X89.11Y41.65
X89.11Y29.65
X89.11Y25.65
X89.11Y13.65
X89.4Y87.825
X89.4Y85.325
X89.925Y98.
X90.03Y55.25
X90.03Y53.4
X90.05Y66.1
X90.05Y61.3
X90.13Y51.69
X91.341Y69.351
X91.35Y67.55
X91.65Y86.7
X91.7Y79.05
X92.1Y64.75
X92.13Y51.69
X92.13Y45.69
X93.35Y66.1
X94.05Y61.3
X94.625Y98.
X94.96Y75.45
X95.35Y98.
X95.76Y56.21
X95.875Y97.2
X96.2Y98.
X96.2Y92.5
X96.78Y48.88
X96.925Y64.75
X98.25Y98.
X98.25Y67.
X98.25Y64.46
X98.25Y61.92
X98.25Y59.38
X98.25Y56.84
X98.25Y54.3
T0
M30
