%TF.GenerationSoftware,KiCad,Pcbnew,4.0.7*%
%TF.CreationDate,2017-11-15T19:14:24+08:00*%
%TF.ProjectId,nixie_tube,6E697869655F747562652E6B69636164,rev?*%
%TF.FileFunction,Legend,Bot*%
%FSLAX46Y46*%
G04 Gerber Fmt 4.6, Leading zero omitted, Abs format (unit mm)*
G04 Created by KiCad (PCBNEW 4.0.7) date 11/15/17 19:14:24*
%MOMM*%
%LPD*%
G01*
G04 APERTURE LIST*
%ADD10C,0.100000*%
%ADD11C,0.120000*%
%ADD12C,0.150000*%
G04 APERTURE END LIST*
D10*
D11*
X4420000Y-3630000D02*
X-780000Y-3630000D01*
X-780000Y-7270000D02*
X4420000Y-7270000D01*
X4470000Y-7650000D02*
X-730000Y-7650000D01*
X-730000Y-11290000D02*
X4470000Y-11290000D01*
X6140000Y-40180000D02*
X6140000Y-37580000D01*
X6140000Y-37580000D02*
X-2490000Y-37580000D01*
X-2490000Y-37580000D02*
X-2490000Y-40180000D01*
X-2490000Y-40180000D02*
X6140000Y-40180000D01*
X6570000Y-39230000D02*
X6140000Y-39230000D01*
X6570000Y-38470000D02*
X6140000Y-38470000D01*
X6140000Y-40000000D02*
X-2490000Y-40000000D01*
X6140000Y-39880000D02*
X-2490000Y-39880000D01*
X6140000Y-39760000D02*
X-2490000Y-39760000D01*
X6140000Y-39640000D02*
X-2490000Y-39640000D01*
X6140000Y-39520000D02*
X-2490000Y-39520000D01*
X6140000Y-39400000D02*
X-2490000Y-39400000D01*
X6140000Y-39280000D02*
X-2490000Y-39280000D01*
X6140000Y-39160000D02*
X-2490000Y-39160000D01*
X6140000Y-39040000D02*
X-2490000Y-39040000D01*
X6140000Y-38920000D02*
X-2490000Y-38920000D01*
X6140000Y-38800000D02*
X-2490000Y-38800000D01*
X6140000Y-38680000D02*
X-2490000Y-38680000D01*
X6140000Y-38560000D02*
X-2490000Y-38560000D01*
X6140000Y-38440000D02*
X-2490000Y-38440000D01*
X6140000Y-38320000D02*
X-2490000Y-38320000D01*
X6140000Y-38200000D02*
X-2490000Y-38200000D01*
X6140000Y-38080000D02*
X-2490000Y-38080000D01*
X6140000Y-37960000D02*
X-2490000Y-37960000D01*
X6140000Y-37840000D02*
X-2490000Y-37840000D01*
X6140000Y-37720000D02*
X-2490000Y-37720000D01*
X6140000Y-37600000D02*
X-2490000Y-37600000D01*
X6140000Y-37480000D02*
X-2490000Y-37480000D01*
X6140000Y-37580000D02*
X6140000Y-35040000D01*
X6140000Y-35040000D02*
X-2490000Y-35040000D01*
X-2490000Y-35040000D02*
X-2490000Y-37580000D01*
X-2490000Y-37580000D02*
X6140000Y-37580000D01*
X6570000Y-36690000D02*
X6140000Y-36690000D01*
X6570000Y-35930000D02*
X6140000Y-35930000D01*
X6140000Y-35040000D02*
X6140000Y-32500000D01*
X6140000Y-32500000D02*
X-2490000Y-32500000D01*
X-2490000Y-32500000D02*
X-2490000Y-35040000D01*
X-2490000Y-35040000D02*
X6140000Y-35040000D01*
X6570000Y-34150000D02*
X6140000Y-34150000D01*
X6570000Y-33390000D02*
X6140000Y-33390000D01*
X6140000Y-32500000D02*
X6140000Y-29960000D01*
X6140000Y-29960000D02*
X-2490000Y-29960000D01*
X-2490000Y-29960000D02*
X-2490000Y-32500000D01*
X-2490000Y-32500000D02*
X6140000Y-32500000D01*
X6570000Y-31610000D02*
X6140000Y-31610000D01*
X6570000Y-30850000D02*
X6140000Y-30850000D01*
X6140000Y-29960000D02*
X6140000Y-27420000D01*
X6140000Y-27420000D02*
X-2490000Y-27420000D01*
X-2490000Y-27420000D02*
X-2490000Y-29960000D01*
X-2490000Y-29960000D02*
X6140000Y-29960000D01*
X6570000Y-29070000D02*
X6140000Y-29070000D01*
X6570000Y-28310000D02*
X6140000Y-28310000D01*
X6140000Y-27420000D02*
X6140000Y-24820000D01*
X6140000Y-24820000D02*
X-2490000Y-24820000D01*
X-2490000Y-24820000D02*
X-2490000Y-27420000D01*
X-2490000Y-27420000D02*
X6140000Y-27420000D01*
X6570000Y-26530000D02*
X6140000Y-26530000D01*
X6570000Y-25770000D02*
X6140000Y-25770000D01*
X7600000Y-40120000D02*
X8870000Y-40120000D01*
X8870000Y-40120000D02*
X8870000Y-38850000D01*
X22190000Y-40180000D02*
X22190000Y-24820000D01*
X22190000Y-24820000D02*
X24850000Y-24820000D01*
X24850000Y-24820000D02*
X24850000Y-40180000D01*
X24850000Y-40180000D02*
X22190000Y-40180000D01*
X24850000Y-39230000D02*
X30850000Y-39230000D01*
X30850000Y-39230000D02*
X30850000Y-38470000D01*
X30850000Y-38470000D02*
X24850000Y-38470000D01*
X24850000Y-39170000D02*
X30850000Y-39170000D01*
X24850000Y-39050000D02*
X30850000Y-39050000D01*
X24850000Y-38930000D02*
X30850000Y-38930000D01*
X24850000Y-38810000D02*
X30850000Y-38810000D01*
X24850000Y-38690000D02*
X30850000Y-38690000D01*
X24850000Y-38570000D02*
X30850000Y-38570000D01*
X21860000Y-39230000D02*
X22190000Y-39230000D01*
X21860000Y-38470000D02*
X22190000Y-38470000D01*
X22190000Y-37580000D02*
X24850000Y-37580000D01*
X24850000Y-36690000D02*
X30850000Y-36690000D01*
X30850000Y-36690000D02*
X30850000Y-35930000D01*
X30850000Y-35930000D02*
X24850000Y-35930000D01*
X21792929Y-36690000D02*
X22190000Y-36690000D01*
X21792929Y-35930000D02*
X22190000Y-35930000D01*
X22190000Y-35040000D02*
X24850000Y-35040000D01*
X24850000Y-34150000D02*
X30850000Y-34150000D01*
X30850000Y-34150000D02*
X30850000Y-33390000D01*
X30850000Y-33390000D02*
X24850000Y-33390000D01*
X21792929Y-34150000D02*
X22190000Y-34150000D01*
X21792929Y-33390000D02*
X22190000Y-33390000D01*
X22190000Y-32500000D02*
X24850000Y-32500000D01*
X24850000Y-31610000D02*
X30850000Y-31610000D01*
X30850000Y-31610000D02*
X30850000Y-30850000D01*
X30850000Y-30850000D02*
X24850000Y-30850000D01*
X21792929Y-31610000D02*
X22190000Y-31610000D01*
X21792929Y-30850000D02*
X22190000Y-30850000D01*
X22190000Y-29960000D02*
X24850000Y-29960000D01*
X24850000Y-29070000D02*
X30850000Y-29070000D01*
X30850000Y-29070000D02*
X30850000Y-28310000D01*
X30850000Y-28310000D02*
X24850000Y-28310000D01*
X21792929Y-29070000D02*
X22190000Y-29070000D01*
X21792929Y-28310000D02*
X22190000Y-28310000D01*
X22190000Y-27420000D02*
X24850000Y-27420000D01*
X24850000Y-26530000D02*
X30850000Y-26530000D01*
X30850000Y-26530000D02*
X30850000Y-25770000D01*
X30850000Y-25770000D02*
X24850000Y-25770000D01*
X21792929Y-26530000D02*
X22190000Y-26530000D01*
X21792929Y-25770000D02*
X22190000Y-25770000D01*
X19480000Y-38850000D02*
X19480000Y-40120000D01*
X19480000Y-40120000D02*
X20750000Y-40120000D01*
X6260000Y6180000D02*
X6260000Y3520000D01*
X6260000Y3520000D02*
X3600000Y3520000D01*
X3600000Y3520000D02*
X3600000Y6180000D01*
X3600000Y6180000D02*
X6260000Y6180000D01*
X3600000Y5230000D02*
X-2400000Y5230000D01*
X-2400000Y5230000D02*
X-2400000Y4470000D01*
X-2400000Y4470000D02*
X3600000Y4470000D01*
X3600000Y5170000D02*
X-2400000Y5170000D01*
X3600000Y5050000D02*
X-2400000Y5050000D01*
X3600000Y4930000D02*
X-2400000Y4930000D01*
X3600000Y4810000D02*
X-2400000Y4810000D01*
X3600000Y4690000D02*
X-2400000Y4690000D01*
X3600000Y4570000D02*
X-2400000Y4570000D01*
X6590000Y5230000D02*
X6260000Y5230000D01*
X6590000Y4470000D02*
X6260000Y4470000D01*
X8970000Y4850000D02*
X8970000Y6120000D01*
X8970000Y6120000D02*
X7700000Y6120000D01*
X22210000Y6180000D02*
X22210000Y3520000D01*
X22210000Y3520000D02*
X30840000Y3520000D01*
X30840000Y3520000D02*
X30840000Y6180000D01*
X30840000Y6180000D02*
X22210000Y6180000D01*
X22210000Y6180000D02*
X22210000Y3580000D01*
X22210000Y3580000D02*
X30840000Y3580000D01*
X30840000Y3580000D02*
X30840000Y6180000D01*
X30840000Y6180000D02*
X22210000Y6180000D01*
X21780000Y5230000D02*
X22210000Y5230000D01*
X21780000Y4470000D02*
X22210000Y4470000D01*
X22210000Y6000000D02*
X30840000Y6000000D01*
X22210000Y5880000D02*
X30840000Y5880000D01*
X22210000Y5760000D02*
X30840000Y5760000D01*
X22210000Y5640000D02*
X30840000Y5640000D01*
X22210000Y5520000D02*
X30840000Y5520000D01*
X22210000Y5400000D02*
X30840000Y5400000D01*
X22210000Y5280000D02*
X30840000Y5280000D01*
X22210000Y5160000D02*
X30840000Y5160000D01*
X22210000Y5040000D02*
X30840000Y5040000D01*
X22210000Y4920000D02*
X30840000Y4920000D01*
X22210000Y4800000D02*
X30840000Y4800000D01*
X22210000Y4680000D02*
X30840000Y4680000D01*
X22210000Y4560000D02*
X30840000Y4560000D01*
X22210000Y4440000D02*
X30840000Y4440000D01*
X22210000Y4320000D02*
X30840000Y4320000D01*
X22210000Y4200000D02*
X30840000Y4200000D01*
X22210000Y4080000D02*
X30840000Y4080000D01*
X22210000Y3960000D02*
X30840000Y3960000D01*
X22210000Y3840000D02*
X30840000Y3840000D01*
X22210000Y3720000D02*
X30840000Y3720000D01*
X22210000Y3600000D02*
X30840000Y3600000D01*
X22210000Y3480000D02*
X30840000Y3480000D01*
X20750000Y6120000D02*
X19480000Y6120000D01*
X19480000Y6120000D02*
X19480000Y4850000D01*
D12*
X1986666Y-8502381D02*
X2320000Y-8026190D01*
X2558095Y-8502381D02*
X2558095Y-7502381D01*
X2177142Y-7502381D01*
X2081904Y-7550000D01*
X2034285Y-7597619D01*
X1986666Y-7692857D01*
X1986666Y-7835714D01*
X2034285Y-7930952D01*
X2081904Y-7978571D01*
X2177142Y-8026190D01*
X2558095Y-8026190D01*
X1653333Y-7502381D02*
X986666Y-7502381D01*
X1415238Y-8502381D01*
X2036666Y-12522381D02*
X2370000Y-12046190D01*
X2608095Y-12522381D02*
X2608095Y-11522381D01*
X2227142Y-11522381D01*
X2131904Y-11570000D01*
X2084285Y-11617619D01*
X2036666Y-11712857D01*
X2036666Y-11855714D01*
X2084285Y-11950952D01*
X2131904Y-11998571D01*
X2227142Y-12046190D01*
X2608095Y-12046190D01*
X1179523Y-11522381D02*
X1370000Y-11522381D01*
X1465238Y-11570000D01*
X1512857Y-11617619D01*
X1608095Y-11760476D01*
X1655714Y-11950952D01*
X1655714Y-12331905D01*
X1608095Y-12427143D01*
X1560476Y-12474762D01*
X1465238Y-12522381D01*
X1274761Y-12522381D01*
X1179523Y-12474762D01*
X1131904Y-12427143D01*
X1084285Y-12331905D01*
X1084285Y-12093810D01*
X1131904Y-11998571D01*
X1179523Y-11950952D01*
X1274761Y-11903333D01*
X1465238Y-11903333D01*
X1560476Y-11950952D01*
X1608095Y-11998571D01*
X1655714Y-12093810D01*
X3553333Y-40572381D02*
X3553333Y-41286667D01*
X3600953Y-41429524D01*
X3696191Y-41524762D01*
X3839048Y-41572381D01*
X3934286Y-41572381D01*
X3124762Y-40667619D02*
X3077143Y-40620000D01*
X2981905Y-40572381D01*
X2743809Y-40572381D01*
X2648571Y-40620000D01*
X2600952Y-40667619D01*
X2553333Y-40762857D01*
X2553333Y-40858095D01*
X2600952Y-41000952D01*
X3172381Y-41572381D01*
X2553333Y-41572381D01*
X25468333Y-40572381D02*
X25468333Y-41286667D01*
X25515953Y-41429524D01*
X25611191Y-41524762D01*
X25754048Y-41572381D01*
X25849286Y-41572381D01*
X24468333Y-41572381D02*
X25039762Y-41572381D01*
X24754048Y-41572381D02*
X24754048Y-40572381D01*
X24849286Y-40715238D01*
X24944524Y-40810476D01*
X25039762Y-40858095D01*
X3648333Y7667619D02*
X3648333Y6953333D01*
X3695953Y6810476D01*
X3791191Y6715238D01*
X3934048Y6667619D01*
X4029286Y6667619D01*
X3267381Y7667619D02*
X2648333Y7667619D01*
X2981667Y7286667D01*
X2838809Y7286667D01*
X2743571Y7239048D01*
X2695952Y7191429D01*
X2648333Y7096190D01*
X2648333Y6858095D01*
X2695952Y6762857D01*
X2743571Y6715238D01*
X2838809Y6667619D01*
X3124524Y6667619D01*
X3219762Y6715238D01*
X3267381Y6762857D01*
X25463333Y7667619D02*
X25463333Y6953333D01*
X25510953Y6810476D01*
X25606191Y6715238D01*
X25749048Y6667619D01*
X25844286Y6667619D01*
X24558571Y7334286D02*
X24558571Y6667619D01*
X24796667Y7715238D02*
X25034762Y7000952D01*
X24415714Y7000952D01*
M02*
