M48
;DRILL file {KiCad 4.0.7} date 11/15/17 19:14:06
;FORMAT={-:-/ absolute / metric / decimal}
FMAT,2
METRIC,TZ
T1C0.300
T2C0.400
T3C0.800
T4C1.000
T5C3.150
T6C0.500
%
G90
G05
M71
T1
X-2.375Y-9.2
X-1.88Y-35.61
X-1.25Y-33.65
X0.391Y-20.28
X0.661Y-28.453
X0.995Y-35.615
X0.996Y-20.525
X1.25Y-15.35
X1.548Y-29.712
X1.548Y-31.72
X1.796Y-28.468
X1.895Y-27.615
X2.6Y-34.6
X2.646Y-36.426
X2.922Y-29.627
X3.28Y-15.1
X3.3Y-10.86
X3.592Y-39.015
X4.075Y-36.997
X6.41Y-35.06
X9.55Y-37.07
X10.22Y3.68
X10.486Y-30.8
X10.725Y4.185
X11.39Y4.85
X12.425Y4.85
X12.53Y-37.9
X13.498Y-27.41
X16.073Y-27.528
X17.125Y4.85
X17.85Y4.85
X18.26Y-36.94
X18.375Y4.05
X18.7Y4.85
X19.425Y-28.4
T2
X-0.77Y-11.86
X5.298Y-33.061
X9.08Y-12.
X9.91Y-32.24
X12.53Y-39.75
X13.841Y-23.799
X13.85Y-25.6
T3
X11.76Y-4.245
X11.76Y-6.745
T4
X7.6Y-26.15
X7.6Y-28.69
X7.6Y-31.23
X7.6Y-33.77
X7.6Y-36.31
X7.6Y-38.85
X7.7Y4.85
X20.75Y4.85
X20.75Y-26.15
X20.75Y-28.69
X20.75Y-31.23
X20.75Y-33.77
X20.75Y-36.31
X20.75Y-38.85
T5
X0.Y-0.05
X0.3Y-45.95
X18.7Y-0.65
X19.28Y-44.27
T6
X10.63Y-47.46
X14.63Y-47.46
T0
M30
