%TF.GenerationSoftware,KiCad,Pcbnew,4.0.7*%
%TF.CreationDate,2017-11-15T19:14:24+08:00*%
%TF.ProjectId,nixie_tube,6E697869655F747562652E6B69636164,rev?*%
%TF.FileFunction,Paste,Top*%
%FSLAX46Y46*%
G04 Gerber Fmt 4.6, Leading zero omitted, Abs format (unit mm)*
G04 Created by KiCad (PCBNEW 4.0.7) date 11/15/17 19:14:24*
%MOMM*%
%LPD*%
G01*
G04 APERTURE LIST*
%ADD10C,0.100000*%
%ADD11R,1.651000X3.048000*%
%ADD12R,6.096000X6.096000*%
%ADD13R,1.000000X3.800000*%
%ADD14R,3.400000X1.400000*%
%ADD15R,0.500000X1.200000*%
%ADD16R,0.600000X1.550000*%
%ADD17R,2.900000X5.400000*%
%ADD18R,0.800000X0.900000*%
%ADD19R,0.900000X1.200000*%
%ADD20R,2.500000X1.800000*%
%ADD21R,0.750000X0.800000*%
%ADD22R,0.900000X0.500000*%
%ADD23R,0.900000X0.800000*%
%ADD24R,0.800000X1.000000*%
G04 APERTURE END LIST*
D10*
D11*
X-372000Y-30350000D03*
D12*
X1914000Y-24000000D03*
D11*
X4200000Y-30350000D03*
D13*
X9510000Y-5370000D03*
X14010000Y-5370000D03*
D14*
X-980000Y-7850000D03*
X5220000Y-7850000D03*
D15*
X12630000Y-41460000D03*
X14630000Y-41460000D03*
X10630000Y-41460000D03*
D16*
X-505000Y-19100000D03*
X765000Y-19100000D03*
X2035000Y-19100000D03*
X3305000Y-19100000D03*
X3305000Y-13700000D03*
X2035000Y-13700000D03*
X765000Y-13700000D03*
X-505000Y-13700000D03*
D17*
X17460000Y-17700000D03*
X7500000Y-17700000D03*
D18*
X3500000Y-35150000D03*
X5400000Y-35150000D03*
X4450000Y-33150000D03*
D19*
X12550000Y-27050000D03*
X15850000Y-27050000D03*
D20*
X12550000Y-31850000D03*
X16550000Y-31850000D03*
D21*
X-350000Y-37850000D03*
X-350000Y-36350000D03*
X-2400000Y-37800000D03*
X-2400000Y-36300000D03*
D22*
X-2300000Y-33075000D03*
X-2300000Y-34575000D03*
X1700000Y-34575000D03*
X1700000Y-33075000D03*
X-300000Y-33075000D03*
X-300000Y-34575000D03*
D23*
X50000Y-41650000D03*
X50000Y-39750000D03*
X-1950000Y-40700000D03*
D22*
X1700000Y-38100000D03*
X1700000Y-36600000D03*
X5300000Y-36600000D03*
X5300000Y-38100000D03*
D18*
X2650000Y-41700000D03*
X4550000Y-41700000D03*
X3600000Y-39700000D03*
D24*
X4550000Y-41150000D03*
M02*
