%TF.GenerationSoftware,KiCad,Pcbnew,4.0.7*%
%TF.CreationDate,2017-11-15T23:57:05+08:00*%
%TF.ProjectId,nixie_tube,6E697869655F747562652E6B69636164,rev?*%
%TF.FileFunction,Copper,L2,Bot,Signal*%
%FSLAX46Y46*%
G04 Gerber Fmt 4.6, Leading zero omitted, Abs format (unit mm)*
G04 Created by KiCad (PCBNEW 4.0.7) date 11/15/17 23:57:05*
%MOMM*%
%LPD*%
G01*
G04 APERTURE LIST*
%ADD10C,0.100000*%
%ADD11C,0.300000*%
%ADD12R,1.000000X3.200000*%
%ADD13R,1.000000X1.300000*%
%ADD14C,3.500000*%
%ADD15R,1.600000X1.600000*%
%ADD16C,1.600000*%
%ADD17R,1.700000X1.700000*%
%ADD18O,1.700000X1.700000*%
%ADD19C,1.300000*%
%ADD20C,0.453000*%
%ADD21C,0.600000*%
%ADD22C,0.400000*%
%ADD23C,1.000000*%
%ADD24C,0.250000*%
%ADD25C,1.000000*%
%ADD26C,0.500000*%
%ADD27C,0.254000*%
G04 APERTURE END LIST*
D10*
D11*
X12130952Y-51188095D02*
X11697619Y-52488095D01*
X11264286Y-51188095D01*
X10830952Y-52364286D02*
X10769047Y-52426190D01*
X10830952Y-52488095D01*
X10892857Y-52426190D01*
X10830952Y-52364286D01*
X10830952Y-52488095D01*
X9964285Y-51188095D02*
X9840476Y-51188095D01*
X9716666Y-51250000D01*
X9654761Y-51311905D01*
X9592857Y-51435714D01*
X9530952Y-51683333D01*
X9530952Y-51992857D01*
X9592857Y-52240476D01*
X9654761Y-52364286D01*
X9716666Y-52426190D01*
X9840476Y-52488095D01*
X9964285Y-52488095D01*
X10088095Y-52426190D01*
X10149999Y-52364286D01*
X10211904Y-52240476D01*
X10273809Y-51992857D01*
X10273809Y-51683333D01*
X10211904Y-51435714D01*
X10149999Y-51311905D01*
X10088095Y-51250000D01*
X9964285Y-51188095D01*
X8292857Y-52488095D02*
X9035714Y-52488095D01*
X8664285Y-52488095D02*
X8664285Y-51188095D01*
X8788095Y-51373810D01*
X8911904Y-51497619D01*
X9035714Y-51559524D01*
D12*
X2220000Y-12300000D03*
X8420000Y-12300000D03*
D13*
X4520000Y-12300000D03*
X6120000Y-12300000D03*
D12*
X2270000Y-16320000D03*
X8470000Y-16320000D03*
D13*
X4570000Y-16320000D03*
X6170000Y-16320000D03*
D14*
X22780000Y-51120000D03*
X3800000Y-52800000D03*
X22200000Y-7500000D03*
X3500000Y-6900000D03*
D15*
X15260000Y-11095000D03*
D16*
X15260000Y-13595000D03*
D17*
X11100000Y-45700000D03*
D18*
X11100000Y-43160000D03*
X11100000Y-40620000D03*
X11100000Y-38080000D03*
X11100000Y-35540000D03*
X11100000Y-33000000D03*
D17*
X24250000Y-45700000D03*
D18*
X24250000Y-43160000D03*
X24250000Y-40620000D03*
X24250000Y-38080000D03*
X24250000Y-35540000D03*
X24250000Y-33000000D03*
D19*
X14130000Y-54310000D03*
X18130000Y-54310000D03*
D17*
X11200000Y-2000000D03*
X24250000Y-2000000D03*
D20*
X4150000Y-42550000D03*
X4161160Y-35303465D03*
X5395441Y-34465377D03*
X4495547Y-27375488D03*
D21*
X8797836Y-39911278D03*
D20*
X6249998Y-39200000D03*
X6780000Y-21950000D03*
X1620000Y-42460000D03*
X2250000Y-40500000D03*
D22*
X6205983Y-41344025D03*
X21875000Y-2800000D03*
X20625000Y-2000000D03*
X21350000Y-2000000D03*
X22200000Y-2000000D03*
X15925000Y-2000000D03*
X14890000Y-2000000D03*
X14225000Y-2665000D03*
X13720000Y-3170000D03*
D23*
X13410000Y-39090000D03*
X17341464Y-30648536D03*
X17350000Y-32450000D03*
D22*
X5450000Y-42250000D03*
X18100002Y-35250000D03*
X14100000Y-35250000D03*
D20*
X5048490Y-38570000D03*
X3890509Y-27129849D03*
D22*
X4200000Y-41100000D03*
D20*
X4766416Y-36419128D03*
D22*
X4220219Y-37416038D03*
D20*
X5296095Y-35317853D03*
D22*
X13050000Y-43824990D03*
X7575010Y-43846613D03*
D20*
X22925000Y-35250000D03*
D22*
X21760000Y-43790000D03*
X1125000Y-16050000D03*
D21*
X12580000Y-18850000D03*
X2730000Y-18710000D03*
D22*
X16030000Y-44750000D03*
D23*
X16030000Y-46600000D03*
D22*
X7092254Y-45865221D03*
X4750000Y-22200000D03*
D20*
X6800000Y-17710000D03*
D24*
X3674998Y-42074998D02*
X4150000Y-42550000D01*
X3674998Y-35789627D02*
X3674998Y-42074998D01*
X4161160Y-35303465D02*
X3674998Y-35789627D01*
X4495547Y-33565483D02*
X5395441Y-34465377D01*
X4495547Y-27375488D02*
X4495547Y-33565483D01*
D25*
X11100000Y-40620000D02*
X9506558Y-40620000D01*
X9506558Y-40620000D02*
X8797836Y-39911278D01*
D24*
X6780000Y-38669998D02*
X6249998Y-39200000D01*
X6780000Y-21950000D02*
X6780000Y-38669998D01*
X2250000Y-41830000D02*
X1620000Y-42460000D01*
X2250000Y-40500000D02*
X2250000Y-41830000D01*
X8367166Y-38900000D02*
X6205983Y-41061183D01*
X12537893Y-39255001D02*
X10535999Y-39255001D01*
X13410000Y-39090000D02*
X12702894Y-39090000D01*
X12702894Y-39090000D02*
X12537893Y-39255001D01*
X10535999Y-39255001D02*
X10180998Y-38900000D01*
X10180998Y-38900000D02*
X8367166Y-38900000D01*
X6205983Y-41061183D02*
X6205983Y-41344025D01*
X22200000Y-2000000D02*
X22200000Y-2475000D01*
X22200000Y-2475000D02*
X21875000Y-2800000D01*
D25*
X14750000Y-11025000D02*
X15405000Y-11025000D01*
X15405000Y-11025000D02*
X17900000Y-13520000D01*
X17900000Y-13520000D02*
X17900000Y-30090000D01*
X17900000Y-30090000D02*
X17341464Y-30648536D01*
X17350000Y-32450000D02*
X17350000Y-30657072D01*
X17350000Y-30657072D02*
X17341464Y-30648536D01*
D24*
X4998487Y-41798487D02*
X5450000Y-42250000D01*
X5048490Y-38570000D02*
X4998487Y-38620003D01*
X4998487Y-38620003D02*
X4998487Y-41798487D01*
X14100000Y-35250000D02*
X18100002Y-35250000D01*
X4214915Y-36660081D02*
X5048490Y-37493656D01*
X5048490Y-37493656D02*
X5048490Y-38570000D01*
X4214915Y-36154407D02*
X4214915Y-36660081D01*
X4733769Y-35056864D02*
X4733769Y-35635553D01*
X4733769Y-35635553D02*
X4214915Y-36154407D01*
X3890509Y-34213604D02*
X4733769Y-35056864D01*
X3890509Y-27129849D02*
X3890509Y-34213604D01*
X4220219Y-37416038D02*
X4250000Y-37445819D01*
X4250000Y-41050000D02*
X4200000Y-41100000D01*
X4250000Y-37445819D02*
X4250000Y-41050000D01*
X5296095Y-35889449D02*
X4766416Y-36419128D01*
X5296095Y-35317853D02*
X5296095Y-35889449D01*
X21965000Y-34290000D02*
X22925000Y-35250000D01*
X10610998Y-34290000D02*
X21965000Y-34290000D01*
X9924999Y-34975999D02*
X10610998Y-34290000D01*
X9924999Y-36904999D02*
X9924999Y-34975999D01*
X11100000Y-38080000D02*
X9924999Y-36904999D01*
X12514991Y-44359999D02*
X13050000Y-43824990D01*
X8088396Y-44359999D02*
X12514991Y-44359999D01*
X7575010Y-43846613D02*
X8088396Y-44359999D01*
X21760000Y-41070000D02*
X21760000Y-43790000D01*
X24750000Y-38080000D02*
X21760000Y-41070000D01*
D25*
X2000000Y-16050000D02*
X1125000Y-16050000D01*
X2270000Y-16320000D02*
X2000000Y-16050000D01*
X2270000Y-16320000D02*
X2270000Y-18250000D01*
X2270000Y-18250000D02*
X2730000Y-18710000D01*
X4570000Y-16320000D02*
X4570000Y-17970000D01*
X4570000Y-17970000D02*
X5510010Y-18910010D01*
X5510010Y-18910010D02*
X7577060Y-18910010D01*
X7577060Y-18910010D02*
X7637070Y-18850000D01*
X7637070Y-18850000D02*
X12580000Y-18850000D01*
D26*
X2240000Y-16350000D02*
X2270000Y-16320000D01*
X4520000Y-12300000D02*
X4520000Y-16270000D01*
X4520000Y-16270000D02*
X4570000Y-16320000D01*
X2220000Y-12300000D02*
X2220000Y-16270000D01*
X2220000Y-16270000D02*
X2270000Y-16320000D01*
X4570000Y-16320000D02*
X2270000Y-16320000D01*
X4520000Y-12300000D02*
X2220000Y-12300000D01*
D25*
X14280000Y-36235134D02*
X14597970Y-36553104D01*
X14597970Y-36553104D02*
X23736896Y-36553104D01*
X23736896Y-36553104D02*
X24750000Y-35540000D01*
X16030000Y-46600000D02*
X16030000Y-44750000D01*
X16030000Y-44750000D02*
X16030000Y-37985134D01*
X16030000Y-37985134D02*
X14280000Y-36235134D01*
X12997215Y-36235134D02*
X14280000Y-36235134D01*
X12302081Y-35540000D02*
X12997215Y-36235134D01*
X11100000Y-35540000D02*
X12302081Y-35540000D01*
D24*
X11693427Y-33493427D02*
X23054492Y-33493427D01*
X11200000Y-33000000D02*
X11693427Y-33493427D01*
X23547919Y-33000000D02*
X24750000Y-33000000D01*
X23054492Y-33493427D02*
X23547919Y-33000000D01*
X6858329Y-45631296D02*
X7092254Y-45865221D01*
X5946951Y-23396951D02*
X5946951Y-38586825D01*
X6858329Y-42738849D02*
X6858329Y-45631296D01*
X5448498Y-39085278D02*
X5448498Y-41329018D01*
X5946951Y-38586825D02*
X5448498Y-39085278D01*
X4750000Y-22200000D02*
X5946951Y-23396951D01*
X5448498Y-41329018D02*
X6858329Y-42738849D01*
D25*
X6800000Y-17710000D02*
X7080000Y-17710000D01*
X7080000Y-17710000D02*
X8470000Y-16320000D01*
D24*
X6120000Y-12300000D02*
X6120000Y-16270000D01*
X6120000Y-16270000D02*
X6170000Y-16320000D01*
X8420000Y-12300000D02*
X8420000Y-16270000D01*
X8420000Y-16270000D02*
X8470000Y-16320000D01*
X6120000Y-12300000D02*
X8420000Y-12300000D01*
X6170000Y-16320000D02*
X8470000Y-16320000D01*
D27*
G36*
X2131594Y-4896059D02*
X1479274Y-5547242D01*
X1115415Y-6423513D01*
X1114587Y-7372325D01*
X1476916Y-8249229D01*
X2147242Y-8920726D01*
X3023513Y-9284585D01*
X3972325Y-9285413D01*
X4849229Y-8923084D01*
X5520726Y-8252758D01*
X5637171Y-7972325D01*
X19814587Y-7972325D01*
X20176916Y-8849229D01*
X20847242Y-9520726D01*
X21723513Y-9884585D01*
X22672325Y-9885413D01*
X23549229Y-9523084D01*
X24220726Y-8852758D01*
X24584585Y-7976487D01*
X24585413Y-7027675D01*
X24223084Y-6150771D01*
X23552758Y-5479274D01*
X22676487Y-5115415D01*
X21727675Y-5114587D01*
X20850771Y-5476916D01*
X20179274Y-6147242D01*
X19815415Y-7023513D01*
X19814587Y-7972325D01*
X5637171Y-7972325D01*
X5884585Y-7376487D01*
X5885413Y-6427675D01*
X5523084Y-5550771D01*
X4896049Y-4922641D01*
X25040000Y-5116333D01*
X25040000Y-31756745D01*
X24847378Y-31628039D01*
X24279093Y-31515000D01*
X24220907Y-31515000D01*
X23652622Y-31628039D01*
X23170853Y-31949946D01*
X22848946Y-32431715D01*
X22801159Y-32671958D01*
X22739690Y-32733427D01*
X18461271Y-32733427D01*
X18484803Y-32676756D01*
X18485197Y-32225225D01*
X18485000Y-32224748D01*
X18485000Y-31110132D01*
X18702566Y-30892566D01*
X18859918Y-30657072D01*
X18948603Y-30524346D01*
X19035000Y-30090000D01*
X19035000Y-13520000D01*
X18948603Y-13085654D01*
X18702566Y-12717434D01*
X16707440Y-10722308D01*
X16707440Y-10295000D01*
X16663162Y-10059683D01*
X16524090Y-9843559D01*
X16311890Y-9698569D01*
X16060000Y-9647560D01*
X14460000Y-9647560D01*
X14224683Y-9691838D01*
X14008559Y-9830910D01*
X13863569Y-10043110D01*
X13812560Y-10295000D01*
X13812560Y-10424287D01*
X13701397Y-10590654D01*
X13615000Y-11025000D01*
X13701397Y-11459346D01*
X13812560Y-11625713D01*
X13812560Y-11895000D01*
X13856838Y-12130317D01*
X13995910Y-12346441D01*
X14208110Y-12491431D01*
X14446201Y-12539646D01*
X14431861Y-12587255D01*
X15260000Y-13415395D01*
X15274142Y-13401252D01*
X15453748Y-13580858D01*
X15439605Y-13595000D01*
X16267745Y-14423139D01*
X16513864Y-14349005D01*
X16675152Y-13900284D01*
X16765000Y-13990132D01*
X16765000Y-29619868D01*
X16539312Y-29845556D01*
X16379819Y-30004771D01*
X16206661Y-30421780D01*
X16206267Y-30873311D01*
X16215000Y-30894446D01*
X16215000Y-32449010D01*
X16214803Y-32674775D01*
X16239038Y-32733427D01*
X12561068Y-32733427D01*
X12501054Y-32431715D01*
X12179147Y-31949946D01*
X11697378Y-31628039D01*
X11129093Y-31515000D01*
X11070907Y-31515000D01*
X10502622Y-31628039D01*
X10020853Y-31949946D01*
X9698946Y-32431715D01*
X9585907Y-33000000D01*
X9698946Y-33568285D01*
X9922836Y-33903360D01*
X9387598Y-34438598D01*
X9222851Y-34685160D01*
X9164999Y-34975999D01*
X9164999Y-36904999D01*
X9222851Y-37195838D01*
X9387598Y-37442400D01*
X9658790Y-37713592D01*
X9585907Y-38080000D01*
X9597842Y-38140000D01*
X8367166Y-38140000D01*
X8076326Y-38197852D01*
X7829765Y-38362599D01*
X7540000Y-38652364D01*
X7540000Y-22366193D01*
X7641350Y-22122115D01*
X7641649Y-21779389D01*
X7510770Y-21462637D01*
X7268638Y-21220082D01*
X6952115Y-21088650D01*
X6609389Y-21088351D01*
X6292637Y-21219230D01*
X6050082Y-21461362D01*
X5918650Y-21777885D01*
X5918351Y-22120611D01*
X6020000Y-22366621D01*
X6020000Y-22395198D01*
X5532832Y-21908030D01*
X5458292Y-21727628D01*
X5223607Y-21492534D01*
X4916821Y-21365145D01*
X4584637Y-21364855D01*
X4277628Y-21491708D01*
X4042534Y-21726393D01*
X3915145Y-22033179D01*
X3914855Y-22365363D01*
X4041708Y-22672372D01*
X4276393Y-22907466D01*
X4458127Y-22982929D01*
X5186951Y-23711753D01*
X5186951Y-26848690D01*
X4984185Y-26645570D01*
X4667662Y-26514138D01*
X4493003Y-26513986D01*
X4379147Y-26399931D01*
X4062624Y-26268499D01*
X3719898Y-26268200D01*
X3403146Y-26399079D01*
X3160591Y-26641211D01*
X3029159Y-26957734D01*
X3028860Y-27300460D01*
X3130509Y-27546470D01*
X3130509Y-34213604D01*
X3188361Y-34504443D01*
X3353108Y-34751005D01*
X3427043Y-34824940D01*
X3329163Y-35060660D01*
X3137597Y-35252226D01*
X2972850Y-35498788D01*
X2914998Y-35789627D01*
X2914998Y-39946750D01*
X2738638Y-39770082D01*
X2422115Y-39638650D01*
X2079389Y-39638351D01*
X1762637Y-39769230D01*
X1520082Y-40011362D01*
X1388650Y-40327885D01*
X1388351Y-40670611D01*
X1490000Y-40916621D01*
X1490000Y-41515198D01*
X1376892Y-41628306D01*
X1132637Y-41729230D01*
X890082Y-41971362D01*
X758650Y-42287885D01*
X758351Y-42630611D01*
X889230Y-42947363D01*
X1131362Y-43189918D01*
X1447885Y-43321350D01*
X1790611Y-43321649D01*
X2107363Y-43190770D01*
X2349918Y-42948638D01*
X2451997Y-42702805D01*
X2787401Y-42367401D01*
X2930547Y-42153167D01*
X2972850Y-42365837D01*
X3137597Y-42612399D01*
X3318306Y-42793108D01*
X3419230Y-43037363D01*
X3661362Y-43279918D01*
X3977885Y-43411350D01*
X4320611Y-43411649D01*
X4637363Y-43280770D01*
X4879918Y-43038638D01*
X4932063Y-42913059D01*
X4976393Y-42957466D01*
X5283179Y-43084855D01*
X5615363Y-43085145D01*
X5922372Y-42958292D01*
X5962706Y-42918028D01*
X6098329Y-43053651D01*
X6098329Y-45631296D01*
X6156181Y-45922135D01*
X6303235Y-46142217D01*
X6383962Y-46337593D01*
X6618647Y-46572687D01*
X6925433Y-46700076D01*
X7257617Y-46700366D01*
X7564626Y-46573513D01*
X7799720Y-46338828D01*
X7927109Y-46032042D01*
X7927399Y-45699858D01*
X7800546Y-45392849D01*
X7618329Y-45210314D01*
X7618329Y-44942391D01*
X7797556Y-45062147D01*
X7845810Y-45071745D01*
X8088396Y-45119999D01*
X9602560Y-45119999D01*
X9602560Y-46550000D01*
X9646838Y-46785317D01*
X9785910Y-47001441D01*
X9998110Y-47146431D01*
X10250000Y-47197440D01*
X11950000Y-47197440D01*
X12185317Y-47153162D01*
X12401441Y-47014090D01*
X12546431Y-46801890D01*
X12597440Y-46550000D01*
X12597440Y-45103599D01*
X12805830Y-45062147D01*
X13052392Y-44897400D01*
X13341970Y-44607822D01*
X13522372Y-44533282D01*
X13757466Y-44298597D01*
X13884855Y-43991811D01*
X13885145Y-43659627D01*
X13758292Y-43352618D01*
X13523607Y-43117524D01*
X13216821Y-42990135D01*
X12884637Y-42989845D01*
X12603364Y-43106064D01*
X12501054Y-42591715D01*
X12179147Y-42109946D01*
X11838447Y-41882298D01*
X11981358Y-41815183D01*
X12371645Y-41386924D01*
X12541476Y-40976890D01*
X12420155Y-40747000D01*
X11227000Y-40747000D01*
X11227000Y-40767000D01*
X10973000Y-40767000D01*
X10973000Y-40747000D01*
X9779845Y-40747000D01*
X9658524Y-40976890D01*
X9828355Y-41386924D01*
X10218642Y-41815183D01*
X10361553Y-41882298D01*
X10020853Y-42109946D01*
X9698946Y-42591715D01*
X9585907Y-43160000D01*
X9673428Y-43599999D01*
X8403198Y-43599999D01*
X8357842Y-43554643D01*
X8283302Y-43374241D01*
X8048617Y-43139147D01*
X7741831Y-43011758D01*
X7618329Y-43011650D01*
X7618329Y-42738849D01*
X7560477Y-42448010D01*
X7395730Y-42201448D01*
X6942339Y-41748057D01*
X7040838Y-41510846D01*
X7041021Y-41300947D01*
X8681968Y-39660000D01*
X9866196Y-39660000D01*
X9938457Y-39732261D01*
X9828355Y-39853076D01*
X9658524Y-40263110D01*
X9779845Y-40493000D01*
X10973000Y-40493000D01*
X10973000Y-40473000D01*
X11227000Y-40473000D01*
X11227000Y-40493000D01*
X12420155Y-40493000D01*
X12541476Y-40263110D01*
X12438712Y-40015001D01*
X12537893Y-40015001D01*
X12697886Y-39983176D01*
X12766235Y-40051645D01*
X13183244Y-40224803D01*
X13634775Y-40225197D01*
X14052086Y-40052767D01*
X14371645Y-39733765D01*
X14544803Y-39316756D01*
X14545197Y-38865225D01*
X14372767Y-38447914D01*
X14053765Y-38128355D01*
X13636756Y-37955197D01*
X13185225Y-37954803D01*
X12767914Y-38127233D01*
X12564259Y-38330533D01*
X12614093Y-38080000D01*
X12501054Y-37511715D01*
X12179147Y-37029946D01*
X11849974Y-36810000D01*
X11920095Y-36763146D01*
X12194649Y-37037700D01*
X12562869Y-37283737D01*
X12997215Y-37370134D01*
X13809868Y-37370134D01*
X14895000Y-38455266D01*
X14895000Y-46599010D01*
X14894803Y-46824775D01*
X15067233Y-47242086D01*
X15386235Y-47561645D01*
X15803244Y-47734803D01*
X16254775Y-47735197D01*
X16672086Y-47562767D01*
X16991645Y-47243765D01*
X17164803Y-46826756D01*
X17165197Y-46375225D01*
X17165000Y-46374748D01*
X17165000Y-37985134D01*
X17105917Y-37688104D01*
X22813860Y-37688104D01*
X22735907Y-38080000D01*
X22848946Y-38648285D01*
X22952273Y-38802925D01*
X21222599Y-40532599D01*
X21057852Y-40779161D01*
X21000000Y-41070000D01*
X21000000Y-43442909D01*
X20925145Y-43623179D01*
X20924855Y-43955363D01*
X21051708Y-44262372D01*
X21286393Y-44497466D01*
X21593179Y-44624855D01*
X21925363Y-44625145D01*
X22232372Y-44498292D01*
X22467466Y-44263607D01*
X22594855Y-43956821D01*
X22595145Y-43624637D01*
X22520000Y-43442771D01*
X22520000Y-41384802D01*
X22843490Y-41061312D01*
X22978355Y-41386924D01*
X23368642Y-41815183D01*
X23511553Y-41882298D01*
X23170853Y-42109946D01*
X22848946Y-42591715D01*
X22735907Y-43160000D01*
X22848946Y-43728285D01*
X23170853Y-44210054D01*
X23212452Y-44237850D01*
X23164683Y-44246838D01*
X22948559Y-44385910D01*
X22803569Y-44598110D01*
X22752560Y-44850000D01*
X22752560Y-46550000D01*
X22796838Y-46785317D01*
X22935910Y-47001441D01*
X23148110Y-47146431D01*
X23400000Y-47197440D01*
X25040000Y-47197440D01*
X25040000Y-50344152D01*
X24803084Y-49770771D01*
X24132758Y-49099274D01*
X23256487Y-48735415D01*
X22307675Y-48734587D01*
X21430771Y-49096916D01*
X20759274Y-49767242D01*
X20395415Y-50643513D01*
X20394587Y-51592325D01*
X20756916Y-52469229D01*
X21427242Y-53140726D01*
X22303513Y-53504585D01*
X23252325Y-53505413D01*
X24129229Y-53143084D01*
X24800726Y-52472758D01*
X25040000Y-51896521D01*
X25040000Y-55590000D01*
X24592874Y-55590000D01*
X18509216Y-55543684D01*
X18856943Y-55400005D01*
X19218735Y-55038845D01*
X19414777Y-54566724D01*
X19415223Y-54055519D01*
X19220005Y-53583057D01*
X18858845Y-53221265D01*
X18386724Y-53025223D01*
X17875519Y-53024777D01*
X17403057Y-53219995D01*
X17041265Y-53581155D01*
X16845223Y-54053276D01*
X16844777Y-54564481D01*
X17039995Y-55036943D01*
X17401155Y-55398735D01*
X17736054Y-55537797D01*
X14581584Y-55513782D01*
X14856943Y-55400005D01*
X15218735Y-55038845D01*
X15414777Y-54566724D01*
X15415223Y-54055519D01*
X15220005Y-53583057D01*
X14858845Y-53221265D01*
X14386724Y-53025223D01*
X13875519Y-53024777D01*
X13403057Y-53219995D01*
X13041265Y-53581155D01*
X12845223Y-54053276D01*
X12844777Y-54564481D01*
X13039995Y-55036943D01*
X13401155Y-55398735D01*
X13661346Y-55506776D01*
X710000Y-55408174D01*
X710000Y-53272325D01*
X1414587Y-53272325D01*
X1776916Y-54149229D01*
X2447242Y-54820726D01*
X3323513Y-55184585D01*
X4272325Y-55185413D01*
X5149229Y-54823084D01*
X5820726Y-54152758D01*
X6184585Y-53276487D01*
X6185413Y-52327675D01*
X5823084Y-51450771D01*
X5152758Y-50779274D01*
X4276487Y-50415415D01*
X3327675Y-50414587D01*
X2450771Y-50776916D01*
X1779274Y-51447242D01*
X1415415Y-52323513D01*
X1414587Y-53272325D01*
X710000Y-53272325D01*
X710000Y-50205000D01*
X7410238Y-50205000D01*
X7410238Y-53725000D01*
X12889762Y-53725000D01*
X12889762Y-50205000D01*
X7410238Y-50205000D01*
X710000Y-50205000D01*
X710000Y-17102451D01*
X1122560Y-17184515D01*
X1122560Y-17920000D01*
X1135000Y-17986113D01*
X1135000Y-18250000D01*
X1221397Y-18684346D01*
X1363354Y-18896799D01*
X1467434Y-19052566D01*
X1927434Y-19512566D01*
X2295655Y-19758603D01*
X2730000Y-19845000D01*
X3164345Y-19758603D01*
X3532566Y-19512566D01*
X3778603Y-19144345D01*
X3838432Y-18843564D01*
X4707444Y-19712576D01*
X5075664Y-19958613D01*
X5510010Y-20045010D01*
X7577060Y-20045010D01*
X7878750Y-19985000D01*
X12580000Y-19985000D01*
X13014346Y-19898603D01*
X13382566Y-19652566D01*
X13628603Y-19284346D01*
X13715000Y-18850000D01*
X13628603Y-18415654D01*
X13382566Y-18047434D01*
X13014346Y-17801397D01*
X12580000Y-17715000D01*
X9617440Y-17715000D01*
X9617440Y-14720000D01*
X9595377Y-14602745D01*
X14431861Y-14602745D01*
X14505995Y-14848864D01*
X15043223Y-15041965D01*
X15613454Y-15014778D01*
X16014005Y-14848864D01*
X16088139Y-14602745D01*
X15260000Y-13774605D01*
X14431861Y-14602745D01*
X9595377Y-14602745D01*
X9573162Y-14484683D01*
X9435363Y-14270537D01*
X9516431Y-14151890D01*
X9567440Y-13900000D01*
X9567440Y-13378223D01*
X13813035Y-13378223D01*
X13840222Y-13948454D01*
X14006136Y-14349005D01*
X14252255Y-14423139D01*
X15080395Y-13595000D01*
X14252255Y-12766861D01*
X14006136Y-12840995D01*
X13813035Y-13378223D01*
X9567440Y-13378223D01*
X9567440Y-10700000D01*
X9523162Y-10464683D01*
X9384090Y-10248559D01*
X9171890Y-10103569D01*
X8920000Y-10052560D01*
X7920000Y-10052560D01*
X7684683Y-10096838D01*
X7468559Y-10235910D01*
X7323569Y-10448110D01*
X7272560Y-10700000D01*
X7272560Y-11540000D01*
X7246742Y-11540000D01*
X7223162Y-11414683D01*
X7084090Y-11198559D01*
X6871890Y-11053569D01*
X6620000Y-11002560D01*
X5620000Y-11002560D01*
X5384683Y-11046838D01*
X5321522Y-11087481D01*
X5271890Y-11053569D01*
X5020000Y-11002560D01*
X4020000Y-11002560D01*
X3784683Y-11046838D01*
X3568559Y-11185910D01*
X3423569Y-11398110D01*
X3420149Y-11415000D01*
X3367440Y-11415000D01*
X3367440Y-10700000D01*
X3323162Y-10464683D01*
X3184090Y-10248559D01*
X2971890Y-10103569D01*
X2720000Y-10052560D01*
X1720000Y-10052560D01*
X1484683Y-10096838D01*
X1268559Y-10235910D01*
X1123569Y-10448110D01*
X1072560Y-10700000D01*
X1072560Y-13900000D01*
X1116838Y-14135317D01*
X1254637Y-14349463D01*
X1173569Y-14468110D01*
X1122560Y-14720000D01*
X1122560Y-14915485D01*
X710000Y-14997549D01*
X710000Y-4882390D01*
X2131594Y-4896059D01*
X2131594Y-4896059D01*
G37*
X2131594Y-4896059D02*
X1479274Y-5547242D01*
X1115415Y-6423513D01*
X1114587Y-7372325D01*
X1476916Y-8249229D01*
X2147242Y-8920726D01*
X3023513Y-9284585D01*
X3972325Y-9285413D01*
X4849229Y-8923084D01*
X5520726Y-8252758D01*
X5637171Y-7972325D01*
X19814587Y-7972325D01*
X20176916Y-8849229D01*
X20847242Y-9520726D01*
X21723513Y-9884585D01*
X22672325Y-9885413D01*
X23549229Y-9523084D01*
X24220726Y-8852758D01*
X24584585Y-7976487D01*
X24585413Y-7027675D01*
X24223084Y-6150771D01*
X23552758Y-5479274D01*
X22676487Y-5115415D01*
X21727675Y-5114587D01*
X20850771Y-5476916D01*
X20179274Y-6147242D01*
X19815415Y-7023513D01*
X19814587Y-7972325D01*
X5637171Y-7972325D01*
X5884585Y-7376487D01*
X5885413Y-6427675D01*
X5523084Y-5550771D01*
X4896049Y-4922641D01*
X25040000Y-5116333D01*
X25040000Y-31756745D01*
X24847378Y-31628039D01*
X24279093Y-31515000D01*
X24220907Y-31515000D01*
X23652622Y-31628039D01*
X23170853Y-31949946D01*
X22848946Y-32431715D01*
X22801159Y-32671958D01*
X22739690Y-32733427D01*
X18461271Y-32733427D01*
X18484803Y-32676756D01*
X18485197Y-32225225D01*
X18485000Y-32224748D01*
X18485000Y-31110132D01*
X18702566Y-30892566D01*
X18859918Y-30657072D01*
X18948603Y-30524346D01*
X19035000Y-30090000D01*
X19035000Y-13520000D01*
X18948603Y-13085654D01*
X18702566Y-12717434D01*
X16707440Y-10722308D01*
X16707440Y-10295000D01*
X16663162Y-10059683D01*
X16524090Y-9843559D01*
X16311890Y-9698569D01*
X16060000Y-9647560D01*
X14460000Y-9647560D01*
X14224683Y-9691838D01*
X14008559Y-9830910D01*
X13863569Y-10043110D01*
X13812560Y-10295000D01*
X13812560Y-10424287D01*
X13701397Y-10590654D01*
X13615000Y-11025000D01*
X13701397Y-11459346D01*
X13812560Y-11625713D01*
X13812560Y-11895000D01*
X13856838Y-12130317D01*
X13995910Y-12346441D01*
X14208110Y-12491431D01*
X14446201Y-12539646D01*
X14431861Y-12587255D01*
X15260000Y-13415395D01*
X15274142Y-13401252D01*
X15453748Y-13580858D01*
X15439605Y-13595000D01*
X16267745Y-14423139D01*
X16513864Y-14349005D01*
X16675152Y-13900284D01*
X16765000Y-13990132D01*
X16765000Y-29619868D01*
X16539312Y-29845556D01*
X16379819Y-30004771D01*
X16206661Y-30421780D01*
X16206267Y-30873311D01*
X16215000Y-30894446D01*
X16215000Y-32449010D01*
X16214803Y-32674775D01*
X16239038Y-32733427D01*
X12561068Y-32733427D01*
X12501054Y-32431715D01*
X12179147Y-31949946D01*
X11697378Y-31628039D01*
X11129093Y-31515000D01*
X11070907Y-31515000D01*
X10502622Y-31628039D01*
X10020853Y-31949946D01*
X9698946Y-32431715D01*
X9585907Y-33000000D01*
X9698946Y-33568285D01*
X9922836Y-33903360D01*
X9387598Y-34438598D01*
X9222851Y-34685160D01*
X9164999Y-34975999D01*
X9164999Y-36904999D01*
X9222851Y-37195838D01*
X9387598Y-37442400D01*
X9658790Y-37713592D01*
X9585907Y-38080000D01*
X9597842Y-38140000D01*
X8367166Y-38140000D01*
X8076326Y-38197852D01*
X7829765Y-38362599D01*
X7540000Y-38652364D01*
X7540000Y-22366193D01*
X7641350Y-22122115D01*
X7641649Y-21779389D01*
X7510770Y-21462637D01*
X7268638Y-21220082D01*
X6952115Y-21088650D01*
X6609389Y-21088351D01*
X6292637Y-21219230D01*
X6050082Y-21461362D01*
X5918650Y-21777885D01*
X5918351Y-22120611D01*
X6020000Y-22366621D01*
X6020000Y-22395198D01*
X5532832Y-21908030D01*
X5458292Y-21727628D01*
X5223607Y-21492534D01*
X4916821Y-21365145D01*
X4584637Y-21364855D01*
X4277628Y-21491708D01*
X4042534Y-21726393D01*
X3915145Y-22033179D01*
X3914855Y-22365363D01*
X4041708Y-22672372D01*
X4276393Y-22907466D01*
X4458127Y-22982929D01*
X5186951Y-23711753D01*
X5186951Y-26848690D01*
X4984185Y-26645570D01*
X4667662Y-26514138D01*
X4493003Y-26513986D01*
X4379147Y-26399931D01*
X4062624Y-26268499D01*
X3719898Y-26268200D01*
X3403146Y-26399079D01*
X3160591Y-26641211D01*
X3029159Y-26957734D01*
X3028860Y-27300460D01*
X3130509Y-27546470D01*
X3130509Y-34213604D01*
X3188361Y-34504443D01*
X3353108Y-34751005D01*
X3427043Y-34824940D01*
X3329163Y-35060660D01*
X3137597Y-35252226D01*
X2972850Y-35498788D01*
X2914998Y-35789627D01*
X2914998Y-39946750D01*
X2738638Y-39770082D01*
X2422115Y-39638650D01*
X2079389Y-39638351D01*
X1762637Y-39769230D01*
X1520082Y-40011362D01*
X1388650Y-40327885D01*
X1388351Y-40670611D01*
X1490000Y-40916621D01*
X1490000Y-41515198D01*
X1376892Y-41628306D01*
X1132637Y-41729230D01*
X890082Y-41971362D01*
X758650Y-42287885D01*
X758351Y-42630611D01*
X889230Y-42947363D01*
X1131362Y-43189918D01*
X1447885Y-43321350D01*
X1790611Y-43321649D01*
X2107363Y-43190770D01*
X2349918Y-42948638D01*
X2451997Y-42702805D01*
X2787401Y-42367401D01*
X2930547Y-42153167D01*
X2972850Y-42365837D01*
X3137597Y-42612399D01*
X3318306Y-42793108D01*
X3419230Y-43037363D01*
X3661362Y-43279918D01*
X3977885Y-43411350D01*
X4320611Y-43411649D01*
X4637363Y-43280770D01*
X4879918Y-43038638D01*
X4932063Y-42913059D01*
X4976393Y-42957466D01*
X5283179Y-43084855D01*
X5615363Y-43085145D01*
X5922372Y-42958292D01*
X5962706Y-42918028D01*
X6098329Y-43053651D01*
X6098329Y-45631296D01*
X6156181Y-45922135D01*
X6303235Y-46142217D01*
X6383962Y-46337593D01*
X6618647Y-46572687D01*
X6925433Y-46700076D01*
X7257617Y-46700366D01*
X7564626Y-46573513D01*
X7799720Y-46338828D01*
X7927109Y-46032042D01*
X7927399Y-45699858D01*
X7800546Y-45392849D01*
X7618329Y-45210314D01*
X7618329Y-44942391D01*
X7797556Y-45062147D01*
X7845810Y-45071745D01*
X8088396Y-45119999D01*
X9602560Y-45119999D01*
X9602560Y-46550000D01*
X9646838Y-46785317D01*
X9785910Y-47001441D01*
X9998110Y-47146431D01*
X10250000Y-47197440D01*
X11950000Y-47197440D01*
X12185317Y-47153162D01*
X12401441Y-47014090D01*
X12546431Y-46801890D01*
X12597440Y-46550000D01*
X12597440Y-45103599D01*
X12805830Y-45062147D01*
X13052392Y-44897400D01*
X13341970Y-44607822D01*
X13522372Y-44533282D01*
X13757466Y-44298597D01*
X13884855Y-43991811D01*
X13885145Y-43659627D01*
X13758292Y-43352618D01*
X13523607Y-43117524D01*
X13216821Y-42990135D01*
X12884637Y-42989845D01*
X12603364Y-43106064D01*
X12501054Y-42591715D01*
X12179147Y-42109946D01*
X11838447Y-41882298D01*
X11981358Y-41815183D01*
X12371645Y-41386924D01*
X12541476Y-40976890D01*
X12420155Y-40747000D01*
X11227000Y-40747000D01*
X11227000Y-40767000D01*
X10973000Y-40767000D01*
X10973000Y-40747000D01*
X9779845Y-40747000D01*
X9658524Y-40976890D01*
X9828355Y-41386924D01*
X10218642Y-41815183D01*
X10361553Y-41882298D01*
X10020853Y-42109946D01*
X9698946Y-42591715D01*
X9585907Y-43160000D01*
X9673428Y-43599999D01*
X8403198Y-43599999D01*
X8357842Y-43554643D01*
X8283302Y-43374241D01*
X8048617Y-43139147D01*
X7741831Y-43011758D01*
X7618329Y-43011650D01*
X7618329Y-42738849D01*
X7560477Y-42448010D01*
X7395730Y-42201448D01*
X6942339Y-41748057D01*
X7040838Y-41510846D01*
X7041021Y-41300947D01*
X8681968Y-39660000D01*
X9866196Y-39660000D01*
X9938457Y-39732261D01*
X9828355Y-39853076D01*
X9658524Y-40263110D01*
X9779845Y-40493000D01*
X10973000Y-40493000D01*
X10973000Y-40473000D01*
X11227000Y-40473000D01*
X11227000Y-40493000D01*
X12420155Y-40493000D01*
X12541476Y-40263110D01*
X12438712Y-40015001D01*
X12537893Y-40015001D01*
X12697886Y-39983176D01*
X12766235Y-40051645D01*
X13183244Y-40224803D01*
X13634775Y-40225197D01*
X14052086Y-40052767D01*
X14371645Y-39733765D01*
X14544803Y-39316756D01*
X14545197Y-38865225D01*
X14372767Y-38447914D01*
X14053765Y-38128355D01*
X13636756Y-37955197D01*
X13185225Y-37954803D01*
X12767914Y-38127233D01*
X12564259Y-38330533D01*
X12614093Y-38080000D01*
X12501054Y-37511715D01*
X12179147Y-37029946D01*
X11849974Y-36810000D01*
X11920095Y-36763146D01*
X12194649Y-37037700D01*
X12562869Y-37283737D01*
X12997215Y-37370134D01*
X13809868Y-37370134D01*
X14895000Y-38455266D01*
X14895000Y-46599010D01*
X14894803Y-46824775D01*
X15067233Y-47242086D01*
X15386235Y-47561645D01*
X15803244Y-47734803D01*
X16254775Y-47735197D01*
X16672086Y-47562767D01*
X16991645Y-47243765D01*
X17164803Y-46826756D01*
X17165197Y-46375225D01*
X17165000Y-46374748D01*
X17165000Y-37985134D01*
X17105917Y-37688104D01*
X22813860Y-37688104D01*
X22735907Y-38080000D01*
X22848946Y-38648285D01*
X22952273Y-38802925D01*
X21222599Y-40532599D01*
X21057852Y-40779161D01*
X21000000Y-41070000D01*
X21000000Y-43442909D01*
X20925145Y-43623179D01*
X20924855Y-43955363D01*
X21051708Y-44262372D01*
X21286393Y-44497466D01*
X21593179Y-44624855D01*
X21925363Y-44625145D01*
X22232372Y-44498292D01*
X22467466Y-44263607D01*
X22594855Y-43956821D01*
X22595145Y-43624637D01*
X22520000Y-43442771D01*
X22520000Y-41384802D01*
X22843490Y-41061312D01*
X22978355Y-41386924D01*
X23368642Y-41815183D01*
X23511553Y-41882298D01*
X23170853Y-42109946D01*
X22848946Y-42591715D01*
X22735907Y-43160000D01*
X22848946Y-43728285D01*
X23170853Y-44210054D01*
X23212452Y-44237850D01*
X23164683Y-44246838D01*
X22948559Y-44385910D01*
X22803569Y-44598110D01*
X22752560Y-44850000D01*
X22752560Y-46550000D01*
X22796838Y-46785317D01*
X22935910Y-47001441D01*
X23148110Y-47146431D01*
X23400000Y-47197440D01*
X25040000Y-47197440D01*
X25040000Y-50344152D01*
X24803084Y-49770771D01*
X24132758Y-49099274D01*
X23256487Y-48735415D01*
X22307675Y-48734587D01*
X21430771Y-49096916D01*
X20759274Y-49767242D01*
X20395415Y-50643513D01*
X20394587Y-51592325D01*
X20756916Y-52469229D01*
X21427242Y-53140726D01*
X22303513Y-53504585D01*
X23252325Y-53505413D01*
X24129229Y-53143084D01*
X24800726Y-52472758D01*
X25040000Y-51896521D01*
X25040000Y-55590000D01*
X24592874Y-55590000D01*
X18509216Y-55543684D01*
X18856943Y-55400005D01*
X19218735Y-55038845D01*
X19414777Y-54566724D01*
X19415223Y-54055519D01*
X19220005Y-53583057D01*
X18858845Y-53221265D01*
X18386724Y-53025223D01*
X17875519Y-53024777D01*
X17403057Y-53219995D01*
X17041265Y-53581155D01*
X16845223Y-54053276D01*
X16844777Y-54564481D01*
X17039995Y-55036943D01*
X17401155Y-55398735D01*
X17736054Y-55537797D01*
X14581584Y-55513782D01*
X14856943Y-55400005D01*
X15218735Y-55038845D01*
X15414777Y-54566724D01*
X15415223Y-54055519D01*
X15220005Y-53583057D01*
X14858845Y-53221265D01*
X14386724Y-53025223D01*
X13875519Y-53024777D01*
X13403057Y-53219995D01*
X13041265Y-53581155D01*
X12845223Y-54053276D01*
X12844777Y-54564481D01*
X13039995Y-55036943D01*
X13401155Y-55398735D01*
X13661346Y-55506776D01*
X710000Y-55408174D01*
X710000Y-53272325D01*
X1414587Y-53272325D01*
X1776916Y-54149229D01*
X2447242Y-54820726D01*
X3323513Y-55184585D01*
X4272325Y-55185413D01*
X5149229Y-54823084D01*
X5820726Y-54152758D01*
X6184585Y-53276487D01*
X6185413Y-52327675D01*
X5823084Y-51450771D01*
X5152758Y-50779274D01*
X4276487Y-50415415D01*
X3327675Y-50414587D01*
X2450771Y-50776916D01*
X1779274Y-51447242D01*
X1415415Y-52323513D01*
X1414587Y-53272325D01*
X710000Y-53272325D01*
X710000Y-50205000D01*
X7410238Y-50205000D01*
X7410238Y-53725000D01*
X12889762Y-53725000D01*
X12889762Y-50205000D01*
X7410238Y-50205000D01*
X710000Y-50205000D01*
X710000Y-17102451D01*
X1122560Y-17184515D01*
X1122560Y-17920000D01*
X1135000Y-17986113D01*
X1135000Y-18250000D01*
X1221397Y-18684346D01*
X1363354Y-18896799D01*
X1467434Y-19052566D01*
X1927434Y-19512566D01*
X2295655Y-19758603D01*
X2730000Y-19845000D01*
X3164345Y-19758603D01*
X3532566Y-19512566D01*
X3778603Y-19144345D01*
X3838432Y-18843564D01*
X4707444Y-19712576D01*
X5075664Y-19958613D01*
X5510010Y-20045010D01*
X7577060Y-20045010D01*
X7878750Y-19985000D01*
X12580000Y-19985000D01*
X13014346Y-19898603D01*
X13382566Y-19652566D01*
X13628603Y-19284346D01*
X13715000Y-18850000D01*
X13628603Y-18415654D01*
X13382566Y-18047434D01*
X13014346Y-17801397D01*
X12580000Y-17715000D01*
X9617440Y-17715000D01*
X9617440Y-14720000D01*
X9595377Y-14602745D01*
X14431861Y-14602745D01*
X14505995Y-14848864D01*
X15043223Y-15041965D01*
X15613454Y-15014778D01*
X16014005Y-14848864D01*
X16088139Y-14602745D01*
X15260000Y-13774605D01*
X14431861Y-14602745D01*
X9595377Y-14602745D01*
X9573162Y-14484683D01*
X9435363Y-14270537D01*
X9516431Y-14151890D01*
X9567440Y-13900000D01*
X9567440Y-13378223D01*
X13813035Y-13378223D01*
X13840222Y-13948454D01*
X14006136Y-14349005D01*
X14252255Y-14423139D01*
X15080395Y-13595000D01*
X14252255Y-12766861D01*
X14006136Y-12840995D01*
X13813035Y-13378223D01*
X9567440Y-13378223D01*
X9567440Y-10700000D01*
X9523162Y-10464683D01*
X9384090Y-10248559D01*
X9171890Y-10103569D01*
X8920000Y-10052560D01*
X7920000Y-10052560D01*
X7684683Y-10096838D01*
X7468559Y-10235910D01*
X7323569Y-10448110D01*
X7272560Y-10700000D01*
X7272560Y-11540000D01*
X7246742Y-11540000D01*
X7223162Y-11414683D01*
X7084090Y-11198559D01*
X6871890Y-11053569D01*
X6620000Y-11002560D01*
X5620000Y-11002560D01*
X5384683Y-11046838D01*
X5321522Y-11087481D01*
X5271890Y-11053569D01*
X5020000Y-11002560D01*
X4020000Y-11002560D01*
X3784683Y-11046838D01*
X3568559Y-11185910D01*
X3423569Y-11398110D01*
X3420149Y-11415000D01*
X3367440Y-11415000D01*
X3367440Y-10700000D01*
X3323162Y-10464683D01*
X3184090Y-10248559D01*
X2971890Y-10103569D01*
X2720000Y-10052560D01*
X1720000Y-10052560D01*
X1484683Y-10096838D01*
X1268559Y-10235910D01*
X1123569Y-10448110D01*
X1072560Y-10700000D01*
X1072560Y-13900000D01*
X1116838Y-14135317D01*
X1254637Y-14349463D01*
X1173569Y-14468110D01*
X1122560Y-14720000D01*
X1122560Y-14915485D01*
X710000Y-14997549D01*
X710000Y-4882390D01*
X2131594Y-4896059D01*
G36*
X24377000Y-40493000D02*
X24397000Y-40493000D01*
X24397000Y-40747000D01*
X24377000Y-40747000D01*
X24377000Y-40767000D01*
X24123000Y-40767000D01*
X24123000Y-40747000D01*
X24103000Y-40747000D01*
X24103000Y-40493000D01*
X24123000Y-40493000D01*
X24123000Y-40473000D01*
X24377000Y-40473000D01*
X24377000Y-40493000D01*
X24377000Y-40493000D01*
G37*
X24377000Y-40493000D02*
X24397000Y-40493000D01*
X24397000Y-40747000D01*
X24377000Y-40747000D01*
X24377000Y-40767000D01*
X24123000Y-40767000D01*
X24123000Y-40747000D01*
X24103000Y-40747000D01*
X24103000Y-40493000D01*
X24123000Y-40493000D01*
X24123000Y-40473000D01*
X24377000Y-40473000D01*
X24377000Y-40493000D01*
G36*
X9811673Y-790301D02*
X9715000Y-1023690D01*
X9715000Y-1714250D01*
X9873750Y-1873000D01*
X11073000Y-1873000D01*
X11073000Y-1853000D01*
X11327000Y-1853000D01*
X11327000Y-1873000D01*
X12526250Y-1873000D01*
X12685000Y-1714250D01*
X12685000Y-1023690D01*
X12588327Y-790301D01*
X12508026Y-710000D01*
X22941974Y-710000D01*
X22861673Y-790301D01*
X22765000Y-1023690D01*
X22765000Y-1714250D01*
X22923750Y-1873000D01*
X24123000Y-1873000D01*
X24123000Y-1853000D01*
X24377000Y-1853000D01*
X24377000Y-1873000D01*
X24397000Y-1873000D01*
X24397000Y-2127000D01*
X24377000Y-2127000D01*
X24377000Y-3326250D01*
X24535750Y-3485000D01*
X25040000Y-3485000D01*
X25040000Y-3764035D01*
X8852000Y-3648900D01*
X8852000Y-2285750D01*
X9715000Y-2285750D01*
X9715000Y-2976310D01*
X9811673Y-3209699D01*
X9990302Y-3388327D01*
X10223691Y-3485000D01*
X10914250Y-3485000D01*
X11073000Y-3326250D01*
X11073000Y-2127000D01*
X11327000Y-2127000D01*
X11327000Y-3326250D01*
X11485750Y-3485000D01*
X12176309Y-3485000D01*
X12409698Y-3388327D01*
X12588327Y-3209699D01*
X12685000Y-2976310D01*
X12685000Y-2285750D01*
X22765000Y-2285750D01*
X22765000Y-2976310D01*
X22861673Y-3209699D01*
X23040302Y-3388327D01*
X23273691Y-3485000D01*
X23964250Y-3485000D01*
X24123000Y-3326250D01*
X24123000Y-2127000D01*
X22923750Y-2127000D01*
X22765000Y-2285750D01*
X12685000Y-2285750D01*
X12526250Y-2127000D01*
X11327000Y-2127000D01*
X11073000Y-2127000D01*
X9873750Y-2127000D01*
X9715000Y-2285750D01*
X8852000Y-2285750D01*
X8852000Y-710000D01*
X9891974Y-710000D01*
X9811673Y-790301D01*
X9811673Y-790301D01*
G37*
X9811673Y-790301D02*
X9715000Y-1023690D01*
X9715000Y-1714250D01*
X9873750Y-1873000D01*
X11073000Y-1873000D01*
X11073000Y-1853000D01*
X11327000Y-1853000D01*
X11327000Y-1873000D01*
X12526250Y-1873000D01*
X12685000Y-1714250D01*
X12685000Y-1023690D01*
X12588327Y-790301D01*
X12508026Y-710000D01*
X22941974Y-710000D01*
X22861673Y-790301D01*
X22765000Y-1023690D01*
X22765000Y-1714250D01*
X22923750Y-1873000D01*
X24123000Y-1873000D01*
X24123000Y-1853000D01*
X24377000Y-1853000D01*
X24377000Y-1873000D01*
X24397000Y-1873000D01*
X24397000Y-2127000D01*
X24377000Y-2127000D01*
X24377000Y-3326250D01*
X24535750Y-3485000D01*
X25040000Y-3485000D01*
X25040000Y-3764035D01*
X8852000Y-3648900D01*
X8852000Y-2285750D01*
X9715000Y-2285750D01*
X9715000Y-2976310D01*
X9811673Y-3209699D01*
X9990302Y-3388327D01*
X10223691Y-3485000D01*
X10914250Y-3485000D01*
X11073000Y-3326250D01*
X11073000Y-2127000D01*
X11327000Y-2127000D01*
X11327000Y-3326250D01*
X11485750Y-3485000D01*
X12176309Y-3485000D01*
X12409698Y-3388327D01*
X12588327Y-3209699D01*
X12685000Y-2976310D01*
X12685000Y-2285750D01*
X22765000Y-2285750D01*
X22765000Y-2976310D01*
X22861673Y-3209699D01*
X23040302Y-3388327D01*
X23273691Y-3485000D01*
X23964250Y-3485000D01*
X24123000Y-3326250D01*
X24123000Y-2127000D01*
X22923750Y-2127000D01*
X22765000Y-2285750D01*
X12685000Y-2285750D01*
X12526250Y-2127000D01*
X11327000Y-2127000D01*
X11073000Y-2127000D01*
X9873750Y-2127000D01*
X9715000Y-2285750D01*
X8852000Y-2285750D01*
X8852000Y-710000D01*
X9891974Y-710000D01*
X9811673Y-790301D01*
M02*
