M48
;DRILL file {KiCad 4.0.7} date 11/15/17 23:56:53
;FORMAT={-:-/ absolute / metric / decimal}
FMAT,2
METRIC,TZ
T1C0.300
T2C0.400
T3C0.800
T4C1.000
T5C3.150
%
G90
G05
M71
T1
X1.125Y-16.05
X1.62Y-42.46
X2.25Y-40.5
X3.891Y-27.13
X4.15Y-42.55
X4.161Y-35.303
X4.2Y-41.1
X4.22Y-37.416
X4.496Y-27.375
X4.75Y-22.2
X4.766Y-36.419
X5.048Y-38.57
X5.296Y-35.318
X5.395Y-34.465
X5.45Y-42.25
X6.206Y-41.344
X6.25Y-39.2
X6.78Y-21.95
X6.8Y-17.71
X7.092Y-45.865
X7.575Y-43.847
X13.05Y-43.825
X13.72Y-3.17
X14.1Y-35.25
X14.225Y-2.665
X14.89Y-2.
X15.925Y-2.
X16.03Y-44.75
X18.1Y-35.25
X20.625Y-2.
X21.35Y-2.
X21.76Y-43.79
X21.875Y-2.8
X22.2Y-2.
X22.925Y-35.25
T2
X2.73Y-18.71
X8.798Y-39.911
X12.58Y-18.85
X13.41Y-39.09
X16.03Y-46.6
X17.341Y-30.649
X17.35Y-32.45
T3
X15.26Y-11.095
X15.26Y-13.595
T4
X11.1Y-33.
X11.1Y-35.54
X11.1Y-38.08
X11.1Y-40.62
X11.1Y-43.16
X11.1Y-45.7
X11.2Y-2.
X24.25Y-2.
X24.25Y-33.
X24.25Y-35.54
X24.25Y-38.08
X24.25Y-40.62
X24.25Y-43.16
X24.25Y-45.7
T5
X3.5Y-6.9
X3.8Y-52.8
X22.2Y-7.5
X22.78Y-51.12
T0
M30
