%TF.GenerationSoftware,KiCad,Pcbnew,4.0.7*%
%TF.CreationDate,2017-11-15T23:57:05+08:00*%
%TF.ProjectId,nixie_tube,6E697869655F747562652E6B69636164,rev?*%
%TF.FileFunction,Legend,Bot*%
%FSLAX46Y46*%
G04 Gerber Fmt 4.6, Leading zero omitted, Abs format (unit mm)*
G04 Created by KiCad (PCBNEW 4.0.7) date 11/15/17 23:57:05*
%MOMM*%
%LPD*%
G01*
G04 APERTURE LIST*
%ADD10C,0.100000*%
%ADD11C,0.120000*%
%ADD12C,0.150000*%
G04 APERTURE END LIST*
D10*
D11*
X7920000Y-10480000D02*
X2720000Y-10480000D01*
X2720000Y-14120000D02*
X7920000Y-14120000D01*
X7970000Y-14500000D02*
X2770000Y-14500000D01*
X2770000Y-18140000D02*
X7970000Y-18140000D01*
X9640000Y-47030000D02*
X9640000Y-44430000D01*
X9640000Y-44430000D02*
X1010000Y-44430000D01*
X1010000Y-44430000D02*
X1010000Y-47030000D01*
X1010000Y-47030000D02*
X9640000Y-47030000D01*
X10070000Y-46080000D02*
X9640000Y-46080000D01*
X10070000Y-45320000D02*
X9640000Y-45320000D01*
X9640000Y-46850000D02*
X1010000Y-46850000D01*
X9640000Y-46730000D02*
X1010000Y-46730000D01*
X9640000Y-46610000D02*
X1010000Y-46610000D01*
X9640000Y-46490000D02*
X1010000Y-46490000D01*
X9640000Y-46370000D02*
X1010000Y-46370000D01*
X9640000Y-46250000D02*
X1010000Y-46250000D01*
X9640000Y-46130000D02*
X1010000Y-46130000D01*
X9640000Y-46010000D02*
X1010000Y-46010000D01*
X9640000Y-45890000D02*
X1010000Y-45890000D01*
X9640000Y-45770000D02*
X1010000Y-45770000D01*
X9640000Y-45650000D02*
X1010000Y-45650000D01*
X9640000Y-45530000D02*
X1010000Y-45530000D01*
X9640000Y-45410000D02*
X1010000Y-45410000D01*
X9640000Y-45290000D02*
X1010000Y-45290000D01*
X9640000Y-45170000D02*
X1010000Y-45170000D01*
X9640000Y-45050000D02*
X1010000Y-45050000D01*
X9640000Y-44930000D02*
X1010000Y-44930000D01*
X9640000Y-44810000D02*
X1010000Y-44810000D01*
X9640000Y-44690000D02*
X1010000Y-44690000D01*
X9640000Y-44570000D02*
X1010000Y-44570000D01*
X9640000Y-44450000D02*
X1010000Y-44450000D01*
X9640000Y-44330000D02*
X1010000Y-44330000D01*
X9640000Y-44430000D02*
X9640000Y-41890000D01*
X9640000Y-41890000D02*
X1010000Y-41890000D01*
X1010000Y-41890000D02*
X1010000Y-44430000D01*
X1010000Y-44430000D02*
X9640000Y-44430000D01*
X10070000Y-43540000D02*
X9640000Y-43540000D01*
X10070000Y-42780000D02*
X9640000Y-42780000D01*
X9640000Y-41890000D02*
X9640000Y-39350000D01*
X9640000Y-39350000D02*
X1010000Y-39350000D01*
X1010000Y-39350000D02*
X1010000Y-41890000D01*
X1010000Y-41890000D02*
X9640000Y-41890000D01*
X10070000Y-41000000D02*
X9640000Y-41000000D01*
X10070000Y-40240000D02*
X9640000Y-40240000D01*
X9640000Y-39350000D02*
X9640000Y-36810000D01*
X9640000Y-36810000D02*
X1010000Y-36810000D01*
X1010000Y-36810000D02*
X1010000Y-39350000D01*
X1010000Y-39350000D02*
X9640000Y-39350000D01*
X10070000Y-38460000D02*
X9640000Y-38460000D01*
X10070000Y-37700000D02*
X9640000Y-37700000D01*
X9640000Y-36810000D02*
X9640000Y-34270000D01*
X9640000Y-34270000D02*
X1010000Y-34270000D01*
X1010000Y-34270000D02*
X1010000Y-36810000D01*
X1010000Y-36810000D02*
X9640000Y-36810000D01*
X10070000Y-35920000D02*
X9640000Y-35920000D01*
X10070000Y-35160000D02*
X9640000Y-35160000D01*
X9640000Y-34270000D02*
X9640000Y-31670000D01*
X9640000Y-31670000D02*
X1010000Y-31670000D01*
X1010000Y-31670000D02*
X1010000Y-34270000D01*
X1010000Y-34270000D02*
X9640000Y-34270000D01*
X10070000Y-33380000D02*
X9640000Y-33380000D01*
X10070000Y-32620000D02*
X9640000Y-32620000D01*
X11100000Y-46970000D02*
X12370000Y-46970000D01*
X12370000Y-46970000D02*
X12370000Y-45700000D01*
X25690000Y-47030000D02*
X25690000Y-31670000D01*
X25690000Y-31670000D02*
X28350000Y-31670000D01*
X28350000Y-31670000D02*
X28350000Y-47030000D01*
X28350000Y-47030000D02*
X25690000Y-47030000D01*
X28350000Y-46080000D02*
X34350000Y-46080000D01*
X34350000Y-46080000D02*
X34350000Y-45320000D01*
X34350000Y-45320000D02*
X28350000Y-45320000D01*
X28350000Y-46020000D02*
X34350000Y-46020000D01*
X28350000Y-45900000D02*
X34350000Y-45900000D01*
X28350000Y-45780000D02*
X34350000Y-45780000D01*
X28350000Y-45660000D02*
X34350000Y-45660000D01*
X28350000Y-45540000D02*
X34350000Y-45540000D01*
X28350000Y-45420000D02*
X34350000Y-45420000D01*
X25360000Y-46080000D02*
X25690000Y-46080000D01*
X25360000Y-45320000D02*
X25690000Y-45320000D01*
X25690000Y-44430000D02*
X28350000Y-44430000D01*
X28350000Y-43540000D02*
X34350000Y-43540000D01*
X34350000Y-43540000D02*
X34350000Y-42780000D01*
X34350000Y-42780000D02*
X28350000Y-42780000D01*
X25292929Y-43540000D02*
X25690000Y-43540000D01*
X25292929Y-42780000D02*
X25690000Y-42780000D01*
X25690000Y-41890000D02*
X28350000Y-41890000D01*
X28350000Y-41000000D02*
X34350000Y-41000000D01*
X34350000Y-41000000D02*
X34350000Y-40240000D01*
X34350000Y-40240000D02*
X28350000Y-40240000D01*
X25292929Y-41000000D02*
X25690000Y-41000000D01*
X25292929Y-40240000D02*
X25690000Y-40240000D01*
X25690000Y-39350000D02*
X28350000Y-39350000D01*
X28350000Y-38460000D02*
X34350000Y-38460000D01*
X34350000Y-38460000D02*
X34350000Y-37700000D01*
X34350000Y-37700000D02*
X28350000Y-37700000D01*
X25292929Y-38460000D02*
X25690000Y-38460000D01*
X25292929Y-37700000D02*
X25690000Y-37700000D01*
X25690000Y-36810000D02*
X28350000Y-36810000D01*
X28350000Y-35920000D02*
X34350000Y-35920000D01*
X34350000Y-35920000D02*
X34350000Y-35160000D01*
X34350000Y-35160000D02*
X28350000Y-35160000D01*
X25292929Y-35920000D02*
X25690000Y-35920000D01*
X25292929Y-35160000D02*
X25690000Y-35160000D01*
X25690000Y-34270000D02*
X28350000Y-34270000D01*
X28350000Y-33380000D02*
X34350000Y-33380000D01*
X34350000Y-33380000D02*
X34350000Y-32620000D01*
X34350000Y-32620000D02*
X28350000Y-32620000D01*
X25292929Y-33380000D02*
X25690000Y-33380000D01*
X25292929Y-32620000D02*
X25690000Y-32620000D01*
X22980000Y-45700000D02*
X22980000Y-46970000D01*
X22980000Y-46970000D02*
X24250000Y-46970000D01*
X9760000Y-670000D02*
X9760000Y-3330000D01*
X9760000Y-3330000D02*
X7100000Y-3330000D01*
X7100000Y-3330000D02*
X7100000Y-670000D01*
X7100000Y-670000D02*
X9760000Y-670000D01*
X7100000Y-1620000D02*
X1100000Y-1620000D01*
X1100000Y-1620000D02*
X1100000Y-2380000D01*
X1100000Y-2380000D02*
X7100000Y-2380000D01*
X7100000Y-1680000D02*
X1100000Y-1680000D01*
X7100000Y-1800000D02*
X1100000Y-1800000D01*
X7100000Y-1920000D02*
X1100000Y-1920000D01*
X7100000Y-2040000D02*
X1100000Y-2040000D01*
X7100000Y-2160000D02*
X1100000Y-2160000D01*
X7100000Y-2280000D02*
X1100000Y-2280000D01*
X10090000Y-1620000D02*
X9760000Y-1620000D01*
X10090000Y-2380000D02*
X9760000Y-2380000D01*
X12470000Y-2000000D02*
X12470000Y-730000D01*
X12470000Y-730000D02*
X11200000Y-730000D01*
X25710000Y-670000D02*
X25710000Y-3330000D01*
X25710000Y-3330000D02*
X34340000Y-3330000D01*
X34340000Y-3330000D02*
X34340000Y-670000D01*
X34340000Y-670000D02*
X25710000Y-670000D01*
X25710000Y-670000D02*
X25710000Y-3270000D01*
X25710000Y-3270000D02*
X34340000Y-3270000D01*
X34340000Y-3270000D02*
X34340000Y-670000D01*
X34340000Y-670000D02*
X25710000Y-670000D01*
X25280000Y-1620000D02*
X25710000Y-1620000D01*
X25280000Y-2380000D02*
X25710000Y-2380000D01*
X25710000Y-850000D02*
X34340000Y-850000D01*
X25710000Y-970000D02*
X34340000Y-970000D01*
X25710000Y-1090000D02*
X34340000Y-1090000D01*
X25710000Y-1210000D02*
X34340000Y-1210000D01*
X25710000Y-1330000D02*
X34340000Y-1330000D01*
X25710000Y-1450000D02*
X34340000Y-1450000D01*
X25710000Y-1570000D02*
X34340000Y-1570000D01*
X25710000Y-1690000D02*
X34340000Y-1690000D01*
X25710000Y-1810000D02*
X34340000Y-1810000D01*
X25710000Y-1930000D02*
X34340000Y-1930000D01*
X25710000Y-2050000D02*
X34340000Y-2050000D01*
X25710000Y-2170000D02*
X34340000Y-2170000D01*
X25710000Y-2290000D02*
X34340000Y-2290000D01*
X25710000Y-2410000D02*
X34340000Y-2410000D01*
X25710000Y-2530000D02*
X34340000Y-2530000D01*
X25710000Y-2650000D02*
X34340000Y-2650000D01*
X25710000Y-2770000D02*
X34340000Y-2770000D01*
X25710000Y-2890000D02*
X34340000Y-2890000D01*
X25710000Y-3010000D02*
X34340000Y-3010000D01*
X25710000Y-3130000D02*
X34340000Y-3130000D01*
X25710000Y-3250000D02*
X34340000Y-3250000D01*
X25710000Y-3370000D02*
X34340000Y-3370000D01*
X24250000Y-730000D02*
X22980000Y-730000D01*
X22980000Y-730000D02*
X22980000Y-2000000D01*
D12*
X5486666Y-15352381D02*
X5820000Y-14876190D01*
X6058095Y-15352381D02*
X6058095Y-14352381D01*
X5677142Y-14352381D01*
X5581904Y-14400000D01*
X5534285Y-14447619D01*
X5486666Y-14542857D01*
X5486666Y-14685714D01*
X5534285Y-14780952D01*
X5581904Y-14828571D01*
X5677142Y-14876190D01*
X6058095Y-14876190D01*
X5153333Y-14352381D02*
X4486666Y-14352381D01*
X4915238Y-15352381D01*
X5536666Y-19372381D02*
X5870000Y-18896190D01*
X6108095Y-19372381D02*
X6108095Y-18372381D01*
X5727142Y-18372381D01*
X5631904Y-18420000D01*
X5584285Y-18467619D01*
X5536666Y-18562857D01*
X5536666Y-18705714D01*
X5584285Y-18800952D01*
X5631904Y-18848571D01*
X5727142Y-18896190D01*
X6108095Y-18896190D01*
X4679523Y-18372381D02*
X4870000Y-18372381D01*
X4965238Y-18420000D01*
X5012857Y-18467619D01*
X5108095Y-18610476D01*
X5155714Y-18800952D01*
X5155714Y-19181905D01*
X5108095Y-19277143D01*
X5060476Y-19324762D01*
X4965238Y-19372381D01*
X4774761Y-19372381D01*
X4679523Y-19324762D01*
X4631904Y-19277143D01*
X4584285Y-19181905D01*
X4584285Y-18943810D01*
X4631904Y-18848571D01*
X4679523Y-18800952D01*
X4774761Y-18753333D01*
X4965238Y-18753333D01*
X5060476Y-18800952D01*
X5108095Y-18848571D01*
X5155714Y-18943810D01*
X7053333Y-47422381D02*
X7053333Y-48136667D01*
X7100953Y-48279524D01*
X7196191Y-48374762D01*
X7339048Y-48422381D01*
X7434286Y-48422381D01*
X6624762Y-47517619D02*
X6577143Y-47470000D01*
X6481905Y-47422381D01*
X6243809Y-47422381D01*
X6148571Y-47470000D01*
X6100952Y-47517619D01*
X6053333Y-47612857D01*
X6053333Y-47708095D01*
X6100952Y-47850952D01*
X6672381Y-48422381D01*
X6053333Y-48422381D01*
X28968333Y-47422381D02*
X28968333Y-48136667D01*
X29015953Y-48279524D01*
X29111191Y-48374762D01*
X29254048Y-48422381D01*
X29349286Y-48422381D01*
X27968333Y-48422381D02*
X28539762Y-48422381D01*
X28254048Y-48422381D02*
X28254048Y-47422381D01*
X28349286Y-47565238D01*
X28444524Y-47660476D01*
X28539762Y-47708095D01*
X7148333Y817619D02*
X7148333Y103333D01*
X7195953Y-39524D01*
X7291191Y-134762D01*
X7434048Y-182381D01*
X7529286Y-182381D01*
X6767381Y817619D02*
X6148333Y817619D01*
X6481667Y436667D01*
X6338809Y436667D01*
X6243571Y389048D01*
X6195952Y341429D01*
X6148333Y246190D01*
X6148333Y8095D01*
X6195952Y-87143D01*
X6243571Y-134762D01*
X6338809Y-182381D01*
X6624524Y-182381D01*
X6719762Y-134762D01*
X6767381Y-87143D01*
X28963333Y817619D02*
X28963333Y103333D01*
X29010953Y-39524D01*
X29106191Y-134762D01*
X29249048Y-182381D01*
X29344286Y-182381D01*
X28058571Y484286D02*
X28058571Y-182381D01*
X28296667Y865238D02*
X28534762Y150952D01*
X27915714Y150952D01*
M02*
