%TF.GenerationSoftware,KiCad,Pcbnew,4.0.7*%
%TF.CreationDate,2017-11-16T22:40:33+08:00*%
%TF.ProjectId,nixie-tube-merged,6E697869652D747562652D6D65726765,rev?*%
%TF.FileFunction,Paste,Top*%
%FSLAX46Y46*%
G04 Gerber Fmt 4.6, Leading zero omitted, Abs format (unit mm)*
G04 Created by KiCad (PCBNEW 4.0.7) date 11/16/17 22:40:33*
%MOMM*%
%LPD*%
G01*
G04 APERTURE LIST*
%ADD10C,0.100000*%
%ADD11C,1.900000*%
%ADD12C,1.350000*%
%ADD13C,0.900000*%
%ADD14C,1.060000*%
%ADD15C,0.500000*%
%ADD16C,1.200000*%
%ADD17C,1.651000*%
%ADD18C,6.096000*%
%ADD19C,1.000000*%
%ADD20C,3.400000*%
%ADD21C,0.600000*%
%ADD22C,2.900000*%
%ADD23C,0.800000*%
%ADD24C,2.500000*%
%ADD25C,0.750000*%
G04 APERTURE END LIST*
D10*
D11*
X7009990Y35799980D02*
X7009990Y35799980D01*
D12*
X9709990Y37449990D02*
X9709990Y37449990D01*
X9709990Y38100000D02*
X9709990Y38100000D01*
X9709990Y35499980D02*
X9709990Y35499980D01*
X9709990Y36149990D02*
X9709990Y36149990D01*
X9709990Y36799980D02*
X9709990Y36799980D01*
D11*
X7009990Y37799980D02*
X7009990Y37799980D01*
D13*
X16140000Y36179990D02*
X16140000Y36179990D01*
X16140000Y38079980D02*
X16140000Y38079980D01*
X14139980Y37129970D02*
X14139980Y37129970D01*
D14*
X14070000Y42279980D02*
X14070000Y42279980D01*
X14070000Y41329990D02*
X14070000Y41329990D01*
X14070000Y40379980D02*
X14070000Y40379980D01*
X16270000Y40379980D02*
X16270000Y40379980D01*
X16270000Y42279980D02*
X16270000Y42279980D01*
X16270000Y41329990D02*
X16270000Y41329990D01*
D13*
X12219990Y42340000D02*
X12219990Y42340000D01*
X12219990Y40840000D02*
X12219990Y40840000D01*
X12219990Y37639980D02*
X12219990Y37639980D01*
X12219990Y39139980D02*
X12219990Y39139980D01*
D15*
X10479990Y42069990D02*
X10479990Y42069990D01*
X8979990Y42069990D02*
X8979990Y42069990D01*
D13*
X12219990Y34549990D02*
X12219990Y34549990D01*
X12219990Y36049990D02*
X12219990Y36049990D01*
X12219990Y32839990D02*
X12219990Y32839990D01*
X12219990Y31339990D02*
X12219990Y31339990D01*
D15*
X16279980Y31869990D02*
X16279980Y31869990D01*
X14779980Y31869990D02*
X14779980Y31869990D01*
X16279980Y34059980D02*
X16279980Y34059980D01*
X14779980Y34059980D02*
X14779980Y34059980D01*
D11*
X7009990Y22049990D02*
X7009990Y22049990D01*
D12*
X9709990Y23699980D02*
X9709990Y23699980D01*
X9709990Y24349990D02*
X9709990Y24349990D01*
X9709990Y21749990D02*
X9709990Y21749990D01*
X9709990Y22399980D02*
X9709990Y22399980D01*
X9709990Y23049990D02*
X9709990Y23049990D01*
D11*
X7009990Y24049990D02*
X7009990Y24049990D01*
D13*
X16140000Y22429980D02*
X16140000Y22429980D01*
X16140000Y24330000D02*
X16140000Y24330000D01*
X14139980Y23379990D02*
X14139980Y23379990D01*
D14*
X14070000Y28529990D02*
X14070000Y28529990D01*
X14070000Y27579980D02*
X14070000Y27579980D01*
X14070000Y26630000D02*
X14070000Y26630000D01*
X16270000Y26630000D02*
X16270000Y26630000D01*
X16270000Y28529990D02*
X16270000Y28529990D01*
X16270000Y27579980D02*
X16270000Y27579980D01*
D13*
X12219990Y28589990D02*
X12219990Y28589990D01*
X12219990Y27089990D02*
X12219990Y27089990D01*
X12219990Y23890000D02*
X12219990Y23890000D01*
X12219990Y25389990D02*
X12219990Y25389990D01*
D15*
X10479990Y28319980D02*
X10479990Y28319980D01*
X8979990Y28319980D02*
X8979990Y28319980D01*
D13*
X12219990Y20799980D02*
X12219990Y20799980D01*
X12219990Y22299980D02*
X12219990Y22299980D01*
X12219990Y19089980D02*
X12219990Y19089980D01*
X12219990Y17589980D02*
X12219990Y17589980D01*
D15*
X16279980Y18119980D02*
X16279980Y18119980D01*
X14779980Y18119980D02*
X14779980Y18119980D01*
X16279980Y20309990D02*
X16279980Y20309990D01*
X14779980Y20309990D02*
X14779980Y20309990D01*
D11*
X7009990Y8299980D02*
X7009990Y8299980D01*
D12*
X9709990Y9949990D02*
X9709990Y9949990D01*
X9709990Y10599980D02*
X9709990Y10599980D01*
X9709990Y7999980D02*
X9709990Y7999980D01*
X9709990Y8650000D02*
X9709990Y8650000D01*
X9709990Y9299980D02*
X9709990Y9299980D01*
D11*
X7009990Y10299980D02*
X7009990Y10299980D01*
D13*
X16140000Y8679990D02*
X16140000Y8679990D01*
X16140000Y10579990D02*
X16140000Y10579990D01*
X14139980Y9629980D02*
X14139980Y9629980D01*
D14*
X14070000Y14779980D02*
X14070000Y14779980D01*
X14070000Y13830000D02*
X14070000Y13830000D01*
X14070000Y12879980D02*
X14070000Y12879980D01*
X16270000Y12879980D02*
X16270000Y12879980D01*
X16270000Y14779980D02*
X16270000Y14779980D01*
X16270000Y13830000D02*
X16270000Y13830000D01*
D13*
X12219990Y14839980D02*
X12219990Y14839980D01*
X12219990Y13339980D02*
X12219990Y13339980D01*
X12219990Y10139980D02*
X12219990Y10139980D01*
X12219990Y11639980D02*
X12219990Y11639980D01*
D15*
X10479990Y14570000D02*
X10479990Y14570000D01*
X8979990Y14570000D02*
X8979990Y14570000D01*
D13*
X12219990Y7050000D02*
X12219990Y7050000D01*
X12219990Y8550000D02*
X12219990Y8550000D01*
X12219990Y5339990D02*
X12219990Y5339990D01*
X12219990Y3840000D02*
X12219990Y3840000D01*
D15*
X16279980Y4369990D02*
X16279980Y4369990D01*
X14779980Y4369990D02*
X14779980Y4369990D01*
X16279980Y6559980D02*
X16279980Y6559980D01*
X14779980Y6559980D02*
X14779980Y6559980D01*
D11*
X23009990Y35799980D02*
X23009990Y35799980D01*
D12*
X25709980Y37449990D02*
X25709980Y37449990D01*
X25709980Y38100000D02*
X25709980Y38100000D01*
X25709980Y35499980D02*
X25709980Y35499980D01*
X25709980Y36149990D02*
X25709980Y36149990D01*
X25709980Y36799980D02*
X25709980Y36799980D01*
D11*
X23009990Y37799980D02*
X23009990Y37799980D01*
D13*
X32139990Y36179990D02*
X32139990Y36179990D01*
X32139990Y38079980D02*
X32139990Y38079980D01*
X30140000Y37129970D02*
X30140000Y37129970D01*
D14*
X30069990Y42279980D02*
X30069990Y42279980D01*
X30069990Y41329990D02*
X30069990Y41329990D01*
X30069990Y40379980D02*
X30069990Y40379980D01*
X32269990Y40379980D02*
X32269990Y40379980D01*
X32269990Y42279980D02*
X32269990Y42279980D01*
X32269990Y41329990D02*
X32269990Y41329990D01*
D13*
X28219980Y42340000D02*
X28219980Y42340000D01*
X28219980Y40840000D02*
X28219980Y40840000D01*
X28219980Y37639980D02*
X28219980Y37639980D01*
X28219980Y39139980D02*
X28219980Y39139980D01*
D15*
X26479980Y42069990D02*
X26479980Y42069990D01*
X24979990Y42069990D02*
X24979990Y42069990D01*
D13*
X28219980Y34549990D02*
X28219980Y34549990D01*
X28219980Y36049990D02*
X28219980Y36049990D01*
X28219980Y32839990D02*
X28219980Y32839990D01*
X28219980Y31339990D02*
X28219980Y31339990D01*
D15*
X32280000Y31869990D02*
X32280000Y31869990D01*
X30780000Y31869990D02*
X30780000Y31869990D01*
X32280000Y34059980D02*
X32280000Y34059980D01*
X30780000Y34059980D02*
X30780000Y34059980D01*
D11*
X23009990Y22049990D02*
X23009990Y22049990D01*
D12*
X25709980Y23699980D02*
X25709980Y23699980D01*
X25709980Y24349990D02*
X25709980Y24349990D01*
X25709980Y21749990D02*
X25709980Y21749990D01*
X25709980Y22399980D02*
X25709980Y22399980D01*
X25709980Y23049990D02*
X25709980Y23049990D01*
D11*
X23009990Y24049990D02*
X23009990Y24049990D01*
D13*
X32139990Y22429980D02*
X32139990Y22429980D01*
X32139990Y24330000D02*
X32139990Y24330000D01*
X30140000Y23379990D02*
X30140000Y23379990D01*
D14*
X30069990Y28529990D02*
X30069990Y28529990D01*
X30069990Y27579980D02*
X30069990Y27579980D01*
X30069990Y26630000D02*
X30069990Y26630000D01*
X32269990Y26630000D02*
X32269990Y26630000D01*
X32269990Y28529990D02*
X32269990Y28529990D01*
X32269990Y27579980D02*
X32269990Y27579980D01*
D13*
X28219980Y28589990D02*
X28219980Y28589990D01*
X28219980Y27089990D02*
X28219980Y27089990D01*
X28219980Y23890000D02*
X28219980Y23890000D01*
X28219980Y25389990D02*
X28219980Y25389990D01*
D15*
X26479980Y28319980D02*
X26479980Y28319980D01*
X24979990Y28319980D02*
X24979990Y28319980D01*
D13*
X28219980Y20799980D02*
X28219980Y20799980D01*
X28219980Y22299980D02*
X28219980Y22299980D01*
X28219980Y19089980D02*
X28219980Y19089980D01*
X28219980Y17589980D02*
X28219980Y17589980D01*
D15*
X32280000Y18119980D02*
X32280000Y18119980D01*
X30780000Y18119980D02*
X30780000Y18119980D01*
X32280000Y20309990D02*
X32280000Y20309990D01*
X30780000Y20309990D02*
X30780000Y20309990D01*
D11*
X23009990Y8299980D02*
X23009990Y8299980D01*
D12*
X25709980Y9949990D02*
X25709980Y9949990D01*
X25709980Y10599980D02*
X25709980Y10599980D01*
X25709980Y7999980D02*
X25709980Y7999980D01*
X25709980Y8650000D02*
X25709980Y8650000D01*
X25709980Y9299980D02*
X25709980Y9299980D01*
D11*
X23009990Y10299980D02*
X23009990Y10299980D01*
D13*
X32139990Y8679990D02*
X32139990Y8679990D01*
X32139990Y10579990D02*
X32139990Y10579990D01*
X30140000Y9629980D02*
X30140000Y9629980D01*
D14*
X30069990Y14779980D02*
X30069990Y14779980D01*
X30069990Y13830000D02*
X30069990Y13830000D01*
X30069990Y12879980D02*
X30069990Y12879980D01*
X32269990Y12879980D02*
X32269990Y12879980D01*
X32269990Y14779980D02*
X32269990Y14779980D01*
X32269990Y13830000D02*
X32269990Y13830000D01*
D13*
X28219980Y14839980D02*
X28219980Y14839980D01*
X28219980Y13339980D02*
X28219980Y13339980D01*
X28219980Y10139980D02*
X28219980Y10139980D01*
X28219980Y11639980D02*
X28219980Y11639980D01*
D15*
X26479980Y14570000D02*
X26479980Y14570000D01*
X24979990Y14570000D02*
X24979990Y14570000D01*
D13*
X28219980Y7050000D02*
X28219980Y7050000D01*
X28219980Y8550000D02*
X28219980Y8550000D01*
X28219980Y5339990D02*
X28219980Y5339990D01*
X28219980Y3840000D02*
X28219980Y3840000D01*
D15*
X32280000Y4369990D02*
X32280000Y4369990D01*
X30780000Y4369990D02*
X30780000Y4369990D01*
X32280000Y6559980D02*
X32280000Y6559980D01*
X30780000Y6559980D02*
X30780000Y6559980D01*
D11*
X39009980Y35799980D02*
X39009980Y35799980D01*
D12*
X41709980Y37449990D02*
X41709980Y37449990D01*
X41709980Y38100000D02*
X41709980Y38100000D01*
X41709980Y35499980D02*
X41709980Y35499980D01*
X41709980Y36149990D02*
X41709980Y36149990D01*
X41709980Y36799980D02*
X41709980Y36799980D01*
D11*
X39009980Y37799980D02*
X39009980Y37799980D01*
D13*
X48139990Y36179990D02*
X48139990Y36179990D01*
X48139990Y38079980D02*
X48139990Y38079980D01*
X46139990Y37129970D02*
X46139990Y37129970D01*
D14*
X46069990Y42279980D02*
X46069990Y42279980D01*
X46069990Y41329990D02*
X46069990Y41329990D01*
X46069990Y40379980D02*
X46069990Y40379980D01*
X48269980Y40379980D02*
X48269980Y40379980D01*
X48269980Y42279980D02*
X48269980Y42279980D01*
X48269980Y41329990D02*
X48269980Y41329990D01*
D13*
X44219980Y42340000D02*
X44219980Y42340000D01*
X44219980Y40840000D02*
X44219980Y40840000D01*
X44219980Y37639980D02*
X44219980Y37639980D01*
X44219980Y39139980D02*
X44219980Y39139980D01*
D15*
X42479980Y42069990D02*
X42479980Y42069990D01*
X40979980Y42069990D02*
X40979980Y42069990D01*
D13*
X44219980Y34549990D02*
X44219980Y34549990D01*
X44219980Y36049990D02*
X44219980Y36049990D01*
X44219980Y32839990D02*
X44219980Y32839990D01*
X44219980Y31339990D02*
X44219980Y31339990D01*
D15*
X48279990Y31869990D02*
X48279990Y31869990D01*
X46779990Y31869990D02*
X46779990Y31869990D01*
X48279990Y34059980D02*
X48279990Y34059980D01*
X46779990Y34059980D02*
X46779990Y34059980D01*
D11*
X39009980Y22049990D02*
X39009980Y22049990D01*
D12*
X41709980Y23699980D02*
X41709980Y23699980D01*
X41709980Y24349990D02*
X41709980Y24349990D01*
X41709980Y21749990D02*
X41709980Y21749990D01*
X41709980Y22399980D02*
X41709980Y22399980D01*
X41709980Y23049990D02*
X41709980Y23049990D01*
D11*
X39009980Y24049990D02*
X39009980Y24049990D01*
D13*
X48139990Y22429980D02*
X48139990Y22429980D01*
X48139990Y24330000D02*
X48139990Y24330000D01*
X46139990Y23379990D02*
X46139990Y23379990D01*
D14*
X46069990Y28529990D02*
X46069990Y28529990D01*
X46069990Y27579980D02*
X46069990Y27579980D01*
X46069990Y26630000D02*
X46069990Y26630000D01*
X48269980Y26630000D02*
X48269980Y26630000D01*
X48269980Y28529990D02*
X48269980Y28529990D01*
X48269980Y27579980D02*
X48269980Y27579980D01*
D13*
X44219980Y28589990D02*
X44219980Y28589990D01*
X44219980Y27089990D02*
X44219980Y27089990D01*
X44219980Y23890000D02*
X44219980Y23890000D01*
X44219980Y25389990D02*
X44219980Y25389990D01*
D15*
X42479980Y28319980D02*
X42479980Y28319980D01*
X40979980Y28319980D02*
X40979980Y28319980D01*
D13*
X44219980Y20799980D02*
X44219980Y20799980D01*
X44219980Y22299980D02*
X44219980Y22299980D01*
X44219980Y19089980D02*
X44219980Y19089980D01*
X44219980Y17589980D02*
X44219980Y17589980D01*
D15*
X48279990Y18119980D02*
X48279990Y18119980D01*
X46779990Y18119980D02*
X46779990Y18119980D01*
X48279990Y20309990D02*
X48279990Y20309990D01*
X46779990Y20309990D02*
X46779990Y20309990D01*
D11*
X39009980Y8299980D02*
X39009980Y8299980D01*
D12*
X41709980Y9949990D02*
X41709980Y9949990D01*
X41709980Y10599980D02*
X41709980Y10599980D01*
X41709980Y7999980D02*
X41709980Y7999980D01*
X41709980Y8650000D02*
X41709980Y8650000D01*
X41709980Y9299980D02*
X41709980Y9299980D01*
D11*
X39009980Y10299980D02*
X39009980Y10299980D01*
D13*
X48139990Y8679990D02*
X48139990Y8679990D01*
X48139990Y10579990D02*
X48139990Y10579990D01*
X46139990Y9629980D02*
X46139990Y9629980D01*
D14*
X46069990Y14779980D02*
X46069990Y14779980D01*
X46069990Y13830000D02*
X46069990Y13830000D01*
X46069990Y12879980D02*
X46069990Y12879980D01*
X48269980Y12879980D02*
X48269980Y12879980D01*
X48269980Y14779980D02*
X48269980Y14779980D01*
X48269980Y13830000D02*
X48269980Y13830000D01*
D13*
X44219980Y14839980D02*
X44219980Y14839980D01*
X44219980Y13339980D02*
X44219980Y13339980D01*
X44219980Y10139980D02*
X44219980Y10139980D01*
X44219980Y11639980D02*
X44219980Y11639980D01*
D15*
X42479980Y14570000D02*
X42479980Y14570000D01*
X40979980Y14570000D02*
X40979980Y14570000D01*
D13*
X44219980Y7050000D02*
X44219980Y7050000D01*
X44219980Y8550000D02*
X44219980Y8550000D01*
X44219980Y5339990D02*
X44219980Y5339990D01*
X44219980Y3840000D02*
X44219980Y3840000D01*
D15*
X48279990Y4369990D02*
X48279990Y4369990D01*
X46779990Y4369990D02*
X46779990Y4369990D01*
X48279990Y6559980D02*
X48279990Y6559980D01*
X46779990Y6559980D02*
X46779990Y6559980D01*
D11*
X55010000Y35799980D02*
X55010000Y35799980D01*
D12*
X57709990Y37449990D02*
X57709990Y37449990D01*
X57709990Y38100000D02*
X57709990Y38100000D01*
X57709990Y35499980D02*
X57709990Y35499980D01*
X57709990Y36149990D02*
X57709990Y36149990D01*
X57709990Y36799980D02*
X57709990Y36799980D01*
D11*
X55010000Y37799980D02*
X55010000Y37799980D01*
D13*
X64139980Y36179990D02*
X64139980Y36179990D01*
X64139980Y38079980D02*
X64139980Y38079980D01*
X62139980Y37129970D02*
X62139980Y37129970D01*
D14*
X62069980Y42279980D02*
X62069980Y42279980D01*
X62069980Y41329990D02*
X62069980Y41329990D01*
X62069980Y40379980D02*
X62069980Y40379980D01*
X64269980Y40379980D02*
X64269980Y40379980D01*
X64269980Y42279980D02*
X64269980Y42279980D01*
X64269980Y41329990D02*
X64269980Y41329990D01*
D13*
X60220000Y42340000D02*
X60220000Y42340000D01*
X60220000Y40840000D02*
X60220000Y40840000D01*
X60220000Y37639980D02*
X60220000Y37639980D01*
X60220000Y39139980D02*
X60220000Y39139980D01*
D15*
X58479990Y42069990D02*
X58479990Y42069990D01*
X56980000Y42069990D02*
X56980000Y42069990D01*
D13*
X60220000Y34549990D02*
X60220000Y34549990D01*
X60220000Y36049990D02*
X60220000Y36049990D01*
X60220000Y32839990D02*
X60220000Y32839990D01*
X60220000Y31339990D02*
X60220000Y31339990D01*
D15*
X64279980Y31869990D02*
X64279980Y31869990D01*
X62779990Y31869990D02*
X62779990Y31869990D01*
X64279980Y34059980D02*
X64279980Y34059980D01*
X62779990Y34059980D02*
X62779990Y34059980D01*
D11*
X55010000Y22049990D02*
X55010000Y22049990D01*
D12*
X57709990Y23699980D02*
X57709990Y23699980D01*
X57709990Y24349990D02*
X57709990Y24349990D01*
X57709990Y21749990D02*
X57709990Y21749990D01*
X57709990Y22399980D02*
X57709990Y22399980D01*
X57709990Y23049990D02*
X57709990Y23049990D01*
D11*
X55010000Y24049990D02*
X55010000Y24049990D01*
D13*
X64139980Y22429980D02*
X64139980Y22429980D01*
X64139980Y24330000D02*
X64139980Y24330000D01*
X62139980Y23379990D02*
X62139980Y23379990D01*
D14*
X62069980Y28529990D02*
X62069980Y28529990D01*
X62069980Y27579980D02*
X62069980Y27579980D01*
X62069980Y26630000D02*
X62069980Y26630000D01*
X64269980Y26630000D02*
X64269980Y26630000D01*
X64269980Y28529990D02*
X64269980Y28529990D01*
X64269980Y27579980D02*
X64269980Y27579980D01*
D13*
X60220000Y28589990D02*
X60220000Y28589990D01*
X60220000Y27089990D02*
X60220000Y27089990D01*
X60220000Y23890000D02*
X60220000Y23890000D01*
X60220000Y25389990D02*
X60220000Y25389990D01*
D15*
X58479990Y28319980D02*
X58479990Y28319980D01*
X56980000Y28319980D02*
X56980000Y28319980D01*
D13*
X60220000Y20799980D02*
X60220000Y20799980D01*
X60220000Y22299980D02*
X60220000Y22299980D01*
X60220000Y19089980D02*
X60220000Y19089980D01*
X60220000Y17589980D02*
X60220000Y17589980D01*
D15*
X64279980Y18119980D02*
X64279980Y18119980D01*
X62779990Y18119980D02*
X62779990Y18119980D01*
X64279980Y20309990D02*
X64279980Y20309990D01*
X62779990Y20309990D02*
X62779990Y20309990D01*
D11*
X55010000Y8299980D02*
X55010000Y8299980D01*
D12*
X57709990Y9949990D02*
X57709990Y9949990D01*
X57709990Y10599980D02*
X57709990Y10599980D01*
X57709990Y7999980D02*
X57709990Y7999980D01*
X57709990Y8650000D02*
X57709990Y8650000D01*
X57709990Y9299980D02*
X57709990Y9299980D01*
D11*
X55010000Y10299980D02*
X55010000Y10299980D01*
D13*
X64139980Y8679990D02*
X64139980Y8679990D01*
X64139980Y10579990D02*
X64139980Y10579990D01*
X62139980Y9629980D02*
X62139980Y9629980D01*
D14*
X62069980Y14779980D02*
X62069980Y14779980D01*
X62069980Y13830000D02*
X62069980Y13830000D01*
X62069980Y12879980D02*
X62069980Y12879980D01*
X64269980Y12879980D02*
X64269980Y12879980D01*
X64269980Y14779980D02*
X64269980Y14779980D01*
X64269980Y13830000D02*
X64269980Y13830000D01*
D13*
X60220000Y14839980D02*
X60220000Y14839980D01*
X60220000Y13339980D02*
X60220000Y13339980D01*
X60220000Y10139980D02*
X60220000Y10139980D01*
X60220000Y11639980D02*
X60220000Y11639980D01*
D15*
X58479990Y14570000D02*
X58479990Y14570000D01*
X56980000Y14570000D02*
X56980000Y14570000D01*
D13*
X60220000Y7050000D02*
X60220000Y7050000D01*
X60220000Y8550000D02*
X60220000Y8550000D01*
X60220000Y5339990D02*
X60220000Y5339990D01*
X60220000Y3840000D02*
X60220000Y3840000D01*
D15*
X64279980Y4369990D02*
X64279980Y4369990D01*
X62779990Y4369990D02*
X62779990Y4369990D01*
X64279980Y6559980D02*
X64279980Y6559980D01*
X62779990Y6559980D02*
X62779990Y6559980D01*
D16*
X20250000Y80649980D02*
X20250000Y80649980D01*
X20250000Y79049980D02*
X20250000Y79049980D01*
X15849980Y80649980D02*
X15849980Y80649980D01*
X15849980Y79049980D02*
X15849980Y79049980D01*
X15849980Y77449980D02*
X15849980Y77449980D01*
X20250000Y77449980D02*
X20250000Y77449980D01*
X57250000Y80649980D02*
X57250000Y80649980D01*
X57250000Y79049980D02*
X57250000Y79049980D01*
X52849980Y80649980D02*
X52849980Y80649980D01*
X52849980Y79049980D02*
X52849980Y79049980D01*
X52849980Y77449980D02*
X52849980Y77449980D01*
X57250000Y77449980D02*
X57250000Y77449980D01*
D17*
X77127990Y62799980D02*
X77127990Y62799980D01*
D18*
X79413990Y69149980D02*
X79413990Y69149980D01*
D17*
X81699990Y62799980D02*
X81699990Y62799980D01*
D19*
X87149990Y86699980D02*
X87149990Y86699980D01*
X91649980Y86699980D02*
X91649980Y86699980D01*
D20*
X76519990Y85299980D02*
X76519990Y85299980D01*
X82719980Y85299980D02*
X82719980Y85299980D01*
D15*
X90130000Y51689990D02*
X90130000Y51689990D01*
X92129990Y51689990D02*
X92129990Y51689990D01*
X88130000Y51689990D02*
X88130000Y51689990D01*
D21*
X76994990Y74049990D02*
X76994990Y74049990D01*
X78264990Y74049990D02*
X78264990Y74049990D01*
X79534990Y74049990D02*
X79534990Y74049990D01*
X80804990Y74049990D02*
X80804990Y74049990D01*
X80804990Y79449980D02*
X80804990Y79449980D01*
X79534990Y79449980D02*
X79534990Y79449980D01*
X78264990Y79449980D02*
X78264990Y79449980D01*
X76994990Y79449980D02*
X76994990Y79449980D01*
D22*
X94959980Y75449990D02*
X94959980Y75449990D01*
X84999980Y75449990D02*
X84999980Y75449990D01*
D23*
X80999990Y57999990D02*
X80999990Y57999990D01*
X82899990Y57999990D02*
X82899990Y57999990D01*
X81949980Y59999980D02*
X81949980Y59999980D01*
D13*
X90049990Y66099990D02*
X90049990Y66099990D01*
X93349980Y66099990D02*
X93349980Y66099990D01*
D24*
X90049990Y61299980D02*
X90049990Y61299980D01*
X94049980Y61299980D02*
X94049980Y61299980D01*
D25*
X77149990Y55299990D02*
X77149990Y55299990D01*
X77149990Y56799990D02*
X77149990Y56799990D01*
X75099980Y55349980D02*
X75099980Y55349980D01*
X75099980Y56849980D02*
X75099980Y56849980D01*
D13*
X75199980Y60074990D02*
X75199980Y60074990D01*
X75199980Y58574990D02*
X75199980Y58574990D01*
X79199990Y58574990D02*
X79199990Y58574990D01*
X79199990Y60074990D02*
X79199990Y60074990D01*
X77200000Y60074990D02*
X77200000Y60074990D01*
X77200000Y58574990D02*
X77200000Y58574990D01*
X77549980Y51500000D02*
X77549980Y51500000D01*
X77549980Y53399990D02*
X77549980Y53399990D01*
X75549990Y52449980D02*
X75549990Y52449980D01*
X79199990Y55049980D02*
X79199990Y55049980D01*
X79199990Y56549980D02*
X79199990Y56549980D01*
X82799990Y56549980D02*
X82799990Y56549980D01*
X82799990Y55049980D02*
X82799990Y55049980D01*
D23*
X80149980Y51449990D02*
X80149980Y51449990D01*
X82049980Y51449990D02*
X82049980Y51449990D01*
X81099990Y53449980D02*
X81099990Y53449980D01*
X82049980Y52000000D02*
X82049980Y52000000D01*
M02*
