%TF.GenerationSoftware,KiCad,Pcbnew,4.0.7*%
%TF.CreationDate,2017-11-16T22:40:33+08:00*%
%TF.ProjectId,nixie-tube-merged,6E697869652D747562652D6D65726765,rev?*%
%TF.FileFunction,Soldermask,Bot*%
%FSLAX46Y46*%
G04 Gerber Fmt 4.6, Leading zero omitted, Abs format (unit mm)*
G04 Created by KiCad (PCBNEW 4.0.7) date 11/16/17 22:40:33*
%MOMM*%
%LPD*%
G01*
G04 APERTURE LIST*
%ADD10C,0.100000*%
%ADD11C,1.850000*%
%ADD12C,2.300000*%
%ADD13C,2.100000*%
%ADD14C,2.200000*%
%ADD15C,1.400000*%
%ADD16C,1.700000*%
%ADD17C,1.200000*%
%ADD18C,3.900000*%
%ADD19C,1.300000*%
%ADD20C,0.900000*%
%ADD21C,0.740000*%
%ADD22C,2.140000*%
%ADD23C,2.400000*%
%ADD24C,1.924000*%
%ADD25C,2.000000*%
G04 APERTURE END LIST*
D10*
D11*
X9709990Y39300000D02*
X9709990Y39300000D01*
X9709990Y34299980D02*
X9709990Y34299980D01*
D12*
X7009990Y40300000D02*
X7009990Y40300000D01*
X7009990Y33299980D02*
X7009990Y33299980D01*
D13*
X19199990Y41949980D02*
X19199990Y41949980D01*
X19199990Y39409980D02*
X19199990Y39409980D01*
X19199990Y36869980D02*
X19199990Y36869980D01*
X19199990Y34329980D02*
X19199990Y34329980D01*
X19199990Y31789980D02*
X19199990Y31789980D01*
D11*
X9709990Y25549990D02*
X9709990Y25549990D01*
X9709990Y20550000D02*
X9709990Y20550000D01*
D12*
X7009990Y26549990D02*
X7009990Y26549990D01*
X7009990Y19550000D02*
X7009990Y19550000D01*
D13*
X19199990Y28199990D02*
X19199990Y28199990D01*
X19199990Y25659990D02*
X19199990Y25659990D01*
X19199990Y23119990D02*
X19199990Y23119990D01*
X19199990Y20579990D02*
X19199990Y20579990D01*
X19199990Y18039990D02*
X19199990Y18039990D01*
D11*
X9709990Y11799980D02*
X9709990Y11799980D01*
X9709990Y6799990D02*
X9709990Y6799990D01*
D12*
X7009990Y12800000D02*
X7009990Y12800000D01*
X7009990Y5799990D02*
X7009990Y5799990D01*
D13*
X19199990Y14449980D02*
X19199990Y14449980D01*
X19199990Y11909980D02*
X19199990Y11909980D01*
X19199990Y9369980D02*
X19199990Y9369980D01*
X19199990Y6829980D02*
X19199990Y6829980D01*
X19199990Y4289980D02*
X19199990Y4289980D01*
D11*
X25709980Y39300000D02*
X25709980Y39300000D01*
X25709980Y34299980D02*
X25709980Y34299980D01*
D12*
X23009990Y40300000D02*
X23009990Y40300000D01*
X23009990Y33299980D02*
X23009990Y33299980D01*
D13*
X35199980Y41949980D02*
X35199980Y41949980D01*
X35199980Y39409980D02*
X35199980Y39409980D01*
X35199980Y36869980D02*
X35199980Y36869980D01*
X35199980Y34329980D02*
X35199980Y34329980D01*
X35199980Y31789980D02*
X35199980Y31789980D01*
D11*
X25709980Y25549990D02*
X25709980Y25549990D01*
X25709980Y20550000D02*
X25709980Y20550000D01*
D12*
X23009990Y26549990D02*
X23009990Y26549990D01*
X23009990Y19550000D02*
X23009990Y19550000D01*
D13*
X35199980Y28199990D02*
X35199980Y28199990D01*
X35199980Y25659990D02*
X35199980Y25659990D01*
X35199980Y23119990D02*
X35199980Y23119990D01*
X35199980Y20579990D02*
X35199980Y20579990D01*
X35199980Y18039990D02*
X35199980Y18039990D01*
D11*
X25709980Y11799980D02*
X25709980Y11799980D01*
X25709980Y6799990D02*
X25709980Y6799990D01*
D12*
X23009990Y12800000D02*
X23009990Y12800000D01*
X23009990Y5799990D02*
X23009990Y5799990D01*
D13*
X35199980Y14449980D02*
X35199980Y14449980D01*
X35199980Y11909980D02*
X35199980Y11909980D01*
X35199980Y9369980D02*
X35199980Y9369980D01*
X35199980Y6829980D02*
X35199980Y6829980D01*
X35199980Y4289980D02*
X35199980Y4289980D01*
D11*
X41709980Y39300000D02*
X41709980Y39300000D01*
X41709980Y34299980D02*
X41709980Y34299980D01*
D12*
X39009980Y40300000D02*
X39009980Y40300000D01*
X39009980Y33299980D02*
X39009980Y33299980D01*
D13*
X51200000Y41949980D02*
X51200000Y41949980D01*
X51200000Y39409980D02*
X51200000Y39409980D01*
X51200000Y36869980D02*
X51200000Y36869980D01*
X51200000Y34329980D02*
X51200000Y34329980D01*
X51200000Y31789980D02*
X51200000Y31789980D01*
D11*
X41709980Y25549990D02*
X41709980Y25549990D01*
X41709980Y20550000D02*
X41709980Y20550000D01*
D12*
X39009980Y26549990D02*
X39009980Y26549990D01*
X39009980Y19550000D02*
X39009980Y19550000D01*
D13*
X51200000Y28199990D02*
X51200000Y28199990D01*
X51200000Y25659990D02*
X51200000Y25659990D01*
X51200000Y23119990D02*
X51200000Y23119990D01*
X51200000Y20579990D02*
X51200000Y20579990D01*
X51200000Y18039990D02*
X51200000Y18039990D01*
D11*
X41709980Y11799980D02*
X41709980Y11799980D01*
X41709980Y6799990D02*
X41709980Y6799990D01*
D12*
X39009980Y12800000D02*
X39009980Y12800000D01*
X39009980Y5799990D02*
X39009980Y5799990D01*
D13*
X51200000Y14449980D02*
X51200000Y14449980D01*
X51200000Y11909980D02*
X51200000Y11909980D01*
X51200000Y9369980D02*
X51200000Y9369980D01*
X51200000Y6829980D02*
X51200000Y6829980D01*
X51200000Y4289980D02*
X51200000Y4289980D01*
D11*
X57709990Y39300000D02*
X57709990Y39300000D01*
X57709990Y34299980D02*
X57709990Y34299980D01*
D12*
X55010000Y40300000D02*
X55010000Y40300000D01*
X55010000Y33299980D02*
X55010000Y33299980D01*
D13*
X67199990Y41949980D02*
X67199990Y41949980D01*
X67199990Y39409980D02*
X67199990Y39409980D01*
X67199990Y36869980D02*
X67199990Y36869980D01*
X67199990Y34329980D02*
X67199990Y34329980D01*
X67199990Y31789980D02*
X67199990Y31789980D01*
D11*
X57709990Y25549990D02*
X57709990Y25549990D01*
X57709990Y20550000D02*
X57709990Y20550000D01*
D12*
X55010000Y26549990D02*
X55010000Y26549990D01*
X55010000Y19550000D02*
X55010000Y19550000D01*
D13*
X67199990Y28199990D02*
X67199990Y28199990D01*
X67199990Y25659990D02*
X67199990Y25659990D01*
X67199990Y23119990D02*
X67199990Y23119990D01*
X67199990Y20579990D02*
X67199990Y20579990D01*
X67199990Y18039990D02*
X67199990Y18039990D01*
D11*
X57709990Y11799980D02*
X57709990Y11799980D01*
X57709990Y6799990D02*
X57709990Y6799990D01*
D12*
X55010000Y12800000D02*
X55010000Y12800000D01*
X55010000Y5799990D02*
X55010000Y5799990D01*
D13*
X67199990Y14449980D02*
X67199990Y14449980D01*
X67199990Y11909980D02*
X67199990Y11909980D01*
X67199990Y9369980D02*
X67199990Y9369980D01*
X67199990Y6829980D02*
X67199990Y6829980D01*
X67199990Y4289980D02*
X67199990Y4289980D01*
D14*
X89109980Y13649990D02*
X89109980Y13649990D01*
X89109980Y25649990D02*
X89109980Y25649990D01*
D15*
X86809990Y17110000D02*
X86809990Y17110000D01*
X84269990Y18124980D02*
X84269990Y18124980D01*
X86809990Y19139990D02*
X86809990Y19139990D01*
X84269990Y20154980D02*
X84269990Y20154980D01*
X86809990Y21169990D02*
X86809990Y21169990D01*
X84269990Y22184970D02*
X84269990Y22184970D01*
D16*
X77000000Y26049990D02*
X77000000Y26049990D01*
X77000000Y23509990D02*
X77000000Y23509990D01*
X77000000Y20969990D02*
X77000000Y20969990D01*
X77000000Y18429990D02*
X77000000Y18429990D01*
X77000000Y15889990D02*
X77000000Y15889990D01*
X77000000Y13349990D02*
X77000000Y13349990D01*
D14*
X89109980Y29649980D02*
X89109980Y29649980D01*
X89109980Y41649980D02*
X89109980Y41649980D01*
D15*
X86809990Y33109990D02*
X86809990Y33109990D01*
X84269990Y34124980D02*
X84269990Y34124980D01*
X86809990Y35139990D02*
X86809990Y35139990D01*
X84269990Y36155000D02*
X84269990Y36155000D01*
X86809990Y37169980D02*
X86809990Y37169980D01*
X84269990Y38184990D02*
X84269990Y38184990D01*
D16*
X77000000Y42049980D02*
X77000000Y42049980D01*
X77000000Y39509980D02*
X77000000Y39509980D01*
X77000000Y36969980D02*
X77000000Y36969980D01*
X77000000Y34429980D02*
X77000000Y34429980D01*
X77000000Y31889980D02*
X77000000Y31889980D01*
X77000000Y29349980D02*
X77000000Y29349980D01*
D17*
X31750000Y69499990D02*
X31750000Y69499990D01*
X30249980Y69499990D02*
X30249980Y69499990D01*
D18*
X33299980Y92299990D02*
X33299980Y92299990D01*
X3499990Y92299990D02*
X3499990Y92299990D01*
X4699990Y48099980D02*
X4699990Y48099980D01*
X33029980Y48099980D02*
X33029980Y48099980D01*
D14*
X18143140Y88214200D02*
X18143140Y88214200D01*
X14563600Y87397180D02*
X14563600Y87397180D01*
X11693040Y85107980D02*
X11693040Y85107980D01*
X10099980Y81799990D02*
X10099980Y81799990D01*
X10099980Y78128390D02*
X10099980Y78128390D01*
X11693040Y74820400D02*
X11693040Y74820400D01*
X14563600Y72531200D02*
X14563600Y72531200D01*
X18143140Y71714180D02*
X18143140Y71714180D01*
X24593250Y74820400D02*
X24593250Y74820400D01*
X26186310Y78128390D02*
X26186310Y78128390D01*
X26186310Y81799990D02*
X26186310Y81799990D01*
X24593250Y85107980D02*
X24593250Y85107980D01*
X21722690Y87397180D02*
X21722690Y87397180D01*
D19*
X3599990Y85299980D02*
X3599990Y85299980D01*
X3599990Y83399990D02*
X3599990Y83399990D01*
X1600000Y84350000D02*
X1600000Y84350000D01*
D17*
X30249980Y65649980D02*
X30249980Y65649980D01*
X31750000Y65649980D02*
X31750000Y65649980D01*
D13*
X11099980Y97999980D02*
X11099980Y97999980D01*
D19*
X7874990Y85274990D02*
X7874990Y85274990D01*
X7874990Y83374990D02*
X7874990Y83374990D01*
X5874990Y84324980D02*
X5874990Y84324980D01*
X25749990Y66949980D02*
X25749990Y66949980D01*
X25749990Y65049980D02*
X25749990Y65049980D01*
X23749990Y66000000D02*
X23749990Y66000000D01*
X18749980Y55999990D02*
X18749980Y55999990D01*
X18749980Y54099990D02*
X18749980Y54099990D01*
X16749980Y55049980D02*
X16749980Y55049980D01*
X18749980Y61574980D02*
X18749980Y61574980D01*
X18749980Y59674990D02*
X18749980Y59674990D01*
X16749980Y60625000D02*
X16749980Y60625000D01*
X32799990Y56075000D02*
X32799990Y56075000D01*
X32799990Y54175000D02*
X32799990Y54175000D01*
X30799990Y55124990D02*
X30799990Y55124990D01*
X18749980Y66949980D02*
X18749980Y66949980D01*
X18749980Y65049980D02*
X18749980Y65049980D01*
X16749980Y66000000D02*
X16749980Y66000000D01*
X25749990Y55999990D02*
X25749990Y55999990D01*
X25749990Y54099990D02*
X25749990Y54099990D01*
X23749990Y55049980D02*
X23749990Y55049980D01*
X32799990Y61574980D02*
X32799990Y61574980D01*
X32799990Y59674990D02*
X32799990Y59674990D01*
X30799990Y60625000D02*
X30799990Y60625000D01*
X25749990Y61574980D02*
X25749990Y61574980D01*
X25749990Y59674990D02*
X25749990Y59674990D01*
X23749990Y60625000D02*
X23749990Y60625000D01*
X17749980Y76949990D02*
X17749980Y76949990D01*
X17749980Y75049990D02*
X17749980Y75049990D01*
X15749980Y75999980D02*
X15749980Y75999980D01*
X17649980Y80949980D02*
X17649980Y80949980D01*
X17649980Y79049980D02*
X17649980Y79049980D01*
X15649980Y79999990D02*
X15649980Y79999990D01*
X17649980Y84750000D02*
X17649980Y84750000D01*
X17649980Y82850000D02*
X17649980Y82850000D01*
X15649980Y83799980D02*
X15649980Y83799980D01*
X33150000Y75799980D02*
X33150000Y75799980D01*
X33150000Y73899980D02*
X33150000Y73899980D01*
X31149980Y74849990D02*
X31149980Y74849990D01*
D20*
X7724980Y81924980D02*
X7724980Y81924980D01*
X6224980Y81924980D02*
X6224980Y81924980D01*
X3349980Y81849980D02*
X3349980Y81849980D01*
X1849980Y81849980D02*
X1849980Y81849980D01*
D19*
X28999990Y55649980D02*
X28999990Y55649980D01*
X28999990Y54149980D02*
X28999990Y54149980D01*
X21949990Y66599990D02*
X21949990Y66599990D01*
X21949990Y65100000D02*
X21949990Y65100000D01*
X14949980Y55575000D02*
X14949980Y55575000D01*
X14949980Y54075000D02*
X14949980Y54075000D01*
X14949980Y61374990D02*
X14949980Y61374990D01*
X14949980Y59874990D02*
X14949980Y59874990D01*
X14949980Y66599990D02*
X14949980Y66599990D01*
X14949980Y65100000D02*
X14949980Y65100000D01*
X28999990Y61374990D02*
X28999990Y61374990D01*
X28999990Y59874990D02*
X28999990Y59874990D01*
D20*
X21099980Y77000000D02*
X21099980Y77000000D01*
X19599990Y77000000D02*
X19599990Y77000000D01*
X21099980Y81049980D02*
X21099980Y81049980D01*
X19599990Y81049980D02*
X19599990Y81049980D01*
X21099980Y84499980D02*
X21099980Y84499980D01*
X19599990Y84499980D02*
X19599990Y84499980D01*
X7674990Y86825000D02*
X7674990Y86825000D01*
X6174990Y86825000D02*
X6174990Y86825000D01*
X24099980Y68999990D02*
X24099980Y68999990D01*
X25600000Y68999990D02*
X25600000Y68999990D01*
X1800000Y86849990D02*
X1800000Y86849990D01*
X3299990Y86849990D02*
X3299990Y86849990D01*
X16949980Y57750000D02*
X16949980Y57750000D01*
X18449980Y57750000D02*
X18449980Y57750000D01*
X16749980Y63374980D02*
X16749980Y63374980D01*
X18249980Y63374980D02*
X18249980Y63374980D01*
X30999990Y57874990D02*
X30999990Y57874990D01*
X32499990Y57874990D02*
X32499990Y57874990D01*
X16949980Y68999990D02*
X16949980Y68999990D01*
X18449980Y68999990D02*
X18449980Y68999990D01*
X23949990Y57724980D02*
X23949990Y57724980D01*
X25449990Y57724980D02*
X25449990Y57724980D01*
X30799990Y63374980D02*
X30799990Y63374980D01*
X32299990Y63374980D02*
X32299990Y63374980D01*
X23899980Y63374980D02*
X23899980Y63374980D01*
X25400000Y63374980D02*
X25400000Y63374980D01*
D19*
X31049980Y77400000D02*
X31049980Y77400000D01*
X31049980Y78899990D02*
X31049980Y78899990D01*
X32950000Y78949980D02*
X32950000Y78949980D01*
X32950000Y77449980D02*
X32950000Y77449980D01*
D21*
X19489980Y51430000D02*
X19489980Y51430000D01*
X20759980Y51430000D02*
X20759980Y51430000D01*
X22029980Y51430000D02*
X22029980Y51430000D01*
X23299980Y51430000D02*
X23299980Y51430000D01*
X24569980Y51430000D02*
X24569980Y51430000D01*
X25839980Y51430000D02*
X25839980Y51430000D01*
X27109980Y51430000D02*
X27109980Y51430000D01*
X27109980Y45580000D02*
X27109980Y45580000D01*
X25839980Y45580000D02*
X25839980Y45580000D01*
X24569980Y45580000D02*
X24569980Y45580000D01*
X23299980Y45580000D02*
X23299980Y45580000D01*
X22029980Y45580000D02*
X22029980Y45580000D01*
X20759980Y45580000D02*
X20759980Y45580000D01*
X19489980Y45580000D02*
X19489980Y45580000D01*
X28379980Y51430000D02*
X28379980Y51430000D01*
X28379980Y45580000D02*
X28379980Y45580000D01*
D22*
X7499990Y79419980D02*
X7499990Y79419980D01*
X7499990Y78149980D02*
X7499990Y78149980D01*
X7499990Y76879980D02*
X7499990Y76879980D01*
X7499990Y75609980D02*
X7499990Y75609980D01*
X7499990Y74339980D02*
X7499990Y74339980D01*
X7499990Y73069980D02*
X7499990Y73069980D01*
X7499990Y71799980D02*
X7499990Y71799980D01*
X1649980Y71799980D02*
X1649980Y71799980D01*
X1649980Y73069980D02*
X1649980Y73069980D01*
X1649980Y74339980D02*
X1649980Y74339980D01*
X1649980Y75609980D02*
X1649980Y75609980D01*
X1649980Y76879980D02*
X1649980Y76879980D01*
X1649980Y78149980D02*
X1649980Y78149980D01*
X1649980Y79419980D02*
X1649980Y79419980D01*
X7499990Y70529980D02*
X7499990Y70529980D01*
X1649980Y70529980D02*
X1649980Y70529980D01*
D19*
X33050000Y84050000D02*
X33050000Y84050000D01*
X33050000Y82149980D02*
X33050000Y82149980D01*
X31049980Y83099990D02*
X31049980Y83099990D01*
X30999990Y85799980D02*
X30999990Y85799980D01*
X30999990Y87299980D02*
X30999990Y87299980D01*
X32999980Y87299980D02*
X32999980Y87299980D01*
X32999980Y85799980D02*
X32999980Y85799980D01*
D13*
X11099980Y66999990D02*
X11099980Y66999990D01*
X11099980Y64459990D02*
X11099980Y64459990D01*
X11099980Y61919990D02*
X11099980Y61919990D01*
X11099980Y59379990D02*
X11099980Y59379990D01*
X11099980Y56839990D02*
X11099980Y56839990D01*
X11099980Y54299990D02*
X11099980Y54299990D01*
D17*
X31750000Y67799990D02*
X31750000Y67799990D01*
X30249980Y67799990D02*
X30249980Y67799990D01*
D19*
X21949990Y55999990D02*
X21949990Y55999990D01*
X21949990Y54499990D02*
X21949990Y54499990D01*
X22099980Y61374990D02*
X22099980Y61374990D01*
X22099980Y59874990D02*
X22099980Y59874990D01*
D23*
X16599990Y48299980D02*
X16599990Y48299980D01*
X10299980Y48299980D02*
X10299980Y48299980D01*
X10299980Y50599980D02*
X10299980Y50599980D01*
X10299980Y45999980D02*
X10299980Y45999980D01*
D13*
X35549990Y97999980D02*
X35549990Y97999980D01*
X35499980Y66999990D02*
X35499980Y66999990D01*
X35499980Y64459990D02*
X35499980Y64459990D01*
X35499980Y61919990D02*
X35499980Y61919990D01*
X35499980Y59379990D02*
X35499980Y59379990D01*
X35499980Y56839990D02*
X35499980Y56839990D01*
X35499980Y54299990D02*
X35499980Y54299990D01*
D24*
X35199980Y78700000D02*
X35199980Y78700000D01*
X35199980Y73699980D02*
X35199980Y73699980D01*
X35149990Y87049990D02*
X35149990Y87049990D01*
X35149990Y82049980D02*
X35149990Y82049980D01*
D14*
X60893150Y84464190D02*
X60893150Y84464190D01*
X60893150Y79964180D02*
X60893150Y79964180D01*
X60893150Y75464190D02*
X60893150Y75464190D01*
X49393140Y84464190D02*
X49393140Y84464190D01*
X49393140Y79964180D02*
X49393140Y79964180D01*
X49393140Y75464190D02*
X49393140Y75464190D01*
X51143150Y87964190D02*
X51143150Y87964190D01*
X59143140Y87964190D02*
X59143140Y87964190D01*
X51143150Y71964190D02*
X51143150Y71964190D01*
X59143140Y71964190D02*
X59143140Y71964190D01*
X55143150Y88964190D02*
X55143150Y88964190D01*
D23*
X53599990Y48299980D02*
X53599990Y48299980D01*
X47299980Y48299980D02*
X47299980Y48299980D01*
X47299980Y50599980D02*
X47299980Y50599980D01*
X47299980Y45999980D02*
X47299980Y45999980D01*
D17*
X68749980Y67799990D02*
X68749980Y67799990D01*
X67249980Y67799990D02*
X67249980Y67799990D01*
D19*
X69999990Y87299980D02*
X69999990Y87299980D01*
X69999990Y85799980D02*
X69999990Y85799980D01*
X67999990Y85799980D02*
X67999990Y85799980D01*
X67999990Y87299980D02*
X67999990Y87299980D01*
X70050000Y84050000D02*
X70050000Y84050000D01*
X70050000Y82149980D02*
X70050000Y82149980D01*
X68049980Y83099990D02*
X68049980Y83099990D01*
D22*
X44499990Y79419980D02*
X44499990Y79419980D01*
X44499990Y78149980D02*
X44499990Y78149980D01*
X44499990Y76879980D02*
X44499990Y76879980D01*
X44499990Y75609980D02*
X44499990Y75609980D01*
X44499990Y74339980D02*
X44499990Y74339980D01*
X44499990Y73069980D02*
X44499990Y73069980D01*
X44499990Y71799980D02*
X44499990Y71799980D01*
X38649990Y71799980D02*
X38649990Y71799980D01*
X38649990Y73069980D02*
X38649990Y73069980D01*
X38649990Y74339980D02*
X38649990Y74339980D01*
X38649990Y75609980D02*
X38649990Y75609980D01*
X38649990Y76879980D02*
X38649990Y76879980D01*
X38649990Y78149980D02*
X38649990Y78149980D01*
X38649990Y79419980D02*
X38649990Y79419980D01*
X44499990Y70529980D02*
X44499990Y70529980D01*
X38649990Y70529980D02*
X38649990Y70529980D01*
D21*
X56489980Y51430000D02*
X56489980Y51430000D01*
X57759980Y51430000D02*
X57759980Y51430000D01*
X59029980Y51430000D02*
X59029980Y51430000D01*
X60299980Y51430000D02*
X60299980Y51430000D01*
X61569980Y51430000D02*
X61569980Y51430000D01*
X62839980Y51430000D02*
X62839980Y51430000D01*
X64109980Y51430000D02*
X64109980Y51430000D01*
X64109980Y45580000D02*
X64109980Y45580000D01*
X62839980Y45580000D02*
X62839980Y45580000D01*
X61569980Y45580000D02*
X61569980Y45580000D01*
X60299980Y45580000D02*
X60299980Y45580000D01*
X59029980Y45580000D02*
X59029980Y45580000D01*
X57759980Y45580000D02*
X57759980Y45580000D01*
X56489980Y45580000D02*
X56489980Y45580000D01*
X65379980Y51430000D02*
X65379980Y51430000D01*
X65379980Y45580000D02*
X65379980Y45580000D01*
D19*
X69950000Y78949980D02*
X69950000Y78949980D01*
X69950000Y77449980D02*
X69950000Y77449980D01*
X68049980Y77400000D02*
X68049980Y77400000D01*
X68049980Y78899990D02*
X68049980Y78899990D01*
D20*
X60899980Y63374980D02*
X60899980Y63374980D01*
X62399980Y63374980D02*
X62399980Y63374980D01*
X67799990Y63374980D02*
X67799990Y63374980D01*
X69299990Y63374980D02*
X69299990Y63374980D01*
X60949990Y57724980D02*
X60949990Y57724980D01*
X62449990Y57724980D02*
X62449990Y57724980D01*
X53949980Y68999990D02*
X53949980Y68999990D01*
X55449980Y68999990D02*
X55449980Y68999990D01*
X67999990Y57874990D02*
X67999990Y57874990D01*
X69499990Y57874990D02*
X69499990Y57874990D01*
X53749980Y63374980D02*
X53749980Y63374980D01*
X55249980Y63374980D02*
X55249980Y63374980D01*
X53949980Y57750000D02*
X53949980Y57750000D01*
X55449980Y57750000D02*
X55449980Y57750000D01*
X38800000Y86849990D02*
X38800000Y86849990D01*
X40300000Y86849990D02*
X40300000Y86849990D01*
X61099980Y68999990D02*
X61099980Y68999990D01*
X62599980Y68999990D02*
X62599980Y68999990D01*
X44674990Y86825000D02*
X44674990Y86825000D01*
X43175000Y86825000D02*
X43175000Y86825000D01*
X58099990Y84499980D02*
X58099990Y84499980D01*
X56599990Y84499980D02*
X56599990Y84499980D01*
X58099990Y81049980D02*
X58099990Y81049980D01*
X56599990Y81049980D02*
X56599990Y81049980D01*
X58099990Y77000000D02*
X58099990Y77000000D01*
X56599990Y77000000D02*
X56599990Y77000000D01*
D19*
X66000000Y61374990D02*
X66000000Y61374990D01*
X66000000Y59874990D02*
X66000000Y59874990D01*
X51949990Y66599990D02*
X51949990Y66599990D01*
X51949990Y65100000D02*
X51949990Y65100000D01*
X51949990Y61374990D02*
X51949990Y61374990D01*
X51949990Y59874990D02*
X51949990Y59874990D01*
X51949990Y55575000D02*
X51949990Y55575000D01*
X51949990Y54075000D02*
X51949990Y54075000D01*
X58950000Y66599990D02*
X58950000Y66599990D01*
X58950000Y65100000D02*
X58950000Y65100000D01*
X59099980Y61374990D02*
X59099980Y61374990D01*
X59099980Y59874990D02*
X59099980Y59874990D01*
X58950000Y55575000D02*
X58950000Y55575000D01*
X58950000Y54075000D02*
X58950000Y54075000D01*
X66000000Y55649980D02*
X66000000Y55649980D01*
X66000000Y54149980D02*
X66000000Y54149980D01*
D20*
X40349980Y81849980D02*
X40349980Y81849980D01*
X38849990Y81849980D02*
X38849990Y81849980D01*
X44724980Y81924980D02*
X44724980Y81924980D01*
X43224980Y81924980D02*
X43224980Y81924980D01*
D19*
X70150000Y75799980D02*
X70150000Y75799980D01*
X70150000Y73899980D02*
X70150000Y73899980D01*
X68149980Y74849990D02*
X68149980Y74849990D01*
X54649980Y84750000D02*
X54649980Y84750000D01*
X54649980Y82850000D02*
X54649980Y82850000D01*
X52649980Y83799980D02*
X52649980Y83799980D01*
X54649980Y80949980D02*
X54649980Y80949980D01*
X54649980Y79049980D02*
X54649980Y79049980D01*
X52649980Y79999990D02*
X52649980Y79999990D01*
X54749980Y76949990D02*
X54749980Y76949990D01*
X54749980Y75049990D02*
X54749980Y75049990D01*
X52749980Y75999980D02*
X52749980Y75999980D01*
X62749990Y61574980D02*
X62749990Y61574980D01*
X62749990Y59674990D02*
X62749990Y59674990D01*
X60749990Y60625000D02*
X60749990Y60625000D01*
X69799990Y61574980D02*
X69799990Y61574980D01*
X69799990Y59674990D02*
X69799990Y59674990D01*
X67799990Y60625000D02*
X67799990Y60625000D01*
X62749990Y55999990D02*
X62749990Y55999990D01*
X62749990Y54099990D02*
X62749990Y54099990D01*
X60749990Y55049980D02*
X60749990Y55049980D01*
X55749980Y66949980D02*
X55749980Y66949980D01*
X55749980Y65049980D02*
X55749980Y65049980D01*
X53749980Y66000000D02*
X53749980Y66000000D01*
X69799990Y56075000D02*
X69799990Y56075000D01*
X69799990Y54175000D02*
X69799990Y54175000D01*
X67799990Y55124990D02*
X67799990Y55124990D01*
X55749980Y61574980D02*
X55749980Y61574980D01*
X55749980Y59674990D02*
X55749980Y59674990D01*
X53749980Y60625000D02*
X53749980Y60625000D01*
X55749980Y55999990D02*
X55749980Y55999990D01*
X55749980Y54099990D02*
X55749980Y54099990D01*
X53749980Y55049980D02*
X53749980Y55049980D01*
X62749990Y66949980D02*
X62749990Y66949980D01*
X62749990Y65049980D02*
X62749990Y65049980D01*
X60749990Y66000000D02*
X60749990Y66000000D01*
X44874990Y85274990D02*
X44874990Y85274990D01*
X44874990Y83374990D02*
X44874990Y83374990D01*
X42875000Y84324980D02*
X42875000Y84324980D01*
D17*
X67249980Y65649980D02*
X67249980Y65649980D01*
X68749980Y65649980D02*
X68749980Y65649980D01*
D19*
X40600000Y85299980D02*
X40600000Y85299980D01*
X40600000Y83399990D02*
X40600000Y83399990D01*
X38600000Y84350000D02*
X38600000Y84350000D01*
D18*
X70029980Y48099980D02*
X70029980Y48099980D01*
X41699990Y48099980D02*
X41699990Y48099980D01*
X40500000Y92299990D02*
X40500000Y92299990D01*
X70299990Y92299990D02*
X70299990Y92299990D01*
D17*
X68749980Y69499990D02*
X68749980Y69499990D01*
X67249980Y69499990D02*
X67249980Y69499990D01*
D24*
X72150000Y87049990D02*
X72150000Y87049990D01*
X72150000Y82049980D02*
X72150000Y82049980D01*
X72199980Y78700000D02*
X72199980Y78700000D01*
X72199980Y73699980D02*
X72199980Y73699980D01*
D13*
X48099980Y66999990D02*
X48099980Y66999990D01*
X48099980Y64459990D02*
X48099980Y64459990D01*
X48099980Y61919990D02*
X48099980Y61919990D01*
X48099980Y59379990D02*
X48099980Y59379990D01*
X48099980Y56839990D02*
X48099980Y56839990D01*
X48099980Y54299990D02*
X48099980Y54299990D01*
X72499980Y66999990D02*
X72499980Y66999990D01*
X72499980Y64459990D02*
X72499980Y64459990D01*
X72499980Y61919990D02*
X72499980Y61919990D01*
X72499980Y59379990D02*
X72499980Y59379990D01*
X72499980Y56839990D02*
X72499980Y56839990D01*
X72499980Y54299990D02*
X72499980Y54299990D01*
X72549990Y97999980D02*
X72549990Y97999980D01*
X48099980Y97999980D02*
X48099980Y97999980D01*
D15*
X76219990Y87699980D02*
X76219990Y87699980D01*
X82419980Y87699980D02*
X82419980Y87699980D01*
X78519990Y87699980D02*
X78519990Y87699980D01*
X80119980Y87699980D02*
X80119980Y87699980D01*
X76269980Y83680000D02*
X76269980Y83680000D01*
X82469990Y83680000D02*
X82469990Y83680000D01*
X78570000Y83680000D02*
X78570000Y83680000D01*
X80169990Y83680000D02*
X80169990Y83680000D01*
D18*
X96779990Y48879990D02*
X96779990Y48879990D01*
X77800000Y47199980D02*
X77800000Y47199980D01*
X96199990Y92499990D02*
X96199990Y92499990D01*
X77500000Y93099990D02*
X77500000Y93099990D01*
D25*
X89400000Y87825000D02*
X89400000Y87825000D01*
X89400000Y85324980D02*
X89400000Y85324980D01*
D16*
X88130000Y45689980D02*
X88130000Y45689980D01*
X92129990Y45689980D02*
X92129990Y45689980D01*
D13*
X85199980Y97999980D02*
X85199980Y97999980D01*
X98249990Y66999990D02*
X98249990Y66999990D01*
X98249990Y64459990D02*
X98249990Y64459990D01*
X98249990Y61919990D02*
X98249990Y61919990D01*
X98249990Y59379990D02*
X98249990Y59379990D01*
X98249990Y56839990D02*
X98249990Y56839990D01*
X98249990Y54299990D02*
X98249990Y54299990D01*
X85099980Y66999990D02*
X85099980Y66999990D01*
X85099980Y64459990D02*
X85099980Y64459990D01*
X85099980Y61919990D02*
X85099980Y61919990D01*
X85099980Y59379990D02*
X85099980Y59379990D01*
X85099980Y56839990D02*
X85099980Y56839990D01*
X85099980Y54299990D02*
X85099980Y54299990D01*
X98249990Y97999980D02*
X98249990Y97999980D01*
M02*
