%MOIN*%
%OFA0B0*%
%FSLAX46Y46*%
%IPPOS*%
%LPD*%
%ADD10C,0.0039370078740157488*%
%ADD11R,0.074803149606299218X0.059055118110236227*%
%ADD12R,0.053149606299212608X0.015748031496062995*%
%ADD13R,0.035433070866141732X0.031496062992125991*%
%ADD14R,0.041732283464566935X0.025590551181102365*%
%ADD15R,0.035433070866141732X0.01968503937007874*%
%ADD16R,0.01968503937007874X0.035433070866141732*%
%ADD27C,0.0039370078740157488*%
%ADD28R,0.074803149606299218X0.059055118110236227*%
%ADD29R,0.053149606299212608X0.015748031496062995*%
%ADD30R,0.035433070866141732X0.031496062992125991*%
%ADD31R,0.041732283464566935X0.025590551181102365*%
%ADD32R,0.035433070866141732X0.01968503937007874*%
%ADD33R,0.01968503937007874X0.035433070866141732*%
%ADD34C,0.0039370078740157488*%
%ADD35R,0.074803149606299218X0.059055118110236227*%
%ADD36R,0.053149606299212608X0.015748031496062995*%
%ADD37R,0.035433070866141732X0.031496062992125991*%
%ADD38R,0.041732283464566935X0.025590551181102365*%
%ADD39R,0.035433070866141732X0.01968503937007874*%
%ADD40R,0.01968503937007874X0.035433070866141732*%
%ADD41C,0.0039370078740157488*%
%ADD42R,0.074803149606299218X0.059055118110236227*%
%ADD43R,0.053149606299212608X0.015748031496062995*%
%ADD44R,0.035433070866141732X0.031496062992125991*%
%ADD45R,0.041732283464566935X0.025590551181102365*%
%ADD46R,0.035433070866141732X0.01968503937007874*%
%ADD47R,0.01968503937007874X0.035433070866141732*%
%ADD48C,0.0039370078740157488*%
%ADD49R,0.074803149606299218X0.059055118110236227*%
%ADD50R,0.053149606299212608X0.015748031496062995*%
%ADD51R,0.035433070866141732X0.031496062992125991*%
%ADD52R,0.041732283464566935X0.025590551181102365*%
%ADD53R,0.035433070866141732X0.01968503937007874*%
%ADD54R,0.01968503937007874X0.035433070866141732*%
%ADD55C,0.0039370078740157488*%
%ADD56R,0.074803149606299218X0.059055118110236227*%
%ADD57R,0.053149606299212608X0.015748031496062995*%
%ADD58R,0.035433070866141732X0.031496062992125991*%
%ADD59R,0.041732283464566935X0.025590551181102365*%
%ADD60R,0.035433070866141732X0.01968503937007874*%
%ADD61R,0.01968503937007874X0.035433070866141732*%
%ADD62C,0.0039370078740157488*%
%ADD63R,0.074803149606299218X0.059055118110236227*%
%ADD64R,0.053149606299212608X0.015748031496062995*%
%ADD65R,0.035433070866141732X0.031496062992125991*%
%ADD66R,0.041732283464566935X0.025590551181102365*%
%ADD67R,0.035433070866141732X0.01968503937007874*%
%ADD68R,0.01968503937007874X0.035433070866141732*%
%ADD69C,0.0039370078740157488*%
%ADD70R,0.074803149606299218X0.059055118110236227*%
%ADD71R,0.053149606299212608X0.015748031496062995*%
%ADD72R,0.035433070866141732X0.031496062992125991*%
%ADD73R,0.041732283464566935X0.025590551181102365*%
%ADD74R,0.035433070866141732X0.01968503937007874*%
%ADD75R,0.01968503937007874X0.035433070866141732*%
%ADD76C,0.0039370078740157488*%
%ADD77R,0.074803149606299218X0.059055118110236227*%
%ADD78R,0.053149606299212608X0.015748031496062995*%
%ADD79R,0.035433070866141732X0.031496062992125991*%
%ADD80R,0.041732283464566935X0.025590551181102365*%
%ADD81R,0.035433070866141732X0.01968503937007874*%
%ADD82R,0.01968503937007874X0.035433070866141732*%
%ADD83C,0.0039370078740157488*%
%ADD84R,0.074803149606299218X0.059055118110236227*%
%ADD85R,0.053149606299212608X0.015748031496062995*%
%ADD86R,0.035433070866141732X0.031496062992125991*%
%ADD87R,0.041732283464566935X0.025590551181102365*%
%ADD88R,0.035433070866141732X0.01968503937007874*%
%ADD89R,0.01968503937007874X0.035433070866141732*%
%ADD90C,0.0039370078740157488*%
%ADD91R,0.074803149606299218X0.059055118110236227*%
%ADD92R,0.053149606299212608X0.015748031496062995*%
%ADD93R,0.035433070866141732X0.031496062992125991*%
%ADD94R,0.041732283464566935X0.025590551181102365*%
%ADD95R,0.035433070866141732X0.01968503937007874*%
%ADD96R,0.01968503937007874X0.035433070866141732*%
%ADD97C,0.0039370078740157488*%
%ADD98R,0.074803149606299218X0.059055118110236227*%
%ADD99R,0.053149606299212608X0.015748031496062995*%
%ADD100R,0.035433070866141732X0.031496062992125991*%
%ADD101R,0.041732283464566935X0.025590551181102365*%
%ADD102R,0.035433070866141732X0.01968503937007874*%
%ADD103R,0.01968503937007874X0.035433070866141732*%
%ADD104C,0.0039370078740157488*%
%ADD105R,0.047244094488188976X0.047244094488188976*%
%ADD106C,0.0039370078740157488*%
%ADD107R,0.047244094488188976X0.047244094488188976*%
%ADD108C,0.0039370078740157488*%
%ADD109C,0.0039370078740157488*%
%ADD110C,0.0039370078740157488*%
%ADD111R,0.065X0.12000000000000001*%
%ADD112R,0.24000000000000002X0.24000000000000002*%
%ADD113R,0.03937007874015748X0.14960629921259844*%
%ADD114R,0.13385826771653545X0.055118110236220472*%
%ADD115R,0.01968503937007874X0.047244094488188976*%
%ADD116R,0.023622047244094488X0.0610236220472441*%
%ADD117R,0.1141732283464567X0.21259842519685043*%
%ADD118R,0.031496062992125991X0.035433070866141732*%
%ADD119R,0.035433070866141732X0.047244094488188976*%
%ADD120R,0.0984251968503937X0.070866141732283464*%
%ADD121R,0.029527559055118113X0.031496062992125991*%
%ADD122R,0.035433070866141732X0.01968503937007874*%
%ADD123R,0.035433070866141732X0.031496062992125991*%
%ADD124R,0.031496062992125991X0.03937007874015748*%
G01G01*
D10*
D11*
X0000196850Y0001181102D02*
X0000275984Y0001409448D03*
D12*
X0000382283Y0001474409D03*
X0000382283Y0001500000D03*
X0000382283Y0001397637D03*
X0000382283Y0001423228D03*
X0000382283Y0001448818D03*
D11*
X0000275984Y0001488188D03*
D13*
X0000635433Y0001424409D03*
X0000635433Y0001499212D03*
X0000556692Y0001461810D03*
D14*
X0000553937Y0001664566D03*
X0000553937Y0001627165D03*
X0000553937Y0001589763D03*
X0000640551Y0001589763D03*
X0000640551Y0001664566D03*
X0000640551Y0001627165D03*
D15*
X0000481102Y0001666929D03*
X0000481102Y0001607874D03*
X0000481102Y0001481889D03*
X0000481102Y0001540944D03*
D16*
X0000412598Y0001656299D03*
X0000353543Y0001656299D03*
D15*
X0000481102Y0001360236D03*
X0000481102Y0001419291D03*
X0000481102Y0001292913D03*
X0000481102Y0001233858D03*
D16*
X0000640944Y0001254724D03*
X0000581889Y0001254724D03*
X0000640944Y0001340944D03*
X0000581889Y0001340944D03*
G04 next file*
G04 Gerber Fmt 4.6, Leading zero omitted, Abs format (unit mm)*
G04 Created by KiCad (PCBNEW 4.0.7) date 11/16/17 17:14:57*
G01G01*
G04 APERTURE LIST*
G04 APERTURE END LIST*
D27*
D28*
X0000196850Y0000639763D02*
X0000275984Y0000868110D03*
D29*
X0000382283Y0000933070D03*
X0000382283Y0000958661D03*
X0000382283Y0000856299D03*
X0000382283Y0000881889D03*
X0000382283Y0000907480D03*
D28*
X0000275984Y0000946850D03*
D30*
X0000635433Y0000883070D03*
X0000635433Y0000957874D03*
X0000556692Y0000920472D03*
D31*
X0000553937Y0001123228D03*
X0000553937Y0001085826D03*
X0000553937Y0001048425D03*
X0000640551Y0001048425D03*
X0000640551Y0001123228D03*
X0000640551Y0001085826D03*
D32*
X0000481102Y0001125590D03*
X0000481102Y0001066535D03*
X0000481102Y0000940551D03*
X0000481102Y0000999606D03*
D33*
X0000412598Y0001114960D03*
X0000353543Y0001114960D03*
D32*
X0000481102Y0000818897D03*
X0000481102Y0000877952D03*
X0000481102Y0000751574D03*
X0000481102Y0000692519D03*
D33*
X0000640944Y0000713385D03*
X0000581889Y0000713385D03*
X0000640944Y0000799606D03*
X0000581889Y0000799606D03*
G04 next file*
G04 Gerber Fmt 4.6, Leading zero omitted, Abs format (unit mm)*
G04 Created by KiCad (PCBNEW 4.0.7) date 11/16/17 17:14:57*
G01G01*
G04 APERTURE LIST*
G04 APERTURE END LIST*
D34*
D35*
X0000196850Y0000098425D02*
X0000275984Y0000326771D03*
D36*
X0000382283Y0000391732D03*
X0000382283Y0000417322D03*
X0000382283Y0000314960D03*
X0000382283Y0000340551D03*
X0000382283Y0000366141D03*
D35*
X0000275984Y0000405511D03*
D37*
X0000635433Y0000341732D03*
X0000635433Y0000416535D03*
X0000556692Y0000379133D03*
D38*
X0000553937Y0000581889D03*
X0000553937Y0000544488D03*
X0000553937Y0000507086D03*
X0000640551Y0000507086D03*
X0000640551Y0000581889D03*
X0000640551Y0000544488D03*
D39*
X0000481102Y0000584251D03*
X0000481102Y0000525196D03*
X0000481102Y0000399212D03*
X0000481102Y0000458267D03*
D40*
X0000412598Y0000573622D03*
X0000353543Y0000573622D03*
D39*
X0000481102Y0000277559D03*
X0000481102Y0000336614D03*
X0000481102Y0000210236D03*
X0000481102Y0000151181D03*
D40*
X0000640944Y0000172047D03*
X0000581889Y0000172047D03*
X0000640944Y0000258267D03*
X0000581889Y0000258267D03*
G04 next file*
G04 Gerber Fmt 4.6, Leading zero omitted, Abs format (unit mm)*
G04 Created by KiCad (PCBNEW 4.0.7) date 11/16/17 17:14:57*
G01G01*
G04 APERTURE LIST*
G04 APERTURE END LIST*
D41*
D42*
X0000826771Y0001181102D02*
X0000905905Y0001409448D03*
D43*
X0001012204Y0001474409D03*
X0001012204Y0001500000D03*
X0001012204Y0001397637D03*
X0001012204Y0001423228D03*
X0001012204Y0001448818D03*
D42*
X0000905905Y0001488188D03*
D44*
X0001265354Y0001424409D03*
X0001265354Y0001499212D03*
X0001186614Y0001461810D03*
D45*
X0001183858Y0001664566D03*
X0001183858Y0001627165D03*
X0001183858Y0001589763D03*
X0001270472Y0001589763D03*
X0001270472Y0001664566D03*
X0001270472Y0001627165D03*
D46*
X0001111023Y0001666929D03*
X0001111023Y0001607874D03*
X0001111023Y0001481889D03*
X0001111023Y0001540944D03*
D47*
X0001042519Y0001656299D03*
X0000983464Y0001656299D03*
D46*
X0001111023Y0001360236D03*
X0001111023Y0001419291D03*
X0001111023Y0001292913D03*
X0001111023Y0001233858D03*
D47*
X0001270866Y0001254724D03*
X0001211811Y0001254724D03*
X0001270866Y0001340944D03*
X0001211811Y0001340944D03*
G04 next file*
G04 Gerber Fmt 4.6, Leading zero omitted, Abs format (unit mm)*
G04 Created by KiCad (PCBNEW 4.0.7) date 11/16/17 17:14:57*
G01G01*
G04 APERTURE LIST*
G04 APERTURE END LIST*
D48*
D49*
X0000826771Y0000639763D02*
X0000905905Y0000868110D03*
D50*
X0001012204Y0000933070D03*
X0001012204Y0000958661D03*
X0001012204Y0000856299D03*
X0001012204Y0000881889D03*
X0001012204Y0000907480D03*
D49*
X0000905905Y0000946850D03*
D51*
X0001265354Y0000883070D03*
X0001265354Y0000957874D03*
X0001186614Y0000920472D03*
D52*
X0001183858Y0001123228D03*
X0001183858Y0001085826D03*
X0001183858Y0001048425D03*
X0001270472Y0001048425D03*
X0001270472Y0001123228D03*
X0001270472Y0001085826D03*
D53*
X0001111023Y0001125590D03*
X0001111023Y0001066535D03*
X0001111023Y0000940551D03*
X0001111023Y0000999606D03*
D54*
X0001042519Y0001114960D03*
X0000983464Y0001114960D03*
D53*
X0001111023Y0000818897D03*
X0001111023Y0000877952D03*
X0001111023Y0000751574D03*
X0001111023Y0000692519D03*
D54*
X0001270866Y0000713385D03*
X0001211811Y0000713385D03*
X0001270866Y0000799606D03*
X0001211811Y0000799606D03*
G04 next file*
G04 Gerber Fmt 4.6, Leading zero omitted, Abs format (unit mm)*
G04 Created by KiCad (PCBNEW 4.0.7) date 11/16/17 17:14:57*
G01G01*
G04 APERTURE LIST*
G04 APERTURE END LIST*
D55*
D56*
X0000826771Y0000098425D02*
X0000905905Y0000326771D03*
D57*
X0001012204Y0000391732D03*
X0001012204Y0000417322D03*
X0001012204Y0000314960D03*
X0001012204Y0000340551D03*
X0001012204Y0000366141D03*
D56*
X0000905905Y0000405511D03*
D58*
X0001265354Y0000341732D03*
X0001265354Y0000416535D03*
X0001186614Y0000379133D03*
D59*
X0001183858Y0000581889D03*
X0001183858Y0000544488D03*
X0001183858Y0000507086D03*
X0001270472Y0000507086D03*
X0001270472Y0000581889D03*
X0001270472Y0000544488D03*
D60*
X0001111023Y0000584251D03*
X0001111023Y0000525196D03*
X0001111023Y0000399212D03*
X0001111023Y0000458267D03*
D61*
X0001042519Y0000573622D03*
X0000983464Y0000573622D03*
D60*
X0001111023Y0000277559D03*
X0001111023Y0000336614D03*
X0001111023Y0000210236D03*
X0001111023Y0000151181D03*
D61*
X0001270866Y0000172047D03*
X0001211811Y0000172047D03*
X0001270866Y0000258267D03*
X0001211811Y0000258267D03*
G04 next file*
G04 Gerber Fmt 4.6, Leading zero omitted, Abs format (unit mm)*
G04 Created by KiCad (PCBNEW 4.0.7) date 11/16/17 17:14:57*
G01G01*
G04 APERTURE LIST*
G04 APERTURE END LIST*
D62*
D63*
X0001456692Y0001181102D02*
X0001535826Y0001409448D03*
D64*
X0001642125Y0001474409D03*
X0001642125Y0001500000D03*
X0001642125Y0001397637D03*
X0001642125Y0001423228D03*
X0001642125Y0001448818D03*
D63*
X0001535826Y0001488188D03*
D65*
X0001895275Y0001424409D03*
X0001895275Y0001499212D03*
X0001816535Y0001461810D03*
D66*
X0001813779Y0001664566D03*
X0001813779Y0001627165D03*
X0001813779Y0001589763D03*
X0001900393Y0001589763D03*
X0001900393Y0001664566D03*
X0001900393Y0001627165D03*
D67*
X0001740944Y0001666929D03*
X0001740944Y0001607874D03*
X0001740944Y0001481889D03*
X0001740944Y0001540944D03*
D68*
X0001672440Y0001656299D03*
X0001613385Y0001656299D03*
D67*
X0001740944Y0001360236D03*
X0001740944Y0001419291D03*
X0001740944Y0001292913D03*
X0001740944Y0001233858D03*
D68*
X0001900787Y0001254724D03*
X0001841732Y0001254724D03*
X0001900787Y0001340944D03*
X0001841732Y0001340944D03*
G04 next file*
G04 Gerber Fmt 4.6, Leading zero omitted, Abs format (unit mm)*
G04 Created by KiCad (PCBNEW 4.0.7) date 11/16/17 17:14:57*
G01G01*
G04 APERTURE LIST*
G04 APERTURE END LIST*
D69*
D70*
X0001456692Y0000639763D02*
X0001535826Y0000868110D03*
D71*
X0001642125Y0000933070D03*
X0001642125Y0000958661D03*
X0001642125Y0000856299D03*
X0001642125Y0000881889D03*
X0001642125Y0000907480D03*
D70*
X0001535826Y0000946850D03*
D72*
X0001895275Y0000883070D03*
X0001895275Y0000957874D03*
X0001816535Y0000920472D03*
D73*
X0001813779Y0001123228D03*
X0001813779Y0001085826D03*
X0001813779Y0001048425D03*
X0001900393Y0001048425D03*
X0001900393Y0001123228D03*
X0001900393Y0001085826D03*
D74*
X0001740944Y0001125590D03*
X0001740944Y0001066535D03*
X0001740944Y0000940551D03*
X0001740944Y0000999606D03*
D75*
X0001672440Y0001114960D03*
X0001613385Y0001114960D03*
D74*
X0001740944Y0000818897D03*
X0001740944Y0000877952D03*
X0001740944Y0000751574D03*
X0001740944Y0000692519D03*
D75*
X0001900787Y0000713385D03*
X0001841732Y0000713385D03*
X0001900787Y0000799606D03*
X0001841732Y0000799606D03*
G04 next file*
G04 Gerber Fmt 4.6, Leading zero omitted, Abs format (unit mm)*
G04 Created by KiCad (PCBNEW 4.0.7) date 11/16/17 17:14:57*
G01G01*
G04 APERTURE LIST*
G04 APERTURE END LIST*
D76*
D77*
X0001456692Y0000098425D02*
X0001535826Y0000326771D03*
D78*
X0001642125Y0000391732D03*
X0001642125Y0000417322D03*
X0001642125Y0000314960D03*
X0001642125Y0000340551D03*
X0001642125Y0000366141D03*
D77*
X0001535826Y0000405511D03*
D79*
X0001895275Y0000341732D03*
X0001895275Y0000416535D03*
X0001816535Y0000379133D03*
D80*
X0001813779Y0000581889D03*
X0001813779Y0000544488D03*
X0001813779Y0000507086D03*
X0001900393Y0000507086D03*
X0001900393Y0000581889D03*
X0001900393Y0000544488D03*
D81*
X0001740944Y0000584251D03*
X0001740944Y0000525196D03*
X0001740944Y0000399212D03*
X0001740944Y0000458267D03*
D82*
X0001672440Y0000573622D03*
X0001613385Y0000573622D03*
D81*
X0001740944Y0000277559D03*
X0001740944Y0000336614D03*
X0001740944Y0000210236D03*
X0001740944Y0000151181D03*
D82*
X0001900787Y0000172047D03*
X0001841732Y0000172047D03*
X0001900787Y0000258267D03*
X0001841732Y0000258267D03*
G04 next file*
G04 Gerber Fmt 4.6, Leading zero omitted, Abs format (unit mm)*
G04 Created by KiCad (PCBNEW 4.0.7) date 11/16/17 17:14:57*
G01G01*
G04 APERTURE LIST*
G04 APERTURE END LIST*
D83*
D84*
X0002086614Y0001181102D02*
X0002165748Y0001409448D03*
D85*
X0002272047Y0001474409D03*
X0002272047Y0001500000D03*
X0002272047Y0001397637D03*
X0002272047Y0001423228D03*
X0002272047Y0001448818D03*
D84*
X0002165748Y0001488188D03*
D86*
X0002525196Y0001424409D03*
X0002525196Y0001499212D03*
X0002446456Y0001461810D03*
D87*
X0002443700Y0001664566D03*
X0002443700Y0001627165D03*
X0002443700Y0001589763D03*
X0002530314Y0001589763D03*
X0002530314Y0001664566D03*
X0002530314Y0001627165D03*
D88*
X0002370866Y0001666929D03*
X0002370866Y0001607874D03*
X0002370866Y0001481889D03*
X0002370866Y0001540944D03*
D89*
X0002302362Y0001656299D03*
X0002243307Y0001656299D03*
D88*
X0002370866Y0001360236D03*
X0002370866Y0001419291D03*
X0002370866Y0001292913D03*
X0002370866Y0001233858D03*
D89*
X0002530708Y0001254724D03*
X0002471653Y0001254724D03*
X0002530708Y0001340944D03*
X0002471653Y0001340944D03*
G04 next file*
G04 Gerber Fmt 4.6, Leading zero omitted, Abs format (unit mm)*
G04 Created by KiCad (PCBNEW 4.0.7) date 11/16/17 17:14:57*
G01G01*
G04 APERTURE LIST*
G04 APERTURE END LIST*
D90*
D91*
X0002086614Y0000639763D02*
X0002165748Y0000868110D03*
D92*
X0002272047Y0000933070D03*
X0002272047Y0000958661D03*
X0002272047Y0000856299D03*
X0002272047Y0000881889D03*
X0002272047Y0000907480D03*
D91*
X0002165748Y0000946850D03*
D93*
X0002525196Y0000883070D03*
X0002525196Y0000957874D03*
X0002446456Y0000920472D03*
D94*
X0002443700Y0001123228D03*
X0002443700Y0001085826D03*
X0002443700Y0001048425D03*
X0002530314Y0001048425D03*
X0002530314Y0001123228D03*
X0002530314Y0001085826D03*
D95*
X0002370866Y0001125590D03*
X0002370866Y0001066535D03*
X0002370866Y0000940551D03*
X0002370866Y0000999606D03*
D96*
X0002302362Y0001114960D03*
X0002243307Y0001114960D03*
D95*
X0002370866Y0000818897D03*
X0002370866Y0000877952D03*
X0002370866Y0000751574D03*
X0002370866Y0000692519D03*
D96*
X0002530708Y0000713385D03*
X0002471653Y0000713385D03*
X0002530708Y0000799606D03*
X0002471653Y0000799606D03*
G04 next file*
G04 Gerber Fmt 4.6, Leading zero omitted, Abs format (unit mm)*
G04 Created by KiCad (PCBNEW 4.0.7) date 11/16/17 17:14:57*
G01G01*
G04 APERTURE LIST*
G04 APERTURE END LIST*
D97*
D98*
X0002086614Y0000098425D02*
X0002165748Y0000326771D03*
D99*
X0002272047Y0000391732D03*
X0002272047Y0000417322D03*
X0002272047Y0000314960D03*
X0002272047Y0000340551D03*
X0002272047Y0000366141D03*
D98*
X0002165748Y0000405511D03*
D100*
X0002525196Y0000341732D03*
X0002525196Y0000416535D03*
X0002446456Y0000379133D03*
D101*
X0002443700Y0000581889D03*
X0002443700Y0000544488D03*
X0002443700Y0000507086D03*
X0002530314Y0000507086D03*
X0002530314Y0000581889D03*
X0002530314Y0000544488D03*
D102*
X0002370866Y0000584251D03*
X0002370866Y0000525196D03*
X0002370866Y0000399212D03*
X0002370866Y0000458267D03*
D103*
X0002302362Y0000573622D03*
X0002243307Y0000573622D03*
D102*
X0002370866Y0000277559D03*
X0002370866Y0000336614D03*
X0002370866Y0000210236D03*
X0002370866Y0000151181D03*
D103*
X0002530708Y0000172047D03*
X0002471653Y0000172047D03*
X0002530708Y0000258267D03*
X0002471653Y0000258267D03*
G04 next file*
G04 Gerber Fmt 4.6, Leading zero omitted, Abs format (unit mm)*
G04 Created by KiCad (PCBNEW 4.0.7) date 11/16/17 20:56:22*
G01G01*
G04 APERTURE LIST*
G04 APERTURE END LIST*
D104*
D105*
X0001456692Y0003937007D02*
X0002253937Y0003175196D03*
X0002253937Y0003112204D03*
X0002080708Y0003175196D03*
X0002080708Y0003112204D03*
X0002080708Y0003049212D03*
X0002253937Y0003049212D03*
G04 next file*
G04 Gerber Fmt 4.6, Leading zero omitted, Abs format (unit mm)*
G04 Created by KiCad (PCBNEW 4.0.7) date 11/16/17 21:01:15*
G01G01*
G04 APERTURE LIST*
G04 APERTURE END LIST*
D106*
D107*
X0000000000Y0003937007D02*
X0000797244Y0003175196D03*
X0000797244Y0003112204D03*
X0000624015Y0003175196D03*
X0000624015Y0003112204D03*
X0000624015Y0003049212D03*
X0000797244Y0003049212D03*
G04 next file*
G04 Gerber Fmt 4.6, Leading zero omitted, Abs format (unit mm)*
G04 Created by KiCad (PCBNEW 4.0.7) date 11/16/17 21:03:46*
G01G01*
G04 APERTURE LIST*
G04 APERTURE END LIST*
D108*
G04 next file*
G04 Gerber Fmt 4.6, Leading zero omitted, Abs format (unit mm)*
G04 Created by KiCad (PCBNEW 4.0.7) date 11/16/17 21:03:46*
G01G01*
G04 APERTURE LIST*
G04 APERTURE END LIST*
D109*
G04 next file*
G04 Gerber Fmt 4.6, Leading zero omitted, Abs format (unit mm)*
G04 Created by KiCad (PCBNEW 4.0.7) date 11/16/17 21:22:26*
G01G01*
G04 APERTURE LIST*
G04 APERTURE END LIST*
D110*
D111*
X0002913385Y0003937007D02*
X0003036535Y0002472440D03*
D112*
X0003126535Y0002722440D03*
D111*
X0003216535Y0002472440D03*
D113*
X0003425590Y0003455905D03*
X0003602755Y0003455905D03*
D114*
X0003012598Y0003358267D03*
X0003256692Y0003358267D03*
D115*
X0003548425Y0002035039D03*
X0003627165Y0002035039D03*
X0003469685Y0002035039D03*
D116*
X0003031299Y0002915354D03*
X0003081299Y0002915354D03*
X0003131299Y0002915354D03*
X0003181299Y0002915354D03*
X0003181299Y0003127952D03*
X0003131299Y0003127952D03*
X0003081299Y0003127952D03*
X0003031299Y0003127952D03*
D117*
X0003738582Y0002970472D03*
X0003346456Y0002970472D03*
D118*
X0003188976Y0002283464D03*
X0003263779Y0002283464D03*
X0003226377Y0002362204D03*
D119*
X0003545275Y0002602362D03*
X0003675196Y0002602362D03*
D120*
X0003545275Y0002413385D03*
X0003702755Y0002413385D03*
D121*
X0003037401Y0002177165D03*
X0003037401Y0002236220D03*
X0002956692Y0002179133D03*
X0002956692Y0002238188D03*
D122*
X0002960629Y0002365157D03*
X0002960629Y0002306102D03*
X0003118110Y0002306102D03*
X0003118110Y0002365157D03*
X0003039370Y0002365157D03*
X0003039370Y0002306102D03*
D123*
X0003053149Y0002027559D03*
X0003053149Y0002102362D03*
X0002974409Y0002064960D03*
D122*
X0003118110Y0002167322D03*
X0003118110Y0002226377D03*
X0003259842Y0002226377D03*
X0003259842Y0002167322D03*
D118*
X0003155511Y0002025590D03*
X0003230314Y0002025590D03*
X0003192913Y0002104330D03*
D124*
X0003230314Y0002047244D03*
M02*