%
M48
METRIC,000.000
T01C0.30
T02C0.60
T03C0.85
T04C1.00
T10C0.76
T11C0.80
T12C3.15
T13C0.50
T14C0.40
%
T01
X013420Y035720
X011120Y038980
X015270Y039200
X015150Y042380
X013420Y021970
X011120Y025230
X015270Y025450
X015150Y028630
X013420Y008219
X011120Y011480
X015270Y011700
X015150Y014880
X029420Y035720
X027120Y038980
X031270Y039200
X031150Y042380
X029420Y021970
X027120Y025230
X031270Y025450
X031150Y028630
X029420Y008219
X027120Y011480
X031270Y011700
X031150Y014880
X045420Y035720
X043120Y038980
X047269Y039200
X047150Y042380
X045420Y021970
X043120Y025230
X047269Y025450
X047150Y028630
X045420Y008219
X043120Y011480
X047269Y011700
X047150Y014880
X061420Y035720
X059120Y038980
X063269Y039200
X063150Y042380
X061420Y021970
X059120Y025230
X063269Y025450
X063150Y028630
X061420Y008219
X059120Y011480
X063269Y011700
X063150Y014880
X190090Y038577
X190100Y032043
X190100Y028959
X190861Y033470
X190925Y039929
X191550Y038550
X191590Y035319
X192070Y033340
X192285Y039885
X192450Y040550
X193125Y043100
X194573Y039306
X194660Y030400
X195425Y043000
X196350Y040620
X197350Y040020
X198447Y036476
X198998Y037339
X199100Y035300
X199650Y033065
X200550Y030400
X200625Y037900
X200780Y006810
X201229Y036470
X201500Y037200
X201800Y041050
X202100Y057700
X202545Y022405
X203050Y041550
X203050Y040225
X203275Y038125
X203350Y027150
X203370Y057700
X204583Y023167
X204583Y034425
X204700Y057700
X204700Y021780
X204723Y042640
X205350Y040525
X205450Y016500
X205500Y027720
X206100Y016000
X206640Y012469
X207110Y006769
X207180Y057725
X207537Y012500
X208925Y041711
X209754Y042540
X209955Y032875
X210110Y012230
X210300Y027099
X210411Y007441
X210550Y021849
X211280Y005831
X211343Y028010
X211601Y012230
X211783Y017450
X212000Y036600
X212526Y004599
X212575Y022049
X212600Y007650
X212640Y012284
X213068Y016483
X213226Y007465
X213630Y012670
X213950Y007099
X214000Y034750
X214416Y006721
X214900Y030459
X215635Y009564
X215680Y012420
X215850Y030486
X216350Y015400
X216471Y029570
X217300Y022099
X217340Y057725
X218000Y043450
X218000Y038050
X218025Y034724
X218420Y015650
X218610Y057725
X219410Y022110
X219880Y057725
X220850Y026299
X221150Y057725
X222300Y013269
X222470Y023580
X222540Y017840
X222740Y012650
X153090Y038577
X153100Y028959
X153150Y030980
X153861Y033470
X153925Y039929
X154550Y038550
X154590Y035319
X155070Y033340
X155350Y039950
X155975Y040750
X156125Y043100
X157290Y038980
X157660Y030400
X158425Y043000
X159350Y040620
X160330Y036420
X160350Y040020
X161350Y036400
X162120Y035300
X163780Y006810
X164056Y024673
X164554Y025031
X164774Y040676
X164830Y039850
X165050Y021000
X165060Y031019
X165070Y037190
X165100Y057700
X165100Y016000
X165230Y025340
X165350Y043950
X165525Y027400
X165525Y026608
X165570Y035980
X165740Y022040
X166300Y037875
X166370Y057700
X166798Y042355
X167700Y057700
X168150Y043250
X168275Y044675
X168490Y016470
X168500Y027720
X168875Y040000
X168990Y023010
X169640Y012469
X170110Y006769
X170180Y057725
X170300Y044175
X170640Y012579
X171040Y032628
X171925Y041711
X172610Y033239
X172625Y029638
X172754Y042540
X172981Y011980
X173020Y030560
X173168Y031970
X173411Y007441
X173500Y016750
X174280Y005831
X174350Y029659
X174498Y011980
X174670Y028010
X174730Y030830
X175200Y022049
X175345Y032601
X175345Y032000
X175526Y004599
X175600Y007650
X175725Y016430
X175742Y012126
X176226Y007465
X176350Y021250
X176630Y012670
X176950Y007099
X177416Y006721
X178635Y009564
X178640Y027644
X178680Y012420
X178700Y022650
X178700Y016500
X178708Y020275
X179136Y027998
X179350Y024400
X179350Y020250
X179400Y029625
X180340Y057725
X180500Y020349
X180511Y028183
X180544Y017170
X180800Y023799
X181000Y038050
X181025Y034724
X181420Y015650
X181610Y057725
X182410Y022110
X182880Y057725
X183850Y026299
X184150Y057725
X185300Y013269
X185470Y023580
X185540Y017840
X185740Y012650
X241625Y004150
X242120Y-022260
X242750Y-020299
X244391Y-006930
X244650Y-022349
X244661Y-015102
X244700Y-020900
X244720Y-017215
X244996Y-007174
X245250Y-002000
X245266Y-016218
X245548Y-018370
X245796Y-015117
X245895Y-014265
X245950Y-022049
X246706Y-021144
X246750Y-019000
X247280Y-001750
X247300Y002489
X247592Y-025665
X248075Y-023647
X253550Y-023625
X254220Y017030
X254600Y-015049
X254725Y017534
X255390Y018200
X256425Y018200
X256529Y-024549
X258600Y-015049
X261125Y018200
X261850Y018200
X262260Y-023590
X262375Y017400
X262700Y018200
X263425Y-015049
T02
X208730Y013293
X209450Y023689
X209450Y017750
X219200Y039660
X167950Y033650
X171595Y018980
X171670Y033650
X171700Y013799
X173390Y023689
X183410Y040050
X005002Y030003G85X005001Y030003
X005001Y030010G85X005002Y030010
X005002Y016253G85X005001Y016253
X005001Y016260G85X005002Y016260
X005002Y002503G85X005001Y002503
X005001Y002510G85X005002Y002510
X021002Y030003G85X021001Y030003
X021001Y030010G85X021002Y030010
X021002Y016253G85X021001Y016253
X021001Y016260G85X021002Y016260
X021002Y002503G85X021001Y002503
X021001Y002510G85X021002Y002510
X037002Y030003G85X037001Y030003
X037001Y030010G85X037002Y030010
X037002Y016253G85X037001Y016253
X037001Y016260G85X037002Y016260
X037002Y002503G85X037001Y002503
X037001Y002510G85X037002Y002510
X053002Y030003G85X053001Y030003
X053001Y030010G85X053002Y030010
X053002Y016253G85X053001Y016253
X053001Y016260G85X053002Y016260
X053002Y002503G85X053001Y002503
X053001Y002510G85X053002Y002510
T03
X009710Y034300
X009710Y039300
X009710Y020550
X009710Y025550
X009710Y006800
X009710Y011800
X025710Y034300
X025710Y039300
X025710Y020550
X025710Y025550
X025710Y006800
X025710Y011800
X041710Y034300
X041710Y039300
X041710Y020550
X041710Y025550
X041710Y006800
X041710Y011800
X057710Y034300
X057710Y039300
X057710Y020550
X057710Y025550
X057710Y006800
X057710Y011800
T04
X019200Y031790
X019200Y034330
X019200Y036870
X019200Y039410
X019200Y041950
X019200Y018040
X019200Y020580
X019200Y023119
X019200Y025660
X019200Y028200
X019200Y004289
X019200Y006829
X019200Y009370
X019200Y011910
X019200Y014450
X035200Y031790
X035200Y034330
X035200Y036870
X035200Y039410
X035200Y041950
X035200Y018040
X035200Y020580
X035200Y023119
X035200Y025660
X035200Y028200
X035200Y004289
X035200Y006829
X035200Y009370
X035200Y011910
X035200Y014450
X051200Y031790
X051200Y034330
X051200Y036870
X051200Y039410
X051200Y041950
X051200Y018040
X051200Y020580
X051200Y023119
X051200Y025660
X051200Y028200
X051200Y004289
X051200Y006829
X051200Y009370
X051200Y011910
X051200Y014450
X067200Y031790
X067200Y034330
X067200Y036870
X067200Y039410
X067200Y041950
X067200Y018040
X067200Y020580
X067200Y023119
X067200Y025660
X067200Y028200
X067200Y004289
X067200Y006829
X067200Y009370
X067200Y011910
X067200Y014450
X199600Y057700
X199600Y026700
X199600Y024159
X199600Y021620
X199600Y019080
X199600Y016540
X199600Y014000
X224000Y026700
X224000Y024159
X224000Y021620
X224000Y019080
X224000Y016540
X224000Y014000
X224050Y057700
X162600Y057700
X162600Y026700
X162600Y024159
X162600Y021620
X162600Y019080
X162600Y016540
X162600Y014000
X187000Y026700
X187000Y024159
X187000Y021620
X187000Y019080
X187000Y016540
X187000Y014000
X187050Y057700
X176500Y172889
X176500Y175429
X176500Y177969
X176500Y180509
X176500Y183049
X176500Y185589
X176500Y188890
X176500Y191430
X176500Y193970
X176500Y196510
X176500Y199050
X176500Y201590
X251600Y-012799
X251600Y-015340
X251600Y-017879
X251600Y-020420
X251600Y-022959
X251600Y-025500
X251700Y018200
X264750Y018200
X264750Y-012799
X264750Y-015340
X264750Y-017879
X264750Y-020420
X264750Y-022959
X264750Y-025500
T10
X223650Y046750
X223650Y041750
X223700Y038400
X223700Y033400
X186650Y046750
X186650Y041750
X186700Y038400
X186700Y033400
T11
X200893Y044164
X200893Y039664
X200893Y035164
X202643Y047664
X202643Y031664
X206643Y048664
X210643Y047664
X210643Y031664
X212393Y044164
X212393Y039664
X212393Y035164
X161600Y041500
X161600Y037828
X163193Y044808
X163193Y034519
X166064Y047097
X166064Y032229
X169643Y047914
X169643Y031414
X173223Y047097
X176093Y044808
X176093Y034519
X177686Y041500
X177686Y037828
X255760Y009105
X255760Y006605
T12
X192000Y052000
X193200Y007799
X221530Y007799
X221800Y052000
X155000Y052000
X156200Y007799
X184530Y007799
X184800Y052000
X244000Y013299
X244300Y-032598
X262700Y012700
X263280Y-030919
T13
X186310Y176649
X183770Y177664
X186310Y178679
X183770Y179694
X186310Y180709
X183770Y181724
X188610Y173189
X188610Y185189
X186310Y192650
X183770Y193665
X186310Y194680
X183770Y195695
X186310Y196710
X183770Y197725
X188610Y189190
X188610Y201190
X254630Y-034110
X258630Y-034110
T14
X243230Y001489
X249298Y-019711
X253080Y001349
X253910Y-018890
X256529Y-026400
X257841Y-010448
X257850Y-012250
M30