%TF.GenerationSoftware,KiCad,Pcbnew,4.0.7*%
%TF.CreationDate,2017-11-27T18:05:40+08:00*%
%TF.ProjectId,nixie_tube,6E697869655F747562652E6B69636164,rev?*%
%TF.FileFunction,Soldermask,Top*%
%FSLAX46Y46*%
G04 Gerber Fmt 4.6, Leading zero omitted, Abs format (unit mm)*
G04 Created by KiCad (PCBNEW 4.0.7) date 11/27/17 18:05:40*
%MOMM*%
%LPD*%
G01*
G04 APERTURE LIST*
%ADD10C,0.100000*%
%ADD11C,1.853000*%
%ADD12C,1.700000*%
%ADD13R,2.000000X2.000000*%
%ADD14C,2.000000*%
%ADD15R,1.400000X4.200000*%
%ADD16R,2.051000X3.448000*%
%ADD17R,6.496000X6.496000*%
%ADD18C,3.900000*%
%ADD19R,3.800000X1.800000*%
%ADD20R,1.000000X1.950000*%
%ADD21R,3.300000X5.800000*%
%ADD22R,1.200000X1.300000*%
%ADD23R,1.300000X1.600000*%
%ADD24R,2.900000X2.200000*%
%ADD25R,2.100000X2.100000*%
%ADD26R,1.150000X1.200000*%
%ADD27R,1.300000X0.900000*%
%ADD28R,1.300000X1.200000*%
%ADD29O,2.100000X2.100000*%
%ADD30R,1.200000X1.700000*%
%ADD31R,0.800000X2.500000*%
G04 APERTURE END LIST*
D10*
D11*
X16130000Y-48310000D03*
X18130000Y-48310000D03*
X14130000Y-48310000D03*
D12*
X14130000Y-54310000D03*
X18130000Y-54310000D03*
D13*
X15400000Y-12175000D03*
D14*
X15400000Y-14675000D03*
D15*
X13150000Y-13300000D03*
X17650000Y-13300000D03*
D16*
X3128000Y-37200000D03*
D17*
X5414000Y-30850000D03*
D16*
X7700000Y-37200000D03*
D18*
X22780000Y-51120000D03*
X3800000Y-52800000D03*
X22200000Y-7500000D03*
X3500000Y-6900000D03*
D19*
X2520000Y-14700000D03*
X8720000Y-14700000D03*
D20*
X2995000Y-25950000D03*
X4265000Y-25950000D03*
X5535000Y-25950000D03*
X6805000Y-25950000D03*
X6805000Y-20550000D03*
X5535000Y-20550000D03*
X4265000Y-20550000D03*
X2995000Y-20550000D03*
D21*
X22080000Y-24500000D03*
X12120000Y-24500000D03*
D22*
X7000000Y-42000000D03*
X8900000Y-42000000D03*
X7950000Y-40000000D03*
D23*
X16050000Y-33900000D03*
X19350000Y-33900000D03*
D24*
X16050000Y-38700000D03*
X20050000Y-38700000D03*
D25*
X11200000Y-2000000D03*
D26*
X3150000Y-44700000D03*
X3150000Y-43200000D03*
X1100000Y-44650000D03*
X1100000Y-43150000D03*
D27*
X1200000Y-39925000D03*
X1200000Y-41425000D03*
X5200000Y-41425000D03*
X5200000Y-39925000D03*
X3200000Y-39925000D03*
X3200000Y-41425000D03*
D28*
X3550000Y-48500000D03*
X3550000Y-46600000D03*
X1550000Y-47550000D03*
D27*
X5200000Y-44950000D03*
X5200000Y-43450000D03*
X8800000Y-43450000D03*
X8800000Y-44950000D03*
D25*
X24250000Y-33000000D03*
D29*
X24250000Y-35540000D03*
X24250000Y-38080000D03*
X24250000Y-40620000D03*
X24250000Y-43160000D03*
X24250000Y-45700000D03*
D25*
X11100000Y-33000000D03*
D29*
X11100000Y-35540000D03*
X11100000Y-38080000D03*
X11100000Y-40620000D03*
X11100000Y-43160000D03*
X11100000Y-45700000D03*
D25*
X24250000Y-2000000D03*
D22*
X6150000Y-48550000D03*
D30*
X8050000Y-48350000D03*
D22*
X7100000Y-46550000D03*
D31*
X8250000Y-47150000D03*
M02*
