%TF.GenerationSoftware,KiCad,Pcbnew,4.0.7*%
%TF.CreationDate,2017-11-16T17:09:38+08:00*%
%TF.ProjectId,nixie_tube,6E697869655F747562652E6B69636164,rev?*%
%TF.FileFunction,Other,Fab,Bot*%
%FSLAX46Y46*%
G04 Gerber Fmt 4.6, Leading zero omitted, Abs format (unit mm)*
G04 Created by KiCad (PCBNEW 4.0.7) date 11/16/17 17:09:38*
%MOMM*%
%LPD*%
G01*
G04 APERTURE LIST*
%ADD10C,0.100000*%
%ADD11C,0.150000*%
G04 APERTURE END LIST*
D10*
X2170000Y-10700000D02*
X2170000Y-13900000D01*
X8470000Y-10700000D02*
X2170000Y-10700000D01*
X8470000Y-13900000D02*
X8470000Y-10700000D01*
X2170000Y-13900000D02*
X8470000Y-13900000D01*
X2220000Y-14720000D02*
X2220000Y-17920000D01*
X8520000Y-14720000D02*
X2220000Y-14720000D01*
X8520000Y-17920000D02*
X8520000Y-14720000D01*
X2220000Y-17920000D02*
X8520000Y-17920000D01*
X9580000Y-46970000D02*
X9580000Y-44430000D01*
X9580000Y-44430000D02*
X1070000Y-44430000D01*
X1070000Y-44430000D02*
X1070000Y-46970000D01*
X1070000Y-46970000D02*
X9580000Y-46970000D01*
X11100000Y-46020000D02*
X11100000Y-45380000D01*
X11100000Y-45380000D02*
X9580000Y-45380000D01*
X9580000Y-45380000D02*
X9580000Y-46020000D01*
X9580000Y-46020000D02*
X11100000Y-46020000D01*
X9580000Y-44430000D02*
X9580000Y-41890000D01*
X9580000Y-41890000D02*
X1070000Y-41890000D01*
X1070000Y-41890000D02*
X1070000Y-44430000D01*
X1070000Y-44430000D02*
X9580000Y-44430000D01*
X11100000Y-43480000D02*
X11100000Y-42840000D01*
X11100000Y-42840000D02*
X9580000Y-42840000D01*
X9580000Y-42840000D02*
X9580000Y-43480000D01*
X9580000Y-43480000D02*
X11100000Y-43480000D01*
X9580000Y-41890000D02*
X9580000Y-39350000D01*
X9580000Y-39350000D02*
X1070000Y-39350000D01*
X1070000Y-39350000D02*
X1070000Y-41890000D01*
X1070000Y-41890000D02*
X9580000Y-41890000D01*
X11100000Y-40940000D02*
X11100000Y-40300000D01*
X11100000Y-40300000D02*
X9580000Y-40300000D01*
X9580000Y-40300000D02*
X9580000Y-40940000D01*
X9580000Y-40940000D02*
X11100000Y-40940000D01*
X9580000Y-39350000D02*
X9580000Y-36810000D01*
X9580000Y-36810000D02*
X1070000Y-36810000D01*
X1070000Y-36810000D02*
X1070000Y-39350000D01*
X1070000Y-39350000D02*
X9580000Y-39350000D01*
X11100000Y-38400000D02*
X11100000Y-37760000D01*
X11100000Y-37760000D02*
X9580000Y-37760000D01*
X9580000Y-37760000D02*
X9580000Y-38400000D01*
X9580000Y-38400000D02*
X11100000Y-38400000D01*
X9580000Y-36810000D02*
X9580000Y-34270000D01*
X9580000Y-34270000D02*
X1070000Y-34270000D01*
X1070000Y-34270000D02*
X1070000Y-36810000D01*
X1070000Y-36810000D02*
X9580000Y-36810000D01*
X11100000Y-35860000D02*
X11100000Y-35220000D01*
X11100000Y-35220000D02*
X9580000Y-35220000D01*
X9580000Y-35220000D02*
X9580000Y-35860000D01*
X9580000Y-35860000D02*
X11100000Y-35860000D01*
X9580000Y-34270000D02*
X9580000Y-31730000D01*
X9580000Y-31730000D02*
X1070000Y-31730000D01*
X1070000Y-31730000D02*
X1070000Y-34270000D01*
X1070000Y-34270000D02*
X9580000Y-34270000D01*
X11100000Y-33320000D02*
X11100000Y-32680000D01*
X11100000Y-32680000D02*
X9580000Y-32680000D01*
X9580000Y-32680000D02*
X9580000Y-33320000D01*
X9580000Y-33320000D02*
X11100000Y-33320000D01*
X26385000Y-46970000D02*
X28290000Y-46970000D01*
X28290000Y-46970000D02*
X28290000Y-31730000D01*
X28290000Y-31730000D02*
X25750000Y-31730000D01*
X25750000Y-31730000D02*
X25750000Y-46335000D01*
X25750000Y-46335000D02*
X26385000Y-46970000D01*
X23930000Y-46020000D02*
X25750000Y-46020000D01*
X23930000Y-46020000D02*
X23930000Y-45380000D01*
X23930000Y-45380000D02*
X25750000Y-45380000D01*
X28290000Y-46020000D02*
X34290000Y-46020000D01*
X34290000Y-46020000D02*
X34290000Y-45380000D01*
X28290000Y-45380000D02*
X34290000Y-45380000D01*
X23930000Y-43480000D02*
X25750000Y-43480000D01*
X23930000Y-43480000D02*
X23930000Y-42840000D01*
X23930000Y-42840000D02*
X25750000Y-42840000D01*
X28290000Y-43480000D02*
X34290000Y-43480000D01*
X34290000Y-43480000D02*
X34290000Y-42840000D01*
X28290000Y-42840000D02*
X34290000Y-42840000D01*
X23930000Y-40940000D02*
X25750000Y-40940000D01*
X23930000Y-40940000D02*
X23930000Y-40300000D01*
X23930000Y-40300000D02*
X25750000Y-40300000D01*
X28290000Y-40940000D02*
X34290000Y-40940000D01*
X34290000Y-40940000D02*
X34290000Y-40300000D01*
X28290000Y-40300000D02*
X34290000Y-40300000D01*
X23930000Y-38400000D02*
X25750000Y-38400000D01*
X23930000Y-38400000D02*
X23930000Y-37760000D01*
X23930000Y-37760000D02*
X25750000Y-37760000D01*
X28290000Y-38400000D02*
X34290000Y-38400000D01*
X34290000Y-38400000D02*
X34290000Y-37760000D01*
X28290000Y-37760000D02*
X34290000Y-37760000D01*
X23930000Y-35860000D02*
X25750000Y-35860000D01*
X23930000Y-35860000D02*
X23930000Y-35220000D01*
X23930000Y-35220000D02*
X25750000Y-35220000D01*
X28290000Y-35860000D02*
X34290000Y-35860000D01*
X34290000Y-35860000D02*
X34290000Y-35220000D01*
X28290000Y-35220000D02*
X34290000Y-35220000D01*
X23930000Y-33320000D02*
X25750000Y-33320000D01*
X23930000Y-33320000D02*
X23930000Y-32680000D01*
X23930000Y-32680000D02*
X25750000Y-32680000D01*
X28290000Y-33320000D02*
X34290000Y-33320000D01*
X34290000Y-33320000D02*
X34290000Y-32680000D01*
X28290000Y-32680000D02*
X34290000Y-32680000D01*
X9065000Y-730000D02*
X7160000Y-730000D01*
X7160000Y-730000D02*
X7160000Y-3270000D01*
X7160000Y-3270000D02*
X9700000Y-3270000D01*
X9700000Y-3270000D02*
X9700000Y-1365000D01*
X9700000Y-1365000D02*
X9065000Y-730000D01*
X11520000Y-1680000D02*
X9700000Y-1680000D01*
X11520000Y-1680000D02*
X11520000Y-2320000D01*
X11520000Y-2320000D02*
X9700000Y-2320000D01*
X7160000Y-1680000D02*
X1160000Y-1680000D01*
X1160000Y-1680000D02*
X1160000Y-2320000D01*
X7160000Y-2320000D02*
X1160000Y-2320000D01*
X25770000Y-730000D02*
X25770000Y-3270000D01*
X25770000Y-3270000D02*
X34280000Y-3270000D01*
X34280000Y-3270000D02*
X34280000Y-730000D01*
X34280000Y-730000D02*
X25770000Y-730000D01*
X24250000Y-1680000D02*
X24250000Y-2320000D01*
X24250000Y-2320000D02*
X25770000Y-2320000D01*
X25770000Y-2320000D02*
X25770000Y-1680000D01*
X25770000Y-1680000D02*
X24250000Y-1680000D01*
D11*
X5486666Y-12752381D02*
X5820000Y-12276190D01*
X6058095Y-12752381D02*
X6058095Y-11752381D01*
X5677142Y-11752381D01*
X5581904Y-11800000D01*
X5534285Y-11847619D01*
X5486666Y-11942857D01*
X5486666Y-12085714D01*
X5534285Y-12180952D01*
X5581904Y-12228571D01*
X5677142Y-12276190D01*
X6058095Y-12276190D01*
X5153333Y-11752381D02*
X4486666Y-11752381D01*
X4915238Y-12752381D01*
X5536666Y-16772381D02*
X5870000Y-16296190D01*
X6108095Y-16772381D02*
X6108095Y-15772381D01*
X5727142Y-15772381D01*
X5631904Y-15820000D01*
X5584285Y-15867619D01*
X5536666Y-15962857D01*
X5536666Y-16105714D01*
X5584285Y-16200952D01*
X5631904Y-16248571D01*
X5727142Y-16296190D01*
X6108095Y-16296190D01*
X4679523Y-15772381D02*
X4870000Y-15772381D01*
X4965238Y-15820000D01*
X5012857Y-15867619D01*
X5108095Y-16010476D01*
X5155714Y-16200952D01*
X5155714Y-16581905D01*
X5108095Y-16677143D01*
X5060476Y-16724762D01*
X4965238Y-16772381D01*
X4774761Y-16772381D01*
X4679523Y-16724762D01*
X4631904Y-16677143D01*
X4584285Y-16581905D01*
X4584285Y-16343810D01*
X4631904Y-16248571D01*
X4679523Y-16200952D01*
X4774761Y-16153333D01*
X4965238Y-16153333D01*
X5060476Y-16200952D01*
X5108095Y-16248571D01*
X5155714Y-16343810D01*
X7053333Y-47422381D02*
X7053333Y-48136667D01*
X7100953Y-48279524D01*
X7196191Y-48374762D01*
X7339048Y-48422381D01*
X7434286Y-48422381D01*
X6624762Y-47517619D02*
X6577143Y-47470000D01*
X6481905Y-47422381D01*
X6243809Y-47422381D01*
X6148571Y-47470000D01*
X6100952Y-47517619D01*
X6053333Y-47612857D01*
X6053333Y-47708095D01*
X6100952Y-47850952D01*
X6672381Y-48422381D01*
X6053333Y-48422381D01*
X26472381Y-39016667D02*
X27186667Y-39016667D01*
X27329524Y-38969047D01*
X27424762Y-38873809D01*
X27472381Y-38730952D01*
X27472381Y-38635714D01*
X27472381Y-40016667D02*
X27472381Y-39445238D01*
X27472381Y-39730952D02*
X26472381Y-39730952D01*
X26615238Y-39635714D01*
X26710476Y-39540476D01*
X26758095Y-39445238D01*
X7882381Y-1666667D02*
X8596667Y-1666667D01*
X8739524Y-1619047D01*
X8834762Y-1523809D01*
X8882381Y-1380952D01*
X8882381Y-1285714D01*
X7882381Y-2047619D02*
X7882381Y-2666667D01*
X8263333Y-2333333D01*
X8263333Y-2476191D01*
X8310952Y-2571429D01*
X8358571Y-2619048D01*
X8453810Y-2666667D01*
X8691905Y-2666667D01*
X8787143Y-2619048D01*
X8834762Y-2571429D01*
X8882381Y-2476191D01*
X8882381Y-2190476D01*
X8834762Y-2095238D01*
X8787143Y-2047619D01*
X28963333Y817619D02*
X28963333Y103333D01*
X29010953Y-39524D01*
X29106191Y-134762D01*
X29249048Y-182381D01*
X29344286Y-182381D01*
X28058571Y484286D02*
X28058571Y-182381D01*
X28296667Y865238D02*
X28534762Y150952D01*
X27915714Y150952D01*
M02*
