%TF.GenerationSoftware,KiCad,Pcbnew,4.0.7*%
%TF.CreationDate,2017-11-16T17:09:38+08:00*%
%TF.ProjectId,nixie_tube,6E697869655F747562652E6B69636164,rev?*%
%TF.FileFunction,Legend,Top*%
%FSLAX46Y46*%
G04 Gerber Fmt 4.6, Leading zero omitted, Abs format (unit mm)*
G04 Created by KiCad (PCBNEW 4.0.7) date 11/16/17 17:09:38*
%MOMM*%
%LPD*%
G01*
G04 APERTURE LIST*
%ADD10C,0.100000*%
%ADD11C,0.150000*%
%ADD12C,0.120000*%
G04 APERTURE END LIST*
D10*
D11*
X6811000Y-35676000D02*
X6811000Y-38851000D01*
X6811000Y-38851000D02*
X8589000Y-38851000D01*
X8589000Y-38851000D02*
X8589000Y-35676000D01*
X2239000Y-35676000D02*
X2239000Y-38851000D01*
X2239000Y-38851000D02*
X4017000Y-38851000D01*
X4017000Y-38851000D02*
X4017000Y-35676000D01*
X8843000Y-29580000D02*
X8843000Y-35676000D01*
X8843000Y-35676000D02*
X1985000Y-35676000D01*
X1985000Y-35676000D02*
X1985000Y-27802000D01*
X1985000Y-27675000D02*
X8843000Y-27675000D01*
X8843000Y-27802000D02*
X8843000Y-29580000D01*
X18860000Y-14220000D02*
X17510000Y-14220000D01*
X11660000Y-14220000D02*
X13060000Y-14220000D01*
X14260000Y-14070000D02*
X14260000Y-14370000D01*
X16260000Y-14080000D02*
X16260000Y-14470000D01*
X14260000Y-10220000D02*
X13060000Y-10220000D01*
X17460000Y-10220000D02*
X16260000Y-10220000D01*
D12*
X19350000Y-12345000D02*
G75*
G03X19350000Y-12345000I-4090000J0D01*
G01*
X19310000Y-12345000D02*
X11210000Y-12345000D01*
X19310000Y-12385000D02*
X11210000Y-12385000D01*
X19310000Y-12425000D02*
X11210000Y-12425000D01*
X19309000Y-12465000D02*
X11211000Y-12465000D01*
X19307000Y-12505000D02*
X11213000Y-12505000D01*
X19306000Y-12545000D02*
X11214000Y-12545000D01*
X19303000Y-12585000D02*
X11217000Y-12585000D01*
X19301000Y-12625000D02*
X16240000Y-12625000D01*
X14280000Y-12625000D02*
X11219000Y-12625000D01*
X19298000Y-12665000D02*
X16240000Y-12665000D01*
X14280000Y-12665000D02*
X11222000Y-12665000D01*
X19295000Y-12705000D02*
X16240000Y-12705000D01*
X14280000Y-12705000D02*
X11225000Y-12705000D01*
X19291000Y-12745000D02*
X16240000Y-12745000D01*
X14280000Y-12745000D02*
X11229000Y-12745000D01*
X19287000Y-12785000D02*
X16240000Y-12785000D01*
X14280000Y-12785000D02*
X11233000Y-12785000D01*
X19282000Y-12825000D02*
X16240000Y-12825000D01*
X14280000Y-12825000D02*
X11238000Y-12825000D01*
X19277000Y-12865000D02*
X16240000Y-12865000D01*
X14280000Y-12865000D02*
X11243000Y-12865000D01*
X19272000Y-12905000D02*
X16240000Y-12905000D01*
X14280000Y-12905000D02*
X11248000Y-12905000D01*
X19266000Y-12945000D02*
X16240000Y-12945000D01*
X14280000Y-12945000D02*
X11254000Y-12945000D01*
X19260000Y-12985000D02*
X16240000Y-12985000D01*
X14280000Y-12985000D02*
X11260000Y-12985000D01*
X19254000Y-13025000D02*
X16240000Y-13025000D01*
X14280000Y-13025000D02*
X11266000Y-13025000D01*
X19247000Y-13066000D02*
X16240000Y-13066000D01*
X14280000Y-13066000D02*
X11273000Y-13066000D01*
X19239000Y-13106000D02*
X16240000Y-13106000D01*
X14280000Y-13106000D02*
X11281000Y-13106000D01*
X19231000Y-13146000D02*
X16240000Y-13146000D01*
X14280000Y-13146000D02*
X11289000Y-13146000D01*
X19223000Y-13186000D02*
X16240000Y-13186000D01*
X14280000Y-13186000D02*
X11297000Y-13186000D01*
X19215000Y-13226000D02*
X16240000Y-13226000D01*
X14280000Y-13226000D02*
X11305000Y-13226000D01*
X19206000Y-13266000D02*
X16240000Y-13266000D01*
X14280000Y-13266000D02*
X11314000Y-13266000D01*
X19196000Y-13306000D02*
X16240000Y-13306000D01*
X14280000Y-13306000D02*
X11324000Y-13306000D01*
X19186000Y-13346000D02*
X16240000Y-13346000D01*
X14280000Y-13346000D02*
X11334000Y-13346000D01*
X19176000Y-13386000D02*
X16240000Y-13386000D01*
X14280000Y-13386000D02*
X11344000Y-13386000D01*
X19165000Y-13426000D02*
X16240000Y-13426000D01*
X14280000Y-13426000D02*
X11355000Y-13426000D01*
X19154000Y-13466000D02*
X16240000Y-13466000D01*
X14280000Y-13466000D02*
X11366000Y-13466000D01*
X19143000Y-13506000D02*
X16240000Y-13506000D01*
X14280000Y-13506000D02*
X11377000Y-13506000D01*
X19130000Y-13546000D02*
X16240000Y-13546000D01*
X14280000Y-13546000D02*
X11390000Y-13546000D01*
X19118000Y-13586000D02*
X16240000Y-13586000D01*
X14280000Y-13586000D02*
X11402000Y-13586000D01*
X19105000Y-13626000D02*
X16240000Y-13626000D01*
X14280000Y-13626000D02*
X11415000Y-13626000D01*
X19092000Y-13666000D02*
X16240000Y-13666000D01*
X14280000Y-13666000D02*
X11428000Y-13666000D01*
X19078000Y-13706000D02*
X16240000Y-13706000D01*
X14280000Y-13706000D02*
X11442000Y-13706000D01*
X19063000Y-13746000D02*
X16240000Y-13746000D01*
X14280000Y-13746000D02*
X11457000Y-13746000D01*
X19049000Y-13786000D02*
X16240000Y-13786000D01*
X14280000Y-13786000D02*
X11471000Y-13786000D01*
X19033000Y-13826000D02*
X16240000Y-13826000D01*
X14280000Y-13826000D02*
X11487000Y-13826000D01*
X19018000Y-13866000D02*
X16240000Y-13866000D01*
X14280000Y-13866000D02*
X11502000Y-13866000D01*
X19001000Y-13906000D02*
X16240000Y-13906000D01*
X14280000Y-13906000D02*
X11519000Y-13906000D01*
X18985000Y-13946000D02*
X16240000Y-13946000D01*
X14280000Y-13946000D02*
X11535000Y-13946000D01*
X18967000Y-13986000D02*
X16240000Y-13986000D01*
X14280000Y-13986000D02*
X11553000Y-13986000D01*
X18950000Y-14026000D02*
X16240000Y-14026000D01*
X14280000Y-14026000D02*
X11570000Y-14026000D01*
X18931000Y-14066000D02*
X16240000Y-14066000D01*
X14280000Y-14066000D02*
X11589000Y-14066000D01*
X18912000Y-14106000D02*
X16240000Y-14106000D01*
X14280000Y-14106000D02*
X11608000Y-14106000D01*
X18788000Y-14346000D02*
X16240000Y-14346000D01*
X14280000Y-14346000D02*
X11732000Y-14346000D01*
X18765000Y-14386000D02*
X16240000Y-14386000D01*
X14280000Y-14386000D02*
X11755000Y-14386000D01*
X18742000Y-14426000D02*
X16240000Y-14426000D01*
X14280000Y-14426000D02*
X11778000Y-14426000D01*
X18718000Y-14466000D02*
X16240000Y-14466000D01*
X14280000Y-14466000D02*
X11802000Y-14466000D01*
X18694000Y-14506000D02*
X16240000Y-14506000D01*
X14280000Y-14506000D02*
X11826000Y-14506000D01*
X18668000Y-14546000D02*
X16240000Y-14546000D01*
X14280000Y-14546000D02*
X11852000Y-14546000D01*
X18643000Y-14586000D02*
X11877000Y-14586000D01*
X18616000Y-14626000D02*
X11904000Y-14626000D01*
X18589000Y-14666000D02*
X11931000Y-14666000D01*
X18561000Y-14706000D02*
X11959000Y-14706000D01*
X18532000Y-14746000D02*
X11988000Y-14746000D01*
X18503000Y-14786000D02*
X12017000Y-14786000D01*
X18473000Y-14826000D02*
X12047000Y-14826000D01*
X18442000Y-14866000D02*
X12078000Y-14866000D01*
X18410000Y-14906000D02*
X12110000Y-14906000D01*
X18378000Y-14946000D02*
X12142000Y-14946000D01*
X18344000Y-14986000D02*
X12176000Y-14986000D01*
X18310000Y-15026000D02*
X12210000Y-15026000D01*
X18275000Y-15066000D02*
X12245000Y-15066000D01*
X18239000Y-15106000D02*
X12281000Y-15106000D01*
X18202000Y-15146000D02*
X12318000Y-15146000D01*
X18164000Y-15186000D02*
X12356000Y-15186000D01*
X18125000Y-15226000D02*
X12395000Y-15226000D01*
X18084000Y-15266000D02*
X12436000Y-15266000D01*
X18043000Y-15306000D02*
X12477000Y-15306000D01*
X18000000Y-15346000D02*
X12520000Y-15346000D01*
X17957000Y-15386000D02*
X12563000Y-15386000D01*
X17912000Y-15426000D02*
X12608000Y-15426000D01*
X17865000Y-15466000D02*
X12655000Y-15466000D01*
X17817000Y-15506000D02*
X12703000Y-15506000D01*
X17768000Y-15546000D02*
X12752000Y-15546000D01*
X17717000Y-15586000D02*
X12803000Y-15586000D01*
X17664000Y-15626000D02*
X12856000Y-15626000D01*
X17609000Y-15666000D02*
X12911000Y-15666000D01*
X17553000Y-15706000D02*
X12967000Y-15706000D01*
X17494000Y-15746000D02*
X13026000Y-15746000D01*
X17433000Y-15786000D02*
X13087000Y-15786000D01*
X17369000Y-15826000D02*
X13151000Y-15826000D01*
X17303000Y-15866000D02*
X13217000Y-15866000D01*
X17234000Y-15906000D02*
X13286000Y-15906000D01*
X17162000Y-15946000D02*
X13358000Y-15946000D01*
X17086000Y-15986000D02*
X13434000Y-15986000D01*
X17005000Y-16026000D02*
X13515000Y-16026000D01*
X16920000Y-16066000D02*
X13600000Y-16066000D01*
X16830000Y-16106000D02*
X13690000Y-16106000D01*
X16733000Y-16146000D02*
X13787000Y-16146000D01*
X16629000Y-16186000D02*
X13891000Y-16186000D01*
X16514000Y-16226000D02*
X14006000Y-16226000D01*
X16387000Y-16266000D02*
X14133000Y-16266000D01*
X16243000Y-16306000D02*
X14277000Y-16306000D01*
X16074000Y-16346000D02*
X14446000Y-16346000D01*
X15858000Y-16386000D02*
X14662000Y-16386000D01*
X15506000Y-16426000D02*
X15014000Y-16426000D01*
X16740000Y-8865000D02*
X16740000Y-10065000D01*
X17390000Y-9465000D02*
X16090000Y-9465000D01*
D11*
X9870000Y-10450000D02*
X9370000Y-10450000D01*
X9870000Y-10950000D02*
X9870000Y-10450000D01*
X9870000Y-18950000D02*
X9870000Y-18450000D01*
X9370000Y-18950000D02*
X9870000Y-18950000D01*
X1870000Y-18950000D02*
X9370000Y-18950000D01*
X1370000Y-10950000D02*
X1370000Y-18450000D01*
X9370000Y-10450000D02*
X1870000Y-10450000D01*
X9870000Y-18450000D02*
X9870000Y-10950000D01*
X1370000Y-10950000D02*
X1870000Y-10450000D01*
X1370000Y-18450000D02*
X1370000Y-18450000D01*
X8020000Y-16300000D02*
X8020000Y-15700000D01*
X2220000Y-16300000D02*
X3020000Y-16300000D01*
X2620000Y-16700000D02*
X2620000Y-15900000D01*
X1370000Y-18450000D02*
X1870000Y-18950000D01*
X19280000Y-47310000D02*
X12980000Y-47310000D01*
X12980000Y-56310000D02*
X19280000Y-56310000D01*
X19280000Y-56310000D02*
X19280000Y-47310000D01*
X12980000Y-56310000D02*
X12980000Y-47310000D01*
X2325000Y-25325000D02*
X2375000Y-25325000D01*
X2325000Y-21175000D02*
X2470000Y-21175000D01*
X7475000Y-21175000D02*
X7330000Y-21175000D01*
X7475000Y-25325000D02*
X7330000Y-25325000D01*
X2325000Y-25325000D02*
X2325000Y-21175000D01*
X7475000Y-25325000D02*
X7475000Y-21175000D01*
X2375000Y-25325000D02*
X2375000Y-26725000D01*
X9830000Y-30700000D02*
X22130000Y-30700000D01*
X9830000Y-18400000D02*
X9830000Y-30700000D01*
X22130000Y-18400000D02*
X9830000Y-18400000D01*
X22130000Y-30700000D02*
X22130000Y-18400000D01*
D12*
X9530000Y-40240000D02*
X8600000Y-40240000D01*
X6370000Y-40240000D02*
X7300000Y-40240000D01*
X6370000Y-40240000D02*
X6370000Y-42400000D01*
X9530000Y-40240000D02*
X9530000Y-41700000D01*
X15450000Y-32900000D02*
X15450000Y-34900000D01*
X15450000Y-34900000D02*
X19350000Y-34900000D01*
X15450000Y-32900000D02*
X19350000Y-32900000D01*
X14650000Y-37050000D02*
X14650000Y-40350000D01*
X14650000Y-40350000D02*
X20050000Y-40350000D01*
X14650000Y-37050000D02*
X20050000Y-37050000D01*
X2550000Y-44300000D02*
X2550000Y-43600000D01*
X3750000Y-43600000D02*
X3750000Y-44300000D01*
X500000Y-44250000D02*
X500000Y-43550000D01*
X1700000Y-43550000D02*
X1700000Y-44250000D01*
X520000Y-41175000D02*
X520000Y-40175000D01*
X1880000Y-40175000D02*
X1880000Y-41175000D01*
X5880000Y-40175000D02*
X5880000Y-41175000D01*
X4520000Y-41175000D02*
X4520000Y-40175000D01*
X2520000Y-41175000D02*
X2520000Y-40175000D01*
X3880000Y-40175000D02*
X3880000Y-41175000D01*
X1790000Y-45970000D02*
X1790000Y-46900000D01*
X1790000Y-49130000D02*
X1790000Y-48200000D01*
X1790000Y-49130000D02*
X3950000Y-49130000D01*
X1790000Y-45970000D02*
X3250000Y-45970000D01*
X5880000Y-43700000D02*
X5880000Y-44700000D01*
X4520000Y-44700000D02*
X4520000Y-43700000D01*
X8120000Y-44700000D02*
X8120000Y-43700000D01*
X9480000Y-43700000D02*
X9480000Y-44700000D01*
X8680000Y-46790000D02*
X7750000Y-46790000D01*
X5520000Y-46790000D02*
X6450000Y-46790000D01*
X5520000Y-46790000D02*
X5520000Y-48950000D01*
X8680000Y-46790000D02*
X8680000Y-48250000D01*
D11*
X5318762Y-27333619D02*
X5223524Y-27286000D01*
X5128286Y-27190762D01*
X4985429Y-27047905D01*
X4890190Y-27000286D01*
X4794952Y-27000286D01*
X4842571Y-27238381D02*
X4747333Y-27190762D01*
X4652095Y-27095524D01*
X4604476Y-26905048D01*
X4604476Y-26571714D01*
X4652095Y-26381238D01*
X4747333Y-26286000D01*
X4842571Y-26238381D01*
X5033048Y-26238381D01*
X5128286Y-26286000D01*
X5223524Y-26381238D01*
X5271143Y-26571714D01*
X5271143Y-26905048D01*
X5223524Y-27095524D01*
X5128286Y-27190762D01*
X5033048Y-27238381D01*
X4842571Y-27238381D01*
X5652095Y-26333619D02*
X5699714Y-26286000D01*
X5794952Y-26238381D01*
X6033048Y-26238381D01*
X6128286Y-26286000D01*
X6175905Y-26333619D01*
X6223524Y-26428857D01*
X6223524Y-26524095D01*
X6175905Y-26666952D01*
X5604476Y-27238381D01*
X6223524Y-27238381D01*
X21496667Y-56372381D02*
X21163333Y-55896190D01*
X20925238Y-56372381D02*
X20925238Y-55372381D01*
X21306191Y-55372381D01*
X21401429Y-55420000D01*
X21449048Y-55467619D01*
X21496667Y-55562857D01*
X21496667Y-55705714D01*
X21449048Y-55800952D01*
X21401429Y-55848571D01*
X21306191Y-55896190D01*
X20925238Y-55896190D01*
X21925238Y-55848571D02*
X22258572Y-55848571D01*
X22401429Y-56372381D02*
X21925238Y-56372381D01*
X21925238Y-55372381D01*
X22401429Y-55372381D01*
X23163334Y-55848571D02*
X22830000Y-55848571D01*
X22830000Y-56372381D02*
X22830000Y-55372381D01*
X23306191Y-55372381D01*
X23830000Y-55372381D02*
X23830000Y-55610476D01*
X23591905Y-55515238D02*
X23830000Y-55610476D01*
X24068096Y-55515238D01*
X23687143Y-55800952D02*
X23830000Y-55610476D01*
X23972858Y-55800952D01*
X24591905Y-55372381D02*
X24591905Y-55610476D01*
X24353810Y-55515238D02*
X24591905Y-55610476D01*
X24830001Y-55515238D01*
X24449048Y-55800952D02*
X24591905Y-55610476D01*
X24734763Y-55800952D01*
X2516667Y-58052381D02*
X2183333Y-57576190D01*
X1945238Y-58052381D02*
X1945238Y-57052381D01*
X2326191Y-57052381D01*
X2421429Y-57100000D01*
X2469048Y-57147619D01*
X2516667Y-57242857D01*
X2516667Y-57385714D01*
X2469048Y-57480952D01*
X2421429Y-57528571D01*
X2326191Y-57576190D01*
X1945238Y-57576190D01*
X2945238Y-57528571D02*
X3278572Y-57528571D01*
X3421429Y-58052381D02*
X2945238Y-58052381D01*
X2945238Y-57052381D01*
X3421429Y-57052381D01*
X4183334Y-57528571D02*
X3850000Y-57528571D01*
X3850000Y-58052381D02*
X3850000Y-57052381D01*
X4326191Y-57052381D01*
X4850000Y-57052381D02*
X4850000Y-57290476D01*
X4611905Y-57195238D02*
X4850000Y-57290476D01*
X5088096Y-57195238D01*
X4707143Y-57480952D02*
X4850000Y-57290476D01*
X4992858Y-57480952D01*
X5611905Y-57052381D02*
X5611905Y-57290476D01*
X5373810Y-57195238D02*
X5611905Y-57290476D01*
X5850001Y-57195238D01*
X5469048Y-57480952D02*
X5611905Y-57290476D01*
X5754763Y-57480952D01*
X20916667Y-12752381D02*
X20583333Y-12276190D01*
X20345238Y-12752381D02*
X20345238Y-11752381D01*
X20726191Y-11752381D01*
X20821429Y-11800000D01*
X20869048Y-11847619D01*
X20916667Y-11942857D01*
X20916667Y-12085714D01*
X20869048Y-12180952D01*
X20821429Y-12228571D01*
X20726191Y-12276190D01*
X20345238Y-12276190D01*
X21345238Y-12228571D02*
X21678572Y-12228571D01*
X21821429Y-12752381D02*
X21345238Y-12752381D01*
X21345238Y-11752381D01*
X21821429Y-11752381D01*
X22583334Y-12228571D02*
X22250000Y-12228571D01*
X22250000Y-12752381D02*
X22250000Y-11752381D01*
X22726191Y-11752381D01*
X23250000Y-11752381D02*
X23250000Y-11990476D01*
X23011905Y-11895238D02*
X23250000Y-11990476D01*
X23488096Y-11895238D01*
X23107143Y-12180952D02*
X23250000Y-11990476D01*
X23392858Y-12180952D01*
X24011905Y-11752381D02*
X24011905Y-11990476D01*
X23773810Y-11895238D02*
X24011905Y-11990476D01*
X24250001Y-11895238D01*
X23869048Y-12180952D02*
X24011905Y-11990476D01*
X24154763Y-12180952D01*
X2216667Y-12152381D02*
X1883333Y-11676190D01*
X1645238Y-12152381D02*
X1645238Y-11152381D01*
X2026191Y-11152381D01*
X2121429Y-11200000D01*
X2169048Y-11247619D01*
X2216667Y-11342857D01*
X2216667Y-11485714D01*
X2169048Y-11580952D01*
X2121429Y-11628571D01*
X2026191Y-11676190D01*
X1645238Y-11676190D01*
X2645238Y-11628571D02*
X2978572Y-11628571D01*
X3121429Y-12152381D02*
X2645238Y-12152381D01*
X2645238Y-11152381D01*
X3121429Y-11152381D01*
X3883334Y-11628571D02*
X3550000Y-11628571D01*
X3550000Y-12152381D02*
X3550000Y-11152381D01*
X4026191Y-11152381D01*
X4550000Y-11152381D02*
X4550000Y-11390476D01*
X4311905Y-11295238D02*
X4550000Y-11390476D01*
X4788096Y-11295238D01*
X4407143Y-11580952D02*
X4550000Y-11390476D01*
X4692858Y-11580952D01*
X5311905Y-11152381D02*
X5311905Y-11390476D01*
X5073810Y-11295238D02*
X5311905Y-11390476D01*
X5550001Y-11295238D01*
X5169048Y-11580952D02*
X5311905Y-11390476D01*
X5454763Y-11580952D01*
X20927143Y-12511666D02*
X20974762Y-12559285D01*
X21022381Y-12702142D01*
X21022381Y-12797380D01*
X20974762Y-12940238D01*
X20879524Y-13035476D01*
X20784286Y-13083095D01*
X20593810Y-13130714D01*
X20450952Y-13130714D01*
X20260476Y-13083095D01*
X20165238Y-13035476D01*
X20070000Y-12940238D01*
X20022381Y-12797380D01*
X20022381Y-12702142D01*
X20070000Y-12559285D01*
X20117619Y-12511666D01*
X20355714Y-11654523D02*
X21022381Y-11654523D01*
X19974762Y-11892619D02*
X20689048Y-12130714D01*
X20689048Y-11511666D01*
X11977143Y-14866666D02*
X12024762Y-14914285D01*
X12072381Y-15057142D01*
X12072381Y-15152380D01*
X12024762Y-15295238D01*
X11929524Y-15390476D01*
X11834286Y-15438095D01*
X11643810Y-15485714D01*
X11500952Y-15485714D01*
X11310476Y-15438095D01*
X11215238Y-15390476D01*
X11120000Y-15295238D01*
X11072381Y-15152380D01*
X11072381Y-15057142D01*
X11120000Y-14914285D01*
X11167619Y-14866666D01*
X11167619Y-14485714D02*
X11120000Y-14438095D01*
X11072381Y-14342857D01*
X11072381Y-14104761D01*
X11120000Y-14009523D01*
X11167619Y-13961904D01*
X11262857Y-13914285D01*
X11358095Y-13914285D01*
X11500952Y-13961904D01*
X12072381Y-14533333D01*
X12072381Y-13914285D01*
X24472381Y-49119523D02*
X25186667Y-49119523D01*
X25329524Y-49167143D01*
X25424762Y-49262381D01*
X25472381Y-49405238D01*
X25472381Y-49500476D01*
X25472381Y-48119523D02*
X25472381Y-48690952D01*
X25472381Y-48405238D02*
X24472381Y-48405238D01*
X24615238Y-48500476D01*
X24710476Y-48595714D01*
X24758095Y-48690952D01*
X25472381Y-47167142D02*
X25472381Y-47738571D01*
X25472381Y-47452857D02*
X24472381Y-47452857D01*
X24615238Y-47548095D01*
X24710476Y-47643333D01*
X24758095Y-47738571D01*
X852381Y-24011905D02*
X1661905Y-24011905D01*
X1757143Y-23964286D01*
X1804762Y-23916667D01*
X1852381Y-23821429D01*
X1852381Y-23630952D01*
X1804762Y-23535714D01*
X1757143Y-23488095D01*
X1661905Y-23440476D01*
X852381Y-23440476D01*
X1852381Y-22440476D02*
X1852381Y-23011905D01*
X1852381Y-22726191D02*
X852381Y-22726191D01*
X995238Y-22821429D01*
X1090476Y-22916667D01*
X1138095Y-23011905D01*
X15813334Y-29202381D02*
X15337143Y-29202381D01*
X15337143Y-28202381D01*
X16670477Y-29202381D02*
X16099048Y-29202381D01*
X16384762Y-29202381D02*
X16384762Y-28202381D01*
X16289524Y-28345238D01*
X16194286Y-28440476D01*
X16099048Y-28488095D01*
X5997619Y-41095238D02*
X5950000Y-41190476D01*
X5854762Y-41285714D01*
X5711905Y-41428571D01*
X5664286Y-41523810D01*
X5664286Y-41619048D01*
X5902381Y-41571429D02*
X5854762Y-41666667D01*
X5759524Y-41761905D01*
X5569048Y-41809524D01*
X5235714Y-41809524D01*
X5045238Y-41761905D01*
X4950000Y-41666667D01*
X4902381Y-41571429D01*
X4902381Y-41380952D01*
X4950000Y-41285714D01*
X5045238Y-41190476D01*
X5235714Y-41142857D01*
X5569048Y-41142857D01*
X5759524Y-41190476D01*
X5854762Y-41285714D01*
X5902381Y-41380952D01*
X5902381Y-41571429D01*
X5902381Y-40190476D02*
X5902381Y-40761905D01*
X5902381Y-40476191D02*
X4902381Y-40476191D01*
X5045238Y-40571429D01*
X5140476Y-40666667D01*
X5188095Y-40761905D01*
X16961905Y-32352381D02*
X16961905Y-31352381D01*
X17200000Y-31352381D01*
X17342858Y-31400000D01*
X17438096Y-31495238D01*
X17485715Y-31590476D01*
X17533334Y-31780952D01*
X17533334Y-31923810D01*
X17485715Y-32114286D01*
X17438096Y-32209524D01*
X17342858Y-32304762D01*
X17200000Y-32352381D01*
X16961905Y-32352381D01*
X18485715Y-32352381D02*
X17914286Y-32352381D01*
X18200000Y-32352381D02*
X18200000Y-31352381D01*
X18104762Y-31495238D01*
X18009524Y-31590476D01*
X17914286Y-31638095D01*
X17311905Y-36652381D02*
X17311905Y-35652381D01*
X17550000Y-35652381D01*
X17692858Y-35700000D01*
X17788096Y-35795238D01*
X17835715Y-35890476D01*
X17883334Y-36080952D01*
X17883334Y-36223810D01*
X17835715Y-36414286D01*
X17788096Y-36509524D01*
X17692858Y-36604762D01*
X17550000Y-36652381D01*
X17311905Y-36652381D01*
X18264286Y-35747619D02*
X18311905Y-35700000D01*
X18407143Y-35652381D01*
X18645239Y-35652381D01*
X18740477Y-35700000D01*
X18788096Y-35747619D01*
X18835715Y-35842857D01*
X18835715Y-35938095D01*
X18788096Y-36080952D01*
X18216667Y-36652381D01*
X18835715Y-36652381D01*
X5007143Y-44116666D02*
X5054762Y-44164285D01*
X5102381Y-44307142D01*
X5102381Y-44402380D01*
X5054762Y-44545238D01*
X4959524Y-44640476D01*
X4864286Y-44688095D01*
X4673810Y-44735714D01*
X4530952Y-44735714D01*
X4340476Y-44688095D01*
X4245238Y-44640476D01*
X4150000Y-44545238D01*
X4102381Y-44402380D01*
X4102381Y-44307142D01*
X4150000Y-44164285D01*
X4197619Y-44116666D01*
X5102381Y-43164285D02*
X5102381Y-43735714D01*
X5102381Y-43450000D02*
X4102381Y-43450000D01*
X4245238Y-43545238D01*
X4340476Y-43640476D01*
X4388095Y-43735714D01*
X2957143Y-44066666D02*
X3004762Y-44114285D01*
X3052381Y-44257142D01*
X3052381Y-44352380D01*
X3004762Y-44495238D01*
X2909524Y-44590476D01*
X2814286Y-44638095D01*
X2623810Y-44685714D01*
X2480952Y-44685714D01*
X2290476Y-44638095D01*
X2195238Y-44590476D01*
X2100000Y-44495238D01*
X2052381Y-44352380D01*
X2052381Y-44257142D01*
X2100000Y-44114285D01*
X2147619Y-44066666D01*
X2052381Y-43733333D02*
X2052381Y-43114285D01*
X2433333Y-43447619D01*
X2433333Y-43304761D01*
X2480952Y-43209523D01*
X2528571Y-43161904D01*
X2623810Y-43114285D01*
X2861905Y-43114285D01*
X2957143Y-43161904D01*
X3004762Y-43209523D01*
X3052381Y-43304761D01*
X3052381Y-43590476D01*
X3004762Y-43685714D01*
X2957143Y-43733333D01*
X3102381Y-40841666D02*
X2626190Y-41175000D01*
X3102381Y-41413095D02*
X2102381Y-41413095D01*
X2102381Y-41032142D01*
X2150000Y-40936904D01*
X2197619Y-40889285D01*
X2292857Y-40841666D01*
X2435714Y-40841666D01*
X2530952Y-40889285D01*
X2578571Y-40936904D01*
X2626190Y-41032142D01*
X2626190Y-41413095D01*
X3102381Y-39889285D02*
X3102381Y-40460714D01*
X3102381Y-40175000D02*
X2102381Y-40175000D01*
X2245238Y-40270238D01*
X2340476Y-40365476D01*
X2388095Y-40460714D01*
X4202381Y-40841666D02*
X3726190Y-41175000D01*
X4202381Y-41413095D02*
X3202381Y-41413095D01*
X3202381Y-41032142D01*
X3250000Y-40936904D01*
X3297619Y-40889285D01*
X3392857Y-40841666D01*
X3535714Y-40841666D01*
X3630952Y-40889285D01*
X3678571Y-40936904D01*
X3726190Y-41032142D01*
X3726190Y-41413095D01*
X3297619Y-40460714D02*
X3250000Y-40413095D01*
X3202381Y-40317857D01*
X3202381Y-40079761D01*
X3250000Y-39984523D01*
X3297619Y-39936904D01*
X3392857Y-39889285D01*
X3488095Y-39889285D01*
X3630952Y-39936904D01*
X4202381Y-40508333D01*
X4202381Y-39889285D01*
X5102381Y-40841666D02*
X4626190Y-41175000D01*
X5102381Y-41413095D02*
X4102381Y-41413095D01*
X4102381Y-41032142D01*
X4150000Y-40936904D01*
X4197619Y-40889285D01*
X4292857Y-40841666D01*
X4435714Y-40841666D01*
X4530952Y-40889285D01*
X4578571Y-40936904D01*
X4626190Y-41032142D01*
X4626190Y-41413095D01*
X4102381Y-40508333D02*
X4102381Y-39889285D01*
X4483333Y-40222619D01*
X4483333Y-40079761D01*
X4530952Y-39984523D01*
X4578571Y-39936904D01*
X4673810Y-39889285D01*
X4911905Y-39889285D01*
X5007143Y-39936904D01*
X5054762Y-39984523D01*
X5102381Y-40079761D01*
X5102381Y-40365476D01*
X5054762Y-40460714D01*
X5007143Y-40508333D01*
X2454762Y-50597619D02*
X2359524Y-50550000D01*
X2264286Y-50454762D01*
X2121429Y-50311905D01*
X2026190Y-50264286D01*
X1930952Y-50264286D01*
X1978571Y-50502381D02*
X1883333Y-50454762D01*
X1788095Y-50359524D01*
X1740476Y-50169048D01*
X1740476Y-49835714D01*
X1788095Y-49645238D01*
X1883333Y-49550000D01*
X1978571Y-49502381D01*
X2169048Y-49502381D01*
X2264286Y-49550000D01*
X2359524Y-49645238D01*
X2407143Y-49835714D01*
X2407143Y-50169048D01*
X2359524Y-50359524D01*
X2264286Y-50454762D01*
X2169048Y-50502381D01*
X1978571Y-50502381D01*
X2740476Y-49502381D02*
X3359524Y-49502381D01*
X3026190Y-49883333D01*
X3169048Y-49883333D01*
X3264286Y-49930952D01*
X3311905Y-49978571D01*
X3359524Y-50073810D01*
X3359524Y-50311905D01*
X3311905Y-50407143D01*
X3264286Y-50454762D01*
X3169048Y-50502381D01*
X2883333Y-50502381D01*
X2788095Y-50454762D01*
X2740476Y-50407143D01*
X4202381Y-44366666D02*
X3726190Y-44700000D01*
X4202381Y-44938095D02*
X3202381Y-44938095D01*
X3202381Y-44557142D01*
X3250000Y-44461904D01*
X3297619Y-44414285D01*
X3392857Y-44366666D01*
X3535714Y-44366666D01*
X3630952Y-44414285D01*
X3678571Y-44461904D01*
X3726190Y-44557142D01*
X3726190Y-44938095D01*
X3535714Y-43509523D02*
X4202381Y-43509523D01*
X3154762Y-43747619D02*
X3869048Y-43985714D01*
X3869048Y-43366666D01*
X10702381Y-44366666D02*
X10226190Y-44700000D01*
X10702381Y-44938095D02*
X9702381Y-44938095D01*
X9702381Y-44557142D01*
X9750000Y-44461904D01*
X9797619Y-44414285D01*
X9892857Y-44366666D01*
X10035714Y-44366666D01*
X10130952Y-44414285D01*
X10178571Y-44461904D01*
X10226190Y-44557142D01*
X10226190Y-44938095D01*
X9702381Y-43461904D02*
X9702381Y-43938095D01*
X10178571Y-43985714D01*
X10130952Y-43938095D01*
X10083333Y-43842857D01*
X10083333Y-43604761D01*
X10130952Y-43509523D01*
X10178571Y-43461904D01*
X10273810Y-43414285D01*
X10511905Y-43414285D01*
X10607143Y-43461904D01*
X10654762Y-43509523D01*
X10702381Y-43604761D01*
X10702381Y-43842857D01*
X10654762Y-43938095D01*
X10607143Y-43985714D01*
X5147619Y-47645238D02*
X5100000Y-47740476D01*
X5004762Y-47835714D01*
X4861905Y-47978571D01*
X4814286Y-48073810D01*
X4814286Y-48169048D01*
X5052381Y-48121429D02*
X5004762Y-48216667D01*
X4909524Y-48311905D01*
X4719048Y-48359524D01*
X4385714Y-48359524D01*
X4195238Y-48311905D01*
X4100000Y-48216667D01*
X4052381Y-48121429D01*
X4052381Y-47930952D01*
X4100000Y-47835714D01*
X4195238Y-47740476D01*
X4385714Y-47692857D01*
X4719048Y-47692857D01*
X4909524Y-47740476D01*
X5004762Y-47835714D01*
X5052381Y-47930952D01*
X5052381Y-48121429D01*
X4385714Y-46835714D02*
X5052381Y-46835714D01*
X4004762Y-47073810D02*
X4719048Y-47311905D01*
X4719048Y-46692857D01*
M02*
