M48
;DRILL file {KiCad 4.0.7} date 11/17/17 19:53:34
;FORMAT={-:-/ absolute / metric / decimal}
FMAT,2
METRIC,TZ
T1C0.300
T2C0.400
T3C0.800
T4C1.000
T5C3.150
T6C0.500
%
G90
G05
M71
T1
X1.125Y-16.05
X1.62Y-42.46
X2.25Y-40.5
X3.891Y-27.13
X4.15Y-42.55
X4.161Y-35.303
X4.2Y-41.1
X4.22Y-37.416
X4.45Y-46.8
X4.496Y-27.375
X4.75Y-22.2
X4.766Y-36.419
X5.048Y-38.57
X5.15Y-49.25
X5.296Y-35.318
X5.395Y-34.465
X5.45Y-42.25
X6.206Y-41.344
X6.25Y-39.2
X6.78Y-21.95
X6.8Y-17.71
X7.092Y-45.865
X7.575Y-43.847
X13.05Y-43.825
X13.4Y-0.95
X13.7Y-2.7
X13.75Y-1.8
X14.1Y-35.25
X15.3Y-0.85
X16.03Y-44.75
X18.1Y-35.25
X19.5Y-3.2
X21.6Y-3.25
X21.76Y-43.79
X22.15Y-2.9
X22.2Y-2.
X22.925Y-35.25
T2
X2.73Y-18.71
X9.2Y-40.
X12.58Y-18.85
X13.41Y-39.09
X16.03Y-46.6
X17.3Y-18.65
X17.341Y-30.649
X17.35Y-32.45
T3
X14.15Y-41.47
X14.15Y-46.65
X15.4Y-12.175
X15.4Y-14.675
X17.9Y-41.47
X18.15Y-46.7
T4
X11.1Y-33.
X11.1Y-35.54
X11.1Y-38.08
X11.1Y-40.62
X11.1Y-43.16
X11.1Y-45.7
X11.2Y-2.
X24.25Y-2.
X24.25Y-33.
X24.25Y-35.54
X24.25Y-38.08
X24.25Y-40.62
X24.25Y-43.16
X24.25Y-45.7
T5
X3.5Y-6.9
X3.8Y-52.8
X22.2Y-7.5
X22.78Y-51.12
T6
X14.13Y-54.31
X18.13Y-54.31
T0
M30
