M48
;DRILL file {KiCad 4.0.7} date 11/25/17 15:28:19
;FORMAT={-:-/ absolute / metric / decimal}
FMAT,2
METRIC,TZ
T1C0.300
T2C0.400
T3C0.800
T4C1.000
T5C1.300
T6C3.150
T7C1.300
%
G90
G05
M71
T1
X1.125Y-16.05
X1.62Y-42.46
X2.25Y-40.5
X3.68Y-47.55
X4.15Y-42.55
X4.2Y-41.1
X4.22Y-37.416
X4.31Y-27.19
X5.02Y-48.57
X5.048Y-38.57
X5.2Y-24.53
X5.44Y-42.251
X6.78Y-21.95
X6.8Y-17.71
X7.575Y-43.847
X7.92Y-35.225
X8.2Y-41.04
X12.473Y-39.32
X13.05Y-43.825
X13.4Y-0.95
X13.7Y-2.7
X13.75Y-1.8
X14.1Y-35.25
X15.3Y-0.85
X18.1Y-35.25
X19.5Y-3.2
X21.6Y-3.25
X21.76Y-43.79
X22.15Y-2.9
X22.2Y-2.
X22.925Y-35.25
T2
X2.73Y-18.71
X9.2Y-40.
X10.275Y-7.7
X10.6Y-6.11
X10.7Y-10.1
X11.275Y-18.925
X13.1Y-6.525
X15.91Y-5.3
X16.45Y-8.54
X19.76Y-11.54
X21.32Y-13.48
X21.875Y-29.05
X22.125Y-17.975
X23.075Y-16.1
X23.575Y-29.675
X23.8Y-13.52
T3
X5.57Y-22.2
X7.39Y-45.31
X14.15Y-41.47
X14.15Y-46.65
X15.Y-25.6
X15.4Y-12.175
X15.4Y-14.675
X16.08Y-46.55
X17.35Y-30.657
X17.85Y-25.3
X17.9Y-41.47
X18.15Y-46.7
T4
X11.1Y-33.
X11.1Y-35.54
X11.1Y-38.08
X11.1Y-40.62
X11.1Y-43.16
X11.1Y-45.7
X11.2Y-2.
X24.25Y-2.
X24.25Y-33.
X24.25Y-35.54
X24.25Y-38.08
X24.25Y-40.62
X24.25Y-43.16
X24.25Y-45.7
T5
X14.13Y-48.31
X16.13Y-48.31
X18.13Y-48.31
T6
X3.5Y-6.9
X3.8Y-52.8
X22.2Y-7.5
X22.78Y-51.12
T7
X14.13Y-54.31
X18.13Y-54.31
T0
M30
