%TF.GenerationSoftware,KiCad,Pcbnew,4.0.7*%
%TF.CreationDate,2017-11-22T17:49:31+08:00*%
%TF.ProjectId,nixie_tube,6E697869655F747562652E6B69636164,rev?*%
%TF.FileFunction,Legend,Bot*%
%FSLAX46Y46*%
G04 Gerber Fmt 4.6, Leading zero omitted, Abs format (unit mm)*
G04 Created by KiCad (PCBNEW 4.0.7) date 11/22/17 17:49:31*
%MOMM*%
%LPD*%
G01*
G04 APERTURE LIST*
%ADD10C,0.100000*%
%ADD11C,0.300000*%
%ADD12C,0.153000*%
%ADD13C,0.120000*%
G04 APERTURE END LIST*
D10*
D11*
X12471428Y-5628571D02*
X12471428Y-4128571D01*
X12471428Y-4842857D02*
X11614285Y-4842857D01*
X11614285Y-5628571D02*
X11614285Y-4128571D01*
X11114285Y-4128571D02*
X10614285Y-5628571D01*
X10114285Y-4128571D01*
X21114286Y-33757143D02*
X20900000Y-33828571D01*
X20542857Y-33828571D01*
X20400000Y-33757143D01*
X20328571Y-33685714D01*
X20257143Y-33542857D01*
X20257143Y-33400000D01*
X20328571Y-33257143D01*
X20400000Y-33185714D01*
X20542857Y-33114286D01*
X20828571Y-33042857D01*
X20971429Y-32971429D01*
X21042857Y-32900000D01*
X21114286Y-32757143D01*
X21114286Y-32614286D01*
X21042857Y-32471429D01*
X20971429Y-32400000D01*
X20828571Y-32328571D01*
X20471429Y-32328571D01*
X20257143Y-32400000D01*
X19828572Y-32328571D02*
X18971429Y-32328571D01*
X19400000Y-33828571D02*
X19400000Y-32328571D01*
X18185715Y-32328571D02*
X17900001Y-32328571D01*
X17757143Y-32400000D01*
X17614286Y-32542857D01*
X17542858Y-32828571D01*
X17542858Y-33328571D01*
X17614286Y-33614286D01*
X17757143Y-33757143D01*
X17900001Y-33828571D01*
X18185715Y-33828571D01*
X18328572Y-33757143D01*
X18471429Y-33614286D01*
X18542858Y-33328571D01*
X18542858Y-32828571D01*
X18471429Y-32542857D01*
X18328572Y-32400000D01*
X18185715Y-32328571D01*
X16042857Y-33828571D02*
X16542857Y-33114286D01*
X16900000Y-33828571D02*
X16900000Y-32328571D01*
X16328572Y-32328571D01*
X16185714Y-32400000D01*
X16114286Y-32471429D01*
X16042857Y-32614286D01*
X16042857Y-32828571D01*
X16114286Y-32971429D01*
X16185714Y-33042857D01*
X16328572Y-33114286D01*
X16900000Y-33114286D01*
X15400000Y-33042857D02*
X14900000Y-33042857D01*
X14685714Y-33828571D02*
X15400000Y-33828571D01*
X15400000Y-32328571D01*
X14685714Y-32328571D01*
X19700000Y-34928571D02*
X19200000Y-36428571D01*
X18700000Y-34928571D01*
X18200000Y-36428571D02*
X18200000Y-34928571D01*
X17842857Y-34928571D01*
X17628572Y-35000000D01*
X17485714Y-35142857D01*
X17414286Y-35285714D01*
X17342857Y-35571429D01*
X17342857Y-35785714D01*
X17414286Y-36071429D01*
X17485714Y-36214286D01*
X17628572Y-36357143D01*
X17842857Y-36428571D01*
X18200000Y-36428571D01*
X15842857Y-36285714D02*
X15914286Y-36357143D01*
X16128572Y-36428571D01*
X16271429Y-36428571D01*
X16485714Y-36357143D01*
X16628572Y-36214286D01*
X16700000Y-36071429D01*
X16771429Y-35785714D01*
X16771429Y-35571429D01*
X16700000Y-35285714D01*
X16628572Y-35142857D01*
X16485714Y-35000000D01*
X16271429Y-34928571D01*
X16128572Y-34928571D01*
X15914286Y-35000000D01*
X15842857Y-35071429D01*
X21564286Y-38878571D02*
X21564286Y-37378571D01*
X20992858Y-37378571D01*
X20850000Y-37450000D01*
X20778572Y-37521429D01*
X20707143Y-37664286D01*
X20707143Y-37878571D01*
X20778572Y-38021429D01*
X20850000Y-38092857D01*
X20992858Y-38164286D01*
X21564286Y-38164286D01*
X20207143Y-37378571D02*
X19850000Y-38878571D01*
X19564286Y-37807143D01*
X19278572Y-38878571D01*
X18921429Y-37378571D01*
X17492857Y-38878571D02*
X17992857Y-38164286D01*
X18350000Y-38878571D02*
X18350000Y-37378571D01*
X17778572Y-37378571D01*
X17635714Y-37450000D01*
X17564286Y-37521429D01*
X17492857Y-37664286D01*
X17492857Y-37878571D01*
X17564286Y-38021429D01*
X17635714Y-38092857D01*
X17778572Y-38164286D01*
X18350000Y-38164286D01*
X16850000Y-38092857D02*
X16350000Y-38092857D01*
X16135714Y-38878571D02*
X16850000Y-38878571D01*
X16850000Y-37378571D01*
X16135714Y-37378571D01*
X15492857Y-38878571D02*
X15492857Y-37378571D01*
X14635714Y-38878571D01*
X14635714Y-37378571D01*
X19042857Y-40150000D02*
X19185714Y-40078571D01*
X19400000Y-40078571D01*
X19614285Y-40150000D01*
X19757143Y-40292857D01*
X19828571Y-40435714D01*
X19900000Y-40721429D01*
X19900000Y-40935714D01*
X19828571Y-41221429D01*
X19757143Y-41364286D01*
X19614285Y-41507143D01*
X19400000Y-41578571D01*
X19257143Y-41578571D01*
X19042857Y-41507143D01*
X18971428Y-41435714D01*
X18971428Y-40935714D01*
X19257143Y-40935714D01*
X18328571Y-41578571D02*
X18328571Y-40078571D01*
X17471428Y-41578571D01*
X17471428Y-40078571D01*
X16757142Y-41578571D02*
X16757142Y-40078571D01*
X16399999Y-40078571D01*
X16185714Y-40150000D01*
X16042856Y-40292857D01*
X15971428Y-40435714D01*
X15899999Y-40721429D01*
X15899999Y-40935714D01*
X15971428Y-41221429D01*
X16042856Y-41364286D01*
X16185714Y-41507143D01*
X16399999Y-41578571D01*
X16757142Y-41578571D01*
X20028571Y-43957143D02*
X19814285Y-44028571D01*
X19457142Y-44028571D01*
X19314285Y-43957143D01*
X19242856Y-43885714D01*
X19171428Y-43742857D01*
X19171428Y-43600000D01*
X19242856Y-43457143D01*
X19314285Y-43385714D01*
X19457142Y-43314286D01*
X19742856Y-43242857D01*
X19885714Y-43171429D01*
X19957142Y-43100000D01*
X20028571Y-42957143D01*
X20028571Y-42814286D01*
X19957142Y-42671429D01*
X19885714Y-42600000D01*
X19742856Y-42528571D01*
X19385714Y-42528571D01*
X19171428Y-42600000D01*
X17671428Y-43885714D02*
X17742857Y-43957143D01*
X17957143Y-44028571D01*
X18100000Y-44028571D01*
X18314285Y-43957143D01*
X18457143Y-43814286D01*
X18528571Y-43671429D01*
X18600000Y-43385714D01*
X18600000Y-43171429D01*
X18528571Y-42885714D01*
X18457143Y-42742857D01*
X18314285Y-42600000D01*
X18100000Y-42528571D01*
X17957143Y-42528571D01*
X17742857Y-42600000D01*
X17671428Y-42671429D01*
X17028571Y-44028571D02*
X17028571Y-42528571D01*
X16171428Y-44028571D02*
X16814285Y-43171429D01*
X16171428Y-42528571D02*
X17028571Y-43385714D01*
X20357143Y-46378571D02*
X20357143Y-44878571D01*
X19857143Y-45950000D01*
X19357143Y-44878571D01*
X19357143Y-46378571D01*
X18357143Y-44878571D02*
X18071429Y-44878571D01*
X17928571Y-44950000D01*
X17785714Y-45092857D01*
X17714286Y-45378571D01*
X17714286Y-45878571D01*
X17785714Y-46164286D01*
X17928571Y-46307143D01*
X18071429Y-46378571D01*
X18357143Y-46378571D01*
X18500000Y-46307143D01*
X18642857Y-46164286D01*
X18714286Y-45878571D01*
X18714286Y-45378571D01*
X18642857Y-45092857D01*
X18500000Y-44950000D01*
X18357143Y-44878571D01*
X17142857Y-46307143D02*
X16928571Y-46378571D01*
X16571428Y-46378571D01*
X16428571Y-46307143D01*
X16357142Y-46235714D01*
X16285714Y-46092857D01*
X16285714Y-45950000D01*
X16357142Y-45807143D01*
X16428571Y-45735714D01*
X16571428Y-45664286D01*
X16857142Y-45592857D01*
X17000000Y-45521429D01*
X17071428Y-45450000D01*
X17142857Y-45307143D01*
X17142857Y-45164286D01*
X17071428Y-45021429D01*
X17000000Y-44950000D01*
X16857142Y-44878571D01*
X16500000Y-44878571D01*
X16285714Y-44950000D01*
X15642857Y-46378571D02*
X15642857Y-44878571D01*
D12*
X20860000Y-870000D02*
X21320000Y-2720000D01*
X21190000Y-910000D02*
X21280000Y-1310000D01*
X20176000Y-1969000D02*
X21390000Y-4090000D01*
X21250000Y-3710000D02*
X20890000Y-2590000D01*
X20580000Y-940000D02*
X21110000Y-2620000D01*
X20370000Y-2040000D02*
X20810000Y-3010000D01*
X20762000Y-2420500D02*
X21146000Y-3481200D01*
X21416000Y-4089200D02*
X20979000Y-2606900D01*
X21240000Y-1030000D02*
X21310000Y-830000D01*
X21110000Y-790000D02*
X21154000Y-1134200D01*
X21558000Y-752400D02*
X19822000Y-811500D01*
X20979000Y-2606900D02*
X21564000Y-2872600D01*
X21455000Y-2687700D02*
X20762000Y-2420500D01*
X20250000Y-900000D02*
X20590000Y-1690000D01*
X20080000Y-850000D02*
X19920000Y-840000D01*
X19822000Y-811500D02*
X20932000Y-2152100D01*
X21564000Y-2872600D02*
X21310000Y-1030000D01*
X20932000Y-2152100D02*
X20176000Y-1969000D01*
X21280000Y-1250000D02*
X21440000Y-2380000D01*
X21030000Y-910000D02*
X20080000Y-850000D01*
X21230000Y-870000D02*
X21240000Y-1030000D01*
X21399000Y-827600D02*
X21146000Y-958800D01*
X20680000Y-2110000D02*
X20880000Y-2540000D01*
X21480000Y-2770000D02*
X20870000Y-2510000D01*
X21154000Y-1134200D02*
X21455000Y-2687700D01*
X21310000Y-1030000D02*
X21558000Y-752400D01*
X14200000Y-3250000D02*
X13780000Y-3110000D01*
X17120000Y-3650000D02*
X17020000Y-3680000D01*
X15250000Y-2650000D02*
X15460000Y-2330000D01*
X16510000Y-2270000D02*
X16260000Y-2430000D01*
X15430000Y-2370000D02*
X15350000Y-2770000D01*
X16010000Y-2960000D02*
X16150000Y-2810000D01*
X15960000Y-3020000D02*
X16140000Y-3010000D01*
X15330000Y-2400000D02*
X15510000Y-2250000D01*
X15960000Y-3070000D02*
X15850000Y-2960000D01*
X17300000Y-1400000D02*
X17090000Y-1220000D01*
X17520000Y-1210000D02*
X17330000Y-1310000D01*
X17000000Y-3490000D02*
X16890000Y-3280000D01*
X16540000Y-1740000D02*
X16740000Y-2180000D01*
X16010000Y-2610000D02*
X16200000Y-2440000D01*
X15410000Y-2850000D02*
X15810000Y-2840000D01*
X16270000Y-2510000D02*
X16660000Y-2220000D01*
X16500000Y-2650000D02*
X16210000Y-2710000D01*
X14600000Y-2980000D02*
X14300000Y-3250000D01*
X17050000Y-1390000D02*
X17120000Y-1380000D01*
X15810000Y-2460000D02*
X16460000Y-2400000D01*
X16660000Y-2780000D02*
X16120000Y-2870000D01*
X15510000Y-3560000D02*
X15320000Y-2940000D01*
X16320000Y-3120000D02*
X16070000Y-3020000D01*
X14550000Y-2980000D02*
X14120000Y-3090000D01*
X14840000Y-2410000D02*
X14720000Y-2360000D01*
X17070000Y-3410000D02*
X17350000Y-3470000D01*
X15880000Y-2610000D02*
X16060000Y-2530000D01*
X15580000Y-2960000D02*
X15660000Y-3520000D01*
X14910000Y-2980000D02*
X15000000Y-2750000D01*
X16660000Y-2160000D02*
X16490000Y-2470000D01*
X17140000Y-3530000D02*
X17120000Y-3650000D01*
X16540000Y-2170000D02*
X16380000Y-1800000D01*
X15220000Y-2960000D02*
X15060000Y-3090000D01*
X15730000Y-2420000D02*
X15930000Y-2840000D01*
X14200000Y-3140000D02*
X14560000Y-2980000D01*
X14300000Y-3250000D02*
X14250000Y-3450000D01*
X16030000Y-2680000D02*
X15760000Y-2800000D01*
X15830000Y-2920000D02*
X15910000Y-2930000D01*
X15160000Y-2660000D02*
X15490000Y-2140000D01*
X16730000Y-2160000D02*
X16670000Y-2790000D01*
X16830000Y-1630000D02*
X17300000Y-1400000D01*
X17090000Y-1220000D02*
X16810000Y-1600000D01*
X17020000Y-3680000D02*
X17000000Y-3490000D01*
X17370000Y-3590000D02*
X17140000Y-3530000D01*
X15100000Y-3080000D02*
X14930000Y-2960000D01*
X14870000Y-2510000D02*
X15400000Y-2470000D01*
X16750000Y-3130000D02*
X17070000Y-3410000D01*
X15920000Y-1700000D02*
X16390000Y-1750000D01*
X17350000Y-3470000D02*
X17370000Y-3590000D01*
X16660000Y-2220000D02*
X16390000Y-1760000D01*
X15660000Y-3520000D02*
X15580000Y-2960000D01*
X16490000Y-2190000D02*
X16400000Y-2480000D01*
X17330000Y-1310000D02*
X17120000Y-1050000D01*
X15930000Y-3560000D02*
X15700000Y-3570000D01*
X15110000Y-2870000D02*
X15230000Y-2960000D01*
X17190000Y-1190000D02*
X17170000Y-1000000D01*
X15270000Y-3010000D02*
X14990000Y-2830000D01*
X15700000Y-3570000D02*
X15500000Y-3520000D01*
X16530000Y-1730000D02*
X16220000Y-1500000D01*
X16390000Y-1760000D02*
X16110000Y-1570000D01*
X16210000Y-2890000D02*
X16360000Y-3030000D01*
X15790000Y-3000000D02*
X15830000Y-3510000D01*
X15820000Y-2870000D02*
X15230000Y-2730000D01*
X15730000Y-2950000D02*
X15440000Y-2970000D01*
X14250000Y-3450000D02*
X14110000Y-3340000D01*
X15370000Y-1870000D02*
X15910000Y-1700000D01*
X15820000Y-1800000D02*
X15580000Y-1930000D01*
X14550000Y-2510000D02*
X14890000Y-2730000D01*
X14690000Y-2290000D02*
X14710000Y-2390000D01*
X15570000Y-1950000D02*
X15420000Y-1750000D01*
X14610000Y-1380000D02*
X14320000Y-1050000D01*
X14250000Y-1030000D02*
X13930000Y-1000000D01*
X14320000Y-1050000D02*
X14370000Y-840000D01*
X14250000Y-1160000D02*
X14480000Y-1310000D01*
X14610000Y-1890000D02*
X15000000Y-1480000D01*
X15130000Y-1610000D02*
X16080000Y-1630000D01*
X15700000Y-2100000D02*
X15610000Y-2210000D01*
X15610000Y-2210000D02*
X15750000Y-2390000D01*
X15150000Y-1570000D02*
X15470000Y-1740000D01*
X14550000Y-2480000D02*
X14610000Y-1910000D01*
X14370000Y-840000D02*
X14210000Y-830000D01*
X16160000Y-1620000D02*
X15700000Y-2100000D01*
X15150000Y-2600000D02*
X14750000Y-2240000D01*
X15040000Y-1470000D02*
X16210000Y-1500000D01*
X15910000Y-1700000D02*
X15990000Y-1810000D01*
X16080000Y-1630000D02*
X15990000Y-1760000D01*
X15840000Y-1690000D02*
X15370000Y-1870000D01*
X16110000Y-1570000D02*
X15050000Y-1580000D01*
X14210000Y-830000D02*
X14250000Y-1030000D01*
X15530000Y-2170000D02*
X15040000Y-1630000D01*
X13970000Y-1160000D02*
X14250000Y-1160000D01*
X15240000Y-1810000D02*
X15130000Y-1740000D01*
X14670000Y-2000000D02*
X14630000Y-2510000D01*
X15050000Y-1580000D02*
X14670000Y-2000000D01*
X13930000Y-1000000D02*
X13970000Y-1160000D01*
X14910000Y-1780000D02*
X14670000Y-2120000D01*
X13780000Y-3110000D02*
X13980000Y-3030000D01*
X13980000Y-3030000D02*
X14200000Y-3140000D01*
X14110000Y-3340000D02*
X14200000Y-3250000D01*
X17630000Y-1310000D02*
X17520000Y-1210000D01*
X17320000Y-1390000D02*
X17630000Y-1310000D01*
X16000000Y-3090000D02*
X15990000Y-3570000D01*
D13*
X7920000Y-10480000D02*
X2720000Y-10480000D01*
X2720000Y-14120000D02*
X7920000Y-14120000D01*
X7970000Y-14500000D02*
X2770000Y-14500000D01*
X2770000Y-18140000D02*
X7970000Y-18140000D01*
X9760000Y-670000D02*
X9760000Y-3330000D01*
X9760000Y-3330000D02*
X7100000Y-3330000D01*
X7100000Y-3330000D02*
X7100000Y-670000D01*
X7100000Y-670000D02*
X9760000Y-670000D01*
X7100000Y-1620000D02*
X1100000Y-1620000D01*
X1100000Y-1620000D02*
X1100000Y-2380000D01*
X1100000Y-2380000D02*
X7100000Y-2380000D01*
X7100000Y-1680000D02*
X1100000Y-1680000D01*
X7100000Y-1800000D02*
X1100000Y-1800000D01*
X7100000Y-1920000D02*
X1100000Y-1920000D01*
X7100000Y-2040000D02*
X1100000Y-2040000D01*
X7100000Y-2160000D02*
X1100000Y-2160000D01*
X7100000Y-2280000D02*
X1100000Y-2280000D01*
X10090000Y-1620000D02*
X9760000Y-1620000D01*
X10090000Y-2380000D02*
X9760000Y-2380000D01*
X12470000Y-2000000D02*
X12470000Y-730000D01*
X12470000Y-730000D02*
X11200000Y-730000D01*
X24250000Y-31730000D02*
X22980000Y-31730000D01*
X22980000Y-31730000D02*
X22980000Y-33000000D01*
X9660000Y-31670000D02*
X9660000Y-47030000D01*
X9660000Y-47030000D02*
X7000000Y-47030000D01*
X7000000Y-47030000D02*
X7000000Y-31670000D01*
X7000000Y-31670000D02*
X9660000Y-31670000D01*
X7000000Y-32620000D02*
X1000000Y-32620000D01*
X1000000Y-32620000D02*
X1000000Y-33380000D01*
X1000000Y-33380000D02*
X7000000Y-33380000D01*
X7000000Y-32680000D02*
X1000000Y-32680000D01*
X7000000Y-32800000D02*
X1000000Y-32800000D01*
X7000000Y-32920000D02*
X1000000Y-32920000D01*
X7000000Y-33040000D02*
X1000000Y-33040000D01*
X7000000Y-33160000D02*
X1000000Y-33160000D01*
X7000000Y-33280000D02*
X1000000Y-33280000D01*
X9990000Y-32620000D02*
X9660000Y-32620000D01*
X9990000Y-33380000D02*
X9660000Y-33380000D01*
X9660000Y-34270000D02*
X7000000Y-34270000D01*
X7000000Y-35160000D02*
X1000000Y-35160000D01*
X1000000Y-35160000D02*
X1000000Y-35920000D01*
X1000000Y-35920000D02*
X7000000Y-35920000D01*
X10057071Y-35160000D02*
X9660000Y-35160000D01*
X10057071Y-35920000D02*
X9660000Y-35920000D01*
X9660000Y-36810000D02*
X7000000Y-36810000D01*
X7000000Y-37700000D02*
X1000000Y-37700000D01*
X1000000Y-37700000D02*
X1000000Y-38460000D01*
X1000000Y-38460000D02*
X7000000Y-38460000D01*
X10057071Y-37700000D02*
X9660000Y-37700000D01*
X10057071Y-38460000D02*
X9660000Y-38460000D01*
X9660000Y-39350000D02*
X7000000Y-39350000D01*
X7000000Y-40240000D02*
X1000000Y-40240000D01*
X1000000Y-40240000D02*
X1000000Y-41000000D01*
X1000000Y-41000000D02*
X7000000Y-41000000D01*
X10057071Y-40240000D02*
X9660000Y-40240000D01*
X10057071Y-41000000D02*
X9660000Y-41000000D01*
X9660000Y-41890000D02*
X7000000Y-41890000D01*
X7000000Y-42780000D02*
X1000000Y-42780000D01*
X1000000Y-42780000D02*
X1000000Y-43540000D01*
X1000000Y-43540000D02*
X7000000Y-43540000D01*
X10057071Y-42780000D02*
X9660000Y-42780000D01*
X10057071Y-43540000D02*
X9660000Y-43540000D01*
X9660000Y-44430000D02*
X7000000Y-44430000D01*
X7000000Y-45320000D02*
X1000000Y-45320000D01*
X1000000Y-45320000D02*
X1000000Y-46080000D01*
X1000000Y-46080000D02*
X7000000Y-46080000D01*
X10057071Y-45320000D02*
X9660000Y-45320000D01*
X10057071Y-46080000D02*
X9660000Y-46080000D01*
X12370000Y-33000000D02*
X12370000Y-31730000D01*
X12370000Y-31730000D02*
X11100000Y-31730000D01*
X24250000Y-730000D02*
X22980000Y-730000D01*
X22980000Y-730000D02*
X22980000Y-2000000D01*
D12*
X10334524Y-12058333D02*
X9929762Y-11775000D01*
X10334524Y-11572619D02*
X9484524Y-11572619D01*
X9484524Y-11896428D01*
X9525000Y-11977381D01*
X9565476Y-12017857D01*
X9646429Y-12058333D01*
X9767857Y-12058333D01*
X9848810Y-12017857D01*
X9889286Y-11977381D01*
X9929762Y-11896428D01*
X9929762Y-11572619D01*
X9484524Y-12341667D02*
X9484524Y-12908333D01*
X10334524Y-12544048D01*
X10434524Y-16558333D02*
X10029762Y-16275000D01*
X10434524Y-16072619D02*
X9584524Y-16072619D01*
X9584524Y-16396428D01*
X9625000Y-16477381D01*
X9665476Y-16517857D01*
X9746429Y-16558333D01*
X9867857Y-16558333D01*
X9948810Y-16517857D01*
X9989286Y-16477381D01*
X10029762Y-16396428D01*
X10029762Y-16072619D01*
X9584524Y-17286905D02*
X9584524Y-17125000D01*
X9625000Y-17044048D01*
X9665476Y-17003571D01*
X9786905Y-16922619D01*
X9948810Y-16882143D01*
X10272619Y-16882143D01*
X10353571Y-16922619D01*
X10394048Y-16963095D01*
X10434524Y-17044048D01*
X10434524Y-17205952D01*
X10394048Y-17286905D01*
X10353571Y-17327381D01*
X10272619Y-17367857D01*
X10070238Y-17367857D01*
X9989286Y-17327381D01*
X9948810Y-17286905D01*
X9908333Y-17205952D01*
X9908333Y-17044048D01*
X9948810Y-16963095D01*
X9989286Y-16922619D01*
X10070238Y-16882143D01*
M02*
