%TF.GenerationSoftware,KiCad,Pcbnew,4.0.7*%
%TF.CreationDate,2017-11-16T17:09:38+08:00*%
%TF.ProjectId,nixie_tube,6E697869655F747562652E6B69636164,rev?*%
%TF.FileFunction,Soldermask,Top*%
%FSLAX46Y46*%
G04 Gerber Fmt 4.6, Leading zero omitted, Abs format (unit mm)*
G04 Created by KiCad (PCBNEW 4.0.7) date 11/16/17 17:09:38*
%MOMM*%
%LPD*%
G01*
G04 APERTURE LIST*
%ADD10C,0.100000*%
%ADD11R,2.051000X3.448000*%
%ADD12R,6.496000X6.496000*%
%ADD13C,3.900000*%
%ADD14R,2.000000X2.000000*%
%ADD15C,2.000000*%
%ADD16R,1.400000X4.200000*%
%ADD17R,2.100000X2.100000*%
%ADD18O,2.100000X2.100000*%
%ADD19R,3.800000X1.800000*%
%ADD20R,0.900000X1.600000*%
%ADD21C,1.700000*%
%ADD22R,1.000000X1.950000*%
%ADD23R,3.300000X5.800000*%
%ADD24R,1.200000X1.300000*%
%ADD25R,1.300000X1.600000*%
%ADD26R,2.900000X2.200000*%
%ADD27R,1.150000X1.200000*%
%ADD28R,1.300000X0.900000*%
%ADD29R,1.300000X1.200000*%
%ADD30R,1.200000X1.400000*%
G04 APERTURE END LIST*
D10*
D11*
X3128000Y-37200000D03*
D12*
X5414000Y-30850000D03*
D11*
X7700000Y-37200000D03*
D13*
X22780000Y-51120000D03*
X3800000Y-52800000D03*
X22200000Y-7500000D03*
X3500000Y-6900000D03*
D14*
X15260000Y-11095000D03*
D15*
X15260000Y-13595000D03*
D16*
X13010000Y-12220000D03*
X17510000Y-12220000D03*
D17*
X11100000Y-45700000D03*
D18*
X11100000Y-43160000D03*
X11100000Y-40620000D03*
X11100000Y-38080000D03*
X11100000Y-35540000D03*
X11100000Y-33000000D03*
D17*
X24250000Y-45700000D03*
D18*
X24250000Y-43160000D03*
X24250000Y-40620000D03*
X24250000Y-38080000D03*
X24250000Y-35540000D03*
X24250000Y-33000000D03*
D19*
X2520000Y-14700000D03*
X8720000Y-14700000D03*
D20*
X16130000Y-48310000D03*
X18130000Y-48310000D03*
X14130000Y-48310000D03*
D21*
X14130000Y-54310000D03*
X18130000Y-54310000D03*
D22*
X2995000Y-25950000D03*
X4265000Y-25950000D03*
X5535000Y-25950000D03*
X6805000Y-25950000D03*
X6805000Y-20550000D03*
X5535000Y-20550000D03*
X4265000Y-20550000D03*
X2995000Y-20550000D03*
D23*
X20960000Y-24550000D03*
X11000000Y-24550000D03*
D24*
X7000000Y-42000000D03*
X8900000Y-42000000D03*
X7950000Y-40000000D03*
D25*
X16050000Y-33900000D03*
X19350000Y-33900000D03*
D26*
X16050000Y-38700000D03*
X20050000Y-38700000D03*
D17*
X11200000Y-2000000D03*
X24250000Y-2000000D03*
D27*
X3150000Y-44700000D03*
X3150000Y-43200000D03*
X1100000Y-44650000D03*
X1100000Y-43150000D03*
D28*
X1200000Y-39925000D03*
X1200000Y-41425000D03*
X5200000Y-41425000D03*
X5200000Y-39925000D03*
X3200000Y-39925000D03*
X3200000Y-41425000D03*
D29*
X3550000Y-48500000D03*
X3550000Y-46600000D03*
X1550000Y-47550000D03*
D28*
X5200000Y-44950000D03*
X5200000Y-43450000D03*
X8800000Y-43450000D03*
X8800000Y-44950000D03*
D24*
X6150000Y-48550000D03*
X8050000Y-48550000D03*
X7100000Y-46550000D03*
D30*
X8050000Y-48000000D03*
M02*
