M48
;DRILL file {KiCad 4.0.7} date 11/16/17 21:22:25
;FORMAT={-:-/ absolute / metric / decimal}
FMAT,2
METRIC,TZ
T1C0.300
T2C0.400
T3C0.800
T4C1.000
T5C3.150
%
G90
G05
M71
T1
X167.625Y-95.85
X168.12Y-122.26
X168.75Y-120.3
X170.391Y-106.93
X170.65Y-122.35
X170.661Y-115.103
X170.7Y-120.9
X170.72Y-117.216
X170.996Y-107.175
X171.25Y-102.
X171.266Y-116.219
X171.548Y-118.37
X171.796Y-115.118
X171.895Y-114.265
X171.95Y-122.05
X172.706Y-121.144
X172.75Y-119.
X173.28Y-101.75
X173.3Y-97.51
X173.592Y-125.665
X174.075Y-123.647
X179.55Y-123.625
X180.22Y-82.97
X180.6Y-115.05
X180.725Y-82.465
X181.39Y-81.8
X182.425Y-81.8
X182.53Y-124.55
X184.6Y-115.05
X187.125Y-81.8
X187.85Y-81.8
X188.26Y-123.59
X188.375Y-82.6
X188.7Y-81.8
X189.425Y-115.05
T2
X169.23Y-98.51
X175.298Y-119.711
X179.08Y-98.65
X179.91Y-118.89
X182.53Y-126.4
X183.841Y-110.449
X183.85Y-112.25
T3
X181.76Y-90.895
X181.76Y-93.395
T4
X177.6Y-112.8
X177.6Y-115.34
X177.6Y-117.88
X177.6Y-120.42
X177.6Y-122.96
X177.6Y-125.5
X177.7Y-81.8
X190.75Y-81.8
X190.75Y-112.8
X190.75Y-115.34
X190.75Y-117.88
X190.75Y-120.42
X190.75Y-122.96
X190.75Y-125.5
T5
X170.Y-86.7
X170.3Y-132.6
X188.7Y-87.3
X189.28Y-130.92
T0
M30
