%TF.GenerationSoftware,KiCad,Pcbnew,4.0.7*%
%TF.CreationDate,2017-11-16T17:09:38+08:00*%
%TF.ProjectId,nixie_tube,6E697869655F747562652E6B69636164,rev?*%
%TF.FileFunction,Other,ECO1*%
%FSLAX46Y46*%
G04 Gerber Fmt 4.6, Leading zero omitted, Abs format (unit mm)*
G04 Created by KiCad (PCBNEW 4.0.7) date 11/16/17 17:09:38*
%MOMM*%
%LPD*%
G01*
G04 APERTURE LIST*
%ADD10C,0.100000*%
%ADD11C,0.300000*%
G04 APERTURE END LIST*
D10*
D11*
X6660715Y-59471429D02*
X6732144Y-59400000D01*
X6875001Y-59328571D01*
X7232144Y-59328571D01*
X7375001Y-59400000D01*
X7446430Y-59471429D01*
X7517858Y-59614286D01*
X7517858Y-59757143D01*
X7446430Y-59971429D01*
X6589287Y-60828571D01*
X7517858Y-60828571D01*
X8875001Y-59328571D02*
X8160715Y-59328571D01*
X8089286Y-60042857D01*
X8160715Y-59971429D01*
X8303572Y-59900000D01*
X8660715Y-59900000D01*
X8803572Y-59971429D01*
X8875001Y-60042857D01*
X8946429Y-60185714D01*
X8946429Y-60542857D01*
X8875001Y-60685714D01*
X8803572Y-60757143D01*
X8660715Y-60828571D01*
X8303572Y-60828571D01*
X8160715Y-60757143D01*
X8089286Y-60685714D01*
X9589286Y-60685714D02*
X9660714Y-60757143D01*
X9589286Y-60828571D01*
X9517857Y-60757143D01*
X9589286Y-60685714D01*
X9589286Y-60828571D01*
X10160715Y-59328571D02*
X11160715Y-59328571D01*
X10517858Y-60828571D01*
X12446429Y-59328571D02*
X11732143Y-59328571D01*
X11660714Y-60042857D01*
X11732143Y-59971429D01*
X11875000Y-59900000D01*
X12232143Y-59900000D01*
X12375000Y-59971429D01*
X12446429Y-60042857D01*
X12517857Y-60185714D01*
X12517857Y-60542857D01*
X12446429Y-60685714D01*
X12375000Y-60757143D01*
X12232143Y-60828571D01*
X11875000Y-60828571D01*
X11732143Y-60757143D01*
X11660714Y-60685714D01*
X13446428Y-59328571D02*
X13589285Y-59328571D01*
X13732142Y-59400000D01*
X13803571Y-59471429D01*
X13875000Y-59614286D01*
X13946428Y-59900000D01*
X13946428Y-60257143D01*
X13875000Y-60542857D01*
X13803571Y-60685714D01*
X13732142Y-60757143D01*
X13589285Y-60828571D01*
X13446428Y-60828571D01*
X13303571Y-60757143D01*
X13232142Y-60685714D01*
X13160714Y-60542857D01*
X13089285Y-60257143D01*
X13089285Y-59900000D01*
X13160714Y-59614286D01*
X13232142Y-59471429D01*
X13303571Y-59400000D01*
X13446428Y-59328571D01*
X15732142Y-60828571D02*
X15732142Y-59828571D01*
X15732142Y-59971429D02*
X15803570Y-59900000D01*
X15946428Y-59828571D01*
X16160713Y-59828571D01*
X16303570Y-59900000D01*
X16374999Y-60042857D01*
X16374999Y-60828571D01*
X16374999Y-60042857D02*
X16446428Y-59900000D01*
X16589285Y-59828571D01*
X16803570Y-59828571D01*
X16946428Y-59900000D01*
X17017856Y-60042857D01*
X17017856Y-60828571D01*
X17732142Y-60828571D02*
X17732142Y-59828571D01*
X17732142Y-59971429D02*
X17803570Y-59900000D01*
X17946428Y-59828571D01*
X18160713Y-59828571D01*
X18303570Y-59900000D01*
X18374999Y-60042857D01*
X18374999Y-60828571D01*
X18374999Y-60042857D02*
X18446428Y-59900000D01*
X18589285Y-59828571D01*
X18803570Y-59828571D01*
X18946428Y-59900000D01*
X19017856Y-60042857D01*
X19017856Y-60828571D01*
X0Y-58800000D02*
X25750000Y-58800000D01*
X0Y-56300000D02*
X0Y-61500000D01*
X25750000Y-56300000D02*
X25750000Y-61500000D01*
X25750000Y-58800000D02*
X24623496Y-59386421D01*
X25750000Y-58800000D02*
X24623496Y-58213579D01*
X0Y-58800000D02*
X1126504Y-59386421D01*
X0Y-58800000D02*
X1126504Y-58213579D01*
X27728571Y-23785713D02*
X27728571Y-22857142D01*
X28300000Y-23357142D01*
X28300000Y-23142856D01*
X28371429Y-22999999D01*
X28442857Y-22928570D01*
X28585714Y-22857142D01*
X28942857Y-22857142D01*
X29085714Y-22928570D01*
X29157143Y-22999999D01*
X29228571Y-23142856D01*
X29228571Y-23571428D01*
X29157143Y-23714285D01*
X29085714Y-23785713D01*
X29228571Y-21428571D02*
X29228571Y-22285714D01*
X29228571Y-21857142D02*
X27728571Y-21857142D01*
X27942857Y-21999999D01*
X28085714Y-22142857D01*
X28157143Y-22285714D01*
X29085714Y-20785714D02*
X29157143Y-20714286D01*
X29228571Y-20785714D01*
X29157143Y-20857143D01*
X29085714Y-20785714D01*
X29228571Y-20785714D01*
X27728571Y-19785714D02*
X27728571Y-19642857D01*
X27800000Y-19500000D01*
X27871429Y-19428571D01*
X28014286Y-19357142D01*
X28300000Y-19285714D01*
X28657143Y-19285714D01*
X28942857Y-19357142D01*
X29085714Y-19428571D01*
X29157143Y-19500000D01*
X29228571Y-19642857D01*
X29228571Y-19785714D01*
X29157143Y-19928571D01*
X29085714Y-20000000D01*
X28942857Y-20071428D01*
X28657143Y-20142857D01*
X28300000Y-20142857D01*
X28014286Y-20071428D01*
X27871429Y-20000000D01*
X27800000Y-19928571D01*
X27728571Y-19785714D01*
X27728571Y-18357143D02*
X27728571Y-18214286D01*
X27800000Y-18071429D01*
X27871429Y-18000000D01*
X28014286Y-17928571D01*
X28300000Y-17857143D01*
X28657143Y-17857143D01*
X28942857Y-17928571D01*
X29085714Y-18000000D01*
X29157143Y-18071429D01*
X29228571Y-18214286D01*
X29228571Y-18357143D01*
X29157143Y-18500000D01*
X29085714Y-18571429D01*
X28942857Y-18642857D01*
X28657143Y-18714286D01*
X28300000Y-18714286D01*
X28014286Y-18642857D01*
X27871429Y-18571429D01*
X27800000Y-18500000D01*
X27728571Y-18357143D01*
X27728571Y-16928572D02*
X27728571Y-16785715D01*
X27800000Y-16642858D01*
X27871429Y-16571429D01*
X28014286Y-16500000D01*
X28300000Y-16428572D01*
X28657143Y-16428572D01*
X28942857Y-16500000D01*
X29085714Y-16571429D01*
X29157143Y-16642858D01*
X29228571Y-16785715D01*
X29228571Y-16928572D01*
X29157143Y-17071429D01*
X29085714Y-17142858D01*
X28942857Y-17214286D01*
X28657143Y-17285715D01*
X28300000Y-17285715D01*
X28014286Y-17214286D01*
X27871429Y-17142858D01*
X27800000Y-17071429D01*
X27728571Y-16928572D01*
X29228571Y-14642858D02*
X28228571Y-14642858D01*
X28371429Y-14642858D02*
X28300000Y-14571430D01*
X28228571Y-14428572D01*
X28228571Y-14214287D01*
X28300000Y-14071430D01*
X28442857Y-14000001D01*
X29228571Y-14000001D01*
X28442857Y-14000001D02*
X28300000Y-13928572D01*
X28228571Y-13785715D01*
X28228571Y-13571430D01*
X28300000Y-13428572D01*
X28442857Y-13357144D01*
X29228571Y-13357144D01*
X29228571Y-12642858D02*
X28228571Y-12642858D01*
X28371429Y-12642858D02*
X28300000Y-12571430D01*
X28228571Y-12428572D01*
X28228571Y-12214287D01*
X28300000Y-12071430D01*
X28442857Y-12000001D01*
X29228571Y-12000001D01*
X28442857Y-12000001D02*
X28300000Y-11928572D01*
X28228571Y-11785715D01*
X28228571Y-11571430D01*
X28300000Y-11428572D01*
X28442857Y-11357144D01*
X29228571Y-11357144D01*
X27200000Y-33000000D02*
X27200000Y-2000000D01*
X24750000Y-33000000D02*
X29900000Y-33000000D01*
X24750000Y-2000000D02*
X29900000Y-2000000D01*
X27200000Y-2000000D02*
X27786421Y-3126504D01*
X27200000Y-2000000D02*
X26613579Y-3126504D01*
X27200000Y-33000000D02*
X27786421Y-31873496D01*
X27200000Y-33000000D02*
X26613579Y-31873496D01*
X-2578571Y-22721430D02*
X-2578571Y-22007144D01*
X-3292857Y-21935715D01*
X-3221429Y-22007144D01*
X-3150000Y-22150001D01*
X-3150000Y-22507144D01*
X-3221429Y-22650001D01*
X-3292857Y-22721430D01*
X-3435714Y-22792858D01*
X-3792857Y-22792858D01*
X-3935714Y-22721430D01*
X-4007143Y-22650001D01*
X-4078571Y-22507144D01*
X-4078571Y-22150001D01*
X-4007143Y-22007144D01*
X-3935714Y-21935715D01*
X-2578571Y-24078572D02*
X-2578571Y-23792858D01*
X-2650000Y-23650001D01*
X-2721429Y-23578572D01*
X-2935714Y-23435715D01*
X-3221429Y-23364286D01*
X-3792857Y-23364286D01*
X-3935714Y-23435715D01*
X-4007143Y-23507143D01*
X-4078571Y-23650001D01*
X-4078571Y-23935715D01*
X-4007143Y-24078572D01*
X-3935714Y-24150001D01*
X-3792857Y-24221429D01*
X-3435714Y-24221429D01*
X-3292857Y-24150001D01*
X-3221429Y-24078572D01*
X-3150000Y-23935715D01*
X-3150000Y-23650001D01*
X-3221429Y-23507143D01*
X-3292857Y-23435715D01*
X-3435714Y-23364286D01*
X-3935714Y-24864286D02*
X-4007143Y-24935714D01*
X-4078571Y-24864286D01*
X-4007143Y-24792857D01*
X-3935714Y-24864286D01*
X-4078571Y-24864286D01*
X-2578571Y-25435715D02*
X-2578571Y-26364286D01*
X-3150000Y-25864286D01*
X-3150000Y-26078572D01*
X-3221429Y-26221429D01*
X-3292857Y-26292858D01*
X-3435714Y-26364286D01*
X-3792857Y-26364286D01*
X-3935714Y-26292858D01*
X-4007143Y-26221429D01*
X-4078571Y-26078572D01*
X-4078571Y-25650000D01*
X-4007143Y-25507143D01*
X-3935714Y-25435715D01*
X-2578571Y-27292857D02*
X-2578571Y-27435714D01*
X-2650000Y-27578571D01*
X-2721429Y-27650000D01*
X-2864286Y-27721429D01*
X-3150000Y-27792857D01*
X-3507143Y-27792857D01*
X-3792857Y-27721429D01*
X-3935714Y-27650000D01*
X-4007143Y-27578571D01*
X-4078571Y-27435714D01*
X-4078571Y-27292857D01*
X-4007143Y-27150000D01*
X-3935714Y-27078571D01*
X-3792857Y-27007143D01*
X-3507143Y-26935714D01*
X-3150000Y-26935714D01*
X-2864286Y-27007143D01*
X-2721429Y-27078571D01*
X-2650000Y-27150000D01*
X-2578571Y-27292857D01*
X-2578571Y-28721428D02*
X-2578571Y-28864285D01*
X-2650000Y-29007142D01*
X-2721429Y-29078571D01*
X-2864286Y-29150000D01*
X-3150000Y-29221428D01*
X-3507143Y-29221428D01*
X-3792857Y-29150000D01*
X-3935714Y-29078571D01*
X-4007143Y-29007142D01*
X-4078571Y-28864285D01*
X-4078571Y-28721428D01*
X-4007143Y-28578571D01*
X-3935714Y-28507142D01*
X-3792857Y-28435714D01*
X-3507143Y-28364285D01*
X-3150000Y-28364285D01*
X-2864286Y-28435714D01*
X-2721429Y-28507142D01*
X-2650000Y-28578571D01*
X-2578571Y-28721428D01*
X-4078571Y-31007142D02*
X-3078571Y-31007142D01*
X-3221429Y-31007142D02*
X-3150000Y-31078570D01*
X-3078571Y-31221428D01*
X-3078571Y-31435713D01*
X-3150000Y-31578570D01*
X-3292857Y-31649999D01*
X-4078571Y-31649999D01*
X-3292857Y-31649999D02*
X-3150000Y-31721428D01*
X-3078571Y-31864285D01*
X-3078571Y-32078570D01*
X-3150000Y-32221428D01*
X-3292857Y-32292856D01*
X-4078571Y-32292856D01*
X-4078571Y-33007142D02*
X-3078571Y-33007142D01*
X-3221429Y-33007142D02*
X-3150000Y-33078570D01*
X-3078571Y-33221428D01*
X-3078571Y-33435713D01*
X-3150000Y-33578570D01*
X-3292857Y-33649999D01*
X-4078571Y-33649999D01*
X-3292857Y-33649999D02*
X-3150000Y-33721428D01*
X-3078571Y-33864285D01*
X-3078571Y-34078570D01*
X-3150000Y-34221428D01*
X-3292857Y-34292856D01*
X-4078571Y-34292856D01*
X-2050000Y0D02*
X-2050000Y-56300000D01*
X0Y0D02*
X-4750000Y0D01*
X0Y-56300000D02*
X-4750000Y-56300000D01*
X-2050000Y-56300000D02*
X-2636421Y-55173496D01*
X-2050000Y-56300000D02*
X-1463579Y-55173496D01*
X-2050000Y0D02*
X-2636421Y-1126504D01*
X-2050000Y0D02*
X-1463579Y-1126504D01*
M02*
