%TF.GenerationSoftware,KiCad,Pcbnew,4.0.7*%
%TF.CreationDate,2017-11-22T17:49:31+08:00*%
%TF.ProjectId,nixie_tube,6E697869655F747562652E6B69636164,rev?*%
%TF.FileFunction,Paste,Top*%
%FSLAX46Y46*%
G04 Gerber Fmt 4.6, Leading zero omitted, Abs format (unit mm)*
G04 Created by KiCad (PCBNEW 4.0.7) date 11/22/17 17:49:31*
%MOMM*%
%LPD*%
G01*
G04 APERTURE LIST*
%ADD10C,0.100000*%
%ADD11R,1.000000X3.800000*%
%ADD12R,1.651000X3.048000*%
%ADD13R,6.096000X6.096000*%
%ADD14R,3.400000X1.400000*%
%ADD15R,0.600000X1.550000*%
%ADD16R,2.900000X5.400000*%
%ADD17R,0.800000X0.900000*%
%ADD18R,0.900000X1.200000*%
%ADD19R,2.500000X1.800000*%
%ADD20R,0.750000X0.800000*%
%ADD21R,0.900000X0.500000*%
%ADD22R,0.900000X0.800000*%
%ADD23R,0.800000X1.300000*%
%ADD24R,0.400000X2.100000*%
G04 APERTURE END LIST*
D10*
D11*
X13150000Y-13300000D03*
X17650000Y-13300000D03*
D12*
X3128000Y-37200000D03*
D13*
X5414000Y-30850000D03*
D12*
X7700000Y-37200000D03*
D14*
X2520000Y-14700000D03*
X8720000Y-14700000D03*
D15*
X2995000Y-25950000D03*
X4265000Y-25950000D03*
X5535000Y-25950000D03*
X6805000Y-25950000D03*
X6805000Y-20550000D03*
X5535000Y-20550000D03*
X4265000Y-20550000D03*
X2995000Y-20550000D03*
D16*
X22080000Y-24500000D03*
X12120000Y-24500000D03*
D17*
X7000000Y-42000000D03*
X8900000Y-42000000D03*
X7950000Y-40000000D03*
D18*
X16050000Y-33900000D03*
X19350000Y-33900000D03*
D19*
X16050000Y-38700000D03*
X20050000Y-38700000D03*
D20*
X3150000Y-44700000D03*
X3150000Y-43200000D03*
X1100000Y-44650000D03*
X1100000Y-43150000D03*
D21*
X1200000Y-39925000D03*
X1200000Y-41425000D03*
X5200000Y-41425000D03*
X5200000Y-39925000D03*
X3200000Y-39925000D03*
X3200000Y-41425000D03*
D22*
X3550000Y-48500000D03*
X3550000Y-46600000D03*
X1550000Y-47550000D03*
D21*
X5200000Y-44950000D03*
X5200000Y-43450000D03*
X8800000Y-43450000D03*
X8800000Y-44950000D03*
D17*
X6150000Y-48550000D03*
D23*
X8050000Y-48350000D03*
D17*
X7100000Y-46550000D03*
D24*
X8250000Y-47150000D03*
M02*
