M48
;DRILL file {KiCad 4.0.7} date 11/16/17 17:08:51
;FORMAT={-:-/ absolute / metric / decimal}
FMAT,2
METRIC,TZ
T1C0.300
T2C0.400
T3C0.800
T4C1.000
T5C3.150
T6C0.500
%
G90
G05
M71
T1
X-2.375Y-9.2
X-1.88Y-35.61
X-1.25Y-33.65
X0.391Y-20.28
X0.65Y-35.7
X0.661Y-28.453
X0.7Y-34.25
X0.72Y-30.566
X0.996Y-20.525
X1.25Y-15.35
X1.266Y-29.569
X1.548Y-31.72
X1.796Y-28.468
X1.895Y-27.615
X1.95Y-35.4
X2.706Y-34.494
X2.75Y-32.35
X3.28Y-15.1
X3.3Y-10.86
X3.592Y-39.015
X4.075Y-36.997
X9.55Y-36.975
X10.22Y3.68
X10.6Y-28.4
X10.725Y4.185
X11.39Y4.85
X12.425Y4.85
X12.53Y-37.9
X14.6Y-28.4
X17.125Y4.85
X17.85Y4.85
X18.26Y-36.94
X18.375Y4.05
X18.7Y4.85
X19.425Y-28.4
T2
X-0.77Y-11.86
X5.298Y-33.061
X9.08Y-12.
X9.91Y-32.24
X12.53Y-39.75
X13.841Y-23.799
X13.85Y-25.6
T3
X11.76Y-4.245
X11.76Y-6.745
T4
X7.6Y-26.15
X7.6Y-28.69
X7.6Y-31.23
X7.6Y-33.77
X7.6Y-36.31
X7.6Y-38.85
X7.7Y4.85
X20.75Y4.85
X20.75Y-26.15
X20.75Y-28.69
X20.75Y-31.23
X20.75Y-33.77
X20.75Y-36.31
X20.75Y-38.85
T5
X0.Y-0.05
X0.3Y-45.95
X18.7Y-0.65
X19.28Y-44.27
T6
X10.63Y-47.46
X14.63Y-47.46
T0
M30
