%TF.GenerationSoftware,KiCad,Pcbnew,4.0.7*%
%TF.CreationDate,2017-11-16T21:22:26+08:00*%
%TF.ProjectId,nixie_tube,6E697869655F747562652E6B69636164,rev?*%
%TF.FileFunction,Copper,L1,Top,Signal*%
%FSLAX46Y46*%
G04 Gerber Fmt 4.6, Leading zero omitted, Abs format (unit mm)*
G04 Created by KiCad (PCBNEW 4.0.7) date 11/16/17 21:22:26*
%MOMM*%
%LPD*%
G01*
G04 APERTURE LIST*
%ADD10C,0.100000*%
%ADD11R,1.651000X3.048000*%
%ADD12R,6.096000X6.096000*%
%ADD13C,3.500000*%
%ADD14R,1.600000X1.600000*%
%ADD15C,1.600000*%
%ADD16R,1.000000X3.800000*%
%ADD17R,3.400000X1.400000*%
%ADD18R,0.500000X1.200000*%
%ADD19C,1.300000*%
%ADD20R,0.600000X1.550000*%
%ADD21R,2.900000X5.400000*%
%ADD22R,0.800000X0.900000*%
%ADD23R,0.900000X1.200000*%
%ADD24R,2.500000X1.800000*%
%ADD25R,1.700000X1.700000*%
%ADD26R,0.750000X0.800000*%
%ADD27R,0.900000X0.500000*%
%ADD28R,0.900000X0.800000*%
%ADD29R,0.800000X1.000000*%
%ADD30O,1.700000X1.700000*%
%ADD31C,0.453000*%
%ADD32C,0.600000*%
%ADD33C,0.400000*%
%ADD34C,1.000000*%
%ADD35C,0.250000*%
%ADD36C,1.000000*%
%ADD37C,0.500000*%
%ADD38C,0.254000*%
G04 APERTURE END LIST*
D10*
D11*
X3128000Y-37200000D03*
D12*
X5414000Y-30850000D03*
D11*
X7700000Y-37200000D03*
D13*
X22780000Y-51120000D03*
X3800000Y-52800000D03*
X22200000Y-7500000D03*
X3500000Y-6900000D03*
D14*
X15260000Y-11095000D03*
D15*
X15260000Y-13595000D03*
D16*
X13010000Y-12220000D03*
X17510000Y-12220000D03*
D17*
X2520000Y-14700000D03*
X8720000Y-14700000D03*
D18*
X16130000Y-48310000D03*
X18130000Y-48310000D03*
X14130000Y-48310000D03*
D19*
X14130000Y-54310000D03*
X18130000Y-54310000D03*
D20*
X2995000Y-25950000D03*
X4265000Y-25950000D03*
X5535000Y-25950000D03*
X6805000Y-25950000D03*
X6805000Y-20550000D03*
X5535000Y-20550000D03*
X4265000Y-20550000D03*
X2995000Y-20550000D03*
D21*
X20960000Y-24550000D03*
X11000000Y-24550000D03*
D22*
X7000000Y-42000000D03*
X8900000Y-42000000D03*
X7950000Y-40000000D03*
D23*
X16050000Y-33900000D03*
X19350000Y-33900000D03*
D24*
X16050000Y-38700000D03*
X20050000Y-38700000D03*
D25*
X11200000Y-2000000D03*
D26*
X3150000Y-44700000D03*
X3150000Y-43200000D03*
X1100000Y-44650000D03*
X1100000Y-43150000D03*
D27*
X1200000Y-39925000D03*
X1200000Y-41425000D03*
X5200000Y-41425000D03*
X5200000Y-39925000D03*
X3200000Y-39925000D03*
X3200000Y-41425000D03*
D28*
X3550000Y-48500000D03*
X3550000Y-46600000D03*
X1550000Y-47550000D03*
D27*
X5200000Y-44950000D03*
X5200000Y-43450000D03*
X8800000Y-43450000D03*
X8800000Y-44950000D03*
D22*
X6150000Y-48550000D03*
X8050000Y-48550000D03*
X7100000Y-46550000D03*
D29*
X8050000Y-48000000D03*
D25*
X24250000Y-33000000D03*
D30*
X24250000Y-35540000D03*
X24250000Y-38080000D03*
X24250000Y-40620000D03*
X24250000Y-43160000D03*
X24250000Y-45700000D03*
D25*
X11100000Y-33000000D03*
D30*
X11100000Y-35540000D03*
X11100000Y-38080000D03*
X11100000Y-40620000D03*
X11100000Y-43160000D03*
X11100000Y-45700000D03*
D25*
X24250000Y-2000000D03*
D31*
X4150000Y-42550000D03*
X4161160Y-35303465D03*
X5395441Y-34465377D03*
X4495547Y-27375488D03*
D32*
X8797836Y-39911278D03*
D31*
X6249998Y-39200000D03*
X6780000Y-21950000D03*
X1620000Y-42460000D03*
X2250000Y-40500000D03*
D33*
X6205983Y-41344025D03*
X21875000Y-2800000D03*
X20625000Y-2000000D03*
X21350000Y-2000000D03*
X22200000Y-2000000D03*
X15925000Y-2000000D03*
X14890000Y-2000000D03*
X14225000Y-2665000D03*
X13720000Y-3170000D03*
D34*
X13410000Y-39090000D03*
X17341464Y-30648536D03*
X17350000Y-32450000D03*
D33*
X5450000Y-42250000D03*
X18100002Y-35250000D03*
X14100000Y-35250000D03*
D31*
X5048490Y-38570000D03*
X3890509Y-27129849D03*
D33*
X4200000Y-41100000D03*
D31*
X4766416Y-36419128D03*
D33*
X4220219Y-37416038D03*
D31*
X5296095Y-35317853D03*
D33*
X13050000Y-43824990D03*
D31*
X22925000Y-35250000D03*
D33*
X21760000Y-43790000D03*
X7575010Y-43846613D03*
X1125000Y-16050000D03*
D32*
X12580000Y-18850000D03*
X2730000Y-18710000D03*
D33*
X16030000Y-44750000D03*
D34*
X16030000Y-46600000D03*
D33*
X7092254Y-45865221D03*
X4750000Y-22200000D03*
D31*
X6800000Y-17710000D03*
D35*
X3150000Y-43175000D02*
X3775000Y-42550000D01*
X3150000Y-43200000D02*
X3150000Y-43175000D01*
X3775000Y-42550000D02*
X4150000Y-42550000D01*
X4999248Y-34465377D02*
X4161160Y-35303465D01*
X5395441Y-34465377D02*
X4999248Y-34465377D01*
X5535000Y-26425000D02*
X4584512Y-27375488D01*
X4584512Y-27375488D02*
X4495547Y-27375488D01*
X5535000Y-25950000D02*
X5535000Y-26425000D01*
X1600000Y-45800000D02*
X700000Y-46700000D01*
X700000Y-46700000D02*
X700000Y-48100000D01*
X700000Y-48100000D02*
X2730000Y-50130000D01*
X1600000Y-45800000D02*
X2550000Y-46750000D01*
X1100000Y-45300000D02*
X1600000Y-45800000D01*
X1100000Y-44650000D02*
X1100000Y-45300000D01*
X2550000Y-46750000D02*
X3400000Y-46750000D01*
X3400000Y-46750000D02*
X3550000Y-46600000D01*
X6366184Y-40566186D02*
X6424999Y-40625001D01*
X3200000Y-40925000D02*
X3558814Y-40566186D01*
X3200000Y-41425000D02*
X3200000Y-40925000D01*
X3558814Y-40566186D02*
X6366184Y-40566186D01*
D36*
X12530000Y-20720000D02*
X9660000Y-20720000D01*
X13730000Y-21920000D02*
X12530000Y-20720000D01*
D37*
X6424999Y-40625001D02*
X7050000Y-40000000D01*
X7050000Y-40000000D02*
X7950000Y-40000000D01*
X2296504Y-41571504D02*
X2150000Y-41425000D01*
X2220000Y-44650000D02*
X2296504Y-44573496D01*
X2296504Y-44573496D02*
X2296504Y-41571504D01*
X2150000Y-41425000D02*
X1200000Y-41425000D01*
D36*
X2100171Y-41416698D02*
X2109975Y-41426502D01*
X1200000Y-41425000D02*
X1208302Y-41416698D01*
X2109975Y-41426502D02*
X3198498Y-41426502D01*
X1208302Y-41416698D02*
X2100171Y-41416698D01*
X3198498Y-41426502D02*
X3200000Y-41425000D01*
X15260000Y-13595000D02*
X14460001Y-14394999D01*
X14460001Y-14394999D02*
X14460001Y-15019999D01*
X14460001Y-15019999D02*
X13830000Y-15650000D01*
X13010000Y-12220000D02*
X14385000Y-13595000D01*
X14385000Y-13595000D02*
X15260000Y-13595000D01*
X8720000Y-14700000D02*
X11270000Y-14700000D01*
X11270000Y-14700000D02*
X12220000Y-15650000D01*
X12220000Y-15650000D02*
X13830000Y-15650000D01*
X7950000Y-40000000D02*
X8709114Y-40000000D01*
X8709114Y-40000000D02*
X8797836Y-39911278D01*
X7700000Y-37200000D02*
X7700000Y-39724000D01*
X1100000Y-44650000D02*
X2220000Y-44650000D01*
X2220000Y-44650000D02*
X3100000Y-44650000D01*
X3100000Y-44650000D02*
X3150000Y-44700000D01*
X7171743Y-50130000D02*
X14150000Y-50130000D01*
X14150000Y-50130000D02*
X17930000Y-50130000D01*
X14130000Y-48310000D02*
X14130000Y-50110000D01*
X14130000Y-50110000D02*
X14150000Y-50130000D01*
X18130000Y-49930000D02*
X18130000Y-48310000D01*
X5148269Y-50150012D02*
X7151731Y-50150012D01*
X7151731Y-50150012D02*
X7171743Y-50130000D01*
X17930000Y-50130000D02*
X18130000Y-49930000D01*
X14130000Y-48660000D02*
X14130000Y-48310000D01*
X18130000Y-48310000D02*
X18130000Y-48660000D01*
X8300000Y-14700000D02*
X8300000Y-15750000D01*
X8300000Y-15750000D02*
X9660000Y-17110000D01*
X9660000Y-17110000D02*
X9660000Y-20720000D01*
X9660000Y-20720000D02*
X6805000Y-23575000D01*
X6805000Y-23575000D02*
X6805000Y-25950000D01*
X8350000Y-14650000D02*
X8300000Y-14700000D01*
X7700000Y-37152329D02*
X7700000Y-37200000D01*
X2730000Y-50130000D02*
X5128257Y-50130000D01*
X5128257Y-50130000D02*
X5148269Y-50150012D01*
X13730000Y-21930000D02*
X13730000Y-21920000D01*
X14170000Y-22370000D02*
X13730000Y-21930000D01*
X14170000Y-23170002D02*
X14170000Y-22370000D01*
X22023499Y-41112501D02*
X22023499Y-35894721D01*
X11949999Y-41469999D02*
X21666001Y-41469999D01*
X21998499Y-30998501D02*
X14170000Y-23170002D01*
X22023499Y-35894721D02*
X21998499Y-35869721D01*
X21666001Y-41469999D02*
X22023499Y-41112501D01*
X11100000Y-40620000D02*
X11949999Y-41469999D01*
X21998499Y-35869721D02*
X21998499Y-30998501D01*
D35*
X6125000Y-39200000D02*
X6249998Y-39200000D01*
X5400000Y-39925000D02*
X6125000Y-39200000D01*
X5200000Y-39925000D02*
X5400000Y-39925000D01*
X6780000Y-21950000D02*
X6780000Y-20575000D01*
X6780000Y-20575000D02*
X6805000Y-20550000D01*
X1140000Y-42460000D02*
X1620000Y-42460000D01*
X1100000Y-42500000D02*
X1140000Y-42460000D01*
X1100000Y-43150000D02*
X1100000Y-42500000D01*
X3200000Y-39925000D02*
X2825000Y-39925000D01*
X2825000Y-39925000D02*
X2250000Y-40500000D01*
X3200000Y-39925000D02*
X5200000Y-39925000D01*
X1100000Y-43150000D02*
X1100000Y-43125000D01*
X6700000Y-20655000D02*
X6805000Y-20550000D01*
D36*
X16050000Y-36017996D02*
X16050000Y-38700000D01*
X17350000Y-32450000D02*
X17350000Y-34717996D01*
X17350000Y-34717996D02*
X16050000Y-36017996D01*
D35*
X5200000Y-41425000D02*
X6125008Y-41425000D01*
X6125008Y-41425000D02*
X6205983Y-41344025D01*
D36*
X15925000Y-2000000D02*
X20625000Y-2000000D01*
D35*
X21350000Y-2000000D02*
X20625000Y-2000000D01*
X22200000Y-2000000D02*
X21350000Y-2000000D01*
D36*
X22200000Y-2000000D02*
X24250000Y-2000000D01*
D35*
X14890000Y-2000000D02*
X15925000Y-2000000D01*
X14225000Y-2665000D02*
X14890000Y-2000000D01*
X13720000Y-3170000D02*
X14225000Y-2665000D01*
D36*
X15260000Y-4710000D02*
X13720000Y-3170000D01*
X15260000Y-11095000D02*
X15260000Y-4710000D01*
X16385000Y-12220000D02*
X15260000Y-11095000D01*
X17510000Y-12220000D02*
X16385000Y-12220000D01*
X16050000Y-38700000D02*
X13800000Y-38700000D01*
X13800000Y-38700000D02*
X13410000Y-39090000D01*
X13720000Y-3170000D02*
X12550000Y-2000000D01*
X12550000Y-2000000D02*
X11200000Y-2000000D01*
X17350000Y-30657072D02*
X17341464Y-30648536D01*
X17350000Y-32450000D02*
X17350000Y-30657072D01*
D35*
X7000000Y-42000000D02*
X6800000Y-42200000D01*
X6800000Y-42200000D02*
X5500000Y-42200000D01*
X5500000Y-42200000D02*
X5450000Y-42250000D01*
X19350000Y-33900000D02*
X19350000Y-34050000D01*
X18150000Y-35250000D02*
X18100002Y-35250000D01*
X19350000Y-34050000D02*
X18150000Y-35250000D01*
X14100000Y-35250000D02*
X12634999Y-36715001D01*
X12634999Y-36715001D02*
X10149503Y-36715001D01*
X10149503Y-36715001D02*
X8334502Y-34900000D01*
X8334502Y-34900000D02*
X7065498Y-34900000D01*
X7065498Y-34900000D02*
X5048490Y-36917008D01*
X5048490Y-36917008D02*
X5048490Y-38570000D01*
X4523389Y-39095101D02*
X5048490Y-38570000D01*
X1200000Y-39925000D02*
X1900000Y-39925000D01*
X2729899Y-39095101D02*
X4523389Y-39095101D01*
X1900000Y-39925000D02*
X2729899Y-39095101D01*
X4265000Y-26755358D02*
X3890509Y-27129849D01*
X4265000Y-25950000D02*
X4265000Y-26755358D01*
X19346992Y-33903008D02*
X19346992Y-34151991D01*
X19346992Y-34151991D02*
X19573491Y-34378490D01*
X19350000Y-33900000D02*
X19346992Y-33903008D01*
X5197999Y-42775001D02*
X4200000Y-41777002D01*
X8900000Y-42000000D02*
X8900000Y-42050000D01*
X4200000Y-41777002D02*
X4200000Y-41100000D01*
X8174999Y-42775001D02*
X5197999Y-42775001D01*
X8900000Y-42050000D02*
X8174999Y-42775001D01*
X4220219Y-36965325D02*
X4766416Y-36419128D01*
X4220219Y-37416038D02*
X4220219Y-36965325D01*
X4220219Y-37216719D02*
X4220219Y-37416038D01*
X4203500Y-37200000D02*
X4220219Y-37216719D01*
X3128000Y-37200000D02*
X4203500Y-37200000D01*
X9000000Y-42000000D02*
X9090000Y-41910000D01*
X8998490Y-42001510D02*
X8703826Y-42001510D01*
X8703826Y-42001510D02*
X8703008Y-42002328D01*
X9000000Y-42000000D02*
X8998490Y-42001510D01*
X6645698Y-34300000D02*
X5627845Y-35317853D01*
X5627845Y-35317853D02*
X5296095Y-35317853D01*
X14950000Y-34300000D02*
X6645698Y-34300000D01*
X16050000Y-33900000D02*
X15350000Y-33900000D01*
X15350000Y-33900000D02*
X14950000Y-34300000D01*
D36*
X18224999Y-29124999D02*
X9375001Y-29124999D01*
X20798488Y-31698488D02*
X18224999Y-29124999D01*
X20050000Y-36800000D02*
X20798488Y-36051512D01*
X20050000Y-38700000D02*
X20050000Y-36800000D01*
X20798488Y-36051512D02*
X20798488Y-31698488D01*
X7139001Y-29124999D02*
X5414000Y-30850000D01*
X11000000Y-27500000D02*
X9375001Y-29124999D01*
X9375001Y-29124999D02*
X7139001Y-29124999D01*
X11000000Y-24550000D02*
X11000000Y-27500000D01*
D35*
X21760000Y-43790000D02*
X13084990Y-43790000D01*
X13084990Y-43790000D02*
X13050000Y-43824990D01*
X22925000Y-35250000D02*
X22925000Y-37225000D01*
X22925000Y-37225000D02*
X23780000Y-38080000D01*
X23780000Y-38080000D02*
X24250000Y-38080000D01*
X5696613Y-43846613D02*
X7575010Y-43846613D01*
X5300000Y-43450000D02*
X5696613Y-43846613D01*
X24750000Y-43160000D02*
X11100000Y-43160000D01*
X10890000Y-43150000D02*
X10900000Y-43160000D01*
X11200000Y-45700000D02*
X24750000Y-45700000D01*
D36*
X2100000Y-15075000D02*
X1125000Y-16050000D01*
X2100000Y-14700000D02*
X2100000Y-15075000D01*
D35*
X2995000Y-20550000D02*
X2995000Y-25950000D01*
D36*
X2995000Y-20550000D02*
X2995000Y-18975000D01*
X2995000Y-18975000D02*
X2730000Y-18710000D01*
D37*
X4265000Y-20550000D02*
X2995000Y-20550000D01*
D36*
X12580000Y-18850000D02*
X13560000Y-18850000D01*
X13560000Y-18850000D02*
X19260000Y-24550000D01*
X19260000Y-24550000D02*
X20960000Y-24550000D01*
D37*
X2100000Y-14700000D02*
X3100000Y-14700000D01*
X3050000Y-26005000D02*
X2995000Y-25950000D01*
D35*
X5300000Y-46800000D02*
X5300000Y-45150000D01*
X3600000Y-48500000D02*
X5300000Y-46800000D01*
X5300000Y-45150000D02*
X5300000Y-44950000D01*
X3550000Y-48500000D02*
X3600000Y-48500000D01*
X15630000Y-44350000D02*
X16030000Y-44750000D01*
X9900000Y-44350000D02*
X15630000Y-44350000D01*
X9800000Y-44450000D02*
X9900000Y-44350000D01*
X8050000Y-48000000D02*
X8050000Y-48550000D01*
X8800000Y-43450000D02*
X9000000Y-43450000D01*
X9000000Y-43450000D02*
X9800000Y-44250000D01*
X9800000Y-44250000D02*
X9800000Y-44450000D01*
X8050000Y-48550000D02*
X8700000Y-48550000D01*
X8700000Y-48550000D02*
X9800000Y-47450000D01*
X9800000Y-47450000D02*
X9800000Y-44450000D01*
X8800000Y-43450000D02*
X8600000Y-43450000D01*
D36*
X16130000Y-48310000D02*
X16130000Y-46700000D01*
X16130000Y-46700000D02*
X16030000Y-46600000D01*
D35*
X8050000Y-48550000D02*
X8050000Y-48600000D01*
X7092254Y-46148063D02*
X7092254Y-45865221D01*
X7092254Y-46542254D02*
X7092254Y-46148063D01*
X7100000Y-46550000D02*
X7092254Y-46542254D01*
X5535000Y-21025000D02*
X4750000Y-21810000D01*
X5535000Y-20550000D02*
X5535000Y-21025000D01*
X4750000Y-21810000D02*
X4750000Y-22200000D01*
D36*
X5535000Y-20550000D02*
X5535000Y-18975000D01*
X5535000Y-18975000D02*
X6800000Y-17710000D01*
X5530000Y-20555000D02*
X5535000Y-20550000D01*
D35*
X1550000Y-47550000D02*
X1550000Y-48200000D01*
X1550000Y-48200000D02*
X2575001Y-49225001D01*
X2575001Y-49225001D02*
X4824999Y-49225001D01*
X4824999Y-49225001D02*
X5500000Y-48550000D01*
X5500000Y-48550000D02*
X6150000Y-48550000D01*
X8800000Y-44950000D02*
X7264998Y-44950000D01*
X6150000Y-46064998D02*
X6150000Y-48550000D01*
X7264998Y-44950000D02*
X6150000Y-46064998D01*
X6150000Y-48500000D02*
X6150000Y-48550000D01*
D38*
G36*
X14894803Y-46824775D02*
X14995000Y-47067269D01*
X14995000Y-47535407D01*
X14918327Y-47350302D01*
X14739699Y-47171673D01*
X14506310Y-47075000D01*
X14413750Y-47075000D01*
X14255000Y-47233750D01*
X14255000Y-48183000D01*
X14277000Y-48183000D01*
X14277000Y-48437000D01*
X14255000Y-48437000D01*
X14255000Y-49386250D01*
X14413750Y-49545000D01*
X14506310Y-49545000D01*
X14739699Y-49448327D01*
X14918327Y-49269698D01*
X15015000Y-49036309D01*
X15015000Y-48595750D01*
X14856252Y-48437002D01*
X15015000Y-48437002D01*
X15015000Y-48410547D01*
X15081397Y-48744346D01*
X15248426Y-48994323D01*
X15276838Y-49145317D01*
X15415910Y-49361441D01*
X15628110Y-49506431D01*
X15880000Y-49557440D01*
X16380000Y-49557440D01*
X16615317Y-49513162D01*
X16831441Y-49374090D01*
X16976431Y-49161890D01*
X17009838Y-48996920D01*
X17178603Y-48744346D01*
X17245000Y-48410547D01*
X17245000Y-48437002D01*
X17403748Y-48437002D01*
X17245000Y-48595750D01*
X17245000Y-49036309D01*
X17341673Y-49269698D01*
X17520301Y-49448327D01*
X17753690Y-49545000D01*
X17846250Y-49545000D01*
X18005000Y-49386250D01*
X18005000Y-48437000D01*
X18255000Y-48437000D01*
X18255000Y-49386250D01*
X18413750Y-49545000D01*
X18506310Y-49545000D01*
X18739699Y-49448327D01*
X18918327Y-49269698D01*
X19015000Y-49036309D01*
X19015000Y-48595750D01*
X18856250Y-48437000D01*
X18255000Y-48437000D01*
X18005000Y-48437000D01*
X17983000Y-48437000D01*
X17983000Y-48183000D01*
X18005000Y-48183000D01*
X18005000Y-47233750D01*
X18255000Y-47233750D01*
X18255000Y-48183000D01*
X18856250Y-48183000D01*
X19015000Y-48024250D01*
X19015000Y-47583691D01*
X18918327Y-47350302D01*
X18739699Y-47171673D01*
X18506310Y-47075000D01*
X18413750Y-47075000D01*
X18255000Y-47233750D01*
X18005000Y-47233750D01*
X17846250Y-47075000D01*
X17753690Y-47075000D01*
X17520301Y-47171673D01*
X17341673Y-47350302D01*
X17265000Y-47535407D01*
X17265000Y-46700000D01*
X17217261Y-46460000D01*
X22977046Y-46460000D01*
X23170853Y-46750054D01*
X23652622Y-47071961D01*
X24220907Y-47185000D01*
X24279093Y-47185000D01*
X24847378Y-47071961D01*
X25040000Y-46943255D01*
X25040000Y-50344152D01*
X24803084Y-49770771D01*
X24132758Y-49099274D01*
X23256487Y-48735415D01*
X22307675Y-48734587D01*
X21430771Y-49096916D01*
X20759274Y-49767242D01*
X20395415Y-50643513D01*
X20394587Y-51592325D01*
X20756916Y-52469229D01*
X21427242Y-53140726D01*
X22303513Y-53504585D01*
X23252325Y-53505413D01*
X24129229Y-53143084D01*
X24800726Y-52472758D01*
X25040000Y-51896521D01*
X25040000Y-55590000D01*
X20436972Y-55590000D01*
X18441380Y-55571713D01*
X18856943Y-55400005D01*
X19218735Y-55038845D01*
X19414777Y-54566724D01*
X19415223Y-54055519D01*
X19220005Y-53583057D01*
X18858845Y-53221265D01*
X18386724Y-53025223D01*
X17875519Y-53024777D01*
X17403057Y-53219995D01*
X17041265Y-53581155D01*
X16845223Y-54053276D01*
X16844777Y-54564481D01*
X17039995Y-55036943D01*
X17401155Y-55398735D01*
X17803658Y-55565869D01*
X14528168Y-55535853D01*
X14856943Y-55400005D01*
X15218735Y-55038845D01*
X15414777Y-54566724D01*
X15415223Y-54055519D01*
X15220005Y-53583057D01*
X14858845Y-53221265D01*
X14386724Y-53025223D01*
X13875519Y-53024777D01*
X13403057Y-53219995D01*
X13041265Y-53581155D01*
X12845223Y-54053276D01*
X12844777Y-54564481D01*
X13039995Y-55036943D01*
X13401155Y-55398735D01*
X13713390Y-55528386D01*
X710000Y-55409226D01*
X710000Y-53272325D01*
X1414587Y-53272325D01*
X1776916Y-54149229D01*
X2447242Y-54820726D01*
X3323513Y-55184585D01*
X4272325Y-55185413D01*
X5149229Y-54823084D01*
X5820726Y-54152758D01*
X6184585Y-53276487D01*
X6185413Y-52327675D01*
X5823084Y-51450771D01*
X5152758Y-50779274D01*
X4276487Y-50415415D01*
X3327675Y-50414587D01*
X2450771Y-50776916D01*
X1779274Y-51447242D01*
X1415415Y-52323513D01*
X1414587Y-53272325D01*
X710000Y-53272325D01*
X710000Y-48452065D01*
X848110Y-48546431D01*
X890770Y-48555070D01*
X1012599Y-48737401D01*
X2037600Y-49762402D01*
X2284161Y-49927149D01*
X2575001Y-49985001D01*
X4824999Y-49985001D01*
X5115838Y-49927149D01*
X5362400Y-49762402D01*
X5523275Y-49601527D01*
X5750000Y-49647440D01*
X6550000Y-49647440D01*
X6785317Y-49603162D01*
X7001441Y-49464090D01*
X7100633Y-49318917D01*
X7185910Y-49451441D01*
X7398110Y-49596431D01*
X7650000Y-49647440D01*
X8450000Y-49647440D01*
X8685317Y-49603162D01*
X8901441Y-49464090D01*
X9046431Y-49251890D01*
X9055070Y-49209230D01*
X9237401Y-49087401D01*
X9729052Y-48595750D01*
X13245000Y-48595750D01*
X13245000Y-49036309D01*
X13341673Y-49269698D01*
X13520301Y-49448327D01*
X13753690Y-49545000D01*
X13846250Y-49545000D01*
X14005000Y-49386250D01*
X14005000Y-48437000D01*
X13403750Y-48437000D01*
X13245000Y-48595750D01*
X9729052Y-48595750D01*
X10337401Y-47987401D01*
X10502148Y-47740839D01*
X10533406Y-47583691D01*
X13245000Y-47583691D01*
X13245000Y-48024250D01*
X13403750Y-48183000D01*
X14005000Y-48183000D01*
X14005000Y-47233750D01*
X13846250Y-47075000D01*
X13753690Y-47075000D01*
X13520301Y-47171673D01*
X13341673Y-47350302D01*
X13245000Y-47583691D01*
X10533406Y-47583691D01*
X10560000Y-47450000D01*
X10560000Y-47083374D01*
X11070907Y-47185000D01*
X11129093Y-47185000D01*
X11697378Y-47071961D01*
X12179147Y-46750054D01*
X12372954Y-46460000D01*
X14895121Y-46460000D01*
X14894803Y-46824775D01*
X14894803Y-46824775D01*
G37*
X14894803Y-46824775D02*
X14995000Y-47067269D01*
X14995000Y-47535407D01*
X14918327Y-47350302D01*
X14739699Y-47171673D01*
X14506310Y-47075000D01*
X14413750Y-47075000D01*
X14255000Y-47233750D01*
X14255000Y-48183000D01*
X14277000Y-48183000D01*
X14277000Y-48437000D01*
X14255000Y-48437000D01*
X14255000Y-49386250D01*
X14413750Y-49545000D01*
X14506310Y-49545000D01*
X14739699Y-49448327D01*
X14918327Y-49269698D01*
X15015000Y-49036309D01*
X15015000Y-48595750D01*
X14856252Y-48437002D01*
X15015000Y-48437002D01*
X15015000Y-48410547D01*
X15081397Y-48744346D01*
X15248426Y-48994323D01*
X15276838Y-49145317D01*
X15415910Y-49361441D01*
X15628110Y-49506431D01*
X15880000Y-49557440D01*
X16380000Y-49557440D01*
X16615317Y-49513162D01*
X16831441Y-49374090D01*
X16976431Y-49161890D01*
X17009838Y-48996920D01*
X17178603Y-48744346D01*
X17245000Y-48410547D01*
X17245000Y-48437002D01*
X17403748Y-48437002D01*
X17245000Y-48595750D01*
X17245000Y-49036309D01*
X17341673Y-49269698D01*
X17520301Y-49448327D01*
X17753690Y-49545000D01*
X17846250Y-49545000D01*
X18005000Y-49386250D01*
X18005000Y-48437000D01*
X18255000Y-48437000D01*
X18255000Y-49386250D01*
X18413750Y-49545000D01*
X18506310Y-49545000D01*
X18739699Y-49448327D01*
X18918327Y-49269698D01*
X19015000Y-49036309D01*
X19015000Y-48595750D01*
X18856250Y-48437000D01*
X18255000Y-48437000D01*
X18005000Y-48437000D01*
X17983000Y-48437000D01*
X17983000Y-48183000D01*
X18005000Y-48183000D01*
X18005000Y-47233750D01*
X18255000Y-47233750D01*
X18255000Y-48183000D01*
X18856250Y-48183000D01*
X19015000Y-48024250D01*
X19015000Y-47583691D01*
X18918327Y-47350302D01*
X18739699Y-47171673D01*
X18506310Y-47075000D01*
X18413750Y-47075000D01*
X18255000Y-47233750D01*
X18005000Y-47233750D01*
X17846250Y-47075000D01*
X17753690Y-47075000D01*
X17520301Y-47171673D01*
X17341673Y-47350302D01*
X17265000Y-47535407D01*
X17265000Y-46700000D01*
X17217261Y-46460000D01*
X22977046Y-46460000D01*
X23170853Y-46750054D01*
X23652622Y-47071961D01*
X24220907Y-47185000D01*
X24279093Y-47185000D01*
X24847378Y-47071961D01*
X25040000Y-46943255D01*
X25040000Y-50344152D01*
X24803084Y-49770771D01*
X24132758Y-49099274D01*
X23256487Y-48735415D01*
X22307675Y-48734587D01*
X21430771Y-49096916D01*
X20759274Y-49767242D01*
X20395415Y-50643513D01*
X20394587Y-51592325D01*
X20756916Y-52469229D01*
X21427242Y-53140726D01*
X22303513Y-53504585D01*
X23252325Y-53505413D01*
X24129229Y-53143084D01*
X24800726Y-52472758D01*
X25040000Y-51896521D01*
X25040000Y-55590000D01*
X20436972Y-55590000D01*
X18441380Y-55571713D01*
X18856943Y-55400005D01*
X19218735Y-55038845D01*
X19414777Y-54566724D01*
X19415223Y-54055519D01*
X19220005Y-53583057D01*
X18858845Y-53221265D01*
X18386724Y-53025223D01*
X17875519Y-53024777D01*
X17403057Y-53219995D01*
X17041265Y-53581155D01*
X16845223Y-54053276D01*
X16844777Y-54564481D01*
X17039995Y-55036943D01*
X17401155Y-55398735D01*
X17803658Y-55565869D01*
X14528168Y-55535853D01*
X14856943Y-55400005D01*
X15218735Y-55038845D01*
X15414777Y-54566724D01*
X15415223Y-54055519D01*
X15220005Y-53583057D01*
X14858845Y-53221265D01*
X14386724Y-53025223D01*
X13875519Y-53024777D01*
X13403057Y-53219995D01*
X13041265Y-53581155D01*
X12845223Y-54053276D01*
X12844777Y-54564481D01*
X13039995Y-55036943D01*
X13401155Y-55398735D01*
X13713390Y-55528386D01*
X710000Y-55409226D01*
X710000Y-53272325D01*
X1414587Y-53272325D01*
X1776916Y-54149229D01*
X2447242Y-54820726D01*
X3323513Y-55184585D01*
X4272325Y-55185413D01*
X5149229Y-54823084D01*
X5820726Y-54152758D01*
X6184585Y-53276487D01*
X6185413Y-52327675D01*
X5823084Y-51450771D01*
X5152758Y-50779274D01*
X4276487Y-50415415D01*
X3327675Y-50414587D01*
X2450771Y-50776916D01*
X1779274Y-51447242D01*
X1415415Y-52323513D01*
X1414587Y-53272325D01*
X710000Y-53272325D01*
X710000Y-48452065D01*
X848110Y-48546431D01*
X890770Y-48555070D01*
X1012599Y-48737401D01*
X2037600Y-49762402D01*
X2284161Y-49927149D01*
X2575001Y-49985001D01*
X4824999Y-49985001D01*
X5115838Y-49927149D01*
X5362400Y-49762402D01*
X5523275Y-49601527D01*
X5750000Y-49647440D01*
X6550000Y-49647440D01*
X6785317Y-49603162D01*
X7001441Y-49464090D01*
X7100633Y-49318917D01*
X7185910Y-49451441D01*
X7398110Y-49596431D01*
X7650000Y-49647440D01*
X8450000Y-49647440D01*
X8685317Y-49603162D01*
X8901441Y-49464090D01*
X9046431Y-49251890D01*
X9055070Y-49209230D01*
X9237401Y-49087401D01*
X9729052Y-48595750D01*
X13245000Y-48595750D01*
X13245000Y-49036309D01*
X13341673Y-49269698D01*
X13520301Y-49448327D01*
X13753690Y-49545000D01*
X13846250Y-49545000D01*
X14005000Y-49386250D01*
X14005000Y-48437000D01*
X13403750Y-48437000D01*
X13245000Y-48595750D01*
X9729052Y-48595750D01*
X10337401Y-47987401D01*
X10502148Y-47740839D01*
X10533406Y-47583691D01*
X13245000Y-47583691D01*
X13245000Y-48024250D01*
X13403750Y-48183000D01*
X14005000Y-48183000D01*
X14005000Y-47233750D01*
X13846250Y-47075000D01*
X13753690Y-47075000D01*
X13520301Y-47171673D01*
X13341673Y-47350302D01*
X13245000Y-47583691D01*
X10533406Y-47583691D01*
X10560000Y-47450000D01*
X10560000Y-47083374D01*
X11070907Y-47185000D01*
X11129093Y-47185000D01*
X11697378Y-47071961D01*
X12179147Y-46750054D01*
X12372954Y-46460000D01*
X14895121Y-46460000D01*
X14894803Y-46824775D01*
G36*
X2127560Y-43600000D02*
X2171838Y-43835317D01*
X2238329Y-43938646D01*
X2236673Y-43940302D01*
X2140000Y-44173691D01*
X2140000Y-44414250D01*
X2298750Y-44573000D01*
X3023000Y-44573000D01*
X3023000Y-44553000D01*
X3277000Y-44553000D01*
X3277000Y-44573000D01*
X3297000Y-44573000D01*
X3297000Y-44827000D01*
X3277000Y-44827000D01*
X3277000Y-44847000D01*
X3023000Y-44847000D01*
X3023000Y-44827000D01*
X2298750Y-44827000D01*
X2140000Y-44985750D01*
X2140000Y-45226309D01*
X2236673Y-45459698D01*
X2415301Y-45638327D01*
X2648690Y-45735000D01*
X2666975Y-45735000D01*
X2561673Y-45840301D01*
X2465000Y-46073690D01*
X2465000Y-46314250D01*
X2623750Y-46473000D01*
X3423000Y-46473000D01*
X3423000Y-46453000D01*
X3677000Y-46453000D01*
X3677000Y-46473000D01*
X3697000Y-46473000D01*
X3697000Y-46727000D01*
X3677000Y-46727000D01*
X3677000Y-46747000D01*
X3423000Y-46747000D01*
X3423000Y-46727000D01*
X2623750Y-46727000D01*
X2537738Y-46813012D01*
X2464090Y-46698559D01*
X2251890Y-46553569D01*
X2000000Y-46502560D01*
X1100000Y-46502560D01*
X864683Y-46546838D01*
X710000Y-46646374D01*
X710000Y-45685000D01*
X814250Y-45685000D01*
X973000Y-45526250D01*
X973000Y-44777000D01*
X1227000Y-44777000D01*
X1227000Y-45526250D01*
X1385750Y-45685000D01*
X1601310Y-45685000D01*
X1834699Y-45588327D01*
X2013327Y-45409698D01*
X2110000Y-45176309D01*
X2110000Y-44935750D01*
X1951250Y-44777000D01*
X1227000Y-44777000D01*
X973000Y-44777000D01*
X953000Y-44777000D01*
X953000Y-44523000D01*
X973000Y-44523000D01*
X973000Y-44503000D01*
X1227000Y-44503000D01*
X1227000Y-44523000D01*
X1951250Y-44523000D01*
X2110000Y-44364250D01*
X2110000Y-44123691D01*
X2013327Y-43890302D01*
X2011957Y-43888932D01*
X2071431Y-43801890D01*
X2122440Y-43550000D01*
X2122440Y-43175719D01*
X2127560Y-43170608D01*
X2127560Y-43600000D01*
X2127560Y-43600000D01*
G37*
X2127560Y-43600000D02*
X2171838Y-43835317D01*
X2238329Y-43938646D01*
X2236673Y-43940302D01*
X2140000Y-44173691D01*
X2140000Y-44414250D01*
X2298750Y-44573000D01*
X3023000Y-44573000D01*
X3023000Y-44553000D01*
X3277000Y-44553000D01*
X3277000Y-44573000D01*
X3297000Y-44573000D01*
X3297000Y-44827000D01*
X3277000Y-44827000D01*
X3277000Y-44847000D01*
X3023000Y-44847000D01*
X3023000Y-44827000D01*
X2298750Y-44827000D01*
X2140000Y-44985750D01*
X2140000Y-45226309D01*
X2236673Y-45459698D01*
X2415301Y-45638327D01*
X2648690Y-45735000D01*
X2666975Y-45735000D01*
X2561673Y-45840301D01*
X2465000Y-46073690D01*
X2465000Y-46314250D01*
X2623750Y-46473000D01*
X3423000Y-46473000D01*
X3423000Y-46453000D01*
X3677000Y-46453000D01*
X3677000Y-46473000D01*
X3697000Y-46473000D01*
X3697000Y-46727000D01*
X3677000Y-46727000D01*
X3677000Y-46747000D01*
X3423000Y-46747000D01*
X3423000Y-46727000D01*
X2623750Y-46727000D01*
X2537738Y-46813012D01*
X2464090Y-46698559D01*
X2251890Y-46553569D01*
X2000000Y-46502560D01*
X1100000Y-46502560D01*
X864683Y-46546838D01*
X710000Y-46646374D01*
X710000Y-45685000D01*
X814250Y-45685000D01*
X973000Y-45526250D01*
X973000Y-44777000D01*
X1227000Y-44777000D01*
X1227000Y-45526250D01*
X1385750Y-45685000D01*
X1601310Y-45685000D01*
X1834699Y-45588327D01*
X2013327Y-45409698D01*
X2110000Y-45176309D01*
X2110000Y-44935750D01*
X1951250Y-44777000D01*
X1227000Y-44777000D01*
X973000Y-44777000D01*
X953000Y-44777000D01*
X953000Y-44523000D01*
X973000Y-44523000D01*
X973000Y-44503000D01*
X1227000Y-44503000D01*
X1227000Y-44523000D01*
X1951250Y-44523000D01*
X2110000Y-44364250D01*
X2110000Y-44123691D01*
X2013327Y-43890302D01*
X2011957Y-43888932D01*
X2071431Y-43801890D01*
X2122440Y-43550000D01*
X2122440Y-43175719D01*
X2127560Y-43170608D01*
X2127560Y-43600000D01*
G36*
X2131999Y-4895655D02*
X1479274Y-5547242D01*
X1115415Y-6423513D01*
X1114587Y-7372325D01*
X1476916Y-8249229D01*
X2147242Y-8920726D01*
X3023513Y-9284585D01*
X3972325Y-9285413D01*
X4849229Y-8923084D01*
X5520726Y-8252758D01*
X5884585Y-7376487D01*
X5885413Y-6427675D01*
X5523084Y-5550771D01*
X4895741Y-4922332D01*
X13954641Y-5009773D01*
X14125000Y-5180132D01*
X14125000Y-9755982D01*
X14008559Y-9830910D01*
X13972179Y-9884154D01*
X13869699Y-9781673D01*
X13636310Y-9685000D01*
X13295750Y-9685000D01*
X13137000Y-9843750D01*
X13137000Y-12093000D01*
X13157000Y-12093000D01*
X13157000Y-12347000D01*
X13137000Y-12347000D01*
X13137000Y-14596250D01*
X13295750Y-14755000D01*
X13636310Y-14755000D01*
X13869699Y-14658327D01*
X13925280Y-14602745D01*
X14431861Y-14602745D01*
X14505995Y-14848864D01*
X15043223Y-15041965D01*
X15613454Y-15014778D01*
X16014005Y-14848864D01*
X16088139Y-14602745D01*
X15260000Y-13774605D01*
X14431861Y-14602745D01*
X13925280Y-14602745D01*
X14048327Y-14479698D01*
X14091777Y-14374801D01*
X14252255Y-14423139D01*
X15080395Y-13595000D01*
X14252255Y-12766861D01*
X14145000Y-12799167D01*
X14145000Y-12505750D01*
X13986252Y-12347002D01*
X13996731Y-12347002D01*
X14208110Y-12491431D01*
X14446201Y-12539646D01*
X14431861Y-12587255D01*
X15260000Y-13415395D01*
X15274142Y-13401252D01*
X15453748Y-13580858D01*
X15439605Y-13595000D01*
X16267745Y-14423139D01*
X16420812Y-14377033D01*
X16545910Y-14571441D01*
X16758110Y-14716431D01*
X17010000Y-14767440D01*
X18010000Y-14767440D01*
X18245317Y-14723162D01*
X18461441Y-14584090D01*
X18606431Y-14371890D01*
X18657440Y-14120000D01*
X18657440Y-10320000D01*
X18613162Y-10084683D01*
X18474090Y-9868559D01*
X18261890Y-9723569D01*
X18010000Y-9672560D01*
X17010000Y-9672560D01*
X16774683Y-9716838D01*
X16558559Y-9855910D01*
X16544901Y-9875900D01*
X16524090Y-9843559D01*
X16395000Y-9755356D01*
X16395000Y-7972325D01*
X19814587Y-7972325D01*
X20176916Y-8849229D01*
X20847242Y-9520726D01*
X21723513Y-9884585D01*
X22672325Y-9885413D01*
X23549229Y-9523084D01*
X24220726Y-8852758D01*
X24584585Y-7976487D01*
X24585413Y-7027675D01*
X24223084Y-6150771D01*
X23552758Y-5479274D01*
X22676487Y-5115415D01*
X21727675Y-5114587D01*
X20850771Y-5476916D01*
X20179274Y-6147242D01*
X19815415Y-7023513D01*
X19814587Y-7972325D01*
X16395000Y-7972325D01*
X16395000Y-5033328D01*
X25040000Y-5116774D01*
X25040000Y-31502560D01*
X23400000Y-31502560D01*
X23164683Y-31546838D01*
X22948559Y-31685910D01*
X22803569Y-31898110D01*
X22752560Y-32150000D01*
X22752560Y-33850000D01*
X22796838Y-34085317D01*
X22935910Y-34301441D01*
X23063502Y-34388621D01*
X22754389Y-34388351D01*
X22437637Y-34519230D01*
X22195082Y-34761362D01*
X22063650Y-35077885D01*
X22063351Y-35420611D01*
X22165000Y-35666621D01*
X22165000Y-37225000D01*
X22222852Y-37515839D01*
X22387599Y-37762401D01*
X22743532Y-38118334D01*
X22848946Y-38648285D01*
X23170853Y-39130054D01*
X23511553Y-39357702D01*
X23368642Y-39424817D01*
X22978355Y-39853076D01*
X22808524Y-40263110D01*
X22929845Y-40493000D01*
X24123000Y-40493000D01*
X24123000Y-40473000D01*
X24377000Y-40473000D01*
X24377000Y-40493000D01*
X24397000Y-40493000D01*
X24397000Y-40747000D01*
X24377000Y-40747000D01*
X24377000Y-40767000D01*
X24123000Y-40767000D01*
X24123000Y-40747000D01*
X22929845Y-40747000D01*
X22808524Y-40976890D01*
X22978355Y-41386924D01*
X23368642Y-41815183D01*
X23511553Y-41882298D01*
X23170853Y-42109946D01*
X22977046Y-42400000D01*
X12372954Y-42400000D01*
X12179147Y-42109946D01*
X11838447Y-41882298D01*
X11981358Y-41815183D01*
X12371645Y-41386924D01*
X12541476Y-40976890D01*
X12420155Y-40747000D01*
X11227000Y-40747000D01*
X11227000Y-40767000D01*
X10973000Y-40767000D01*
X10973000Y-40747000D01*
X9779845Y-40747000D01*
X9658524Y-40976890D01*
X9687141Y-41045982D01*
X9551890Y-40953569D01*
X9300000Y-40902560D01*
X8795466Y-40902560D01*
X8888327Y-40809698D01*
X8985000Y-40576309D01*
X8985000Y-40285750D01*
X8826250Y-40127000D01*
X8077000Y-40127000D01*
X8077000Y-40926250D01*
X8163012Y-41012262D01*
X8048559Y-41085910D01*
X7949367Y-41231083D01*
X7864090Y-41098559D01*
X7737314Y-41011936D01*
X7823000Y-40926250D01*
X7823000Y-40127000D01*
X7073750Y-40127000D01*
X6915000Y-40285750D01*
X6915000Y-40576309D01*
X7011673Y-40809698D01*
X7104534Y-40902560D01*
X6927045Y-40902560D01*
X6914275Y-40871653D01*
X6679590Y-40636559D01*
X6372804Y-40509170D01*
X6190320Y-40509011D01*
X6246431Y-40426890D01*
X6297440Y-40175000D01*
X6297440Y-40102362D01*
X6338225Y-40061577D01*
X6420609Y-40061649D01*
X6737361Y-39930770D01*
X6934612Y-39733862D01*
X7073750Y-39873000D01*
X7823000Y-39873000D01*
X7823000Y-39853000D01*
X8077000Y-39853000D01*
X8077000Y-39873000D01*
X8826250Y-39873000D01*
X8985000Y-39714250D01*
X8985000Y-39423691D01*
X8908506Y-39239019D01*
X9063827Y-39083699D01*
X9160500Y-38850310D01*
X9160500Y-37485750D01*
X9001750Y-37327000D01*
X7827000Y-37327000D01*
X7827000Y-37347000D01*
X7573000Y-37347000D01*
X7573000Y-37327000D01*
X6398250Y-37327000D01*
X6239500Y-37485750D01*
X6239500Y-38338491D01*
X6079387Y-38338351D01*
X5910131Y-38408286D01*
X5910139Y-38399389D01*
X5808490Y-38153379D01*
X5808490Y-37231810D01*
X6239500Y-36800800D01*
X6239500Y-36914250D01*
X6398250Y-37073000D01*
X7573000Y-37073000D01*
X7573000Y-37053000D01*
X7827000Y-37053000D01*
X7827000Y-37073000D01*
X9001750Y-37073000D01*
X9160500Y-36914250D01*
X9160500Y-36800800D01*
X9612102Y-37252402D01*
X9791928Y-37372557D01*
X9698946Y-37511715D01*
X9585907Y-38080000D01*
X9698946Y-38648285D01*
X10020853Y-39130054D01*
X10361553Y-39357702D01*
X10218642Y-39424817D01*
X9828355Y-39853076D01*
X9658524Y-40263110D01*
X9779845Y-40493000D01*
X10973000Y-40493000D01*
X10973000Y-40473000D01*
X11227000Y-40473000D01*
X11227000Y-40493000D01*
X12420155Y-40493000D01*
X12541476Y-40263110D01*
X12371645Y-39853076D01*
X11981358Y-39424817D01*
X11838447Y-39357702D01*
X12179147Y-39130054D01*
X12275089Y-38986466D01*
X12274803Y-39314775D01*
X12447233Y-39732086D01*
X12766235Y-40051645D01*
X13183244Y-40224803D01*
X13634775Y-40225197D01*
X14052086Y-40052767D01*
X14225420Y-39879735D01*
X14335910Y-40051441D01*
X14548110Y-40196431D01*
X14800000Y-40247440D01*
X17300000Y-40247440D01*
X17535317Y-40203162D01*
X17751441Y-40064090D01*
X17896431Y-39851890D01*
X17947440Y-39600000D01*
X17947440Y-37800000D01*
X17903162Y-37564683D01*
X17764090Y-37348559D01*
X17551890Y-37203569D01*
X17300000Y-37152560D01*
X17185000Y-37152560D01*
X17185000Y-36488128D01*
X17689471Y-35983657D01*
X17933181Y-36084855D01*
X18265365Y-36085145D01*
X18572374Y-35958292D01*
X18807468Y-35723607D01*
X18847427Y-35627375D01*
X19327362Y-35147440D01*
X19663488Y-35147440D01*
X19663488Y-35581380D01*
X19247434Y-35997434D01*
X19001397Y-36365654D01*
X18915000Y-36800000D01*
X18915000Y-37152560D01*
X18800000Y-37152560D01*
X18564683Y-37196838D01*
X18348559Y-37335910D01*
X18203569Y-37548110D01*
X18152560Y-37800000D01*
X18152560Y-39600000D01*
X18196838Y-39835317D01*
X18335910Y-40051441D01*
X18548110Y-40196431D01*
X18800000Y-40247440D01*
X21300000Y-40247440D01*
X21535317Y-40203162D01*
X21751441Y-40064090D01*
X21896431Y-39851890D01*
X21947440Y-39600000D01*
X21947440Y-37800000D01*
X21903162Y-37564683D01*
X21764090Y-37348559D01*
X21551890Y-37203569D01*
X21302139Y-37152993D01*
X21601054Y-36854078D01*
X21717825Y-36679318D01*
X21847091Y-36485858D01*
X21933488Y-36051512D01*
X21933488Y-31698488D01*
X21847091Y-31264142D01*
X21601054Y-30895922D01*
X19027565Y-28322433D01*
X18997832Y-28302566D01*
X18659345Y-28076396D01*
X18224999Y-27989999D01*
X12011417Y-27989999D01*
X12048604Y-27934345D01*
X12055945Y-27897440D01*
X12450000Y-27897440D01*
X12685317Y-27853162D01*
X12901441Y-27714090D01*
X13046431Y-27501890D01*
X13097440Y-27250000D01*
X13097440Y-21850000D01*
X13053162Y-21614683D01*
X12914090Y-21398559D01*
X12701890Y-21253569D01*
X12450000Y-21202560D01*
X9550000Y-21202560D01*
X9314683Y-21246838D01*
X9098559Y-21385910D01*
X8953569Y-21598110D01*
X8902560Y-21850000D01*
X8902560Y-27250000D01*
X8920802Y-27346946D01*
X8713890Y-27205569D01*
X8462000Y-27154560D01*
X7573465Y-27154560D01*
X7643327Y-27084698D01*
X7740000Y-26851309D01*
X7740000Y-26235750D01*
X7581250Y-26077000D01*
X6932000Y-26077000D01*
X6932000Y-26097000D01*
X6678000Y-26097000D01*
X6678000Y-26077000D01*
X6658000Y-26077000D01*
X6658000Y-25823000D01*
X6678000Y-25823000D01*
X6678000Y-24698750D01*
X6932000Y-24698750D01*
X6932000Y-25823000D01*
X7581250Y-25823000D01*
X7740000Y-25664250D01*
X7740000Y-25048691D01*
X7643327Y-24815302D01*
X7464699Y-24636673D01*
X7231310Y-24540000D01*
X7090750Y-24540000D01*
X6932000Y-24698750D01*
X6678000Y-24698750D01*
X6519250Y-24540000D01*
X6378690Y-24540000D01*
X6161878Y-24629806D01*
X6086890Y-24578569D01*
X5835000Y-24527560D01*
X5235000Y-24527560D01*
X4999683Y-24571838D01*
X4900472Y-24635678D01*
X4816890Y-24578569D01*
X4565000Y-24527560D01*
X3965000Y-24527560D01*
X3755000Y-24567074D01*
X3755000Y-21929914D01*
X3942277Y-21967838D01*
X3915145Y-22033179D01*
X3914855Y-22365363D01*
X4041708Y-22672372D01*
X4276393Y-22907466D01*
X4583179Y-23034855D01*
X4915363Y-23035145D01*
X5222372Y-22908292D01*
X5457466Y-22673607D01*
X5584855Y-22366821D01*
X5585132Y-22049670D01*
X5662362Y-21972440D01*
X5835000Y-21972440D01*
X5918494Y-21956730D01*
X5918351Y-22120611D01*
X6049230Y-22437363D01*
X6291362Y-22679918D01*
X6607885Y-22811350D01*
X6950611Y-22811649D01*
X7267363Y-22680770D01*
X7509918Y-22438638D01*
X7641350Y-22122115D01*
X7641649Y-21779389D01*
X7612037Y-21707722D01*
X7701431Y-21576890D01*
X7752440Y-21325000D01*
X7752440Y-19775000D01*
X7708162Y-19539683D01*
X7569090Y-19323559D01*
X7356890Y-19178569D01*
X7105000Y-19127560D01*
X6987572Y-19127560D01*
X7265132Y-18850000D01*
X11445000Y-18850000D01*
X11531397Y-19284346D01*
X11777434Y-19652566D01*
X12145654Y-19898603D01*
X12580000Y-19985000D01*
X13089868Y-19985000D01*
X18457434Y-25352566D01*
X18825654Y-25598603D01*
X18862560Y-25605944D01*
X18862560Y-27250000D01*
X18906838Y-27485317D01*
X19045910Y-27701441D01*
X19258110Y-27846431D01*
X19510000Y-27897440D01*
X22410000Y-27897440D01*
X22645317Y-27853162D01*
X22861441Y-27714090D01*
X23006431Y-27501890D01*
X23057440Y-27250000D01*
X23057440Y-21850000D01*
X23013162Y-21614683D01*
X22874090Y-21398559D01*
X22661890Y-21253569D01*
X22410000Y-21202560D01*
X19510000Y-21202560D01*
X19274683Y-21246838D01*
X19058559Y-21385910D01*
X18913569Y-21598110D01*
X18862560Y-21850000D01*
X18862560Y-22547428D01*
X14362566Y-18047434D01*
X13994346Y-17801397D01*
X13560000Y-17715000D01*
X12580000Y-17715000D01*
X12145654Y-17801397D01*
X11777434Y-18047434D01*
X11531397Y-18415654D01*
X11445000Y-18850000D01*
X7265132Y-18850000D01*
X7602566Y-18512566D01*
X7848603Y-18144345D01*
X7935000Y-17710000D01*
X7848603Y-17275655D01*
X7602566Y-16907434D01*
X7234345Y-16661397D01*
X6800000Y-16575000D01*
X6365655Y-16661397D01*
X5997434Y-16907434D01*
X4732434Y-18172434D01*
X4486397Y-18540654D01*
X4400000Y-18975000D01*
X4400000Y-19127560D01*
X4130000Y-19127560D01*
X4130000Y-18975000D01*
X4105136Y-18850000D01*
X4043604Y-18540655D01*
X3797566Y-18172434D01*
X3532566Y-17907434D01*
X3164345Y-17661397D01*
X2730000Y-17575000D01*
X2295655Y-17661397D01*
X1927434Y-17907434D01*
X1681397Y-18275655D01*
X1595000Y-18710000D01*
X1681397Y-19144345D01*
X1860000Y-19411644D01*
X1860000Y-20550000D01*
X1946397Y-20984346D01*
X2047560Y-21135747D01*
X2047560Y-21325000D01*
X2091838Y-21560317D01*
X2230910Y-21776441D01*
X2235000Y-21779236D01*
X2235000Y-24723437D01*
X2098569Y-24923110D01*
X2047560Y-25175000D01*
X2047560Y-26725000D01*
X2091838Y-26960317D01*
X2230910Y-27176441D01*
X2234970Y-27179215D01*
X2130683Y-27198838D01*
X1914559Y-27337910D01*
X1769569Y-27550110D01*
X1718560Y-27802000D01*
X1718560Y-33898000D01*
X1762838Y-34133317D01*
X1901910Y-34349441D01*
X2114110Y-34494431D01*
X2366000Y-34545440D01*
X3739759Y-34545440D01*
X3673797Y-34572695D01*
X3431242Y-34814827D01*
X3342492Y-35028560D01*
X2302500Y-35028560D01*
X2067183Y-35072838D01*
X1851059Y-35211910D01*
X1706069Y-35424110D01*
X1655060Y-35676000D01*
X1655060Y-38724000D01*
X1699338Y-38959317D01*
X1735180Y-39015018D01*
X1710406Y-39039792D01*
X1650000Y-39027560D01*
X750000Y-39027560D01*
X710000Y-39035087D01*
X710000Y-17102451D01*
X1125000Y-17185000D01*
X1559345Y-17098603D01*
X1927566Y-16852566D01*
X2732692Y-16047440D01*
X4220000Y-16047440D01*
X4455317Y-16003162D01*
X4671441Y-15864090D01*
X4816431Y-15651890D01*
X4867440Y-15400000D01*
X4867440Y-14985750D01*
X6385000Y-14985750D01*
X6385000Y-15526309D01*
X6481673Y-15759698D01*
X6660301Y-15938327D01*
X6893690Y-16035000D01*
X8434250Y-16035000D01*
X8593000Y-15876250D01*
X8593000Y-14827000D01*
X8847000Y-14827000D01*
X8847000Y-15876250D01*
X9005750Y-16035000D01*
X10546310Y-16035000D01*
X10779699Y-15938327D01*
X10958327Y-15759698D01*
X11055000Y-15526309D01*
X11055000Y-14985750D01*
X10896250Y-14827000D01*
X8847000Y-14827000D01*
X8593000Y-14827000D01*
X6543750Y-14827000D01*
X6385000Y-14985750D01*
X4867440Y-14985750D01*
X4867440Y-14000000D01*
X4843674Y-13873691D01*
X6385000Y-13873691D01*
X6385000Y-14414250D01*
X6543750Y-14573000D01*
X8593000Y-14573000D01*
X8593000Y-13523750D01*
X8847000Y-13523750D01*
X8847000Y-14573000D01*
X10896250Y-14573000D01*
X11055000Y-14414250D01*
X11055000Y-13873691D01*
X10958327Y-13640302D01*
X10779699Y-13461673D01*
X10546310Y-13365000D01*
X9005750Y-13365000D01*
X8847000Y-13523750D01*
X8593000Y-13523750D01*
X8434250Y-13365000D01*
X6893690Y-13365000D01*
X6660301Y-13461673D01*
X6481673Y-13640302D01*
X6385000Y-13873691D01*
X4843674Y-13873691D01*
X4823162Y-13764683D01*
X4684090Y-13548559D01*
X4471890Y-13403569D01*
X4220000Y-13352560D01*
X820000Y-13352560D01*
X710000Y-13373258D01*
X710000Y-12505750D01*
X11875000Y-12505750D01*
X11875000Y-14246309D01*
X11971673Y-14479698D01*
X12150301Y-14658327D01*
X12383690Y-14755000D01*
X12724250Y-14755000D01*
X12883000Y-14596250D01*
X12883000Y-12347000D01*
X12033750Y-12347000D01*
X11875000Y-12505750D01*
X710000Y-12505750D01*
X710000Y-10193691D01*
X11875000Y-10193691D01*
X11875000Y-11934250D01*
X12033750Y-12093000D01*
X12883000Y-12093000D01*
X12883000Y-9843750D01*
X12724250Y-9685000D01*
X12383690Y-9685000D01*
X12150301Y-9781673D01*
X11971673Y-9960302D01*
X11875000Y-10193691D01*
X710000Y-10193691D01*
X710000Y-4881929D01*
X2131999Y-4895655D01*
X2131999Y-4895655D01*
G37*
X2131999Y-4895655D02*
X1479274Y-5547242D01*
X1115415Y-6423513D01*
X1114587Y-7372325D01*
X1476916Y-8249229D01*
X2147242Y-8920726D01*
X3023513Y-9284585D01*
X3972325Y-9285413D01*
X4849229Y-8923084D01*
X5520726Y-8252758D01*
X5884585Y-7376487D01*
X5885413Y-6427675D01*
X5523084Y-5550771D01*
X4895741Y-4922332D01*
X13954641Y-5009773D01*
X14125000Y-5180132D01*
X14125000Y-9755982D01*
X14008559Y-9830910D01*
X13972179Y-9884154D01*
X13869699Y-9781673D01*
X13636310Y-9685000D01*
X13295750Y-9685000D01*
X13137000Y-9843750D01*
X13137000Y-12093000D01*
X13157000Y-12093000D01*
X13157000Y-12347000D01*
X13137000Y-12347000D01*
X13137000Y-14596250D01*
X13295750Y-14755000D01*
X13636310Y-14755000D01*
X13869699Y-14658327D01*
X13925280Y-14602745D01*
X14431861Y-14602745D01*
X14505995Y-14848864D01*
X15043223Y-15041965D01*
X15613454Y-15014778D01*
X16014005Y-14848864D01*
X16088139Y-14602745D01*
X15260000Y-13774605D01*
X14431861Y-14602745D01*
X13925280Y-14602745D01*
X14048327Y-14479698D01*
X14091777Y-14374801D01*
X14252255Y-14423139D01*
X15080395Y-13595000D01*
X14252255Y-12766861D01*
X14145000Y-12799167D01*
X14145000Y-12505750D01*
X13986252Y-12347002D01*
X13996731Y-12347002D01*
X14208110Y-12491431D01*
X14446201Y-12539646D01*
X14431861Y-12587255D01*
X15260000Y-13415395D01*
X15274142Y-13401252D01*
X15453748Y-13580858D01*
X15439605Y-13595000D01*
X16267745Y-14423139D01*
X16420812Y-14377033D01*
X16545910Y-14571441D01*
X16758110Y-14716431D01*
X17010000Y-14767440D01*
X18010000Y-14767440D01*
X18245317Y-14723162D01*
X18461441Y-14584090D01*
X18606431Y-14371890D01*
X18657440Y-14120000D01*
X18657440Y-10320000D01*
X18613162Y-10084683D01*
X18474090Y-9868559D01*
X18261890Y-9723569D01*
X18010000Y-9672560D01*
X17010000Y-9672560D01*
X16774683Y-9716838D01*
X16558559Y-9855910D01*
X16544901Y-9875900D01*
X16524090Y-9843559D01*
X16395000Y-9755356D01*
X16395000Y-7972325D01*
X19814587Y-7972325D01*
X20176916Y-8849229D01*
X20847242Y-9520726D01*
X21723513Y-9884585D01*
X22672325Y-9885413D01*
X23549229Y-9523084D01*
X24220726Y-8852758D01*
X24584585Y-7976487D01*
X24585413Y-7027675D01*
X24223084Y-6150771D01*
X23552758Y-5479274D01*
X22676487Y-5115415D01*
X21727675Y-5114587D01*
X20850771Y-5476916D01*
X20179274Y-6147242D01*
X19815415Y-7023513D01*
X19814587Y-7972325D01*
X16395000Y-7972325D01*
X16395000Y-5033328D01*
X25040000Y-5116774D01*
X25040000Y-31502560D01*
X23400000Y-31502560D01*
X23164683Y-31546838D01*
X22948559Y-31685910D01*
X22803569Y-31898110D01*
X22752560Y-32150000D01*
X22752560Y-33850000D01*
X22796838Y-34085317D01*
X22935910Y-34301441D01*
X23063502Y-34388621D01*
X22754389Y-34388351D01*
X22437637Y-34519230D01*
X22195082Y-34761362D01*
X22063650Y-35077885D01*
X22063351Y-35420611D01*
X22165000Y-35666621D01*
X22165000Y-37225000D01*
X22222852Y-37515839D01*
X22387599Y-37762401D01*
X22743532Y-38118334D01*
X22848946Y-38648285D01*
X23170853Y-39130054D01*
X23511553Y-39357702D01*
X23368642Y-39424817D01*
X22978355Y-39853076D01*
X22808524Y-40263110D01*
X22929845Y-40493000D01*
X24123000Y-40493000D01*
X24123000Y-40473000D01*
X24377000Y-40473000D01*
X24377000Y-40493000D01*
X24397000Y-40493000D01*
X24397000Y-40747000D01*
X24377000Y-40747000D01*
X24377000Y-40767000D01*
X24123000Y-40767000D01*
X24123000Y-40747000D01*
X22929845Y-40747000D01*
X22808524Y-40976890D01*
X22978355Y-41386924D01*
X23368642Y-41815183D01*
X23511553Y-41882298D01*
X23170853Y-42109946D01*
X22977046Y-42400000D01*
X12372954Y-42400000D01*
X12179147Y-42109946D01*
X11838447Y-41882298D01*
X11981358Y-41815183D01*
X12371645Y-41386924D01*
X12541476Y-40976890D01*
X12420155Y-40747000D01*
X11227000Y-40747000D01*
X11227000Y-40767000D01*
X10973000Y-40767000D01*
X10973000Y-40747000D01*
X9779845Y-40747000D01*
X9658524Y-40976890D01*
X9687141Y-41045982D01*
X9551890Y-40953569D01*
X9300000Y-40902560D01*
X8795466Y-40902560D01*
X8888327Y-40809698D01*
X8985000Y-40576309D01*
X8985000Y-40285750D01*
X8826250Y-40127000D01*
X8077000Y-40127000D01*
X8077000Y-40926250D01*
X8163012Y-41012262D01*
X8048559Y-41085910D01*
X7949367Y-41231083D01*
X7864090Y-41098559D01*
X7737314Y-41011936D01*
X7823000Y-40926250D01*
X7823000Y-40127000D01*
X7073750Y-40127000D01*
X6915000Y-40285750D01*
X6915000Y-40576309D01*
X7011673Y-40809698D01*
X7104534Y-40902560D01*
X6927045Y-40902560D01*
X6914275Y-40871653D01*
X6679590Y-40636559D01*
X6372804Y-40509170D01*
X6190320Y-40509011D01*
X6246431Y-40426890D01*
X6297440Y-40175000D01*
X6297440Y-40102362D01*
X6338225Y-40061577D01*
X6420609Y-40061649D01*
X6737361Y-39930770D01*
X6934612Y-39733862D01*
X7073750Y-39873000D01*
X7823000Y-39873000D01*
X7823000Y-39853000D01*
X8077000Y-39853000D01*
X8077000Y-39873000D01*
X8826250Y-39873000D01*
X8985000Y-39714250D01*
X8985000Y-39423691D01*
X8908506Y-39239019D01*
X9063827Y-39083699D01*
X9160500Y-38850310D01*
X9160500Y-37485750D01*
X9001750Y-37327000D01*
X7827000Y-37327000D01*
X7827000Y-37347000D01*
X7573000Y-37347000D01*
X7573000Y-37327000D01*
X6398250Y-37327000D01*
X6239500Y-37485750D01*
X6239500Y-38338491D01*
X6079387Y-38338351D01*
X5910131Y-38408286D01*
X5910139Y-38399389D01*
X5808490Y-38153379D01*
X5808490Y-37231810D01*
X6239500Y-36800800D01*
X6239500Y-36914250D01*
X6398250Y-37073000D01*
X7573000Y-37073000D01*
X7573000Y-37053000D01*
X7827000Y-37053000D01*
X7827000Y-37073000D01*
X9001750Y-37073000D01*
X9160500Y-36914250D01*
X9160500Y-36800800D01*
X9612102Y-37252402D01*
X9791928Y-37372557D01*
X9698946Y-37511715D01*
X9585907Y-38080000D01*
X9698946Y-38648285D01*
X10020853Y-39130054D01*
X10361553Y-39357702D01*
X10218642Y-39424817D01*
X9828355Y-39853076D01*
X9658524Y-40263110D01*
X9779845Y-40493000D01*
X10973000Y-40493000D01*
X10973000Y-40473000D01*
X11227000Y-40473000D01*
X11227000Y-40493000D01*
X12420155Y-40493000D01*
X12541476Y-40263110D01*
X12371645Y-39853076D01*
X11981358Y-39424817D01*
X11838447Y-39357702D01*
X12179147Y-39130054D01*
X12275089Y-38986466D01*
X12274803Y-39314775D01*
X12447233Y-39732086D01*
X12766235Y-40051645D01*
X13183244Y-40224803D01*
X13634775Y-40225197D01*
X14052086Y-40052767D01*
X14225420Y-39879735D01*
X14335910Y-40051441D01*
X14548110Y-40196431D01*
X14800000Y-40247440D01*
X17300000Y-40247440D01*
X17535317Y-40203162D01*
X17751441Y-40064090D01*
X17896431Y-39851890D01*
X17947440Y-39600000D01*
X17947440Y-37800000D01*
X17903162Y-37564683D01*
X17764090Y-37348559D01*
X17551890Y-37203569D01*
X17300000Y-37152560D01*
X17185000Y-37152560D01*
X17185000Y-36488128D01*
X17689471Y-35983657D01*
X17933181Y-36084855D01*
X18265365Y-36085145D01*
X18572374Y-35958292D01*
X18807468Y-35723607D01*
X18847427Y-35627375D01*
X19327362Y-35147440D01*
X19663488Y-35147440D01*
X19663488Y-35581380D01*
X19247434Y-35997434D01*
X19001397Y-36365654D01*
X18915000Y-36800000D01*
X18915000Y-37152560D01*
X18800000Y-37152560D01*
X18564683Y-37196838D01*
X18348559Y-37335910D01*
X18203569Y-37548110D01*
X18152560Y-37800000D01*
X18152560Y-39600000D01*
X18196838Y-39835317D01*
X18335910Y-40051441D01*
X18548110Y-40196431D01*
X18800000Y-40247440D01*
X21300000Y-40247440D01*
X21535317Y-40203162D01*
X21751441Y-40064090D01*
X21896431Y-39851890D01*
X21947440Y-39600000D01*
X21947440Y-37800000D01*
X21903162Y-37564683D01*
X21764090Y-37348559D01*
X21551890Y-37203569D01*
X21302139Y-37152993D01*
X21601054Y-36854078D01*
X21717825Y-36679318D01*
X21847091Y-36485858D01*
X21933488Y-36051512D01*
X21933488Y-31698488D01*
X21847091Y-31264142D01*
X21601054Y-30895922D01*
X19027565Y-28322433D01*
X18997832Y-28302566D01*
X18659345Y-28076396D01*
X18224999Y-27989999D01*
X12011417Y-27989999D01*
X12048604Y-27934345D01*
X12055945Y-27897440D01*
X12450000Y-27897440D01*
X12685317Y-27853162D01*
X12901441Y-27714090D01*
X13046431Y-27501890D01*
X13097440Y-27250000D01*
X13097440Y-21850000D01*
X13053162Y-21614683D01*
X12914090Y-21398559D01*
X12701890Y-21253569D01*
X12450000Y-21202560D01*
X9550000Y-21202560D01*
X9314683Y-21246838D01*
X9098559Y-21385910D01*
X8953569Y-21598110D01*
X8902560Y-21850000D01*
X8902560Y-27250000D01*
X8920802Y-27346946D01*
X8713890Y-27205569D01*
X8462000Y-27154560D01*
X7573465Y-27154560D01*
X7643327Y-27084698D01*
X7740000Y-26851309D01*
X7740000Y-26235750D01*
X7581250Y-26077000D01*
X6932000Y-26077000D01*
X6932000Y-26097000D01*
X6678000Y-26097000D01*
X6678000Y-26077000D01*
X6658000Y-26077000D01*
X6658000Y-25823000D01*
X6678000Y-25823000D01*
X6678000Y-24698750D01*
X6932000Y-24698750D01*
X6932000Y-25823000D01*
X7581250Y-25823000D01*
X7740000Y-25664250D01*
X7740000Y-25048691D01*
X7643327Y-24815302D01*
X7464699Y-24636673D01*
X7231310Y-24540000D01*
X7090750Y-24540000D01*
X6932000Y-24698750D01*
X6678000Y-24698750D01*
X6519250Y-24540000D01*
X6378690Y-24540000D01*
X6161878Y-24629806D01*
X6086890Y-24578569D01*
X5835000Y-24527560D01*
X5235000Y-24527560D01*
X4999683Y-24571838D01*
X4900472Y-24635678D01*
X4816890Y-24578569D01*
X4565000Y-24527560D01*
X3965000Y-24527560D01*
X3755000Y-24567074D01*
X3755000Y-21929914D01*
X3942277Y-21967838D01*
X3915145Y-22033179D01*
X3914855Y-22365363D01*
X4041708Y-22672372D01*
X4276393Y-22907466D01*
X4583179Y-23034855D01*
X4915363Y-23035145D01*
X5222372Y-22908292D01*
X5457466Y-22673607D01*
X5584855Y-22366821D01*
X5585132Y-22049670D01*
X5662362Y-21972440D01*
X5835000Y-21972440D01*
X5918494Y-21956730D01*
X5918351Y-22120611D01*
X6049230Y-22437363D01*
X6291362Y-22679918D01*
X6607885Y-22811350D01*
X6950611Y-22811649D01*
X7267363Y-22680770D01*
X7509918Y-22438638D01*
X7641350Y-22122115D01*
X7641649Y-21779389D01*
X7612037Y-21707722D01*
X7701431Y-21576890D01*
X7752440Y-21325000D01*
X7752440Y-19775000D01*
X7708162Y-19539683D01*
X7569090Y-19323559D01*
X7356890Y-19178569D01*
X7105000Y-19127560D01*
X6987572Y-19127560D01*
X7265132Y-18850000D01*
X11445000Y-18850000D01*
X11531397Y-19284346D01*
X11777434Y-19652566D01*
X12145654Y-19898603D01*
X12580000Y-19985000D01*
X13089868Y-19985000D01*
X18457434Y-25352566D01*
X18825654Y-25598603D01*
X18862560Y-25605944D01*
X18862560Y-27250000D01*
X18906838Y-27485317D01*
X19045910Y-27701441D01*
X19258110Y-27846431D01*
X19510000Y-27897440D01*
X22410000Y-27897440D01*
X22645317Y-27853162D01*
X22861441Y-27714090D01*
X23006431Y-27501890D01*
X23057440Y-27250000D01*
X23057440Y-21850000D01*
X23013162Y-21614683D01*
X22874090Y-21398559D01*
X22661890Y-21253569D01*
X22410000Y-21202560D01*
X19510000Y-21202560D01*
X19274683Y-21246838D01*
X19058559Y-21385910D01*
X18913569Y-21598110D01*
X18862560Y-21850000D01*
X18862560Y-22547428D01*
X14362566Y-18047434D01*
X13994346Y-17801397D01*
X13560000Y-17715000D01*
X12580000Y-17715000D01*
X12145654Y-17801397D01*
X11777434Y-18047434D01*
X11531397Y-18415654D01*
X11445000Y-18850000D01*
X7265132Y-18850000D01*
X7602566Y-18512566D01*
X7848603Y-18144345D01*
X7935000Y-17710000D01*
X7848603Y-17275655D01*
X7602566Y-16907434D01*
X7234345Y-16661397D01*
X6800000Y-16575000D01*
X6365655Y-16661397D01*
X5997434Y-16907434D01*
X4732434Y-18172434D01*
X4486397Y-18540654D01*
X4400000Y-18975000D01*
X4400000Y-19127560D01*
X4130000Y-19127560D01*
X4130000Y-18975000D01*
X4105136Y-18850000D01*
X4043604Y-18540655D01*
X3797566Y-18172434D01*
X3532566Y-17907434D01*
X3164345Y-17661397D01*
X2730000Y-17575000D01*
X2295655Y-17661397D01*
X1927434Y-17907434D01*
X1681397Y-18275655D01*
X1595000Y-18710000D01*
X1681397Y-19144345D01*
X1860000Y-19411644D01*
X1860000Y-20550000D01*
X1946397Y-20984346D01*
X2047560Y-21135747D01*
X2047560Y-21325000D01*
X2091838Y-21560317D01*
X2230910Y-21776441D01*
X2235000Y-21779236D01*
X2235000Y-24723437D01*
X2098569Y-24923110D01*
X2047560Y-25175000D01*
X2047560Y-26725000D01*
X2091838Y-26960317D01*
X2230910Y-27176441D01*
X2234970Y-27179215D01*
X2130683Y-27198838D01*
X1914559Y-27337910D01*
X1769569Y-27550110D01*
X1718560Y-27802000D01*
X1718560Y-33898000D01*
X1762838Y-34133317D01*
X1901910Y-34349441D01*
X2114110Y-34494431D01*
X2366000Y-34545440D01*
X3739759Y-34545440D01*
X3673797Y-34572695D01*
X3431242Y-34814827D01*
X3342492Y-35028560D01*
X2302500Y-35028560D01*
X2067183Y-35072838D01*
X1851059Y-35211910D01*
X1706069Y-35424110D01*
X1655060Y-35676000D01*
X1655060Y-38724000D01*
X1699338Y-38959317D01*
X1735180Y-39015018D01*
X1710406Y-39039792D01*
X1650000Y-39027560D01*
X750000Y-39027560D01*
X710000Y-39035087D01*
X710000Y-17102451D01*
X1125000Y-17185000D01*
X1559345Y-17098603D01*
X1927566Y-16852566D01*
X2732692Y-16047440D01*
X4220000Y-16047440D01*
X4455317Y-16003162D01*
X4671441Y-15864090D01*
X4816431Y-15651890D01*
X4867440Y-15400000D01*
X4867440Y-14985750D01*
X6385000Y-14985750D01*
X6385000Y-15526309D01*
X6481673Y-15759698D01*
X6660301Y-15938327D01*
X6893690Y-16035000D01*
X8434250Y-16035000D01*
X8593000Y-15876250D01*
X8593000Y-14827000D01*
X8847000Y-14827000D01*
X8847000Y-15876250D01*
X9005750Y-16035000D01*
X10546310Y-16035000D01*
X10779699Y-15938327D01*
X10958327Y-15759698D01*
X11055000Y-15526309D01*
X11055000Y-14985750D01*
X10896250Y-14827000D01*
X8847000Y-14827000D01*
X8593000Y-14827000D01*
X6543750Y-14827000D01*
X6385000Y-14985750D01*
X4867440Y-14985750D01*
X4867440Y-14000000D01*
X4843674Y-13873691D01*
X6385000Y-13873691D01*
X6385000Y-14414250D01*
X6543750Y-14573000D01*
X8593000Y-14573000D01*
X8593000Y-13523750D01*
X8847000Y-13523750D01*
X8847000Y-14573000D01*
X10896250Y-14573000D01*
X11055000Y-14414250D01*
X11055000Y-13873691D01*
X10958327Y-13640302D01*
X10779699Y-13461673D01*
X10546310Y-13365000D01*
X9005750Y-13365000D01*
X8847000Y-13523750D01*
X8593000Y-13523750D01*
X8434250Y-13365000D01*
X6893690Y-13365000D01*
X6660301Y-13461673D01*
X6481673Y-13640302D01*
X6385000Y-13873691D01*
X4843674Y-13873691D01*
X4823162Y-13764683D01*
X4684090Y-13548559D01*
X4471890Y-13403569D01*
X4220000Y-13352560D01*
X820000Y-13352560D01*
X710000Y-13373258D01*
X710000Y-12505750D01*
X11875000Y-12505750D01*
X11875000Y-14246309D01*
X11971673Y-14479698D01*
X12150301Y-14658327D01*
X12383690Y-14755000D01*
X12724250Y-14755000D01*
X12883000Y-14596250D01*
X12883000Y-12347000D01*
X12033750Y-12347000D01*
X11875000Y-12505750D01*
X710000Y-12505750D01*
X710000Y-10193691D01*
X11875000Y-10193691D01*
X11875000Y-11934250D01*
X12033750Y-12093000D01*
X12883000Y-12093000D01*
X12883000Y-9843750D01*
X12724250Y-9685000D01*
X12383690Y-9685000D01*
X12150301Y-9781673D01*
X11971673Y-9960302D01*
X11875000Y-10193691D01*
X710000Y-10193691D01*
X710000Y-4881929D01*
X2131999Y-4895655D01*
G36*
X1327000Y-41300000D02*
X1930138Y-41300000D01*
X2077885Y-41361350D01*
X2420611Y-41361649D01*
X2569813Y-41300000D01*
X3073000Y-41300000D01*
X3073000Y-41278000D01*
X3327000Y-41278000D01*
X3327000Y-41300000D01*
X3347000Y-41300000D01*
X3347000Y-41550000D01*
X3327000Y-41550000D01*
X3327000Y-41572000D01*
X3073000Y-41572000D01*
X3073000Y-41550000D01*
X2273750Y-41550000D01*
X2200000Y-41623750D01*
X2126250Y-41550000D01*
X1327000Y-41550000D01*
X1327000Y-41572000D01*
X1073000Y-41572000D01*
X1073000Y-41550000D01*
X1053000Y-41550000D01*
X1053000Y-41300000D01*
X1073000Y-41300000D01*
X1073000Y-41278000D01*
X1327000Y-41278000D01*
X1327000Y-41300000D01*
X1327000Y-41300000D01*
G37*
X1327000Y-41300000D02*
X1930138Y-41300000D01*
X2077885Y-41361350D01*
X2420611Y-41361649D01*
X2569813Y-41300000D01*
X3073000Y-41300000D01*
X3073000Y-41278000D01*
X3327000Y-41278000D01*
X3327000Y-41300000D01*
X3347000Y-41300000D01*
X3347000Y-41550000D01*
X3327000Y-41550000D01*
X3327000Y-41572000D01*
X3073000Y-41572000D01*
X3073000Y-41550000D01*
X2273750Y-41550000D01*
X2200000Y-41623750D01*
X2126250Y-41550000D01*
X1327000Y-41550000D01*
X1327000Y-41572000D01*
X1073000Y-41572000D01*
X1073000Y-41550000D01*
X1053000Y-41550000D01*
X1053000Y-41300000D01*
X1073000Y-41300000D01*
X1073000Y-41278000D01*
X1327000Y-41278000D01*
X1327000Y-41300000D01*
G36*
X9811673Y-790301D02*
X9715000Y-1023690D01*
X9715000Y-1714250D01*
X9873750Y-1873000D01*
X11073000Y-1873000D01*
X11073000Y-1853000D01*
X11327000Y-1853000D01*
X11327000Y-1873000D01*
X12526250Y-1873000D01*
X12685000Y-1714250D01*
X12685000Y-1023690D01*
X12588327Y-790301D01*
X12508026Y-710000D01*
X22941974Y-710000D01*
X22861673Y-790301D01*
X22765000Y-1023690D01*
X22765000Y-1714250D01*
X22923750Y-1873000D01*
X24123000Y-1873000D01*
X24123000Y-1853000D01*
X24377000Y-1853000D01*
X24377000Y-1873000D01*
X24397000Y-1873000D01*
X24397000Y-2127000D01*
X24377000Y-2127000D01*
X24377000Y-3326250D01*
X24535750Y-3485000D01*
X25040000Y-3485000D01*
X25040000Y-3760500D01*
X8777000Y-3599253D01*
X8777000Y-2285750D01*
X9715000Y-2285750D01*
X9715000Y-2976310D01*
X9811673Y-3209699D01*
X9990302Y-3388327D01*
X10223691Y-3485000D01*
X10914250Y-3485000D01*
X11073000Y-3326250D01*
X11073000Y-2127000D01*
X11327000Y-2127000D01*
X11327000Y-3326250D01*
X11485750Y-3485000D01*
X12176309Y-3485000D01*
X12409698Y-3388327D01*
X12588327Y-3209699D01*
X12685000Y-2976310D01*
X12685000Y-2285750D01*
X22765000Y-2285750D01*
X22765000Y-2976310D01*
X22861673Y-3209699D01*
X23040302Y-3388327D01*
X23273691Y-3485000D01*
X23964250Y-3485000D01*
X24123000Y-3326250D01*
X24123000Y-2127000D01*
X22923750Y-2127000D01*
X22765000Y-2285750D01*
X12685000Y-2285750D01*
X12526250Y-2127000D01*
X11327000Y-2127000D01*
X11073000Y-2127000D01*
X9873750Y-2127000D01*
X9715000Y-2285750D01*
X8777000Y-2285750D01*
X8777000Y-710000D01*
X9891974Y-710000D01*
X9811673Y-790301D01*
X9811673Y-790301D01*
G37*
X9811673Y-790301D02*
X9715000Y-1023690D01*
X9715000Y-1714250D01*
X9873750Y-1873000D01*
X11073000Y-1873000D01*
X11073000Y-1853000D01*
X11327000Y-1853000D01*
X11327000Y-1873000D01*
X12526250Y-1873000D01*
X12685000Y-1714250D01*
X12685000Y-1023690D01*
X12588327Y-790301D01*
X12508026Y-710000D01*
X22941974Y-710000D01*
X22861673Y-790301D01*
X22765000Y-1023690D01*
X22765000Y-1714250D01*
X22923750Y-1873000D01*
X24123000Y-1873000D01*
X24123000Y-1853000D01*
X24377000Y-1853000D01*
X24377000Y-1873000D01*
X24397000Y-1873000D01*
X24397000Y-2127000D01*
X24377000Y-2127000D01*
X24377000Y-3326250D01*
X24535750Y-3485000D01*
X25040000Y-3485000D01*
X25040000Y-3760500D01*
X8777000Y-3599253D01*
X8777000Y-2285750D01*
X9715000Y-2285750D01*
X9715000Y-2976310D01*
X9811673Y-3209699D01*
X9990302Y-3388327D01*
X10223691Y-3485000D01*
X10914250Y-3485000D01*
X11073000Y-3326250D01*
X11073000Y-2127000D01*
X11327000Y-2127000D01*
X11327000Y-3326250D01*
X11485750Y-3485000D01*
X12176309Y-3485000D01*
X12409698Y-3388327D01*
X12588327Y-3209699D01*
X12685000Y-2976310D01*
X12685000Y-2285750D01*
X22765000Y-2285750D01*
X22765000Y-2976310D01*
X22861673Y-3209699D01*
X23040302Y-3388327D01*
X23273691Y-3485000D01*
X23964250Y-3485000D01*
X24123000Y-3326250D01*
X24123000Y-2127000D01*
X22923750Y-2127000D01*
X22765000Y-2285750D01*
X12685000Y-2285750D01*
X12526250Y-2127000D01*
X11327000Y-2127000D01*
X11073000Y-2127000D01*
X9873750Y-2127000D01*
X9715000Y-2285750D01*
X8777000Y-2285750D01*
X8777000Y-710000D01*
X9891974Y-710000D01*
X9811673Y-790301D01*
M02*
