%TF.GenerationSoftware,KiCad,Pcbnew,4.0.7*%
%TF.CreationDate,2017-11-25T15:28:15+08:00*%
%TF.ProjectId,nixie_tube,6E697869655F747562652E6B69636164,rev?*%
%TF.FileFunction,Copper,L2,Bot,Signal*%
%FSLAX46Y46*%
G04 Gerber Fmt 4.6, Leading zero omitted, Abs format (unit mm)*
G04 Created by KiCad (PCBNEW 4.0.7) date 11/25/17 15:28:15*
%MOMM*%
%LPD*%
G01*
G04 APERTURE LIST*
%ADD10C,0.100000*%
%ADD11C,0.300000*%
%ADD12C,1.453000*%
%ADD13R,1.600000X1.600000*%
%ADD14C,1.600000*%
%ADD15R,1.000000X3.200000*%
%ADD16R,1.000000X1.300000*%
%ADD17C,3.500000*%
%ADD18R,1.700000X1.700000*%
%ADD19O,1.700000X1.700000*%
%ADD20C,0.453000*%
%ADD21C,1.000000*%
%ADD22C,0.600000*%
%ADD23C,0.400000*%
%ADD24C,0.250000*%
%ADD25C,1.000000*%
%ADD26C,0.500000*%
%ADD27C,0.254000*%
G04 APERTURE END LIST*
D10*
D11*
X12130952Y-51188095D02*
X11697619Y-52488095D01*
X11264286Y-51188095D01*
X10830952Y-52364286D02*
X10769047Y-52426190D01*
X10830952Y-52488095D01*
X10892857Y-52426190D01*
X10830952Y-52364286D01*
X10830952Y-52488095D01*
X9964285Y-51188095D02*
X9840476Y-51188095D01*
X9716666Y-51250000D01*
X9654761Y-51311905D01*
X9592857Y-51435714D01*
X9530952Y-51683333D01*
X9530952Y-51992857D01*
X9592857Y-52240476D01*
X9654761Y-52364286D01*
X9716666Y-52426190D01*
X9840476Y-52488095D01*
X9964285Y-52488095D01*
X10088095Y-52426190D01*
X10149999Y-52364286D01*
X10211904Y-52240476D01*
X10273809Y-51992857D01*
X10273809Y-51683333D01*
X10211904Y-51435714D01*
X10149999Y-51311905D01*
X10088095Y-51250000D01*
X9964285Y-51188095D01*
X8292857Y-52488095D02*
X9035714Y-52488095D01*
X8664285Y-52488095D02*
X8664285Y-51188095D01*
X8788095Y-51373810D01*
X8911904Y-51497619D01*
X9035714Y-51559524D01*
D10*
G36*
X19851585Y-23665886D02*
X19893492Y-23657366D01*
X19950168Y-23636659D01*
X20019904Y-23603925D01*
X20100996Y-23559325D01*
X20191736Y-23503021D01*
X20290417Y-23435174D01*
X20395333Y-23355946D01*
X20504777Y-23265496D01*
X20617042Y-23163987D01*
X20730422Y-23051579D01*
X20843209Y-22928434D01*
X20953698Y-22794713D01*
X21060182Y-22650578D01*
X21160953Y-22496188D01*
X21254305Y-22331706D01*
X21338531Y-22157293D01*
X21411926Y-21973109D01*
X21472781Y-21779317D01*
X21519390Y-21576076D01*
X21550047Y-21363549D01*
X21563045Y-21141897D01*
X21556677Y-20911280D01*
X21529236Y-20671860D01*
X21479017Y-20423798D01*
X21404311Y-20167256D01*
X21303412Y-19902394D01*
X21174614Y-19629373D01*
X21016210Y-19348355D01*
X20826494Y-19059501D01*
X20603758Y-18762973D01*
X20346295Y-18458930D01*
X20052400Y-18147535D01*
X20127961Y-18446316D01*
X20157428Y-18715861D01*
X20145492Y-18956538D01*
X20096847Y-19168717D01*
X20016183Y-19352766D01*
X19908193Y-19509054D01*
X19777570Y-19637948D01*
X19629004Y-19739817D01*
X19467189Y-19815031D01*
X19296815Y-19863957D01*
X19122576Y-19886964D01*
X18949163Y-19884420D01*
X18781269Y-19856695D01*
X18623585Y-19804155D01*
X18480803Y-19727171D01*
X18357616Y-19626110D01*
X18258715Y-19501342D01*
X18163660Y-19334693D01*
X18091219Y-19176702D01*
X18039909Y-19026681D01*
X18008246Y-18883941D01*
X17994747Y-18747793D01*
X17997930Y-18617548D01*
X18016310Y-18492519D01*
X18048406Y-18372015D01*
X18092733Y-18255349D01*
X18147809Y-18141831D01*
X18212151Y-18030773D01*
X18284275Y-17921487D01*
X18362698Y-17813282D01*
X18445937Y-17705472D01*
X18532510Y-17597366D01*
X18620932Y-17488277D01*
X18709722Y-17377516D01*
X18797395Y-17264393D01*
X18882469Y-17148220D01*
X18963460Y-17028308D01*
X19038886Y-16903970D01*
X19107263Y-16774515D01*
X19167108Y-16639255D01*
X19216938Y-16497502D01*
X19255270Y-16348567D01*
X19280620Y-16191760D01*
X19291507Y-16026394D01*
X19286446Y-15851780D01*
X19263954Y-15667228D01*
X19222549Y-15472051D01*
X19160747Y-15265559D01*
X19077065Y-15047063D01*
X18970020Y-14815876D01*
X18838129Y-14571308D01*
X18679908Y-14312670D01*
X18671148Y-14487852D01*
X18645816Y-14655730D01*
X18604759Y-14816768D01*
X18548820Y-14971430D01*
X18478844Y-15120181D01*
X18395677Y-15263485D01*
X18300162Y-15401805D01*
X18193145Y-15535606D01*
X18075471Y-15665353D01*
X17947983Y-15791509D01*
X17811527Y-15914539D01*
X17666948Y-16034906D01*
X17515090Y-16153076D01*
X17356798Y-16269511D01*
X17192917Y-16384678D01*
X17024292Y-16499038D01*
X16851767Y-16613058D01*
X16676187Y-16727200D01*
X16498396Y-16841930D01*
X16319240Y-16957710D01*
X16139564Y-17075007D01*
X15960211Y-17194283D01*
X15782027Y-17316003D01*
X15605857Y-17440631D01*
X15432545Y-17568632D01*
X15262936Y-17700469D01*
X15097875Y-17836606D01*
X14938206Y-17977509D01*
X14784774Y-18123640D01*
X14638425Y-18275465D01*
X14500002Y-18433448D01*
X14370350Y-18598052D01*
X14250315Y-18769741D01*
X14140741Y-18948981D01*
X14042472Y-19136235D01*
X13956354Y-19331968D01*
X13883231Y-19536643D01*
X13823948Y-19750724D01*
X13779349Y-19974677D01*
X13750281Y-20208965D01*
X13737586Y-20454053D01*
X13742110Y-20710403D01*
X13764698Y-20978482D01*
X13815332Y-21280555D01*
X13892931Y-21564687D01*
X13994680Y-21831196D01*
X14117762Y-22080400D01*
X14259363Y-22312620D01*
X14416668Y-22528173D01*
X14586860Y-22727377D01*
X14767125Y-22910552D01*
X14954648Y-23078017D01*
X15146613Y-23230090D01*
X15340205Y-23367089D01*
X15532608Y-23489333D01*
X15721007Y-23597142D01*
X15902588Y-23690833D01*
X19851585Y-23665873D01*
X19851585Y-23665886D01*
X19851585Y-23665886D01*
G37*
D12*
X16130000Y-48310000D03*
X18130000Y-48310000D03*
X14130000Y-48310000D03*
D13*
X15400000Y-12175000D03*
D14*
X15400000Y-14675000D03*
D15*
X2220000Y-12300000D03*
X8420000Y-12300000D03*
D16*
X4520000Y-12300000D03*
X6120000Y-12300000D03*
D15*
X2270000Y-16320000D03*
X8470000Y-16320000D03*
D16*
X4570000Y-16320000D03*
X6170000Y-16320000D03*
D17*
X22780000Y-51120000D03*
X3800000Y-52800000D03*
X22200000Y-7500000D03*
X3500000Y-6900000D03*
D18*
X11200000Y-2000000D03*
X24250000Y-33000000D03*
D19*
X24250000Y-35540000D03*
X24250000Y-38080000D03*
X24250000Y-40620000D03*
X24250000Y-43160000D03*
X24250000Y-45700000D03*
D18*
X11100000Y-33000000D03*
D19*
X11100000Y-35540000D03*
X11100000Y-38080000D03*
X11100000Y-40620000D03*
X11100000Y-43160000D03*
X11100000Y-45700000D03*
D18*
X24250000Y-2000000D03*
D20*
X5200000Y-24530000D03*
X4150000Y-42550000D03*
D21*
X15000000Y-25600000D03*
D22*
X22125000Y-17975000D03*
X10600000Y-6110000D03*
X15910000Y-5300000D03*
X23800000Y-13520000D03*
X21320000Y-13480000D03*
X19760000Y-11540000D03*
X16450000Y-8540000D03*
X23575000Y-29675000D03*
X21875000Y-29050000D03*
X23075000Y-16100000D03*
X13100000Y-6525000D03*
X10275000Y-7700000D03*
X10700000Y-10100000D03*
X9200000Y-40000000D03*
D21*
X17900000Y-41469999D03*
X18150000Y-46700000D03*
X14150000Y-41469999D03*
X14150000Y-46650000D03*
D20*
X7920000Y-35224522D03*
X6780000Y-21950000D03*
X1620000Y-42460000D03*
X2250000Y-40500000D03*
D21*
X17850000Y-25300000D03*
D23*
X8200000Y-41040000D03*
D21*
X17350000Y-30657072D03*
D23*
X12472894Y-39320000D03*
X13700000Y-2700000D03*
X13400000Y-950000D03*
X19500000Y-3200000D03*
X21600000Y-3250000D03*
X22150000Y-2900000D03*
X15300000Y-850000D03*
X13750000Y-1800000D03*
X22200000Y-2000000D03*
D20*
X4310002Y-27190000D03*
D23*
X5439990Y-42250706D03*
X18100002Y-35250000D03*
X14100000Y-35250000D03*
D20*
X5048490Y-38570000D03*
D23*
X4200000Y-41100000D03*
X4220219Y-37416038D03*
X13050000Y-43824990D03*
D20*
X22925000Y-35250000D03*
D23*
X21760000Y-43790000D03*
X7575010Y-43846613D03*
D22*
X11275000Y-18925000D03*
D23*
X1125000Y-16050000D03*
D22*
X2730000Y-18710000D03*
D21*
X16080000Y-46550000D03*
X7390000Y-45310000D03*
X5570000Y-22200000D03*
D20*
X6800000Y-17710000D03*
X5020319Y-48570000D03*
X3680000Y-47550000D03*
D24*
X4150000Y-42550000D02*
X3674998Y-42074998D01*
X3674998Y-42074998D02*
X3674998Y-35617906D01*
X3674998Y-35617906D02*
X3630000Y-35572908D01*
X3630000Y-35572908D02*
X3630000Y-24980000D01*
X3630000Y-24980000D02*
X4080000Y-24530000D01*
X4080000Y-24530000D02*
X5200000Y-24530000D01*
D25*
X15400000Y-14675000D02*
X12675000Y-17400000D01*
X12675000Y-17400000D02*
X12675000Y-23275000D01*
X12675000Y-23275000D02*
X15000000Y-25600000D01*
D24*
X21875000Y-18225000D02*
X22125000Y-17975000D01*
X21875000Y-29050000D02*
X21875000Y-18225000D01*
X23075000Y-17025000D02*
X22424999Y-17675001D01*
X23075000Y-16100000D02*
X23075000Y-17025000D01*
X22424999Y-17675001D02*
X22125000Y-17975000D01*
X10899999Y-6409999D02*
X10600000Y-6110000D01*
X11015000Y-6525000D02*
X10899999Y-6409999D01*
X13100000Y-6525000D02*
X11015000Y-6525000D01*
X15610001Y-5599999D02*
X15910000Y-5300000D01*
X14685000Y-6525000D02*
X15610001Y-5599999D01*
X13100000Y-6525000D02*
X14685000Y-6525000D01*
X23760000Y-13480000D02*
X23800000Y-13520000D01*
X21320000Y-13480000D02*
X23760000Y-13480000D01*
X19450000Y-11540000D02*
X19760000Y-11540000D01*
X16450000Y-8540000D02*
X19450000Y-11540000D01*
X15680000Y-50230000D02*
X14840000Y-49390000D01*
D25*
X18130000Y-48310000D02*
X18130000Y-48750000D01*
X18130000Y-48750000D02*
X16650000Y-50230000D01*
X14130000Y-48680000D02*
X14130000Y-48310000D01*
X16650000Y-50230000D02*
X15680000Y-50230000D01*
X15680000Y-50230000D02*
X14130000Y-48680000D01*
D24*
X10700000Y-10100000D02*
X10700000Y-8125000D01*
X10700000Y-8125000D02*
X10275000Y-7700000D01*
D25*
X9499999Y-40299999D02*
X9200000Y-40000000D01*
X9820000Y-40620000D02*
X9499999Y-40299999D01*
X11100000Y-40620000D02*
X9820000Y-40620000D01*
X18150000Y-46700000D02*
X18150000Y-41719999D01*
X18150000Y-41719999D02*
X17900000Y-41469999D01*
X14150000Y-46650000D02*
X14150000Y-41469999D01*
D24*
X7920000Y-35224522D02*
X7920000Y-34904203D01*
X7920000Y-34904203D02*
X7175009Y-34159212D01*
X7175009Y-34159212D02*
X7175009Y-22345009D01*
X6780000Y-21950000D02*
X7175009Y-22345009D01*
X2250000Y-41830000D02*
X1620000Y-42460000D01*
X2250000Y-40500000D02*
X2250000Y-41830000D01*
D25*
X17350001Y-25799999D02*
X17850000Y-25300000D01*
X17350000Y-30657072D02*
X17350001Y-25799999D01*
D24*
X8200000Y-39777158D02*
X8200000Y-40757158D01*
X8200000Y-40757158D02*
X8200000Y-41040000D01*
X12472894Y-39320000D02*
X10420000Y-39320000D01*
X10420000Y-39320000D02*
X10000000Y-38900000D01*
X9077158Y-38900000D02*
X8200000Y-39777158D01*
X10000000Y-38900000D02*
X9077158Y-38900000D01*
X22200000Y-2850000D02*
X22150000Y-2900000D01*
X22200000Y-2000000D02*
X22200000Y-2850000D01*
X4536501Y-27416499D02*
X4310002Y-27190000D01*
X5048490Y-27928488D02*
X4536501Y-27416499D01*
X5048490Y-38570000D02*
X5048490Y-27928488D01*
X5048490Y-41859206D02*
X5239991Y-42050707D01*
X5048490Y-38570000D02*
X5048490Y-41859206D01*
X5239991Y-42050707D02*
X5439990Y-42250706D01*
X14100000Y-35250000D02*
X18100002Y-35250000D01*
X4220219Y-37416038D02*
X4250000Y-37445819D01*
X4250000Y-41050000D02*
X4200000Y-41100000D01*
X4250000Y-37445819D02*
X4250000Y-41050000D01*
X11100000Y-38080000D02*
X9680000Y-36660000D01*
X9680000Y-36660000D02*
X9680000Y-35100000D01*
X9680000Y-35100000D02*
X10490000Y-34290000D01*
X10490000Y-34290000D02*
X21965000Y-34290000D01*
X21965000Y-34290000D02*
X22925000Y-35250000D01*
X12514991Y-44359999D02*
X13050000Y-43824990D01*
X8088396Y-44359999D02*
X12514991Y-44359999D01*
X21760000Y-41070000D02*
X21760000Y-43790000D01*
X24750000Y-38080000D02*
X21760000Y-41070000D01*
X7575010Y-43846613D02*
X8088396Y-44359999D01*
D25*
X10850736Y-18925000D02*
X11275000Y-18925000D01*
X5525000Y-18925000D02*
X10850736Y-18925000D01*
X4570000Y-17970000D02*
X5525000Y-18925000D01*
X4570000Y-16320000D02*
X4570000Y-17970000D01*
X2000000Y-16050000D02*
X1125000Y-16050000D01*
X2270000Y-16320000D02*
X2000000Y-16050000D01*
X2270000Y-16320000D02*
X2270000Y-18250000D01*
X2270000Y-18250000D02*
X2730000Y-18710000D01*
D26*
X2240000Y-16350000D02*
X2270000Y-16320000D01*
X4520000Y-12300000D02*
X4520000Y-16270000D01*
X4520000Y-16270000D02*
X4570000Y-16320000D01*
X2220000Y-12300000D02*
X2220000Y-16270000D01*
X2220000Y-16270000D02*
X2270000Y-16320000D01*
X4570000Y-16320000D02*
X2270000Y-16320000D01*
X4520000Y-12300000D02*
X2220000Y-12300000D01*
D25*
X13433104Y-36553104D02*
X16040000Y-36553104D01*
X16040000Y-36553104D02*
X23736896Y-36553104D01*
X16030000Y-44750000D02*
X16030000Y-36563104D01*
X16030000Y-36563104D02*
X16040000Y-36553104D01*
X11100000Y-35540000D02*
X12420000Y-35540000D01*
X12420000Y-35540000D02*
X13433104Y-36553104D01*
X23736896Y-36553104D02*
X24750000Y-35540000D01*
X16030000Y-46500000D02*
X16080000Y-46550000D01*
X16030000Y-44750000D02*
X16030000Y-46500000D01*
D24*
X11693427Y-33493427D02*
X23054492Y-33493427D01*
X11200000Y-33000000D02*
X11693427Y-33493427D01*
X23547919Y-33000000D02*
X24750000Y-33000000D01*
X23054492Y-33493427D02*
X23547919Y-33000000D01*
D25*
X6340000Y-44470000D02*
X7180000Y-45310000D01*
X7180000Y-45310000D02*
X7390000Y-45310000D01*
X6340000Y-37240000D02*
X6340000Y-44470000D01*
X6340000Y-22970000D02*
X6340000Y-37240000D01*
X5570000Y-22200000D02*
X6340000Y-22970000D01*
X6800000Y-17710000D02*
X7080000Y-17710000D01*
X7080000Y-17710000D02*
X8470000Y-16320000D01*
D24*
X6120000Y-12300000D02*
X6120000Y-16270000D01*
X6120000Y-16270000D02*
X6170000Y-16320000D01*
X8420000Y-12300000D02*
X8420000Y-16270000D01*
X8420000Y-16270000D02*
X8470000Y-16320000D01*
X6120000Y-12300000D02*
X8420000Y-12300000D01*
X6170000Y-16320000D02*
X8470000Y-16320000D01*
X3680000Y-47550000D02*
X4000319Y-47550000D01*
X4000319Y-47550000D02*
X5020319Y-48570000D01*
D27*
G36*
X2131594Y-4896059D02*
X1479274Y-5547242D01*
X1115415Y-6423513D01*
X1114587Y-7372325D01*
X1476916Y-8249229D01*
X2147242Y-8920726D01*
X3023513Y-9284585D01*
X3972325Y-9285413D01*
X4849229Y-8923084D01*
X5520726Y-8252758D01*
X5637171Y-7972325D01*
X19814587Y-7972325D01*
X20176916Y-8849229D01*
X20847242Y-9520726D01*
X21723513Y-9884585D01*
X22672325Y-9885413D01*
X23549229Y-9523084D01*
X24220726Y-8852758D01*
X24584585Y-7976487D01*
X24585413Y-7027675D01*
X24223084Y-6150771D01*
X23552758Y-5479274D01*
X22676487Y-5115415D01*
X21727675Y-5114587D01*
X20850771Y-5476916D01*
X20179274Y-6147242D01*
X19815415Y-7023513D01*
X19814587Y-7972325D01*
X5637171Y-7972325D01*
X5884585Y-7376487D01*
X5885413Y-6427675D01*
X5523084Y-5550771D01*
X4896049Y-4922641D01*
X25040000Y-5116333D01*
X25040000Y-31502560D01*
X23400000Y-31502560D01*
X23164683Y-31546838D01*
X22948559Y-31685910D01*
X22803569Y-31898110D01*
X22752560Y-32150000D01*
X22752560Y-32720557D01*
X22739690Y-32733427D01*
X12597440Y-32733427D01*
X12597440Y-32150000D01*
X12553162Y-31914683D01*
X12414090Y-31698559D01*
X12201890Y-31553569D01*
X11950000Y-31502560D01*
X10250000Y-31502560D01*
X10014683Y-31546838D01*
X9798559Y-31685910D01*
X9653569Y-31898110D01*
X9602560Y-32150000D01*
X9602560Y-33850000D01*
X9642569Y-34062629D01*
X9142599Y-34562599D01*
X8977852Y-34809161D01*
X8920000Y-35100000D01*
X8920000Y-36660000D01*
X8977852Y-36950839D01*
X9142599Y-37197401D01*
X9658790Y-37713592D01*
X9585907Y-38080000D01*
X9597842Y-38140000D01*
X9077158Y-38140000D01*
X8786319Y-38197852D01*
X8539757Y-38362599D01*
X7662599Y-39239757D01*
X7497852Y-39486319D01*
X7475000Y-39601203D01*
X7475000Y-35972560D01*
X7747885Y-36085872D01*
X8090611Y-36086171D01*
X8407363Y-35955292D01*
X8649918Y-35713160D01*
X8781350Y-35396637D01*
X8781649Y-35053911D01*
X8650770Y-34737159D01*
X8645778Y-34732158D01*
X8622148Y-34613363D01*
X8457401Y-34366802D01*
X7935009Y-33844410D01*
X7935009Y-22345009D01*
X7877157Y-22054170D01*
X7712410Y-21807608D01*
X7611694Y-21706892D01*
X7510770Y-21462637D01*
X7268638Y-21220082D01*
X6952115Y-21088650D01*
X6609389Y-21088351D01*
X6292637Y-21219230D01*
X6243570Y-21268212D01*
X6213765Y-21238355D01*
X5796756Y-21065197D01*
X5345225Y-21064803D01*
X4927914Y-21237233D01*
X4608355Y-21556235D01*
X4435197Y-21973244D01*
X4434803Y-22424775D01*
X4607233Y-22842086D01*
X4926235Y-23161645D01*
X4926710Y-23161842D01*
X5205000Y-23440133D01*
X5205000Y-23668504D01*
X5029389Y-23668351D01*
X4783379Y-23770000D01*
X4080000Y-23770000D01*
X3789161Y-23827852D01*
X3542599Y-23992599D01*
X3092599Y-24442599D01*
X2927852Y-24689161D01*
X2870000Y-24980000D01*
X2870000Y-35572908D01*
X2914998Y-35799126D01*
X2914998Y-39946750D01*
X2738638Y-39770082D01*
X2422115Y-39638650D01*
X2079389Y-39638351D01*
X1762637Y-39769230D01*
X1520082Y-40011362D01*
X1388650Y-40327885D01*
X1388351Y-40670611D01*
X1490000Y-40916621D01*
X1490000Y-41515198D01*
X1376892Y-41628306D01*
X1132637Y-41729230D01*
X890082Y-41971362D01*
X758650Y-42287885D01*
X758351Y-42630611D01*
X889230Y-42947363D01*
X1131362Y-43189918D01*
X1447885Y-43321350D01*
X1790611Y-43321649D01*
X2107363Y-43190770D01*
X2349918Y-42948638D01*
X2451997Y-42702805D01*
X2787401Y-42367401D01*
X2930547Y-42153167D01*
X2972850Y-42365837D01*
X3137597Y-42612399D01*
X3318306Y-42793108D01*
X3419230Y-43037363D01*
X3661362Y-43279918D01*
X3977885Y-43411350D01*
X4320611Y-43411649D01*
X4637363Y-43280770D01*
X4879918Y-43038638D01*
X4928915Y-42920639D01*
X4966383Y-42958172D01*
X5205000Y-43057255D01*
X5205000Y-44470000D01*
X5291397Y-44904346D01*
X5478487Y-45184346D01*
X5537434Y-45272566D01*
X6377434Y-46112566D01*
X6745654Y-46358603D01*
X7148747Y-46438783D01*
X7163244Y-46444803D01*
X7179079Y-46444817D01*
X7180000Y-46445000D01*
X7389009Y-46445000D01*
X7614775Y-46445197D01*
X8032086Y-46272767D01*
X8351645Y-45953765D01*
X8524803Y-45536756D01*
X8525167Y-45119999D01*
X9706774Y-45119999D01*
X9698946Y-45131715D01*
X9585907Y-45700000D01*
X9698946Y-46268285D01*
X10020853Y-46750054D01*
X10502622Y-47071961D01*
X11070907Y-47185000D01*
X11129093Y-47185000D01*
X11697378Y-47071961D01*
X12179147Y-46750054D01*
X12501054Y-46268285D01*
X12614093Y-45700000D01*
X12501054Y-45131715D01*
X12493226Y-45119999D01*
X12514991Y-45119999D01*
X12805830Y-45062147D01*
X13052392Y-44897400D01*
X13341970Y-44607822D01*
X13522372Y-44533282D01*
X13757466Y-44298597D01*
X13884855Y-43991811D01*
X13885145Y-43659627D01*
X13758292Y-43352618D01*
X13523607Y-43117524D01*
X13216821Y-42990135D01*
X12884637Y-42989845D01*
X12603364Y-43106064D01*
X12501054Y-42591715D01*
X12179147Y-42109946D01*
X11838447Y-41882298D01*
X11981358Y-41815183D01*
X12371645Y-41386924D01*
X12541476Y-40976890D01*
X12420155Y-40747000D01*
X11227000Y-40747000D01*
X11227000Y-40767000D01*
X10973000Y-40767000D01*
X10973000Y-40747000D01*
X9779845Y-40747000D01*
X9658524Y-40976890D01*
X9828355Y-41386924D01*
X10218642Y-41815183D01*
X10361553Y-41882298D01*
X10020853Y-42109946D01*
X9698946Y-42591715D01*
X9585907Y-43160000D01*
X9673428Y-43599999D01*
X8403198Y-43599999D01*
X8357842Y-43554643D01*
X8283302Y-43374241D01*
X8048617Y-43139147D01*
X7741831Y-43011758D01*
X7475000Y-43011525D01*
X7475000Y-41471935D01*
X7491708Y-41512372D01*
X7726393Y-41747466D01*
X8033179Y-41874855D01*
X8365363Y-41875145D01*
X8672372Y-41748292D01*
X8907466Y-41513607D01*
X9034855Y-41206821D01*
X9035145Y-40874637D01*
X8960000Y-40692771D01*
X8960000Y-40091960D01*
X9391960Y-39660000D01*
X9685198Y-39660000D01*
X9852157Y-39826959D01*
X9828355Y-39853076D01*
X9658524Y-40263110D01*
X9779845Y-40493000D01*
X10973000Y-40493000D01*
X10973000Y-40473000D01*
X11227000Y-40473000D01*
X11227000Y-40493000D01*
X12420155Y-40493000D01*
X12541476Y-40263110D01*
X12496707Y-40155021D01*
X12638257Y-40155145D01*
X12945266Y-40028292D01*
X13180360Y-39793607D01*
X13307749Y-39486821D01*
X13308039Y-39154637D01*
X13181186Y-38847628D01*
X12946501Y-38612534D01*
X12639715Y-38485145D01*
X12533523Y-38485052D01*
X12614093Y-38080000D01*
X12501054Y-37511715D01*
X12179147Y-37029946D01*
X11849974Y-36810000D01*
X11990783Y-36715915D01*
X12630538Y-37355670D01*
X12998758Y-37601707D01*
X13433104Y-37688104D01*
X14895000Y-37688104D01*
X14895000Y-46500000D01*
X14944824Y-46750483D01*
X14944803Y-46774775D01*
X14954161Y-46797424D01*
X14981397Y-46934346D01*
X15058280Y-47049410D01*
X15117233Y-47192086D01*
X15219804Y-47294836D01*
X14976450Y-47537765D01*
X14901613Y-47717992D01*
X14309605Y-48310000D01*
X14901367Y-48901762D01*
X14975104Y-49080220D01*
X15357765Y-49463550D01*
X15857993Y-49671263D01*
X16399631Y-49671735D01*
X16900220Y-49464896D01*
X17100981Y-49264485D01*
X17355120Y-49264485D01*
X17420220Y-49502994D01*
X17930788Y-49683805D01*
X18471684Y-49655466D01*
X18839780Y-49502994D01*
X18904880Y-49264485D01*
X18130000Y-48489605D01*
X17355120Y-49264485D01*
X17100981Y-49264485D01*
X17283550Y-49082235D01*
X17358387Y-48902008D01*
X17950395Y-48310000D01*
X18309605Y-48310000D01*
X19084485Y-49084880D01*
X19322994Y-49019780D01*
X19503805Y-48509212D01*
X19475466Y-47968316D01*
X19322994Y-47600220D01*
X19084485Y-47535120D01*
X18309605Y-48310000D01*
X17950395Y-48310000D01*
X17358633Y-47718238D01*
X17284896Y-47539780D01*
X17100953Y-47355515D01*
X17355120Y-47355515D01*
X18130000Y-48130395D01*
X18904880Y-47355515D01*
X18839780Y-47117006D01*
X18329212Y-46936195D01*
X17788316Y-46964534D01*
X17420220Y-47117006D01*
X17355120Y-47355515D01*
X17100953Y-47355515D01*
X16990476Y-47244845D01*
X17041645Y-47193765D01*
X17214803Y-46776756D01*
X17215197Y-46325225D01*
X17165000Y-46203739D01*
X17165000Y-37688104D01*
X22813860Y-37688104D01*
X22735907Y-38080000D01*
X22848946Y-38648285D01*
X22952273Y-38802925D01*
X21222599Y-40532599D01*
X21057852Y-40779161D01*
X21000000Y-41070000D01*
X21000000Y-43442909D01*
X20925145Y-43623179D01*
X20924855Y-43955363D01*
X21051708Y-44262372D01*
X21286393Y-44497466D01*
X21593179Y-44624855D01*
X21925363Y-44625145D01*
X22232372Y-44498292D01*
X22467466Y-44263607D01*
X22594855Y-43956821D01*
X22595145Y-43624637D01*
X22520000Y-43442771D01*
X22520000Y-41384802D01*
X22843490Y-41061312D01*
X22978355Y-41386924D01*
X23368642Y-41815183D01*
X23511553Y-41882298D01*
X23170853Y-42109946D01*
X22848946Y-42591715D01*
X22735907Y-43160000D01*
X22848946Y-43728285D01*
X23170853Y-44210054D01*
X23500026Y-44430000D01*
X23170853Y-44649946D01*
X22848946Y-45131715D01*
X22735907Y-45700000D01*
X22848946Y-46268285D01*
X23170853Y-46750054D01*
X23652622Y-47071961D01*
X24220907Y-47185000D01*
X24279093Y-47185000D01*
X24847378Y-47071961D01*
X25040000Y-46943255D01*
X25040000Y-50344152D01*
X24803084Y-49770771D01*
X24132758Y-49099274D01*
X23256487Y-48735415D01*
X22307675Y-48734587D01*
X21430771Y-49096916D01*
X20759274Y-49767242D01*
X20395415Y-50643513D01*
X20394587Y-51592325D01*
X20756916Y-52469229D01*
X21427242Y-53140726D01*
X22303513Y-53504585D01*
X23252325Y-53505413D01*
X24129229Y-53143084D01*
X24800726Y-52472758D01*
X25040000Y-51896521D01*
X25040000Y-55590000D01*
X24592874Y-55590000D01*
X18509216Y-55543684D01*
X18856943Y-55400005D01*
X19218735Y-55038845D01*
X19414777Y-54566724D01*
X19415223Y-54055519D01*
X19220005Y-53583057D01*
X18858845Y-53221265D01*
X18386724Y-53025223D01*
X17875519Y-53024777D01*
X17403057Y-53219995D01*
X17041265Y-53581155D01*
X16845223Y-54053276D01*
X16844777Y-54564481D01*
X17039995Y-55036943D01*
X17401155Y-55398735D01*
X17736054Y-55537797D01*
X14581584Y-55513782D01*
X14856943Y-55400005D01*
X15218735Y-55038845D01*
X15414777Y-54566724D01*
X15415223Y-54055519D01*
X15220005Y-53583057D01*
X14858845Y-53221265D01*
X14386724Y-53025223D01*
X13875519Y-53024777D01*
X13403057Y-53219995D01*
X13041265Y-53581155D01*
X12845223Y-54053276D01*
X12844777Y-54564481D01*
X13039995Y-55036943D01*
X13401155Y-55398735D01*
X13661346Y-55506776D01*
X710000Y-55408174D01*
X710000Y-53272325D01*
X1414587Y-53272325D01*
X1776916Y-54149229D01*
X2447242Y-54820726D01*
X3323513Y-55184585D01*
X4272325Y-55185413D01*
X5149229Y-54823084D01*
X5820726Y-54152758D01*
X6184585Y-53276487D01*
X6185413Y-52327675D01*
X5823084Y-51450771D01*
X5152758Y-50779274D01*
X4276487Y-50415415D01*
X3327675Y-50414587D01*
X2450771Y-50776916D01*
X1779274Y-51447242D01*
X1415415Y-52323513D01*
X1414587Y-53272325D01*
X710000Y-53272325D01*
X710000Y-50205000D01*
X7410238Y-50205000D01*
X7410238Y-53725000D01*
X12889762Y-53725000D01*
X12889762Y-50205000D01*
X7410238Y-50205000D01*
X710000Y-50205000D01*
X710000Y-47720611D01*
X2818351Y-47720611D01*
X2949230Y-48037363D01*
X3191362Y-48279918D01*
X3507885Y-48411350D01*
X3787111Y-48411594D01*
X4188625Y-48813108D01*
X4289549Y-49057363D01*
X4531681Y-49299918D01*
X4848204Y-49431350D01*
X5190930Y-49431649D01*
X5507682Y-49300770D01*
X5544030Y-49264485D01*
X13355120Y-49264485D01*
X13420220Y-49502994D01*
X13930788Y-49683805D01*
X14471684Y-49655466D01*
X14839780Y-49502994D01*
X14904880Y-49264485D01*
X14130000Y-48489605D01*
X13355120Y-49264485D01*
X5544030Y-49264485D01*
X5750237Y-49058638D01*
X5881669Y-48742115D01*
X5881968Y-48399389D01*
X5762721Y-48110788D01*
X12756195Y-48110788D01*
X12784534Y-48651684D01*
X12937006Y-49019780D01*
X13175515Y-49084880D01*
X13950395Y-48310000D01*
X13175515Y-47535120D01*
X12937006Y-47600220D01*
X12756195Y-48110788D01*
X5762721Y-48110788D01*
X5751089Y-48082637D01*
X5508957Y-47840082D01*
X5263124Y-47738003D01*
X4880636Y-47355515D01*
X13355120Y-47355515D01*
X14130000Y-48130395D01*
X14904880Y-47355515D01*
X14839780Y-47117006D01*
X14329212Y-46936195D01*
X13788316Y-46964534D01*
X13420220Y-47117006D01*
X13355120Y-47355515D01*
X4880636Y-47355515D01*
X4537720Y-47012599D01*
X4291158Y-46847852D01*
X4172872Y-46824323D01*
X4168638Y-46820082D01*
X3852115Y-46688650D01*
X3509389Y-46688351D01*
X3192637Y-46819230D01*
X2950082Y-47061362D01*
X2818650Y-47377885D01*
X2818351Y-47720611D01*
X710000Y-47720611D01*
X710000Y-20465258D01*
X13102685Y-20465258D01*
X13107209Y-20721608D01*
X13111746Y-20742486D01*
X13109352Y-20763718D01*
X13131940Y-21031797D01*
X13139233Y-21057119D01*
X13138435Y-21083457D01*
X13189069Y-21385530D01*
X13200502Y-21415683D01*
X13202766Y-21447852D01*
X13280365Y-21731984D01*
X13294422Y-21760147D01*
X13299696Y-21791175D01*
X13401445Y-22057684D01*
X13417505Y-22083240D01*
X13425336Y-22112395D01*
X13548418Y-22361599D01*
X13565793Y-22384214D01*
X13575605Y-22410992D01*
X13717206Y-22643211D01*
X13735231Y-22662797D01*
X13746427Y-22686948D01*
X13903731Y-22902501D01*
X13921845Y-22919175D01*
X13933877Y-22940651D01*
X14104069Y-23139855D01*
X14121846Y-23153865D01*
X14134267Y-23172780D01*
X14314531Y-23355955D01*
X14331683Y-23367615D01*
X14344158Y-23384180D01*
X14531681Y-23551645D01*
X14548041Y-23561288D01*
X14560341Y-23575759D01*
X14752307Y-23727832D01*
X14767812Y-23735779D01*
X14779801Y-23748428D01*
X14973394Y-23885427D01*
X14988059Y-23891967D01*
X14999674Y-23903059D01*
X15192077Y-24025303D01*
X15205979Y-24030690D01*
X15217224Y-24040475D01*
X15405622Y-24148284D01*
X15418892Y-24152732D01*
X15429838Y-24161452D01*
X15611419Y-24255143D01*
X15639179Y-24263125D01*
X15663297Y-24279021D01*
X15757417Y-24297125D01*
X15849534Y-24323613D01*
X15878237Y-24320364D01*
X15906601Y-24325820D01*
X17256180Y-24317290D01*
X17207914Y-24337233D01*
X16888355Y-24656235D01*
X16888158Y-24656710D01*
X16547435Y-24997433D01*
X16301398Y-25365653D01*
X16215001Y-25799999D01*
X16215000Y-30656081D01*
X16214803Y-30881847D01*
X16387233Y-31299158D01*
X16706235Y-31618717D01*
X17123244Y-31791875D01*
X17574775Y-31792269D01*
X17992086Y-31619839D01*
X18311645Y-31300837D01*
X18484803Y-30883828D01*
X18485197Y-30432297D01*
X18485000Y-30431820D01*
X18485001Y-26270131D01*
X18652152Y-26102980D01*
X18811645Y-25943765D01*
X18984803Y-25526756D01*
X18985197Y-25075225D01*
X18812767Y-24657914D01*
X18493765Y-24338355D01*
X18425240Y-24309901D01*
X19851582Y-24300885D01*
X19851585Y-24300886D01*
X19851588Y-24300885D01*
X19855599Y-24300860D01*
X19916148Y-24288418D01*
X19978097Y-24288156D01*
X20020004Y-24279636D01*
X20064129Y-24261140D01*
X20111405Y-24253804D01*
X20168081Y-24233098D01*
X20192380Y-24218312D01*
X20219989Y-24211482D01*
X20289726Y-24178748D01*
X20306295Y-24166534D01*
X20325919Y-24160324D01*
X20407012Y-24115724D01*
X20419960Y-24104836D01*
X20435797Y-24098893D01*
X20526537Y-24042589D01*
X20537593Y-24032254D01*
X20551496Y-24026278D01*
X20650177Y-23958431D01*
X20660180Y-23948159D01*
X20673087Y-23941917D01*
X20778003Y-23862689D01*
X20787410Y-23852128D01*
X20799858Y-23845419D01*
X20909302Y-23754969D01*
X20918355Y-23743860D01*
X20930659Y-23736505D01*
X21042924Y-23634996D01*
X21051763Y-23623108D01*
X21064118Y-23614929D01*
X21177498Y-23502520D01*
X21186178Y-23489650D01*
X21198697Y-23480466D01*
X21311484Y-23357321D01*
X21319999Y-23343281D01*
X21332727Y-23332906D01*
X21443216Y-23199185D01*
X21451508Y-23183795D01*
X21464435Y-23172035D01*
X21570919Y-23027900D01*
X21578871Y-23011005D01*
X21591936Y-22997656D01*
X21692707Y-22843266D01*
X21700151Y-22824732D01*
X21713207Y-22809621D01*
X21806560Y-22645139D01*
X21813271Y-22624878D01*
X21826121Y-22607842D01*
X21910347Y-22433430D01*
X21916048Y-22411426D01*
X21928421Y-22392357D01*
X22001816Y-22208173D01*
X22006196Y-22184487D01*
X22017758Y-22163354D01*
X22078613Y-21969562D01*
X22081342Y-21944371D01*
X22091714Y-21921256D01*
X22138323Y-21718015D01*
X22139091Y-21691628D01*
X22147885Y-21666736D01*
X22178542Y-21454209D01*
X22177099Y-21427045D01*
X22183958Y-21400722D01*
X22196956Y-21179070D01*
X22193155Y-21151654D01*
X22197803Y-21124370D01*
X22191435Y-20893753D01*
X22185265Y-20866664D01*
X22187547Y-20838973D01*
X22160106Y-20599553D01*
X22151703Y-20573364D01*
X22151610Y-20545863D01*
X22101391Y-20297801D01*
X22091028Y-20273020D01*
X22088693Y-20246258D01*
X22013987Y-19989716D01*
X22002032Y-19966737D01*
X21997711Y-19941201D01*
X21896812Y-19676339D01*
X21883690Y-19655424D01*
X21877714Y-19631466D01*
X21748916Y-19358445D01*
X21735051Y-19339711D01*
X21727786Y-19317562D01*
X21569382Y-19036544D01*
X21555160Y-19019986D01*
X21546969Y-18999759D01*
X21357253Y-18710904D01*
X21343008Y-18696432D01*
X21334214Y-18678128D01*
X21111478Y-18381601D01*
X21097473Y-18369062D01*
X21088355Y-18352618D01*
X20830891Y-18048575D01*
X20817315Y-18037779D01*
X20808097Y-18023081D01*
X20514202Y-17711686D01*
X20442729Y-17660881D01*
X20377620Y-17602138D01*
X20342571Y-17589687D01*
X20312257Y-17568139D01*
X20226784Y-17548554D01*
X20144150Y-17519198D01*
X20107005Y-17521107D01*
X20070751Y-17512800D01*
X19984281Y-17527416D01*
X19896712Y-17531917D01*
X19863129Y-17547894D01*
X19826452Y-17554093D01*
X19752156Y-17600688D01*
X19672976Y-17638357D01*
X19648062Y-17665971D01*
X19616551Y-17685733D01*
X19565746Y-17757206D01*
X19507003Y-17822315D01*
X19494552Y-17857364D01*
X19473004Y-17887678D01*
X19453419Y-17973151D01*
X19424063Y-18055785D01*
X19425972Y-18092930D01*
X19417665Y-18129184D01*
X19432281Y-18215654D01*
X19436782Y-18303223D01*
X19501519Y-18559206D01*
X19520710Y-18734753D01*
X19514043Y-18869190D01*
X19491261Y-18968562D01*
X19459080Y-19041987D01*
X19419702Y-19098977D01*
X19371821Y-19146225D01*
X19313457Y-19186243D01*
X19244387Y-19218348D01*
X19166906Y-19240598D01*
X19085473Y-19251351D01*
X19005861Y-19250183D01*
X18934315Y-19238369D01*
X18876516Y-19219110D01*
X18836146Y-19197343D01*
X18812974Y-19178334D01*
X18786356Y-19144753D01*
X18729166Y-19044491D01*
X18681727Y-18941027D01*
X18652182Y-18854644D01*
X18636402Y-18783503D01*
X18630515Y-18724127D01*
X18631796Y-18671688D01*
X18639272Y-18620832D01*
X18653606Y-18567014D01*
X18676331Y-18507203D01*
X18708943Y-18439988D01*
X18752321Y-18365114D01*
X18806608Y-18282855D01*
X18871201Y-18193732D01*
X18945112Y-18098003D01*
X19026997Y-17995751D01*
X19114235Y-17888123D01*
X19115050Y-17886576D01*
X19116388Y-17885452D01*
X19205178Y-17774691D01*
X19207625Y-17769985D01*
X19211630Y-17766506D01*
X19299303Y-17653384D01*
X19303233Y-17645511D01*
X19309713Y-17639566D01*
X19394787Y-17523393D01*
X19399966Y-17512270D01*
X19408685Y-17503637D01*
X19489676Y-17383725D01*
X19495761Y-17369240D01*
X19506376Y-17357652D01*
X19581802Y-17233314D01*
X19588332Y-17215364D01*
X19600374Y-17200543D01*
X19668752Y-17071088D01*
X19675125Y-17049699D01*
X19687964Y-17031443D01*
X19747809Y-16896182D01*
X19753321Y-16871556D01*
X19766172Y-16849842D01*
X19816002Y-16708089D01*
X19819908Y-16680706D01*
X19831897Y-16655776D01*
X19870229Y-16506841D01*
X19871862Y-16477471D01*
X19882131Y-16449908D01*
X19907481Y-16293101D01*
X19906387Y-16262780D01*
X19914248Y-16233475D01*
X19925135Y-16068109D01*
X19921176Y-16037969D01*
X19926240Y-16007997D01*
X19921179Y-15833383D01*
X19914560Y-15804505D01*
X19916782Y-15774959D01*
X19894290Y-15590407D01*
X19885488Y-15563632D01*
X19885130Y-15535452D01*
X19843725Y-15340274D01*
X19833365Y-15316134D01*
X19830887Y-15289978D01*
X19769085Y-15083487D01*
X19757806Y-15062196D01*
X19753744Y-15038447D01*
X19670062Y-14819951D01*
X19658425Y-14801476D01*
X19653293Y-14780256D01*
X19546248Y-14549069D01*
X19534692Y-14533219D01*
X19528928Y-14514468D01*
X19397037Y-14269899D01*
X19385864Y-14256387D01*
X19379809Y-14239936D01*
X19221589Y-13981299D01*
X19181290Y-13937636D01*
X19150786Y-13886642D01*
X19098080Y-13847481D01*
X19053546Y-13799230D01*
X18999604Y-13774312D01*
X18951908Y-13738874D01*
X18888225Y-13722863D01*
X18828619Y-13695329D01*
X18769251Y-13692951D01*
X18711622Y-13678462D01*
X18646660Y-13688040D01*
X18581053Y-13685412D01*
X18525292Y-13705935D01*
X18466507Y-13714602D01*
X18410156Y-13748310D01*
X18348537Y-13770989D01*
X18304874Y-13811288D01*
X18253880Y-13841792D01*
X18214719Y-13894498D01*
X18166468Y-13939032D01*
X18141550Y-13992974D01*
X18106112Y-14040670D01*
X18090101Y-14104353D01*
X18062567Y-14163959D01*
X18060189Y-14223327D01*
X18045700Y-14280956D01*
X18038524Y-14424469D01*
X18022659Y-14529605D01*
X17997088Y-14629901D01*
X17961690Y-14727772D01*
X17915895Y-14825118D01*
X17858990Y-14923171D01*
X17790327Y-15022606D01*
X17709544Y-15123607D01*
X17616633Y-15226049D01*
X17511809Y-15329778D01*
X17395613Y-15434541D01*
X17268722Y-15540183D01*
X17131900Y-15646652D01*
X16986069Y-15753921D01*
X16832136Y-15862098D01*
X16670982Y-15971391D01*
X16503709Y-16081940D01*
X16330783Y-16194357D01*
X16154090Y-16308377D01*
X16153934Y-16308528D01*
X16153735Y-16308607D01*
X15974579Y-16424387D01*
X15973505Y-16425428D01*
X15972117Y-16425986D01*
X15792441Y-16543283D01*
X15790474Y-16545209D01*
X15787927Y-16546257D01*
X15608574Y-16665533D01*
X15605726Y-16668369D01*
X15602028Y-16669945D01*
X15423844Y-16791665D01*
X15420135Y-16795451D01*
X15415298Y-16797607D01*
X15239128Y-16922235D01*
X15234585Y-16927027D01*
X15228608Y-16929839D01*
X15055296Y-17057840D01*
X15049947Y-17063718D01*
X15042842Y-17067277D01*
X14873233Y-17199114D01*
X14867122Y-17206171D01*
X14858901Y-17210591D01*
X14693840Y-17346728D01*
X14687026Y-17355072D01*
X14677714Y-17360487D01*
X14518045Y-17501389D01*
X14510616Y-17511133D01*
X14500267Y-17517689D01*
X14346835Y-17663820D01*
X14338904Y-17675085D01*
X14327592Y-17682948D01*
X14181243Y-17834773D01*
X14172968Y-17847664D01*
X14160821Y-17856993D01*
X14022397Y-18014976D01*
X14013974Y-18029580D01*
X14001162Y-18040532D01*
X13871510Y-18205135D01*
X13863182Y-18221497D01*
X13849928Y-18234203D01*
X13729893Y-18405892D01*
X13721941Y-18423999D01*
X13708533Y-18438535D01*
X13598959Y-18617776D01*
X13591695Y-18637531D01*
X13578465Y-18653904D01*
X13480196Y-18841158D01*
X13473933Y-18862382D01*
X13461242Y-18880508D01*
X13375124Y-19076240D01*
X13370158Y-19098643D01*
X13358371Y-19118330D01*
X13285248Y-19323005D01*
X13281816Y-19346219D01*
X13271262Y-19367177D01*
X13211979Y-19581258D01*
X13210235Y-19604848D01*
X13201177Y-19626702D01*
X13156578Y-19850656D01*
X13156573Y-19874172D01*
X13149181Y-19896493D01*
X13120113Y-20130780D01*
X13121792Y-20153769D01*
X13116131Y-20176117D01*
X13103436Y-20421205D01*
X13106652Y-20443294D01*
X13102685Y-20465258D01*
X710000Y-20465258D01*
X710000Y-17102451D01*
X1122560Y-17184515D01*
X1122560Y-17920000D01*
X1135000Y-17986113D01*
X1135000Y-18250000D01*
X1221397Y-18684346D01*
X1436602Y-19006423D01*
X1467434Y-19052566D01*
X1927434Y-19512566D01*
X2295655Y-19758603D01*
X2730000Y-19845000D01*
X3164345Y-19758603D01*
X3532566Y-19512566D01*
X3778603Y-19144345D01*
X3838432Y-18843564D01*
X4722434Y-19727566D01*
X5090654Y-19973603D01*
X5525000Y-20060000D01*
X11275000Y-20060000D01*
X11709346Y-19973603D01*
X12077566Y-19727566D01*
X12323603Y-19359346D01*
X12410000Y-18925000D01*
X12323603Y-18490654D01*
X12077566Y-18122434D01*
X11709346Y-17876397D01*
X11275000Y-17790000D01*
X9617440Y-17790000D01*
X9617440Y-15682745D01*
X14571861Y-15682745D01*
X14645995Y-15928864D01*
X15183223Y-16121965D01*
X15753454Y-16094778D01*
X16154005Y-15928864D01*
X16228139Y-15682745D01*
X15400000Y-14854605D01*
X14571861Y-15682745D01*
X9617440Y-15682745D01*
X9617440Y-14720000D01*
X9573162Y-14484683D01*
X9556136Y-14458223D01*
X13953035Y-14458223D01*
X13980222Y-15028454D01*
X14146136Y-15429005D01*
X14392255Y-15503139D01*
X15220395Y-14675000D01*
X15579605Y-14675000D01*
X16407745Y-15503139D01*
X16653864Y-15429005D01*
X16846965Y-14891777D01*
X16819778Y-14321546D01*
X16653864Y-13920995D01*
X16407745Y-13846861D01*
X15579605Y-14675000D01*
X15220395Y-14675000D01*
X14392255Y-13846861D01*
X14146136Y-13920995D01*
X13953035Y-14458223D01*
X9556136Y-14458223D01*
X9435363Y-14270537D01*
X9516431Y-14151890D01*
X9567440Y-13900000D01*
X9567440Y-11375000D01*
X13952560Y-11375000D01*
X13952560Y-12975000D01*
X13996838Y-13210317D01*
X14135910Y-13426441D01*
X14348110Y-13571431D01*
X14586201Y-13619646D01*
X14571861Y-13667255D01*
X15400000Y-14495395D01*
X16228139Y-13667255D01*
X16213855Y-13619833D01*
X16435317Y-13578162D01*
X16651441Y-13439090D01*
X16796431Y-13226890D01*
X16847440Y-12975000D01*
X16847440Y-11375000D01*
X16803162Y-11139683D01*
X16664090Y-10923559D01*
X16451890Y-10778569D01*
X16200000Y-10727560D01*
X14600000Y-10727560D01*
X14364683Y-10771838D01*
X14148559Y-10910910D01*
X14003569Y-11123110D01*
X13952560Y-11375000D01*
X9567440Y-11375000D01*
X9567440Y-10700000D01*
X9523162Y-10464683D01*
X9384090Y-10248559D01*
X9171890Y-10103569D01*
X8920000Y-10052560D01*
X7920000Y-10052560D01*
X7684683Y-10096838D01*
X7468559Y-10235910D01*
X7323569Y-10448110D01*
X7272560Y-10700000D01*
X7272560Y-11540000D01*
X7246742Y-11540000D01*
X7223162Y-11414683D01*
X7084090Y-11198559D01*
X6871890Y-11053569D01*
X6620000Y-11002560D01*
X5620000Y-11002560D01*
X5384683Y-11046838D01*
X5321522Y-11087481D01*
X5271890Y-11053569D01*
X5020000Y-11002560D01*
X4020000Y-11002560D01*
X3784683Y-11046838D01*
X3568559Y-11185910D01*
X3423569Y-11398110D01*
X3420149Y-11415000D01*
X3367440Y-11415000D01*
X3367440Y-10700000D01*
X3323162Y-10464683D01*
X3184090Y-10248559D01*
X2971890Y-10103569D01*
X2720000Y-10052560D01*
X1720000Y-10052560D01*
X1484683Y-10096838D01*
X1268559Y-10235910D01*
X1123569Y-10448110D01*
X1072560Y-10700000D01*
X1072560Y-13900000D01*
X1116838Y-14135317D01*
X1254637Y-14349463D01*
X1173569Y-14468110D01*
X1122560Y-14720000D01*
X1122560Y-14915485D01*
X710000Y-14997549D01*
X710000Y-4882390D01*
X2131594Y-4896059D01*
X2131594Y-4896059D01*
G37*
X2131594Y-4896059D02*
X1479274Y-5547242D01*
X1115415Y-6423513D01*
X1114587Y-7372325D01*
X1476916Y-8249229D01*
X2147242Y-8920726D01*
X3023513Y-9284585D01*
X3972325Y-9285413D01*
X4849229Y-8923084D01*
X5520726Y-8252758D01*
X5637171Y-7972325D01*
X19814587Y-7972325D01*
X20176916Y-8849229D01*
X20847242Y-9520726D01*
X21723513Y-9884585D01*
X22672325Y-9885413D01*
X23549229Y-9523084D01*
X24220726Y-8852758D01*
X24584585Y-7976487D01*
X24585413Y-7027675D01*
X24223084Y-6150771D01*
X23552758Y-5479274D01*
X22676487Y-5115415D01*
X21727675Y-5114587D01*
X20850771Y-5476916D01*
X20179274Y-6147242D01*
X19815415Y-7023513D01*
X19814587Y-7972325D01*
X5637171Y-7972325D01*
X5884585Y-7376487D01*
X5885413Y-6427675D01*
X5523084Y-5550771D01*
X4896049Y-4922641D01*
X25040000Y-5116333D01*
X25040000Y-31502560D01*
X23400000Y-31502560D01*
X23164683Y-31546838D01*
X22948559Y-31685910D01*
X22803569Y-31898110D01*
X22752560Y-32150000D01*
X22752560Y-32720557D01*
X22739690Y-32733427D01*
X12597440Y-32733427D01*
X12597440Y-32150000D01*
X12553162Y-31914683D01*
X12414090Y-31698559D01*
X12201890Y-31553569D01*
X11950000Y-31502560D01*
X10250000Y-31502560D01*
X10014683Y-31546838D01*
X9798559Y-31685910D01*
X9653569Y-31898110D01*
X9602560Y-32150000D01*
X9602560Y-33850000D01*
X9642569Y-34062629D01*
X9142599Y-34562599D01*
X8977852Y-34809161D01*
X8920000Y-35100000D01*
X8920000Y-36660000D01*
X8977852Y-36950839D01*
X9142599Y-37197401D01*
X9658790Y-37713592D01*
X9585907Y-38080000D01*
X9597842Y-38140000D01*
X9077158Y-38140000D01*
X8786319Y-38197852D01*
X8539757Y-38362599D01*
X7662599Y-39239757D01*
X7497852Y-39486319D01*
X7475000Y-39601203D01*
X7475000Y-35972560D01*
X7747885Y-36085872D01*
X8090611Y-36086171D01*
X8407363Y-35955292D01*
X8649918Y-35713160D01*
X8781350Y-35396637D01*
X8781649Y-35053911D01*
X8650770Y-34737159D01*
X8645778Y-34732158D01*
X8622148Y-34613363D01*
X8457401Y-34366802D01*
X7935009Y-33844410D01*
X7935009Y-22345009D01*
X7877157Y-22054170D01*
X7712410Y-21807608D01*
X7611694Y-21706892D01*
X7510770Y-21462637D01*
X7268638Y-21220082D01*
X6952115Y-21088650D01*
X6609389Y-21088351D01*
X6292637Y-21219230D01*
X6243570Y-21268212D01*
X6213765Y-21238355D01*
X5796756Y-21065197D01*
X5345225Y-21064803D01*
X4927914Y-21237233D01*
X4608355Y-21556235D01*
X4435197Y-21973244D01*
X4434803Y-22424775D01*
X4607233Y-22842086D01*
X4926235Y-23161645D01*
X4926710Y-23161842D01*
X5205000Y-23440133D01*
X5205000Y-23668504D01*
X5029389Y-23668351D01*
X4783379Y-23770000D01*
X4080000Y-23770000D01*
X3789161Y-23827852D01*
X3542599Y-23992599D01*
X3092599Y-24442599D01*
X2927852Y-24689161D01*
X2870000Y-24980000D01*
X2870000Y-35572908D01*
X2914998Y-35799126D01*
X2914998Y-39946750D01*
X2738638Y-39770082D01*
X2422115Y-39638650D01*
X2079389Y-39638351D01*
X1762637Y-39769230D01*
X1520082Y-40011362D01*
X1388650Y-40327885D01*
X1388351Y-40670611D01*
X1490000Y-40916621D01*
X1490000Y-41515198D01*
X1376892Y-41628306D01*
X1132637Y-41729230D01*
X890082Y-41971362D01*
X758650Y-42287885D01*
X758351Y-42630611D01*
X889230Y-42947363D01*
X1131362Y-43189918D01*
X1447885Y-43321350D01*
X1790611Y-43321649D01*
X2107363Y-43190770D01*
X2349918Y-42948638D01*
X2451997Y-42702805D01*
X2787401Y-42367401D01*
X2930547Y-42153167D01*
X2972850Y-42365837D01*
X3137597Y-42612399D01*
X3318306Y-42793108D01*
X3419230Y-43037363D01*
X3661362Y-43279918D01*
X3977885Y-43411350D01*
X4320611Y-43411649D01*
X4637363Y-43280770D01*
X4879918Y-43038638D01*
X4928915Y-42920639D01*
X4966383Y-42958172D01*
X5205000Y-43057255D01*
X5205000Y-44470000D01*
X5291397Y-44904346D01*
X5478487Y-45184346D01*
X5537434Y-45272566D01*
X6377434Y-46112566D01*
X6745654Y-46358603D01*
X7148747Y-46438783D01*
X7163244Y-46444803D01*
X7179079Y-46444817D01*
X7180000Y-46445000D01*
X7389009Y-46445000D01*
X7614775Y-46445197D01*
X8032086Y-46272767D01*
X8351645Y-45953765D01*
X8524803Y-45536756D01*
X8525167Y-45119999D01*
X9706774Y-45119999D01*
X9698946Y-45131715D01*
X9585907Y-45700000D01*
X9698946Y-46268285D01*
X10020853Y-46750054D01*
X10502622Y-47071961D01*
X11070907Y-47185000D01*
X11129093Y-47185000D01*
X11697378Y-47071961D01*
X12179147Y-46750054D01*
X12501054Y-46268285D01*
X12614093Y-45700000D01*
X12501054Y-45131715D01*
X12493226Y-45119999D01*
X12514991Y-45119999D01*
X12805830Y-45062147D01*
X13052392Y-44897400D01*
X13341970Y-44607822D01*
X13522372Y-44533282D01*
X13757466Y-44298597D01*
X13884855Y-43991811D01*
X13885145Y-43659627D01*
X13758292Y-43352618D01*
X13523607Y-43117524D01*
X13216821Y-42990135D01*
X12884637Y-42989845D01*
X12603364Y-43106064D01*
X12501054Y-42591715D01*
X12179147Y-42109946D01*
X11838447Y-41882298D01*
X11981358Y-41815183D01*
X12371645Y-41386924D01*
X12541476Y-40976890D01*
X12420155Y-40747000D01*
X11227000Y-40747000D01*
X11227000Y-40767000D01*
X10973000Y-40767000D01*
X10973000Y-40747000D01*
X9779845Y-40747000D01*
X9658524Y-40976890D01*
X9828355Y-41386924D01*
X10218642Y-41815183D01*
X10361553Y-41882298D01*
X10020853Y-42109946D01*
X9698946Y-42591715D01*
X9585907Y-43160000D01*
X9673428Y-43599999D01*
X8403198Y-43599999D01*
X8357842Y-43554643D01*
X8283302Y-43374241D01*
X8048617Y-43139147D01*
X7741831Y-43011758D01*
X7475000Y-43011525D01*
X7475000Y-41471935D01*
X7491708Y-41512372D01*
X7726393Y-41747466D01*
X8033179Y-41874855D01*
X8365363Y-41875145D01*
X8672372Y-41748292D01*
X8907466Y-41513607D01*
X9034855Y-41206821D01*
X9035145Y-40874637D01*
X8960000Y-40692771D01*
X8960000Y-40091960D01*
X9391960Y-39660000D01*
X9685198Y-39660000D01*
X9852157Y-39826959D01*
X9828355Y-39853076D01*
X9658524Y-40263110D01*
X9779845Y-40493000D01*
X10973000Y-40493000D01*
X10973000Y-40473000D01*
X11227000Y-40473000D01*
X11227000Y-40493000D01*
X12420155Y-40493000D01*
X12541476Y-40263110D01*
X12496707Y-40155021D01*
X12638257Y-40155145D01*
X12945266Y-40028292D01*
X13180360Y-39793607D01*
X13307749Y-39486821D01*
X13308039Y-39154637D01*
X13181186Y-38847628D01*
X12946501Y-38612534D01*
X12639715Y-38485145D01*
X12533523Y-38485052D01*
X12614093Y-38080000D01*
X12501054Y-37511715D01*
X12179147Y-37029946D01*
X11849974Y-36810000D01*
X11990783Y-36715915D01*
X12630538Y-37355670D01*
X12998758Y-37601707D01*
X13433104Y-37688104D01*
X14895000Y-37688104D01*
X14895000Y-46500000D01*
X14944824Y-46750483D01*
X14944803Y-46774775D01*
X14954161Y-46797424D01*
X14981397Y-46934346D01*
X15058280Y-47049410D01*
X15117233Y-47192086D01*
X15219804Y-47294836D01*
X14976450Y-47537765D01*
X14901613Y-47717992D01*
X14309605Y-48310000D01*
X14901367Y-48901762D01*
X14975104Y-49080220D01*
X15357765Y-49463550D01*
X15857993Y-49671263D01*
X16399631Y-49671735D01*
X16900220Y-49464896D01*
X17100981Y-49264485D01*
X17355120Y-49264485D01*
X17420220Y-49502994D01*
X17930788Y-49683805D01*
X18471684Y-49655466D01*
X18839780Y-49502994D01*
X18904880Y-49264485D01*
X18130000Y-48489605D01*
X17355120Y-49264485D01*
X17100981Y-49264485D01*
X17283550Y-49082235D01*
X17358387Y-48902008D01*
X17950395Y-48310000D01*
X18309605Y-48310000D01*
X19084485Y-49084880D01*
X19322994Y-49019780D01*
X19503805Y-48509212D01*
X19475466Y-47968316D01*
X19322994Y-47600220D01*
X19084485Y-47535120D01*
X18309605Y-48310000D01*
X17950395Y-48310000D01*
X17358633Y-47718238D01*
X17284896Y-47539780D01*
X17100953Y-47355515D01*
X17355120Y-47355515D01*
X18130000Y-48130395D01*
X18904880Y-47355515D01*
X18839780Y-47117006D01*
X18329212Y-46936195D01*
X17788316Y-46964534D01*
X17420220Y-47117006D01*
X17355120Y-47355515D01*
X17100953Y-47355515D01*
X16990476Y-47244845D01*
X17041645Y-47193765D01*
X17214803Y-46776756D01*
X17215197Y-46325225D01*
X17165000Y-46203739D01*
X17165000Y-37688104D01*
X22813860Y-37688104D01*
X22735907Y-38080000D01*
X22848946Y-38648285D01*
X22952273Y-38802925D01*
X21222599Y-40532599D01*
X21057852Y-40779161D01*
X21000000Y-41070000D01*
X21000000Y-43442909D01*
X20925145Y-43623179D01*
X20924855Y-43955363D01*
X21051708Y-44262372D01*
X21286393Y-44497466D01*
X21593179Y-44624855D01*
X21925363Y-44625145D01*
X22232372Y-44498292D01*
X22467466Y-44263607D01*
X22594855Y-43956821D01*
X22595145Y-43624637D01*
X22520000Y-43442771D01*
X22520000Y-41384802D01*
X22843490Y-41061312D01*
X22978355Y-41386924D01*
X23368642Y-41815183D01*
X23511553Y-41882298D01*
X23170853Y-42109946D01*
X22848946Y-42591715D01*
X22735907Y-43160000D01*
X22848946Y-43728285D01*
X23170853Y-44210054D01*
X23500026Y-44430000D01*
X23170853Y-44649946D01*
X22848946Y-45131715D01*
X22735907Y-45700000D01*
X22848946Y-46268285D01*
X23170853Y-46750054D01*
X23652622Y-47071961D01*
X24220907Y-47185000D01*
X24279093Y-47185000D01*
X24847378Y-47071961D01*
X25040000Y-46943255D01*
X25040000Y-50344152D01*
X24803084Y-49770771D01*
X24132758Y-49099274D01*
X23256487Y-48735415D01*
X22307675Y-48734587D01*
X21430771Y-49096916D01*
X20759274Y-49767242D01*
X20395415Y-50643513D01*
X20394587Y-51592325D01*
X20756916Y-52469229D01*
X21427242Y-53140726D01*
X22303513Y-53504585D01*
X23252325Y-53505413D01*
X24129229Y-53143084D01*
X24800726Y-52472758D01*
X25040000Y-51896521D01*
X25040000Y-55590000D01*
X24592874Y-55590000D01*
X18509216Y-55543684D01*
X18856943Y-55400005D01*
X19218735Y-55038845D01*
X19414777Y-54566724D01*
X19415223Y-54055519D01*
X19220005Y-53583057D01*
X18858845Y-53221265D01*
X18386724Y-53025223D01*
X17875519Y-53024777D01*
X17403057Y-53219995D01*
X17041265Y-53581155D01*
X16845223Y-54053276D01*
X16844777Y-54564481D01*
X17039995Y-55036943D01*
X17401155Y-55398735D01*
X17736054Y-55537797D01*
X14581584Y-55513782D01*
X14856943Y-55400005D01*
X15218735Y-55038845D01*
X15414777Y-54566724D01*
X15415223Y-54055519D01*
X15220005Y-53583057D01*
X14858845Y-53221265D01*
X14386724Y-53025223D01*
X13875519Y-53024777D01*
X13403057Y-53219995D01*
X13041265Y-53581155D01*
X12845223Y-54053276D01*
X12844777Y-54564481D01*
X13039995Y-55036943D01*
X13401155Y-55398735D01*
X13661346Y-55506776D01*
X710000Y-55408174D01*
X710000Y-53272325D01*
X1414587Y-53272325D01*
X1776916Y-54149229D01*
X2447242Y-54820726D01*
X3323513Y-55184585D01*
X4272325Y-55185413D01*
X5149229Y-54823084D01*
X5820726Y-54152758D01*
X6184585Y-53276487D01*
X6185413Y-52327675D01*
X5823084Y-51450771D01*
X5152758Y-50779274D01*
X4276487Y-50415415D01*
X3327675Y-50414587D01*
X2450771Y-50776916D01*
X1779274Y-51447242D01*
X1415415Y-52323513D01*
X1414587Y-53272325D01*
X710000Y-53272325D01*
X710000Y-50205000D01*
X7410238Y-50205000D01*
X7410238Y-53725000D01*
X12889762Y-53725000D01*
X12889762Y-50205000D01*
X7410238Y-50205000D01*
X710000Y-50205000D01*
X710000Y-47720611D01*
X2818351Y-47720611D01*
X2949230Y-48037363D01*
X3191362Y-48279918D01*
X3507885Y-48411350D01*
X3787111Y-48411594D01*
X4188625Y-48813108D01*
X4289549Y-49057363D01*
X4531681Y-49299918D01*
X4848204Y-49431350D01*
X5190930Y-49431649D01*
X5507682Y-49300770D01*
X5544030Y-49264485D01*
X13355120Y-49264485D01*
X13420220Y-49502994D01*
X13930788Y-49683805D01*
X14471684Y-49655466D01*
X14839780Y-49502994D01*
X14904880Y-49264485D01*
X14130000Y-48489605D01*
X13355120Y-49264485D01*
X5544030Y-49264485D01*
X5750237Y-49058638D01*
X5881669Y-48742115D01*
X5881968Y-48399389D01*
X5762721Y-48110788D01*
X12756195Y-48110788D01*
X12784534Y-48651684D01*
X12937006Y-49019780D01*
X13175515Y-49084880D01*
X13950395Y-48310000D01*
X13175515Y-47535120D01*
X12937006Y-47600220D01*
X12756195Y-48110788D01*
X5762721Y-48110788D01*
X5751089Y-48082637D01*
X5508957Y-47840082D01*
X5263124Y-47738003D01*
X4880636Y-47355515D01*
X13355120Y-47355515D01*
X14130000Y-48130395D01*
X14904880Y-47355515D01*
X14839780Y-47117006D01*
X14329212Y-46936195D01*
X13788316Y-46964534D01*
X13420220Y-47117006D01*
X13355120Y-47355515D01*
X4880636Y-47355515D01*
X4537720Y-47012599D01*
X4291158Y-46847852D01*
X4172872Y-46824323D01*
X4168638Y-46820082D01*
X3852115Y-46688650D01*
X3509389Y-46688351D01*
X3192637Y-46819230D01*
X2950082Y-47061362D01*
X2818650Y-47377885D01*
X2818351Y-47720611D01*
X710000Y-47720611D01*
X710000Y-20465258D01*
X13102685Y-20465258D01*
X13107209Y-20721608D01*
X13111746Y-20742486D01*
X13109352Y-20763718D01*
X13131940Y-21031797D01*
X13139233Y-21057119D01*
X13138435Y-21083457D01*
X13189069Y-21385530D01*
X13200502Y-21415683D01*
X13202766Y-21447852D01*
X13280365Y-21731984D01*
X13294422Y-21760147D01*
X13299696Y-21791175D01*
X13401445Y-22057684D01*
X13417505Y-22083240D01*
X13425336Y-22112395D01*
X13548418Y-22361599D01*
X13565793Y-22384214D01*
X13575605Y-22410992D01*
X13717206Y-22643211D01*
X13735231Y-22662797D01*
X13746427Y-22686948D01*
X13903731Y-22902501D01*
X13921845Y-22919175D01*
X13933877Y-22940651D01*
X14104069Y-23139855D01*
X14121846Y-23153865D01*
X14134267Y-23172780D01*
X14314531Y-23355955D01*
X14331683Y-23367615D01*
X14344158Y-23384180D01*
X14531681Y-23551645D01*
X14548041Y-23561288D01*
X14560341Y-23575759D01*
X14752307Y-23727832D01*
X14767812Y-23735779D01*
X14779801Y-23748428D01*
X14973394Y-23885427D01*
X14988059Y-23891967D01*
X14999674Y-23903059D01*
X15192077Y-24025303D01*
X15205979Y-24030690D01*
X15217224Y-24040475D01*
X15405622Y-24148284D01*
X15418892Y-24152732D01*
X15429838Y-24161452D01*
X15611419Y-24255143D01*
X15639179Y-24263125D01*
X15663297Y-24279021D01*
X15757417Y-24297125D01*
X15849534Y-24323613D01*
X15878237Y-24320364D01*
X15906601Y-24325820D01*
X17256180Y-24317290D01*
X17207914Y-24337233D01*
X16888355Y-24656235D01*
X16888158Y-24656710D01*
X16547435Y-24997433D01*
X16301398Y-25365653D01*
X16215001Y-25799999D01*
X16215000Y-30656081D01*
X16214803Y-30881847D01*
X16387233Y-31299158D01*
X16706235Y-31618717D01*
X17123244Y-31791875D01*
X17574775Y-31792269D01*
X17992086Y-31619839D01*
X18311645Y-31300837D01*
X18484803Y-30883828D01*
X18485197Y-30432297D01*
X18485000Y-30431820D01*
X18485001Y-26270131D01*
X18652152Y-26102980D01*
X18811645Y-25943765D01*
X18984803Y-25526756D01*
X18985197Y-25075225D01*
X18812767Y-24657914D01*
X18493765Y-24338355D01*
X18425240Y-24309901D01*
X19851582Y-24300885D01*
X19851585Y-24300886D01*
X19851588Y-24300885D01*
X19855599Y-24300860D01*
X19916148Y-24288418D01*
X19978097Y-24288156D01*
X20020004Y-24279636D01*
X20064129Y-24261140D01*
X20111405Y-24253804D01*
X20168081Y-24233098D01*
X20192380Y-24218312D01*
X20219989Y-24211482D01*
X20289726Y-24178748D01*
X20306295Y-24166534D01*
X20325919Y-24160324D01*
X20407012Y-24115724D01*
X20419960Y-24104836D01*
X20435797Y-24098893D01*
X20526537Y-24042589D01*
X20537593Y-24032254D01*
X20551496Y-24026278D01*
X20650177Y-23958431D01*
X20660180Y-23948159D01*
X20673087Y-23941917D01*
X20778003Y-23862689D01*
X20787410Y-23852128D01*
X20799858Y-23845419D01*
X20909302Y-23754969D01*
X20918355Y-23743860D01*
X20930659Y-23736505D01*
X21042924Y-23634996D01*
X21051763Y-23623108D01*
X21064118Y-23614929D01*
X21177498Y-23502520D01*
X21186178Y-23489650D01*
X21198697Y-23480466D01*
X21311484Y-23357321D01*
X21319999Y-23343281D01*
X21332727Y-23332906D01*
X21443216Y-23199185D01*
X21451508Y-23183795D01*
X21464435Y-23172035D01*
X21570919Y-23027900D01*
X21578871Y-23011005D01*
X21591936Y-22997656D01*
X21692707Y-22843266D01*
X21700151Y-22824732D01*
X21713207Y-22809621D01*
X21806560Y-22645139D01*
X21813271Y-22624878D01*
X21826121Y-22607842D01*
X21910347Y-22433430D01*
X21916048Y-22411426D01*
X21928421Y-22392357D01*
X22001816Y-22208173D01*
X22006196Y-22184487D01*
X22017758Y-22163354D01*
X22078613Y-21969562D01*
X22081342Y-21944371D01*
X22091714Y-21921256D01*
X22138323Y-21718015D01*
X22139091Y-21691628D01*
X22147885Y-21666736D01*
X22178542Y-21454209D01*
X22177099Y-21427045D01*
X22183958Y-21400722D01*
X22196956Y-21179070D01*
X22193155Y-21151654D01*
X22197803Y-21124370D01*
X22191435Y-20893753D01*
X22185265Y-20866664D01*
X22187547Y-20838973D01*
X22160106Y-20599553D01*
X22151703Y-20573364D01*
X22151610Y-20545863D01*
X22101391Y-20297801D01*
X22091028Y-20273020D01*
X22088693Y-20246258D01*
X22013987Y-19989716D01*
X22002032Y-19966737D01*
X21997711Y-19941201D01*
X21896812Y-19676339D01*
X21883690Y-19655424D01*
X21877714Y-19631466D01*
X21748916Y-19358445D01*
X21735051Y-19339711D01*
X21727786Y-19317562D01*
X21569382Y-19036544D01*
X21555160Y-19019986D01*
X21546969Y-18999759D01*
X21357253Y-18710904D01*
X21343008Y-18696432D01*
X21334214Y-18678128D01*
X21111478Y-18381601D01*
X21097473Y-18369062D01*
X21088355Y-18352618D01*
X20830891Y-18048575D01*
X20817315Y-18037779D01*
X20808097Y-18023081D01*
X20514202Y-17711686D01*
X20442729Y-17660881D01*
X20377620Y-17602138D01*
X20342571Y-17589687D01*
X20312257Y-17568139D01*
X20226784Y-17548554D01*
X20144150Y-17519198D01*
X20107005Y-17521107D01*
X20070751Y-17512800D01*
X19984281Y-17527416D01*
X19896712Y-17531917D01*
X19863129Y-17547894D01*
X19826452Y-17554093D01*
X19752156Y-17600688D01*
X19672976Y-17638357D01*
X19648062Y-17665971D01*
X19616551Y-17685733D01*
X19565746Y-17757206D01*
X19507003Y-17822315D01*
X19494552Y-17857364D01*
X19473004Y-17887678D01*
X19453419Y-17973151D01*
X19424063Y-18055785D01*
X19425972Y-18092930D01*
X19417665Y-18129184D01*
X19432281Y-18215654D01*
X19436782Y-18303223D01*
X19501519Y-18559206D01*
X19520710Y-18734753D01*
X19514043Y-18869190D01*
X19491261Y-18968562D01*
X19459080Y-19041987D01*
X19419702Y-19098977D01*
X19371821Y-19146225D01*
X19313457Y-19186243D01*
X19244387Y-19218348D01*
X19166906Y-19240598D01*
X19085473Y-19251351D01*
X19005861Y-19250183D01*
X18934315Y-19238369D01*
X18876516Y-19219110D01*
X18836146Y-19197343D01*
X18812974Y-19178334D01*
X18786356Y-19144753D01*
X18729166Y-19044491D01*
X18681727Y-18941027D01*
X18652182Y-18854644D01*
X18636402Y-18783503D01*
X18630515Y-18724127D01*
X18631796Y-18671688D01*
X18639272Y-18620832D01*
X18653606Y-18567014D01*
X18676331Y-18507203D01*
X18708943Y-18439988D01*
X18752321Y-18365114D01*
X18806608Y-18282855D01*
X18871201Y-18193732D01*
X18945112Y-18098003D01*
X19026997Y-17995751D01*
X19114235Y-17888123D01*
X19115050Y-17886576D01*
X19116388Y-17885452D01*
X19205178Y-17774691D01*
X19207625Y-17769985D01*
X19211630Y-17766506D01*
X19299303Y-17653384D01*
X19303233Y-17645511D01*
X19309713Y-17639566D01*
X19394787Y-17523393D01*
X19399966Y-17512270D01*
X19408685Y-17503637D01*
X19489676Y-17383725D01*
X19495761Y-17369240D01*
X19506376Y-17357652D01*
X19581802Y-17233314D01*
X19588332Y-17215364D01*
X19600374Y-17200543D01*
X19668752Y-17071088D01*
X19675125Y-17049699D01*
X19687964Y-17031443D01*
X19747809Y-16896182D01*
X19753321Y-16871556D01*
X19766172Y-16849842D01*
X19816002Y-16708089D01*
X19819908Y-16680706D01*
X19831897Y-16655776D01*
X19870229Y-16506841D01*
X19871862Y-16477471D01*
X19882131Y-16449908D01*
X19907481Y-16293101D01*
X19906387Y-16262780D01*
X19914248Y-16233475D01*
X19925135Y-16068109D01*
X19921176Y-16037969D01*
X19926240Y-16007997D01*
X19921179Y-15833383D01*
X19914560Y-15804505D01*
X19916782Y-15774959D01*
X19894290Y-15590407D01*
X19885488Y-15563632D01*
X19885130Y-15535452D01*
X19843725Y-15340274D01*
X19833365Y-15316134D01*
X19830887Y-15289978D01*
X19769085Y-15083487D01*
X19757806Y-15062196D01*
X19753744Y-15038447D01*
X19670062Y-14819951D01*
X19658425Y-14801476D01*
X19653293Y-14780256D01*
X19546248Y-14549069D01*
X19534692Y-14533219D01*
X19528928Y-14514468D01*
X19397037Y-14269899D01*
X19385864Y-14256387D01*
X19379809Y-14239936D01*
X19221589Y-13981299D01*
X19181290Y-13937636D01*
X19150786Y-13886642D01*
X19098080Y-13847481D01*
X19053546Y-13799230D01*
X18999604Y-13774312D01*
X18951908Y-13738874D01*
X18888225Y-13722863D01*
X18828619Y-13695329D01*
X18769251Y-13692951D01*
X18711622Y-13678462D01*
X18646660Y-13688040D01*
X18581053Y-13685412D01*
X18525292Y-13705935D01*
X18466507Y-13714602D01*
X18410156Y-13748310D01*
X18348537Y-13770989D01*
X18304874Y-13811288D01*
X18253880Y-13841792D01*
X18214719Y-13894498D01*
X18166468Y-13939032D01*
X18141550Y-13992974D01*
X18106112Y-14040670D01*
X18090101Y-14104353D01*
X18062567Y-14163959D01*
X18060189Y-14223327D01*
X18045700Y-14280956D01*
X18038524Y-14424469D01*
X18022659Y-14529605D01*
X17997088Y-14629901D01*
X17961690Y-14727772D01*
X17915895Y-14825118D01*
X17858990Y-14923171D01*
X17790327Y-15022606D01*
X17709544Y-15123607D01*
X17616633Y-15226049D01*
X17511809Y-15329778D01*
X17395613Y-15434541D01*
X17268722Y-15540183D01*
X17131900Y-15646652D01*
X16986069Y-15753921D01*
X16832136Y-15862098D01*
X16670982Y-15971391D01*
X16503709Y-16081940D01*
X16330783Y-16194357D01*
X16154090Y-16308377D01*
X16153934Y-16308528D01*
X16153735Y-16308607D01*
X15974579Y-16424387D01*
X15973505Y-16425428D01*
X15972117Y-16425986D01*
X15792441Y-16543283D01*
X15790474Y-16545209D01*
X15787927Y-16546257D01*
X15608574Y-16665533D01*
X15605726Y-16668369D01*
X15602028Y-16669945D01*
X15423844Y-16791665D01*
X15420135Y-16795451D01*
X15415298Y-16797607D01*
X15239128Y-16922235D01*
X15234585Y-16927027D01*
X15228608Y-16929839D01*
X15055296Y-17057840D01*
X15049947Y-17063718D01*
X15042842Y-17067277D01*
X14873233Y-17199114D01*
X14867122Y-17206171D01*
X14858901Y-17210591D01*
X14693840Y-17346728D01*
X14687026Y-17355072D01*
X14677714Y-17360487D01*
X14518045Y-17501389D01*
X14510616Y-17511133D01*
X14500267Y-17517689D01*
X14346835Y-17663820D01*
X14338904Y-17675085D01*
X14327592Y-17682948D01*
X14181243Y-17834773D01*
X14172968Y-17847664D01*
X14160821Y-17856993D01*
X14022397Y-18014976D01*
X14013974Y-18029580D01*
X14001162Y-18040532D01*
X13871510Y-18205135D01*
X13863182Y-18221497D01*
X13849928Y-18234203D01*
X13729893Y-18405892D01*
X13721941Y-18423999D01*
X13708533Y-18438535D01*
X13598959Y-18617776D01*
X13591695Y-18637531D01*
X13578465Y-18653904D01*
X13480196Y-18841158D01*
X13473933Y-18862382D01*
X13461242Y-18880508D01*
X13375124Y-19076240D01*
X13370158Y-19098643D01*
X13358371Y-19118330D01*
X13285248Y-19323005D01*
X13281816Y-19346219D01*
X13271262Y-19367177D01*
X13211979Y-19581258D01*
X13210235Y-19604848D01*
X13201177Y-19626702D01*
X13156578Y-19850656D01*
X13156573Y-19874172D01*
X13149181Y-19896493D01*
X13120113Y-20130780D01*
X13121792Y-20153769D01*
X13116131Y-20176117D01*
X13103436Y-20421205D01*
X13106652Y-20443294D01*
X13102685Y-20465258D01*
X710000Y-20465258D01*
X710000Y-17102451D01*
X1122560Y-17184515D01*
X1122560Y-17920000D01*
X1135000Y-17986113D01*
X1135000Y-18250000D01*
X1221397Y-18684346D01*
X1436602Y-19006423D01*
X1467434Y-19052566D01*
X1927434Y-19512566D01*
X2295655Y-19758603D01*
X2730000Y-19845000D01*
X3164345Y-19758603D01*
X3532566Y-19512566D01*
X3778603Y-19144345D01*
X3838432Y-18843564D01*
X4722434Y-19727566D01*
X5090654Y-19973603D01*
X5525000Y-20060000D01*
X11275000Y-20060000D01*
X11709346Y-19973603D01*
X12077566Y-19727566D01*
X12323603Y-19359346D01*
X12410000Y-18925000D01*
X12323603Y-18490654D01*
X12077566Y-18122434D01*
X11709346Y-17876397D01*
X11275000Y-17790000D01*
X9617440Y-17790000D01*
X9617440Y-15682745D01*
X14571861Y-15682745D01*
X14645995Y-15928864D01*
X15183223Y-16121965D01*
X15753454Y-16094778D01*
X16154005Y-15928864D01*
X16228139Y-15682745D01*
X15400000Y-14854605D01*
X14571861Y-15682745D01*
X9617440Y-15682745D01*
X9617440Y-14720000D01*
X9573162Y-14484683D01*
X9556136Y-14458223D01*
X13953035Y-14458223D01*
X13980222Y-15028454D01*
X14146136Y-15429005D01*
X14392255Y-15503139D01*
X15220395Y-14675000D01*
X15579605Y-14675000D01*
X16407745Y-15503139D01*
X16653864Y-15429005D01*
X16846965Y-14891777D01*
X16819778Y-14321546D01*
X16653864Y-13920995D01*
X16407745Y-13846861D01*
X15579605Y-14675000D01*
X15220395Y-14675000D01*
X14392255Y-13846861D01*
X14146136Y-13920995D01*
X13953035Y-14458223D01*
X9556136Y-14458223D01*
X9435363Y-14270537D01*
X9516431Y-14151890D01*
X9567440Y-13900000D01*
X9567440Y-11375000D01*
X13952560Y-11375000D01*
X13952560Y-12975000D01*
X13996838Y-13210317D01*
X14135910Y-13426441D01*
X14348110Y-13571431D01*
X14586201Y-13619646D01*
X14571861Y-13667255D01*
X15400000Y-14495395D01*
X16228139Y-13667255D01*
X16213855Y-13619833D01*
X16435317Y-13578162D01*
X16651441Y-13439090D01*
X16796431Y-13226890D01*
X16847440Y-12975000D01*
X16847440Y-11375000D01*
X16803162Y-11139683D01*
X16664090Y-10923559D01*
X16451890Y-10778569D01*
X16200000Y-10727560D01*
X14600000Y-10727560D01*
X14364683Y-10771838D01*
X14148559Y-10910910D01*
X14003569Y-11123110D01*
X13952560Y-11375000D01*
X9567440Y-11375000D01*
X9567440Y-10700000D01*
X9523162Y-10464683D01*
X9384090Y-10248559D01*
X9171890Y-10103569D01*
X8920000Y-10052560D01*
X7920000Y-10052560D01*
X7684683Y-10096838D01*
X7468559Y-10235910D01*
X7323569Y-10448110D01*
X7272560Y-10700000D01*
X7272560Y-11540000D01*
X7246742Y-11540000D01*
X7223162Y-11414683D01*
X7084090Y-11198559D01*
X6871890Y-11053569D01*
X6620000Y-11002560D01*
X5620000Y-11002560D01*
X5384683Y-11046838D01*
X5321522Y-11087481D01*
X5271890Y-11053569D01*
X5020000Y-11002560D01*
X4020000Y-11002560D01*
X3784683Y-11046838D01*
X3568559Y-11185910D01*
X3423569Y-11398110D01*
X3420149Y-11415000D01*
X3367440Y-11415000D01*
X3367440Y-10700000D01*
X3323162Y-10464683D01*
X3184090Y-10248559D01*
X2971890Y-10103569D01*
X2720000Y-10052560D01*
X1720000Y-10052560D01*
X1484683Y-10096838D01*
X1268559Y-10235910D01*
X1123569Y-10448110D01*
X1072560Y-10700000D01*
X1072560Y-13900000D01*
X1116838Y-14135317D01*
X1254637Y-14349463D01*
X1173569Y-14468110D01*
X1122560Y-14720000D01*
X1122560Y-14915485D01*
X710000Y-14997549D01*
X710000Y-4882390D01*
X2131594Y-4896059D01*
G36*
X24377000Y-40493000D02*
X24397000Y-40493000D01*
X24397000Y-40747000D01*
X24377000Y-40747000D01*
X24377000Y-40767000D01*
X24123000Y-40767000D01*
X24123000Y-40747000D01*
X24103000Y-40747000D01*
X24103000Y-40493000D01*
X24123000Y-40493000D01*
X24123000Y-40473000D01*
X24377000Y-40473000D01*
X24377000Y-40493000D01*
X24377000Y-40493000D01*
G37*
X24377000Y-40493000D02*
X24397000Y-40493000D01*
X24397000Y-40747000D01*
X24377000Y-40747000D01*
X24377000Y-40767000D01*
X24123000Y-40767000D01*
X24123000Y-40747000D01*
X24103000Y-40747000D01*
X24103000Y-40493000D01*
X24123000Y-40493000D01*
X24123000Y-40473000D01*
X24377000Y-40473000D01*
X24377000Y-40493000D01*
G36*
X9811673Y-790301D02*
X9715000Y-1023690D01*
X9715000Y-1714250D01*
X9873750Y-1873000D01*
X11073000Y-1873000D01*
X11073000Y-1853000D01*
X11327000Y-1853000D01*
X11327000Y-1873000D01*
X12526250Y-1873000D01*
X12685000Y-1714250D01*
X12685000Y-1023690D01*
X12588327Y-790301D01*
X12508026Y-710000D01*
X22941974Y-710000D01*
X22861673Y-790301D01*
X22765000Y-1023690D01*
X22765000Y-1714250D01*
X22923750Y-1873000D01*
X24123000Y-1873000D01*
X24123000Y-1853000D01*
X24377000Y-1853000D01*
X24377000Y-1873000D01*
X24397000Y-1873000D01*
X24397000Y-2127000D01*
X24377000Y-2127000D01*
X24377000Y-3326250D01*
X24535750Y-3485000D01*
X25040000Y-3485000D01*
X25040000Y-3764035D01*
X8852000Y-3648900D01*
X8852000Y-2285750D01*
X9715000Y-2285750D01*
X9715000Y-2976310D01*
X9811673Y-3209699D01*
X9990302Y-3388327D01*
X10223691Y-3485000D01*
X10914250Y-3485000D01*
X11073000Y-3326250D01*
X11073000Y-2127000D01*
X11327000Y-2127000D01*
X11327000Y-3326250D01*
X11485750Y-3485000D01*
X12176309Y-3485000D01*
X12409698Y-3388327D01*
X12588327Y-3209699D01*
X12685000Y-2976310D01*
X12685000Y-2285750D01*
X22765000Y-2285750D01*
X22765000Y-2976310D01*
X22861673Y-3209699D01*
X23040302Y-3388327D01*
X23273691Y-3485000D01*
X23964250Y-3485000D01*
X24123000Y-3326250D01*
X24123000Y-2127000D01*
X22923750Y-2127000D01*
X22765000Y-2285750D01*
X12685000Y-2285750D01*
X12526250Y-2127000D01*
X11327000Y-2127000D01*
X11073000Y-2127000D01*
X9873750Y-2127000D01*
X9715000Y-2285750D01*
X8852000Y-2285750D01*
X8852000Y-710000D01*
X9891974Y-710000D01*
X9811673Y-790301D01*
X9811673Y-790301D01*
G37*
X9811673Y-790301D02*
X9715000Y-1023690D01*
X9715000Y-1714250D01*
X9873750Y-1873000D01*
X11073000Y-1873000D01*
X11073000Y-1853000D01*
X11327000Y-1853000D01*
X11327000Y-1873000D01*
X12526250Y-1873000D01*
X12685000Y-1714250D01*
X12685000Y-1023690D01*
X12588327Y-790301D01*
X12508026Y-710000D01*
X22941974Y-710000D01*
X22861673Y-790301D01*
X22765000Y-1023690D01*
X22765000Y-1714250D01*
X22923750Y-1873000D01*
X24123000Y-1873000D01*
X24123000Y-1853000D01*
X24377000Y-1853000D01*
X24377000Y-1873000D01*
X24397000Y-1873000D01*
X24397000Y-2127000D01*
X24377000Y-2127000D01*
X24377000Y-3326250D01*
X24535750Y-3485000D01*
X25040000Y-3485000D01*
X25040000Y-3764035D01*
X8852000Y-3648900D01*
X8852000Y-2285750D01*
X9715000Y-2285750D01*
X9715000Y-2976310D01*
X9811673Y-3209699D01*
X9990302Y-3388327D01*
X10223691Y-3485000D01*
X10914250Y-3485000D01*
X11073000Y-3326250D01*
X11073000Y-2127000D01*
X11327000Y-2127000D01*
X11327000Y-3326250D01*
X11485750Y-3485000D01*
X12176309Y-3485000D01*
X12409698Y-3388327D01*
X12588327Y-3209699D01*
X12685000Y-2976310D01*
X12685000Y-2285750D01*
X22765000Y-2285750D01*
X22765000Y-2976310D01*
X22861673Y-3209699D01*
X23040302Y-3388327D01*
X23273691Y-3485000D01*
X23964250Y-3485000D01*
X24123000Y-3326250D01*
X24123000Y-2127000D01*
X22923750Y-2127000D01*
X22765000Y-2285750D01*
X12685000Y-2285750D01*
X12526250Y-2127000D01*
X11327000Y-2127000D01*
X11073000Y-2127000D01*
X9873750Y-2127000D01*
X9715000Y-2285750D01*
X8852000Y-2285750D01*
X8852000Y-710000D01*
X9891974Y-710000D01*
X9811673Y-790301D01*
M02*
