%TF.GenerationSoftware,KiCad,Pcbnew,4.0.7*%
%TF.CreationDate,2017-11-22T17:49:31+08:00*%
%TF.ProjectId,nixie_tube,6E697869655F747562652E6B69636164,rev?*%
%TF.FileFunction,Copper,L2,Bot,Signal*%
%FSLAX46Y46*%
G04 Gerber Fmt 4.6, Leading zero omitted, Abs format (unit mm)*
G04 Created by KiCad (PCBNEW 4.0.7) date 11/22/17 17:49:31*
%MOMM*%
%LPD*%
G01*
G04 APERTURE LIST*
%ADD10C,0.100000*%
%ADD11C,0.300000*%
%ADD12C,1.453000*%
%ADD13R,1.600000X1.600000*%
%ADD14C,1.600000*%
%ADD15R,1.000000X3.200000*%
%ADD16R,1.000000X1.300000*%
%ADD17C,3.500000*%
%ADD18R,1.700000X1.700000*%
%ADD19O,1.700000X1.700000*%
%ADD20C,0.453000*%
%ADD21C,0.600000*%
%ADD22C,1.000000*%
%ADD23C,0.400000*%
%ADD24C,0.250000*%
%ADD25C,1.000000*%
%ADD26C,0.500000*%
%ADD27C,0.254000*%
G04 APERTURE END LIST*
D10*
D11*
X12130952Y-51188095D02*
X11697619Y-52488095D01*
X11264286Y-51188095D01*
X10830952Y-52364286D02*
X10769047Y-52426190D01*
X10830952Y-52488095D01*
X10892857Y-52426190D01*
X10830952Y-52364286D01*
X10830952Y-52488095D01*
X9964285Y-51188095D02*
X9840476Y-51188095D01*
X9716666Y-51250000D01*
X9654761Y-51311905D01*
X9592857Y-51435714D01*
X9530952Y-51683333D01*
X9530952Y-51992857D01*
X9592857Y-52240476D01*
X9654761Y-52364286D01*
X9716666Y-52426190D01*
X9840476Y-52488095D01*
X9964285Y-52488095D01*
X10088095Y-52426190D01*
X10149999Y-52364286D01*
X10211904Y-52240476D01*
X10273809Y-51992857D01*
X10273809Y-51683333D01*
X10211904Y-51435714D01*
X10149999Y-51311905D01*
X10088095Y-51250000D01*
X9964285Y-51188095D01*
X8292857Y-52488095D02*
X9035714Y-52488095D01*
X8664285Y-52488095D02*
X8664285Y-51188095D01*
X8788095Y-51373810D01*
X8911904Y-51497619D01*
X9035714Y-51559524D01*
D12*
X16130000Y-48310000D03*
X18130000Y-48310000D03*
X14130000Y-48310000D03*
D13*
X15400000Y-12175000D03*
D14*
X15400000Y-14675000D03*
D15*
X2220000Y-12300000D03*
X8420000Y-12300000D03*
D16*
X4520000Y-12300000D03*
X6120000Y-12300000D03*
D15*
X2270000Y-16320000D03*
X8470000Y-16320000D03*
D16*
X4570000Y-16320000D03*
X6170000Y-16320000D03*
D17*
X22780000Y-51120000D03*
X3800000Y-52800000D03*
X22200000Y-7500000D03*
X3500000Y-6900000D03*
D18*
X11200000Y-2000000D03*
X24250000Y-33000000D03*
D19*
X24250000Y-35540000D03*
X24250000Y-38080000D03*
X24250000Y-40620000D03*
X24250000Y-43160000D03*
X24250000Y-45700000D03*
D18*
X11100000Y-33000000D03*
D19*
X11100000Y-35540000D03*
X11100000Y-38080000D03*
X11100000Y-40620000D03*
X11100000Y-43160000D03*
X11100000Y-45700000D03*
D18*
X24250000Y-2000000D03*
D20*
X5200000Y-24530000D03*
X4150000Y-42550000D03*
D21*
X10600000Y-6110000D03*
X15910000Y-5300000D03*
X23800000Y-13520000D03*
X21320000Y-13480000D03*
X19760000Y-11540000D03*
X16450000Y-8540000D03*
X23575000Y-29675000D03*
X21875000Y-29050000D03*
X15000000Y-25600000D03*
X15000000Y-22550000D03*
X21125000Y-17875000D03*
X23075000Y-16100000D03*
X13100000Y-6525000D03*
X10275000Y-7700000D03*
X10700000Y-10100000D03*
X9200000Y-40000000D03*
D22*
X17900000Y-41469999D03*
X18150000Y-46700000D03*
X14150000Y-41469999D03*
X14150000Y-46650000D03*
D20*
X7920000Y-35224522D03*
X6780000Y-21950000D03*
X1620000Y-42460000D03*
X2250000Y-40500000D03*
D23*
X8200000Y-41040000D03*
D22*
X17341464Y-18691464D03*
X17350000Y-30657072D03*
D23*
X12472894Y-39320000D03*
X13700000Y-2700000D03*
X13400000Y-950000D03*
X19500000Y-3200000D03*
X21600000Y-3250000D03*
X22150000Y-2900000D03*
X15300000Y-850000D03*
X13750000Y-1800000D03*
X22200000Y-2000000D03*
D20*
X4310002Y-27190000D03*
D23*
X5439990Y-42250706D03*
X18100002Y-35250000D03*
X14100000Y-35250000D03*
D20*
X5048490Y-38570000D03*
D23*
X4200000Y-41100000D03*
X4220219Y-37416038D03*
X13050000Y-43824990D03*
D20*
X22925000Y-35250000D03*
D23*
X21760000Y-43790000D03*
X7575010Y-43846613D03*
X1125000Y-16050000D03*
D21*
X12580000Y-18850000D03*
X2730000Y-18710000D03*
D22*
X16080000Y-46550000D03*
X7390000Y-45310000D03*
X5570000Y-22200000D03*
D20*
X6800000Y-17710000D03*
X5020319Y-48570000D03*
X3680000Y-47550000D03*
D24*
X4150000Y-42550000D02*
X3674998Y-42074998D01*
X3674998Y-42074998D02*
X3674998Y-35617906D01*
X3674998Y-35617906D02*
X3630000Y-35572908D01*
X3630000Y-35572908D02*
X3630000Y-24980000D01*
X3630000Y-24980000D02*
X4080000Y-24530000D01*
X4080000Y-24530000D02*
X5200000Y-24530000D01*
X10899999Y-6409999D02*
X10600000Y-6110000D01*
X11015000Y-6525000D02*
X10899999Y-6409999D01*
X13100000Y-6525000D02*
X11015000Y-6525000D01*
X15610001Y-5599999D02*
X15910000Y-5300000D01*
X14685000Y-6525000D02*
X15610001Y-5599999D01*
X13100000Y-6525000D02*
X14685000Y-6525000D01*
X23760000Y-13480000D02*
X23800000Y-13520000D01*
X21320000Y-13480000D02*
X23760000Y-13480000D01*
X19450000Y-11540000D02*
X19760000Y-11540000D01*
X16450000Y-8540000D02*
X19450000Y-11540000D01*
X15680000Y-50230000D02*
X14840000Y-49390000D01*
D25*
X18130000Y-48310000D02*
X18130000Y-48750000D01*
X18130000Y-48750000D02*
X16650000Y-50230000D01*
X14130000Y-48680000D02*
X14130000Y-48310000D01*
X16650000Y-50230000D02*
X15680000Y-50230000D01*
X15680000Y-50230000D02*
X14130000Y-48680000D01*
D24*
X21125000Y-17875000D02*
X21125000Y-28300000D01*
X21125000Y-28300000D02*
X21875000Y-29050000D01*
X15400000Y-14675000D02*
X15400000Y-22150000D01*
X15400000Y-22150000D02*
X15000000Y-22550000D01*
X23075000Y-16100000D02*
X21300000Y-17875000D01*
X21300000Y-17875000D02*
X21125000Y-17875000D01*
X10700000Y-10100000D02*
X10700000Y-8125000D01*
X10700000Y-8125000D02*
X10275000Y-7700000D01*
D25*
X9499999Y-40299999D02*
X9200000Y-40000000D01*
X9820000Y-40620000D02*
X9499999Y-40299999D01*
X11100000Y-40620000D02*
X9820000Y-40620000D01*
X18150000Y-46700000D02*
X18150000Y-41719999D01*
X18150000Y-41719999D02*
X17900000Y-41469999D01*
X14150000Y-46650000D02*
X14150000Y-41469999D01*
D24*
X7920000Y-35224522D02*
X7920000Y-34904203D01*
X7920000Y-34904203D02*
X7175009Y-34159212D01*
X7175009Y-34159212D02*
X7175009Y-22345009D01*
X6780000Y-21950000D02*
X7175009Y-22345009D01*
X2250000Y-41830000D02*
X1620000Y-42460000D01*
X2250000Y-40500000D02*
X2250000Y-41830000D01*
X8200000Y-39777158D02*
X8200000Y-40757158D01*
X8200000Y-40757158D02*
X8200000Y-41040000D01*
X12472894Y-39320000D02*
X10420000Y-39320000D01*
X10420000Y-39320000D02*
X10000000Y-38900000D01*
X9077158Y-38900000D02*
X8200000Y-39777158D01*
X10000000Y-38900000D02*
X9077158Y-38900000D01*
D25*
X17341464Y-30648536D02*
X17341464Y-18691464D01*
D24*
X22200000Y-2850000D02*
X22150000Y-2900000D01*
X22200000Y-2000000D02*
X22200000Y-2850000D01*
D25*
X17350000Y-30657072D02*
X17341464Y-30648536D01*
D24*
X4536501Y-27416499D02*
X4310002Y-27190000D01*
X5048490Y-27928488D02*
X4536501Y-27416499D01*
X5048490Y-38570000D02*
X5048490Y-27928488D01*
X5048490Y-41859206D02*
X5239991Y-42050707D01*
X5048490Y-38570000D02*
X5048490Y-41859206D01*
X5239991Y-42050707D02*
X5439990Y-42250706D01*
X14100000Y-35250000D02*
X18100002Y-35250000D01*
X4220219Y-37416038D02*
X4250000Y-37445819D01*
X4250000Y-41050000D02*
X4200000Y-41100000D01*
X4250000Y-37445819D02*
X4250000Y-41050000D01*
X11100000Y-38080000D02*
X9680000Y-36660000D01*
X9680000Y-36660000D02*
X9680000Y-35100000D01*
X9680000Y-35100000D02*
X10490000Y-34290000D01*
X10490000Y-34290000D02*
X21965000Y-34290000D01*
X21965000Y-34290000D02*
X22925000Y-35250000D01*
X12514991Y-44359999D02*
X13050000Y-43824990D01*
X8088396Y-44359999D02*
X12514991Y-44359999D01*
X21760000Y-41070000D02*
X21760000Y-43790000D01*
X24750000Y-38080000D02*
X21760000Y-41070000D01*
X7575010Y-43846613D02*
X8088396Y-44359999D01*
D25*
X2000000Y-16050000D02*
X1125000Y-16050000D01*
X2270000Y-16320000D02*
X2000000Y-16050000D01*
X2270000Y-16320000D02*
X2270000Y-18250000D01*
X2270000Y-18250000D02*
X2730000Y-18710000D01*
X4570000Y-16320000D02*
X4570000Y-17970000D01*
X4570000Y-17970000D02*
X5510010Y-18910010D01*
X5510010Y-18910010D02*
X7577060Y-18910010D01*
X7577060Y-18910010D02*
X7637070Y-18850000D01*
X7637070Y-18850000D02*
X12580000Y-18850000D01*
D26*
X2240000Y-16350000D02*
X2270000Y-16320000D01*
X4520000Y-12300000D02*
X4520000Y-16270000D01*
X4520000Y-16270000D02*
X4570000Y-16320000D01*
X2220000Y-12300000D02*
X2220000Y-16270000D01*
X2220000Y-16270000D02*
X2270000Y-16320000D01*
X4570000Y-16320000D02*
X2270000Y-16320000D01*
X4520000Y-12300000D02*
X2220000Y-12300000D01*
D25*
X13433104Y-36553104D02*
X16040000Y-36553104D01*
X16040000Y-36553104D02*
X23736896Y-36553104D01*
X16030000Y-44750000D02*
X16030000Y-36563104D01*
X16030000Y-36563104D02*
X16040000Y-36553104D01*
X11100000Y-35540000D02*
X12420000Y-35540000D01*
X12420000Y-35540000D02*
X13433104Y-36553104D01*
X23736896Y-36553104D02*
X24750000Y-35540000D01*
X16030000Y-46500000D02*
X16080000Y-46550000D01*
X16030000Y-44750000D02*
X16030000Y-46500000D01*
D24*
X11693427Y-33493427D02*
X23054492Y-33493427D01*
X11200000Y-33000000D02*
X11693427Y-33493427D01*
X23547919Y-33000000D02*
X24750000Y-33000000D01*
X23054492Y-33493427D02*
X23547919Y-33000000D01*
D25*
X6340000Y-44470000D02*
X7180000Y-45310000D01*
X7180000Y-45310000D02*
X7390000Y-45310000D01*
X6340000Y-37240000D02*
X6340000Y-44470000D01*
X6340000Y-22970000D02*
X6340000Y-37240000D01*
X5570000Y-22200000D02*
X6340000Y-22970000D01*
X6800000Y-17710000D02*
X7080000Y-17710000D01*
X7080000Y-17710000D02*
X8470000Y-16320000D01*
D24*
X6120000Y-12300000D02*
X6120000Y-16270000D01*
X6120000Y-16270000D02*
X6170000Y-16320000D01*
X8420000Y-12300000D02*
X8420000Y-16270000D01*
X8420000Y-16270000D02*
X8470000Y-16320000D01*
X6120000Y-12300000D02*
X8420000Y-12300000D01*
X6170000Y-16320000D02*
X8470000Y-16320000D01*
X3680000Y-47550000D02*
X4000319Y-47550000D01*
X4000319Y-47550000D02*
X5020319Y-48570000D01*
D27*
G36*
X2131594Y-4896059D02*
X1479274Y-5547242D01*
X1115415Y-6423513D01*
X1114587Y-7372325D01*
X1476916Y-8249229D01*
X2147242Y-8920726D01*
X3023513Y-9284585D01*
X3972325Y-9285413D01*
X4849229Y-8923084D01*
X5520726Y-8252758D01*
X5637171Y-7972325D01*
X19814587Y-7972325D01*
X20176916Y-8849229D01*
X20847242Y-9520726D01*
X21723513Y-9884585D01*
X22672325Y-9885413D01*
X23549229Y-9523084D01*
X24220726Y-8852758D01*
X24584585Y-7976487D01*
X24585413Y-7027675D01*
X24223084Y-6150771D01*
X23552758Y-5479274D01*
X22676487Y-5115415D01*
X21727675Y-5114587D01*
X20850771Y-5476916D01*
X20179274Y-6147242D01*
X19815415Y-7023513D01*
X19814587Y-7972325D01*
X5637171Y-7972325D01*
X5884585Y-7376487D01*
X5885413Y-6427675D01*
X5523084Y-5550771D01*
X4896049Y-4922641D01*
X25040000Y-5116333D01*
X25040000Y-31502560D01*
X23400000Y-31502560D01*
X23164683Y-31546838D01*
X22948559Y-31685910D01*
X22803569Y-31898110D01*
X22752560Y-32150000D01*
X22752560Y-32720557D01*
X22739690Y-32733427D01*
X12597440Y-32733427D01*
X12597440Y-32150000D01*
X12553162Y-31914683D01*
X12414090Y-31698559D01*
X12201890Y-31553569D01*
X11950000Y-31502560D01*
X10250000Y-31502560D01*
X10014683Y-31546838D01*
X9798559Y-31685910D01*
X9653569Y-31898110D01*
X9602560Y-32150000D01*
X9602560Y-33850000D01*
X9642569Y-34062629D01*
X9142599Y-34562599D01*
X8977852Y-34809161D01*
X8920000Y-35100000D01*
X8920000Y-36660000D01*
X8977852Y-36950839D01*
X9142599Y-37197401D01*
X9658790Y-37713592D01*
X9585907Y-38080000D01*
X9597842Y-38140000D01*
X9077158Y-38140000D01*
X8786319Y-38197852D01*
X8539757Y-38362599D01*
X7662599Y-39239757D01*
X7497852Y-39486319D01*
X7475000Y-39601203D01*
X7475000Y-35972560D01*
X7747885Y-36085872D01*
X8090611Y-36086171D01*
X8407363Y-35955292D01*
X8649918Y-35713160D01*
X8781350Y-35396637D01*
X8781649Y-35053911D01*
X8650770Y-34737159D01*
X8645778Y-34732158D01*
X8622148Y-34613363D01*
X8457401Y-34366802D01*
X7935009Y-33844410D01*
X7935009Y-22345009D01*
X7877157Y-22054170D01*
X7712410Y-21807608D01*
X7611694Y-21706892D01*
X7510770Y-21462637D01*
X7268638Y-21220082D01*
X6952115Y-21088650D01*
X6609389Y-21088351D01*
X6292637Y-21219230D01*
X6243570Y-21268212D01*
X6213765Y-21238355D01*
X5796756Y-21065197D01*
X5345225Y-21064803D01*
X4927914Y-21237233D01*
X4608355Y-21556235D01*
X4435197Y-21973244D01*
X4434803Y-22424775D01*
X4607233Y-22842086D01*
X4926235Y-23161645D01*
X4926710Y-23161842D01*
X5205000Y-23440133D01*
X5205000Y-23668504D01*
X5029389Y-23668351D01*
X4783379Y-23770000D01*
X4080000Y-23770000D01*
X3789161Y-23827852D01*
X3542599Y-23992599D01*
X3092599Y-24442599D01*
X2927852Y-24689161D01*
X2870000Y-24980000D01*
X2870000Y-35572908D01*
X2914998Y-35799126D01*
X2914998Y-39946750D01*
X2738638Y-39770082D01*
X2422115Y-39638650D01*
X2079389Y-39638351D01*
X1762637Y-39769230D01*
X1520082Y-40011362D01*
X1388650Y-40327885D01*
X1388351Y-40670611D01*
X1490000Y-40916621D01*
X1490000Y-41515198D01*
X1376892Y-41628306D01*
X1132637Y-41729230D01*
X890082Y-41971362D01*
X758650Y-42287885D01*
X758351Y-42630611D01*
X889230Y-42947363D01*
X1131362Y-43189918D01*
X1447885Y-43321350D01*
X1790611Y-43321649D01*
X2107363Y-43190770D01*
X2349918Y-42948638D01*
X2451997Y-42702805D01*
X2787401Y-42367401D01*
X2930547Y-42153167D01*
X2972850Y-42365837D01*
X3137597Y-42612399D01*
X3318306Y-42793108D01*
X3419230Y-43037363D01*
X3661362Y-43279918D01*
X3977885Y-43411350D01*
X4320611Y-43411649D01*
X4637363Y-43280770D01*
X4879918Y-43038638D01*
X4928915Y-42920639D01*
X4966383Y-42958172D01*
X5205000Y-43057255D01*
X5205000Y-44470000D01*
X5291397Y-44904346D01*
X5478487Y-45184346D01*
X5537434Y-45272566D01*
X6377434Y-46112566D01*
X6745654Y-46358603D01*
X7148747Y-46438783D01*
X7163244Y-46444803D01*
X7179079Y-46444817D01*
X7180000Y-46445000D01*
X7389009Y-46445000D01*
X7614775Y-46445197D01*
X8032086Y-46272767D01*
X8351645Y-45953765D01*
X8524803Y-45536756D01*
X8525167Y-45119999D01*
X9706774Y-45119999D01*
X9698946Y-45131715D01*
X9585907Y-45700000D01*
X9698946Y-46268285D01*
X10020853Y-46750054D01*
X10502622Y-47071961D01*
X11070907Y-47185000D01*
X11129093Y-47185000D01*
X11697378Y-47071961D01*
X12179147Y-46750054D01*
X12501054Y-46268285D01*
X12614093Y-45700000D01*
X12501054Y-45131715D01*
X12493226Y-45119999D01*
X12514991Y-45119999D01*
X12805830Y-45062147D01*
X13052392Y-44897400D01*
X13341970Y-44607822D01*
X13522372Y-44533282D01*
X13757466Y-44298597D01*
X13884855Y-43991811D01*
X13885145Y-43659627D01*
X13758292Y-43352618D01*
X13523607Y-43117524D01*
X13216821Y-42990135D01*
X12884637Y-42989845D01*
X12603364Y-43106064D01*
X12501054Y-42591715D01*
X12179147Y-42109946D01*
X11838447Y-41882298D01*
X11981358Y-41815183D01*
X12371645Y-41386924D01*
X12541476Y-40976890D01*
X12420155Y-40747000D01*
X11227000Y-40747000D01*
X11227000Y-40767000D01*
X10973000Y-40767000D01*
X10973000Y-40747000D01*
X9779845Y-40747000D01*
X9658524Y-40976890D01*
X9828355Y-41386924D01*
X10218642Y-41815183D01*
X10361553Y-41882298D01*
X10020853Y-42109946D01*
X9698946Y-42591715D01*
X9585907Y-43160000D01*
X9673428Y-43599999D01*
X8403198Y-43599999D01*
X8357842Y-43554643D01*
X8283302Y-43374241D01*
X8048617Y-43139147D01*
X7741831Y-43011758D01*
X7475000Y-43011525D01*
X7475000Y-41471935D01*
X7491708Y-41512372D01*
X7726393Y-41747466D01*
X8033179Y-41874855D01*
X8365363Y-41875145D01*
X8672372Y-41748292D01*
X8907466Y-41513607D01*
X9034855Y-41206821D01*
X9035145Y-40874637D01*
X8960000Y-40692771D01*
X8960000Y-40091960D01*
X9391960Y-39660000D01*
X9685198Y-39660000D01*
X9852157Y-39826959D01*
X9828355Y-39853076D01*
X9658524Y-40263110D01*
X9779845Y-40493000D01*
X10973000Y-40493000D01*
X10973000Y-40473000D01*
X11227000Y-40473000D01*
X11227000Y-40493000D01*
X12420155Y-40493000D01*
X12541476Y-40263110D01*
X12496707Y-40155021D01*
X12638257Y-40155145D01*
X12945266Y-40028292D01*
X13180360Y-39793607D01*
X13307749Y-39486821D01*
X13308039Y-39154637D01*
X13181186Y-38847628D01*
X12946501Y-38612534D01*
X12639715Y-38485145D01*
X12533523Y-38485052D01*
X12614093Y-38080000D01*
X12501054Y-37511715D01*
X12179147Y-37029946D01*
X11849974Y-36810000D01*
X11990783Y-36715915D01*
X12630538Y-37355670D01*
X12998758Y-37601707D01*
X13433104Y-37688104D01*
X14895000Y-37688104D01*
X14895000Y-46500000D01*
X14944824Y-46750483D01*
X14944803Y-46774775D01*
X14954161Y-46797424D01*
X14981397Y-46934346D01*
X15058280Y-47049410D01*
X15117233Y-47192086D01*
X15219804Y-47294836D01*
X14976450Y-47537765D01*
X14901613Y-47717992D01*
X14309605Y-48310000D01*
X14901367Y-48901762D01*
X14975104Y-49080220D01*
X15357765Y-49463550D01*
X15857993Y-49671263D01*
X16399631Y-49671735D01*
X16900220Y-49464896D01*
X17100981Y-49264485D01*
X17355120Y-49264485D01*
X17420220Y-49502994D01*
X17930788Y-49683805D01*
X18471684Y-49655466D01*
X18839780Y-49502994D01*
X18904880Y-49264485D01*
X18130000Y-48489605D01*
X17355120Y-49264485D01*
X17100981Y-49264485D01*
X17283550Y-49082235D01*
X17358387Y-48902008D01*
X17950395Y-48310000D01*
X18309605Y-48310000D01*
X19084485Y-49084880D01*
X19322994Y-49019780D01*
X19503805Y-48509212D01*
X19475466Y-47968316D01*
X19322994Y-47600220D01*
X19084485Y-47535120D01*
X18309605Y-48310000D01*
X17950395Y-48310000D01*
X17358633Y-47718238D01*
X17284896Y-47539780D01*
X17100953Y-47355515D01*
X17355120Y-47355515D01*
X18130000Y-48130395D01*
X18904880Y-47355515D01*
X18839780Y-47117006D01*
X18329212Y-46936195D01*
X17788316Y-46964534D01*
X17420220Y-47117006D01*
X17355120Y-47355515D01*
X17100953Y-47355515D01*
X16990476Y-47244845D01*
X17041645Y-47193765D01*
X17214803Y-46776756D01*
X17215197Y-46325225D01*
X17165000Y-46203739D01*
X17165000Y-37688104D01*
X22813860Y-37688104D01*
X22735907Y-38080000D01*
X22848946Y-38648285D01*
X22952273Y-38802925D01*
X21222599Y-40532599D01*
X21057852Y-40779161D01*
X21000000Y-41070000D01*
X21000000Y-43442909D01*
X20925145Y-43623179D01*
X20924855Y-43955363D01*
X21051708Y-44262372D01*
X21286393Y-44497466D01*
X21593179Y-44624855D01*
X21925363Y-44625145D01*
X22232372Y-44498292D01*
X22467466Y-44263607D01*
X22594855Y-43956821D01*
X22595145Y-43624637D01*
X22520000Y-43442771D01*
X22520000Y-41384802D01*
X22843490Y-41061312D01*
X22978355Y-41386924D01*
X23368642Y-41815183D01*
X23511553Y-41882298D01*
X23170853Y-42109946D01*
X22848946Y-42591715D01*
X22735907Y-43160000D01*
X22848946Y-43728285D01*
X23170853Y-44210054D01*
X23500026Y-44430000D01*
X23170853Y-44649946D01*
X22848946Y-45131715D01*
X22735907Y-45700000D01*
X22848946Y-46268285D01*
X23170853Y-46750054D01*
X23652622Y-47071961D01*
X24220907Y-47185000D01*
X24279093Y-47185000D01*
X24847378Y-47071961D01*
X25040000Y-46943255D01*
X25040000Y-50344152D01*
X24803084Y-49770771D01*
X24132758Y-49099274D01*
X23256487Y-48735415D01*
X22307675Y-48734587D01*
X21430771Y-49096916D01*
X20759274Y-49767242D01*
X20395415Y-50643513D01*
X20394587Y-51592325D01*
X20756916Y-52469229D01*
X21427242Y-53140726D01*
X22303513Y-53504585D01*
X23252325Y-53505413D01*
X24129229Y-53143084D01*
X24800726Y-52472758D01*
X25040000Y-51896521D01*
X25040000Y-55590000D01*
X24592874Y-55590000D01*
X18509216Y-55543684D01*
X18856943Y-55400005D01*
X19218735Y-55038845D01*
X19414777Y-54566724D01*
X19415223Y-54055519D01*
X19220005Y-53583057D01*
X18858845Y-53221265D01*
X18386724Y-53025223D01*
X17875519Y-53024777D01*
X17403057Y-53219995D01*
X17041265Y-53581155D01*
X16845223Y-54053276D01*
X16844777Y-54564481D01*
X17039995Y-55036943D01*
X17401155Y-55398735D01*
X17736054Y-55537797D01*
X14581584Y-55513782D01*
X14856943Y-55400005D01*
X15218735Y-55038845D01*
X15414777Y-54566724D01*
X15415223Y-54055519D01*
X15220005Y-53583057D01*
X14858845Y-53221265D01*
X14386724Y-53025223D01*
X13875519Y-53024777D01*
X13403057Y-53219995D01*
X13041265Y-53581155D01*
X12845223Y-54053276D01*
X12844777Y-54564481D01*
X13039995Y-55036943D01*
X13401155Y-55398735D01*
X13661346Y-55506776D01*
X710000Y-55408174D01*
X710000Y-53272325D01*
X1414587Y-53272325D01*
X1776916Y-54149229D01*
X2447242Y-54820726D01*
X3323513Y-55184585D01*
X4272325Y-55185413D01*
X5149229Y-54823084D01*
X5820726Y-54152758D01*
X6184585Y-53276487D01*
X6185413Y-52327675D01*
X5823084Y-51450771D01*
X5152758Y-50779274D01*
X4276487Y-50415415D01*
X3327675Y-50414587D01*
X2450771Y-50776916D01*
X1779274Y-51447242D01*
X1415415Y-52323513D01*
X1414587Y-53272325D01*
X710000Y-53272325D01*
X710000Y-50205000D01*
X7410238Y-50205000D01*
X7410238Y-53725000D01*
X12889762Y-53725000D01*
X12889762Y-50205000D01*
X7410238Y-50205000D01*
X710000Y-50205000D01*
X710000Y-47720611D01*
X2818351Y-47720611D01*
X2949230Y-48037363D01*
X3191362Y-48279918D01*
X3507885Y-48411350D01*
X3787111Y-48411594D01*
X4188625Y-48813108D01*
X4289549Y-49057363D01*
X4531681Y-49299918D01*
X4848204Y-49431350D01*
X5190930Y-49431649D01*
X5507682Y-49300770D01*
X5544030Y-49264485D01*
X13355120Y-49264485D01*
X13420220Y-49502994D01*
X13930788Y-49683805D01*
X14471684Y-49655466D01*
X14839780Y-49502994D01*
X14904880Y-49264485D01*
X14130000Y-48489605D01*
X13355120Y-49264485D01*
X5544030Y-49264485D01*
X5750237Y-49058638D01*
X5881669Y-48742115D01*
X5881968Y-48399389D01*
X5762721Y-48110788D01*
X12756195Y-48110788D01*
X12784534Y-48651684D01*
X12937006Y-49019780D01*
X13175515Y-49084880D01*
X13950395Y-48310000D01*
X13175515Y-47535120D01*
X12937006Y-47600220D01*
X12756195Y-48110788D01*
X5762721Y-48110788D01*
X5751089Y-48082637D01*
X5508957Y-47840082D01*
X5263124Y-47738003D01*
X4880636Y-47355515D01*
X13355120Y-47355515D01*
X14130000Y-48130395D01*
X14904880Y-47355515D01*
X14839780Y-47117006D01*
X14329212Y-46936195D01*
X13788316Y-46964534D01*
X13420220Y-47117006D01*
X13355120Y-47355515D01*
X4880636Y-47355515D01*
X4537720Y-47012599D01*
X4291158Y-46847852D01*
X4172872Y-46824323D01*
X4168638Y-46820082D01*
X3852115Y-46688650D01*
X3509389Y-46688351D01*
X3192637Y-46819230D01*
X2950082Y-47061362D01*
X2818650Y-47377885D01*
X2818351Y-47720611D01*
X710000Y-47720611D01*
X710000Y-17102451D01*
X1122560Y-17184515D01*
X1122560Y-17920000D01*
X1135000Y-17986113D01*
X1135000Y-18250000D01*
X1221397Y-18684346D01*
X1363354Y-18896799D01*
X1467434Y-19052566D01*
X1927434Y-19512566D01*
X2295655Y-19758603D01*
X2730000Y-19845000D01*
X3164345Y-19758603D01*
X3532566Y-19512566D01*
X3778603Y-19144345D01*
X3838432Y-18843564D01*
X4707444Y-19712576D01*
X5075664Y-19958613D01*
X5510010Y-20045010D01*
X7577060Y-20045010D01*
X7878750Y-19985000D01*
X12580000Y-19985000D01*
X13014346Y-19898603D01*
X13382566Y-19652566D01*
X13628603Y-19284346D01*
X13701824Y-18916239D01*
X16206267Y-18916239D01*
X16206464Y-18916716D01*
X16206464Y-30648536D01*
X16214969Y-30691295D01*
X16214803Y-30881847D01*
X16288212Y-31059510D01*
X16292861Y-31082882D01*
X16305985Y-31102523D01*
X16387233Y-31299158D01*
X16538869Y-31451059D01*
X16538898Y-31451102D01*
X16547020Y-31459224D01*
X16706235Y-31618717D01*
X17123244Y-31791875D01*
X17574775Y-31792269D01*
X17992086Y-31619839D01*
X18311645Y-31300837D01*
X18484803Y-30883828D01*
X18485197Y-30432297D01*
X18476464Y-30411162D01*
X18476464Y-18692455D01*
X18476661Y-18466689D01*
X18304231Y-18049378D01*
X17985229Y-17729819D01*
X17568220Y-17556661D01*
X17116689Y-17556267D01*
X16699378Y-17728697D01*
X16379819Y-18047699D01*
X16206661Y-18464708D01*
X16206267Y-18916239D01*
X13701824Y-18916239D01*
X13715000Y-18850000D01*
X13628603Y-18415654D01*
X13382566Y-18047434D01*
X13014346Y-17801397D01*
X12580000Y-17715000D01*
X9617440Y-17715000D01*
X9617440Y-15682745D01*
X14571861Y-15682745D01*
X14645995Y-15928864D01*
X15183223Y-16121965D01*
X15753454Y-16094778D01*
X16154005Y-15928864D01*
X16228139Y-15682745D01*
X15400000Y-14854605D01*
X14571861Y-15682745D01*
X9617440Y-15682745D01*
X9617440Y-14720000D01*
X9573162Y-14484683D01*
X9556136Y-14458223D01*
X13953035Y-14458223D01*
X13980222Y-15028454D01*
X14146136Y-15429005D01*
X14392255Y-15503139D01*
X15220395Y-14675000D01*
X15579605Y-14675000D01*
X16407745Y-15503139D01*
X16653864Y-15429005D01*
X16846965Y-14891777D01*
X16819778Y-14321546D01*
X16653864Y-13920995D01*
X16407745Y-13846861D01*
X15579605Y-14675000D01*
X15220395Y-14675000D01*
X14392255Y-13846861D01*
X14146136Y-13920995D01*
X13953035Y-14458223D01*
X9556136Y-14458223D01*
X9435363Y-14270537D01*
X9516431Y-14151890D01*
X9567440Y-13900000D01*
X9567440Y-11375000D01*
X13952560Y-11375000D01*
X13952560Y-12975000D01*
X13996838Y-13210317D01*
X14135910Y-13426441D01*
X14348110Y-13571431D01*
X14586201Y-13619646D01*
X14571861Y-13667255D01*
X15400000Y-14495395D01*
X16228139Y-13667255D01*
X16213855Y-13619833D01*
X16435317Y-13578162D01*
X16651441Y-13439090D01*
X16796431Y-13226890D01*
X16847440Y-12975000D01*
X16847440Y-11375000D01*
X16803162Y-11139683D01*
X16664090Y-10923559D01*
X16451890Y-10778569D01*
X16200000Y-10727560D01*
X14600000Y-10727560D01*
X14364683Y-10771838D01*
X14148559Y-10910910D01*
X14003569Y-11123110D01*
X13952560Y-11375000D01*
X9567440Y-11375000D01*
X9567440Y-10700000D01*
X9523162Y-10464683D01*
X9384090Y-10248559D01*
X9171890Y-10103569D01*
X8920000Y-10052560D01*
X7920000Y-10052560D01*
X7684683Y-10096838D01*
X7468559Y-10235910D01*
X7323569Y-10448110D01*
X7272560Y-10700000D01*
X7272560Y-11540000D01*
X7246742Y-11540000D01*
X7223162Y-11414683D01*
X7084090Y-11198559D01*
X6871890Y-11053569D01*
X6620000Y-11002560D01*
X5620000Y-11002560D01*
X5384683Y-11046838D01*
X5321522Y-11087481D01*
X5271890Y-11053569D01*
X5020000Y-11002560D01*
X4020000Y-11002560D01*
X3784683Y-11046838D01*
X3568559Y-11185910D01*
X3423569Y-11398110D01*
X3420149Y-11415000D01*
X3367440Y-11415000D01*
X3367440Y-10700000D01*
X3323162Y-10464683D01*
X3184090Y-10248559D01*
X2971890Y-10103569D01*
X2720000Y-10052560D01*
X1720000Y-10052560D01*
X1484683Y-10096838D01*
X1268559Y-10235910D01*
X1123569Y-10448110D01*
X1072560Y-10700000D01*
X1072560Y-13900000D01*
X1116838Y-14135317D01*
X1254637Y-14349463D01*
X1173569Y-14468110D01*
X1122560Y-14720000D01*
X1122560Y-14915485D01*
X710000Y-14997549D01*
X710000Y-4882390D01*
X2131594Y-4896059D01*
X2131594Y-4896059D01*
G37*
X2131594Y-4896059D02*
X1479274Y-5547242D01*
X1115415Y-6423513D01*
X1114587Y-7372325D01*
X1476916Y-8249229D01*
X2147242Y-8920726D01*
X3023513Y-9284585D01*
X3972325Y-9285413D01*
X4849229Y-8923084D01*
X5520726Y-8252758D01*
X5637171Y-7972325D01*
X19814587Y-7972325D01*
X20176916Y-8849229D01*
X20847242Y-9520726D01*
X21723513Y-9884585D01*
X22672325Y-9885413D01*
X23549229Y-9523084D01*
X24220726Y-8852758D01*
X24584585Y-7976487D01*
X24585413Y-7027675D01*
X24223084Y-6150771D01*
X23552758Y-5479274D01*
X22676487Y-5115415D01*
X21727675Y-5114587D01*
X20850771Y-5476916D01*
X20179274Y-6147242D01*
X19815415Y-7023513D01*
X19814587Y-7972325D01*
X5637171Y-7972325D01*
X5884585Y-7376487D01*
X5885413Y-6427675D01*
X5523084Y-5550771D01*
X4896049Y-4922641D01*
X25040000Y-5116333D01*
X25040000Y-31502560D01*
X23400000Y-31502560D01*
X23164683Y-31546838D01*
X22948559Y-31685910D01*
X22803569Y-31898110D01*
X22752560Y-32150000D01*
X22752560Y-32720557D01*
X22739690Y-32733427D01*
X12597440Y-32733427D01*
X12597440Y-32150000D01*
X12553162Y-31914683D01*
X12414090Y-31698559D01*
X12201890Y-31553569D01*
X11950000Y-31502560D01*
X10250000Y-31502560D01*
X10014683Y-31546838D01*
X9798559Y-31685910D01*
X9653569Y-31898110D01*
X9602560Y-32150000D01*
X9602560Y-33850000D01*
X9642569Y-34062629D01*
X9142599Y-34562599D01*
X8977852Y-34809161D01*
X8920000Y-35100000D01*
X8920000Y-36660000D01*
X8977852Y-36950839D01*
X9142599Y-37197401D01*
X9658790Y-37713592D01*
X9585907Y-38080000D01*
X9597842Y-38140000D01*
X9077158Y-38140000D01*
X8786319Y-38197852D01*
X8539757Y-38362599D01*
X7662599Y-39239757D01*
X7497852Y-39486319D01*
X7475000Y-39601203D01*
X7475000Y-35972560D01*
X7747885Y-36085872D01*
X8090611Y-36086171D01*
X8407363Y-35955292D01*
X8649918Y-35713160D01*
X8781350Y-35396637D01*
X8781649Y-35053911D01*
X8650770Y-34737159D01*
X8645778Y-34732158D01*
X8622148Y-34613363D01*
X8457401Y-34366802D01*
X7935009Y-33844410D01*
X7935009Y-22345009D01*
X7877157Y-22054170D01*
X7712410Y-21807608D01*
X7611694Y-21706892D01*
X7510770Y-21462637D01*
X7268638Y-21220082D01*
X6952115Y-21088650D01*
X6609389Y-21088351D01*
X6292637Y-21219230D01*
X6243570Y-21268212D01*
X6213765Y-21238355D01*
X5796756Y-21065197D01*
X5345225Y-21064803D01*
X4927914Y-21237233D01*
X4608355Y-21556235D01*
X4435197Y-21973244D01*
X4434803Y-22424775D01*
X4607233Y-22842086D01*
X4926235Y-23161645D01*
X4926710Y-23161842D01*
X5205000Y-23440133D01*
X5205000Y-23668504D01*
X5029389Y-23668351D01*
X4783379Y-23770000D01*
X4080000Y-23770000D01*
X3789161Y-23827852D01*
X3542599Y-23992599D01*
X3092599Y-24442599D01*
X2927852Y-24689161D01*
X2870000Y-24980000D01*
X2870000Y-35572908D01*
X2914998Y-35799126D01*
X2914998Y-39946750D01*
X2738638Y-39770082D01*
X2422115Y-39638650D01*
X2079389Y-39638351D01*
X1762637Y-39769230D01*
X1520082Y-40011362D01*
X1388650Y-40327885D01*
X1388351Y-40670611D01*
X1490000Y-40916621D01*
X1490000Y-41515198D01*
X1376892Y-41628306D01*
X1132637Y-41729230D01*
X890082Y-41971362D01*
X758650Y-42287885D01*
X758351Y-42630611D01*
X889230Y-42947363D01*
X1131362Y-43189918D01*
X1447885Y-43321350D01*
X1790611Y-43321649D01*
X2107363Y-43190770D01*
X2349918Y-42948638D01*
X2451997Y-42702805D01*
X2787401Y-42367401D01*
X2930547Y-42153167D01*
X2972850Y-42365837D01*
X3137597Y-42612399D01*
X3318306Y-42793108D01*
X3419230Y-43037363D01*
X3661362Y-43279918D01*
X3977885Y-43411350D01*
X4320611Y-43411649D01*
X4637363Y-43280770D01*
X4879918Y-43038638D01*
X4928915Y-42920639D01*
X4966383Y-42958172D01*
X5205000Y-43057255D01*
X5205000Y-44470000D01*
X5291397Y-44904346D01*
X5478487Y-45184346D01*
X5537434Y-45272566D01*
X6377434Y-46112566D01*
X6745654Y-46358603D01*
X7148747Y-46438783D01*
X7163244Y-46444803D01*
X7179079Y-46444817D01*
X7180000Y-46445000D01*
X7389009Y-46445000D01*
X7614775Y-46445197D01*
X8032086Y-46272767D01*
X8351645Y-45953765D01*
X8524803Y-45536756D01*
X8525167Y-45119999D01*
X9706774Y-45119999D01*
X9698946Y-45131715D01*
X9585907Y-45700000D01*
X9698946Y-46268285D01*
X10020853Y-46750054D01*
X10502622Y-47071961D01*
X11070907Y-47185000D01*
X11129093Y-47185000D01*
X11697378Y-47071961D01*
X12179147Y-46750054D01*
X12501054Y-46268285D01*
X12614093Y-45700000D01*
X12501054Y-45131715D01*
X12493226Y-45119999D01*
X12514991Y-45119999D01*
X12805830Y-45062147D01*
X13052392Y-44897400D01*
X13341970Y-44607822D01*
X13522372Y-44533282D01*
X13757466Y-44298597D01*
X13884855Y-43991811D01*
X13885145Y-43659627D01*
X13758292Y-43352618D01*
X13523607Y-43117524D01*
X13216821Y-42990135D01*
X12884637Y-42989845D01*
X12603364Y-43106064D01*
X12501054Y-42591715D01*
X12179147Y-42109946D01*
X11838447Y-41882298D01*
X11981358Y-41815183D01*
X12371645Y-41386924D01*
X12541476Y-40976890D01*
X12420155Y-40747000D01*
X11227000Y-40747000D01*
X11227000Y-40767000D01*
X10973000Y-40767000D01*
X10973000Y-40747000D01*
X9779845Y-40747000D01*
X9658524Y-40976890D01*
X9828355Y-41386924D01*
X10218642Y-41815183D01*
X10361553Y-41882298D01*
X10020853Y-42109946D01*
X9698946Y-42591715D01*
X9585907Y-43160000D01*
X9673428Y-43599999D01*
X8403198Y-43599999D01*
X8357842Y-43554643D01*
X8283302Y-43374241D01*
X8048617Y-43139147D01*
X7741831Y-43011758D01*
X7475000Y-43011525D01*
X7475000Y-41471935D01*
X7491708Y-41512372D01*
X7726393Y-41747466D01*
X8033179Y-41874855D01*
X8365363Y-41875145D01*
X8672372Y-41748292D01*
X8907466Y-41513607D01*
X9034855Y-41206821D01*
X9035145Y-40874637D01*
X8960000Y-40692771D01*
X8960000Y-40091960D01*
X9391960Y-39660000D01*
X9685198Y-39660000D01*
X9852157Y-39826959D01*
X9828355Y-39853076D01*
X9658524Y-40263110D01*
X9779845Y-40493000D01*
X10973000Y-40493000D01*
X10973000Y-40473000D01*
X11227000Y-40473000D01*
X11227000Y-40493000D01*
X12420155Y-40493000D01*
X12541476Y-40263110D01*
X12496707Y-40155021D01*
X12638257Y-40155145D01*
X12945266Y-40028292D01*
X13180360Y-39793607D01*
X13307749Y-39486821D01*
X13308039Y-39154637D01*
X13181186Y-38847628D01*
X12946501Y-38612534D01*
X12639715Y-38485145D01*
X12533523Y-38485052D01*
X12614093Y-38080000D01*
X12501054Y-37511715D01*
X12179147Y-37029946D01*
X11849974Y-36810000D01*
X11990783Y-36715915D01*
X12630538Y-37355670D01*
X12998758Y-37601707D01*
X13433104Y-37688104D01*
X14895000Y-37688104D01*
X14895000Y-46500000D01*
X14944824Y-46750483D01*
X14944803Y-46774775D01*
X14954161Y-46797424D01*
X14981397Y-46934346D01*
X15058280Y-47049410D01*
X15117233Y-47192086D01*
X15219804Y-47294836D01*
X14976450Y-47537765D01*
X14901613Y-47717992D01*
X14309605Y-48310000D01*
X14901367Y-48901762D01*
X14975104Y-49080220D01*
X15357765Y-49463550D01*
X15857993Y-49671263D01*
X16399631Y-49671735D01*
X16900220Y-49464896D01*
X17100981Y-49264485D01*
X17355120Y-49264485D01*
X17420220Y-49502994D01*
X17930788Y-49683805D01*
X18471684Y-49655466D01*
X18839780Y-49502994D01*
X18904880Y-49264485D01*
X18130000Y-48489605D01*
X17355120Y-49264485D01*
X17100981Y-49264485D01*
X17283550Y-49082235D01*
X17358387Y-48902008D01*
X17950395Y-48310000D01*
X18309605Y-48310000D01*
X19084485Y-49084880D01*
X19322994Y-49019780D01*
X19503805Y-48509212D01*
X19475466Y-47968316D01*
X19322994Y-47600220D01*
X19084485Y-47535120D01*
X18309605Y-48310000D01*
X17950395Y-48310000D01*
X17358633Y-47718238D01*
X17284896Y-47539780D01*
X17100953Y-47355515D01*
X17355120Y-47355515D01*
X18130000Y-48130395D01*
X18904880Y-47355515D01*
X18839780Y-47117006D01*
X18329212Y-46936195D01*
X17788316Y-46964534D01*
X17420220Y-47117006D01*
X17355120Y-47355515D01*
X17100953Y-47355515D01*
X16990476Y-47244845D01*
X17041645Y-47193765D01*
X17214803Y-46776756D01*
X17215197Y-46325225D01*
X17165000Y-46203739D01*
X17165000Y-37688104D01*
X22813860Y-37688104D01*
X22735907Y-38080000D01*
X22848946Y-38648285D01*
X22952273Y-38802925D01*
X21222599Y-40532599D01*
X21057852Y-40779161D01*
X21000000Y-41070000D01*
X21000000Y-43442909D01*
X20925145Y-43623179D01*
X20924855Y-43955363D01*
X21051708Y-44262372D01*
X21286393Y-44497466D01*
X21593179Y-44624855D01*
X21925363Y-44625145D01*
X22232372Y-44498292D01*
X22467466Y-44263607D01*
X22594855Y-43956821D01*
X22595145Y-43624637D01*
X22520000Y-43442771D01*
X22520000Y-41384802D01*
X22843490Y-41061312D01*
X22978355Y-41386924D01*
X23368642Y-41815183D01*
X23511553Y-41882298D01*
X23170853Y-42109946D01*
X22848946Y-42591715D01*
X22735907Y-43160000D01*
X22848946Y-43728285D01*
X23170853Y-44210054D01*
X23500026Y-44430000D01*
X23170853Y-44649946D01*
X22848946Y-45131715D01*
X22735907Y-45700000D01*
X22848946Y-46268285D01*
X23170853Y-46750054D01*
X23652622Y-47071961D01*
X24220907Y-47185000D01*
X24279093Y-47185000D01*
X24847378Y-47071961D01*
X25040000Y-46943255D01*
X25040000Y-50344152D01*
X24803084Y-49770771D01*
X24132758Y-49099274D01*
X23256487Y-48735415D01*
X22307675Y-48734587D01*
X21430771Y-49096916D01*
X20759274Y-49767242D01*
X20395415Y-50643513D01*
X20394587Y-51592325D01*
X20756916Y-52469229D01*
X21427242Y-53140726D01*
X22303513Y-53504585D01*
X23252325Y-53505413D01*
X24129229Y-53143084D01*
X24800726Y-52472758D01*
X25040000Y-51896521D01*
X25040000Y-55590000D01*
X24592874Y-55590000D01*
X18509216Y-55543684D01*
X18856943Y-55400005D01*
X19218735Y-55038845D01*
X19414777Y-54566724D01*
X19415223Y-54055519D01*
X19220005Y-53583057D01*
X18858845Y-53221265D01*
X18386724Y-53025223D01*
X17875519Y-53024777D01*
X17403057Y-53219995D01*
X17041265Y-53581155D01*
X16845223Y-54053276D01*
X16844777Y-54564481D01*
X17039995Y-55036943D01*
X17401155Y-55398735D01*
X17736054Y-55537797D01*
X14581584Y-55513782D01*
X14856943Y-55400005D01*
X15218735Y-55038845D01*
X15414777Y-54566724D01*
X15415223Y-54055519D01*
X15220005Y-53583057D01*
X14858845Y-53221265D01*
X14386724Y-53025223D01*
X13875519Y-53024777D01*
X13403057Y-53219995D01*
X13041265Y-53581155D01*
X12845223Y-54053276D01*
X12844777Y-54564481D01*
X13039995Y-55036943D01*
X13401155Y-55398735D01*
X13661346Y-55506776D01*
X710000Y-55408174D01*
X710000Y-53272325D01*
X1414587Y-53272325D01*
X1776916Y-54149229D01*
X2447242Y-54820726D01*
X3323513Y-55184585D01*
X4272325Y-55185413D01*
X5149229Y-54823084D01*
X5820726Y-54152758D01*
X6184585Y-53276487D01*
X6185413Y-52327675D01*
X5823084Y-51450771D01*
X5152758Y-50779274D01*
X4276487Y-50415415D01*
X3327675Y-50414587D01*
X2450771Y-50776916D01*
X1779274Y-51447242D01*
X1415415Y-52323513D01*
X1414587Y-53272325D01*
X710000Y-53272325D01*
X710000Y-50205000D01*
X7410238Y-50205000D01*
X7410238Y-53725000D01*
X12889762Y-53725000D01*
X12889762Y-50205000D01*
X7410238Y-50205000D01*
X710000Y-50205000D01*
X710000Y-47720611D01*
X2818351Y-47720611D01*
X2949230Y-48037363D01*
X3191362Y-48279918D01*
X3507885Y-48411350D01*
X3787111Y-48411594D01*
X4188625Y-48813108D01*
X4289549Y-49057363D01*
X4531681Y-49299918D01*
X4848204Y-49431350D01*
X5190930Y-49431649D01*
X5507682Y-49300770D01*
X5544030Y-49264485D01*
X13355120Y-49264485D01*
X13420220Y-49502994D01*
X13930788Y-49683805D01*
X14471684Y-49655466D01*
X14839780Y-49502994D01*
X14904880Y-49264485D01*
X14130000Y-48489605D01*
X13355120Y-49264485D01*
X5544030Y-49264485D01*
X5750237Y-49058638D01*
X5881669Y-48742115D01*
X5881968Y-48399389D01*
X5762721Y-48110788D01*
X12756195Y-48110788D01*
X12784534Y-48651684D01*
X12937006Y-49019780D01*
X13175515Y-49084880D01*
X13950395Y-48310000D01*
X13175515Y-47535120D01*
X12937006Y-47600220D01*
X12756195Y-48110788D01*
X5762721Y-48110788D01*
X5751089Y-48082637D01*
X5508957Y-47840082D01*
X5263124Y-47738003D01*
X4880636Y-47355515D01*
X13355120Y-47355515D01*
X14130000Y-48130395D01*
X14904880Y-47355515D01*
X14839780Y-47117006D01*
X14329212Y-46936195D01*
X13788316Y-46964534D01*
X13420220Y-47117006D01*
X13355120Y-47355515D01*
X4880636Y-47355515D01*
X4537720Y-47012599D01*
X4291158Y-46847852D01*
X4172872Y-46824323D01*
X4168638Y-46820082D01*
X3852115Y-46688650D01*
X3509389Y-46688351D01*
X3192637Y-46819230D01*
X2950082Y-47061362D01*
X2818650Y-47377885D01*
X2818351Y-47720611D01*
X710000Y-47720611D01*
X710000Y-17102451D01*
X1122560Y-17184515D01*
X1122560Y-17920000D01*
X1135000Y-17986113D01*
X1135000Y-18250000D01*
X1221397Y-18684346D01*
X1363354Y-18896799D01*
X1467434Y-19052566D01*
X1927434Y-19512566D01*
X2295655Y-19758603D01*
X2730000Y-19845000D01*
X3164345Y-19758603D01*
X3532566Y-19512566D01*
X3778603Y-19144345D01*
X3838432Y-18843564D01*
X4707444Y-19712576D01*
X5075664Y-19958613D01*
X5510010Y-20045010D01*
X7577060Y-20045010D01*
X7878750Y-19985000D01*
X12580000Y-19985000D01*
X13014346Y-19898603D01*
X13382566Y-19652566D01*
X13628603Y-19284346D01*
X13701824Y-18916239D01*
X16206267Y-18916239D01*
X16206464Y-18916716D01*
X16206464Y-30648536D01*
X16214969Y-30691295D01*
X16214803Y-30881847D01*
X16288212Y-31059510D01*
X16292861Y-31082882D01*
X16305985Y-31102523D01*
X16387233Y-31299158D01*
X16538869Y-31451059D01*
X16538898Y-31451102D01*
X16547020Y-31459224D01*
X16706235Y-31618717D01*
X17123244Y-31791875D01*
X17574775Y-31792269D01*
X17992086Y-31619839D01*
X18311645Y-31300837D01*
X18484803Y-30883828D01*
X18485197Y-30432297D01*
X18476464Y-30411162D01*
X18476464Y-18692455D01*
X18476661Y-18466689D01*
X18304231Y-18049378D01*
X17985229Y-17729819D01*
X17568220Y-17556661D01*
X17116689Y-17556267D01*
X16699378Y-17728697D01*
X16379819Y-18047699D01*
X16206661Y-18464708D01*
X16206267Y-18916239D01*
X13701824Y-18916239D01*
X13715000Y-18850000D01*
X13628603Y-18415654D01*
X13382566Y-18047434D01*
X13014346Y-17801397D01*
X12580000Y-17715000D01*
X9617440Y-17715000D01*
X9617440Y-15682745D01*
X14571861Y-15682745D01*
X14645995Y-15928864D01*
X15183223Y-16121965D01*
X15753454Y-16094778D01*
X16154005Y-15928864D01*
X16228139Y-15682745D01*
X15400000Y-14854605D01*
X14571861Y-15682745D01*
X9617440Y-15682745D01*
X9617440Y-14720000D01*
X9573162Y-14484683D01*
X9556136Y-14458223D01*
X13953035Y-14458223D01*
X13980222Y-15028454D01*
X14146136Y-15429005D01*
X14392255Y-15503139D01*
X15220395Y-14675000D01*
X15579605Y-14675000D01*
X16407745Y-15503139D01*
X16653864Y-15429005D01*
X16846965Y-14891777D01*
X16819778Y-14321546D01*
X16653864Y-13920995D01*
X16407745Y-13846861D01*
X15579605Y-14675000D01*
X15220395Y-14675000D01*
X14392255Y-13846861D01*
X14146136Y-13920995D01*
X13953035Y-14458223D01*
X9556136Y-14458223D01*
X9435363Y-14270537D01*
X9516431Y-14151890D01*
X9567440Y-13900000D01*
X9567440Y-11375000D01*
X13952560Y-11375000D01*
X13952560Y-12975000D01*
X13996838Y-13210317D01*
X14135910Y-13426441D01*
X14348110Y-13571431D01*
X14586201Y-13619646D01*
X14571861Y-13667255D01*
X15400000Y-14495395D01*
X16228139Y-13667255D01*
X16213855Y-13619833D01*
X16435317Y-13578162D01*
X16651441Y-13439090D01*
X16796431Y-13226890D01*
X16847440Y-12975000D01*
X16847440Y-11375000D01*
X16803162Y-11139683D01*
X16664090Y-10923559D01*
X16451890Y-10778569D01*
X16200000Y-10727560D01*
X14600000Y-10727560D01*
X14364683Y-10771838D01*
X14148559Y-10910910D01*
X14003569Y-11123110D01*
X13952560Y-11375000D01*
X9567440Y-11375000D01*
X9567440Y-10700000D01*
X9523162Y-10464683D01*
X9384090Y-10248559D01*
X9171890Y-10103569D01*
X8920000Y-10052560D01*
X7920000Y-10052560D01*
X7684683Y-10096838D01*
X7468559Y-10235910D01*
X7323569Y-10448110D01*
X7272560Y-10700000D01*
X7272560Y-11540000D01*
X7246742Y-11540000D01*
X7223162Y-11414683D01*
X7084090Y-11198559D01*
X6871890Y-11053569D01*
X6620000Y-11002560D01*
X5620000Y-11002560D01*
X5384683Y-11046838D01*
X5321522Y-11087481D01*
X5271890Y-11053569D01*
X5020000Y-11002560D01*
X4020000Y-11002560D01*
X3784683Y-11046838D01*
X3568559Y-11185910D01*
X3423569Y-11398110D01*
X3420149Y-11415000D01*
X3367440Y-11415000D01*
X3367440Y-10700000D01*
X3323162Y-10464683D01*
X3184090Y-10248559D01*
X2971890Y-10103569D01*
X2720000Y-10052560D01*
X1720000Y-10052560D01*
X1484683Y-10096838D01*
X1268559Y-10235910D01*
X1123569Y-10448110D01*
X1072560Y-10700000D01*
X1072560Y-13900000D01*
X1116838Y-14135317D01*
X1254637Y-14349463D01*
X1173569Y-14468110D01*
X1122560Y-14720000D01*
X1122560Y-14915485D01*
X710000Y-14997549D01*
X710000Y-4882390D01*
X2131594Y-4896059D01*
G36*
X24377000Y-40493000D02*
X24397000Y-40493000D01*
X24397000Y-40747000D01*
X24377000Y-40747000D01*
X24377000Y-40767000D01*
X24123000Y-40767000D01*
X24123000Y-40747000D01*
X24103000Y-40747000D01*
X24103000Y-40493000D01*
X24123000Y-40493000D01*
X24123000Y-40473000D01*
X24377000Y-40473000D01*
X24377000Y-40493000D01*
X24377000Y-40493000D01*
G37*
X24377000Y-40493000D02*
X24397000Y-40493000D01*
X24397000Y-40747000D01*
X24377000Y-40747000D01*
X24377000Y-40767000D01*
X24123000Y-40767000D01*
X24123000Y-40747000D01*
X24103000Y-40747000D01*
X24103000Y-40493000D01*
X24123000Y-40493000D01*
X24123000Y-40473000D01*
X24377000Y-40473000D01*
X24377000Y-40493000D01*
G36*
X9811673Y-790301D02*
X9715000Y-1023690D01*
X9715000Y-1714250D01*
X9873750Y-1873000D01*
X11073000Y-1873000D01*
X11073000Y-1853000D01*
X11327000Y-1853000D01*
X11327000Y-1873000D01*
X12526250Y-1873000D01*
X12685000Y-1714250D01*
X12685000Y-1023690D01*
X12588327Y-790301D01*
X12508026Y-710000D01*
X22941974Y-710000D01*
X22861673Y-790301D01*
X22765000Y-1023690D01*
X22765000Y-1714250D01*
X22923750Y-1873000D01*
X24123000Y-1873000D01*
X24123000Y-1853000D01*
X24377000Y-1853000D01*
X24377000Y-1873000D01*
X24397000Y-1873000D01*
X24397000Y-2127000D01*
X24377000Y-2127000D01*
X24377000Y-3326250D01*
X24535750Y-3485000D01*
X25040000Y-3485000D01*
X25040000Y-3764035D01*
X8852000Y-3648900D01*
X8852000Y-2285750D01*
X9715000Y-2285750D01*
X9715000Y-2976310D01*
X9811673Y-3209699D01*
X9990302Y-3388327D01*
X10223691Y-3485000D01*
X10914250Y-3485000D01*
X11073000Y-3326250D01*
X11073000Y-2127000D01*
X11327000Y-2127000D01*
X11327000Y-3326250D01*
X11485750Y-3485000D01*
X12176309Y-3485000D01*
X12409698Y-3388327D01*
X12588327Y-3209699D01*
X12685000Y-2976310D01*
X12685000Y-2285750D01*
X22765000Y-2285750D01*
X22765000Y-2976310D01*
X22861673Y-3209699D01*
X23040302Y-3388327D01*
X23273691Y-3485000D01*
X23964250Y-3485000D01*
X24123000Y-3326250D01*
X24123000Y-2127000D01*
X22923750Y-2127000D01*
X22765000Y-2285750D01*
X12685000Y-2285750D01*
X12526250Y-2127000D01*
X11327000Y-2127000D01*
X11073000Y-2127000D01*
X9873750Y-2127000D01*
X9715000Y-2285750D01*
X8852000Y-2285750D01*
X8852000Y-710000D01*
X9891974Y-710000D01*
X9811673Y-790301D01*
X9811673Y-790301D01*
G37*
X9811673Y-790301D02*
X9715000Y-1023690D01*
X9715000Y-1714250D01*
X9873750Y-1873000D01*
X11073000Y-1873000D01*
X11073000Y-1853000D01*
X11327000Y-1853000D01*
X11327000Y-1873000D01*
X12526250Y-1873000D01*
X12685000Y-1714250D01*
X12685000Y-1023690D01*
X12588327Y-790301D01*
X12508026Y-710000D01*
X22941974Y-710000D01*
X22861673Y-790301D01*
X22765000Y-1023690D01*
X22765000Y-1714250D01*
X22923750Y-1873000D01*
X24123000Y-1873000D01*
X24123000Y-1853000D01*
X24377000Y-1853000D01*
X24377000Y-1873000D01*
X24397000Y-1873000D01*
X24397000Y-2127000D01*
X24377000Y-2127000D01*
X24377000Y-3326250D01*
X24535750Y-3485000D01*
X25040000Y-3485000D01*
X25040000Y-3764035D01*
X8852000Y-3648900D01*
X8852000Y-2285750D01*
X9715000Y-2285750D01*
X9715000Y-2976310D01*
X9811673Y-3209699D01*
X9990302Y-3388327D01*
X10223691Y-3485000D01*
X10914250Y-3485000D01*
X11073000Y-3326250D01*
X11073000Y-2127000D01*
X11327000Y-2127000D01*
X11327000Y-3326250D01*
X11485750Y-3485000D01*
X12176309Y-3485000D01*
X12409698Y-3388327D01*
X12588327Y-3209699D01*
X12685000Y-2976310D01*
X12685000Y-2285750D01*
X22765000Y-2285750D01*
X22765000Y-2976310D01*
X22861673Y-3209699D01*
X23040302Y-3388327D01*
X23273691Y-3485000D01*
X23964250Y-3485000D01*
X24123000Y-3326250D01*
X24123000Y-2127000D01*
X22923750Y-2127000D01*
X22765000Y-2285750D01*
X12685000Y-2285750D01*
X12526250Y-2127000D01*
X11327000Y-2127000D01*
X11073000Y-2127000D01*
X9873750Y-2127000D01*
X9715000Y-2285750D01*
X8852000Y-2285750D01*
X8852000Y-710000D01*
X9891974Y-710000D01*
X9811673Y-790301D01*
M02*
