%TF.GenerationSoftware,KiCad,Pcbnew,4.0.7*%
%TF.CreationDate,2017-11-27T18:05:40+08:00*%
%TF.ProjectId,nixie_tube,6E697869655F747562652E6B69636164,rev?*%
%TF.FileFunction,Legend,Bot*%
%FSLAX46Y46*%
G04 Gerber Fmt 4.6, Leading zero omitted, Abs format (unit mm)*
G04 Created by KiCad (PCBNEW 4.0.7) date 11/27/17 18:05:40*
%MOMM*%
%LPD*%
G01*
G04 APERTURE LIST*
%ADD10C,0.100000*%
%ADD11C,0.212500*%
%ADD12C,0.250000*%
%ADD13C,0.153000*%
%ADD14C,0.120000*%
%ADD15C,0.074671*%
G04 APERTURE END LIST*
D10*
D11*
X19059524Y-1592858D02*
X18209524Y-1592858D01*
X18614286Y-1592858D02*
X18614286Y-2078572D01*
X19059524Y-2078572D02*
X18209524Y-2078572D01*
X18209524Y-2361905D02*
X19059524Y-2645239D01*
X18209524Y-2928572D01*
D12*
X20042857Y-33554762D02*
X19900000Y-33602381D01*
X19661904Y-33602381D01*
X19566666Y-33554762D01*
X19519047Y-33507143D01*
X19471428Y-33411905D01*
X19471428Y-33316667D01*
X19519047Y-33221429D01*
X19566666Y-33173810D01*
X19661904Y-33126190D01*
X19852381Y-33078571D01*
X19947619Y-33030952D01*
X19995238Y-32983333D01*
X20042857Y-32888095D01*
X20042857Y-32792857D01*
X19995238Y-32697619D01*
X19947619Y-32650000D01*
X19852381Y-32602381D01*
X19614285Y-32602381D01*
X19471428Y-32650000D01*
X19185714Y-32602381D02*
X18614285Y-32602381D01*
X18900000Y-33602381D02*
X18900000Y-32602381D01*
X18090476Y-32602381D02*
X17899999Y-32602381D01*
X17804761Y-32650000D01*
X17709523Y-32745238D01*
X17661904Y-32935714D01*
X17661904Y-33269048D01*
X17709523Y-33459524D01*
X17804761Y-33554762D01*
X17899999Y-33602381D01*
X18090476Y-33602381D01*
X18185714Y-33554762D01*
X18280952Y-33459524D01*
X18328571Y-33269048D01*
X18328571Y-32935714D01*
X18280952Y-32745238D01*
X18185714Y-32650000D01*
X18090476Y-32602381D01*
X16661904Y-33602381D02*
X16995238Y-33126190D01*
X17233333Y-33602381D02*
X17233333Y-32602381D01*
X16852380Y-32602381D01*
X16757142Y-32650000D01*
X16709523Y-32697619D01*
X16661904Y-32792857D01*
X16661904Y-32935714D01*
X16709523Y-33030952D01*
X16757142Y-33078571D01*
X16852380Y-33126190D01*
X17233333Y-33126190D01*
X16233333Y-33078571D02*
X15899999Y-33078571D01*
X15757142Y-33602381D02*
X16233333Y-33602381D01*
X16233333Y-32602381D01*
X15757142Y-32602381D01*
X19033333Y-35202381D02*
X18700000Y-36202381D01*
X18366666Y-35202381D01*
X18033333Y-36202381D02*
X18033333Y-35202381D01*
X17795238Y-35202381D01*
X17652380Y-35250000D01*
X17557142Y-35345238D01*
X17509523Y-35440476D01*
X17461904Y-35630952D01*
X17461904Y-35773810D01*
X17509523Y-35964286D01*
X17557142Y-36059524D01*
X17652380Y-36154762D01*
X17795238Y-36202381D01*
X18033333Y-36202381D01*
X16461904Y-36107143D02*
X16509523Y-36154762D01*
X16652380Y-36202381D01*
X16747618Y-36202381D01*
X16890476Y-36154762D01*
X16985714Y-36059524D01*
X17033333Y-35964286D01*
X17080952Y-35773810D01*
X17080952Y-35630952D01*
X17033333Y-35440476D01*
X16985714Y-35345238D01*
X16890476Y-35250000D01*
X16747618Y-35202381D01*
X16652380Y-35202381D01*
X16509523Y-35250000D01*
X16461904Y-35297619D01*
X20409524Y-38652381D02*
X20409524Y-37652381D01*
X20028571Y-37652381D01*
X19933333Y-37700000D01*
X19885714Y-37747619D01*
X19838095Y-37842857D01*
X19838095Y-37985714D01*
X19885714Y-38080952D01*
X19933333Y-38128571D01*
X20028571Y-38176190D01*
X20409524Y-38176190D01*
X19504762Y-37652381D02*
X19266667Y-38652381D01*
X19076190Y-37938095D01*
X18885714Y-38652381D01*
X18647619Y-37652381D01*
X17695238Y-38652381D02*
X18028572Y-38176190D01*
X18266667Y-38652381D02*
X18266667Y-37652381D01*
X17885714Y-37652381D01*
X17790476Y-37700000D01*
X17742857Y-37747619D01*
X17695238Y-37842857D01*
X17695238Y-37985714D01*
X17742857Y-38080952D01*
X17790476Y-38128571D01*
X17885714Y-38176190D01*
X18266667Y-38176190D01*
X17266667Y-38128571D02*
X16933333Y-38128571D01*
X16790476Y-38652381D02*
X17266667Y-38652381D01*
X17266667Y-37652381D01*
X16790476Y-37652381D01*
X16361905Y-38652381D02*
X16361905Y-37652381D01*
X15790476Y-38652381D01*
X15790476Y-37652381D01*
X20871904Y-40360000D02*
X20967142Y-40312381D01*
X21109999Y-40312381D01*
X21252857Y-40360000D01*
X21348095Y-40455238D01*
X21395714Y-40550476D01*
X21443333Y-40740952D01*
X21443333Y-40883810D01*
X21395714Y-41074286D01*
X21348095Y-41169524D01*
X21252857Y-41264762D01*
X21109999Y-41312381D01*
X21014761Y-41312381D01*
X20871904Y-41264762D01*
X20824285Y-41217143D01*
X20824285Y-40883810D01*
X21014761Y-40883810D01*
X20395714Y-41312381D02*
X20395714Y-40312381D01*
X19824285Y-41312381D01*
X19824285Y-40312381D01*
X19348095Y-41312381D02*
X19348095Y-40312381D01*
X19110000Y-40312381D01*
X18967142Y-40360000D01*
X18871904Y-40455238D01*
X18824285Y-40550476D01*
X18776666Y-40740952D01*
X18776666Y-40883810D01*
X18824285Y-41074286D01*
X18871904Y-41169524D01*
X18967142Y-41264762D01*
X19110000Y-41312381D01*
X19348095Y-41312381D01*
X19385714Y-43754762D02*
X19242857Y-43802381D01*
X19004761Y-43802381D01*
X18909523Y-43754762D01*
X18861904Y-43707143D01*
X18814285Y-43611905D01*
X18814285Y-43516667D01*
X18861904Y-43421429D01*
X18909523Y-43373810D01*
X19004761Y-43326190D01*
X19195238Y-43278571D01*
X19290476Y-43230952D01*
X19338095Y-43183333D01*
X19385714Y-43088095D01*
X19385714Y-42992857D01*
X19338095Y-42897619D01*
X19290476Y-42850000D01*
X19195238Y-42802381D01*
X18957142Y-42802381D01*
X18814285Y-42850000D01*
X17814285Y-43707143D02*
X17861904Y-43754762D01*
X18004761Y-43802381D01*
X18099999Y-43802381D01*
X18242857Y-43754762D01*
X18338095Y-43659524D01*
X18385714Y-43564286D01*
X18433333Y-43373810D01*
X18433333Y-43230952D01*
X18385714Y-43040476D01*
X18338095Y-42945238D01*
X18242857Y-42850000D01*
X18099999Y-42802381D01*
X18004761Y-42802381D01*
X17861904Y-42850000D01*
X17814285Y-42897619D01*
X17385714Y-43802381D02*
X17385714Y-42802381D01*
X16814285Y-43802381D02*
X17242857Y-43230952D01*
X16814285Y-42802381D02*
X17385714Y-43373810D01*
X19571428Y-46152381D02*
X19571428Y-45152381D01*
X19238094Y-45866667D01*
X18904761Y-45152381D01*
X18904761Y-46152381D01*
X18238095Y-45152381D02*
X18047618Y-45152381D01*
X17952380Y-45200000D01*
X17857142Y-45295238D01*
X17809523Y-45485714D01*
X17809523Y-45819048D01*
X17857142Y-46009524D01*
X17952380Y-46104762D01*
X18047618Y-46152381D01*
X18238095Y-46152381D01*
X18333333Y-46104762D01*
X18428571Y-46009524D01*
X18476190Y-45819048D01*
X18476190Y-45485714D01*
X18428571Y-45295238D01*
X18333333Y-45200000D01*
X18238095Y-45152381D01*
X17428571Y-46104762D02*
X17285714Y-46152381D01*
X17047618Y-46152381D01*
X16952380Y-46104762D01*
X16904761Y-46057143D01*
X16857142Y-45961905D01*
X16857142Y-45866667D01*
X16904761Y-45771429D01*
X16952380Y-45723810D01*
X17047618Y-45676190D01*
X17238095Y-45628571D01*
X17333333Y-45580952D01*
X17380952Y-45533333D01*
X17428571Y-45438095D01*
X17428571Y-45342857D01*
X17380952Y-45247619D01*
X17333333Y-45200000D01*
X17238095Y-45152381D01*
X16999999Y-45152381D01*
X16857142Y-45200000D01*
X16428571Y-46152381D02*
X16428571Y-45152381D01*
D13*
X20860000Y-870000D02*
X21320000Y-2720000D01*
X21190000Y-910000D02*
X21280000Y-1310000D01*
X20176000Y-1969000D02*
X21390000Y-4090000D01*
X21250000Y-3710000D02*
X20890000Y-2590000D01*
X20580000Y-940000D02*
X21110000Y-2620000D01*
X20370000Y-2040000D02*
X20810000Y-3010000D01*
X20762000Y-2420500D02*
X21146000Y-3481200D01*
X21416000Y-4089200D02*
X20979000Y-2606900D01*
X21240000Y-1030000D02*
X21310000Y-830000D01*
X21110000Y-790000D02*
X21154000Y-1134200D01*
X21558000Y-752400D02*
X19822000Y-811500D01*
X20979000Y-2606900D02*
X21564000Y-2872600D01*
X21455000Y-2687700D02*
X20762000Y-2420500D01*
X20250000Y-900000D02*
X20590000Y-1690000D01*
X20080000Y-850000D02*
X19920000Y-840000D01*
X19822000Y-811500D02*
X20932000Y-2152100D01*
X21564000Y-2872600D02*
X21310000Y-1030000D01*
X20932000Y-2152100D02*
X20176000Y-1969000D01*
X21280000Y-1250000D02*
X21440000Y-2380000D01*
X21030000Y-910000D02*
X20080000Y-850000D01*
X21230000Y-870000D02*
X21240000Y-1030000D01*
X21399000Y-827600D02*
X21146000Y-958800D01*
X20680000Y-2110000D02*
X20880000Y-2540000D01*
X21480000Y-2770000D02*
X20870000Y-2510000D01*
X21154000Y-1134200D02*
X21455000Y-2687700D01*
X21310000Y-1030000D02*
X21558000Y-752400D01*
X14200000Y-3250000D02*
X13780000Y-3110000D01*
X17120000Y-3650000D02*
X17020000Y-3680000D01*
X15250000Y-2650000D02*
X15460000Y-2330000D01*
X16510000Y-2270000D02*
X16260000Y-2430000D01*
X15430000Y-2370000D02*
X15350000Y-2770000D01*
X16010000Y-2960000D02*
X16150000Y-2810000D01*
X15960000Y-3020000D02*
X16140000Y-3010000D01*
X15330000Y-2400000D02*
X15510000Y-2250000D01*
X15960000Y-3070000D02*
X15850000Y-2960000D01*
X17300000Y-1400000D02*
X17090000Y-1220000D01*
X17520000Y-1210000D02*
X17330000Y-1310000D01*
X17000000Y-3490000D02*
X16890000Y-3280000D01*
X16540000Y-1740000D02*
X16740000Y-2180000D01*
X16010000Y-2610000D02*
X16200000Y-2440000D01*
X15410000Y-2850000D02*
X15810000Y-2840000D01*
X16270000Y-2510000D02*
X16660000Y-2220000D01*
X16500000Y-2650000D02*
X16210000Y-2710000D01*
X14600000Y-2980000D02*
X14300000Y-3250000D01*
X17050000Y-1390000D02*
X17120000Y-1380000D01*
X15810000Y-2460000D02*
X16460000Y-2400000D01*
X16660000Y-2780000D02*
X16120000Y-2870000D01*
X15510000Y-3560000D02*
X15320000Y-2940000D01*
X16320000Y-3120000D02*
X16070000Y-3020000D01*
X14550000Y-2980000D02*
X14120000Y-3090000D01*
X14840000Y-2410000D02*
X14720000Y-2360000D01*
X17070000Y-3410000D02*
X17350000Y-3470000D01*
X15880000Y-2610000D02*
X16060000Y-2530000D01*
X15580000Y-2960000D02*
X15660000Y-3520000D01*
X14910000Y-2980000D02*
X15000000Y-2750000D01*
X16660000Y-2160000D02*
X16490000Y-2470000D01*
X17140000Y-3530000D02*
X17120000Y-3650000D01*
X16540000Y-2170000D02*
X16380000Y-1800000D01*
X15220000Y-2960000D02*
X15060000Y-3090000D01*
X15730000Y-2420000D02*
X15930000Y-2840000D01*
X14200000Y-3140000D02*
X14560000Y-2980000D01*
X14300000Y-3250000D02*
X14250000Y-3450000D01*
X16030000Y-2680000D02*
X15760000Y-2800000D01*
X15830000Y-2920000D02*
X15910000Y-2930000D01*
X15160000Y-2660000D02*
X15490000Y-2140000D01*
X16730000Y-2160000D02*
X16670000Y-2790000D01*
X16830000Y-1630000D02*
X17300000Y-1400000D01*
X17090000Y-1220000D02*
X16810000Y-1600000D01*
X17020000Y-3680000D02*
X17000000Y-3490000D01*
X17370000Y-3590000D02*
X17140000Y-3530000D01*
X15100000Y-3080000D02*
X14930000Y-2960000D01*
X14870000Y-2510000D02*
X15400000Y-2470000D01*
X16750000Y-3130000D02*
X17070000Y-3410000D01*
X15920000Y-1700000D02*
X16390000Y-1750000D01*
X17350000Y-3470000D02*
X17370000Y-3590000D01*
X16660000Y-2220000D02*
X16390000Y-1760000D01*
X15660000Y-3520000D02*
X15580000Y-2960000D01*
X16490000Y-2190000D02*
X16400000Y-2480000D01*
X17330000Y-1310000D02*
X17120000Y-1050000D01*
X15930000Y-3560000D02*
X15700000Y-3570000D01*
X15110000Y-2870000D02*
X15230000Y-2960000D01*
X17190000Y-1190000D02*
X17170000Y-1000000D01*
X15270000Y-3010000D02*
X14990000Y-2830000D01*
X15700000Y-3570000D02*
X15500000Y-3520000D01*
X16530000Y-1730000D02*
X16220000Y-1500000D01*
X16390000Y-1760000D02*
X16110000Y-1570000D01*
X16210000Y-2890000D02*
X16360000Y-3030000D01*
X15790000Y-3000000D02*
X15830000Y-3510000D01*
X15820000Y-2870000D02*
X15230000Y-2730000D01*
X15730000Y-2950000D02*
X15440000Y-2970000D01*
X14250000Y-3450000D02*
X14110000Y-3340000D01*
X15370000Y-1870000D02*
X15910000Y-1700000D01*
X15820000Y-1800000D02*
X15580000Y-1930000D01*
X14550000Y-2510000D02*
X14890000Y-2730000D01*
X14690000Y-2290000D02*
X14710000Y-2390000D01*
X15570000Y-1950000D02*
X15420000Y-1750000D01*
X14610000Y-1380000D02*
X14320000Y-1050000D01*
X14250000Y-1030000D02*
X13930000Y-1000000D01*
X14320000Y-1050000D02*
X14370000Y-840000D01*
X14250000Y-1160000D02*
X14480000Y-1310000D01*
X14610000Y-1890000D02*
X15000000Y-1480000D01*
X15130000Y-1610000D02*
X16080000Y-1630000D01*
X15700000Y-2100000D02*
X15610000Y-2210000D01*
X15610000Y-2210000D02*
X15750000Y-2390000D01*
X15150000Y-1570000D02*
X15470000Y-1740000D01*
X14550000Y-2480000D02*
X14610000Y-1910000D01*
X14370000Y-840000D02*
X14210000Y-830000D01*
X16160000Y-1620000D02*
X15700000Y-2100000D01*
X15150000Y-2600000D02*
X14750000Y-2240000D01*
X15040000Y-1470000D02*
X16210000Y-1500000D01*
X15910000Y-1700000D02*
X15990000Y-1810000D01*
X16080000Y-1630000D02*
X15990000Y-1760000D01*
X15840000Y-1690000D02*
X15370000Y-1870000D01*
X16110000Y-1570000D02*
X15050000Y-1580000D01*
X14210000Y-830000D02*
X14250000Y-1030000D01*
X15530000Y-2170000D02*
X15040000Y-1630000D01*
X13970000Y-1160000D02*
X14250000Y-1160000D01*
X15240000Y-1810000D02*
X15130000Y-1740000D01*
X14670000Y-2000000D02*
X14630000Y-2510000D01*
X15050000Y-1580000D02*
X14670000Y-2000000D01*
X13930000Y-1000000D02*
X13970000Y-1160000D01*
X14910000Y-1780000D02*
X14670000Y-2120000D01*
X13780000Y-3110000D02*
X13980000Y-3030000D01*
X13980000Y-3030000D02*
X14200000Y-3140000D01*
X14110000Y-3340000D02*
X14200000Y-3250000D01*
X17630000Y-1310000D02*
X17520000Y-1210000D01*
X17320000Y-1390000D02*
X17630000Y-1310000D01*
X16000000Y-3090000D02*
X15990000Y-3570000D01*
D14*
X7920000Y-10480000D02*
X2720000Y-10480000D01*
X2720000Y-14120000D02*
X7920000Y-14120000D01*
X7970000Y-14500000D02*
X2770000Y-14500000D01*
X2770000Y-18140000D02*
X7970000Y-18140000D01*
X9760000Y-670000D02*
X9760000Y-3330000D01*
X9760000Y-3330000D02*
X7100000Y-3330000D01*
X7100000Y-3330000D02*
X7100000Y-670000D01*
X7100000Y-670000D02*
X9760000Y-670000D01*
X7100000Y-1620000D02*
X1100000Y-1620000D01*
X1100000Y-1620000D02*
X1100000Y-2380000D01*
X1100000Y-2380000D02*
X7100000Y-2380000D01*
X7100000Y-1680000D02*
X1100000Y-1680000D01*
X7100000Y-1800000D02*
X1100000Y-1800000D01*
X7100000Y-1920000D02*
X1100000Y-1920000D01*
X7100000Y-2040000D02*
X1100000Y-2040000D01*
X7100000Y-2160000D02*
X1100000Y-2160000D01*
X7100000Y-2280000D02*
X1100000Y-2280000D01*
X10090000Y-1620000D02*
X9760000Y-1620000D01*
X10090000Y-2380000D02*
X9760000Y-2380000D01*
X12470000Y-2000000D02*
X12470000Y-730000D01*
X12470000Y-730000D02*
X11200000Y-730000D01*
X24250000Y-31730000D02*
X22980000Y-31730000D01*
X22980000Y-31730000D02*
X22980000Y-33000000D01*
X9660000Y-31670000D02*
X9660000Y-47030000D01*
X9660000Y-47030000D02*
X7000000Y-47030000D01*
X7000000Y-47030000D02*
X7000000Y-31670000D01*
X7000000Y-31670000D02*
X9660000Y-31670000D01*
X7000000Y-32620000D02*
X1000000Y-32620000D01*
X1000000Y-32620000D02*
X1000000Y-33380000D01*
X1000000Y-33380000D02*
X7000000Y-33380000D01*
X7000000Y-32680000D02*
X1000000Y-32680000D01*
X7000000Y-32800000D02*
X1000000Y-32800000D01*
X7000000Y-32920000D02*
X1000000Y-32920000D01*
X7000000Y-33040000D02*
X1000000Y-33040000D01*
X7000000Y-33160000D02*
X1000000Y-33160000D01*
X7000000Y-33280000D02*
X1000000Y-33280000D01*
X9990000Y-32620000D02*
X9660000Y-32620000D01*
X9990000Y-33380000D02*
X9660000Y-33380000D01*
X9660000Y-34270000D02*
X7000000Y-34270000D01*
X7000000Y-35160000D02*
X1000000Y-35160000D01*
X1000000Y-35160000D02*
X1000000Y-35920000D01*
X1000000Y-35920000D02*
X7000000Y-35920000D01*
X10057071Y-35160000D02*
X9660000Y-35160000D01*
X10057071Y-35920000D02*
X9660000Y-35920000D01*
X9660000Y-36810000D02*
X7000000Y-36810000D01*
X7000000Y-37700000D02*
X1000000Y-37700000D01*
X1000000Y-37700000D02*
X1000000Y-38460000D01*
X1000000Y-38460000D02*
X7000000Y-38460000D01*
X10057071Y-37700000D02*
X9660000Y-37700000D01*
X10057071Y-38460000D02*
X9660000Y-38460000D01*
X9660000Y-39350000D02*
X7000000Y-39350000D01*
X7000000Y-40240000D02*
X1000000Y-40240000D01*
X1000000Y-40240000D02*
X1000000Y-41000000D01*
X1000000Y-41000000D02*
X7000000Y-41000000D01*
X10057071Y-40240000D02*
X9660000Y-40240000D01*
X10057071Y-41000000D02*
X9660000Y-41000000D01*
X9660000Y-41890000D02*
X7000000Y-41890000D01*
X7000000Y-42780000D02*
X1000000Y-42780000D01*
X1000000Y-42780000D02*
X1000000Y-43540000D01*
X1000000Y-43540000D02*
X7000000Y-43540000D01*
X10057071Y-42780000D02*
X9660000Y-42780000D01*
X10057071Y-43540000D02*
X9660000Y-43540000D01*
X9660000Y-44430000D02*
X7000000Y-44430000D01*
X7000000Y-45320000D02*
X1000000Y-45320000D01*
X1000000Y-45320000D02*
X1000000Y-46080000D01*
X1000000Y-46080000D02*
X7000000Y-46080000D01*
X10057071Y-45320000D02*
X9660000Y-45320000D01*
X10057071Y-46080000D02*
X9660000Y-46080000D01*
X12370000Y-33000000D02*
X12370000Y-31730000D01*
X12370000Y-31730000D02*
X11100000Y-31730000D01*
X24250000Y-730000D02*
X22980000Y-730000D01*
X22980000Y-730000D02*
X22980000Y-2000000D01*
D15*
G36*
X17879639Y-7199167D02*
X17839481Y-7416246D01*
X17811285Y-7625778D01*
X17794698Y-7828148D01*
X17789365Y-8023739D01*
X17794932Y-8212934D01*
X17811045Y-8396119D01*
X17837348Y-8573677D01*
X17873488Y-8745991D01*
X17919110Y-8913447D01*
X17973859Y-9076428D01*
X18037382Y-9235317D01*
X18109324Y-9390500D01*
X18189330Y-9542359D01*
X18277047Y-9691279D01*
X18372119Y-9837644D01*
X18474192Y-9981838D01*
X18582913Y-10124244D01*
X18697925Y-10265247D01*
X18818876Y-10405231D01*
X18945410Y-10544580D01*
X19077174Y-10683677D01*
X19213812Y-10822907D01*
X19354971Y-10962653D01*
X19500296Y-11103300D01*
X19649432Y-11245231D01*
X19802025Y-11388831D01*
X19957721Y-11534483D01*
X20116166Y-11682572D01*
X20277004Y-11833481D01*
X20439882Y-11987594D01*
X20604445Y-12145296D01*
X20770339Y-12306970D01*
X20937209Y-12473001D01*
X21104701Y-12643771D01*
X21272461Y-12819666D01*
X21440133Y-13001069D01*
X21607364Y-13188364D01*
X21773800Y-13381936D01*
X21939085Y-13582167D01*
X22102866Y-13789443D01*
X22264787Y-14004147D01*
X22424495Y-14226662D01*
X22581636Y-14457374D01*
X22735854Y-14696665D01*
X22886796Y-14944921D01*
X23034106Y-15202524D01*
X23177431Y-15469860D01*
X23316416Y-15747311D01*
X23450707Y-16035262D01*
X23579950Y-16334097D01*
X23703789Y-16644199D01*
X23743421Y-16755802D01*
X23781360Y-16879628D01*
X23817151Y-17014978D01*
X23850342Y-17161154D01*
X23880480Y-17317455D01*
X23907110Y-17483185D01*
X23929780Y-17657642D01*
X23948036Y-17840129D01*
X23961426Y-18029945D01*
X23969495Y-18226394D01*
X23971790Y-18428774D01*
X23967859Y-18636387D01*
X23957248Y-18848535D01*
X23939503Y-19064518D01*
X23914171Y-19283637D01*
X23880799Y-19505193D01*
X23838934Y-19728487D01*
X23788122Y-19952820D01*
X23727911Y-20177493D01*
X23657845Y-20401808D01*
X23577474Y-20625064D01*
X23486342Y-20846563D01*
X23383997Y-21065607D01*
X23269986Y-21281495D01*
X23143854Y-21493529D01*
X23005150Y-21701011D01*
X22853419Y-21903240D01*
X22688209Y-22099518D01*
X22509065Y-22289146D01*
X22315535Y-22471425D01*
X22107166Y-22645655D01*
X21883503Y-22811139D01*
X21644094Y-22967176D01*
X21388486Y-23113068D01*
X21116224Y-23248116D01*
X20826857Y-23371621D01*
X20519930Y-23482884D01*
X20194990Y-23581205D01*
X19851584Y-23665886D01*
X19893491Y-23657366D01*
X19950167Y-23636659D01*
X20019904Y-23603925D01*
X20100995Y-23559325D01*
X20191735Y-23503021D01*
X20290416Y-23435174D01*
X20395332Y-23355946D01*
X20504776Y-23265496D01*
X20617042Y-23163987D01*
X20730421Y-23051579D01*
X20843209Y-22928434D01*
X20953698Y-22794713D01*
X21060181Y-22650578D01*
X21160952Y-22496188D01*
X21254305Y-22331706D01*
X21338531Y-22157293D01*
X21411925Y-21973109D01*
X21472781Y-21779317D01*
X21519390Y-21576077D01*
X21550047Y-21363550D01*
X21563045Y-21141897D01*
X21556677Y-20911281D01*
X21529236Y-20671861D01*
X21479017Y-20423799D01*
X21404311Y-20167256D01*
X21303412Y-19902394D01*
X21174614Y-19629374D01*
X21016210Y-19348356D01*
X20826494Y-19059502D01*
X20603758Y-18762973D01*
X20346295Y-18458931D01*
X20052400Y-18147536D01*
X20127961Y-18446316D01*
X20157428Y-18715861D01*
X20145492Y-18956539D01*
X20096847Y-19168718D01*
X20016183Y-19352767D01*
X19908193Y-19509054D01*
X19777570Y-19637948D01*
X19629004Y-19739818D01*
X19467189Y-19815032D01*
X19296815Y-19863958D01*
X19122576Y-19886965D01*
X18949163Y-19884421D01*
X18781269Y-19856695D01*
X18623585Y-19804156D01*
X18480803Y-19727172D01*
X18357616Y-19626112D01*
X18258715Y-19501343D01*
X18163660Y-19334694D01*
X18091219Y-19176703D01*
X18039909Y-19026682D01*
X18008246Y-18883942D01*
X17994747Y-18747794D01*
X17997930Y-18617549D01*
X18016310Y-18492520D01*
X18048406Y-18372016D01*
X18092733Y-18255350D01*
X18147809Y-18141832D01*
X18212150Y-18030774D01*
X18284274Y-17921488D01*
X18362698Y-17813283D01*
X18445937Y-17705473D01*
X18532510Y-17597367D01*
X18620932Y-17488278D01*
X18709721Y-17377517D01*
X18797395Y-17264394D01*
X18882468Y-17148221D01*
X18963460Y-17028310D01*
X19038885Y-16903971D01*
X19107262Y-16774516D01*
X19167107Y-16639256D01*
X19216937Y-16497503D01*
X19255269Y-16348568D01*
X19280620Y-16191761D01*
X19291506Y-16026395D01*
X19286446Y-15851781D01*
X19263954Y-15667229D01*
X19222549Y-15472052D01*
X19160747Y-15265560D01*
X19077065Y-15047064D01*
X18970020Y-14815877D01*
X18838129Y-14571309D01*
X18679908Y-14312671D01*
X18671073Y-14491903D01*
X18645533Y-14663433D01*
X18604147Y-14827764D01*
X18547770Y-14985398D01*
X18477261Y-15136838D01*
X18393476Y-15282586D01*
X18297271Y-15423146D01*
X18189505Y-15559018D01*
X18071033Y-15690707D01*
X17942714Y-15818715D01*
X17805403Y-15943543D01*
X17659957Y-16065696D01*
X17507235Y-16185674D01*
X17348092Y-16303982D01*
X17183386Y-16421121D01*
X17013973Y-16537594D01*
X16840711Y-16653903D01*
X16664457Y-16770551D01*
X16486067Y-16888041D01*
X16306398Y-17006876D01*
X16126308Y-17127557D01*
X15946653Y-17250587D01*
X15768290Y-17376469D01*
X15592077Y-17505705D01*
X15418870Y-17638799D01*
X15249526Y-17776252D01*
X15084902Y-17918567D01*
X14925856Y-18066247D01*
X14773243Y-18219794D01*
X14627922Y-18379710D01*
X14490748Y-18546499D01*
X14362580Y-18720663D01*
X14244273Y-18902705D01*
X14136685Y-19093126D01*
X14040673Y-19292430D01*
X13957094Y-19501119D01*
X13886805Y-19719695D01*
X13830662Y-19948662D01*
X13789523Y-20188521D01*
X13764245Y-20439776D01*
X13755684Y-20702929D01*
X13764698Y-20978482D01*
X13793613Y-21243047D01*
X13845065Y-21495856D01*
X13918181Y-21737124D01*
X14012088Y-21967066D01*
X14125914Y-22185897D01*
X14258784Y-22393832D01*
X14409825Y-22591086D01*
X14578166Y-22777873D01*
X14762932Y-22954408D01*
X14963250Y-23120907D01*
X15178248Y-23277584D01*
X15407053Y-23424654D01*
X15648790Y-23562332D01*
X15902588Y-23690833D01*
X15730626Y-23660613D01*
X15558459Y-23623294D01*
X15386314Y-23579025D01*
X15214415Y-23527959D01*
X15042988Y-23470247D01*
X14872257Y-23406040D01*
X14702449Y-23335489D01*
X14533789Y-23258747D01*
X14366502Y-23175964D01*
X14200813Y-23087291D01*
X14036947Y-22992881D01*
X13875131Y-22892884D01*
X13715589Y-22787451D01*
X13558546Y-22676735D01*
X13404229Y-22560886D01*
X13252862Y-22440055D01*
X13104670Y-22314395D01*
X12959879Y-22184056D01*
X12818715Y-22049190D01*
X12681402Y-21909947D01*
X12548166Y-21766481D01*
X12419233Y-21618941D01*
X12294827Y-21467479D01*
X12175174Y-21312246D01*
X12060499Y-21153395D01*
X11951027Y-20991075D01*
X11846985Y-20825439D01*
X11748597Y-20656638D01*
X11656088Y-20484823D01*
X11569684Y-20310146D01*
X11489610Y-20132757D01*
X11416092Y-19952809D01*
X11349355Y-19770452D01*
X11289624Y-19585838D01*
X11237124Y-19399119D01*
X11192082Y-19210445D01*
X11154721Y-19019968D01*
X11125268Y-18827839D01*
X11103948Y-18634210D01*
X11090986Y-18439232D01*
X11086607Y-18243056D01*
X11091037Y-18045834D01*
X11104501Y-17847716D01*
X11127225Y-17648856D01*
X11159434Y-17449403D01*
X11201352Y-17249508D01*
X11253206Y-17049325D01*
X11315221Y-16849003D01*
X11387622Y-16648694D01*
X11470635Y-16448550D01*
X11564484Y-16248721D01*
X11669395Y-16049360D01*
X11785593Y-15850617D01*
X11913305Y-15652643D01*
X12052754Y-15455591D01*
X12204167Y-15259612D01*
X12367768Y-15064856D01*
X12543784Y-14871475D01*
X12732439Y-14679621D01*
X12933958Y-14489445D01*
X13148568Y-14301098D01*
X13376493Y-14114732D01*
X13617959Y-13930498D01*
X13873190Y-13748546D01*
X14142413Y-13569030D01*
X14425853Y-13392099D01*
X14405987Y-13522123D01*
X14406405Y-13647326D01*
X14425598Y-13767008D01*
X14462061Y-13880471D01*
X14514286Y-13987016D01*
X14580766Y-14085944D01*
X14659994Y-14176556D01*
X14750463Y-14258154D01*
X14850665Y-14330039D01*
X14959094Y-14391511D01*
X15074243Y-14441873D01*
X15194604Y-14480425D01*
X15318671Y-14506468D01*
X15444936Y-14519303D01*
X15571892Y-14518233D01*
X15698033Y-14502557D01*
X15821850Y-14471578D01*
X15941838Y-14424596D01*
X16056488Y-14360912D01*
X16164295Y-14279829D01*
X16263750Y-14180646D01*
X16353347Y-14062665D01*
X16431579Y-13925187D01*
X16496939Y-13767514D01*
X16547918Y-13588946D01*
X16583012Y-13388785D01*
X16600711Y-13166332D01*
X16599510Y-12920888D01*
X16577901Y-12651755D01*
X16534377Y-12358233D01*
X16467431Y-12039623D01*
X16375556Y-11695228D01*
X16323712Y-11506614D01*
X16277932Y-11312469D01*
X16239435Y-11113079D01*
X16209439Y-10908732D01*
X16189163Y-10699713D01*
X16179824Y-10486311D01*
X16182640Y-10268813D01*
X16198830Y-10047505D01*
X16229612Y-9822675D01*
X16276203Y-9594609D01*
X16339822Y-9363595D01*
X16421688Y-9129920D01*
X16523017Y-8893871D01*
X16645029Y-8655735D01*
X16788941Y-8415799D01*
X16955971Y-8174350D01*
X17147338Y-7931675D01*
X17364260Y-7688062D01*
X17607954Y-7443797D01*
X17879639Y-7199167D01*
X17879639Y-7199167D01*
G37*
X17879639Y-7199167D02*
X17839481Y-7416246D01*
X17811285Y-7625778D01*
X17794698Y-7828148D01*
X17789365Y-8023739D01*
X17794932Y-8212934D01*
X17811045Y-8396119D01*
X17837348Y-8573677D01*
X17873488Y-8745991D01*
X17919110Y-8913447D01*
X17973859Y-9076428D01*
X18037382Y-9235317D01*
X18109324Y-9390500D01*
X18189330Y-9542359D01*
X18277047Y-9691279D01*
X18372119Y-9837644D01*
X18474192Y-9981838D01*
X18582913Y-10124244D01*
X18697925Y-10265247D01*
X18818876Y-10405231D01*
X18945410Y-10544580D01*
X19077174Y-10683677D01*
X19213812Y-10822907D01*
X19354971Y-10962653D01*
X19500296Y-11103300D01*
X19649432Y-11245231D01*
X19802025Y-11388831D01*
X19957721Y-11534483D01*
X20116166Y-11682572D01*
X20277004Y-11833481D01*
X20439882Y-11987594D01*
X20604445Y-12145296D01*
X20770339Y-12306970D01*
X20937209Y-12473001D01*
X21104701Y-12643771D01*
X21272461Y-12819666D01*
X21440133Y-13001069D01*
X21607364Y-13188364D01*
X21773800Y-13381936D01*
X21939085Y-13582167D01*
X22102866Y-13789443D01*
X22264787Y-14004147D01*
X22424495Y-14226662D01*
X22581636Y-14457374D01*
X22735854Y-14696665D01*
X22886796Y-14944921D01*
X23034106Y-15202524D01*
X23177431Y-15469860D01*
X23316416Y-15747311D01*
X23450707Y-16035262D01*
X23579950Y-16334097D01*
X23703789Y-16644199D01*
X23743421Y-16755802D01*
X23781360Y-16879628D01*
X23817151Y-17014978D01*
X23850342Y-17161154D01*
X23880480Y-17317455D01*
X23907110Y-17483185D01*
X23929780Y-17657642D01*
X23948036Y-17840129D01*
X23961426Y-18029945D01*
X23969495Y-18226394D01*
X23971790Y-18428774D01*
X23967859Y-18636387D01*
X23957248Y-18848535D01*
X23939503Y-19064518D01*
X23914171Y-19283637D01*
X23880799Y-19505193D01*
X23838934Y-19728487D01*
X23788122Y-19952820D01*
X23727911Y-20177493D01*
X23657845Y-20401808D01*
X23577474Y-20625064D01*
X23486342Y-20846563D01*
X23383997Y-21065607D01*
X23269986Y-21281495D01*
X23143854Y-21493529D01*
X23005150Y-21701011D01*
X22853419Y-21903240D01*
X22688209Y-22099518D01*
X22509065Y-22289146D01*
X22315535Y-22471425D01*
X22107166Y-22645655D01*
X21883503Y-22811139D01*
X21644094Y-22967176D01*
X21388486Y-23113068D01*
X21116224Y-23248116D01*
X20826857Y-23371621D01*
X20519930Y-23482884D01*
X20194990Y-23581205D01*
X19851584Y-23665886D01*
X19893491Y-23657366D01*
X19950167Y-23636659D01*
X20019904Y-23603925D01*
X20100995Y-23559325D01*
X20191735Y-23503021D01*
X20290416Y-23435174D01*
X20395332Y-23355946D01*
X20504776Y-23265496D01*
X20617042Y-23163987D01*
X20730421Y-23051579D01*
X20843209Y-22928434D01*
X20953698Y-22794713D01*
X21060181Y-22650578D01*
X21160952Y-22496188D01*
X21254305Y-22331706D01*
X21338531Y-22157293D01*
X21411925Y-21973109D01*
X21472781Y-21779317D01*
X21519390Y-21576077D01*
X21550047Y-21363550D01*
X21563045Y-21141897D01*
X21556677Y-20911281D01*
X21529236Y-20671861D01*
X21479017Y-20423799D01*
X21404311Y-20167256D01*
X21303412Y-19902394D01*
X21174614Y-19629374D01*
X21016210Y-19348356D01*
X20826494Y-19059502D01*
X20603758Y-18762973D01*
X20346295Y-18458931D01*
X20052400Y-18147536D01*
X20127961Y-18446316D01*
X20157428Y-18715861D01*
X20145492Y-18956539D01*
X20096847Y-19168718D01*
X20016183Y-19352767D01*
X19908193Y-19509054D01*
X19777570Y-19637948D01*
X19629004Y-19739818D01*
X19467189Y-19815032D01*
X19296815Y-19863958D01*
X19122576Y-19886965D01*
X18949163Y-19884421D01*
X18781269Y-19856695D01*
X18623585Y-19804156D01*
X18480803Y-19727172D01*
X18357616Y-19626112D01*
X18258715Y-19501343D01*
X18163660Y-19334694D01*
X18091219Y-19176703D01*
X18039909Y-19026682D01*
X18008246Y-18883942D01*
X17994747Y-18747794D01*
X17997930Y-18617549D01*
X18016310Y-18492520D01*
X18048406Y-18372016D01*
X18092733Y-18255350D01*
X18147809Y-18141832D01*
X18212150Y-18030774D01*
X18284274Y-17921488D01*
X18362698Y-17813283D01*
X18445937Y-17705473D01*
X18532510Y-17597367D01*
X18620932Y-17488278D01*
X18709721Y-17377517D01*
X18797395Y-17264394D01*
X18882468Y-17148221D01*
X18963460Y-17028310D01*
X19038885Y-16903971D01*
X19107262Y-16774516D01*
X19167107Y-16639256D01*
X19216937Y-16497503D01*
X19255269Y-16348568D01*
X19280620Y-16191761D01*
X19291506Y-16026395D01*
X19286446Y-15851781D01*
X19263954Y-15667229D01*
X19222549Y-15472052D01*
X19160747Y-15265560D01*
X19077065Y-15047064D01*
X18970020Y-14815877D01*
X18838129Y-14571309D01*
X18679908Y-14312671D01*
X18671073Y-14491903D01*
X18645533Y-14663433D01*
X18604147Y-14827764D01*
X18547770Y-14985398D01*
X18477261Y-15136838D01*
X18393476Y-15282586D01*
X18297271Y-15423146D01*
X18189505Y-15559018D01*
X18071033Y-15690707D01*
X17942714Y-15818715D01*
X17805403Y-15943543D01*
X17659957Y-16065696D01*
X17507235Y-16185674D01*
X17348092Y-16303982D01*
X17183386Y-16421121D01*
X17013973Y-16537594D01*
X16840711Y-16653903D01*
X16664457Y-16770551D01*
X16486067Y-16888041D01*
X16306398Y-17006876D01*
X16126308Y-17127557D01*
X15946653Y-17250587D01*
X15768290Y-17376469D01*
X15592077Y-17505705D01*
X15418870Y-17638799D01*
X15249526Y-17776252D01*
X15084902Y-17918567D01*
X14925856Y-18066247D01*
X14773243Y-18219794D01*
X14627922Y-18379710D01*
X14490748Y-18546499D01*
X14362580Y-18720663D01*
X14244273Y-18902705D01*
X14136685Y-19093126D01*
X14040673Y-19292430D01*
X13957094Y-19501119D01*
X13886805Y-19719695D01*
X13830662Y-19948662D01*
X13789523Y-20188521D01*
X13764245Y-20439776D01*
X13755684Y-20702929D01*
X13764698Y-20978482D01*
X13793613Y-21243047D01*
X13845065Y-21495856D01*
X13918181Y-21737124D01*
X14012088Y-21967066D01*
X14125914Y-22185897D01*
X14258784Y-22393832D01*
X14409825Y-22591086D01*
X14578166Y-22777873D01*
X14762932Y-22954408D01*
X14963250Y-23120907D01*
X15178248Y-23277584D01*
X15407053Y-23424654D01*
X15648790Y-23562332D01*
X15902588Y-23690833D01*
X15730626Y-23660613D01*
X15558459Y-23623294D01*
X15386314Y-23579025D01*
X15214415Y-23527959D01*
X15042988Y-23470247D01*
X14872257Y-23406040D01*
X14702449Y-23335489D01*
X14533789Y-23258747D01*
X14366502Y-23175964D01*
X14200813Y-23087291D01*
X14036947Y-22992881D01*
X13875131Y-22892884D01*
X13715589Y-22787451D01*
X13558546Y-22676735D01*
X13404229Y-22560886D01*
X13252862Y-22440055D01*
X13104670Y-22314395D01*
X12959879Y-22184056D01*
X12818715Y-22049190D01*
X12681402Y-21909947D01*
X12548166Y-21766481D01*
X12419233Y-21618941D01*
X12294827Y-21467479D01*
X12175174Y-21312246D01*
X12060499Y-21153395D01*
X11951027Y-20991075D01*
X11846985Y-20825439D01*
X11748597Y-20656638D01*
X11656088Y-20484823D01*
X11569684Y-20310146D01*
X11489610Y-20132757D01*
X11416092Y-19952809D01*
X11349355Y-19770452D01*
X11289624Y-19585838D01*
X11237124Y-19399119D01*
X11192082Y-19210445D01*
X11154721Y-19019968D01*
X11125268Y-18827839D01*
X11103948Y-18634210D01*
X11090986Y-18439232D01*
X11086607Y-18243056D01*
X11091037Y-18045834D01*
X11104501Y-17847716D01*
X11127225Y-17648856D01*
X11159434Y-17449403D01*
X11201352Y-17249508D01*
X11253206Y-17049325D01*
X11315221Y-16849003D01*
X11387622Y-16648694D01*
X11470635Y-16448550D01*
X11564484Y-16248721D01*
X11669395Y-16049360D01*
X11785593Y-15850617D01*
X11913305Y-15652643D01*
X12052754Y-15455591D01*
X12204167Y-15259612D01*
X12367768Y-15064856D01*
X12543784Y-14871475D01*
X12732439Y-14679621D01*
X12933958Y-14489445D01*
X13148568Y-14301098D01*
X13376493Y-14114732D01*
X13617959Y-13930498D01*
X13873190Y-13748546D01*
X14142413Y-13569030D01*
X14425853Y-13392099D01*
X14405987Y-13522123D01*
X14406405Y-13647326D01*
X14425598Y-13767008D01*
X14462061Y-13880471D01*
X14514286Y-13987016D01*
X14580766Y-14085944D01*
X14659994Y-14176556D01*
X14750463Y-14258154D01*
X14850665Y-14330039D01*
X14959094Y-14391511D01*
X15074243Y-14441873D01*
X15194604Y-14480425D01*
X15318671Y-14506468D01*
X15444936Y-14519303D01*
X15571892Y-14518233D01*
X15698033Y-14502557D01*
X15821850Y-14471578D01*
X15941838Y-14424596D01*
X16056488Y-14360912D01*
X16164295Y-14279829D01*
X16263750Y-14180646D01*
X16353347Y-14062665D01*
X16431579Y-13925187D01*
X16496939Y-13767514D01*
X16547918Y-13588946D01*
X16583012Y-13388785D01*
X16600711Y-13166332D01*
X16599510Y-12920888D01*
X16577901Y-12651755D01*
X16534377Y-12358233D01*
X16467431Y-12039623D01*
X16375556Y-11695228D01*
X16323712Y-11506614D01*
X16277932Y-11312469D01*
X16239435Y-11113079D01*
X16209439Y-10908732D01*
X16189163Y-10699713D01*
X16179824Y-10486311D01*
X16182640Y-10268813D01*
X16198830Y-10047505D01*
X16229612Y-9822675D01*
X16276203Y-9594609D01*
X16339822Y-9363595D01*
X16421688Y-9129920D01*
X16523017Y-8893871D01*
X16645029Y-8655735D01*
X16788941Y-8415799D01*
X16955971Y-8174350D01*
X17147338Y-7931675D01*
X17364260Y-7688062D01*
X17607954Y-7443797D01*
X17879639Y-7199167D01*
D13*
X10334524Y-12058333D02*
X9929762Y-11775000D01*
X10334524Y-11572619D02*
X9484524Y-11572619D01*
X9484524Y-11896428D01*
X9525000Y-11977381D01*
X9565476Y-12017857D01*
X9646429Y-12058333D01*
X9767857Y-12058333D01*
X9848810Y-12017857D01*
X9889286Y-11977381D01*
X9929762Y-11896428D01*
X9929762Y-11572619D01*
X9484524Y-12341667D02*
X9484524Y-12908333D01*
X10334524Y-12544048D01*
X10434524Y-16558333D02*
X10029762Y-16275000D01*
X10434524Y-16072619D02*
X9584524Y-16072619D01*
X9584524Y-16396428D01*
X9625000Y-16477381D01*
X9665476Y-16517857D01*
X9746429Y-16558333D01*
X9867857Y-16558333D01*
X9948810Y-16517857D01*
X9989286Y-16477381D01*
X10029762Y-16396428D01*
X10029762Y-16072619D01*
X9584524Y-17286905D02*
X9584524Y-17125000D01*
X9625000Y-17044048D01*
X9665476Y-17003571D01*
X9786905Y-16922619D01*
X9948810Y-16882143D01*
X10272619Y-16882143D01*
X10353571Y-16922619D01*
X10394048Y-16963095D01*
X10434524Y-17044048D01*
X10434524Y-17205952D01*
X10394048Y-17286905D01*
X10353571Y-17327381D01*
X10272619Y-17367857D01*
X10070238Y-17367857D01*
X9989286Y-17327381D01*
X9948810Y-17286905D01*
X9908333Y-17205952D01*
X9908333Y-17044048D01*
X9948810Y-16963095D01*
X9989286Y-16922619D01*
X10070238Y-16882143D01*
M02*
